<svg width="87" height="96" viewBox="0 0 87 96" fill="none" xmlns="http://www.w3.org/2000/svg">
<g filter="url(#filter0_i_26_191)">
<path d="M86.0926 38.125C86.0954 38.0682 86.0984 38.0116 86.1005 37.9547C86.1005 20.9759 73.3891 6.56592 55.9161 1.73163C57.5774 4.01665 59.0456 6.81985 60.2962 10.1039C62.7597 16.573 64.3525 24.953 64.8024 33.6002C66.3386 33.0265 68.0754 32.7026 69.8899 32.7026C74.0078 32.7026 77.7299 34.364 79.5945 36.8529L50.6632 54.0238L58.8262 39.5215C59.137 39.0667 59.3059 38.4982 59.3056 37.9332C59.1672 19.5823 53.4537 0.0559382 43.1373 0.000613109C43.1186 0.000238024 43.0951 -0.000324604 43.0783 0.000238024C32.7439 0.0227431 27.022 19.5611 26.8847 37.9335C26.884 38.4937 27.0507 39.0571 27.3562 39.5095L35.546 54.1563L6.42738 37.0977C8.23322 34.4959 12.0853 32.703 16.3004 32.703C18.1147 32.703 19.8515 33.0267 21.3875 33.6004C21.8374 24.9417 23.4324 16.5533 25.9005 10.0812C27.1499 6.80484 28.6165 4.00802 30.2753 1.72732C23.7451 3.5416 17.7437 6.74896 12.7342 11.184C8.76059 14.7021 5.63388 18.7952 3.44114 23.3498C1.17637 28.0544 0.0205477 33.03 0.00235607 38.1404C-0.0454673 39.2988 0.638875 40.3866 1.67861 40.8361L29.4824 57.1248H56.462L84.4333 40.5237C85.3758 40.1036 86.0287 39.1859 86.0926 38.125ZM32.8193 37.7514C34.3967 34.7718 38.4996 32.7028 43.0949 32.7028C47.6882 32.7028 51.7894 34.7699 53.3685 37.7473L43.0586 56.0637L32.8193 37.7514Z" fill="url(#paint0_linear_26_191)"/>
<path d="M45.8325 73.3291V62.751H40.2681V73.376L43.1073 71.4876L45.8325 73.3291Z" fill="url(#paint1_linear_26_191)"/>
<path d="M64.8696 62.751H51.4588V78.5372C51.4588 79.5265 50.9838 80.4767 50.147 81.0043C49.2014 81.6005 47.9953 81.5806 47.0707 80.9561L43.0824 78.2611L39.013 80.9675C38.0128 81.6329 36.6824 81.5981 35.7083 80.8308C35.0153 80.2851 34.6419 79.4271 34.6419 78.5451V62.751H21.2311C19.6775 62.751 18.418 64.0105 18.418 65.5641V93.1867C18.418 94.7403 19.6775 95.9998 21.2311 95.9998H64.8696C66.4232 95.9998 67.6828 94.7403 67.6828 93.1867V65.5641C67.6828 64.0105 66.4232 62.751 64.8696 62.751Z" fill="url(#paint2_linear_26_191)"/>
</g>
<defs>
<filter id="filter0_i_26_191" x="0" y="0" width="86.1006" height="98" filterUnits="userSpaceOnUse" color-interpolation-filters="sRGB">
<feFlood flood-opacity="0" result="BackgroundImageFix"/>
<feBlend mode="normal" in="SourceGraphic" in2="BackgroundImageFix" result="shape"/>
<feColorMatrix in="SourceAlpha" type="matrix" values="0 0 0 0 0 0 0 0 0 0 0 0 0 0 0 0 0 0 127 0" result="hardAlpha"/>
<feOffset dy="2"/>
<feGaussianBlur stdDeviation="1"/>
<feComposite in2="hardAlpha" operator="arithmetic" k2="-1" k3="1"/>
<feColorMatrix type="matrix" values="0 0 0 0 0 0 0 0 0 0 0 0 0 0 0 0 0 0 0.15 0"/>
<feBlend mode="normal" in2="shape" result="effect1_innerShadow_26_191"/>
</filter>
<linearGradient id="paint0_linear_26_191" x1="10.9941" y1="10.1201" x2="34.4483" y2="54.3066" gradientUnits="userSpaceOnUse">
<stop stop-color="#C176FF"/>
<stop offset="1" stop-color="#9826F5"/>
</linearGradient>
<linearGradient id="paint1_linear_26_191" x1="40.9786" y1="64.6333" x2="45.8058" y2="67.7931" gradientUnits="userSpaceOnUse">
<stop stop-color="#C176FF"/>
<stop offset="1" stop-color="#9826F5"/>
</linearGradient>
<linearGradient id="paint2_linear_26_191" x1="24.7085" y1="68.6413" x2="38.4898" y2="94.1645" gradientUnits="userSpaceOnUse">
<stop stop-color="#C176FF"/>
<stop offset="1" stop-color="#9826F5"/>
</linearGradient>
</defs>
</svg>
