<svg width="187" height="183" viewBox="0 0 187 183" fill="none" xmlns="http://www.w3.org/2000/svg">
<path d="M174.45 102.414L163.322 81.416L153.789 86.3434L164.682 108.761L174.45 102.414Z" fill="#2E0F4C"/>
<path d="M179.273 86.3435C163.739 92.8911 147.053 99.3566 129.284 105.483C114.206 110.698 99.6592 115.255 85.6438 119.156C84.9746 117.901 84.3273 116.668 83.6581 115.431C74.5526 98.2294 65.4411 81.0325 56.3234 63.8405C50.8966 53.5586 45.4614 43.2867 40.0176 33.0246C68.6843 18.3436 99.1572 7.65075 130.619 1.23291L174.991 78.8574L179.273 86.3435Z" fill="url(#paint0_linear_26_500)"/>
<path d="M95.3784 108.988C93.6718 108.97 92.0029 108.475 90.5547 107.555C89.1065 106.635 87.9351 105.327 87.1688 103.774L57.9544 46.0078C57.3376 44.7779 56.9702 43.4341 56.8741 42.0564C56.7779 40.6788 56.9551 39.2956 57.3949 37.9891C57.8044 36.7421 58.4601 35.5936 59.3217 34.6142C60.1833 33.6349 61.2325 32.8455 62.4048 32.2945C69.254 29.0729 76.2678 26.0747 83.2487 23.3782C95.2725 18.7328 107.557 14.819 120.036 11.6574C123.96 10.6705 128.118 12.5886 130.162 16.3316L161.19 73.1999C161.879 74.4656 162.296 75.8659 162.413 77.308C162.53 78.7501 162.345 80.2011 161.87 81.5649C161.428 82.8667 160.719 84.0579 159.79 85.0595C158.862 86.0612 157.735 86.8504 156.484 87.375C146.64 91.4235 136.62 95.2932 126.71 98.8761C117.297 102.28 107.632 105.55 97.9857 108.593C97.141 108.858 96.262 108.991 95.3784 108.988ZM122.117 13.5271C121.586 13.5264 121.056 13.5927 120.541 13.7245C108.135 16.8617 95.9241 20.7494 83.9727 25.3671C77.043 28.0449 70.0768 31.0245 63.2714 34.2237C62.3584 34.6598 61.5423 35.2811 60.8733 36.0496C60.2043 36.8181 59.6963 37.7176 59.3806 38.6931C59.0321 39.7276 58.8917 40.823 58.9678 41.914C59.0438 43.0049 59.3347 44.0691 59.823 45.0432L89.0228 102.794C90.6355 105.986 94.1423 107.561 97.364 106.548C106.985 103.509 116.621 100.25 126.008 96.8649C135.881 93.2894 145.879 89.416 155.698 85.3936C156.674 84.9827 157.553 84.365 158.277 83.5816C159 82.7982 159.552 81.867 159.896 80.8498C160.272 79.7712 160.419 78.6236 160.328 77.4827C160.236 76.3419 159.908 75.2338 159.366 74.2315L128.337 17.3633C127.728 16.2189 126.831 15.2604 125.738 14.5862C124.645 13.912 123.395 13.5464 122.117 13.5271Z" fill="#452C45"/>
<path d="M83.6362 162.564C79.0042 155.949 74.3417 149.044 69.6488 141.848C63.9039 133.022 59.8266 124.321 54.1073 114.601C46.172 101.096 38.7047 83.1403 32.2943 70.5108C31.3106 65.8105 28.7838 61.0544 31.6215 50.4659C33.3114 44.1606 36.1659 38.2411 40.0322 33.0244C45.4638 43.2964 50.899 53.5621 56.338 63.8217C65.4435 81.0236 74.5551 98.2205 83.6727 115.412C84.3419 116.668 84.9892 117.9 85.6584 119.137C82.5099 125.874 80.7108 133.182 80.3661 140.635C80.0214 148.088 81.1381 155.536 83.6508 162.545L83.6362 162.564Z" fill="url(#paint1_linear_26_500)"/>
<path d="M132.927 28.5552L143.93 24.2758V23.0021L130.955 0L101.759 7.51217L100.98 8.3092L107.95 19.11L120.259 15.0541C123.287 14.0597 126.523 15.5569 128.056 18.6706L132.927 28.5552Z" fill="#C13E1B"/>
<path d="M133.863 26.5291L143.93 23.0021L130.955 0L101.759 7.51217L108.137 17.7655L120.815 14.0001C122.33 13.5438 123.953 13.6272 125.416 14.2366C126.878 14.846 128.093 15.9449 128.86 17.3521L133.863 26.5291Z" fill="url(#paint2_linear_26_500)"/>
<path d="M184.726 126.198C184.557 127.316 184.85 129.431 184.243 131.133C184.112 131.585 183.891 132.004 183.596 132.366C183.311 132.727 182.956 133.023 182.553 133.237C178.334 135.535 173.741 137.852 168.793 140.128C158.157 145.073 147.195 149.259 135.987 152.653C118.931 157.828 101.384 161.15 83.64 162.564C81.1282 155.556 80.0118 148.108 80.3558 140.656C80.6999 133.204 82.4975 125.896 85.6439 119.159C87.6259 118.603 89.6299 118.028 91.6558 117.435C103.789 113.926 116.361 109.949 129.285 105.483C147.057 99.3601 163.739 92.8945 179.273 86.3433V93.1925L174.45 94.8275V94.8498L169.941 96.3806C157.874 101.487 144.863 106.526 130.956 111.278C117.049 116.031 103.665 120.083 91.0085 123.487C90.4454 123.636 89.8822 123.785 89.341 123.934C86.6639 134.125 86.6639 144.853 89.341 155.044C102.459 154.517 115.495 152.679 128.261 149.558C136.49 147.556 144.588 145.027 152.505 141.986C162.637 138.089 172.448 133.375 181.844 127.889C182.824 127.323 183.786 126.75 184.726 126.198Z" fill="url(#paint3_linear_26_500)"/>
<path d="M177.415 125.45L178.776 126.817L153.094 140.716C145.391 143.673 137.513 146.133 129.507 148.083C117.092 151.114 104.416 152.902 91.659 153.42C89.0551 143.505 89.0551 133.067 91.659 123.152C104.458 119.759 117.988 115.703 132.144 110.861C145.674 106.224 147.049 106.187 158.791 101.222L163.333 99.4421L177.415 125.45Z" fill="#CE9D5E"/>
<path d="M152.571 65.3859L164.682 61.2891L180.846 84.1719L149.397 106.18L147.045 105.833L149.397 98.2465L143.546 90.2353L144.354 87.725L155.01 83.6282C158.469 82.3842 159.687 77.5872 157.877 74.5108L152.571 65.3859Z" fill="#C13E1B"/>
<path d="M154.111 64.805L165.297 60.7603L180.846 84.3694L151.445 97.2075L144.38 87.7065L156.751 82.9541C157.505 82.6686 158.189 82.2204 158.757 81.6402C159.325 81.0599 159.763 80.3615 160.041 79.5926C160.319 78.8238 160.43 78.0029 160.367 77.1861C160.304 76.3694 160.069 75.5762 159.676 74.8609L154.111 64.805Z" fill="url(#paint4_linear_26_500)"/>
<path d="M181.844 127.901C172.448 133.386 162.637 138.1 152.505 141.998C144.588 145.038 136.49 147.567 128.26 149.569C115.495 152.691 102.459 154.528 89.3408 155.055C86.6637 144.865 86.6637 134.136 89.3408 123.945C89.882 123.796 90.4379 123.647 91.0083 123.498C91.0083 123.498 88.4486 147.707 92.0323 150.228C146.618 145.901 179.273 124.455 179.273 124.455L181.844 127.901Z" fill="#2E0F4C"/>
<path d="M150.875 137.699L153.434 141.424L152.494 147.01L186.993 133.197V124.452L174.45 102.422L166.862 106.18L171.982 115.628C172.648 116.862 173.058 118.223 173.187 119.625C173.316 121.027 173.16 122.441 172.73 123.779C172.3 125.118 171.604 126.352 170.685 127.405C169.767 128.458 168.646 129.307 167.392 129.9L150.875 137.699Z" fill="url(#paint5_linear_26_500)"/>
<path d="M187 133.197L152.501 147.011L153.441 141.424C162.175 138.092 170.644 134.083 178.776 129.431C181.635 127.788 184.377 126.125 187 124.444V133.197Z" fill="url(#paint6_linear_26_500)"/>
<path d="M151.445 97.2187L149.412 106.172L179.617 92.9244L180.846 84.2651L151.445 97.2187Z" fill="url(#paint7_linear_26_500)"/>
<path d="M150.874 137.703L149.412 138.225L152.099 142.117L150.874 147.625L152.505 147.014L153.441 141.431L150.874 137.703Z" fill="#C13E1B"/>
<path d="M101.562 138.757C101.562 138.757 107.724 141.964 106.557 148.731C105.391 155.499 105.336 166.109 105.336 166.109L120.329 153.707L132.462 162.683C132.462 162.683 135.94 142.646 134.166 139.294C132.393 135.942 128.096 133.334 128.096 133.334L101.562 138.757Z" fill="url(#paint8_linear_26_500)"/>
<path opacity="0.72" d="M94.4751 139.897L112.361 135.632C118.299 134.143 124.242 132.724 130.136 131.107C136.031 129.491 141.886 127.789 147.653 125.815C150.535 124.831 153.365 123.692 156.129 122.403C158.901 121.144 161.582 119.658 163.926 117.632C159.72 122.306 153.836 124.914 148.201 127.346C142.486 129.711 136.587 131.528 130.648 133.163C124.699 134.735 118.709 136.143 112.668 137.227C106.627 138.31 100.589 139.316 94.4751 139.897Z" fill="#9E6E4B"/>
<path opacity="0.72" d="M92.4419 131.789L110.309 127.521C116.251 126.049 122.194 124.612 128.085 122.999C133.976 121.386 139.834 119.677 145.605 117.703C148.487 116.722 151.315 115.585 154.078 114.295C156.853 113.036 159.534 111.55 161.874 109.524C157.672 114.195 151.785 116.805 146.168 119.237C140.452 121.602 134.55 123.42 128.615 125.051C122.68 126.683 116.679 128.031 110.635 129.115C104.59 130.198 98.5525 131.204 92.4419 131.789Z" fill="#9E6E4B"/>
<path d="M120.998 43.5125L116.16 44.0563C115.349 44.136 114.532 44.0193 113.774 43.7158C113.017 43.4122 112.341 42.9303 111.801 42.3096L108.331 38.4213C105.442 35.2145 100.538 36.5851 100.015 40.7192L99.364 45.7509C99.2724 46.54 98.9836 47.292 98.5252 47.935C98.0668 48.5779 97.4541 49.0903 96.7457 49.4232L92.3904 51.3972C88.7665 53.0508 88.8213 58.4475 92.4891 60.5443L96.9358 63.1068C97.6583 63.5233 98.2789 64.1008 98.7513 64.796C99.2237 65.4913 99.5356 66.2863 99.6638 67.1217L100.435 72.2539C101.09 76.4812 106.027 78.4551 108.813 75.6059L112.214 72.1571C112.772 71.6024 113.46 71.2019 114.213 70.9933C114.965 70.7848 115.757 70.7751 116.514 70.9653L121.378 72.1497C125.401 73.1143 128.385 68.9355 126.454 65.0732L124.099 60.4065C123.721 59.6724 123.518 58.8579 123.507 58.029C123.495 57.2002 123.676 56.3803 124.033 55.6356L126.253 51.2519C128.096 47.6169 124.976 43.047 120.998 43.5125ZM123.671 49.6653L121.448 54.0489C120.869 55.2234 120.574 56.5219 120.589 57.8359C120.604 59.1499 120.927 60.4413 121.532 61.6021L123.883 66.3135C124.123 66.7422 124.198 67.2465 124.093 67.7283C123.988 68.2101 123.711 68.6351 123.316 68.9206C123.099 69.0759 122.85 69.1804 122.589 69.2268C122.327 69.2731 122.058 69.2601 121.802 69.1887L116.957 68.0267C115.935 67.7647 114.869 67.7309 113.832 67.9276C112.796 68.1243 111.814 68.5469 110.952 69.1664C110.647 69.3921 110.358 69.6411 110.089 69.9113L106.689 73.3564C106.621 73.4386 106.543 73.5102 106.455 73.5687C106.175 73.77 105.845 73.8872 105.503 73.907C105.161 73.9267 104.82 73.8482 104.52 73.6804C104.186 73.5327 103.896 73.2979 103.68 72.9997C103.464 72.7016 103.328 72.3505 103.288 71.9821L102.531 66.8721C102.321 65.5423 101.82 64.2777 101.064 63.172C100.309 62.0663 99.3193 61.1478 98.1682 60.4848L93.7215 57.9223C93.4157 57.7482 93.156 57.5009 92.9649 57.2018C92.7738 56.9027 92.6569 56.5607 92.6244 56.2054C92.5747 55.8651 92.6164 55.5174 92.7451 55.1993C92.8739 54.8812 93.085 54.6047 93.3558 54.399C93.4619 54.3179 93.5758 54.248 93.6959 54.1905L98.0658 52.2165C98.508 52.0106 98.9293 51.7611 99.3238 51.4716C100.134 50.873 100.813 50.1086 101.317 49.2274C101.821 48.3462 102.138 47.3676 102.249 46.3543L102.896 41.3412C102.921 41.0851 102.999 40.8373 103.125 40.6144C103.251 40.3914 103.422 40.1986 103.628 40.0488C104.034 39.7589 104.534 39.6361 105.025 39.7052C105.517 39.7742 105.965 40.03 106.279 40.4213L109.793 44.317C110.651 45.3015 111.726 46.0658 112.928 46.5479C114.131 47.0301 115.429 47.2164 116.716 47.0917L121.543 46.548C121.923 46.4935 122.31 46.5541 122.657 46.7223C123.003 46.8905 123.294 47.1589 123.492 47.494C123.716 47.8033 123.852 48.1703 123.884 48.5537C123.915 48.9372 123.842 49.3221 123.671 49.6653Z" fill="#452C45"/>
<path style="mix-blend-mode:screen" d="M85.9815 173.878C95.0805 168.84 86.8971 135.606 67.7034 99.6467C48.5097 63.6878 25.574 38.6213 16.4751 43.6593C7.37614 48.6972 15.5596 81.9317 34.7532 117.891C53.9469 153.85 76.8826 178.916 85.9815 173.878Z" fill="url(#paint9_radial_26_500)"/>
<path style="mix-blend-mode:screen" d="M75.7851 154.775C78.8991 153.051 70.4291 131.055 56.8668 105.647C43.3044 80.2378 29.7856 61.0377 26.6716 62.7619C23.5576 64.4861 32.0276 86.4816 45.59 111.89C59.1523 137.299 72.6711 156.499 75.7851 154.775Z" fill="url(#paint10_radial_26_500)"/>
<defs>
<linearGradient id="paint0_linear_26_500" x1="134.733" y1="-15.0019" x2="98.671" y2="88.4976" gradientUnits="userSpaceOnUse">
<stop stop-color="#AD55C0"/>
<stop offset="1" stop-color="#7E3DB6"/>
</linearGradient>
<linearGradient id="paint1_linear_26_500" x1="73.3129" y1="90.861" x2="49.5186" y2="104.706" gradientUnits="userSpaceOnUse">
<stop stop-color="#AD55C0"/>
<stop offset="1" stop-color="#7E3DB6"/>
</linearGradient>
<linearGradient id="paint2_linear_26_500" x1="119.586" y1="23.4118" x2="127.899" y2="3.35028" gradientUnits="userSpaceOnUse">
<stop stop-color="#DC5C33"/>
<stop offset="1" stop-color="#F5AD08"/>
</linearGradient>
<linearGradient id="paint3_linear_26_500" x1="80.2977" y1="124.455" x2="184.726" y2="124.455" gradientUnits="userSpaceOnUse">
<stop stop-color="#542B74"/>
<stop offset="1" stop-color="#7E3DB6"/>
</linearGradient>
<linearGradient id="paint4_linear_26_500" x1="144.38" y1="78.9913" x2="180.846" y2="78.9913" gradientUnits="userSpaceOnUse">
<stop stop-color="#DC5C33"/>
<stop offset="1" stop-color="#F5AD08"/>
</linearGradient>
<linearGradient id="paint5_linear_26_500" x1="160.964" y1="124.202" x2="198.263" y2="131.461" gradientUnits="userSpaceOnUse">
<stop stop-color="#DC5C33"/>
<stop offset="1" stop-color="#F5AD08"/>
</linearGradient>
<linearGradient id="paint6_linear_26_500" x1="168.705" y1="133.871" x2="174.238" y2="143.37" gradientUnits="userSpaceOnUse">
<stop stop-color="#DC5C33"/>
<stop offset="1" stop-color="#F5AD08"/>
</linearGradient>
<linearGradient id="paint7_linear_26_500" x1="163.103" y1="91.0883" x2="167.504" y2="99.7352" gradientUnits="userSpaceOnUse">
<stop stop-color="#DC5C33"/>
<stop offset="1" stop-color="#F5AD08"/>
</linearGradient>
<linearGradient id="paint8_linear_26_500" x1="116.785" y1="131.852" x2="120.034" y2="153.254" gradientUnits="userSpaceOnUse">
<stop stop-color="#C02AAB"/>
<stop offset="1" stop-color="#DD6BD4"/>
</linearGradient>
<radialGradient id="paint9_radial_26_500" cx="0" cy="0" r="1" gradientUnits="userSpaceOnUse" gradientTransform="translate(3.51817 137.033) rotate(61.9082) scale(71.0953 18.3606)">
<stop stop-color="#FFEC7F"/>
<stop offset="0.08" stop-color="#FFAA2D"/>
<stop offset="0.13" stop-color="#FF8600"/>
<stop offset="0.16" stop-color="#ED7D00"/>
<stop offset="0.26" stop-color="#B66000"/>
<stop offset="0.36" stop-color="#864600"/>
<stop offset="0.46" stop-color="#5D3100"/>
<stop offset="0.56" stop-color="#3B1F00"/>
<stop offset="0.66" stop-color="#211100"/>
<stop offset="0.77" stop-color="#0F0800"/>
<stop offset="0.88" stop-color="#040200"/>
<stop offset="1"/>
</radialGradient>
<radialGradient id="paint10_radial_26_500" cx="0" cy="0" r="1" gradientUnits="userSpaceOnUse" gradientTransform="translate(-28.9833 155.384) rotate(61.9082) scale(50.2525 6.48894)">
<stop offset="0.02" stop-color="white"/>
<stop offset="0.11" stop-color="#FFEC7F"/>
<stop offset="0.16" stop-color="#FFAA2D"/>
<stop offset="0.2" stop-color="#FF8600"/>
<stop offset="0.22" stop-color="#ED7D00"/>
<stop offset="0.31" stop-color="#B66000"/>
<stop offset="0.4" stop-color="#864600"/>
<stop offset="0.5" stop-color="#5D3100"/>
<stop offset="0.59" stop-color="#3B1F00"/>
<stop offset="0.69" stop-color="#211100"/>
<stop offset="0.78" stop-color="#0F0800"/>
<stop offset="0.89" stop-color="#040200"/>
<stop offset="1"/>
</radialGradient>
</defs>
</svg>
