<svg width="150" height="172" viewBox="0 0 150 172" fill="none" xmlns="http://www.w3.org/2000/svg">
<path d="M88.2312 171.76L150 136.099V50.9287L88.2312 86.5861V171.76Z" fill="#C70000"/>
<path d="M150 81.3114L88.2312 116.973V106.518L150 70.8569V81.3114Z" fill="#8B8FC1"/>
<path d="M150 77.5626L88.2312 113.224V110.266L150 74.6045V77.5626Z" fill="#70739C"/>
<path d="M88.2312 171.76L0.019043 120.831V35.6572L88.2312 86.586V171.76Z" fill="#F80202"/>
<path d="M88.2312 116.973L0.019043 66.0438V55.5894L88.2312 106.518V116.973Z" fill="#B1B7F5"/>
<path d="M88.2312 113.224L0.019043 62.2955V59.3374L88.2312 110.266V113.224Z" fill="#8B8FC1"/>
<path d="M59.0549 142.886L29.1954 125.645C26.6304 124.164 24.5464 120.187 24.5464 116.763V102.167C24.5464 98.7318 26.6304 97.1707 29.1954 98.6516L59.0587 115.893C61.6275 117.374 63.7077 121.351 63.7077 124.774V139.37C63.7039 142.794 61.6389 144.367 59.0549 142.886Z" fill="#37474F"/>
<path d="M56.0929 138.172L32.1534 124.355C29.5884 122.874 27.5044 118.896 27.5044 115.473V106.873C27.5044 103.438 29.5884 101.873 32.1534 103.358L56.0929 117.179C58.6617 118.66 60.7419 122.637 60.7419 126.061V134.66C60.7419 138.084 58.6617 139.66 56.0929 138.172Z" fill="#B1B7F5"/>
<path d="M88.216 86.59L149.981 50.9288L61.7649 0L0 35.6612L88.216 86.59Z" fill="#FF5454"/>
<path d="M74.9906 61.1391L44.0852 43.2951L74.9906 25.4512L105.896 43.2951L74.9906 61.1391Z" fill="white"/>
<path d="M74.9904 58.2686L49.0508 43.295L74.9904 28.3213L100.926 43.295L74.9904 58.2686Z" fill="#67EA68"/>
<path d="M81.361 49.7496L63.8147 39.6158L68.6163 36.8447L86.1664 46.9748L81.361 49.7496Z" fill="white"/>
<path d="M86.1664 39.6158L68.6163 49.7496L63.8147 46.9748L81.361 36.8447L86.1664 39.6158Z" fill="white"/>
<path d="M85.6357 26.7487L90.2923 24.0425V24.1417L85.6357 26.8479V26.7487Z" fill="#587380"/>
<path d="M87.8305 21.9435L92.4871 19.2373C91.1397 20.0007 90.3 21.6839 90.2924 24.0428L85.6357 26.7489C85.6434 24.3901 86.4831 22.7259 87.8305 21.9435Z" fill="#587380"/>
<path d="M105.549 38.2452L110.205 35.5391V35.6383L105.549 38.3407V38.2452Z" fill="#587380"/>
<path d="M84.4412 16.1076L89.0978 13.4014C91.3421 12.096 94.4414 12.2563 97.8423 14.2258L93.1857 16.932C89.7886 14.9701 86.6855 14.8022 84.4412 16.1076Z" fill="#587380"/>
<path d="M93.1855 16.9318L97.8422 14.2256C104.674 18.1723 110.228 27.7832 110.205 35.5391L105.533 38.2453C105.571 30.4894 100.018 20.8784 93.1855 16.9318Z" fill="#587380"/>
<path d="M93.1856 16.9318C100.018 20.8785 105.571 30.4894 105.533 38.2453V38.3446L100.724 35.5659V35.4705C100.724 30.7184 97.3728 24.8939 93.1551 22.4587C89.0214 20.0693 85.6358 22.0007 85.6206 26.7489V26.8481L80.8113 24.0694V23.974C80.8494 16.2181 86.4488 13.0348 93.1856 16.9318Z" fill="#37474F"/>
</svg>
