<svg width="100" height="100" viewBox="0 0 100 100" fill="none" xmlns="http://www.w3.org/2000/svg">
<g filter="url(#filter0_i_26_189)">
<path d="M91.3336 69.7918C89.9586 80.8752 80.8752 89.9585 69.7919 91.3335C63.0836 92.1668 56.8336 90.3335 51.9586 86.7502C49.1669 84.7085 49.8336 80.3752 53.1669 79.3752C65.7086 75.5835 75.5836 65.6668 79.4169 53.1252C80.4169 49.8335 84.7502 49.1668 86.7919 51.9168C90.3336 56.8335 92.1669 63.0835 91.3336 69.7918Z" fill="url(#paint0_linear_26_189)"/>
<path d="M41.6252 8.3335C23.2502 8.3335 8.3335 23.2502 8.3335 41.6252C8.3335 60.0002 23.2502 74.9168 41.6252 74.9168C60.0002 74.9168 74.9168 60.0002 74.9168 41.6252C74.8752 23.2502 60.0002 8.3335 41.6252 8.3335ZM37.7085 36.9585L47.7502 40.4585C51.3752 41.7502 53.1252 44.2918 53.1252 48.2085C53.1252 52.7085 49.5418 56.4168 45.1668 56.4168H44.7918V56.6252C44.7918 58.3335 43.3752 59.7502 41.6668 59.7502C39.9585 59.7502 38.5418 58.3335 38.5418 56.6252V56.3752C33.9168 56.1668 30.2085 52.2918 30.2085 47.4585C30.2085 45.7502 31.6252 44.3335 33.3335 44.3335C35.0418 44.3335 36.4585 45.7502 36.4585 47.4585C36.4585 48.9585 37.5418 50.1668 38.8752 50.1668H45.1252C46.0835 50.1668 46.8335 49.2918 46.8335 48.2085C46.8335 46.7502 46.5835 46.6668 45.6252 46.3335L35.5835 42.8335C32.0002 41.5835 30.2085 39.0418 30.2085 35.0835C30.2085 30.5835 33.7918 26.8752 38.1668 26.8752H38.5418V26.7085C38.5418 25.0002 39.9585 23.5835 41.6668 23.5835C43.3752 23.5835 44.7918 25.0002 44.7918 26.7085V26.9585C49.4168 27.1668 53.1252 31.0418 53.1252 35.8752C53.1252 37.5835 51.7085 39.0002 50.0002 39.0002C48.2918 39.0002 46.8752 37.5835 46.8752 35.8752C46.8752 34.3752 45.7918 33.1668 44.4585 33.1668H38.2085C37.2502 33.1668 36.5002 34.0418 36.5002 35.1252C36.4585 36.5418 36.7085 36.6252 37.7085 36.9585Z" fill="url(#paint1_linear_26_189)"/>
</g>
<defs>
<filter id="filter0_i_26_189" x="0" y="0" width="100" height="102" filterUnits="userSpaceOnUse" color-interpolation-filters="sRGB">
<feFlood flood-opacity="0" result="BackgroundImageFix"/>
<feBlend mode="normal" in="SourceGraphic" in2="BackgroundImageFix" result="shape"/>
<feColorMatrix in="SourceAlpha" type="matrix" values="0 0 0 0 0 0 0 0 0 0 0 0 0 0 0 0 0 0 127 0" result="hardAlpha"/>
<feOffset dy="2"/>
<feGaussianBlur stdDeviation="1"/>
<feComposite in2="hardAlpha" operator="arithmetic" k2="-1" k3="1"/>
<feColorMatrix type="matrix" values="0 0 0 0 0 0 0 0 0 0 0 0 0 0 0 0 0 0 0.15 0"/>
<feBlend mode="normal" in2="shape" result="effect1_innerShadow_26_189"/>
</filter>
<linearGradient id="paint0_linear_26_189" x1="55.4886" y1="57.5233" x2="75.479" y2="82.5035" gradientUnits="userSpaceOnUse">
<stop stop-color="#00FF40"/>
<stop offset="1" stop-color="#00D936"/>
</linearGradient>
<linearGradient id="paint1_linear_26_189" x1="16.8355" y1="20.1293" x2="49.0376" y2="60.3798" gradientUnits="userSpaceOnUse">
<stop stop-color="#00FF40"/>
<stop offset="1" stop-color="#00D936"/>
</linearGradient>
</defs>
</svg>
