<svg width="67" height="68" viewBox="0 0 67 68" fill="none" xmlns="http://www.w3.org/2000/svg">
<path d="M37.5835 4.36719L8.16846 21.3185L37.5835 36.7996L66.9986 21.3185L37.5835 4.36719Z" fill="url(#paint0_linear_26_603)"/>
<path d="M65.6792 52.828L37.5833 67.7251L9.4873 51.8849V30.2012L37.5833 46.4174L65.1136 31.9102L65.6792 52.828Z" fill="url(#paint1_linear_26_603)"/>
<path d="M67.0002 21.3184V31.8959L65.1433 32.9254L37.5836 48.2108L9.48611 31.9052L8.16699 31.1393V21.3184L37.5836 36.7979L67.0002 21.3184Z" fill="url(#paint2_linear_26_603)"/>
<path d="M17.0938 26.0156V56.1735L25.0747 60.6717V30.2165L17.0938 26.0156Z" fill="url(#paint3_radial_26_603)"/>
<path d="M65.6794 52.828L65.1139 31.9102L37.5835 48.2142V67.7251L65.6794 52.828Z" fill="url(#paint4_linear_26_603)"/>
<path d="M67.0001 21.3184V31.8959L65.1432 32.9254L37.5835 48.2108V36.7979L67.0001 21.3184Z" fill="url(#paint5_linear_26_603)"/>
<path d="M49.0732 30.7529V61.6319L57.629 57.0967V26.25L49.0732 30.7529Z" fill="url(#paint6_radial_26_603)"/>
<path style="mix-blend-mode:multiply" d="M37.5833 48.2108V67.7279L9.48584 51.8877V31.9053L37.5833 48.2108Z" fill="url(#paint7_linear_26_603)"/>
<path style="mix-blend-mode:multiply" d="M65.6794 52.8296L37.5835 67.7283V48.2112L65.1432 32.9258L65.6794 52.8296Z" fill="url(#paint8_linear_26_603)"/>
<path d="M34.2841 24.3882L28.0368 28.3424C26.1258 29.5511 24.7126 31.4062 24.0548 33.5696L21.0837 43.3443L17.7474 36.7056L12.9702 39.9109L16.1432 30.4074C16.5785 29.1049 17.2928 27.9131 18.2364 26.9152C19.1799 25.9174 20.33 25.1375 21.6061 24.6301L29.94 21.3169L34.2841 24.3882Z" fill="url(#paint9_radial_26_603)"/>
<path d="M40.4111 23.6934L47.8836 29.782C48.6667 30.4191 49.2926 31.228 49.7128 32.1459L54.644 42.9331L57.629 37.1003L62.3923 40.4829L58.6445 29.292C58.328 28.3458 57.8006 27.484 57.1023 26.7715C56.4039 26.059 55.5528 25.5144 54.6132 25.179L42.6703 20.9165L40.4111 23.6934Z" fill="url(#paint10_radial_26_603)"/>
<path d="M62.1058 18.067C60.7327 23.496 54.4238 26.5673 41.4561 22.5637V17.0993C41.4561 17.0993 45.2223 0.599507 51.821 0.0277876C58.4196 -0.543932 62.0025 7.81612 62.3816 14.9958C62.4394 16.0275 62.3465 17.0621 62.1058 18.067Z" fill="url(#paint11_linear_26_603)"/>
<path d="M57.7602 12.1943C54.39 11.1818 44.6491 19.1983 41.4546 21.9351V22.5592C54.4254 26.5659 60.7343 23.4915 62.1043 18.0625C62.0812 15.2825 60.7421 13.0912 57.7602 12.1943ZM51.8118 23.51C49.1921 23.51 46.1455 23.0077 42.7198 22.023C48.0255 17.554 54.3869 12.9941 57.1068 12.9941C57.2428 12.9888 57.3789 13.0039 57.5105 13.0388C59.9222 13.7692 61.172 15.4227 61.2336 17.9577C60.2505 21.5915 57.0035 23.51 51.8118 23.51Z" fill="url(#paint12_linear_26_603)"/>
<path d="M61.2274 17.9576C60.2504 21.5913 57.0035 23.5052 51.8118 23.5052C49.192 23.5052 46.1454 23.0029 42.7197 22.0182C48.0255 17.5492 54.3868 12.9893 57.1067 12.9893C57.2428 12.9841 57.3789 12.9991 57.5105 13.034C59.916 13.7691 61.1658 15.4226 61.2274 17.9576Z" fill="url(#paint13_linear_26_603)"/>
<path d="M14.0488 18.067C15.4219 23.496 21.7308 26.5673 34.6985 22.5637V17.0993C34.6985 17.0993 30.9323 0.599507 24.3336 0.0277876C17.735 -0.543932 14.1521 7.81612 13.773 14.9958C13.7152 16.0275 13.8081 17.0621 14.0488 18.067Z" fill="url(#paint14_linear_26_603)"/>
<path d="M18.3917 12.1943C15.4175 13.0912 14.0768 15.2763 14.0444 18.0625C15.4175 23.4915 21.7264 26.5628 34.6942 22.5592V21.9351C31.5027 19.1983 21.7619 11.1818 18.3917 12.1943ZM24.3308 23.51C19.1483 23.51 15.9014 21.5915 14.9305 17.9624C14.9922 15.4274 16.2419 13.7739 18.6521 13.0434C18.7842 13.0081 18.9208 12.993 19.0574 12.9987C21.7773 12.9987 28.1386 17.5571 33.4444 22.0276C30.0064 23.0077 26.9443 23.51 24.3308 23.51Z" fill="url(#paint15_linear_26_603)"/>
<path d="M33.4379 22.023C30.006 23.0077 26.944 23.5101 24.3304 23.5101C19.148 23.5101 15.901 21.5915 14.9302 17.9624C14.9918 15.4274 16.2416 13.7739 18.6518 13.0434C18.7838 13.0081 18.9205 12.993 19.057 12.9987C21.7708 12.9941 28.1321 17.5525 33.4379 22.023Z" fill="url(#paint16_linear_26_603)"/>
<path d="M34.1437 14.999C34.1437 14.999 32.4917 24.9201 31.8322 25.7692C31.1726 26.6183 42.3913 27.8434 43.2357 25.2976C44.0802 22.7519 42.2926 16.1532 41.5406 15.8697C40.7886 15.5861 36.0299 13.8679 34.1437 14.999Z" fill="url(#paint17_linear_26_603)"/>
<path style="mix-blend-mode:screen" d="M41.9149 38.8078C43.9799 34.9629 37.1081 27.2561 26.5661 21.5941C16.0242 15.9321 5.8042 14.459 3.73913 18.3038C1.67407 22.1487 8.54593 29.8556 19.0879 35.5176C29.6298 41.1796 39.8498 42.6527 41.9149 38.8078Z" fill="url(#paint18_radial_26_603)"/>
<path style="mix-blend-mode:screen" d="M36.3162 35.8001C37.023 34.4843 31.5572 30.1742 24.1082 26.1734C16.6591 22.1725 10.0475 19.9959 9.34071 21.3117C8.63397 22.6276 14.0997 26.9377 21.5488 30.9385C28.9979 34.9394 35.6095 37.116 36.3162 35.8001Z" fill="url(#paint19_radial_26_603)"/>
<defs>
<linearGradient id="paint0_linear_26_603" x1="37.5234" y1="5.02366" x2="37.6637" y2="43.0654" gradientUnits="userSpaceOnUse">
<stop stop-color="#F52352"/>
<stop offset="0.09" stop-color="#F72F53"/>
<stop offset="0.25" stop-color="#FB4D54"/>
<stop offset="0.36" stop-color="#FF6555"/>
<stop offset="0.62" stop-color="#FF6274"/>
<stop offset="0.78" stop-color="#FE9385"/>
</linearGradient>
<linearGradient id="paint1_linear_26_603" x1="37.9932" y1="40.7757" x2="21.5874" y2="70.3787" gradientUnits="userSpaceOnUse">
<stop stop-color="#F52352"/>
<stop offset="0.09" stop-color="#F72F53"/>
<stop offset="0.25" stop-color="#FB4D54"/>
<stop offset="0.36" stop-color="#FF6555"/>
<stop offset="0.62" stop-color="#FF6274"/>
<stop offset="0.78" stop-color="#FE9385"/>
</linearGradient>
<linearGradient id="paint2_linear_26_603" x1="28.6534" y1="42.7925" x2="34.6865" y2="31.8559" gradientUnits="userSpaceOnUse">
<stop stop-color="#F52352"/>
<stop offset="0.09" stop-color="#F72F53"/>
<stop offset="0.25" stop-color="#FB4D54"/>
<stop offset="0.36" stop-color="#FF6555"/>
<stop offset="0.62" stop-color="#FF6274"/>
<stop offset="0.78" stop-color="#FE9385"/>
</linearGradient>
<radialGradient id="paint3_radial_26_603" cx="0" cy="0" r="1" gradientUnits="userSpaceOnUse" gradientTransform="translate(21.0835 43.3444) scale(12.5732 12.5732)">
<stop offset="0.23" stop-color="#FDE9A8"/>
<stop offset="0.8" stop-color="#FFC733"/>
<stop offset="1" stop-color="#FF9533"/>
</radialGradient>
<linearGradient id="paint4_linear_26_603" x1="46.6493" y1="39.9358" x2="59.4722" y2="66.8991" gradientUnits="userSpaceOnUse">
<stop stop-color="#F52352"/>
<stop offset="0.09" stop-color="#F72F53"/>
<stop offset="0.25" stop-color="#FB4D54"/>
<stop offset="0.36" stop-color="#FF6555"/>
<stop offset="0.62" stop-color="#FF6274"/>
<stop offset="0.78" stop-color="#FE9385"/>
</linearGradient>
<linearGradient id="paint5_linear_26_603" x1="54.5363" y1="39.1804" x2="48.6927" y2="27.6828" gradientUnits="userSpaceOnUse">
<stop stop-color="#F52352"/>
<stop offset="0.09" stop-color="#F72F53"/>
<stop offset="0.25" stop-color="#FB4D54"/>
<stop offset="0.36" stop-color="#FF6555"/>
<stop offset="0.62" stop-color="#FF6274"/>
<stop offset="0.78" stop-color="#FE9385"/>
</linearGradient>
<radialGradient id="paint6_radial_26_603" cx="0" cy="0" r="1" gradientUnits="userSpaceOnUse" gradientTransform="translate(53.3511 43.941) scale(12.8706 12.8706)">
<stop offset="0.23" stop-color="#FDE9A8"/>
<stop offset="0.8" stop-color="#FFC733"/>
<stop offset="1" stop-color="#FF9533"/>
</radialGradient>
<linearGradient id="paint7_linear_26_603" x1="18.5548" y1="58.696" x2="29.869" y2="38.5209" gradientUnits="userSpaceOnUse">
<stop stop-color="white"/>
<stop offset="0.02" stop-color="#FEF7F8"/>
<stop offset="0.12" stop-color="#F9DADE"/>
<stop offset="0.22" stop-color="#F5C5CB"/>
<stop offset="0.31" stop-color="#F3B8C0"/>
<stop offset="0.4" stop-color="#F2B4BC"/>
<stop offset="1" stop-color="#D4001D"/>
</linearGradient>
<linearGradient id="paint8_linear_26_603" x1="55.9587" y1="59.2634" x2="45.7771" y2="39.4643" gradientUnits="userSpaceOnUse">
<stop stop-color="white"/>
<stop offset="0.01" stop-color="#FEFAFA"/>
<stop offset="0.06" stop-color="#FAE0E4"/>
<stop offset="0.13" stop-color="#F6CDD2"/>
<stop offset="0.2" stop-color="#F4BFC5"/>
<stop offset="0.28" stop-color="#F2B6BE"/>
<stop offset="0.43" stop-color="#F2B4BC"/>
<stop offset="1" stop-color="#D4001D"/>
</linearGradient>
<radialGradient id="paint9_radial_26_603" cx="0" cy="0" r="1" gradientUnits="userSpaceOnUse" gradientTransform="translate(23.6295 32.3306) scale(10.8349 10.8349)">
<stop offset="0.23" stop-color="#FDE9A8"/>
<stop offset="0.8" stop-color="#FFC733"/>
<stop offset="1" stop-color="#FF9533"/>
</radialGradient>
<radialGradient id="paint10_radial_26_603" cx="0" cy="0" r="1" gradientUnits="userSpaceOnUse" gradientTransform="translate(51.4017 31.9194) scale(10.9998 10.9998)">
<stop offset="0.23" stop-color="#FDE9A8"/>
<stop offset="0.8" stop-color="#FFC733"/>
<stop offset="1" stop-color="#FF9533"/>
</radialGradient>
<linearGradient id="paint11_linear_26_603" x1="69.9927" y1="8.7207" x2="48.2134" y2="13.1049" gradientUnits="userSpaceOnUse">
<stop offset="0.23" stop-color="#FDE9A8"/>
<stop offset="0.8" stop-color="#FFC733"/>
<stop offset="1" stop-color="#FF9533"/>
</linearGradient>
<linearGradient id="paint12_linear_26_603" x1="36.9548" y1="24.1943" x2="52.7934" y2="19.1027" gradientUnits="userSpaceOnUse">
<stop offset="0.23" stop-color="#FDE9A8"/>
<stop offset="0.8" stop-color="#FFC733"/>
<stop offset="1" stop-color="#FF9533"/>
</linearGradient>
<linearGradient id="paint13_linear_26_603" x1="63.7223" y1="14.2545" x2="46.8928" y2="22.5976" gradientUnits="userSpaceOnUse">
<stop offset="0.23" stop-color="#FDE9A8"/>
<stop offset="0.53" stop-color="#FFC733"/>
<stop offset="1" stop-color="#FF9533"/>
</linearGradient>
<linearGradient id="paint14_linear_26_603" x1="5.12938" y1="7.33686" x2="24.6449" y2="12.5702" gradientUnits="userSpaceOnUse">
<stop offset="0.23" stop-color="#FDE9A8"/>
<stop offset="0.8" stop-color="#FFC733"/>
<stop offset="1" stop-color="#FF9533"/>
</linearGradient>
<linearGradient id="paint15_linear_26_603" x1="43.555" y1="25.2021" x2="22.2011" y2="18.6959" gradientUnits="userSpaceOnUse">
<stop offset="0.23" stop-color="#FDE9A8"/>
<stop offset="0.8" stop-color="#FFC733"/>
<stop offset="1" stop-color="#FF9533"/>
</linearGradient>
<linearGradient id="paint16_linear_26_603" x1="11.3103" y1="13.6213" x2="27.0072" y2="21.5406" gradientUnits="userSpaceOnUse">
<stop offset="0.23" stop-color="#FDE9A8"/>
<stop offset="0.53" stop-color="#FFC733"/>
<stop offset="1" stop-color="#FF9533"/>
</linearGradient>
<linearGradient id="paint17_linear_26_603" x1="37.2381" y1="1.88948" x2="37.6156" y2="23.5748" gradientUnits="userSpaceOnUse">
<stop offset="0.23" stop-color="#FDE9A8"/>
<stop offset="0.8" stop-color="#FFC733"/>
<stop offset="1" stop-color="#FF9533"/>
</linearGradient>
<radialGradient id="paint18_radial_26_603" cx="0" cy="0" r="1" gradientUnits="userSpaceOnUse" gradientTransform="translate(13.8821 45.323) rotate(28.24) scale(21.1872 7.70444)">
<stop stop-color="#FFEC7F"/>
<stop offset="0.08" stop-color="#FFAA2D"/>
<stop offset="0.13" stop-color="#FF8600"/>
<stop offset="0.16" stop-color="#ED7D00"/>
<stop offset="0.26" stop-color="#B66000"/>
<stop offset="0.36" stop-color="#864600"/>
<stop offset="0.46" stop-color="#5D3100"/>
<stop offset="0.56" stop-color="#3B1F00"/>
<stop offset="0.66" stop-color="#211100"/>
<stop offset="0.77" stop-color="#0F0800"/>
<stop offset="0.88" stop-color="#040200"/>
<stop offset="1"/>
</radialGradient>
<radialGradient id="paint19_radial_26_603" cx="0" cy="0" r="1" gradientUnits="userSpaceOnUse" gradientTransform="translate(10.4168 51.4814) rotate(28.24) scale(14.9668 2.72123)">
<stop offset="0.02" stop-color="white"/>
<stop offset="0.11" stop-color="#FFEC7F"/>
<stop offset="0.16" stop-color="#FFAA2D"/>
<stop offset="0.2" stop-color="#FF8600"/>
<stop offset="0.22" stop-color="#ED7D00"/>
<stop offset="0.31" stop-color="#B66000"/>
<stop offset="0.4" stop-color="#864600"/>
<stop offset="0.5" stop-color="#5D3100"/>
<stop offset="0.59" stop-color="#3B1F00"/>
<stop offset="0.69" stop-color="#211100"/>
<stop offset="0.78" stop-color="#0F0800"/>
<stop offset="0.89" stop-color="#040200"/>
<stop offset="1"/>
</radialGradient>
</defs>
</svg>
