<svg width="215" height="172" viewBox="0 0 215 172" fill="none" xmlns="http://www.w3.org/2000/svg">
<path d="M70.37 12.5849C70.37 12.5849 64.7242 1.06176 55.8951 2.06148C55.8951 2.06148 38.2421 7.32318 22.0045 43.6815C5.76693 80.0398 30.1233 75.1044 30.1233 75.1044C30.1233 75.1044 86.2604 98.0717 98.9674 116.077C111.674 134.083 139.924 142.912 150.532 144.322C161.14 145.732 179.471 158.092 184.07 152.793C188.669 147.495 162.534 136.203 157.235 132.673C151.937 129.142 158.288 128.084 165.007 129.847C171.726 131.61 198.782 144.759 204.885 146.795C209.121 148.205 222.186 142.912 192.878 130.2C163.57 117.487 166.043 116.782 167.096 115.372C168.148 113.962 197.814 127.374 206.637 129.495C215.461 131.615 214.756 122.433 206.637 118.55C198.519 114.667 192.868 112.547 192.868 112.547C192.868 112.547 209.11 116.782 209.11 114.315C209.11 111.847 210.873 105.838 187.574 97.3666C164.276 88.8952 149.795 77.9509 150.858 73.689C151.921 69.427 166.743 67.2907 166.743 61.8396C166.743 56.3885 155.268 57.1041 149.09 57.8039C140.145 58.8247 132.495 59.9086 125.081 56.3885C117.667 52.8684 70.37 12.5849 70.37 12.5849Z" fill="#90CBF0"/>
<path d="M154.22 129.668C154.22 129.668 156.851 124.554 168.164 128.09C179.477 131.625 206.659 145.69 210.889 145.274" fill="#90CBF0"/>
<path d="M192.878 112.547C192.878 112.547 175.015 104.281 170.574 102.75L192.878 112.547Z" fill="#90CBF0"/>
<path d="M172.205 103.37C172.205 103.37 171.489 100.765 177.346 102.749C183.202 104.733 207.243 115.756 209.126 112.546" fill="#90CBF0"/>
<path d="M167.106 115.372C167.106 115.372 168.353 113.309 173.163 114.357C177.972 115.404 208.716 129.289 211.852 126.837" fill="#90CBF0"/>
<path d="M184.417 150.509C184.417 150.509 183.618 154.245 175.672 150.509C167.727 146.774 156.436 141.538 139.493 137.15C122.55 132.762 103.319 112.894 101.646 109.337C100.251 106.369 75.8632 91.6101 67.8181 86.7904C66.1554 85.7976 64.4559 84.8646 62.7195 83.9911L31.1757 67.8535" fill="#90CBF0"/>
<path d="M30.1233 75.1255C30.1233 75.1255 32.228 50.1535 44.9718 34.0527C57.7156 17.9519 70.37 12.585 70.37 12.585" fill="#90CBF0"/>
<path d="M72.5799 95.7726L32.6963 76.2044L30.1233 75.152L31.1756 67.8804C31.1756 67.8804 67.1393 86.3489 72.5799 89.6848C72.164 90.6206 71.6675 91.5185 71.0961 92.3683C70.1858 93.6574 72.5799 95.7726 72.5799 95.7726Z" fill="#BFEAFF"/>
<path d="M31.1757 67.8538C31.1757 67.8538 34.2169 48.7065 45.5769 33.3055C56.9369 17.9045 70.37 12.585 70.37 12.585C70.37 12.585 116.368 52.6528 127.275 57.3094C138.183 61.966 153.973 56.4412 161.187 57.6619C168.401 58.8826 168.069 65.0283 162.697 66.5068C157.325 67.9854 147.396 72.2947 151.868 76.7408C156.341 81.187 165.949 89.974 184.417 96.1775C202.886 102.381 209.021 108.548 209.147 112.547C209.147 112.547 205.722 113.852 195.867 110.011C186.012 106.169 175.346 102.002 175.346 102.002C175.346 102.002 172.242 100.903 172.189 103.37C172.189 103.37 204.67 117.95 206.632 118.55C208.595 119.15 215.74 126.185 211.836 126.837C207.932 127.49 193.646 121.628 182.812 117.893C171.979 114.157 169.59 112.889 166.691 115.898C163.791 118.908 185.228 126.843 185.228 126.843C185.228 126.843 208.248 134.798 211.199 142.449C214.151 150.099 192.078 138.118 192.078 138.118C192.078 138.118 172.789 128.858 165.949 127.469C159.109 126.08 156.241 127.29 155.425 129.921C154.61 132.552 173.868 141.744 175.53 142.791C177.193 143.838 185.696 149.468 184.412 151.499C183.128 153.53 177.493 151.341 174.189 149.815C170.884 148.289 152.695 140.802 145.37 138.766C138.046 136.729 129.743 133.683 121.414 127.995C113.084 122.307 107.239 115.046 100.751 108.279C94.2634 101.513 56.8422 80.9818 52.2961 78.6561L31.1757 67.8538Z" fill="#75B4D4"/>
<path d="M30.5074 71.9419L70.9014 91.4312L71.838 95.7721L32.7015 76.2039L30.1233 75.1252L30.5074 71.9419Z" fill="#90CBF0"/>
<g opacity="0.2">
<mask id="mask0_28_295" style="mask-type:luminance" maskUnits="userSpaceOnUse" x="31" y="12" width="182" height="141">
<path d="M31.1757 67.8538C31.1757 67.8538 34.2169 48.7065 45.5769 33.3055C56.9369 17.9045 70.37 12.585 70.37 12.585C70.37 12.585 116.368 52.6528 127.275 57.3094C138.183 61.966 153.973 56.4412 161.187 57.6619C168.401 58.8826 168.069 65.0283 162.697 66.5068C157.325 67.9854 147.396 72.2947 151.868 76.7408C156.341 81.187 165.949 89.974 184.417 96.1775C202.886 102.381 209.021 108.548 209.147 112.547C209.147 112.547 205.722 113.852 195.867 110.011C186.012 106.169 175.346 102.002 175.346 102.002C175.346 102.002 172.242 100.903 172.189 103.37C172.189 103.37 204.67 117.95 206.632 118.55C208.595 119.15 215.74 126.185 211.836 126.837C207.932 127.49 193.646 121.628 182.812 117.893C171.979 114.157 169.59 112.889 166.691 115.898C163.791 118.908 185.228 126.843 185.228 126.843C185.228 126.843 208.248 134.798 211.199 142.449C214.151 150.099 192.078 138.118 192.078 138.118C192.078 138.118 172.789 128.858 165.949 127.469C159.109 126.08 156.241 127.29 155.425 129.921C154.61 132.552 173.868 141.744 175.53 142.791C177.193 143.838 185.696 149.468 184.412 151.499C183.128 153.53 177.493 151.341 174.189 149.815C170.884 148.289 152.695 140.802 145.37 138.766C138.046 136.729 129.743 133.683 121.414 127.995C113.084 122.307 107.239 115.046 100.751 108.279C94.2634 101.513 56.8422 80.9818 52.2961 78.6561L31.1757 67.8538Z" fill="white"/>
</mask>
<g mask="url(#mask0_28_295)">
<mask id="mask1_28_295" style="mask-type:luminance" maskUnits="userSpaceOnUse" x="16" y="2" width="197" height="153">
<path d="M70.3702 12.5849C70.3702 12.5849 64.7244 1.06176 55.8952 2.06148C55.8952 2.06148 38.2422 7.32318 22.0046 43.6815C5.76705 80.0398 30.1234 75.1044 30.1234 75.1044C30.1234 75.1044 86.2605 98.0717 98.9675 116.077C111.674 134.083 139.925 142.912 150.532 144.322C161.14 145.732 179.471 158.092 184.07 152.793C188.669 147.495 162.534 136.203 157.236 132.673C151.937 129.142 158.288 128.084 165.007 129.847C171.726 131.61 198.782 144.759 204.885 146.795C209.121 148.205 222.186 142.912 192.878 130.2C163.571 117.487 166.044 116.782 167.096 115.372C168.148 113.962 197.814 127.374 206.638 129.495C215.461 131.615 214.756 122.433 206.638 118.55C198.519 114.667 192.868 112.547 192.868 112.547C192.868 112.547 209.111 116.782 209.111 114.315C209.111 111.847 210.873 105.838 187.574 97.3666C164.276 88.8952 149.795 77.9509 150.858 73.689C151.921 69.427 166.743 67.2907 166.743 61.8396C166.743 56.3885 155.268 57.1041 149.09 57.8039C140.146 58.8247 132.495 59.9086 125.081 56.3885C117.668 52.8684 70.3702 12.5849 70.3702 12.5849Z" fill="white"/>
</mask>
<g mask="url(#mask1_28_295)">
<g style="mix-blend-mode:multiply">
<path d="M100.03 273.692L23.7937 50.0747" stroke="#90CBF0" stroke-width="2" stroke-miterlimit="10"/>
<path d="M102.861 269.04L26.6194 45.4282" stroke="#90CBF0" stroke-width="2" stroke-miterlimit="10"/>
<path d="M105.687 264.394L29.4448 40.7773" stroke="#90CBF0" stroke-width="2" stroke-miterlimit="10"/>
<path d="M108.512 259.743L32.2704 36.126" stroke="#90CBF0" stroke-width="2" stroke-miterlimit="10"/>
<path d="M111.338 255.096L35.1011 31.4795" stroke="#90CBF0" stroke-width="2" stroke-miterlimit="10"/>
<path d="M114.163 250.446L37.9266 26.8291" stroke="#90CBF0" stroke-width="2" stroke-miterlimit="10"/>
<path d="M116.994 245.794L40.7522 22.1772" stroke="#90CBF0" stroke-width="2" stroke-miterlimit="10"/>
<path d="M119.82 241.148L43.5778 17.5308" stroke="#90CBF0" stroke-width="2" stroke-miterlimit="10"/>
<path d="M122.645 236.497L46.4032 12.8804" stroke="#90CBF0" stroke-width="2" stroke-miterlimit="10"/>
<path d="M125.471 231.845L49.234 8.23389" stroke="#90CBF0" stroke-width="2" stroke-miterlimit="10"/>
<path d="M128.296 227.199L52.0596 3.58252" stroke="#90CBF0" stroke-width="2" stroke-miterlimit="10"/>
<path d="M131.127 222.548L54.8851 -1.06836" stroke="#90CBF0" stroke-width="2" stroke-miterlimit="10"/>
<path d="M133.953 217.902L57.7106 -5.71484" stroke="#90CBF0" stroke-width="2" stroke-miterlimit="10"/>
<path d="M136.778 213.251L60.5363 -10.3662" stroke="#90CBF0" stroke-width="2" stroke-miterlimit="10"/>
<path d="M139.604 208.599L63.3668 -15.0181" stroke="#90CBF0" stroke-width="2" stroke-miterlimit="10"/>
<path d="M142.429 203.953L66.1925 -19.6636" stroke="#90CBF0" stroke-width="2" stroke-miterlimit="10"/>
<path d="M145.26 199.302L69.0179 -24.3149" stroke="#90CBF0" stroke-width="2" stroke-miterlimit="10"/>
<path d="M148.086 194.65L71.8436 -28.9614" stroke="#90CBF0" stroke-width="2" stroke-miterlimit="10"/>
<path d="M150.911 190.005L74.6691 -33.6123" stroke="#90CBF0" stroke-width="2" stroke-miterlimit="10"/>
<path d="M159.198 201.138L77.4999 -38.2637" stroke="#90CBF0" stroke-width="2" stroke-miterlimit="10"/>
<path d="M159.787 190.004L106.618 34.2002" stroke="#90CBF0" stroke-width="2" stroke-miterlimit="10"/>
<path d="M162.192 184.142L109.444 29.5537" stroke="#90CBF0" stroke-width="2" stroke-miterlimit="10"/>
<path d="M165.228 180.097L112.269 24.9033" stroke="#90CBF0" stroke-width="2" stroke-miterlimit="10"/>
<path d="M169.88 180.707L115.095 20.2568" stroke="#90CBF0" stroke-width="2" stroke-miterlimit="10"/>
<path d="M176.878 188.099L117.92 15.605" stroke="#90CBF0" stroke-width="2" stroke-miterlimit="10"/>
<path d="M178.335 179.492L120.751 10.9546" stroke="#90CBF0" stroke-width="2" stroke-miterlimit="10"/>
<path d="M181.371 175.451L123.577 6.30811" stroke="#90CBF0" stroke-width="2" stroke-miterlimit="10"/>
<path d="M185.596 175.451L127.802 6.30811" stroke="#90CBF0" stroke-width="2" stroke-miterlimit="10"/>
<path d="M189.821 175.451L132.027 6.30811" stroke="#90CBF0" stroke-width="2" stroke-miterlimit="10"/>
<path d="M194.046 175.451L136.252 6.30811" stroke="#90CBF0" stroke-width="2" stroke-miterlimit="10"/>
<path d="M198.272 175.451L140.477 6.30811" stroke="#90CBF0" stroke-width="2" stroke-miterlimit="10"/>
<path d="M202.497 175.451L144.702 6.30811" stroke="#90CBF0" stroke-width="2" stroke-miterlimit="10"/>
<path d="M206.722 175.451L148.927 6.30811" stroke="#90CBF0" stroke-width="2" stroke-miterlimit="10"/>
<path d="M210.947 175.451L153.153 6.30811" stroke="#90CBF0" stroke-width="2" stroke-miterlimit="10"/>
<path d="M215.172 175.451L157.383 6.30811" stroke="#90CBF0" stroke-width="2" stroke-miterlimit="10"/>
<path d="M219.397 175.451L161.608 6.30811" stroke="#90CBF0" stroke-width="2" stroke-miterlimit="10"/>
<path d="M223.628 175.451L165.833 6.30811" stroke="#90CBF0" stroke-width="2" stroke-miterlimit="10"/>
<path d="M227.853 175.451L170.058 6.30811" stroke="#90CBF0" stroke-width="2" stroke-miterlimit="10"/>
<path d="M232.078 175.451L174.283 6.30811" stroke="#90CBF0" stroke-width="2" stroke-miterlimit="10"/>
</g>
</g>
</g>
</g>
<g style="mix-blend-mode:multiply" opacity="0.2">
<path d="M200.118 138.85C185.643 131.609 164.107 126.316 163.05 121.549C161.992 116.782 166.706 115.893 166.706 115.893C166.822 115.714 166.975 115.551 167.106 115.367C168.159 113.956 197.824 127.369 206.648 129.489C211.725 130.704 213.641 128.189 212.815 125.09C211.915 125.227 210.1 125.053 206.648 124.19C196.761 121.723 181.581 113.073 173.815 109.984C166.049 106.895 168.948 101.976 168.948 101.976C176.37 105.811 184.007 109.216 191.82 112.173C198.731 114.766 205.307 118.175 211.41 122.328C210.155 120.709 208.531 119.414 206.674 118.55C198.555 114.667 192.904 112.546 192.904 112.546C192.904 112.546 209.147 116.782 209.147 114.314C209.247 113.266 209.165 112.209 208.905 111.189C208.647 111.31 208.216 111.257 207.558 110.957C201.381 108.132 178.782 101.602 173.662 97.3663C170.753 94.9565 171.153 92.4624 172.042 90.7629C169.585 89.5475 167.306 88.332 165.233 87.1324C165.27 87.2512 165.316 87.3673 165.37 87.4796C169.979 97.0086 160.424 120.665 145.244 127.127C130.064 133.588 107.823 89.4264 57.4789 71.1631C21.6993 58.1825 33.275 23.1606 33.275 23.1606C28.9267 29.6553 25.1622 36.5223 22.0255 43.6813C5.78269 80.0448 30.1443 75.1041 30.1443 75.1041C30.1443 75.1041 86.2603 98.0714 98.9673 116.077C111.674 134.082 139.924 142.912 150.532 144.322C161.14 145.732 179.471 158.092 184.07 152.793C184.791 151.962 184.754 150.978 184.154 149.904C183.631 150.046 183.074 150.007 182.576 149.794C177.372 148.215 160.066 141.144 153.357 137.261C148.154 134.246 153.084 131.078 155.557 129.81C155.907 129.516 156.328 129.318 156.778 129.236C158.572 128.8 161.75 128.989 165.012 129.847C171.716 131.609 198.803 144.758 204.906 146.795C207.495 147.658 213.383 146.011 210.873 141.701C208.568 141.986 205.085 141.333 200.118 138.85Z" fill="#658EA8"/>
</g>
<g style="mix-blend-mode:multiply" opacity="0.3">
<path d="M66.4396 6.93837C66.4396 6.93837 59.0732 -0.0544236 46.0084 17.0514C32.9436 34.1571 15.9905 62.886 31.6914 65.238C31.6914 65.238 32.2701 75.4772 25.3773 75.1247C18.4845 74.7722 12.0442 68.7738 21.089 45.8223C30.1339 22.8708 45.6612 4.2549 55.9004 2.08182C64.014 1.67667 66.4396 6.93837 66.4396 6.93837Z" fill="#658EA8"/>
</g>
<g style="mix-blend-mode:multiply" opacity="0.2">
<path d="M152.737 71.1636C145.902 75.1028 138.272 77.46 130.406 78.0617C117.51 78.9825 154.715 80.0769 165.207 87.1328C165.207 87.1328 152.868 79.7664 151.868 76.7462C151.593 75.8092 151.528 74.8229 151.678 73.8578C151.828 72.8927 152.19 71.9727 152.737 71.1636Z" fill="#658EA8"/>
</g>
<path d="M70.37 12.5849C70.37 12.5849 64.7242 1.06176 55.8951 2.06148C55.8951 2.06148 38.2421 7.32318 22.0045 43.6815C5.76693 80.0398 30.1233 75.1044 30.1233 75.1044C30.1233 75.1044 86.2604 98.0717 98.9674 116.077C111.674 134.083 139.924 142.912 150.532 144.322C161.14 145.732 179.471 158.092 184.07 152.793C188.669 147.495 162.534 136.203 157.235 132.673C151.937 129.142 158.288 128.084 165.007 129.847C171.726 131.61 198.782 144.759 204.885 146.795C209.121 148.205 222.186 142.912 192.878 130.2C163.57 117.487 166.043 116.782 167.096 115.372C168.148 113.962 197.814 127.374 206.637 129.495C215.461 131.615 214.756 122.433 206.637 118.55C198.519 114.667 192.868 112.547 192.868 112.547C192.868 112.547 209.11 116.782 209.11 114.315C209.11 111.847 210.873 105.838 187.574 97.3666C164.276 88.8952 149.795 77.9509 150.858 73.689C151.921 69.427 166.743 67.2907 166.743 61.8396C166.743 56.3885 155.268 57.1041 149.09 57.8039C140.145 58.8247 132.495 59.9086 125.081 56.3885C117.667 52.8684 70.37 12.5849 70.37 12.5849Z" stroke="#658EA8" stroke-width="4" stroke-linecap="round" stroke-linejoin="round"/>
<path d="M154.22 129.668C154.22 129.668 156.851 124.554 168.164 128.09C179.477 131.625 206.659 145.69 210.889 145.274" stroke="#658EA8" stroke-width="2" stroke-linecap="round" stroke-linejoin="round"/>
<path d="M192.441 113.504C188.79 111.726 185.131 109.972 181.465 108.243L175.946 105.659C174.104 104.822 172.263 103.97 170.4 103.244C170.272 103.192 170.169 103.092 170.113 102.965C170.058 102.838 170.055 102.694 170.105 102.565C170.155 102.441 170.25 102.34 170.371 102.283C170.493 102.227 170.631 102.218 170.758 102.26C172.715 102.933 174.594 103.702 176.483 104.459L182.118 106.801C185.864 108.379 189.602 109.979 193.331 111.6C193.459 111.653 193.576 111.732 193.674 111.831C193.772 111.93 193.849 112.048 193.901 112.177C193.954 112.306 193.98 112.445 193.978 112.584C193.976 112.724 193.947 112.861 193.891 112.989C193.836 113.117 193.755 113.233 193.655 113.329C193.554 113.426 193.436 113.502 193.306 113.552C193.176 113.602 193.037 113.626 192.898 113.623C192.758 113.619 192.621 113.588 192.494 113.531L192.441 113.504Z" fill="#658EA8"/>
<path d="M172.205 103.37C172.205 103.37 171.489 100.765 177.346 102.749C183.202 104.733 207.243 115.756 209.126 112.546" stroke="#658EA8" stroke-width="2" stroke-linecap="round" stroke-linejoin="round"/>
<path d="M167.106 115.372C167.106 115.372 168.353 113.309 173.163 114.357C177.972 115.404 208.716 129.289 211.852 126.837" stroke="#658EA8" stroke-width="2" stroke-linecap="round" stroke-linejoin="round"/>
<path d="M184.417 150.509C184.417 150.509 183.618 154.245 175.672 150.509C167.727 146.774 156.436 141.538 139.493 137.15C122.55 132.762 103.319 112.894 101.646 109.337C100.251 106.369 75.8632 91.6101 67.8181 86.7904C66.1554 85.7976 64.4559 84.8646 62.7195 83.9911L31.1757 67.8535" stroke="#658EA8" stroke-width="2" stroke-linecap="round" stroke-linejoin="round"/>
<path d="M30.1233 75.1255C30.1233 75.1255 32.228 50.1535 44.9718 34.0527C57.7156 17.9519 70.37 12.585 70.37 12.585" stroke="#658EA8" stroke-width="2" stroke-linecap="round" stroke-linejoin="round"/>
<path d="M88.6597 106.385C88.6597 106.385 88.0493 104.16 89.9804 101.182" stroke="#658EA8" stroke-width="2" stroke-linecap="round" stroke-linejoin="round"/>
<path d="M71.2803 95.0251C71.2803 95.0251 70.3701 91.5998 72.58 89.6582" stroke="#658EA8" stroke-width="2" stroke-linecap="round" stroke-linejoin="round"/>
<g style="mix-blend-mode:overlay" opacity="0.2">
<path d="M67.1973 14.2316C67.1973 14.2316 65.5451 10.6326 60.1308 9.92748C54.7165 9.22242 35.4008 30.1692 31.6545 48.2905C29.2236 59.9767 33.9433 56.4093 33.9433 56.4093C33.9433 56.4093 46.2504 22.5503 67.1973 14.2316Z" fill="white"/>
</g>
<g style="mix-blend-mode:overlay" opacity="0.2">
<path d="M142.445 120.592C142.445 120.592 159.724 112.104 161.424 92.3415C161.424 92.3415 154.547 84.1175 128.454 85.2645C102.361 86.4116 130.927 120.123 142.445 120.592Z" fill="white"/>
</g>
<g style="mix-blend-mode:overlay" opacity="0.2">
<path d="M44.6088 52.4112C44.6088 52.4112 50.4808 30.8014 70.3911 21.4619C70.3911 21.4619 104.682 54.3528 132.153 63.7239C132.153 63.7239 119.841 63.7239 71.1172 40.4198C52.1961 31.3802 44.6088 52.4112 44.6088 52.4112Z" fill="white"/>
</g>
<g style="mix-blend-mode:multiply" opacity="0.2">
<path d="M150.869 73.7096C151.169 72.4941 152.616 71.447 154.515 70.4473C153.389 67.5797 149.211 65.3172 145.807 65.7907C140.687 66.4958 130.627 73.3781 126.918 72.673C123.208 71.9679 127.27 63.8491 129.022 60.4922C129.49 59.6939 130.034 58.9431 130.648 58.2507C128.721 57.8717 126.849 57.253 125.076 56.4091C120.682 54.3044 102.245 39.2875 87.9757 27.4014C80.9829 29.1535 71.454 38.914 66.0029 43.7126C60.657 48.4482 51.67 73.0308 47.5238 82.8439C65.1242 91.1152 90.8539 104.596 98.9516 116.066C99.2726 116.524 99.6093 116.966 99.9514 117.408C101.677 114.519 103.108 112.404 103.955 111.499C109.075 106.201 124.076 105.674 129.901 94.5511C135.094 84.6434 146.16 80.3446 151.637 76.4035C150.963 75.3407 150.69 74.4304 150.869 73.7096Z" fill="#658EA8"/>
</g>
<path d="M149.806 30.4643C158.282 26.9337 173.483 19.1675 173.11 12.6324C172.736 6.0974 166.049 8.04423 163.223 9.47541C161.95 10.1121 157.562 11.538 152.842 13.0428C150.674 12.1326 146.749 11.2012 139.688 11.0539C125.328 10.7435 118.03 17.5995 118.03 17.5995C113.621 12.6535 101.088 18.1256 97.7308 18.1256C94.3739 18.1256 95.7893 15.4948 88.7281 15.4948C81.6669 15.4948 70.712 26.7548 64.7242 32.0533C58.7364 37.3519 48.1288 67.7119 44.9297 74.0627C41.7306 80.4136 9.62373 122.434 9.62373 122.434C9.62373 122.434 2.91506 125.064 1.1524 130.552C-0.610272 136.04 14.7065 157.424 30.2391 165.743C45.7716 174.061 71.6644 172.33 75.4896 161.444C77.7311 155.067 74.2531 152.088 74.2531 152.088C74.2531 152.088 97.5572 105.133 102.666 99.8398C107.775 94.5465 122.787 94.0151 128.612 82.8919C134.436 71.7686 147.68 67.7119 152.089 63.2973C156.499 58.8827 149.622 53.4106 144.502 54.1156C139.382 54.8207 129.322 61.7083 125.613 61.0032C121.903 60.2981 125.965 52.1741 127.717 48.8224C129.469 45.4707 141.335 33.9949 149.806 30.4643Z" fill="#90CBF0"/>
<g style="mix-blend-mode:overlay" opacity="0.2">
<path d="M50.2493 115.02C50.2493 115.02 36.0953 133.388 50.2493 143.364C64.4032 153.34 73.4323 136.798 73.4323 136.798L82.0194 121.539C82.0194 121.539 77.0576 123.738 62.2407 119.729C47.4237 115.719 50.2493 115.02 50.2493 115.02Z" fill="white"/>
</g>
<g style="mix-blend-mode:overlay" opacity="0.2">
<path d="M54.7271 104.922C54.7271 104.922 53.9536 111.647 66.1345 114.314C78.3153 116.982 81.4723 113.225 81.4723 113.225C81.4723 113.225 62.909 112.657 54.7271 104.922Z" fill="white"/>
</g>
<g style="mix-blend-mode:overlay" opacity="0.2">
<path d="M35.2219 152.236C35.2219 152.236 37.937 160.902 54.2482 161.507C70.5595 162.113 75.4897 153.857 75.4897 153.857C75.4897 153.857 75.5739 151.6 72.3327 153.226C69.0915 154.851 65.0505 157.014 52.9012 157.572C41.9516 156.898 35.2219 152.236 35.2219 152.236Z" fill="white"/>
</g>
<g style="mix-blend-mode:overlay" opacity="0.2">
<path d="M76.5473 147.499C76.5473 147.499 71.6644 152.319 73.5481 146.563C75.4318 140.806 89.6121 113.988 89.791 113.53C89.9699 113.072 97.0047 97.1028 100.504 97.9079C104.003 98.7129 88.2124 124.743 88.2124 124.743L76.5473 147.499Z" fill="white"/>
</g>
<g style="mix-blend-mode:overlay" opacity="0.2">
<path d="M116.441 43.8767C116.441 43.8767 92.6112 39.1411 82.0194 56.068C71.4276 72.9949 94.1213 84.4812 107.939 79.3615C121.756 74.2419 119.093 66.6493 116.441 61.0035C113.79 55.3577 110.796 46.5286 116.441 43.8767Z" fill="white"/>
</g>
<g style="mix-blend-mode:overlay" opacity="0.2">
<path d="M98.9306 87.3066C98.9306 87.3066 87.8337 98.0089 84.14 107.438C84.14 107.438 62.004 106.549 56.4792 94.3731C56.4792 94.3731 68.7811 101.397 78.4889 97.8826C88.1968 94.3678 86.713 91.0109 98.9306 87.3066Z" fill="white"/>
</g>
<g style="mix-blend-mode:overlay" opacity="0.2">
<path d="M143.323 55.0049C143.323 55.0049 126.712 59.9772 126.255 62.7869C125.797 65.5967 128.391 67.0699 134.789 64.3654C141.187 61.6609 148.811 58.0251 143.323 55.0049Z" fill="white"/>
</g>
<path d="M166.933 8.20669C170.169 8.84336 171.226 11.811 168.637 15.3415C166.049 18.8721 146.512 28.5116 141.098 30.169C135.683 31.8264 122.035 46.1751 121.561 52.7627C121.087 59.3504 125.623 61.0026 125.623 61.0026C125.623 61.0026 123.092 54.5307 126.86 48.9954C130.627 43.4601 142.392 32.2842 148.748 30.9898C155.104 29.6955 171.526 17.9303 172.789 14.5786C174.052 11.2269 171.821 7.42796 166.933 8.20669Z" fill="#75B4D4"/>
<g opacity="0.2">
<mask id="mask2_28_295" style="mask-type:luminance" maskUnits="userSpaceOnUse" x="121" y="8" width="53" height="54">
<path d="M166.933 8.2062C170.169 8.84287 171.226 11.8105 168.638 15.3411C166.049 18.8717 146.512 28.5111 141.098 30.1685C135.684 31.826 122.035 46.1746 121.561 52.7622C121.088 59.3499 125.623 61.0021 125.623 61.0021C125.623 61.0021 123.092 54.5302 126.86 48.9949C130.627 43.4596 142.392 32.2837 148.748 30.9894C155.105 29.695 171.526 17.9298 172.789 14.5781C174.052 11.2264 171.821 7.42747 166.933 8.2062Z" fill="white"/>
</mask>
<g mask="url(#mask2_28_295)">
<g style="mix-blend-mode:multiply">
<path d="M120.619 84.9285L110.533 55.8208" stroke="#90CBF0" stroke-width="2" stroke-miterlimit="10"/>
<path d="M123.445 80.2767L113.358 51.1689" stroke="#90CBF0" stroke-width="2" stroke-miterlimit="10"/>
<path d="M126.27 75.6311L116.189 46.5234" stroke="#90CBF0" stroke-width="2" stroke-miterlimit="10"/>
<path d="M129.101 70.9798L119.015 41.8721" stroke="#90CBF0" stroke-width="2" stroke-miterlimit="10"/>
<path d="M131.927 66.3342L121.84 37.2212" stroke="#90CBF0" stroke-width="2" stroke-miterlimit="10"/>
<path d="M134.752 61.6829L124.666 32.5752" stroke="#90CBF0" stroke-width="2" stroke-miterlimit="10"/>
<path d="M137.578 57.031L127.491 27.9233" stroke="#90CBF0" stroke-width="2" stroke-miterlimit="10"/>
<path d="M140.403 52.3846L130.322 23.2769" stroke="#90CBF0" stroke-width="2" stroke-miterlimit="10"/>
<path d="M143.234 47.7342L133.147 18.6265" stroke="#90CBF0" stroke-width="2" stroke-miterlimit="10"/>
<path d="M146.06 43.0876L135.973 13.9746" stroke="#90CBF0" stroke-width="2" stroke-miterlimit="10"/>
<path d="M148.885 38.4368L138.799 9.3291" stroke="#90CBF0" stroke-width="2" stroke-miterlimit="10"/>
<path d="M151.711 33.7854L141.624 4.67773" stroke="#90CBF0" stroke-width="2" stroke-miterlimit="10"/>
<path d="M157.762 38.4363L144.455 0.0258789" stroke="#90CBF0" stroke-width="2" stroke-miterlimit="10"/>
<path d="M160.587 33.785L147.28 -4.62012" stroke="#90CBF0" stroke-width="2" stroke-miterlimit="10"/>
<path d="M162.992 27.923L150.106 -9.27197" stroke="#90CBF0" stroke-width="2" stroke-miterlimit="10"/>
<path d="M166.033 23.8825L152.931 -13.9175" stroke="#90CBF0" stroke-width="2" stroke-miterlimit="10"/>
<path d="M170.679 24.4876L155.757 -18.5688" stroke="#90CBF0" stroke-width="2" stroke-miterlimit="10"/>
<path d="M177.677 31.885L158.588 -23.2207" stroke="#90CBF0" stroke-width="2" stroke-miterlimit="10"/>
<path d="M179.135 23.2775L161.413 -27.8662" stroke="#90CBF0" stroke-width="2" stroke-miterlimit="10"/>
<path d="M182.171 19.2312L164.239 -32.5176" stroke="#90CBF0" stroke-width="2" stroke-miterlimit="10"/>
</g>
</g>
</g>
<path d="M10.5709 121.218L32.1701 91.8369C32.1701 91.8369 38.2632 108.427 53.8115 116.956C64.7242 122.828 81.4722 122.434 81.4722 122.434L62.6722 156.929C62.6722 156.929 48.3656 161.139 30.9126 149.668C13.4122 136.903 9.85526 121.413 10.5709 121.218Z" fill="#BFEAFF"/>
<mask id="mask3_28_295" style="mask-type:luminance" maskUnits="userSpaceOnUse" x="10" y="91" width="72" height="67">
<path d="M10.5709 121.218L32.1701 91.8369C32.1701 91.8369 38.2632 108.427 53.8115 116.956C64.7242 122.828 81.4722 122.434 81.4722 122.434L62.6722 156.929C62.6722 156.929 48.3656 161.139 30.9126 149.668C13.4122 136.903 9.85526 121.413 10.5709 121.218Z" fill="white"/>
</mask>
<g mask="url(#mask3_28_295)">
<g style="mix-blend-mode:multiply">
<path d="M50.623 170.248C49.6496 169.816 49.1655 169.601 48.2026 169.164C59.5626 150.632 69.9703 131.564 81.0461 112.864L82.8299 114C71.8803 132.627 61.7305 151.706 50.623 170.248Z" fill="#90CBF0"/>
<path d="M42.9356 168.259C41.9833 167.822 41.5097 167.607 40.5679 167.165C52.6698 148.643 63.7772 129.565 75.1688 110.617L76.9893 111.775C65.703 130.654 54.8113 149.738 42.9356 168.259Z" fill="#90CBF0"/>
<path d="M35.3852 166.239C34.4591 165.797 34.0013 165.576 33.0911 165.128C45.7191 146.57 57.5264 127.502 69.2284 108.339L71.0595 109.507C59.4574 128.612 47.8764 147.696 35.3852 166.239Z" fill="#90CBF0"/>
<path d="M28.024 164.176C27.1295 163.729 26.6875 163.503 25.8141 163.05C38.9104 144.429 51.2649 125.366 63.2616 106.024L65.0979 107.203C53.1854 126.502 40.9993 145.576 28.024 164.176Z" fill="#90CBF0"/>
<path d="M20.8997 162.071L18.795 160.924C32.1983 142.207 45.0369 123.126 57.3107 103.682L59.1365 104.871C46.9363 124.311 34.1908 143.378 20.8997 162.071Z" fill="#90CBF0"/>
<path d="M14.0647 159.915L12.0653 158.747C25.6405 139.915 38.8684 120.862 51.3965 101.326L53.2012 102.52C40.7205 122.057 27.6136 141.115 14.0647 159.915Z" fill="#90CBF0"/>
<path d="M7.5718 157.704C6.80885 157.231 6.43527 156.994 5.68811 156.515C19.2896 137.542 32.8122 118.526 45.556 98.9575C46.2663 99.4363 46.6083 99.6784 47.3397 100.152C34.6169 119.731 21.168 138.768 7.5718 157.704Z" fill="#90CBF0"/>
<path d="M1.36314 155.442C0.647552 154.958 0.310806 154.716 -0.404785 154.232C13.0757 135.095 26.7929 116.121 39.7209 96.5952L41.4836 97.7896C28.5872 117.342 14.9383 136.342 1.36314 155.442Z" fill="#90CBF0"/>
<path d="M-4.46697 153.121C-5.1352 152.632 -5.46669 152.385 -6.11914 151.89C7.08772 132.569 20.8892 113.664 33.9645 94.248L35.7061 95.4319C22.6571 114.9 8.86091 133.848 -4.46697 153.121Z" fill="#90CBF0"/>
</g>
<g style="mix-blend-mode:multiply" opacity="0.3">
<path d="M62.2409 119.74C62.2409 119.74 40.3312 113.61 38.2633 130.789C36.1955 147.969 41.9465 155.214 41.9465 155.214H32.828C28.2853 155.215 23.8451 153.865 20.072 151.335C16.2989 148.805 13.3635 145.21 11.6391 141.008L5.25142 125.486C3.41546 121.011 3.04313 116.071 4.18779 111.372C5.33245 106.674 7.93533 102.458 11.6233 99.3296L13.8859 97.4407C15.9583 95.6839 18.3657 94.366 20.9623 93.5667C23.5589 92.7675 26.2907 92.5035 28.9923 92.7908C31.6939 93.0781 34.3091 93.9106 36.6796 95.2381C39.0501 96.5655 41.1265 98.3602 42.7831 100.514C49.0708 108.674 56.6056 117.209 62.2409 119.74Z" fill="#658EA8"/>
</g>
</g>
<g style="mix-blend-mode:multiply" opacity="0.3">
<path d="M173.11 12.6321C172.757 6.10232 166.049 8.04389 163.223 9.47507C161.95 10.1117 157.562 11.5377 152.842 13.0425C150.674 12.1322 146.749 11.2009 139.688 11.0536C125.328 10.7431 118.03 17.5991 118.03 17.5991C113.621 12.6531 101.088 18.1253 97.7308 18.1253C94.3739 18.1253 95.7893 15.4945 88.7281 15.4945C81.6669 15.4945 70.712 26.7545 64.7242 32.053C58.7364 37.3515 48.1288 67.7115 44.9297 74.0624C41.7306 80.4133 9.62373 122.433 9.62373 122.433C9.62373 122.433 2.91506 125.064 1.1524 130.552C-0.610272 136.04 14.7065 157.423 30.2391 165.742C45.7716 174.061 71.6644 172.33 75.4896 161.443C75.7646 160.673 75.9689 159.878 76.1 159.07C70.4437 161.827 68.2706 165.458 50.7702 164.932C23.4094 164.111 25.2825 132.741 38.2631 115.372C51.2437 98.0031 61.8987 61.3554 76.7261 44.4075C91.5536 27.4596 115.915 36.6412 115.915 36.6412C115.915 36.6412 143.455 21.4612 156.867 17.5833C165.891 14.9525 168.753 17.1519 169.663 18.8567C171.852 16.773 173.215 14.6421 173.11 12.6321Z" fill="#658EA8"/>
</g>
<g style="mix-blend-mode:multiply" opacity="0.3">
<path d="M51.0964 101.787C51.0964 101.787 47.1817 103.439 53.7798 111.31C59.252 117.845 82.3719 120.224 83.4347 118.856L81.4721 122.434C81.4721 122.434 47.9499 127.374 32.17 91.8368L38.2631 83.2339C38.2631 83.2339 40.2941 92.0841 51.0964 101.787Z" fill="#658EA8"/>
</g>
<g style="mix-blend-mode:multiply" opacity="0.3">
<path d="M75.4898 161.444C72.9589 165.859 57.2001 170.915 40.1259 165.269C23.7673 159.855 13.2913 147.853 13.528 142.202C13.7648 136.551 18.7056 137.966 18.7056 137.966C18.7056 137.966 12.7441 128.569 10.7288 124.759C10.3067 123.995 9.80963 123.274 9.24503 122.607C7.78228 123.27 2.67843 125.885 1.17358 130.553C-0.594347 136.025 14.7067 157.445 30.2392 165.743C45.7717 174.041 71.6645 172.33 75.4898 161.444Z" fill="#658EA8"/>
</g>
<path d="M62.6722 156.929L85.1292 115.751C85.1292 115.751 92.1693 101.192 95.9419 97.5348C99.7146 93.8779 105.413 89.2634 109.144 88.0322C112.874 86.801 121.772 84.9751 125.455 80.2659C129.138 75.5567 133.71 70.0267 136.978 68.2798C140.245 66.5329 152.863 60.4293 150.395 56.0674C150.395 56.0674 156.183 60.8766 151.169 64.8228C146.154 68.7691 138.788 70.516 133.116 76.7616C127.444 83.0073 127.096 87.927 120.34 91.1261C113.584 94.3252 104.298 95.9089 99.0095 105.196C93.7215 114.483 78.2206 144.201 78.2206 144.201L74.1848 152.162C74.1848 152.162 67.6709 156.318 62.6722 156.929Z" fill="#75B4D4"/>
<g opacity="0.2">
<mask id="mask4_28_295" style="mask-type:luminance" maskUnits="userSpaceOnUse" x="62" y="56" width="92" height="101">
<path d="M62.672 156.93L85.1289 115.752C85.1289 115.752 92.1691 101.193 95.9417 97.5358C99.7143 93.8789 105.413 89.2644 109.143 88.0332C112.874 86.8019 121.771 84.9761 125.455 80.2669C129.138 75.5577 133.71 70.0276 136.978 68.2808C140.245 66.5339 152.863 60.4303 150.395 56.0684C150.395 56.0684 156.183 60.8775 151.168 64.8238C146.154 68.7701 138.788 70.517 133.116 76.7626C127.443 83.0082 127.096 87.9279 120.34 91.127C113.584 94.3262 104.297 95.9099 99.0093 105.197C93.7213 114.484 78.2203 144.202 78.2203 144.202L74.1846 152.163C74.1846 152.163 67.6706 156.319 62.672 156.93Z" fill="white"/>
</mask>
<g mask="url(#mask4_28_295)">
<g style="mix-blend-mode:multiply">
<path d="M70.7488 178.508L60.6621 149.4" stroke="#90CBF0" stroke-width="2" stroke-miterlimit="10"/>
<path d="M73.5742 173.861L63.4875 144.753" stroke="#90CBF0" stroke-width="2" stroke-miterlimit="10"/>
<path d="M76.3999 169.21L66.3132 140.103" stroke="#90CBF0" stroke-width="2" stroke-miterlimit="10"/>
<path d="M79.2253 164.559L69.1439 135.451" stroke="#90CBF0" stroke-width="2" stroke-miterlimit="10"/>
<path d="M82.0562 159.912L71.9695 130.805" stroke="#90CBF0" stroke-width="2" stroke-miterlimit="10"/>
<path d="M84.8817 155.262L74.795 126.154" stroke="#90CBF0" stroke-width="2" stroke-miterlimit="10"/>
<path d="M87.7073 150.614L77.6206 121.501" stroke="#90CBF0" stroke-width="2" stroke-miterlimit="10"/>
<path d="M90.5328 145.964L80.4462 116.856" stroke="#90CBF0" stroke-width="2" stroke-miterlimit="10"/>
<path d="M93.3583 141.312L83.2769 112.205" stroke="#90CBF0" stroke-width="2" stroke-miterlimit="10"/>
<path d="M96.1891 136.666L86.1024 107.558" stroke="#90CBF0" stroke-width="2" stroke-miterlimit="10"/>
<path d="M99.0146 132.015L88.928 102.907" stroke="#90CBF0" stroke-width="2" stroke-miterlimit="10"/>
<path d="M101.84 127.369L91.7535 98.2559" stroke="#90CBF0" stroke-width="2" stroke-miterlimit="10"/>
<path d="M104.666 122.717L94.579 93.6094" stroke="#90CBF0" stroke-width="2" stroke-miterlimit="10"/>
<path d="M107.491 118.066L97.4098 88.9585" stroke="#90CBF0" stroke-width="2" stroke-miterlimit="10"/>
<path d="M110.322 113.42L100.235 84.3071" stroke="#90CBF0" stroke-width="2" stroke-miterlimit="10"/>
<path d="M113.148 108.768L103.061 79.6606" stroke="#90CBF0" stroke-width="2" stroke-miterlimit="10"/>
<path d="M115.973 104.118L105.886 75.0103" stroke="#90CBF0" stroke-width="2" stroke-miterlimit="10"/>
<path d="M118.799 99.4715L108.712 70.3638" stroke="#90CBF0" stroke-width="2" stroke-miterlimit="10"/>
<path d="M121.624 94.8196L111.543 65.7119" stroke="#90CBF0" stroke-width="2" stroke-miterlimit="10"/>
<path d="M124.455 90.1735L114.368 61.0605" stroke="#90CBF0" stroke-width="2" stroke-miterlimit="10"/>
<path d="M127.28 85.5227L117.194 56.415" stroke="#90CBF0" stroke-width="2" stroke-miterlimit="10"/>
<path d="M133.326 90.1736L120.019 51.7632" stroke="#90CBF0" stroke-width="2" stroke-miterlimit="10"/>
<path d="M136.157 85.5222L122.845 47.1118" stroke="#90CBF0" stroke-width="2" stroke-miterlimit="10"/>
<path d="M138.562 79.6603L125.676 42.4653" stroke="#90CBF0" stroke-width="2" stroke-miterlimit="10"/>
<path d="M141.597 75.615L128.501 37.8149" stroke="#90CBF0" stroke-width="2" stroke-miterlimit="10"/>
<path d="M146.244 76.2249L131.327 33.1685" stroke="#90CBF0" stroke-width="2" stroke-miterlimit="10"/>
<path d="M153.247 83.6181L134.152 28.5176" stroke="#90CBF0" stroke-width="2" stroke-miterlimit="10"/>
<path d="M154.699 75.0099L136.978 23.8662" stroke="#90CBF0" stroke-width="2" stroke-miterlimit="10"/>
<path d="M157.735 70.9685L139.809 19.2197" stroke="#90CBF0" stroke-width="2" stroke-miterlimit="10"/>
</g>
</g>
</g>
<path d="M116.268 33.6415C116.926 33.2259 117.546 32.7628 118.162 32.2998C118.778 31.8368 119.393 31.3685 120.004 30.8897C121.23 29.9478 122.429 28.9691 123.639 28.0115C126.055 26.0805 128.475 24.1494 130.922 22.2236C132.148 21.2818 133.379 20.3347 134.605 19.3981C135.231 18.9403 135.868 18.4826 136.51 18.0353C137.173 17.558 137.864 17.1188 138.577 16.7199C139.318 16.3719 140.077 16.0628 140.85 15.7939C141.587 15.5308 142.329 15.2677 143.066 15.0309L147.491 13.5839L156.32 10.7374C157.783 10.2533 159.256 9.76921 160.687 9.25356C161.403 8.99574 162.118 8.72739 162.723 8.44326C163.47 8.07481 164.244 7.76348 165.038 7.51194C165.844 7.25755 166.672 7.08135 167.512 6.98577C168.408 6.87014 169.317 6.9093 170.2 7.10153C171.183 7.3163 172.076 7.82892 172.757 8.56954C173.396 9.30266 173.833 10.1894 174.025 11.1425C174.118 11.5777 174.178 12.0191 174.204 12.4632C174.24 12.9436 174.211 13.4266 174.12 13.8996C173.941 14.7904 173.604 15.6421 173.126 16.4147C172.239 17.8236 171.149 19.0932 169.89 20.1821C167.488 22.2608 164.886 24.0972 162.124 25.6648C159.414 27.2433 156.625 28.6798 153.784 29.9952C153.073 30.3267 152.363 30.6476 151.642 30.9581L149.538 31.8736C148.187 32.5121 146.881 33.2398 145.628 34.0519C143.077 35.708 140.64 37.5344 138.335 39.5188C136.022 41.4905 133.823 43.5915 131.748 45.8118C131.222 46.3696 130.732 46.9326 130.259 47.5008C129.8 48.0404 129.378 48.6099 128.996 49.2056L128.885 49.4003L128.754 49.6529L128.491 50.179L127.965 51.1945C127.628 51.8786 127.312 52.5626 127.007 53.2519C126.401 54.5824 125.922 55.9671 125.576 57.3876C125.424 57.9818 125.378 58.5979 125.439 59.2081C125.453 59.356 125.505 59.4977 125.592 59.6185C125.634 59.6659 125.686 59.7027 125.865 59.7448C126.448 59.7924 127.034 59.7262 127.591 59.5501C128.288 59.3599 128.973 59.1298 129.643 58.8608C131.022 58.3347 132.411 57.6664 133.8 57.0087C135.189 56.351 136.589 55.6723 138.009 55.0198C139.465 54.3376 140.962 53.7488 142.492 53.2571C143.334 52.9903 144.205 52.8294 145.086 52.7783C145.985 52.7464 146.883 52.8438 147.754 53.0677C149.468 53.4951 151.055 54.3248 152.384 55.4881C153.078 56.1029 153.663 56.8304 154.115 57.6401C154.61 58.5329 154.845 59.5462 154.794 60.5656C154.759 61.086 154.647 61.5984 154.463 62.0863C154.274 62.5482 154.028 62.9847 153.731 63.3859C153.188 64.0938 152.551 64.724 151.837 65.2591C150.557 66.2268 149.218 67.1142 147.827 67.9162L143.839 70.284C141.224 71.8081 138.737 73.5432 136.404 75.472C134.118 77.3604 132.147 79.6 130.564 82.107C130.364 82.4175 130.18 82.7384 130.006 83.0594L129.433 84.1117C129.233 84.4625 129.017 84.8133 128.785 85.1641C128.564 85.5166 128.317 85.8533 128.065 86.1848C127.067 87.4984 125.917 88.6889 124.639 89.7312C122.112 91.7242 119.317 93.3519 116.336 94.5667C113.448 95.8295 110.501 96.845 107.77 98.0815C106.453 98.6492 105.215 99.385 104.087 100.27C103.84 100.482 103.606 100.709 103.387 100.949C103.171 101.202 102.95 101.475 102.729 101.78C102.298 102.37 101.877 102.996 101.461 103.627C99.8145 106.185 98.2728 108.863 96.7522 111.52C95.2316 114.177 93.7583 116.908 92.285 119.623C89.356 125.056 86.4761 130.527 83.6453 136.034C80.8145 141.541 77.996 147.049 75.1898 152.556L74.932 151.288C75.0854 151.425 75.2295 151.573 75.3634 151.73C75.4844 151.872 75.5949 152.019 75.7054 152.167C75.9158 152.455 76.104 152.76 76.2684 153.077C76.597 153.699 76.8463 154.36 77.0103 155.045C77.3222 156.384 77.3687 157.771 77.1471 159.128C76.9501 160.465 76.549 161.764 75.958 162.979C75.3243 164.187 74.4755 165.27 73.4534 166.173C71.4626 167.872 69.1534 169.158 66.6606 169.956C64.2539 170.769 61.7694 171.33 59.2468 171.63C54.2383 172.22 49.1719 172.112 44.1931 171.309C39.1853 170.563 34.332 169.008 29.8234 166.705C25.4191 164.267 21.3406 161.283 17.6847 157.823C14.0164 154.426 10.6503 150.716 7.62433 146.736C6.10177 144.747 4.69627 142.67 3.41498 140.517C2.77305 139.433 2.16796 138.318 1.62074 137.165C1.04918 135.985 0.594504 134.751 0.263222 133.482C0.0844609 132.795 -0.00397891 132.088 0.00013732 131.378C0.0110852 130.968 0.0801784 130.562 0.205343 130.173C0.315839 129.846 0.436856 129.525 0.57366 129.21C1.1403 127.983 1.90466 126.858 2.83619 125.879C3.73791 124.923 4.7439 124.07 5.83536 123.338C6.91931 122.598 8.07372 121.967 9.28177 121.454L8.82926 121.791C17.248 110.741 25.6351 99.6442 33.8328 88.4316C35.8744 85.6218 37.9107 82.8068 39.8891 79.9708C40.8835 78.5501 41.8569 77.1189 42.783 75.6825C43.2513 74.9616 43.6933 74.2355 44.0563 73.541C44.4194 72.8464 44.7666 72.0046 45.1087 71.2153C47.7763 64.8434 50.2599 58.3242 52.9749 51.9049C54.3271 48.6952 55.7215 45.4909 57.2263 42.3286C57.9788 40.7501 58.7628 39.1716 59.6046 37.6299C60.444 36.0487 61.3898 34.5263 62.4354 33.0733C62.7143 32.7049 62.9984 32.3419 63.3194 31.9894C63.6377 31.6412 63.9769 31.3126 64.3349 31.0054L66.2554 29.2638L70.107 25.7332C72.6883 23.3611 75.3931 21.1271 78.21 19.0403C79.6552 17.9838 81.1745 17.0324 82.7561 16.1937C83.5669 15.7619 84.4095 15.3925 85.2765 15.0888C86.1798 14.7644 87.1202 14.5541 88.0757 14.4626C88.3177 14.4626 88.6018 14.4311 88.8123 14.4311H89.4911C89.9488 14.4311 90.4013 14.4679 90.8644 14.5153C91.8249 14.5911 92.7713 14.7928 93.6794 15.1151C94.1576 15.2985 94.6145 15.5332 95.0422 15.8149C95.4631 16.0885 95.8314 16.3989 96.0945 16.5989C96.3369 16.7831 96.6144 16.9156 96.9101 16.9883C97.232 17.0532 97.5607 17.0779 97.8887 17.0619C98.6932 16.9693 99.4899 16.8181 100.272 16.6094L102.787 15.9727C104.482 15.5466 106.202 15.1361 107.97 14.8467C109.769 14.5157 111.602 14.4096 113.427 14.531C114.394 14.6045 115.345 14.8172 116.252 15.1624C117.222 15.532 118.092 16.123 118.793 16.8883C118.979 17.0976 119.074 17.3721 119.057 17.6513C119.04 17.9306 118.913 18.1917 118.704 18.3773C118.495 18.5629 118.22 18.6578 117.941 18.641C117.662 18.6242 117.401 18.4972 117.215 18.2879C116.305 17.2356 114.816 16.7567 113.232 16.6199C111.584 16.5171 109.93 16.6178 108.307 16.9199C106.639 17.1935 104.971 17.5881 103.298 18.009L100.762 18.651C99.8628 18.8968 98.9463 19.0727 98.0203 19.1771C97.7557 19.193 97.4904 19.193 97.2258 19.1771C96.9528 19.1593 96.6818 19.1188 96.4155 19.0561C95.8621 18.9213 95.3402 18.68 94.879 18.3458C94.4634 18.0459 94.1635 17.788 93.8267 17.5934C93.5285 17.3951 93.2091 17.231 92.8743 17.104C92.1398 16.8504 91.376 16.6913 90.6013 16.6305C90.2014 16.5884 89.7857 16.5726 89.3753 16.5568H88.7492C88.544 16.5568 88.3756 16.5568 88.1862 16.5568C86.5958 16.7627 85.0597 17.2717 83.6611 18.0564C82.1717 18.8502 80.7404 19.7487 79.3781 20.7451C76.6173 22.794 73.9669 24.9877 71.4382 27.317L67.6024 30.8318L65.6556 32.5944C65.3565 32.8539 65.0719 33.1297 64.8032 33.4205C64.5401 33.7099 64.277 34.0309 64.0403 34.3571C63.0548 35.727 62.1652 37.1634 61.3778 38.6559C60.557 40.1608 59.7993 41.7024 59.0469 43.2599C57.5631 46.3748 56.1793 49.5476 54.8375 52.731C52.1383 59.1187 49.6706 65.5958 46.945 72.0519C46.5977 72.8569 46.2505 73.662 45.8506 74.4776C45.4507 75.2931 44.9403 76.0824 44.4615 76.819C43.5091 78.3028 42.5199 79.7445 41.5202 81.1757C39.526 84.0381 37.4845 86.8583 35.4377 89.6733C27.2242 100.912 18.8423 112.009 10.4078 123.075C10.2995 123.221 10.1542 123.335 9.98684 123.406C8.92314 123.866 7.90492 124.424 6.94558 125.074C5.99027 125.72 5.10812 126.468 4.31473 127.305C3.55918 128.119 2.94078 129.05 2.48366 130.062C2.37003 130.31 2.27162 130.565 2.189 130.825C2.12639 131.023 2.09272 131.228 2.08903 131.435C2.08977 131.959 2.15696 132.481 2.28897 132.988C2.59158 134.113 3.00032 135.207 3.50969 136.255C4.03586 137.307 4.5936 138.386 5.20922 139.412C6.45991 141.494 7.82477 143.505 9.29755 145.437C12.254 149.316 15.5389 152.934 19.1159 156.25C22.6392 159.587 26.5691 162.467 30.8126 164.821C35.1153 167.016 39.7465 168.496 44.5246 169.204C49.3066 169.977 54.173 170.082 58.9838 169.514C61.3651 169.233 63.7105 168.704 65.9818 167.936C68.2063 167.226 70.2694 166.085 72.0538 164.579C72.8855 163.845 73.5772 162.966 74.0953 161.985C74.579 160.971 74.9089 159.891 75.074 158.78C75.2562 157.696 75.2241 156.585 74.9793 155.513C74.852 154.998 74.6648 154.5 74.4216 154.029C74.2972 153.801 74.1602 153.579 74.0112 153.366C73.9322 153.266 73.8586 153.166 73.7796 153.072C73.7007 152.977 73.5955 152.872 73.5692 152.851L73.3114 151.582C78.7835 140.464 84.3609 129.41 90.1909 118.434C91.6484 115.698 93.1216 112.967 94.6318 110.257C96.1419 107.547 97.6835 104.843 99.3673 102.186C99.7987 101.523 100.235 100.86 100.714 100.202C100.956 99.8705 101.209 99.539 101.498 99.2075C101.794 98.8727 102.113 98.5581 102.451 98.2657C103.748 97.2199 105.177 96.3495 106.702 95.6769C109.607 94.3405 112.527 93.346 115.31 92.12C118.073 90.9985 120.664 89.4948 123.008 87.6528C124.128 86.7358 125.136 85.6903 126.013 84.5379C126.228 84.2538 126.444 83.9644 126.633 83.6592C126.823 83.354 127.023 83.0541 127.191 82.7384L127.754 81.7387C127.949 81.3809 128.149 81.0284 128.37 80.6864C130.091 77.9452 132.239 75.4959 134.731 73.4305C137.171 71.4107 139.77 69.5912 142.503 67.9899L146.496 65.6169C147.789 64.8716 149.035 64.0475 150.227 63.1491C151.379 62.2546 152.168 61.3338 152.2 60.3289C152.219 59.7938 152.09 59.2638 151.826 58.7977C151.516 58.2555 151.117 57.7684 150.648 57.356C149.634 56.4746 148.426 55.8454 147.122 55.5197C146.492 55.3594 145.842 55.2885 145.191 55.3092C144.527 55.349 143.871 55.4745 143.239 55.6828C141.822 56.1425 140.436 56.6908 139.088 57.3244C137.699 57.9558 136.315 58.6293 134.91 59.2976C133.505 59.9658 132.085 60.634 130.58 61.2181C129.811 61.5224 129.026 61.7824 128.228 61.9968C127.3 62.2718 126.324 62.3453 125.365 62.2125C124.699 62.093 124.091 61.7541 123.639 61.2496C123.233 60.7675 122.972 60.18 122.887 59.5554C122.77 58.6252 122.827 57.6813 123.055 56.7719C123.444 55.1843 123.983 53.6374 124.666 52.1522C124.992 51.4226 125.33 50.7052 125.681 50.0001L126.207 48.9478L126.481 48.4216L126.618 48.1638L126.797 47.8534C127.247 47.1448 127.748 46.4696 128.296 45.8329C128.822 45.2173 129.348 44.6279 129.875 44.0492C132.03 41.7675 134.314 39.6102 136.715 37.5878C139.142 35.5619 141.701 33.7004 144.376 32.0157C145.728 31.1544 147.134 30.381 148.585 29.7005L150.737 28.7797C151.442 28.4745 152.142 28.1641 152.842 27.8431C155.625 26.5698 158.361 25.2123 160.998 23.6601C163.618 22.1881 166.088 20.4647 168.374 18.5141C169.467 17.5825 170.417 16.4958 171.195 15.2887C171.54 14.7452 171.785 14.1448 171.921 13.5155C171.975 13.2278 171.993 12.9343 171.973 12.6421C171.955 12.313 171.911 11.9858 171.842 11.6634C171.574 10.3901 170.884 9.55874 169.706 9.31144C168.367 9.09086 166.994 9.21582 165.717 9.6745C165.035 9.88409 164.37 10.1462 163.728 10.4585C162.923 10.8268 162.192 11.0952 161.45 11.3582C159.966 11.8844 158.493 12.3632 157.014 12.8473L148.159 15.657L143.75 17.0777C143.018 17.3145 142.292 17.5618 141.571 17.8143C140.85 18.0669 140.124 18.3405 139.53 18.5931C138.888 18.9425 138.264 19.3254 137.662 19.7401C137.031 20.1663 136.399 20.603 135.768 21.0398C134.5 21.9132 133.232 22.8024 131.969 23.6706C129.438 25.4491 126.896 27.2223 124.308 28.9323C123.013 29.7952 121.677 30.6213 120.377 31.4316C119.056 32.2554 117.684 32.9936 116.268 33.6415Z" fill="#658EA8"/>
<path d="M103.735 27.986C106.955 24.7027 110.575 21.9508 114.205 19.2253C116.021 17.8572 117.836 16.4892 119.688 15.1527C120.167 14.8213 120.598 14.4845 121.167 14.1635L121.572 13.9215L121.977 13.7216C122.245 13.59 122.503 13.4479 122.787 13.3322C123.862 12.8641 124.962 12.4548 126.081 12.1062C128.298 11.4066 130.565 10.8789 132.863 10.5277C135.155 10.1693 137.469 9.96539 139.788 9.91735C140.372 9.88578 140.951 9.91735 141.529 9.91735C142.108 9.91735 142.692 9.91735 143.276 9.96997C144.434 10.0805 145.597 10.1278 146.749 10.3278C149.064 10.6429 151.345 11.1713 153.563 11.9063C153.819 11.995 154.031 12.1792 154.155 12.4203C154.278 12.6615 154.304 12.941 154.227 13.2008C154.15 13.4605 153.975 13.6804 153.74 13.8147C153.504 13.949 153.226 13.9872 152.963 13.9215H152.921C148.671 12.6817 144.256 12.0997 139.83 12.1957C135.378 12.2493 130.954 12.9006 126.676 14.132C125.621 14.4275 124.583 14.7788 123.566 15.1843C122.578 15.6027 121.64 16.1322 120.772 16.7628C118.904 18.0256 117.041 19.3253 115.189 20.6302C111.501 23.2505 107.807 25.8813 103.735 27.986Z" fill="#658EA8"/>
<path d="M101.156 18.5147L89.7909 23.2503L100.177 16.6521C100.295 16.5782 100.425 16.528 100.562 16.5045C100.698 16.481 100.838 16.4847 100.973 16.5152C101.108 16.5458 101.236 16.6026 101.349 16.6825C101.462 16.7624 101.558 16.8638 101.632 16.981C101.706 17.0981 101.756 17.2286 101.78 17.3651C101.803 17.5016 101.8 17.6414 101.769 17.7765C101.739 17.9116 101.682 18.0393 101.602 18.1525C101.522 18.2656 101.421 18.3619 101.303 18.4358C101.257 18.4666 101.208 18.493 101.156 18.5147Z" fill="#658EA8"/>
<path d="M9.6449 122.433C9.6449 122.433 19.3527 145.558 37.1846 153.151C55.1323 160.791 66.0187 157.266 74.2533 152.099" stroke="#658EA8" stroke-width="2" stroke-linecap="round" stroke-linejoin="round"/>
<path d="M38.2632 84.0649C38.2632 84.0649 44.4194 97.719 56.4266 106.164C64.1665 111.631 77.6312 113.131 86.2183 113.504" stroke="#658EA8" stroke-width="2" stroke-linecap="round" stroke-linejoin="round"/>
<path d="M32.17 92.4521C32.17 92.4521 38.9629 106.785 50.9701 115.256C58.5732 120.623 71.98 122.07 80.7881 122.412" stroke="#658EA8" stroke-width="2" stroke-linecap="round" stroke-linejoin="round"/>
<path d="M62.6722 156.929C62.6722 156.929 68.7811 143.97 71.9591 139.203C75.1372 134.435 90.3172 106.017 93.1427 101.25C95.9683 96.4828 104.266 88.5377 113.795 86.5961C123.324 84.6545 126.86 79.0245 130.39 73.7102C133.921 68.3959 143.097 65.9439 147.512 62.2397C151.926 58.5355 150.164 55.3469 149.343 55.0049" stroke="#658EA8" stroke-width="2" stroke-linecap="round" stroke-linejoin="round"/>
<path d="M125.623 61.0034C125.623 61.0034 121.093 59.3565 121.561 52.7636C122.029 46.1707 135.683 31.8167 141.098 30.1698C146.512 28.5229 166.049 18.873 168.637 15.3424C171.226 11.8118 170.169 8.84418 166.933 8.20752" stroke="#658EA8" stroke-width="2" stroke-linecap="round" stroke-linejoin="round"/>
</svg>
