<svg width="277" height="118" viewBox="0 0 277 118" fill="none" xmlns="http://www.w3.org/2000/svg">
<path d="M252.923 41.7593L251.283 46.924L249.644 52.0722C249.808 52.0722 266.63 57.5812 266.04 67.7302C265.745 72.9604 264.826 88.8642 222.837 91.8647C187.75 94.3732 139.006 93.8485 138.514 93.8321H138.464C137.973 93.8321 89.2773 94.3732 54.1413 91.8647C12.1518 88.8642 11.2337 72.9604 10.9385 67.7302C10.3483 57.5812 27.1703 52.1214 27.3343 52.0722L25.6947 46.924L24.0551 41.7593C23.0386 42.0708 -1.04673 49.58 0.0353904 68.3531C1.19949 88.6511 19.1036 100.177 53.2231 102.62C78.1446 104.391 109.788 104.67 126.627 104.67C133.447 104.67 137.841 104.67 138.383 104.67C138.924 104.67 143.301 104.67 150.138 104.67C166.977 104.67 198.62 104.391 223.542 102.62C257.661 100.177 275.566 88.6511 276.73 68.3531C278.025 49.58 253.94 42.0708 252.923 41.7593Z" fill="#1F6861"/>
<path d="M219.869 1.18653e-06H57.3221C53.3286 -0.00114921 49.379 0.834236 45.728 2.45236C42.077 4.07047 38.8054 6.43541 36.1239 9.39487C33.4425 12.3543 31.4107 15.8427 30.1595 19.6351C28.9082 23.4276 28.4653 27.4401 28.8591 31.4142L34.4337 87.9631C35.2399 96.1734 39.0725 103.79 45.1854 109.33C51.2983 114.87 59.254 117.937 67.5039 117.934H101.41C106.36 117.936 111.153 116.203 114.957 113.037C118.761 109.871 121.336 105.472 122.233 100.604L130.873 53.8763C131.001 51.9152 131.87 50.0762 133.305 48.7325C134.739 47.3887 136.63 46.6411 138.596 46.6411C140.561 46.6411 142.453 47.3887 143.887 48.7325C145.321 50.0762 146.19 51.9152 146.318 53.8763L154.959 100.67C155.856 105.537 158.43 109.936 162.234 113.102C166.038 116.269 170.832 118.001 175.781 118H209.688C217.938 118 225.894 114.932 232.009 109.393C238.123 103.854 241.961 96.239 242.774 88.0286L248.316 31.4142C248.707 27.442 248.263 23.4319 247.012 19.6417C245.76 15.8515 243.73 12.365 241.051 9.40633C238.372 6.44769 235.103 4.08239 231.455 2.46241C227.807 0.842438 223.861 0.00366369 219.869 1.18653e-06Z" fill="#28938B"/>
<path d="M231.625 17.8064C229.754 15.915 227.52 14.4203 225.058 13.4118C222.596 12.4033 219.956 11.9016 217.295 11.9368H59.8961C57.2356 11.9016 54.5954 12.4033 52.1332 13.4118C49.6711 14.4203 47.4375 15.915 45.5662 17.8064C43.6688 19.7755 42.2249 22.1356 41.3356 24.7214C40.4462 27.3072 40.1331 30.0562 40.418 32.7757L45.5662 85.0781C46.132 90.8257 48.8152 96.1574 53.0941 100.036C57.373 103.915 62.9416 106.064 68.717 106.065H100.066C102.899 106.066 105.643 105.074 107.82 103.262C109.998 101.449 111.472 98.9313 111.985 96.1452L119.986 52.8769V52.7457C120.645 49.699 122.285 46.9523 124.654 44.9266C127.023 42.901 129.991 41.7082 133.103 41.5311C136.185 41.3179 138.645 41.4163 138.645 41.4163C138.645 41.4163 141.104 41.3179 144.187 41.5311C147.299 41.7055 150.269 42.8973 152.639 44.9234C155.008 46.9495 156.647 49.6978 157.303 52.7457V52.8769L165.304 96.1452C165.818 98.9313 167.292 101.449 169.469 103.262C171.647 105.074 174.391 106.066 177.224 106.065H208.474C214.258 106.066 219.835 103.912 224.116 100.022C228.397 96.1326 231.074 90.7868 231.625 85.0289L236.79 32.7266C237.061 30.014 236.739 27.2749 235.847 24.6988C234.956 22.1227 233.515 19.771 231.625 17.8064Z" fill="#9AEFE8"/>
<g opacity="0.5">
<mask id="mask0_28_721" style="mask-type:luminance" maskUnits="userSpaceOnUse" x="40" y="11" width="197" height="96">
<path d="M231.625 17.8059C229.754 15.9145 227.521 14.4198 225.058 13.4113C222.596 12.4028 219.956 11.9011 217.296 11.9363H59.8966C57.2361 11.9011 54.5959 12.4028 52.1337 13.4113C49.6716 14.4198 47.438 15.9145 45.5667 17.8059C43.6693 19.775 42.2254 22.1351 41.3361 24.7209C40.4467 27.3067 40.1336 30.0557 40.4185 32.7753L45.5667 85.0776C46.1325 90.8252 48.8157 96.1569 53.0946 100.036C57.3735 103.915 62.9421 106.063 68.7175 106.064H100.066C102.899 106.065 105.643 105.073 107.821 103.261C109.998 101.449 111.472 98.9308 111.986 96.1447L119.987 52.8764V52.7452C120.646 49.6985 122.285 46.9518 124.654 44.9262C127.023 42.9005 129.991 41.7077 133.104 41.5306C136.186 41.3174 138.645 41.4158 138.645 41.4158C138.645 41.4158 141.105 41.3174 144.187 41.5306C147.3 41.705 150.269 42.8969 152.639 44.9229C155.009 46.949 156.648 49.6973 157.304 52.7452V52.8764L165.305 96.1447C165.818 98.9308 167.292 101.449 169.47 103.261C171.648 105.073 174.391 106.065 177.224 106.064H208.475C214.259 106.066 219.836 103.912 224.117 100.022C228.398 96.1321 231.075 90.7863 231.625 85.0284L236.79 32.7261C237.061 30.0135 236.74 27.2744 235.848 24.6983C234.956 22.1222 233.515 19.7705 231.625 17.8059Z" fill="white"/>
</mask>
<g mask="url(#mask0_28_721)">
<path d="M142.937 -44.4959L133.105 -54.3271L-49.7709 128.549L-39.9396 138.381L142.937 -44.4959Z" fill="white"/>
<path d="M220.134 -39.5735L202.57 -57.1377L19.6936 125.739L37.2578 143.303L220.134 -39.5735Z" fill="white"/>
<path d="M261.124 -50.3521L252.348 -59.1284L69.4718 123.748L78.2481 132.524L261.124 -50.3521Z" fill="white"/>
<path d="M351.185 -40.9933L326.213 -65.9658L143.337 116.911L168.309 141.883L351.185 -40.9933Z" fill="white"/>
</g>
</g>
<path d="M31.548 61.2376H23.6944C22.2418 61.236 20.8445 60.6805 19.7873 59.6843C18.7302 58.6881 18.0928 57.3262 18.0051 55.8762L16.9722 38.6443C16.9253 37.8679 17.0376 37.0902 17.3022 36.3588C17.5668 35.6274 17.9781 34.9578 18.511 34.3912C19.0438 33.8246 19.6868 33.3729 20.4006 33.0639C21.1143 32.7549 21.8837 32.5951 22.6615 32.5942H30.2527C31.0414 32.5971 31.7994 32.9006 32.3721 33.4428C32.9448 33.9851 33.2892 34.7253 33.3351 35.5127L34.6632 57.9584C34.6903 58.3822 34.6296 58.8071 34.4848 59.2063C34.34 59.6056 34.1143 59.9706 33.8218 60.2784C33.5293 60.5863 33.1764 60.8305 32.7851 60.9955C32.3938 61.1606 31.9726 61.243 31.548 61.2376Z" fill="#3DC1BA"/>
<path d="M245.643 61.2376H253.431C254.884 61.236 256.281 60.6805 257.338 59.6843C258.396 58.6881 259.033 57.3262 259.121 55.8762L260.154 38.6443C260.201 37.8679 260.088 37.0902 259.824 36.3588C259.559 35.6274 259.148 34.9578 258.615 34.3912C258.082 33.8246 257.439 33.3729 256.725 33.0639C256.011 32.7549 255.242 32.5951 254.464 32.5942H246.971C246.183 32.5971 245.425 32.9006 244.852 33.4428C244.279 33.9851 243.935 34.7253 243.889 35.5127L242.561 57.9584C242.534 58.3795 242.594 58.8015 242.737 59.1985C242.879 59.5955 243.102 59.959 243.391 60.2664C243.68 60.5738 244.029 60.8186 244.416 60.9856C244.804 61.1527 245.221 61.2384 245.643 61.2376Z" fill="#3DC1BA"/>
</svg>
