<svg width="63" height="57" viewBox="0 0 63 57" fill="none" xmlns="http://www.w3.org/2000/svg">
<path d="M61.7908 24.98L53.4127 17.7745L51.309 15.9652V1.22997C51.309 1.0684 51.277 0.908413 51.2148 0.75915C51.1526 0.609888 51.0614 0.474273 50.9465 0.360053C50.8315 0.245833 50.6951 0.155247 50.5449 0.0934675C50.3947 0.0316886 50.2338 -7.25557e-05 50.0713 1.24455e-07H45.2005C44.8724 1.24455e-07 44.5577 0.129585 44.3257 0.360249C44.0937 0.590912 43.9633 0.903759 43.9633 1.22997V9.64718L33.815 0.919569C33.2299 0.413596 32.4874 0.12327 31.7124 0.0973798C31.7089 0.0968649 31.7053 0.0968649 31.7018 0.0973798C31.254 0.0631936 30.8039 0.117674 30.3774 0.257667C29.951 0.397659 29.5567 0.62038 29.2174 0.91293L9.95191 17.4823L1.23437 24.98C0.885084 25.2672 0.597022 25.621 0.387085 26.0204C0.177149 26.4198 0.0495613 26.8569 0.0118194 27.306C-0.0259225 27.7551 0.0269409 28.2072 0.167298 28.6357C0.307655 29.0642 0.532689 29.4606 0.829187 29.8015C1.12569 30.1424 1.48768 30.421 1.89394 30.6209C2.30019 30.8209 2.74252 30.9381 3.19497 30.9659C3.64743 30.9936 4.10089 30.9312 4.52876 30.7823C4.95663 30.6335 5.35029 30.4012 5.68664 30.099L9.94969 26.4329V51.3166C9.94984 52.824 10.5522 54.2696 11.6244 55.3354C12.6966 56.4012 14.1507 57 15.667 57H25.2905V38.4144C25.2905 37.8106 25.5318 37.2315 25.9613 36.8045C26.3908 36.3775 26.9733 36.1376 27.5807 36.1376H35.3571C35.9645 36.1376 36.5705 36.573 37 37C38.5162 37 44.1284 33.0658 45.2005 32C46.2726 30.9342 53.4122 36.0073 53.4122 34.5V26.7262L57.3346 30.1012C57.6717 30.3988 58.0649 30.6268 58.4913 30.7721C58.9177 30.9173 59.3689 30.977 59.8187 30.9476C60.2685 30.9181 60.708 30.8002 61.1116 30.6006C61.5152 30.401 61.8749 30.1237 62.1699 29.7848C62.4648 29.446 62.6892 29.0522 62.8299 28.6265C62.9706 28.2007 63.0249 27.7514 62.9895 27.3046C62.9542 26.8579 62.83 26.4225 62.6241 26.0238C62.4183 25.6252 62.1348 25.2711 61.7902 24.9822L61.7908 24.98Z" fill="white" fill-opacity="0.9"/>
</svg>
