<svg width="49" height="49" viewBox="0 0 49 49" fill="none" xmlns="http://www.w3.org/2000/svg">
<path d="M24.4998 35.4232C26.3377 35.4232 27.8277 33.9332 27.8277 32.0953C27.8277 30.2573 26.3377 28.7673 24.4998 28.7673C22.6618 28.7673 21.1719 30.2573 21.1719 32.0953C21.1719 33.9332 22.6618 35.4232 24.4998 35.4232Z" fill="#7782A6"/>
<path d="M37.3218 19.4565V16.9044C37.3218 11.3919 35.9947 4.08276 24.5002 4.08276C13.0056 4.08276 11.6785 11.3919 11.6785 16.9044V19.4565C5.96183 20.1711 4.0835 23.0703 4.0835 30.1957V33.9932C4.0835 42.364 6.63558 44.9161 15.0064 44.9161H33.9939C42.3647 44.9161 44.9168 42.364 44.9168 33.9932V30.1957C44.9168 23.0703 43.0385 20.1711 37.3218 19.4565ZM24.5002 38.2603C21.0906 38.2603 18.3343 35.4836 18.3343 32.0944C18.3343 28.6848 21.111 25.9286 24.5002 25.9286C27.8893 25.9286 30.666 28.7053 30.666 32.0944C30.666 35.504 27.9097 38.2603 24.5002 38.2603ZM15.0064 19.2728C14.8431 19.2728 14.7002 19.2728 14.5368 19.2728V16.9044C14.5368 10.9223 16.2314 6.9411 24.5002 6.9411C32.7689 6.9411 34.4635 10.9223 34.4635 16.9044V19.2932C34.3002 19.2932 34.1572 19.2932 33.9939 19.2932H15.0064V19.2728Z" fill="#7782A6"/>
</svg>
