<svg width="197" height="143" viewBox="0 0 197 143" fill="none" xmlns="http://www.w3.org/2000/svg">
<path d="M46.8344 109.313C43.865 107.812 40.9889 106.132 38.222 104.284C37.5325 103.823 36.8512 103.349 36.178 102.863L35.1683 102.132L34.1879 101.387C32.8808 100.377 31.5949 99.3268 30.3303 98.2354C29.0656 97.1439 27.8435 96.0132 26.6638 94.8434C25.4874 93.6768 24.3437 92.4742 23.2326 91.2357C22.1215 89.9972 21.0726 88.7277 20.0857 87.4271C19.0661 86.1199 18.0858 84.7834 17.1447 83.4175C16.2035 82.0515 15.3147 80.6578 14.4781 79.2363C13.635 77.8148 12.8377 76.3672 12.0861 74.8934C10.5785 71.9546 9.26852 68.9186 8.16473 65.8056C7.0571 62.7079 6.17896 59.5328 5.53742 56.3061C4.89376 53.1096 4.54428 49.8609 4.49335 46.6007C4.46887 44.9962 4.54582 43.3918 4.72373 41.797C4.89224 40.2374 5.19732 38.6957 5.63545 37.1894C6.04291 35.7438 6.64828 34.3615 7.43438 33.0818C8.14415 31.8965 9.11686 30.8903 10.2774 30.1408C10.8867 29.7562 11.5299 29.4281 12.1988 29.1604C12.8273 28.9094 13.4869 28.7445 14.1595 28.6702C14.8144 28.6074 15.4749 28.6404 16.1202 28.7683C16.8105 28.911 17.4828 29.1296 18.125 29.4202C19.5266 30.0872 20.8431 30.9199 22.0464 31.9005C23.3301 32.9196 24.5589 34.006 25.7276 35.1552C26.9236 36.3071 28.0853 37.5178 29.2225 38.7482C30.3597 39.9785 31.492 41.2382 32.6047 42.5127C33.7174 43.7871 34.8399 45.0861 35.9771 46.3605C37.1142 47.635 38.2662 48.9045 39.4082 50.1593C40.5504 51.4142 41.7709 52.6494 43.0208 53.8552C43.6433 54.4582 44.2806 55.0513 44.9815 55.6297C45.2756 55.8796 45.5795 56.1198 45.8981 56.3649C46.2854 55.6052 46.6628 54.8405 46.9814 54.0562L46.6089 53.7425C46.0011 53.2082 45.403 52.6347 44.8148 52.0514C44.2266 51.4681 43.6482 50.8603 43.0747 50.2476C42.5012 49.6349 41.9326 49.0123 41.3689 48.3849C40.2513 47.1301 39.1485 45.854 38.0603 44.5567C36.9721 43.2626 35.9084 41.9588 34.8349 40.6353C32.688 37.9737 30.4871 35.3464 28.1098 32.7926C26.8979 31.5176 25.6218 30.3053 24.2865 29.1604C23.6051 28.5771 22.8993 28.0134 22.1444 27.4791C21.3779 26.9276 20.57 26.436 19.7279 26.0086C18.8411 25.5553 17.9053 25.205 16.9388 24.9645C15.9221 24.7206 14.8749 24.6281 13.8311 24.6901C12.7995 24.7599 11.7821 24.9693 10.8068 25.3126C9.88131 25.6362 8.9885 26.0465 8.14023 26.538C7.6912 26.8028 7.26051 27.0976 6.85107 27.4203C6.44709 27.7333 6.06242 28.0705 5.69917 28.4301C5.34336 28.7847 5.00631 29.1578 4.68942 29.5476C4.53256 29.7388 4.38551 29.9398 4.23846 30.1359C4.09141 30.3319 3.94926 30.5378 3.81691 30.7388C2.78485 32.3415 1.98139 34.0804 1.42978 35.9052C0.409233 39.3896 -0.0701858 43.01 0.00828364 46.6399C0.0264393 48.4155 0.136055 50.189 0.336697 51.9534C0.532766 53.7131 0.826869 55.4532 1.15038 57.1786C2.57031 64.0496 4.95492 70.6853 8.23336 76.8884C11.4834 83.074 15.5345 88.8044 20.2818 93.9316C22.6479 96.4892 25.1846 98.8835 27.8745 101.098C30.5541 103.318 33.3824 105.352 36.3398 107.186C42.232 110.845 48.5759 113.72 55.2114 115.739L56.03 113.289C52.892 112.138 49.8219 110.811 46.8344 109.313Z" fill="#D9FFFF"/>
<path d="M188.813 50.5318L188.063 49.9877L187.337 49.4387L186.626 48.8848L185.925 48.326C185.435 47.9535 184.999 47.5662 184.533 47.1888C184.068 46.8114 183.622 46.4192 183.171 46.0222C181.367 44.4537 179.61 42.8377 177.901 41.1744C176.191 39.5078 174.514 37.8069 172.892 36.0619L172.279 35.41L171.975 35.0816L171.676 34.7532L170.475 33.4248C170.073 32.9837 169.681 32.5425 169.289 32.1013L168.113 30.7779C164.971 27.2585 161.799 23.788 158.491 20.4843C155.216 17.1674 151.717 14.0786 148.02 11.2397C146.198 9.84934 144.289 8.57562 142.305 7.42613C140.371 6.29798 138.328 5.36846 136.207 4.65176C134.156 3.95526 132.002 3.60894 129.835 3.6273C127.729 3.67239 125.657 4.17179 123.761 5.09137C121.865 6.01094 120.19 7.329 118.85 8.95546C117.501 10.6205 116.466 12.5173 115.797 14.5532C115.105 16.6422 114.688 18.8123 114.557 21.0088C114.414 23.2488 114.484 25.4974 114.767 27.7241C115.366 32.2444 116.558 36.6661 118.311 40.8754C120.063 45.1321 122.217 49.2124 124.742 53.0611C127.273 56.9319 130.092 60.6071 133.173 64.0556C133.943 64.9232 134.732 65.7712 135.526 66.6143C136.32 67.4574 137.139 68.2809 137.977 69.0897C139.624 70.717 141.339 72.2856 143.089 73.81C150.154 79.8782 157.832 85.1926 166 89.6671C174.186 94.1632 182.729 97.975 191.543 101.064L190.038 105.294C181.004 102.1 172.249 98.1648 163.863 93.5296C159.666 91.1965 155.589 88.6542 151.648 85.9124C147.699 83.1653 143.906 80.2018 140.286 77.0354C138.482 75.4472 136.712 73.81 135.006 72.1336C134.149 71.2905 133.31 70.418 132.482 69.5455C131.654 68.673 130.84 67.7809 130.031 66.8741C126.827 63.2525 123.904 59.3918 121.287 55.3257C118.65 51.2383 116.409 46.9084 114.596 42.3949C112.739 37.8408 111.493 33.061 110.89 28.18C110.596 25.7093 110.537 23.2162 110.714 20.7343C110.879 18.2071 111.373 15.7124 112.184 13.3131C112.606 12.0959 113.127 10.9155 113.743 9.78385C114.372 8.64077 115.109 7.5607 115.944 6.55852C116.367 6.05595 116.815 5.57498 117.287 5.11742C117.754 4.66061 118.245 4.22867 118.757 3.82336C119.291 3.41467 119.847 3.03663 120.424 2.69107C120.698 2.51461 120.988 2.35775 121.277 2.2009C121.566 2.04404 121.855 1.89209 122.154 1.75974C123.34 1.18978 124.587 0.754099 125.87 0.46079C127.156 0.164954 128.471 0.0104539 129.791 3.13314e-05C132.363 -0.00423219 134.917 0.426664 137.345 1.27448C139.695 2.08818 141.954 3.1462 144.084 4.43118C146.171 5.68418 148.177 7.06758 150.089 8.57313C152.001 10.0436 153.824 11.6367 155.589 13.2641C157.353 14.8914 159.059 16.5727 160.721 18.2883C164.044 21.7195 167.196 25.288 170.289 28.876L171.446 30.2191C171.833 30.67 172.215 31.121 172.603 31.5573L173.759 32.8807L174.049 33.214L174.343 33.5375L174.931 34.1895C176.499 35.9345 178.117 37.6207 179.764 39.2971C181.411 40.9734 183.097 42.5861 184.832 44.1547C185.264 44.5517 185.7 44.934 186.136 45.3262C186.572 45.7183 187.014 46.0957 187.46 46.4683L188.131 47.032L188.803 47.5859L189.484 48.125L190.156 48.6152L188.813 50.5318Z" fill="#C1F4F8"/>
<path d="M181.999 119.077C174.063 128.356 163.471 135.101 150.966 138.899C146.753 140.172 142.443 141.1 138.08 141.674C137.256 141.782 136.423 141.88 135.59 141.968C134.609 142.072 133.629 142.159 132.649 142.228L131.693 142.291C121.336 142.929 110.125 141.889 98.4152 139.007C97.7878 138.855 97.1555 138.694 96.5231 138.517C95.5885 138.272 94.6474 138.016 93.6997 137.748C92.8763 137.512 92.0479 137.257 91.2195 137.017C90.3127 136.743 89.396 136.453 88.4794 136.154C87.7017 135.9 86.9207 135.637 86.1364 135.365C85.1561 135.039 84.1757 134.692 83.1954 134.326C82.5385 134.086 81.8817 133.836 81.2347 133.581C75.4957 131.369 69.8829 128.842 64.4218 126.013C46.011 116.499 39.2956 86.7991 40.7711 68.0011C42.0602 51.5362 60.2799 37.5761 76.779 38.2036C76.779 38.2036 92.6704 39.1496 100.557 35.8507C111.915 31.1059 120.448 20.5525 138.693 21.2583C164.392 22.2387 161.397 42.223 182.009 44.7866C187.21 45.4385 190.871 48.3746 193.283 52.7616C193.41 52.9904 193.533 53.2257 193.651 53.4675C193.92 54.0067 194.175 54.5655 194.41 55.1439C201.4 72.3587 193.224 105.95 181.999 119.077Z" fill="#D9FFFF"/>
<path d="M190.778 103.176C188.327 109.617 185.288 115.224 181.999 119.072C175.582 126.511 167.529 132.361 158.471 136.164C156.023 137.212 153.52 138.123 150.971 138.895C147.285 139.176 143.599 139.306 139.913 139.287C123.736 139.229 107.697 136.315 92.5332 130.679C85.8129 128.18 74.1518 123.454 69.4951 120.131C67.9702 119.046 66.5313 117.845 65.1914 116.538C54.692 106.333 49.7461 90.0197 49.9569 77.29C50.1922 62.9279 57.7212 45.9778 83.1464 47.1542C106.41 48.2326 114.517 42.2182 121.292 36.4979L123.164 34.9146C123.836 34.3606 124.547 33.856 125.291 33.4049C128.879 31.2188 133.869 29.6943 138.923 29.4835C145.418 29.1894 152.015 31.0325 155.883 36.3459C163.417 46.7033 167.647 51.6491 178.95 52.1197C185.127 52.3745 190.175 52.5608 194.41 55.1783C199.346 67.315 196.714 87.662 190.778 103.176Z" fill="#A0F0F0"/>
<path d="M105.062 77.8883C105.062 77.8883 132.899 80.3391 147.643 80.1039C162.387 79.8686 183.852 76.5942 183.852 76.5942C183.852 76.5942 166.407 82.8488 147.682 82.8292C129.639 82.8145 105.062 77.8883 105.062 77.8883Z" fill="#5CC7D8"/>
<path d="M79.7346 68.5603C79.7346 68.5603 126.208 58.2667 145.481 59.6245C164.755 60.9823 189.656 68.9132 189.656 68.9132C189.656 68.9132 174.553 57.4334 144.589 54.909C123.767 53.1493 79.7346 68.5603 79.7346 68.5603Z" fill="#5CC7D8"/>
<path d="M70.3479 84.3638C70.3479 84.3638 112.694 107.539 146.947 107.005C181.2 106.47 192.905 84.3638 192.905 84.3638C192.905 84.3638 170.068 102.726 145.8 102.726C113.297 102.726 70.3479 84.3638 70.3479 84.3638Z" fill="#5CC7D8"/>
<path d="M193.636 53.4879C193.574 53.5359 193.498 53.5618 193.42 53.5614C193.381 53.5685 193.341 53.5685 193.302 53.5614C193.302 53.5614 192.989 53.4487 192.42 53.2771C192.331 53.2479 192.257 53.1847 192.214 53.1013C192.171 53.0178 192.162 52.9207 192.19 52.831C192.203 52.7867 192.225 52.7454 192.255 52.7097C192.284 52.6739 192.321 52.6445 192.362 52.623C192.403 52.6016 192.448 52.5885 192.494 52.5847C192.54 52.5809 192.587 52.5863 192.631 52.6007L193.268 52.8016C193.396 53.0206 193.518 53.2493 193.636 53.4879Z" fill="#3EA2B9"/>
<path d="M138.271 26.7979C137.634 26.7979 136.997 26.7979 136.379 26.8518C136.285 26.8518 136.196 26.889 136.129 26.9551C136.063 27.0213 136.026 27.1111 136.026 27.2047C136.026 27.2983 136.063 27.3881 136.129 27.4543C136.196 27.5204 136.285 27.5576 136.379 27.5576C136.982 27.5233 137.609 27.5037 138.232 27.5037C138.325 27.5037 138.415 27.4665 138.481 27.4003C138.548 27.3341 138.585 27.2444 138.585 27.1508C138.585 27.0572 138.548 26.9674 138.481 26.9012C138.415 26.835 138.325 26.7979 138.232 26.7979H138.271ZM143.697 27.1606C143.099 27.0822 142.462 27.0086 141.815 26.9547C141.769 26.9507 141.722 26.9559 141.678 26.97C141.633 26.9841 141.592 27.0068 141.556 27.0369C141.521 27.067 141.492 27.1038 141.47 27.1452C141.449 27.1866 141.436 27.2318 141.433 27.2782C141.426 27.3716 141.456 27.4639 141.516 27.5354C141.577 27.6069 141.663 27.6518 141.756 27.6606C142.393 27.7145 143.011 27.7831 143.599 27.8615H143.648C143.733 27.8622 143.816 27.8317 143.88 27.7757C143.944 27.7197 143.985 27.6421 143.996 27.5576C144.009 27.4654 143.984 27.3719 143.928 27.2975C143.872 27.2232 143.789 27.1739 143.697 27.1606ZM133.252 27.538C133.245 27.492 133.228 27.4479 133.204 27.4083C133.179 27.3687 133.147 27.3344 133.109 27.3074C133.071 27.2805 133.028 27.2614 132.983 27.2513C132.938 27.2413 132.891 27.2404 132.845 27.2488C132.222 27.3567 131.595 27.4841 130.987 27.636C130.903 27.6563 130.829 27.7067 130.78 27.7777C130.731 27.8486 130.709 27.9353 130.719 28.0211C130.73 28.107 130.771 28.1861 130.836 28.2434C130.9 28.3007 130.984 28.3323 131.07 28.3321C131.098 28.3368 131.126 28.3368 131.154 28.3321C131.747 28.1899 132.355 28.0625 132.967 27.9596C133.014 27.952 133.059 27.9349 133.1 27.9093C133.14 27.8836 133.174 27.85 133.201 27.8105C133.228 27.771 133.246 27.7264 133.255 27.6795C133.263 27.6326 133.262 27.5845 133.252 27.538ZM149.001 28.4644C148.427 28.2439 147.815 28.0429 147.192 27.8713C147.147 27.8588 147.101 27.8552 147.055 27.8607C147.008 27.8662 146.964 27.8808 146.923 27.9035C146.883 27.9263 146.847 27.9568 146.818 27.9933C146.79 28.0299 146.768 28.0717 146.756 28.1164C146.743 28.1612 146.74 28.2079 146.745 28.2541C146.751 28.3002 146.765 28.3448 146.788 28.3853C146.811 28.4258 146.841 28.4614 146.878 28.4902C146.914 28.5189 146.956 28.5401 147.001 28.5527C147.604 28.7193 148.192 28.9105 148.751 29.1262C148.839 29.1593 148.936 29.1563 149.021 29.1176C149.107 29.079 149.174 29.008 149.207 28.9203C149.24 28.8325 149.237 28.7352 149.198 28.6497C149.16 28.5642 149.089 28.4976 149.001 28.4644ZM128.051 28.9007C128.017 28.8137 127.95 28.7437 127.865 28.706C127.779 28.6684 127.682 28.6661 127.595 28.6997C127.012 28.9252 126.424 29.1899 125.85 29.4497C125.778 29.4841 125.719 29.5421 125.684 29.6142C125.649 29.6863 125.64 29.7681 125.658 29.8462C125.675 29.9243 125.719 29.9941 125.782 30.0441C125.844 30.094 125.922 30.1213 126.002 30.1212C126.053 30.1215 126.103 30.1098 126.149 30.0869C126.708 29.8222 127.281 29.5967 127.85 29.3615C127.936 29.3256 128.005 29.2572 128.042 29.1711C128.079 29.0849 128.08 28.9879 128.046 28.9007H128.051ZM153.756 31.18C153.265 30.778 152.726 30.4055 152.202 30.0673C152.122 30.0166 152.026 29.9995 151.934 30.0197C151.842 30.0399 151.762 30.0958 151.712 30.1751C151.661 30.2544 151.644 30.3506 151.664 30.4426C151.684 30.5345 151.74 30.6146 151.819 30.6653C152.337 30.9939 152.836 31.3506 153.314 31.7339C153.376 31.7854 153.454 31.8133 153.535 31.8123C153.588 31.8115 153.639 31.7992 153.687 31.7764C153.734 31.7535 153.776 31.7206 153.809 31.68C153.867 31.6057 153.894 31.5115 153.883 31.4179C153.872 31.3243 153.824 31.2388 153.751 31.18H153.756ZM123.208 31.2584C123.184 31.2181 123.152 31.1831 123.114 31.1553C123.076 31.1275 123.033 31.1076 122.988 31.0966C122.942 31.0857 122.895 31.0839 122.848 31.0915C122.802 31.0991 122.758 31.1158 122.718 31.1408C122.193 31.4643 121.679 31.7976 121.13 32.1701C121.066 32.2123 121.018 32.274 120.992 32.3459C120.967 32.4178 120.965 32.4961 120.988 32.569C121.01 32.6419 121.056 32.7055 121.118 32.7502C121.18 32.795 121.254 32.8185 121.331 32.8172C121.401 32.8179 121.47 32.7955 121.527 32.7534C122.066 32.3907 122.576 32.0574 123.086 31.7437C123.126 31.72 123.161 31.6886 123.188 31.6512C123.216 31.6138 123.236 31.5712 123.247 31.5259C123.258 31.4807 123.26 31.4337 123.252 31.3877C123.245 31.3418 123.228 31.2978 123.203 31.2584H123.208ZM157.603 35.0425C157.162 34.523 156.75 34.0622 156.349 33.6259C156.283 33.5624 156.195 33.527 156.103 33.527C156.012 33.527 155.924 33.5624 155.858 33.6259C155.795 33.6917 155.759 33.7796 155.759 33.871C155.759 33.9625 155.795 34.0503 155.858 34.1161C156.251 34.5426 156.652 34.9935 157.089 35.5082C157.121 35.5481 157.163 35.5802 157.209 35.6023C157.256 35.6243 157.307 35.6357 157.358 35.6356C157.441 35.6347 157.52 35.6053 157.584 35.5523C157.619 35.5207 157.648 35.4822 157.669 35.4391C157.689 35.396 157.701 35.3493 157.703 35.3016C157.704 35.254 157.697 35.2065 157.679 35.1619C157.662 35.1174 157.637 35.0768 157.603 35.0425ZM118.767 34.3269C118.71 34.2542 118.627 34.2068 118.535 34.1949C118.443 34.183 118.351 34.2075 118.277 34.2632C117.757 34.6602 117.238 35.067 116.806 35.42C116.747 35.464 116.703 35.5258 116.681 35.5964C116.66 35.667 116.661 35.7427 116.685 35.8126C116.709 35.8825 116.754 35.9429 116.815 35.9851C116.876 36.0274 116.948 36.0492 117.022 36.0474C117.1 36.0478 117.176 36.0219 117.238 35.9739L118.708 34.822C118.782 34.7632 118.829 34.6777 118.84 34.5841C118.852 34.4904 118.825 34.3963 118.767 34.322V34.3269ZM114.508 37.6355C114.45 37.5631 114.368 37.5156 114.276 37.5028C114.185 37.49 114.092 37.513 114.017 37.5669C113.473 37.9738 112.983 38.3267 112.508 38.6551C112.444 38.6973 112.396 38.7589 112.37 38.8309C112.345 38.9028 112.343 38.981 112.366 39.0539C112.388 39.1268 112.434 39.1904 112.496 39.2352C112.558 39.2799 112.632 39.3034 112.709 39.3021C112.779 39.3006 112.847 39.2784 112.905 39.2384C113.395 38.9051 113.885 38.5424 114.439 38.1306C114.477 38.1026 114.508 38.0674 114.532 38.0269C114.556 37.9865 114.572 37.9416 114.578 37.8951C114.585 37.8485 114.582 37.8011 114.57 37.7557C114.557 37.7103 114.536 37.6678 114.508 37.6306V37.6355ZM160.971 39.2727L160.647 38.8561L159.819 37.7924C159.76 37.7238 159.676 37.6808 159.586 37.6722C159.495 37.6637 159.405 37.6902 159.334 37.7463C159.263 37.8025 159.216 37.8839 159.203 37.9737C159.19 38.0635 159.212 38.1548 159.265 38.2286C159.535 38.5718 159.809 38.9296 160.089 39.2923L160.412 39.709C160.447 39.7509 160.49 39.7845 160.539 39.8075C160.588 39.8304 160.642 39.8419 160.696 39.8413C160.773 39.8418 160.847 39.8158 160.907 39.7678C160.945 39.7399 160.977 39.7045 161.001 39.6639C161.025 39.6233 161.04 39.5782 161.046 39.5315C161.052 39.4847 161.048 39.4372 161.036 39.3919C161.023 39.3466 161.001 39.3044 160.971 39.2678V39.2727ZM109.993 40.6158C109.972 40.5726 109.942 40.5342 109.906 40.503C109.869 40.4719 109.826 40.4487 109.78 40.4349C109.734 40.421 109.686 40.4169 109.638 40.4228C109.59 40.4286 109.544 40.4442 109.503 40.4687C108.969 40.7481 108.41 41.0177 107.831 41.2677C107.746 41.3054 107.678 41.3757 107.644 41.463C107.61 41.5503 107.612 41.6476 107.65 41.7334C107.688 41.8192 107.758 41.8865 107.845 41.9205C107.933 41.9545 108.03 41.9524 108.116 41.9147C108.709 41.6549 109.282 41.3804 109.831 41.0912C109.876 41.0733 109.917 41.0463 109.951 41.0118C109.984 40.9773 110.011 40.9362 110.028 40.891C110.045 40.8458 110.052 40.7976 110.05 40.7494C110.047 40.7011 110.034 40.654 110.013 40.6109L109.993 40.6158ZM105.028 42.7039C104.999 42.615 104.937 42.5409 104.855 42.4977C104.772 42.4546 104.676 42.4459 104.586 42.4735C104.008 42.6549 103.405 42.8216 102.797 42.9637C102.752 42.9746 102.71 42.9943 102.673 43.0217C102.636 43.0491 102.604 43.0837 102.58 43.1234C102.557 43.1631 102.541 43.2072 102.535 43.253C102.528 43.2988 102.531 43.3454 102.542 43.3902C102.562 43.4661 102.606 43.5334 102.669 43.5814C102.731 43.6293 102.807 43.6552 102.886 43.6549C102.915 43.6597 102.945 43.6597 102.974 43.6549C103.596 43.4931 104.204 43.3215 104.792 43.1402C104.839 43.1288 104.882 43.1083 104.92 43.0797C104.958 43.0511 104.99 43.0152 105.014 42.974C105.038 42.9327 105.053 42.8871 105.059 42.8399C105.064 42.7926 105.06 42.7447 105.047 42.699L105.028 42.7039ZM164.422 43.3754C164.01 42.949 163.593 42.4882 163.172 42.003C163.11 41.9358 163.025 41.8948 162.933 41.8884C162.842 41.882 162.752 41.9107 162.682 41.9687C162.612 42.0292 162.57 42.1148 162.563 42.2067C162.557 42.2985 162.587 42.3892 162.647 42.4588C163.074 42.949 163.505 43.4392 163.922 43.8607C163.954 43.8954 163.994 43.9229 164.038 43.9415C164.082 43.96 164.129 43.9693 164.177 43.9686C164.222 43.9695 164.267 43.9613 164.309 43.9444C164.351 43.9276 164.389 43.9025 164.422 43.8705C164.487 43.8045 164.523 43.7156 164.523 43.623C164.523 43.5304 164.487 43.4415 164.422 43.3754ZM99.8122 44.0127C99.8045 43.967 99.7878 43.9232 99.7632 43.884C99.7386 43.8447 99.7065 43.8107 99.6687 43.7838C99.6309 43.7569 99.5882 43.7378 99.543 43.7274C99.4978 43.7171 99.4511 43.7157 99.4054 43.7235C98.8073 43.8313 98.1848 43.9293 97.5623 44.0127C97.4687 44.0192 97.3815 44.0626 97.3199 44.1334C97.2583 44.2041 97.2274 44.2965 97.2339 44.3901C97.2404 44.4837 97.2838 44.5709 97.3546 44.6325C97.4254 44.6941 97.5177 44.725 97.6113 44.7185H97.6603C98.2927 44.6303 98.9201 44.5323 99.5279 44.4244C99.5755 44.417 99.621 44.3997 99.6616 44.3738C99.7022 44.3478 99.737 44.3137 99.7637 44.2736C99.7904 44.2335 99.8085 44.1883 99.8169 44.1409C99.8252 44.0934 99.8236 44.0448 99.8122 43.998V44.0127ZM77.926 44.3068C77.2937 44.3068 76.6565 44.3068 76.0291 44.3068C75.9355 44.3068 75.8457 44.344 75.7795 44.4101C75.7133 44.4763 75.6762 44.5661 75.6762 44.6597C75.6762 44.7533 75.7133 44.8431 75.7795 44.9093C75.8457 44.9754 75.9355 45.0126 76.0291 45.0126C76.6418 45.0126 77.2692 44.9832 77.8868 45.0126C77.9809 45.0126 78.0712 44.9756 78.1381 44.9096C78.2051 44.8435 78.2434 44.7537 78.2446 44.6597C78.2451 44.5717 78.2126 44.4868 78.1537 44.4215C78.0948 44.3562 78.0136 44.3153 77.926 44.3068ZM94.0674 44.3852C93.4596 44.4342 92.8322 44.4783 92.2047 44.5126C92.1581 44.5145 92.1124 44.5257 92.0702 44.5456C92.028 44.5654 91.9903 44.5936 91.9592 44.6283C91.9281 44.6631 91.9043 44.7037 91.8892 44.7478C91.8742 44.792 91.8681 44.8387 91.8714 44.8852C91.8764 44.9753 91.9158 45.0601 91.9815 45.1221C92.0471 45.1842 92.134 45.2186 92.2243 45.2185C92.8567 45.1842 93.4939 45.1401 94.1066 45.0861C94.1554 45.0861 94.2037 45.076 94.2484 45.0563C94.2931 45.0367 94.3332 45.008 94.3662 44.972C94.3993 44.9361 94.4245 44.8937 94.4403 44.8475C94.4561 44.8013 94.4622 44.7524 94.4581 44.7037C94.454 44.6551 94.4399 44.6078 94.4166 44.5649C94.3933 44.522 94.3614 44.4844 94.3228 44.4544C94.2842 44.4245 94.2399 44.4029 94.1926 44.391C94.1452 44.3791 94.0959 44.3771 94.0478 44.3852H94.0674ZM83.3228 44.5519L81.4553 44.4636C81.4088 44.4603 81.3621 44.4664 81.3179 44.4814C81.2738 44.4965 81.2332 44.5203 81.1984 44.5514C81.1637 44.5825 81.1355 44.6203 81.1157 44.6624C81.0958 44.7046 81.0846 44.7504 81.0827 44.7969C81.0801 44.8433 81.0866 44.8897 81.102 44.9336C81.1173 44.9774 81.1411 45.0178 81.1721 45.0524C81.203 45.087 81.2405 45.1152 81.2824 45.1353C81.3243 45.1553 81.3697 45.167 81.4161 45.1695L83.2983 45.2577C83.389 45.2577 83.476 45.2224 83.541 45.1593C83.606 45.0961 83.6438 45.0101 83.6463 44.9195C83.6509 44.8313 83.6222 44.7446 83.5659 44.6766C83.5096 44.6085 83.4299 44.564 83.3424 44.5519H83.3228ZM88.7147 44.6303C88.102 44.6303 87.4697 44.6303 86.8472 44.6303C86.7544 44.6303 86.6654 44.6668 86.5993 44.7319C86.5333 44.797 86.4955 44.8856 86.4942 44.9783C86.4942 45.0724 86.5313 45.1626 86.5973 45.2296C86.6633 45.2966 86.7531 45.3348 86.8472 45.3361H88.7098C88.8039 45.3336 88.8931 45.2941 88.9582 45.2262C89.0234 45.1583 89.0592 45.0675 89.0578 44.9734C89.0565 44.882 89.0193 44.7947 88.9542 44.7305C88.8891 44.6663 88.8013 44.6303 88.7098 44.6303H88.7147ZM72.8969 44.9342C72.8835 44.8417 72.8344 44.7582 72.7603 44.7014C72.6861 44.6446 72.5926 44.6191 72.4998 44.6303C71.8675 44.7136 71.2401 44.8165 70.6274 44.9342C70.5359 44.952 70.4551 45.0053 70.4028 45.0824C70.3504 45.1596 70.3307 45.2543 70.348 45.3459C70.3619 45.4269 70.4039 45.5003 70.4667 45.5532C70.5295 45.6061 70.609 45.6352 70.6911 45.6351H70.7597C71.3577 45.5175 71.9754 45.4195 72.593 45.3361C72.6404 45.3313 72.6863 45.317 72.728 45.294C72.7697 45.2709 72.8063 45.2397 72.8357 45.2021C72.865 45.1646 72.8864 45.1215 72.8986 45.0754C72.9108 45.0294 72.9135 44.9813 72.9067 44.9342H72.8969ZM67.6324 46.0273C67.6022 45.9388 67.5388 45.8654 67.4557 45.8224C67.3726 45.7795 67.2761 45.7704 67.1864 45.7969C66.5786 45.9881 65.9806 46.2037 65.3973 46.4292C65.3209 46.4592 65.2574 46.5149 65.2177 46.5867C65.178 46.6585 65.1645 46.7419 65.1796 46.8225C65.1947 46.9032 65.2374 46.976 65.3003 47.0286C65.3633 47.0812 65.4427 47.1101 65.5247 47.1105C65.5682 47.1091 65.6112 47.1008 65.6522 47.086C66.2208 46.8655 66.809 46.6596 67.4021 46.4733C67.4913 46.4441 67.5655 46.3809 67.6086 46.2975C67.6517 46.214 67.6603 46.117 67.6324 46.0273ZM168.48 46.7723C167.99 46.4488 167.475 46.091 166.98 45.7038C166.944 45.6753 166.903 45.6542 166.859 45.6418C166.815 45.6293 166.769 45.6257 166.723 45.6312C166.677 45.6367 166.633 45.6511 166.593 45.6736C166.554 45.6962 166.518 45.7264 166.49 45.7626C166.434 45.8358 166.409 45.928 166.42 46.0197C166.431 46.1113 166.477 46.195 166.549 46.2528C167.039 46.6547 167.583 47.0272 168.103 47.3605C168.159 47.399 168.226 47.4195 168.294 47.4194C168.353 47.4193 168.411 47.404 168.463 47.3748C168.515 47.3456 168.558 47.3035 168.588 47.2527C168.612 47.2138 168.629 47.1705 168.636 47.1252C168.644 47.08 168.642 47.0337 168.632 46.9891C168.621 46.9444 168.602 46.9023 168.575 46.8651C168.548 46.8279 168.514 46.7964 168.475 46.7723H168.48ZM62.6425 48.0811C62.6206 48.0387 62.5901 48.0013 62.5531 47.9711C62.5161 47.941 62.4732 47.9188 62.4273 47.9059C62.3813 47.893 62.3331 47.8898 62.2858 47.8963C62.2386 47.9028 62.1931 47.919 62.1523 47.9438C61.6033 48.2527 61.0543 48.5811 60.5299 48.9242C60.452 48.9762 60.3976 49.0566 60.3783 49.1483C60.3591 49.2399 60.3765 49.3354 60.4269 49.4144C60.4597 49.4634 60.5042 49.5035 60.5565 49.5309C60.6087 49.5583 60.667 49.5721 60.7259 49.5712C60.794 49.5707 60.8605 49.5503 60.9171 49.5124C61.4073 49.1791 61.9612 48.8556 62.5003 48.5321C62.5765 48.4886 62.6334 48.418 62.6598 48.3344C62.6861 48.2508 62.68 48.1603 62.6425 48.0811ZM173.289 48.8899C172.696 48.7313 172.112 48.5415 171.539 48.3213C171.451 48.2881 171.354 48.2912 171.268 48.3298C171.183 48.3684 171.116 48.4394 171.083 48.5271C171.05 48.6149 171.053 48.7122 171.092 48.7977C171.13 48.8832 171.201 48.9499 171.289 48.983C171.867 49.2036 172.465 49.3948 173.103 49.5712C173.133 49.5759 173.165 49.5759 173.196 49.5712C173.283 49.574 173.368 49.5443 173.435 49.4877C173.502 49.4312 173.545 49.3519 173.557 49.2653C173.568 49.1786 173.547 49.0907 173.498 49.0187C173.448 48.9466 173.374 48.8954 173.289 48.8752V48.8899ZM178.539 49.831C177.852 49.7526 177.245 49.6692 176.691 49.5859C176.645 49.579 176.598 49.5812 176.552 49.5925C176.507 49.6038 176.465 49.6239 176.427 49.6517C176.39 49.6795 176.359 49.7144 176.335 49.7545C176.311 49.7945 176.295 49.8388 176.289 49.8849C176.276 49.9777 176.3 50.0718 176.356 50.1469C176.412 50.2221 176.495 50.2723 176.588 50.2869C177.147 50.3702 177.759 50.4486 178.455 50.532H178.499C178.593 50.5372 178.685 50.505 178.755 50.4424C178.825 50.3799 178.867 50.2922 178.872 50.1986C178.877 50.105 178.845 50.0132 178.782 49.9433C178.72 49.8735 178.632 49.8313 178.539 49.8261V49.831ZM183.906 50.5614C183.288 50.4584 182.661 50.3604 182.038 50.2673C181.946 50.2559 181.854 50.2808 181.78 50.3366C181.705 50.3923 181.656 50.4747 181.641 50.5663C181.634 50.6123 181.637 50.6593 181.648 50.7044C181.659 50.7496 181.679 50.7921 181.707 50.8295C181.735 50.8668 181.77 50.8983 181.81 50.9221C181.85 50.946 181.894 50.9616 181.94 50.9682C182.553 51.0564 183.176 51.1545 183.788 51.2574H183.847C183.936 51.2575 184.021 51.2242 184.086 51.1643C184.151 51.1044 184.192 51.0222 184.199 50.934C184.206 50.8458 184.18 50.758 184.126 50.6881C184.072 50.6181 183.993 50.5712 183.906 50.5565V50.5614ZM189.195 51.6495C188.597 51.5025 187.974 51.3603 187.357 51.228C187.311 51.2179 187.264 51.2169 187.219 51.225C187.173 51.2331 187.129 51.2501 187.09 51.2752C187.051 51.3002 187.017 51.3328 186.99 51.3709C186.964 51.4091 186.945 51.4522 186.935 51.4976C186.917 51.589 186.936 51.6838 186.986 51.7623C187.036 51.8408 187.114 51.8969 187.205 51.9191C187.822 52.0515 188.435 52.1887 189.028 52.3358H189.112C189.198 52.336 189.282 52.3044 189.346 52.2471C189.411 52.1897 189.452 52.1107 189.463 52.0248C189.473 51.939 189.451 51.8523 189.402 51.7813C189.353 51.7104 189.279 51.66 189.195 51.6397V51.6495ZM58.1966 51.1594C58.1348 51.0918 58.049 51.0509 57.9575 51.0454C57.866 51.0399 57.776 51.0703 57.7065 51.13C57.2163 51.5515 56.7752 51.9927 56.3389 52.4534C56.2754 52.5192 56.2399 52.6071 56.2399 52.6985C56.2399 52.7899 56.2754 52.8778 56.3389 52.9436C56.4054 53.0059 56.4929 53.0409 56.584 53.0416C56.6319 53.0414 56.6793 53.0313 56.7232 53.0119C56.7671 52.9925 56.8064 52.9642 56.8389 52.9289C57.2653 52.4877 57.7114 52.0564 58.1672 51.6446C58.205 51.6151 58.2364 51.5783 58.2594 51.5363C58.2825 51.4942 58.2967 51.448 58.3013 51.4003C58.3059 51.3526 58.3007 51.3044 58.2861 51.2588C58.2715 51.2132 58.2477 51.171 58.2163 51.1349L58.1966 51.1594ZM54.5449 55.1101C54.4689 55.0573 54.3754 55.0359 54.284 55.0505C54.1926 55.0652 54.1104 55.1146 54.0547 55.1886C53.6871 55.6788 53.3341 56.2277 52.9959 56.7669C52.9708 56.8064 52.9537 56.8505 52.9458 56.8966C52.9379 56.9428 52.9392 56.99 52.9497 57.0356C52.9602 57.0812 52.9796 57.1243 53.0069 57.1623C53.0342 57.2004 53.0688 57.2326 53.1087 57.2571C53.1649 57.2912 53.2292 57.3098 53.2949 57.311C53.3549 57.3114 53.414 57.2962 53.4663 57.267C53.5187 57.2378 53.5627 57.1955 53.5939 57.1444C53.9224 56.6199 54.2704 56.1003 54.6282 55.6101C54.6606 55.5724 54.6848 55.5284 54.6992 55.4808C54.7136 55.4332 54.7179 55.3832 54.712 55.3338C54.706 55.2845 54.6897 55.2369 54.6644 55.1942C54.639 55.1515 54.6049 55.1145 54.5645 55.0856L54.5449 55.1101ZM51.7656 59.7227C51.7228 59.6995 51.6758 59.6855 51.6273 59.6814C51.5789 59.6773 51.5301 59.6833 51.4841 59.699C51.4381 59.7146 51.3958 59.7396 51.3599 59.7724C51.324 59.8051 51.2952 59.8449 51.2754 59.8893C51.0107 60.453 50.7558 61.0363 50.5206 61.6245C50.4849 61.711 50.4849 61.8081 50.5208 61.8945C50.5566 61.9809 50.6253 62.0495 50.7117 62.0853C50.7533 62.1043 50.7984 62.1143 50.8441 62.1147C50.9152 62.1146 50.9845 62.093 51.0431 62.0527C51.1017 62.0125 51.1468 61.9555 51.1725 61.8892C51.4078 61.3108 51.6627 60.7422 51.9176 60.1932C51.942 60.1522 51.9579 60.1067 51.9645 60.0594C51.9711 60.0121 51.9681 59.9639 51.9558 59.9178C51.9434 59.8716 51.922 59.8284 51.8927 59.7907C51.8634 59.753 51.8269 59.7215 51.7852 59.6982L51.7656 59.7227ZM49.8049 64.7371C49.7146 64.7112 49.6177 64.7219 49.5351 64.7668C49.4526 64.8117 49.391 64.8873 49.3638 64.9773C49.1873 65.5704 49.0206 66.1831 48.8736 66.8007C48.8513 66.8911 48.8656 66.9865 48.9133 67.0664C48.961 67.1463 49.0384 67.2041 49.1285 67.2272C49.1577 67.232 49.1875 67.232 49.2167 67.2272C49.2948 67.2259 49.3703 67.1994 49.4321 67.1517C49.494 67.104 49.5387 67.0377 49.5598 66.9625C49.7118 66.3547 49.8784 65.7518 50.05 65.1685C50.0655 65.1241 50.0721 65.077 50.0694 65.0301C50.0667 64.9831 50.0547 64.9371 50.0342 64.8948C50.0137 64.8525 49.9851 64.8146 49.95 64.7833C49.9148 64.7521 49.8739 64.728 49.8294 64.7126L49.8049 64.7371ZM48.5403 69.977C48.4946 69.9686 48.4476 69.9692 48.4021 69.9789C48.3567 69.9886 48.3136 70.0072 48.2753 70.0336C48.237 70.06 48.2044 70.0938 48.1792 70.1328C48.154 70.1719 48.1368 70.2156 48.1285 70.2613C48.1285 70.3692 48.0942 70.4721 48.0746 70.58C47.9913 71.0701 47.9129 71.6142 47.8442 72.1338C47.833 72.2266 47.8585 72.32 47.9153 72.3942C47.9721 72.4684 48.0557 72.5174 48.1481 72.5308H48.1922C48.2779 72.5317 48.361 72.5013 48.426 72.4454C48.4909 72.3894 48.5333 72.3118 48.5452 72.2269C48.6089 71.7122 48.6873 71.2025 48.7707 70.6976C48.7707 70.5947 48.8099 70.4868 48.8246 70.3839C48.837 70.3385 48.84 70.291 48.8336 70.2444C48.8271 70.1978 48.8113 70.1529 48.787 70.1126C48.7627 70.0723 48.7305 70.0373 48.6923 70.0098C48.6541 69.9823 48.6107 69.9628 48.5648 69.9525L48.5403 69.977ZM47.8982 75.3297C47.804 75.3257 47.7121 75.359 47.6424 75.4223C47.5727 75.4856 47.5307 75.5739 47.5256 75.6679C47.4962 76.2905 47.4766 76.9228 47.4668 77.5551C47.4668 77.6492 47.5038 77.7394 47.5699 77.8064C47.6359 77.8734 47.7257 77.9116 47.8197 77.9129C47.912 77.9129 48.0005 77.8763 48.0658 77.811C48.1311 77.7457 48.1677 77.6572 48.1677 77.5649C48.1677 76.9424 48.1972 76.315 48.2266 75.7023C48.2328 75.6562 48.2298 75.6094 48.2179 75.5645C48.206 75.5196 48.1853 75.4775 48.157 75.4406C48.1288 75.4037 48.0936 75.3728 48.0533 75.3496C48.0131 75.3263 47.9687 75.3112 47.9227 75.3052L47.8982 75.3297ZM48.2609 81.0549C48.2557 80.9613 48.2135 80.8736 48.1436 80.8111C48.0738 80.7486 47.9819 80.7164 47.8883 80.7216C47.7947 80.7268 47.707 80.769 47.6445 80.8388C47.582 80.9087 47.5498 81.0005 47.555 81.0941C47.5942 81.7167 47.6433 82.349 47.7021 82.9764C47.7106 83.0639 47.7516 83.1451 47.8168 83.204C47.8821 83.263 47.9671 83.2954 48.055 83.295H48.0893C48.1822 83.2851 48.2674 83.2388 48.3262 83.1662C48.385 83.0936 48.4126 83.0007 48.403 82.9078C48.3687 82.2656 48.3246 81.6431 48.2854 81.0304L48.2609 81.0549ZM49.1726 88.2114C49.0549 87.5987 48.9422 86.986 48.8491 86.3782C48.8341 86.2852 48.7829 86.202 48.7066 86.1469C48.6303 86.0917 48.5352 86.0691 48.4422 86.0841C48.3493 86.099 48.2661 86.1503 48.2109 86.2266C48.1558 86.3029 48.1332 86.398 48.1481 86.4909C48.2511 87.1036 48.3589 87.7261 48.4765 88.3438C48.4924 88.4247 48.5356 88.4977 48.599 88.5504C48.6625 88.6031 48.7421 88.6322 48.8246 88.633H48.8932C48.9443 88.6277 48.9937 88.6114 49.0379 88.585C49.082 88.5587 49.1199 88.5231 49.1489 88.4806C49.1778 88.4381 49.1971 88.3898 49.2055 88.3391C49.2138 88.2884 49.2109 88.2364 49.1971 88.1869L49.1726 88.2114ZM50.4225 93.4268C50.251 92.8288 50.0892 92.2259 49.9324 91.6279C49.9096 91.5369 49.8516 91.4587 49.7712 91.4104C49.6908 91.3621 49.5945 91.3478 49.5035 91.3706C49.4125 91.3933 49.3342 91.4513 49.286 91.5317C49.2377 91.6122 49.2234 91.7085 49.2461 91.7995C49.3981 92.4024 49.5647 93.02 49.7363 93.6229C49.7591 93.6963 49.8047 93.7605 49.8663 93.8063C49.928 93.8521 50.0026 93.8771 50.0794 93.8778H50.1774C50.229 93.869 50.278 93.8488 50.3208 93.8187C50.3636 93.7887 50.3992 93.7495 50.425 93.704C50.4508 93.6585 50.4662 93.6078 50.47 93.5556C50.4738 93.5035 50.466 93.4511 50.447 93.4023L50.4225 93.4268ZM52.1234 98.5197C51.9028 97.9413 51.6872 97.3482 51.4813 96.7649C51.4675 96.7195 51.4447 96.6772 51.4143 96.6408C51.3838 96.6044 51.3463 96.5744 51.304 96.5529C51.2617 96.5313 51.2155 96.5184 51.1681 96.5151C51.1207 96.5118 51.0731 96.5181 51.0283 96.5336C50.9834 96.5491 50.9421 96.5736 50.9068 96.6054C50.8716 96.6373 50.8432 96.6759 50.8232 96.719C50.8033 96.7621 50.7922 96.8088 50.7908 96.8563C50.7893 96.9038 50.7974 96.951 50.8147 96.9953C51.0205 97.5884 51.2411 98.1864 51.4617 98.7697C51.4871 98.8372 51.5328 98.8951 51.5925 98.9355C51.6522 98.9759 51.7229 98.9967 51.795 98.9952C51.854 98.997 51.9124 98.9838 51.9649 98.9569C52.0174 98.9299 52.0621 98.8901 52.095 98.841C52.1278 98.792 52.1476 98.7355 52.1526 98.6767C52.1576 98.6179 52.1475 98.5588 52.1234 98.505V98.5197ZM54.2459 103.451C53.9763 102.892 53.7116 102.319 53.4616 101.755C53.4239 101.669 53.3537 101.602 53.2663 101.568C53.179 101.534 53.0817 101.536 52.9959 101.573C52.9101 101.611 52.8428 101.681 52.8088 101.769C52.7748 101.856 52.7769 101.953 52.8146 102.039C53.0695 102.618 53.339 103.191 53.6086 103.755C53.6373 103.815 53.6825 103.866 53.7389 103.901C53.7953 103.937 53.8606 103.956 53.9273 103.956C53.9799 103.956 54.0319 103.944 54.0792 103.921C54.1264 103.904 54.1693 103.877 54.2051 103.842C54.241 103.807 54.2689 103.764 54.287 103.717C54.305 103.67 54.3129 103.62 54.3101 103.57C54.3072 103.52 54.2937 103.471 54.2704 103.426L54.2459 103.451ZM56.7752 108.181C56.4614 107.652 56.1477 107.108 55.8487 106.563C55.8285 106.519 55.7994 106.48 55.7633 106.448C55.7272 106.416 55.6848 106.391 55.6389 106.376C55.5929 106.361 55.5443 106.355 55.4961 106.36C55.4479 106.364 55.4011 106.378 55.3587 106.402C55.3162 106.425 55.279 106.457 55.2494 106.495C55.2197 106.533 55.1982 106.577 55.1862 106.624C55.1743 106.671 55.1721 106.72 55.1798 106.767C55.1875 106.815 55.205 106.861 55.2311 106.902C55.535 107.451 55.8487 108.005 56.1673 108.544C56.1998 108.595 56.2446 108.638 56.2976 108.668C56.3507 108.698 56.4103 108.714 56.4712 108.715C56.535 108.716 56.5978 108.699 56.6526 108.666C56.6975 108.644 56.7373 108.613 56.7695 108.575C56.8016 108.537 56.8254 108.492 56.8392 108.444C56.8531 108.396 56.8567 108.346 56.8499 108.296C56.8431 108.247 56.826 108.199 56.7997 108.156L56.7752 108.181ZM59.7162 112.671C59.3535 112.181 58.9956 111.656 58.6476 111.142C58.5956 111.064 58.5147 111.009 58.4228 110.991C58.3309 110.973 58.2354 110.992 58.1574 111.044C58.0794 111.096 58.0253 111.176 58.0069 111.268C57.9885 111.36 58.0074 111.456 58.0594 111.534C58.4123 112.058 58.775 112.578 59.1427 113.083C59.1745 113.128 59.2171 113.166 59.2666 113.191C59.3162 113.217 59.3712 113.23 59.427 113.23C59.5015 113.232 59.5744 113.207 59.6328 113.161C59.6764 113.137 59.7143 113.104 59.7438 113.063C59.7734 113.023 59.794 112.977 59.8042 112.928C59.8145 112.88 59.8141 112.829 59.8031 112.781C59.7922 112.732 59.7709 112.686 59.7407 112.646L59.7162 112.671ZM63.069 116.847C62.6572 116.391 62.2504 115.916 61.8533 115.436C61.7941 115.365 61.7098 115.321 61.6182 115.311C61.5266 115.302 61.4351 115.329 61.3632 115.387C61.2938 115.446 61.25 115.531 61.2409 115.622C61.2317 115.713 61.258 115.804 61.3141 115.877C61.7161 116.367 62.1327 116.857 62.5445 117.308C62.5766 117.343 62.6154 117.371 62.6584 117.391C62.7014 117.41 62.748 117.422 62.7953 117.423C62.8426 117.425 62.8899 117.418 62.9343 117.401C62.9787 117.385 63.0195 117.36 63.0542 117.328C63.089 117.295 63.1171 117.257 63.1369 117.214C63.1567 117.171 63.1678 117.124 63.1696 117.077C63.1714 117.029 63.1639 116.982 63.1475 116.938C63.1311 116.893 63.106 116.853 63.0738 116.818L63.069 116.847ZM66.8531 120.631C66.3972 120.229 65.9364 119.803 65.4855 119.367C65.4191 119.304 65.3315 119.27 65.2404 119.27C65.1493 119.27 65.0617 119.304 64.9953 119.367C64.9318 119.432 64.8963 119.52 64.8963 119.612C64.8963 119.703 64.9318 119.791 64.9953 119.857C65.4512 120.298 65.9217 120.729 66.3874 121.141C66.4504 121.198 66.5326 121.23 66.6178 121.229C66.6896 121.23 66.7599 121.208 66.8191 121.168C66.8784 121.127 66.9239 121.069 66.9494 121.002C66.975 120.935 66.9795 120.862 66.9623 120.792C66.9451 120.722 66.907 120.659 66.8531 120.612V120.631ZM71.0882 123.886C70.598 123.553 70.0686 123.195 69.5637 122.822C69.4877 122.767 69.3928 122.744 69.2999 122.759C69.2071 122.774 69.1239 122.825 69.0686 122.901C69.0134 122.977 68.9906 123.072 69.0053 123.165C69.02 123.257 69.071 123.341 69.1471 123.396C69.6372 123.773 70.1813 124.136 70.7009 124.479C70.7594 124.516 70.8277 124.535 70.897 124.533C70.9725 124.532 71.0457 124.507 71.1059 124.462C71.1661 124.416 71.2102 124.353 71.2316 124.28C71.2529 124.208 71.2506 124.13 71.2248 124.06C71.1989 123.989 71.1511 123.928 71.0882 123.886ZM75.735 126.562C75.186 126.268 74.6321 125.964 74.0929 125.665C74.011 125.62 73.9144 125.609 73.8243 125.635C73.7342 125.66 73.658 125.721 73.6125 125.803C73.567 125.885 73.5559 125.981 73.5817 126.071C73.6074 126.161 73.6679 126.238 73.7498 126.283C74.2939 126.587 74.8478 126.891 75.4017 127.185C75.4429 127.209 75.4886 127.224 75.5359 127.23C75.5833 127.236 75.6313 127.232 75.6771 127.219C75.723 127.205 75.7656 127.183 75.8025 127.153C75.8394 127.122 75.8698 127.085 75.8918 127.043C75.9172 127.001 75.9338 126.955 75.9409 126.907C75.9479 126.858 75.9452 126.809 75.9328 126.762C75.9205 126.715 75.8988 126.671 75.869 126.632C75.8392 126.594 75.802 126.562 75.7595 126.538L75.735 126.562ZM80.5289 129.013L78.877 128.175C78.8348 128.152 78.7883 128.137 78.7403 128.132C78.6923 128.128 78.6439 128.133 78.5979 128.147C78.552 128.162 78.5096 128.186 78.4733 128.218C78.4369 128.25 78.4075 128.288 78.3868 128.332C78.3626 128.374 78.3475 128.42 78.3423 128.469C78.3372 128.517 78.3422 128.566 78.3569 128.612C78.3717 128.658 78.3959 128.7 78.4281 128.737C78.4602 128.773 78.4996 128.802 78.5437 128.822C79.1025 129.102 79.6711 129.386 80.2298 129.655C80.2787 129.679 80.3325 129.691 80.3867 129.69C80.4676 129.693 80.5471 129.667 80.6113 129.618C80.6755 129.568 80.7205 129.498 80.7385 129.419C80.7565 129.34 80.7464 129.258 80.7099 129.185C80.6734 129.113 80.6129 129.056 80.5387 129.023L80.5289 129.013ZM85.4306 131.258L83.7199 130.498C83.6764 130.476 83.6288 130.463 83.5801 130.46C83.5314 130.457 83.4826 130.464 83.4367 130.481C83.3908 130.497 83.3487 130.523 83.3131 130.557C83.2775 130.59 83.2491 130.63 83.2297 130.675C83.1916 130.76 83.1887 130.857 83.2218 130.944C83.2549 131.031 83.3211 131.102 83.4062 131.141C83.9748 131.4 84.5532 131.655 85.1267 131.905C85.1718 131.924 85.22 131.934 85.2688 131.935C85.35 131.935 85.4288 131.907 85.4919 131.856C85.555 131.805 85.5986 131.734 85.6153 131.654C85.632 131.575 85.6208 131.492 85.5836 131.42C85.5463 131.348 85.4854 131.291 85.411 131.258H85.4306ZM90.4058 133.302L88.6657 132.616C88.5818 132.593 88.4923 132.601 88.4143 132.64C88.3363 132.678 88.2753 132.744 88.2431 132.825C88.2108 132.906 88.2097 132.996 88.2397 133.078C88.2698 133.16 88.329 133.227 88.4059 133.268C88.9892 133.503 89.5774 133.758 90.1558 133.959C90.1965 133.975 90.2397 133.983 90.2833 133.984C90.3649 133.982 90.4435 133.952 90.5056 133.899C90.5678 133.846 90.6096 133.774 90.6241 133.693C90.6385 133.613 90.6247 133.53 90.5849 133.459C90.5451 133.387 90.4818 133.332 90.4058 133.302ZM95.4693 135.136L93.6998 134.523C93.6552 134.502 93.6067 134.49 93.5574 134.489C93.508 134.488 93.459 134.497 93.4135 134.516C93.3679 134.535 93.3269 134.563 93.2929 134.599C93.259 134.635 93.2329 134.677 93.2164 134.724C93.1998 134.77 93.1932 134.82 93.197 134.869C93.2007 134.918 93.2148 134.966 93.2381 135.009C93.2615 135.053 93.2937 135.091 93.3327 135.121C93.3717 135.151 93.4166 135.173 93.4645 135.185C94.0527 135.395 94.6556 135.606 95.2389 135.802C95.2778 135.809 95.3176 135.809 95.3565 135.802C95.4397 135.801 95.5199 135.771 95.583 135.717C95.6461 135.663 95.6881 135.588 95.7016 135.506C95.715 135.424 95.6991 135.34 95.6566 135.269C95.6141 135.197 95.5478 135.143 95.4693 135.116V135.136ZM100.601 136.753C100.003 136.582 99.4054 136.4 98.8073 136.214C98.7629 136.2 98.7163 136.196 98.67 136.2C98.6238 136.205 98.5789 136.218 98.5379 136.24C98.4969 136.262 98.4607 136.292 98.4312 136.327C98.4017 136.363 98.3796 136.405 98.3662 136.449C98.3385 136.538 98.3472 136.635 98.3904 136.717C98.4335 136.8 98.5077 136.862 98.5966 136.89C99.1946 137.077 99.8024 137.258 100.4 137.434C100.435 137.439 100.469 137.439 100.503 137.434C100.586 137.43 100.666 137.397 100.727 137.341C100.789 137.285 100.829 137.209 100.84 137.127C100.852 137.045 100.834 136.961 100.791 136.89C100.747 136.819 100.68 136.765 100.601 136.738V136.753ZM105.797 138.155C105.194 138.008 104.586 137.851 103.984 137.694C103.893 137.671 103.796 137.685 103.715 137.731C103.634 137.778 103.574 137.854 103.547 137.944C103.536 137.989 103.533 138.036 103.539 138.082C103.546 138.128 103.561 138.173 103.585 138.213C103.609 138.253 103.64 138.288 103.677 138.316C103.715 138.344 103.757 138.364 103.802 138.376L105.626 138.841H105.709C105.796 138.843 105.88 138.812 105.946 138.755C106.012 138.698 106.054 138.619 106.065 138.533C106.076 138.446 106.055 138.359 106.005 138.288C105.956 138.216 105.882 138.165 105.797 138.145V138.155ZM111.047 139.326C110.434 139.204 109.817 139.076 109.214 138.944C109.122 138.925 109.026 138.942 108.948 138.993C108.869 139.044 108.814 139.125 108.795 139.216C108.775 139.308 108.793 139.403 108.844 139.482C108.895 139.561 108.975 139.616 109.067 139.635C109.674 139.768 110.292 139.895 110.91 140.018H110.978C111.06 140.018 111.139 139.99 111.201 139.938C111.264 139.886 111.307 139.813 111.321 139.733C111.333 139.688 111.336 139.641 111.329 139.594C111.322 139.548 111.306 139.503 111.282 139.463C111.258 139.423 111.226 139.388 111.188 139.36C111.15 139.333 111.107 139.313 111.062 139.302L111.047 139.326ZM116.346 140.263C115.733 140.17 115.11 140.072 114.498 139.964C114.452 139.956 114.405 139.957 114.36 139.968C114.315 139.978 114.272 139.997 114.234 140.024C114.197 140.051 114.164 140.085 114.14 140.124C114.115 140.163 114.099 140.207 114.091 140.253C114.082 140.299 114.083 140.346 114.093 140.391C114.103 140.437 114.123 140.479 114.15 140.517C114.176 140.555 114.211 140.588 114.25 140.612C114.29 140.636 114.334 140.653 114.38 140.66C114.993 140.768 115.62 140.866 116.238 140.964H116.292C116.385 140.971 116.478 140.94 116.549 140.879C116.62 140.818 116.664 140.731 116.672 140.638C116.679 140.544 116.648 140.451 116.587 140.38C116.526 140.309 116.439 140.265 116.346 140.258V140.263ZM121.693 140.92C121.071 140.851 120.448 140.782 119.836 140.704C119.743 140.692 119.649 140.718 119.575 140.775C119.501 140.833 119.453 140.917 119.441 141.01C119.429 141.103 119.455 141.197 119.513 141.271C119.57 141.345 119.655 141.393 119.747 141.405C120.365 141.483 120.992 141.557 121.615 141.62H121.654C121.701 141.623 121.747 141.616 121.791 141.601C121.835 141.586 121.875 141.562 121.91 141.531C121.944 141.5 121.972 141.463 121.992 141.421C122.012 141.379 122.024 141.334 122.027 141.287C122.029 141.241 122.023 141.194 122.007 141.151C121.992 141.107 121.968 141.066 121.937 141.032C121.906 140.997 121.869 140.969 121.827 140.949C121.785 140.929 121.74 140.917 121.693 140.915V140.92ZM127.051 141.375L125.183 141.243C125.09 141.236 124.997 141.266 124.926 141.327C124.855 141.388 124.811 141.475 124.804 141.569C124.796 141.663 124.827 141.755 124.888 141.826C124.949 141.898 125.036 141.942 125.13 141.949C125.752 141.998 126.384 142.042 127.007 142.081H127.031C127.125 142.081 127.215 142.044 127.281 141.978C127.347 141.912 127.384 141.822 127.384 141.728C127.384 141.635 127.347 141.545 127.281 141.479C127.215 141.413 127.125 141.375 127.031 141.375H127.051ZM137.805 141.537C137.188 141.537 136.56 141.571 135.933 141.581C135.84 141.584 135.752 141.623 135.688 141.69C135.624 141.757 135.588 141.846 135.59 141.939C136.423 141.851 137.256 141.753 138.08 141.645C138.043 141.611 138 141.585 137.952 141.57C137.905 141.555 137.855 141.55 137.805 141.557V141.537ZM132.413 141.581C131.791 141.581 131.159 141.557 130.541 141.537C130.447 141.537 130.358 141.574 130.291 141.641C130.225 141.707 130.188 141.796 130.188 141.89C130.188 141.984 130.225 142.073 130.291 142.14C130.358 142.206 130.447 142.243 130.541 142.243C130.918 142.243 131.301 142.268 131.683 142.272H132.413C132.494 142.273 132.572 142.245 132.634 142.194C132.674 142.161 132.706 142.12 132.729 142.073C132.752 142.027 132.765 141.976 132.766 141.924C132.758 141.839 132.72 141.759 132.658 141.7C132.595 141.64 132.514 141.605 132.428 141.601L132.413 141.581Z" fill="#3EA2B9"/>
<path d="M138.041 22.93C137.418 22.9545 136.781 22.9986 136.144 23.0574C136.058 23.071 135.98 23.1158 135.925 23.1834C135.87 23.2509 135.842 23.3364 135.846 23.4233C135.85 23.5103 135.887 23.5926 135.948 23.6544C136.009 23.7163 136.091 23.7533 136.178 23.7584H136.207C136.835 23.6996 137.457 23.6604 138.07 23.6358C138.116 23.6339 138.162 23.6229 138.204 23.6034C138.246 23.5838 138.284 23.5562 138.315 23.5221C138.347 23.4879 138.371 23.4479 138.387 23.4044C138.403 23.3608 138.41 23.3146 138.408 23.2682C138.406 23.2219 138.395 23.1764 138.376 23.1343C138.356 23.0922 138.329 23.0544 138.295 23.023C138.26 22.9916 138.22 22.9672 138.177 22.9512C138.133 22.9353 138.087 22.9281 138.041 22.93ZM143.506 23.1849C142.884 23.1016 142.246 23.0329 141.609 22.9839C141.515 22.9774 141.423 23.0084 141.352 23.07C141.282 23.1315 141.238 23.2187 141.232 23.3123C141.225 23.4059 141.256 23.4983 141.318 23.5691C141.379 23.6398 141.466 23.6833 141.56 23.6898C142.183 23.7339 142.805 23.8025 143.408 23.8858H143.457C143.545 23.8836 143.629 23.8488 143.692 23.7881C143.756 23.7274 143.794 23.6452 143.8 23.5576C143.806 23.4701 143.78 23.3833 143.725 23.3144C143.671 23.2455 143.593 23.1993 143.506 23.1849ZM133.026 23.827C133.009 23.7356 132.957 23.6545 132.881 23.6013C132.805 23.548 132.711 23.527 132.619 23.5427C132.007 23.6505 131.379 23.778 130.757 23.9201C130.673 23.9403 130.6 23.9903 130.55 24.0607C130.501 24.1312 130.479 24.2173 130.489 24.3028C130.498 24.3883 130.539 24.4674 130.603 24.5251C130.666 24.5828 130.749 24.6152 130.835 24.6162C130.861 24.621 130.888 24.621 130.914 24.6162C131.526 24.4789 132.144 24.3564 132.742 24.2437C132.788 24.2361 132.833 24.2191 132.873 24.1938C132.913 24.1684 132.947 24.1353 132.973 24.0963C133 24.0574 133.018 24.0134 133.027 23.9671C133.037 23.9208 133.036 23.8731 133.026 23.827ZM148.824 24.4936C148.231 24.278 147.619 24.0819 147.006 23.9103C146.916 23.8861 146.819 23.8981 146.738 23.9439C146.656 23.9898 146.596 24.0657 146.57 24.1554C146.545 24.2457 146.557 24.342 146.603 24.4235C146.649 24.5051 146.725 24.5654 146.815 24.5917C147.413 24.7583 148.006 24.9495 148.584 25.1554C148.623 25.1622 148.663 25.1622 148.702 25.1554C148.786 25.157 148.868 25.1286 148.933 25.0753C148.997 25.022 149.041 24.9472 149.056 24.8646C149.071 24.7819 149.056 24.6966 149.013 24.6241C148.971 24.5517 148.904 24.4967 148.824 24.4691V24.4936ZM127.747 25.0622C127.734 25.0178 127.712 24.9764 127.682 24.9405C127.653 24.9046 127.616 24.8749 127.575 24.853C127.534 24.8312 127.489 24.8176 127.443 24.8131C127.397 24.8087 127.35 24.8134 127.306 24.827C126.713 25.0034 126.105 25.1995 125.502 25.4005C125.414 25.4307 125.341 25.4943 125.299 25.5776C125.256 25.6609 125.249 25.7574 125.277 25.8465C125.302 25.9163 125.347 25.9768 125.408 26.0197C125.468 26.0627 125.541 26.086 125.615 26.0867H125.728C126.321 25.8857 126.924 25.6946 127.507 25.5181C127.554 25.5057 127.598 25.4839 127.637 25.4541C127.675 25.4242 127.707 25.3869 127.731 25.3443C127.755 25.3018 127.77 25.2549 127.775 25.2064C127.78 25.1579 127.776 25.1089 127.762 25.0622H127.747ZM153.726 26.9543C153.197 26.6063 152.643 26.273 152.089 25.974C152.008 25.9408 151.917 25.9387 151.834 25.9679C151.752 25.9971 151.683 26.0557 151.64 26.1325C151.598 26.2093 151.585 26.299 151.605 26.3846C151.624 26.4701 151.674 26.5455 151.746 26.5965C152.29 26.8906 152.824 27.2141 153.334 27.5768C153.392 27.6154 153.46 27.6358 153.53 27.6356C153.606 27.634 153.679 27.6085 153.739 27.5628C153.799 27.517 153.843 27.4534 153.865 27.381C153.887 27.3085 153.885 27.2311 153.86 27.1597C153.835 27.0884 153.788 27.0268 153.726 26.9837V26.9543ZM122.644 26.8269C122.608 26.7404 122.54 26.6715 122.454 26.6348C122.368 26.5981 122.271 26.5967 122.184 26.6308C121.61 26.8612 121.022 27.121 120.439 27.3611C120.364 27.3936 120.303 27.4507 120.266 27.5229C120.229 27.595 120.218 27.6778 120.234 27.7572C120.251 27.8367 120.295 27.908 120.358 27.959C120.421 28.0101 120.5 28.0378 120.581 28.0376C120.628 28.0372 120.675 28.0272 120.718 28.0082C121.296 27.7582 121.88 27.518 122.448 27.2876C122.492 27.2704 122.531 27.2447 122.564 27.2122C122.597 27.1797 122.624 27.1409 122.642 27.098C122.66 27.0552 122.67 27.0092 122.67 26.9627C122.671 26.9161 122.662 26.87 122.644 26.8269ZM117.689 29.0081C117.669 28.9636 117.64 28.9238 117.604 28.8911C117.568 28.8585 117.526 28.8337 117.48 28.8185C117.433 28.8032 117.384 28.7978 117.336 28.8026C117.288 28.8074 117.241 28.8223 117.199 28.8464C116.64 29.116 116.071 29.4052 115.507 29.6944C115.437 29.7306 115.381 29.7895 115.348 29.8614C115.315 29.9334 115.308 30.0144 115.326 30.0913C115.345 30.1682 115.389 30.2366 115.451 30.2855C115.513 30.3344 115.59 30.361 115.669 30.361C115.726 30.3627 115.782 30.3492 115.831 30.3218C116.39 30.0326 116.953 29.7483 117.507 29.4787C117.551 29.4606 117.59 29.4339 117.623 29.4002C117.656 29.3664 117.682 29.3263 117.699 29.2823C117.716 29.2383 117.724 29.1913 117.722 29.1442C117.72 29.097 117.709 29.0507 117.689 29.0081ZM157.966 30.4002C157.476 29.9689 157.02 29.5424 156.554 29.1405C156.519 29.1083 156.478 29.0833 156.434 29.067C156.389 29.0507 156.341 29.0434 156.294 29.0454C156.246 29.0475 156.199 29.0589 156.156 29.079C156.113 29.099 156.074 29.1274 156.042 29.1625C156.01 29.1976 155.985 29.2387 155.969 29.2834C155.952 29.3281 155.945 29.3756 155.947 29.4232C155.949 29.4708 155.961 29.5175 155.981 29.5606C156.001 29.6038 156.029 29.6426 156.064 29.6748C156.525 30.0767 156.996 30.4933 157.466 30.9198C157.529 30.9806 157.614 31.014 157.701 31.0129C157.773 31.0132 157.842 30.9919 157.901 30.9519C157.96 30.9119 158.005 30.8551 158.031 30.7888C158.057 30.7225 158.063 30.65 158.047 30.5806C158.031 30.5113 157.994 30.4484 157.942 30.4002H157.966ZM112.87 31.5178C112.848 31.4759 112.817 31.439 112.78 31.4092C112.743 31.3795 112.7 31.3576 112.654 31.3448C112.609 31.3319 112.561 31.3285 112.514 31.3347C112.467 31.3408 112.421 31.3564 112.38 31.3805L110.768 32.3266C110.701 32.3658 110.649 32.4257 110.62 32.4971C110.591 32.5686 110.586 32.6476 110.606 32.7221C110.626 32.7966 110.67 32.8625 110.731 32.9097C110.792 32.9569 110.867 32.9828 110.944 32.9834C111.007 32.9833 111.069 32.9682 111.125 32.9393C111.669 32.6158 112.214 32.3021 112.748 31.9982C112.789 31.9766 112.826 31.9469 112.856 31.9108C112.885 31.8747 112.908 31.833 112.921 31.7882C112.934 31.7433 112.938 31.6963 112.933 31.6498C112.928 31.6034 112.913 31.5585 112.89 31.5178H112.87ZM161.838 34.1843C161.348 33.6942 160.922 33.2579 160.51 32.8462C160.444 32.7827 160.356 32.7472 160.265 32.7472C160.174 32.7472 160.086 32.7827 160.02 32.8462C159.956 32.912 159.921 32.9998 159.921 33.0912C159.921 33.1827 159.956 33.2705 160.02 33.3363C160.432 33.7383 160.868 34.1745 161.348 34.6647C161.38 34.6993 161.419 34.7267 161.462 34.7453C161.505 34.7639 161.551 34.7732 161.598 34.7725C161.668 34.7727 161.737 34.7521 161.795 34.7133C161.853 34.6746 161.898 34.6194 161.925 34.5548C161.952 34.4902 161.959 34.4191 161.945 34.3505C161.932 34.2819 161.898 34.219 161.848 34.1696L161.838 34.1843ZM108.179 34.2137C108.157 34.1715 108.127 34.1341 108.09 34.1038C108.053 34.0735 108.011 34.0508 107.965 34.0371C107.92 34.0234 107.872 34.0189 107.824 34.024C107.777 34.0291 107.731 34.0436 107.689 34.0667C107.135 34.3657 106.577 34.6549 106.028 34.9294C105.957 34.9656 105.901 35.0245 105.868 35.0965C105.835 35.1685 105.828 35.2494 105.846 35.3263C105.865 35.4032 105.909 35.4716 105.971 35.5205C106.033 35.5695 106.11 35.596 106.189 35.596C106.244 35.5964 106.297 35.5847 106.346 35.5617C106.9 35.2823 107.464 34.9931 108.027 34.6892C108.071 34.6703 108.11 34.6427 108.142 34.6082C108.175 34.5736 108.199 34.5329 108.216 34.4884C108.232 34.4439 108.238 34.3966 108.236 34.3494C108.233 34.3021 108.22 34.256 108.199 34.2137H108.179ZM103.317 36.5862C103.28 36.5006 103.211 36.4331 103.125 36.3982C103.039 36.3633 102.942 36.3639 102.856 36.3999C102.278 36.645 101.694 36.8901 101.121 37.0959C101.046 37.128 100.985 37.1845 100.947 37.2561C100.908 37.3277 100.896 37.4102 100.911 37.49C100.925 37.5698 100.967 37.6422 101.028 37.6953C101.09 37.7484 101.167 37.779 101.248 37.7822C101.29 37.7812 101.332 37.7729 101.371 37.7577C101.954 37.5371 102.547 37.2969 103.131 37.0518C103.175 37.0356 103.216 37.0105 103.251 36.978C103.286 36.9455 103.314 36.9064 103.333 36.8629C103.352 36.8194 103.362 36.7724 103.363 36.7249C103.364 36.6773 103.355 36.6302 103.337 36.5862H103.317ZM165.627 38.0567C165.24 37.6743 164.824 37.2528 164.309 36.7234C164.243 36.6599 164.155 36.6244 164.064 36.6244C163.972 36.6244 163.885 36.6599 163.819 36.7234C163.786 36.7554 163.76 36.7935 163.743 36.8356C163.725 36.8777 163.716 36.9228 163.716 36.9685C163.716 37.0141 163.725 37.0593 163.743 37.1014C163.76 37.1435 163.786 37.1816 163.819 37.2136C164.333 37.7479 164.755 38.1939 165.142 38.5567C165.209 38.6215 165.299 38.6583 165.392 38.6596C165.439 38.66 165.485 38.6511 165.528 38.6334C165.571 38.6157 165.609 38.5896 165.642 38.5567C165.678 38.5254 165.708 38.4872 165.728 38.4443C165.749 38.4013 165.761 38.3547 165.763 38.307C165.766 38.2594 165.758 38.2117 165.742 38.167C165.725 38.1223 165.7 38.0815 165.667 38.0469L165.627 38.0567ZM98.2583 38.4733C98.2322 38.3837 98.1716 38.3082 98.0898 38.2632C98.008 38.2182 97.9118 38.2074 97.8221 38.2331C97.2241 38.4096 96.6163 38.5714 96.0183 38.7233C95.9279 38.7465 95.8502 38.8041 95.8017 38.8837C95.7532 38.9634 95.7376 39.0588 95.7585 39.1498C95.7772 39.2267 95.8211 39.2951 95.8834 39.3439C95.9456 39.3928 96.0224 39.4194 96.1016 39.4194C96.1291 39.4244 96.1574 39.4244 96.1849 39.4194C96.7927 39.2723 97.4103 39.1105 98.0182 38.9292C98.0651 38.9171 98.1091 38.8953 98.1471 38.8652C98.1852 38.8351 98.2165 38.7973 98.2391 38.7544C98.2618 38.7115 98.2752 38.6643 98.2785 38.6159C98.2818 38.5675 98.2749 38.5189 98.2583 38.4733ZM92.989 39.6841C92.9745 39.5918 92.9241 39.5091 92.8488 39.454C92.7734 39.3989 92.6793 39.3759 92.5871 39.3899C91.9841 39.4782 91.3616 39.5615 90.7391 39.6252C90.6928 39.6275 90.6473 39.6388 90.6054 39.6587C90.5634 39.6785 90.5258 39.7064 90.4946 39.7407C90.4634 39.7751 90.4393 39.8153 90.4236 39.8589C90.408 39.9026 90.4011 39.949 90.4033 39.9953C90.4056 40.0417 90.417 40.0871 90.4368 40.1291C90.4566 40.171 90.4845 40.2087 90.5188 40.2398C90.5532 40.271 90.5934 40.2951 90.6371 40.3108C90.6807 40.3264 90.7271 40.3333 90.7734 40.3311H90.8126C91.445 40.2674 92.0773 40.184 92.6949 40.0909C92.7436 40.084 92.7903 40.0671 92.832 40.0412C92.8737 40.0152 92.9096 39.9808 92.9373 39.9402C92.965 39.8996 92.9839 39.8537 92.9928 39.8053C93.0017 39.757 93.0004 39.7073 92.989 39.6595V39.6841ZM87.2393 39.8752C86.6511 39.8752 86.0384 39.9095 85.3668 39.9193C85.2736 39.9219 85.1851 39.9607 85.1201 40.0275C85.0551 40.0944 85.0188 40.1839 85.0188 40.2772C85.0201 40.3699 85.0579 40.4584 85.1239 40.5236C85.1899 40.5887 85.279 40.6252 85.3717 40.6252C86.0531 40.6252 86.6707 40.6007 87.2638 40.5811C87.3101 40.5791 87.3557 40.5681 87.3977 40.5486C87.4398 40.5291 87.4776 40.5014 87.509 40.4673C87.5404 40.4332 87.5648 40.3932 87.5808 40.3496C87.5967 40.3061 87.604 40.2598 87.602 40.2134C87.6001 40.1671 87.589 40.1216 87.5695 40.0795C87.55 40.0374 87.5224 39.9996 87.4882 39.9682C87.4541 39.9368 87.4141 39.9124 87.3706 39.8965C87.327 39.8805 87.2807 39.8733 87.2344 39.8752H87.2393ZM81.8474 39.9291H79.9602C79.8671 39.9317 79.7785 39.9705 79.7135 40.0373C79.6485 40.1042 79.6122 40.1937 79.6122 40.287C79.6122 40.3331 79.6214 40.3787 79.6392 40.4213C79.657 40.4638 79.683 40.5024 79.7159 40.5348C79.7487 40.5672 79.7877 40.5927 79.8305 40.6099C79.8732 40.6271 79.919 40.6356 79.9651 40.635H81.8474C81.941 40.635 82.0308 40.5978 82.097 40.5316C82.1631 40.4654 82.2003 40.3757 82.2003 40.2821C82.2003 40.1885 82.1631 40.0987 82.097 40.0325C82.0308 39.9663 81.941 39.9291 81.8474 39.9291ZM76.4163 40.0027C75.7595 40.0321 75.1419 40.0713 74.5291 40.1203C74.4355 40.1236 74.3471 40.1639 74.2832 40.2323C74.2193 40.3008 74.1852 40.3919 74.1885 40.4855C74.1917 40.5791 74.232 40.6676 74.3005 40.7314C74.369 40.7953 74.4601 40.8294 74.5537 40.8262H74.5831C75.1909 40.7771 75.7987 40.7428 76.4506 40.7134C76.497 40.7112 76.5424 40.6998 76.5844 40.68C76.6263 40.6602 76.664 40.6323 76.6951 40.5979C76.7263 40.5635 76.7504 40.5234 76.7661 40.4797C76.7817 40.436 76.7886 40.3897 76.7864 40.3433C76.7841 40.297 76.7728 40.2515 76.753 40.2096C76.7331 40.1676 76.7052 40.13 76.6709 40.0988C76.6365 40.0676 76.5964 40.0435 76.5527 40.0279C76.509 40.0122 76.4627 40.0053 76.4163 40.0076V40.0027ZM71.3969 40.8262C71.3825 40.7339 71.332 40.6512 71.2567 40.5961C71.1814 40.541 71.0873 40.518 70.995 40.532C70.3676 40.6301 69.7402 40.7428 69.1275 40.8654C69.0816 40.8742 69.038 40.8919 68.9991 40.9177C68.9602 40.9434 68.9268 40.9767 68.9008 41.0154C68.8749 41.0541 68.8568 41.0977 68.8478 41.1434C68.8387 41.1892 68.8388 41.2363 68.8481 41.282C68.8649 41.362 68.9086 41.4339 68.9719 41.4856C69.0352 41.5373 69.1143 41.5658 69.1961 41.5663H69.2647C69.8725 41.4438 70.4901 41.3359 71.1028 41.2379C71.1516 41.2305 71.1983 41.213 71.2399 41.1865C71.2814 41.16 71.317 41.125 71.3442 41.0839C71.3715 41.0428 71.3898 40.9965 71.3981 40.9479C71.4063 40.8992 71.4042 40.8494 71.392 40.8016L71.3969 40.8262ZM169.652 41.6398C169.162 41.282 168.711 40.8997 168.211 40.4683C168.14 40.4066 168.047 40.3755 167.954 40.3819C167.86 40.3884 167.772 40.4318 167.711 40.5026C167.649 40.5735 167.618 40.666 167.624 40.7597C167.631 40.8535 167.674 40.9409 167.745 41.0026C168.235 41.4438 168.725 41.8359 169.216 42.2035C169.276 42.2508 169.35 42.2767 169.426 42.2771C169.501 42.2785 169.575 42.256 169.636 42.2129C169.697 42.1698 169.743 42.1083 169.767 42.0373C169.791 41.9664 169.792 41.8896 169.77 41.8181C169.747 41.7467 169.702 41.6842 169.642 41.6398H169.652ZM66.108 41.9633C66.0951 41.9191 66.0735 41.8778 66.0445 41.8419C66.0155 41.8061 65.9797 41.7763 65.9391 41.7544C65.8985 41.7326 65.854 41.719 65.8081 41.7144C65.7622 41.7099 65.7158 41.7145 65.6718 41.7281C65.0639 41.9094 64.4561 42.1104 63.8679 42.3212C63.789 42.3486 63.7224 42.4032 63.68 42.4751C63.6375 42.5471 63.6219 42.6318 63.6361 42.7141C63.6502 42.7965 63.693 42.8711 63.757 42.9248C63.821 42.9785 63.902 43.0078 63.9856 43.0074C64.0245 43.0145 64.0643 43.0145 64.1032 43.0074C64.6816 42.7966 65.2796 42.6055 65.8727 42.4241C65.9225 42.4116 65.9689 42.3882 66.0086 42.3557C66.0483 42.3231 66.0804 42.2822 66.1024 42.2358C66.1244 42.1894 66.1359 42.1388 66.136 42.0874C66.1361 42.0361 66.1249 41.9853 66.1031 41.9388L66.108 41.9633ZM174.25 44.2524C173.675 44.0361 173.113 43.7856 172.568 43.5025C172.527 43.4812 172.482 43.4683 172.436 43.4645C172.39 43.4606 172.343 43.4659 172.299 43.48C172.255 43.4941 172.214 43.5168 172.179 43.5467C172.143 43.5766 172.114 43.6132 172.093 43.6544C172.072 43.6956 172.059 43.7406 172.055 43.7868C172.051 43.833 172.056 43.8795 172.07 43.9236C172.084 43.9678 172.107 44.0087 172.137 44.0441C172.167 44.0795 172.204 44.1087 172.245 44.1299C172.814 44.4245 173.4 44.6864 174 44.9142C174.04 44.9211 174.082 44.9211 174.122 44.9142C174.207 44.9171 174.289 44.8896 174.355 44.8367C174.421 44.7838 174.466 44.709 174.481 44.6259C174.497 44.5428 174.482 44.457 174.439 44.384C174.397 44.3109 174.329 44.2556 174.25 44.2279V44.2524ZM61.0494 43.8603C61.0291 43.8164 61 43.7771 60.964 43.7447C60.928 43.7124 60.8858 43.6877 60.84 43.6721C60.7942 43.6565 60.7457 43.6504 60.6974 43.6541C60.6492 43.6578 60.6022 43.6713 60.5593 43.6936C59.9907 43.9681 59.4221 44.2622 58.8731 44.5662C58.8308 44.5882 58.7934 44.6186 58.7631 44.6555C58.7329 44.6924 58.7105 44.735 58.6972 44.7809C58.6839 44.8267 58.68 44.8747 58.6858 44.922C58.6916 44.9694 58.707 45.0151 58.7309 45.0563C58.7631 45.1111 58.8089 45.1566 58.8639 45.1883C58.9189 45.2201 58.9811 45.2371 59.0446 45.2377C59.103 45.237 59.1602 45.2218 59.2113 45.1936C59.7505 44.8946 60.3044 44.6054 60.8681 44.3407C60.9153 44.3221 60.958 44.2935 60.9932 44.257C61.0284 44.2204 61.0553 44.1766 61.072 44.1287C61.0888 44.0808 61.095 44.0298 61.0903 43.9792C61.0855 43.9287 61.0699 43.8798 61.0445 43.8358L61.0494 43.8603ZM179.441 45.3308L178.161 45.1936L177.583 45.1152C177.49 45.1015 177.395 45.1253 177.32 45.1814C177.244 45.2375 177.194 45.3212 177.181 45.4142C177.167 45.5071 177.191 45.6017 177.247 45.677C177.303 45.7524 177.387 45.8024 177.48 45.8161L178.078 45.8945C178.519 45.9435 178.95 45.9926 179.367 46.0318H179.392C179.485 46.037 179.577 46.0048 179.647 45.9423C179.717 45.8798 179.759 45.7921 179.764 45.6985C179.769 45.6049 179.737 45.513 179.675 45.4432C179.612 45.3733 179.524 45.3311 179.431 45.3259L179.441 45.3308ZM184.832 45.7671L182.96 45.6347C182.866 45.6276 182.774 45.6579 182.702 45.719C182.631 45.7802 182.587 45.8671 182.58 45.9607C182.573 46.0543 182.603 46.1469 182.664 46.2181C182.726 46.2894 182.812 46.3334 182.906 46.3406C183.48 46.3847 184.078 46.4239 184.788 46.468C184.878 46.467 184.965 46.4321 185.03 46.3704C185.095 46.3086 185.135 46.2245 185.141 46.1347C185.147 46.0868 185.144 46.0381 185.13 45.9917C185.117 45.9453 185.094 45.9022 185.063 45.865C185.032 45.8278 184.994 45.7973 184.951 45.7754C184.908 45.7535 184.861 45.7406 184.813 45.7377L184.832 45.7671ZM56.3585 46.5219C56.3321 46.4839 56.2984 46.4515 56.2593 46.4267C56.2202 46.4018 56.1766 46.385 56.1309 46.3773C56.0853 46.3695 56.0385 46.3709 55.9934 46.3815C55.9483 46.392 55.9058 46.4114 55.8683 46.4386C55.3782 46.8013 54.8439 47.1886 54.3488 47.5807C54.2927 47.6276 54.2523 47.6906 54.2331 47.7612C54.2138 47.8318 54.2167 47.9065 54.2413 47.9754C54.2658 48.0443 54.3109 48.104 54.3705 48.1465C54.43 48.189 54.5011 48.2122 54.5743 48.213C54.6545 48.2124 54.7322 48.1847 54.7948 48.1346C55.285 47.7474 55.7752 47.3699 56.2654 47.0121C56.3427 46.9594 56.3959 46.8782 56.4134 46.7863C56.4309 46.6944 56.4111 46.5993 56.3585 46.5219ZM52.1969 49.9531C52.1311 49.8896 52.0433 49.8542 51.9519 49.8542C51.8604 49.8542 51.7726 49.8896 51.7068 49.9531C51.2607 50.3992 50.8245 50.8698 50.4078 51.3452C50.3481 51.4148 50.3178 51.5048 50.3233 51.5963C50.3288 51.6877 50.3696 51.7735 50.4372 51.8354C50.5026 51.8919 50.5861 51.9232 50.6725 51.9236C50.7225 51.9242 50.772 51.914 50.8177 51.8937C50.8633 51.8734 50.9041 51.8435 50.9372 51.806C51.3489 51.3403 51.7754 50.8845 52.2067 50.4433C52.264 50.3765 52.2943 50.2907 52.2915 50.2027C52.2888 50.1148 52.2533 50.031 52.192 49.9678L52.1969 49.9531ZM48.6873 54.0657C48.6106 54.0126 48.5159 53.992 48.424 54.0086C48.3321 54.0251 48.2506 54.0774 48.1971 54.1539C47.8393 54.6441 47.4864 55.2029 47.1482 55.7421C47.0991 55.8228 47.084 55.9196 47.106 56.0114C47.1281 56.1032 47.1855 56.1826 47.2658 56.2322C47.3221 56.2663 47.3863 56.2849 47.4521 56.2862C47.5121 56.2865 47.5711 56.2713 47.6235 56.2421C47.6759 56.2129 47.7198 56.1707 47.7511 56.1195C48.0795 55.5901 48.4226 55.0705 48.7755 54.5657C48.8254 54.4883 48.8435 54.3947 48.8262 54.3044C48.8088 54.214 48.7574 54.1338 48.6824 54.0804L48.6873 54.0657ZM45.8982 58.7027C45.8558 58.6794 45.809 58.6651 45.7608 58.6607C45.7126 58.6563 45.664 58.6618 45.618 58.677C45.572 58.6922 45.5297 58.7167 45.4935 58.7489C45.4574 58.7812 45.4283 58.8205 45.4081 58.8645C45.1336 59.4331 44.8689 60.0164 44.6238 60.5997C44.5878 60.6855 44.5872 60.7821 44.6221 60.8684C44.657 60.9547 44.7245 61.0237 44.8101 61.0604C44.8533 61.0794 44.9 61.0895 44.9473 61.0898C45.017 61.0892 45.085 61.0686 45.1432 61.0303C45.2015 60.9921 45.2475 60.9379 45.2757 60.8742C45.5159 60.3007 45.7659 59.7272 46.0453 59.1733C46.0822 59.0921 46.0871 59 46.0589 58.9155C46.0307 58.8309 45.9715 58.7602 45.8933 58.7174L45.8982 58.7027ZM43.864 63.7122C43.7737 63.6846 43.6761 63.6939 43.5925 63.738C43.5089 63.782 43.4462 63.8574 43.418 63.9475C43.2317 64.5455 43.0601 65.1632 42.8984 65.7759C42.876 65.8668 42.8901 65.9629 42.9377 66.0436C42.9854 66.1243 43.0628 66.183 43.1533 66.2072H43.2415C43.3196 66.2059 43.3951 66.1794 43.4569 66.1317C43.5188 66.0841 43.5635 66.0177 43.5846 65.9425C43.7366 65.3396 43.9081 64.7367 44.0748 64.1485C44.0964 64.064 44.0864 63.9746 44.0467 63.8969C44.007 63.8193 43.9403 63.7589 43.8591 63.727L43.864 63.7122ZM42.5798 68.9718C42.534 68.9634 42.487 68.9642 42.4416 68.9743C42.3961 68.9844 42.3532 69.0035 42.3153 69.0304C42.2773 69.0574 42.2452 69.0917 42.2207 69.1313C42.1963 69.1709 42.18 69.215 42.1729 69.261C42.0749 69.8884 41.9916 70.5207 41.923 71.1481C41.9175 71.1939 41.9212 71.2403 41.9338 71.2846C41.9464 71.3289 41.9677 71.3703 41.9964 71.4063C42.0252 71.4423 42.0608 71.4723 42.1012 71.4944C42.1415 71.5166 42.1859 71.5305 42.2318 71.5354H42.271C42.3586 71.5347 42.443 71.5019 42.508 71.4432C42.5731 71.3844 42.6143 71.3039 42.6239 71.2168C42.6876 70.6041 42.7709 69.9815 42.869 69.3688C42.8789 69.2794 42.8537 69.1897 42.7989 69.1184C42.7441 69.0472 42.6638 68.9999 42.5749 68.9865L42.5798 68.9718ZM42.4082 75.1577V74.746C42.4095 74.6995 42.4015 74.6532 42.3846 74.6098C42.3677 74.5664 42.3423 74.5269 42.3098 74.4936C42.2774 74.4602 42.2386 74.4337 42.1957 74.4156C42.1528 74.3975 42.1067 74.3882 42.0602 74.3882C41.9674 74.3882 41.8784 74.4247 41.8124 74.4898C41.7463 74.5549 41.7086 74.6435 41.7073 74.7362V75.1872C41.7073 75.6773 41.7073 76.1675 41.7073 76.6332C41.7098 76.7251 41.7481 76.8123 41.814 76.8764C41.88 76.9405 41.9683 76.9763 42.0602 76.9763C42.1066 76.975 42.1522 76.9646 42.1945 76.9457C42.2369 76.9268 42.2751 76.8997 42.3069 76.866C42.3388 76.8323 42.3637 76.7927 42.3802 76.7494C42.3968 76.7061 42.4046 76.6599 42.4033 76.6136C42.4082 76.1185 42.4033 75.6381 42.4033 75.1725L42.4082 75.1577ZM42.8151 81.9564C42.7415 81.329 42.6827 80.7016 42.6288 80.0889C42.6203 79.9953 42.5751 79.9089 42.5029 79.8486C42.4307 79.7884 42.3376 79.7594 42.244 79.7678C42.1504 79.7763 42.064 79.8215 42.0038 79.8937C41.9436 79.9659 41.9145 80.059 41.923 80.1526C41.9769 80.7702 42.0406 81.4025 42.1141 82.0348C42.1227 82.1211 42.1631 82.201 42.2274 82.2591C42.2918 82.3171 42.3755 82.349 42.4621 82.3486H42.5014C42.5915 82.3375 42.6739 82.2921 42.7314 82.2218C42.7889 82.1515 42.8171 82.0617 42.8102 81.9711L42.8151 81.9564ZM43.614 87.2993C43.5013 86.6866 43.3886 86.0641 43.2905 85.4513C43.2719 85.3624 43.2198 85.2841 43.1449 85.2327C43.0701 85.1813 42.9783 85.1607 42.8886 85.1752C42.799 85.1897 42.7184 85.2382 42.6636 85.3107C42.6088 85.3831 42.5841 85.4739 42.5945 85.5641C42.6925 86.1817 42.8053 86.8091 42.918 87.4316C42.9346 87.5121 42.9782 87.5846 43.0414 87.6372C43.1046 87.6897 43.1838 87.7192 43.266 87.7208H43.3297C43.3765 87.7127 43.4211 87.6951 43.461 87.6693C43.5008 87.6435 43.535 87.6099 43.5615 87.5705C43.5881 87.5312 43.6064 87.4869 43.6154 87.4403C43.6245 87.3937 43.624 87.3457 43.614 87.2993ZM44.7856 92.5637C44.6287 91.9608 44.4767 91.3481 44.3346 90.7403C44.3096 90.6531 44.252 90.5789 44.1738 90.533C44.0955 90.4872 44.0026 90.4732 43.9144 90.494C43.8261 90.5148 43.7492 90.5688 43.6997 90.6448C43.6502 90.7208 43.6318 90.8129 43.6484 90.902C43.7905 91.5099 43.9425 92.1324 44.0993 92.7402C44.1181 92.8166 44.1623 92.8844 44.2246 92.9325C44.287 92.9805 44.3637 93.0061 44.4424 93.0049H44.5307C44.5765 92.9929 44.6196 92.972 44.6573 92.9433C44.695 92.9146 44.7266 92.8787 44.7504 92.8376C44.7741 92.7966 44.7894 92.7512 44.7954 92.7042C44.8015 92.6572 44.7981 92.6094 44.7856 92.5637ZM46.3002 97.7399C46.1041 97.1468 45.9179 96.5488 45.7316 95.9508C45.7187 95.9065 45.6971 95.8653 45.6681 95.8294C45.6391 95.7935 45.6033 95.7638 45.5627 95.7419C45.5221 95.72 45.4775 95.7064 45.4317 95.7019C45.3858 95.6974 45.3394 95.702 45.2953 95.7155C45.2504 95.7285 45.2085 95.7502 45.1721 95.7794C45.1357 95.8087 45.1054 95.8449 45.083 95.8859C45.0607 95.9269 45.0467 95.972 45.0419 96.0185C45.0371 96.065 45.0416 96.1119 45.0551 96.1567C45.2414 96.7596 45.4326 97.3674 45.6286 97.9605C45.6524 98.0311 45.698 98.0924 45.7587 98.1355C45.8195 98.1787 45.8924 98.2015 45.9669 98.2007C46.0027 98.2055 46.0389 98.2055 46.0747 98.2007C46.1205 98.1864 46.163 98.1629 46.1994 98.1317C46.2359 98.1004 46.2656 98.062 46.2867 98.0189C46.3078 97.9758 46.3199 97.9288 46.3222 97.8808C46.3245 97.8328 46.317 97.7849 46.3002 97.7399ZM48.1726 102.794C47.9374 102.225 47.6825 101.637 47.4815 101.049C47.4477 100.961 47.3804 100.89 47.2945 100.852C47.2085 100.814 47.1109 100.811 47.0232 100.845C46.9354 100.879 46.8647 100.946 46.8266 101.032C46.7884 101.118 46.786 101.216 46.8198 101.303C47.0452 101.892 47.2805 102.485 47.5207 103.063C47.5373 103.107 47.5627 103.147 47.5952 103.18C47.6277 103.214 47.6668 103.24 47.7099 103.258C47.753 103.276 47.7994 103.285 47.8461 103.284C47.8928 103.284 47.9388 103.273 47.9815 103.254C48.067 103.218 48.1349 103.149 48.1706 103.063C48.2063 102.977 48.207 102.88 48.1726 102.794ZM50.4176 107.695C50.1382 107.146 49.8588 106.583 49.5892 106.014C49.5698 105.972 49.5422 105.935 49.5083 105.904C49.4743 105.873 49.4345 105.849 49.3912 105.834C49.3479 105.818 49.3019 105.811 49.256 105.814C49.21 105.816 49.165 105.828 49.1236 105.847C49.0788 105.867 49.0384 105.895 49.0052 105.931C48.9719 105.967 48.9464 106.009 48.9303 106.055C48.9142 106.101 48.9078 106.15 48.9115 106.198C48.9152 106.247 48.929 106.294 48.952 106.338C49.2265 106.911 49.5059 107.48 49.7853 108.034C49.8148 108.092 49.8596 108.141 49.9148 108.175C49.9701 108.21 50.0338 108.229 50.099 108.23C50.1552 108.229 50.2105 108.215 50.2608 108.19C50.3051 108.169 50.3447 108.139 50.3769 108.102C50.4091 108.065 50.4334 108.021 50.4481 107.975C50.4628 107.928 50.4677 107.878 50.4624 107.829C50.4572 107.78 50.4419 107.733 50.4176 107.69V107.695ZM53.0645 112.376C52.7361 111.857 52.4126 111.318 52.0842 110.779C52.0617 110.737 52.031 110.7 51.9939 110.67C51.9568 110.64 51.9142 110.619 51.8684 110.606C51.8227 110.593 51.7748 110.59 51.7277 110.596C51.6806 110.602 51.6353 110.617 51.5943 110.642C51.5534 110.666 51.5178 110.698 51.4895 110.736C51.4613 110.774 51.4411 110.818 51.4301 110.864C51.4191 110.91 51.4175 110.958 51.4254 111.005C51.4334 111.052 51.4507 111.096 51.4764 111.136C51.795 111.68 52.1234 112.225 52.4567 112.754C52.4892 112.804 52.5336 112.844 52.5858 112.873C52.638 112.901 52.6964 112.916 52.7557 112.916C52.8218 112.917 52.8868 112.898 52.942 112.862C52.9827 112.838 53.0182 112.806 53.0465 112.769C53.0747 112.731 53.0952 112.688 53.1066 112.642C53.118 112.597 53.1202 112.549 53.1129 112.503C53.1057 112.456 53.0893 112.412 53.0645 112.372V112.376ZM56.1624 116.763C55.7801 116.273 55.3978 115.783 55.0301 115.293C54.9744 115.219 54.8923 115.17 54.8009 115.155C54.7095 115.14 54.6159 115.162 54.54 115.215C54.4657 115.27 54.4164 115.353 54.4027 115.445C54.3889 115.536 54.4118 115.63 54.4664 115.705C54.839 116.219 55.2262 116.724 55.6134 117.214C55.6467 117.257 55.6892 117.29 55.7376 117.313C55.7861 117.336 55.8392 117.348 55.8928 117.347C55.9708 117.346 56.0466 117.321 56.1085 117.273C56.1474 117.244 56.1798 117.207 56.2038 117.165C56.2277 117.123 56.2427 117.076 56.2478 117.028C56.2528 116.979 56.2479 116.931 56.2332 116.884C56.2185 116.838 56.1944 116.795 56.1624 116.759V116.763ZM59.7554 120.749L59.5985 120.597C59.2113 120.219 58.8241 119.822 58.4466 119.42C58.4174 119.377 58.3791 119.341 58.3344 119.315C58.2897 119.288 58.2397 119.272 58.1879 119.267C58.1362 119.262 58.084 119.269 58.0351 119.286C57.9861 119.304 57.9417 119.332 57.905 119.369C57.8682 119.405 57.84 119.45 57.8224 119.499C57.8048 119.548 57.7983 119.6 57.8032 119.652C57.8081 119.703 57.8244 119.753 57.8509 119.798C57.8774 119.843 57.9134 119.881 57.9565 119.91C58.3388 120.322 58.7358 120.724 59.128 121.111L59.2897 121.268C59.3555 121.332 59.4434 121.367 59.5348 121.367C59.6262 121.367 59.7141 121.332 59.7799 121.268C59.8151 121.233 59.8427 121.192 59.8607 121.145C59.8788 121.099 59.8869 121.05 59.8846 121C59.8823 120.951 59.8696 120.903 59.8473 120.858C59.825 120.814 59.7937 120.775 59.7554 120.744V120.749ZM63.9463 124.077C63.417 123.714 62.9023 123.351 62.4268 122.994C62.3521 122.937 62.2579 122.912 62.1651 122.925C62.0722 122.938 61.9883 122.987 61.9317 123.062C61.8752 123.137 61.8507 123.231 61.8635 123.324C61.8764 123.417 61.9256 123.501 62.0004 123.557C62.4905 123.92 63.0101 124.293 63.5493 124.66C63.6063 124.702 63.6749 124.724 63.7454 124.724C63.8217 124.725 63.8964 124.702 63.9582 124.657C64.0201 124.612 64.0657 124.549 64.0884 124.476C64.111 124.403 64.1094 124.325 64.0838 124.253C64.0582 124.181 64.01 124.119 63.9463 124.077ZM68.5442 126.886C67.9854 126.577 67.4364 126.263 66.9168 125.954C66.8768 125.929 66.8321 125.911 66.7853 125.903C66.7384 125.895 66.6905 125.897 66.6443 125.908C66.5981 125.919 66.5546 125.939 66.5164 125.967C66.4782 125.996 66.4461 126.031 66.422 126.072C66.3979 126.113 66.3823 126.158 66.3762 126.206C66.37 126.253 66.3734 126.3 66.3862 126.346C66.399 126.392 66.4209 126.435 66.4506 126.472C66.4803 126.509 66.5171 126.54 66.559 126.562C67.0834 126.871 67.6373 127.189 68.201 127.503C68.2536 127.532 68.3126 127.547 68.3726 127.547C68.4358 127.548 68.498 127.532 68.5525 127.5C68.607 127.468 68.6516 127.422 68.6814 127.366C68.7054 127.325 68.721 127.28 68.7271 127.233C68.7332 127.187 68.7297 127.139 68.7168 127.094C68.704 127.048 68.6821 127.006 68.6524 126.969C68.6227 126.933 68.5859 126.903 68.5442 126.881V126.886ZM73.3478 129.361C72.7743 129.086 72.2057 128.807 71.6616 128.528C71.6193 128.505 71.5729 128.491 71.5251 128.487C71.4772 128.482 71.429 128.487 71.3833 128.502C71.3375 128.517 71.2952 128.54 71.2588 128.572C71.2224 128.603 71.1927 128.641 71.1715 128.684C71.148 128.727 71.1335 128.773 71.1287 128.821C71.124 128.869 71.1291 128.918 71.1438 128.963C71.1585 129.009 71.1825 129.052 71.2142 129.088C71.2459 129.124 71.2848 129.154 71.3283 129.175C71.8773 129.454 72.4508 129.733 73.0243 130.013C73.0724 130.033 73.1239 130.045 73.1763 130.047C73.2435 130.047 73.3094 130.028 73.3665 129.993C73.4237 129.957 73.4698 129.906 73.4998 129.846C73.5234 129.804 73.5382 129.758 73.5433 129.71C73.5484 129.663 73.5437 129.614 73.5295 129.568C73.5152 129.522 73.4918 129.48 73.4606 129.443C73.4293 129.407 73.391 129.377 73.3478 129.356V129.361ZM78.2495 131.601L76.529 130.841C76.4851 130.82 76.4373 130.808 76.3886 130.805C76.3399 130.803 76.2911 130.811 76.2454 130.828C76.1996 130.845 76.1577 130.871 76.1223 130.904C76.0868 130.938 76.0584 130.978 76.0389 131.023C76.0201 131.065 76.01 131.111 76.009 131.157C76.0079 131.204 76.0161 131.25 76.0329 131.293C76.0498 131.336 76.075 131.376 76.1071 131.409C76.1393 131.443 76.1777 131.47 76.2202 131.488L77.9505 132.248C77.9935 132.269 78.0403 132.282 78.0882 132.285C78.1361 132.287 78.1841 132.28 78.2292 132.264C78.2743 132.247 78.3155 132.222 78.3504 132.189C78.3853 132.156 78.4131 132.116 78.4321 132.072C78.4511 132.028 78.461 131.981 78.461 131.933C78.4611 131.885 78.4514 131.837 78.4324 131.793C78.4135 131.749 78.3858 131.709 78.351 131.676C78.3162 131.643 78.275 131.618 78.2299 131.601H78.2495ZM83.2542 133.66L81.5092 132.964C81.4226 132.929 81.326 132.93 81.24 132.966C81.154 133.001 81.0852 133.069 81.0484 133.155C81.015 133.235 81.0126 133.324 81.0416 133.406C81.0706 133.487 81.1289 133.555 81.2053 133.596C81.8621 133.851 82.5189 134.086 83.166 134.341C83.2419 134.328 83.3114 134.29 83.3642 134.234C83.417 134.178 83.4503 134.106 83.4591 134.03C83.4679 133.953 83.4518 133.876 83.4131 133.809C83.3744 133.742 83.3152 133.69 83.2444 133.66H83.2542ZM88.3177 135.581L86.5531 134.929C86.4899 134.905 86.4212 134.9 86.3552 134.914C86.2892 134.929 86.2286 134.961 86.1807 135.009C86.1327 135.056 86.0993 135.116 86.0845 135.182C86.0697 135.248 86.0741 135.317 86.0972 135.38C86.1148 135.428 86.1423 135.471 86.1778 135.507C86.2132 135.544 86.2559 135.572 86.3031 135.591L88.0726 136.243C88.1118 136.258 88.1532 136.266 88.1951 136.267C88.286 136.265 88.373 136.23 88.4402 136.169C88.4795 136.131 88.5097 136.084 88.5284 136.032C88.5613 135.946 88.5598 135.851 88.5242 135.766C88.4886 135.681 88.4217 135.613 88.3373 135.576L88.3177 135.581ZM93.4252 137.38L91.6508 136.762C91.5624 136.732 91.4657 136.738 91.3814 136.779C91.2972 136.819 91.232 136.89 91.1999 136.978V137.027C92.0283 137.282 92.8567 137.517 93.6801 137.758C93.6914 137.676 93.6741 137.594 93.6311 137.524C93.5882 137.454 93.5224 137.402 93.4449 137.375L93.4252 137.38ZM96.778 138.498C96.7294 138.482 96.678 138.477 96.6273 138.483C96.5765 138.489 96.5277 138.506 96.4839 138.532C97.1162 138.699 97.7486 138.86 98.376 139.022L96.778 138.498Z" fill="#3EA2B9"/>
<path d="M61.8629 93.5003C75.1564 109.813 119.385 120.46 141.271 120.283C155.716 120.175 177.543 112.362 190.778 103.181C188.327 109.622 185.288 115.23 181.999 119.077C178.473 123.181 174.426 126.807 169.96 129.861C166.346 132.333 162.496 134.442 158.466 136.155C156.018 137.202 153.514 138.114 150.966 138.885C131.122 140.399 111.186 137.596 92.5281 130.67C85.8078 128.17 74.1466 123.445 69.49 120.122C68.9704 119.754 68.4655 119.376 67.9705 118.979L67.6764 118.744L67.3823 118.504L67.098 118.264C66.4411 117.71 65.8039 117.127 65.1863 116.529C54.6868 106.323 49.741 90.0103 49.9518 77.2805C50.1871 62.9185 57.7161 45.9684 83.1413 47.1448C106.405 48.2232 114.512 42.2088 121.286 36.4885C122.731 35.6105 124.073 34.573 125.286 33.3955C125.242 33.5573 121.438 42.7088 105.91 47.3752C97.1994 49.9976 90.6556 51.0466 84.0922 51.0368C79.1569 51.0199 74.321 52.4244 70.1626 55.0825C66.0042 57.7406 62.6992 61.5398 60.6424 66.0262C59.0347 69.5456 58.8141 73.0945 58.4464 77.908C58.2804 79.9946 58.3379 82.093 58.618 84.1674C59.015 87.0644 59.8974 90.8093 61.8727 93.4807" fill="#5CC7D8"/>
<path d="M78.2935 116.229C78.2935 116.229 103.317 129.587 124.806 131.175C124.806 131.175 102.062 134.66 78.2935 116.229Z" fill="#3EAAC7"/>
<path d="M175.47 125.626C173.714 127.146 171.872 128.564 169.956 129.876C157.211 133.425 148.123 131.964 148.123 131.964C157.334 131.351 167.201 128.587 175.47 125.626Z" fill="#3EAAC7"/>
<path d="M190.778 103.176C190.778 103.176 179.293 118.484 153.902 122.915C128.512 127.346 101.498 118.994 83.5187 110.597C65.6765 102.264 61.9512 93.6372 61.8826 93.5C75.176 109.813 119.404 120.459 141.29 120.283C155.696 120.175 177.524 112.362 190.778 103.176Z" fill="#3EAAC7"/>
<g style="mix-blend-mode:multiply" opacity="0.3">
<path d="M190.778 103.176C188.327 109.617 185.288 115.224 181.999 119.072C175.582 126.511 167.529 132.361 158.471 136.164C156.023 137.212 153.519 138.123 150.971 138.895C147.285 139.176 143.599 139.306 139.913 139.287C138.737 138.983 138.085 138.797 138.085 138.797C157.834 98.7987 142.295 40.8898 138.913 29.4884C145.408 29.1943 152.006 31.0374 155.873 36.3508C163.407 46.7081 167.637 51.654 178.94 52.1245C185.117 52.3794 190.165 52.5657 194.4 55.1832C199.346 67.3149 196.714 87.662 190.778 103.176Z" fill="#00AACF"/>
</g>
<g style="mix-blend-mode:screen" opacity="0.6">
<path d="M66.1618 94.4704C72.1162 99.8769 79.0882 104.043 86.6705 106.725C77.2543 87.8678 79.5974 67.2169 93.6996 54.144C93.6996 54.144 76.774 50.3501 67.5441 61.1094C64.755 64.3592 61.2159 74.1871 62.3286 86.6816C62.5929 89.6559 63.9602 92.4237 66.1618 94.441V94.4704Z" fill="#A0F0F0"/>
</g>
<g style="mix-blend-mode:screen" opacity="0.6">
<path d="M87.7883 70.335C87.7883 70.335 83.4993 91.3584 92.9939 108.715L106.885 112.107C106.885 112.107 93.2439 102.078 94.4693 71.2516L87.7883 70.335Z" fill="#A0F0F0"/>
</g>
<path d="M50.7703 129.592C46.4666 130.253 45.5941 131.131 44.9324 135.429C44.925 135.476 44.9015 135.517 44.866 135.548C44.8305 135.578 44.7854 135.595 44.7387 135.595C44.6921 135.595 44.647 135.578 44.6115 135.548C44.576 135.517 44.5525 135.476 44.5451 135.429C43.8834 131.131 43.006 130.253 38.7023 129.592C38.6562 129.584 38.6143 129.561 38.584 129.525C38.5537 129.49 38.5371 129.445 38.5371 129.398C38.5371 129.351 38.5537 129.306 38.584 129.271C38.6143 129.235 38.6562 129.212 38.7023 129.204C43.006 128.543 43.8834 127.665 44.5451 123.361C44.5525 123.315 44.576 123.273 44.6115 123.243C44.647 123.213 44.6921 123.196 44.7387 123.196C44.7854 123.196 44.8305 123.213 44.866 123.243C44.9015 123.273 44.925 123.315 44.9324 123.361C45.5941 127.665 46.4666 128.543 50.7703 129.204C50.8164 129.212 50.8583 129.235 50.8886 129.271C50.9188 129.306 50.9355 129.351 50.9355 129.398C50.9355 129.445 50.9188 129.49 50.8886 129.525C50.8583 129.561 50.8164 129.584 50.7703 129.592Z" fill="#D9FFFF"/>
<path d="M194.361 25.2829C190.058 25.9446 189.18 26.822 188.518 31.1258C188.511 31.1718 188.488 31.2137 188.452 31.244C188.417 31.2743 188.371 31.2909 188.325 31.2909C188.278 31.2909 188.233 31.2743 188.198 31.244C188.162 31.2137 188.139 31.1718 188.131 31.1258C187.469 26.822 186.592 25.9446 182.293 25.2829C182.243 25.2829 182.194 25.2628 182.158 25.2269C182.122 25.1911 182.102 25.1424 182.102 25.0917C182.102 25.041 182.122 24.9924 182.158 24.9566C182.194 24.9207 182.243 24.9006 182.293 24.9006C186.592 24.2339 187.469 23.3614 188.131 19.0577C188.139 19.0117 188.162 18.9697 188.198 18.9395C188.233 18.9092 188.278 18.8926 188.325 18.8926C188.371 18.8926 188.417 18.9092 188.452 18.9395C188.488 18.9697 188.511 19.0117 188.518 19.0577C189.18 23.3614 190.058 24.2339 194.361 24.9006C194.412 24.9006 194.461 24.9207 194.496 24.9566C194.532 24.9924 194.552 25.041 194.552 25.0917C194.552 25.1424 194.532 25.1911 194.496 25.2269C194.461 25.2628 194.412 25.2829 194.361 25.2829Z" fill="#D9FFFF"/>
<path d="M181.891 15.6069C179.538 15.9696 179.058 16.45 178.695 18.8028C178.69 18.8269 178.677 18.8484 178.658 18.8639C178.639 18.8794 178.615 18.8878 178.59 18.8878C178.565 18.8878 178.541 18.8794 178.522 18.8639C178.503 18.8484 178.49 18.8269 178.485 18.8028C178.127 16.45 177.646 15.9696 175.294 15.6069C175.27 15.6017 175.248 15.5884 175.233 15.5692C175.217 15.55 175.209 15.5261 175.209 15.5015C175.209 15.4769 175.217 15.453 175.233 15.4338C175.248 15.4146 175.27 15.4013 175.294 15.3961C177.646 15.0334 178.127 14.553 178.485 12.2051C178.49 12.181 178.503 12.1595 178.522 12.144C178.541 12.1285 178.565 12.1201 178.59 12.1201C178.615 12.1201 178.639 12.1285 178.658 12.144C178.677 12.1595 178.69 12.181 178.695 12.2051C179.058 14.553 179.538 15.0334 181.891 15.3961C181.915 15.4013 181.937 15.4146 181.952 15.4338C181.968 15.453 181.976 15.4769 181.976 15.5015C181.976 15.5261 181.968 15.55 181.952 15.5692C181.937 15.5884 181.915 15.6017 181.891 15.6069Z" fill="#D9FFFF"/>
<path d="M60.2799 138.527C57.927 138.89 57.4516 139.366 57.0888 141.718C57.0836 141.742 57.0703 141.764 57.0511 141.779C57.032 141.795 57.0081 141.803 56.9834 141.803C56.9588 141.803 56.9349 141.795 56.9158 141.779C56.8966 141.764 56.8833 141.742 56.8781 141.718C56.5153 139.366 56.035 138.89 53.6821 138.527C53.6581 138.522 53.6365 138.509 53.6211 138.49C53.6056 138.47 53.5972 138.447 53.5972 138.422C53.5972 138.397 53.6056 138.373 53.6211 138.354C53.6365 138.335 53.6581 138.322 53.6821 138.317C56.035 137.954 56.5153 137.473 56.8781 135.121C56.8833 135.097 56.8966 135.075 56.9158 135.06C56.9349 135.044 56.9588 135.036 56.9834 135.036C57.0081 135.036 57.032 135.044 57.0511 135.06C57.0703 135.075 57.0836 135.097 57.0888 135.121C57.4516 137.473 57.927 137.954 60.2799 138.317C60.3039 138.322 60.3255 138.335 60.3409 138.354C60.3564 138.373 60.3648 138.397 60.3648 138.422C60.3648 138.447 60.3564 138.47 60.3409 138.49C60.3255 138.509 60.3039 138.522 60.2799 138.527Z" fill="#D9FFFF"/>
</svg>
