<svg width="249" height="199" viewBox="0 0 249 199" fill="none" xmlns="http://www.w3.org/2000/svg">
<mask id="mask0_28_538" style="mask-type:luminance" maskUnits="userSpaceOnUse" x="0" y="0" width="249" height="199">
<path d="M248.75 0H0V199H248.75V0Z" fill="white"/>
</mask>
<g mask="url(#mask0_28_538)">
<g opacity="0.51">
<path d="M165.129 41.8936C165.129 41.8936 161.362 63.1726 169.676 62.6433C177.991 62.1139 176.76 54.2395 173.216 47.0108C169.671 39.7822 165.129 41.8936 165.129 41.8936Z" fill="#82D2E6"/>
<path d="M165.17 41.9241C165.172 41.9242 165.173 41.9238 165.175 41.9229C165.176 41.922 165.177 41.9207 165.178 41.9191C165.178 41.9191 165.178 41.9261 165.178 41.9291V41.9549V42.0077L165.17 42.1132L165.153 42.3231L165.12 42.743L165.058 43.5818C165.014 44.141 164.98 44.7002 164.94 45.2583C164.873 46.3757 164.811 47.4911 164.772 48.6065C164.733 49.7219 164.717 50.8343 164.73 51.9447C164.743 53.0552 164.791 54.1626 164.877 55.2641C164.919 55.8143 164.976 56.3635 165.053 56.9088C165.126 57.4541 165.23 57.9949 165.364 58.5287C165.496 59.0605 165.678 59.5788 165.906 60.0769C166.129 60.5726 166.432 61.0284 166.802 61.4261L166.944 61.5704L167.097 61.7027C167.2 61.7898 167.308 61.8705 167.42 61.9445C167.475 61.9833 167.535 62.0132 167.593 62.044C167.649 62.0808 167.708 62.1141 167.769 62.1435C167.889 62.2035 168.014 62.2551 168.141 62.2977C168.655 62.4715 169.2 62.5299 169.739 62.4689C170.84 62.3763 171.935 62.1146 172.877 61.5962C173.111 61.4692 173.335 61.3235 173.545 61.1604C173.754 61.0013 173.948 60.8234 174.125 60.6291C174.477 60.2458 174.761 59.8058 174.966 59.3277C175.381 58.3734 175.507 57.2988 175.463 56.2272C175.441 55.6875 175.383 55.1497 175.291 54.6173C175.204 54.082 175.084 53.5487 174.945 53.0203C174.658 51.959 174.313 50.914 173.912 49.8901C173.713 49.3747 173.5 48.8642 173.282 48.3558C173.173 48.1021 173.059 47.8493 172.945 47.5966L172.771 47.2195L172.592 46.8503C172.124 45.8696 171.54 44.9483 170.854 44.1061C170.507 43.6958 170.123 43.3193 169.705 42.9818C169.606 42.8952 169.493 42.8196 169.384 42.743C169.275 42.6664 169.161 42.5967 169.049 42.5241L168.964 42.4704L168.876 42.4226L168.7 42.3231C168.581 42.2624 168.46 42.2067 168.337 42.152C167.84 41.9422 167.313 41.8125 166.775 41.7679C166.503 41.7477 166.229 41.7503 165.957 41.7758C165.821 41.7898 165.685 41.8077 165.549 41.8336C165.482 41.8455 165.414 41.8614 165.35 41.8773C165.317 41.8863 165.284 41.8943 165.251 41.9042L165.201 41.9191L165.177 41.9271H165.167C165.168 41.9263 165.169 41.9253 165.17 41.9241ZM165.092 41.8634C165.1 41.8553 165.11 41.8486 165.12 41.8435L165.134 41.8365L165.159 41.8236L165.208 41.8007L165.307 41.7569C165.374 41.7301 165.441 41.7042 165.506 41.6813C165.642 41.6334 165.781 41.5932 165.921 41.5609C166.203 41.4958 166.491 41.4565 166.78 41.4435C167.072 41.4336 167.363 41.4476 167.653 41.4853L167.871 41.5191C167.943 41.5311 168.014 41.549 168.085 41.5639C168.23 41.5928 168.369 41.6385 168.511 41.6783C169.073 41.857 169.606 42.1168 170.093 42.4495C170.581 42.7771 171.032 43.156 171.439 43.5798C171.838 44.0035 172.207 44.4544 172.544 44.929C172.872 45.4049 173.175 45.8978 173.452 46.4056L173.657 46.7857L173.851 47.1658C173.977 47.4205 174.101 47.6762 174.222 47.9339C174.465 48.4473 174.69 48.9717 174.904 49.5C175.336 50.5616 175.688 51.6538 175.957 52.7676C176.237 53.894 176.389 55.0487 176.408 56.2093C176.408 56.5018 176.397 56.7954 176.375 57.0899C176.349 57.3884 176.311 57.6779 176.256 57.9695C176.149 58.5604 175.958 59.133 175.688 59.6699C175.551 59.9397 175.392 60.1976 175.213 60.4411C175.03 60.6811 174.827 60.9051 174.606 61.1107C174.387 61.3146 174.15 61.4984 173.898 61.6599C173.651 61.8218 173.391 61.9636 173.121 62.0838C172.59 62.3192 172.033 62.4935 171.463 62.6032C171.321 62.6291 171.181 62.6589 171.039 62.6778L170.827 62.7087L170.614 62.7335C170.33 62.7703 170.046 62.7912 169.762 62.8062C169.621 62.8151 169.473 62.8062 169.328 62.8121C169.184 62.8181 169.038 62.7952 168.892 62.7813L168.677 62.7475L168.569 62.7296C168.533 62.7226 168.497 62.7116 168.463 62.7037L168.25 62.6509C168.179 62.633 168.111 62.6042 168.042 62.5813C167.766 62.4842 167.501 62.3557 167.255 62.1982C167.136 62.1136 167.011 62.037 166.9 61.9405C166.845 61.8948 166.787 61.849 166.732 61.8022L166.574 61.651C166.163 61.2394 165.815 60.7701 165.539 60.258C165.26 59.7543 165.024 59.2277 164.834 58.6839C164.459 57.601 164.195 56.4829 164.047 55.3467C163.899 54.2189 163.83 53.0821 163.84 51.9447C163.84 50.8104 163.898 49.6791 163.994 48.5538C164.091 47.4284 164.227 46.3071 164.409 45.1937C164.495 44.6365 164.599 44.0823 164.707 43.529C164.762 43.2524 164.823 42.9768 164.884 42.7022C164.913 42.5639 164.947 42.4266 164.983 42.2903L165.034 42.0843L165.06 41.9848L165.073 41.9341L165.08 41.9082V41.8913C165.082 41.8816 165.085 41.8722 165.09 41.8634H165.092Z" fill="#64C6DF"/>
<path opacity="0.64" d="M171.455 49.5044C171.455 49.5044 175.577 51.4407 173.13 55.1341C170.683 58.8275 173.694 53.8933 171.455 49.5044Z" fill="white"/>
<path opacity="0.64" d="M166.756 48.3115C166.756 48.3115 164.054 58.5789 169.209 60.3958C174.364 62.2127 169.195 58.561 167.684 55.1024C166.174 51.6438 166.756 48.3115 166.756 48.3115Z" fill="white"/>
</g>
<mask id="mask1_28_538" style="mask-type:luminance" maskUnits="userSpaceOnUse" x="17" y="40" width="124" height="140">
<path d="M140.901 88.6354C141.445 79.7928 128.883 68.4369 128.883 68.4369L95.1521 45.3986C95.1521 45.3986 80.0092 37.8247 71.9686 41.548C63.928 45.2713 19.9849 99.2689 17.8705 151.217C17.8705 151.217 18.1968 154.187 20.5928 157.002L52.0457 178.487C55.5392 179.695 58.4247 178.918 58.4247 178.918C106.045 158.055 140.357 97.4779 140.901 88.6354Z" fill="white"/>
</mask>
<g mask="url(#mask1_28_538)">
<path d="M140.901 88.6354C141.445 79.7928 128.883 68.4369 128.883 68.4369L95.152 45.3986C95.152 45.3986 80.0091 37.8247 71.9685 41.548C63.9279 45.2713 19.9847 99.2689 17.8704 151.217C17.8704 151.217 18.1967 154.187 20.5927 157.002L52.0456 178.487C55.5391 179.695 58.4246 178.918 58.4246 178.918C106.045 158.055 140.357 97.4779 140.901 88.6354Z" fill="#4CAAD0"/>
<path d="M154.001 84.6118C154.001 84.6118 127.626 98.2741 124.929 86.6097C122.233 74.9454 110.568 66.4481 88.4824 65.5158C66.3964 64.5834 64.3288 44.9292 64.3288 44.9292L32.2579 87.958L112.388 128.007L154.001 84.6118Z" fill="#82D2E6"/>
<path d="M122.514 94.1594C117.698 87.7457 117.293 75.3171 96.7209 75.0863C76.1493 74.8555 73.8279 74.3898 70.0251 63.1463C66.2222 51.9028 66.2281 45.6074 66.2281 45.6074L29.0957 76.8136L7.87537 154.697L51.1201 189.379L105.003 147.777L141.069 90.2461C141.069 90.2461 125.522 98.1643 122.514 94.1594Z" fill="#64C6DF"/>
<path d="M59.7332 62.7159C60.3916 62.5894 60.8228 61.9532 60.6964 61.2948C60.57 60.6364 59.9338 60.2052 59.2754 60.3316C58.617 60.4581 58.1857 61.0943 58.3122 61.7527C58.4386 62.4111 59.0748 62.8423 59.7332 62.7159Z" fill="#82D2E6"/>
<path d="M54.2548 70.4854C54.4305 69.9723 54.157 69.4139 53.6438 69.2382C53.1307 69.0625 52.5723 69.3361 52.3966 69.8492C52.2209 70.3623 52.4945 70.9207 53.0076 71.0964C53.5207 71.2721 54.0791 70.9986 54.2548 70.4854Z" fill="#82D2E6"/>
<path d="M24.7558 145.708C26.0765 145.312 26.8264 143.921 26.4306 142.6C26.0349 141.279 24.6434 140.529 23.3227 140.925C22.0019 141.321 21.2521 142.712 21.6478 144.033C22.0436 145.354 23.435 146.104 24.7558 145.708Z" fill="#82D2E6"/>
<path d="M119.434 112.908C120.187 112.752 120.67 112.016 120.514 111.264C120.358 110.511 119.622 110.028 118.87 110.184C118.117 110.34 117.634 111.076 117.79 111.828C117.946 112.581 118.682 113.064 119.434 112.908Z" fill="#82D2E6"/>
<path d="M128.431 111.006C129.499 110.705 130.121 109.595 129.82 108.528C129.52 107.46 128.41 106.838 127.342 107.138C126.274 107.439 125.652 108.549 125.953 109.617C126.254 110.685 127.363 111.307 128.431 111.006Z" fill="#82D2E6"/>
<path d="M75.807 162.295C77.5747 160.928 77.8997 158.387 76.533 156.62C75.1663 154.852 72.6255 154.527 70.8578 155.894C69.0902 157.26 68.7651 159.801 70.1318 161.569C71.4985 163.336 74.0394 163.661 75.807 162.295Z" fill="#82D2E6"/>
<path d="M116.343 123.133C116.372 122.409 115.809 121.797 115.084 121.768C114.359 121.739 113.748 122.302 113.718 123.027C113.689 123.752 114.253 124.363 114.977 124.393C115.702 124.422 116.314 123.858 116.343 123.133Z" fill="#82D2E6"/>
<path d="M94.6903 153.31C94.7781 152.321 94.0474 151.448 93.0583 151.36C92.0692 151.272 91.1962 152.003 91.1085 152.992C91.0207 153.981 91.7514 154.854 92.7405 154.942C93.7296 155.03 94.6026 154.299 94.6903 153.31Z" fill="#82D2E6"/>
<path d="M62.5949 174.777C63.2157 174.122 63.188 173.088 62.5332 172.467C61.8784 171.846 60.8443 171.874 60.2235 172.529C59.6027 173.184 59.6303 174.218 60.2852 174.838C60.94 175.459 61.9741 175.432 62.5949 174.777Z" fill="#82D2E6"/>
<path d="M41.4515 154.387C41.8279 153.818 41.6715 153.051 41.1022 152.675C40.5329 152.299 39.7662 152.455 39.3898 153.024C39.0134 153.594 39.1698 154.36 39.7391 154.737C40.3085 155.113 41.0751 154.957 41.4515 154.387Z" fill="#82D2E6"/>
<path d="M49.4474 166.841C50.3954 166.546 50.9244 165.537 50.6289 164.589C50.3335 163.641 49.3254 163.112 48.3774 163.408C47.4294 163.703 46.9004 164.711 47.1959 165.659C47.4913 166.607 48.4993 167.136 49.4474 166.841Z" fill="#82D2E6"/>
<path d="M35.9341 106.322C37.1087 106.122 37.8991 105.008 37.6996 103.834C37.5001 102.659 36.3862 101.869 35.2117 102.068C34.0371 102.268 33.2467 103.382 33.4462 104.556C33.6457 105.731 34.7596 106.521 35.9341 106.322Z" fill="#82D2E6"/>
<path d="M108.006 133.118C108.383 133.058 108.64 132.704 108.58 132.328C108.52 131.951 108.166 131.694 107.79 131.754C107.413 131.814 107.156 132.168 107.216 132.544C107.276 132.921 107.629 133.178 108.006 133.118Z" fill="#82D2E6"/>
<path d="M102.329 139.228C102.554 138.348 102.024 137.452 101.144 137.227C100.264 137.002 99.3676 137.533 99.1423 138.413C98.917 139.292 99.4477 140.188 100.328 140.414C101.208 140.639 102.104 140.108 102.329 139.228Z" fill="#82D2E6"/>
<path d="M44.7993 91.394C46.0401 90.774 46.5433 89.2656 45.9234 88.0249C45.3034 86.7842 43.795 86.2809 42.5543 86.9009C41.3136 87.5209 40.8103 89.0292 41.4303 90.27C42.0502 91.5107 43.5586 92.0139 44.7993 91.394Z" fill="#82D2E6"/>
<path d="M68.1449 60.5892C68.6004 59.8205 68.3465 58.8281 67.5778 58.3726C66.8091 57.9171 65.8167 58.171 65.3612 58.9397C64.9056 59.7084 65.1595 60.7008 65.9282 61.1563C66.6969 61.6118 67.6893 61.3579 68.1449 60.5892Z" fill="#82D2E6"/>
<path d="M74.7504 60.8589C74.6381 61.0231 74.4797 61.1503 74.2951 61.2245C74.1106 61.2987 73.9082 61.3165 73.7135 61.2756C73.5188 61.2348 73.3407 61.1372 73.2015 60.9951C73.0623 60.853 72.9683 60.6729 72.9315 60.4774C72.8946 60.282 72.9166 60.08 72.9945 59.897C73.0724 59.714 73.2028 59.5582 73.3693 59.4493C73.5357 59.3404 73.7307 59.2833 73.9296 59.2852C74.1285 59.2871 74.3224 59.3479 74.4867 59.46C74.5959 59.5344 74.6894 59.6297 74.7618 59.7404C74.8342 59.851 74.8841 59.9749 74.9085 60.1048C74.933 60.2347 74.9317 60.3682 74.9045 60.4976C74.8774 60.627 74.825 60.7498 74.7504 60.8589Z" fill="#82D2E6"/>
<path d="M29.5584 114.724C29.3916 114.551 29.2798 114.333 29.237 114.097C29.1943 113.86 29.2226 113.617 29.3183 113.396C29.414 113.176 29.5729 112.989 29.7748 112.86C29.9767 112.73 30.2126 112.663 30.4527 112.667C30.6927 112.671 30.9261 112.746 31.1234 112.883C31.3207 113.02 31.473 113.212 31.561 113.435C31.649 113.659 31.6688 113.903 31.6178 114.138C31.5669 114.373 31.4475 114.587 31.2748 114.754C31.0431 114.977 30.7322 115.099 30.4104 115.094C30.0887 115.088 29.7822 114.955 29.5584 114.724Z" fill="#82D2E6"/>
<path d="M32.1533 122.037C32.5412 121.232 32.2031 120.265 31.3982 119.877C30.5933 119.489 29.6263 119.827 29.2384 120.632C28.8505 121.437 29.1885 122.404 29.9935 122.792C30.7984 123.18 31.7654 122.842 32.1533 122.037Z" fill="#82D2E6"/>
<path d="M27.9984 128.946C27.8604 128.802 27.7679 128.621 27.7327 128.426C27.6975 128.23 27.7211 128.028 27.8006 127.846C27.8801 127.663 28.0118 127.509 28.1792 127.401C28.3466 127.294 28.5421 127.238 28.741 127.242C28.9399 127.245 29.1333 127.308 29.2967 127.421C29.46 127.535 29.5861 127.694 29.6589 127.879C29.7317 128.065 29.748 128.267 29.7057 128.462C29.6634 128.656 29.5644 128.833 29.4212 128.972C29.3262 129.063 29.214 129.136 29.091 129.184C28.968 129.233 28.8366 129.256 28.7044 129.254C28.5723 129.251 28.4419 129.223 28.3207 129.17C28.1996 129.117 28.09 129.041 27.9984 128.946Z" fill="#82D2E6"/>
<path d="M13.5738 150.636C13.5738 150.636 38.9811 150.718 62.3009 183.921C85.6207 217.124 12.4514 159.293 12.4514 159.293L13.5738 150.636Z" fill="#82D2E6"/>
</g>
<path d="M163.943 32.3432C161.241 27.9652 149.8 23.4489 145.073 20.0241C140.346 16.5993 132.104 9.98655 130.484 10.0582C128.865 10.1298 128.982 12.2591 128.982 12.2591L132.595 14.7257L126.236 24.036L136.675 31.1671L140.382 25.4538L159.3 37.4167L162.299 43.3718L168.468 39.2296C168.468 39.2296 166.645 36.7212 163.943 32.3432Z" fill="white"/>
<path d="M139.507 33.103L124.094 22.5749C123.65 22.2734 123.105 22.1599 122.577 22.2592C122.049 22.3586 121.583 22.6628 121.279 23.1053L118.124 27.7221L136.883 40.5357L140.037 35.9189C140.339 35.4747 140.452 34.9292 140.353 34.4016C140.254 33.8739 139.949 33.4071 139.507 33.103Z" fill="#A5DFF9"/>
<path d="M127.69 62.3271L101.015 44.1057C100.472 43.732 100.098 43.1587 99.9766 42.511C99.8546 41.8632 99.9939 41.1935 100.364 40.648L110.494 25.8225C110.867 25.2792 111.441 24.9057 112.088 24.7838C112.736 24.6618 113.406 24.8013 113.952 25.1718L140.627 43.3932C141.171 43.7666 141.544 44.3397 141.666 44.9874C141.788 45.635 141.648 46.3046 141.278 46.8499L131.148 61.6754C130.775 62.2187 130.202 62.5922 129.554 62.7143C128.906 62.8364 128.236 62.6972 127.69 62.3271Z" fill="white"/>
<mask id="mask2_28_538" style="mask-type:luminance" maskUnits="userSpaceOnUse" x="30" y="64" width="92" height="101">
<path d="M111.341 87.2202C111.341 87.2202 121.508 96.0976 121.507 102.527C121.506 108.957 98.0504 151.561 62.519 164.549C62.519 164.549 60.3419 164.979 57.6067 163.933L32.476 146.768C30.5059 144.601 30.1158 142.417 30.1158 142.417C29.291 104.595 60.4454 67.2506 66.4333 64.9113C72.4212 62.5721 84.3911 68.8137 84.3911 68.8137L111.341 87.2202Z" fill="white"/>
</mask>
<g mask="url(#mask2_28_538)">
<path d="M111.34 87.2198C111.34 87.2198 121.507 96.0971 121.506 102.527C121.505 108.957 98.0502 151.56 62.5187 164.548C62.5187 164.548 60.3417 164.979 57.6064 163.932L32.4757 146.768C30.5056 144.6 30.1156 142.416 30.1156 142.416C29.2907 104.594 60.4452 67.2501 66.4331 64.9109C72.421 62.5716 84.3908 68.8132 84.3908 68.8132L111.34 87.2198Z" fill="white"/>
<path d="M91.4406 73.6293C91.4406 73.6293 96.5509 79.0531 95.1818 84.5485C93.8126 90.0438 68.5974 131.445 41.3722 150.105C41.3722 150.105 39.7802 150.937 38.1225 150.624L24.4771 141.303C23.5816 139.87 23.7806 138.086 23.7806 138.086C31.262 105.939 60.6573 67.3917 65.278 64.1181C69.8988 60.8446 76.8101 63.6316 76.8101 63.6316L91.4406 73.6293Z" fill="#E7F6FD"/>
</g>
<path d="M103.594 93.3691L103.851 93.6L104.102 93.8308C104.269 93.9851 104.433 94.1403 104.599 94.2975C104.926 94.6106 105.249 94.9293 105.568 95.2537C106.201 95.9034 106.826 96.5611 107.422 97.2437C108.616 98.6128 109.733 100.055 110.643 101.64C111.104 102.435 111.475 103.28 111.748 104.159L111.798 104.325L111.838 104.495L111.918 104.835L111.971 105.182L111.998 105.355C112.004 105.414 112.006 105.472 112.01 105.531L112.032 105.883L112.026 106.066C112.026 106.127 112.022 106.187 112.014 106.247C111.989 106.481 111.951 106.714 111.901 106.944C111.687 107.838 111.41 108.716 111.071 109.571C110.745 110.424 110.384 111.262 110.005 112.092C109.246 113.75 108.413 115.376 107.534 116.968C107.093 117.764 106.64 118.554 106.177 119.338C105.715 120.123 105.235 120.897 104.751 121.669C102.801 124.748 100.685 127.719 98.4146 130.57C96.1407 133.423 93.7095 136.147 91.1321 138.729C88.5548 141.312 85.8149 143.728 82.9294 145.962C80.0445 148.195 77.0033 150.218 73.8291 152.016C70.6606 153.816 67.3458 155.344 63.9199 156.584L63.897 156.592H63.8801C63.7806 156.61 63.696 156.62 63.6055 156.63C63.5149 156.64 63.4294 156.645 63.3408 156.651C63.1647 156.661 62.9896 156.666 62.8134 156.663C62.4636 156.659 62.1143 156.633 61.7677 156.584C61.4219 156.537 61.0793 156.469 60.7419 156.38C60.5717 156.341 60.4065 156.28 60.2394 156.236C60.0722 156.192 59.91 156.121 59.7419 156.064L59.717 156.055L59.6901 156.037C57.99 154.869 56.2862 153.706 54.5788 152.548C52.8714 151.39 51.1623 150.236 49.4516 149.087C47.7389 147.936 46.0232 146.79 44.3045 145.649C42.5891 144.503 40.8657 143.369 39.1464 142.229L39.1036 142.201L39.0708 142.163C38.9533 142.03 38.832 141.899 38.7185 141.765C38.6051 141.631 38.4927 141.489 38.3902 141.344C38.177 141.058 37.9813 140.759 37.8041 140.449C37.6259 140.137 37.4674 139.815 37.3295 139.483C37.2599 139.318 37.1972 139.148 37.1385 138.976C37.1106 138.888 37.0818 138.802 37.0569 138.712C37.0439 138.668 37.032 138.623 37.0201 138.576L37.0022 138.505C36.9972 138.479 36.9912 138.46 36.9852 138.425L36.9793 138.394V138.348C36.8554 134.69 37.0669 131.028 37.6111 127.408C38.1516 123.791 38.9635 120.219 40.0399 116.724C41.1108 113.232 42.3862 109.806 43.8597 106.464C44.5933 104.793 45.3701 103.141 46.19 101.509C47.0099 99.8774 47.8702 98.2682 48.771 96.6815C49.6745 95.0968 50.6161 93.5337 51.5958 91.9921C52.5756 90.4505 53.5944 88.9361 54.6525 87.4489C56.7798 84.4808 59.0364 81.6013 61.5488 78.9188C62.1776 78.2481 62.8224 77.5904 63.502 76.9576L63.7567 76.7208L64.0174 76.487C64.1895 76.3308 64.3696 76.1785 64.5487 76.0273C64.9143 75.7163 65.2959 75.4247 65.692 75.1537C65.9042 75.0087 66.1244 74.8758 66.3517 74.7557L66.4402 74.7089L66.5397 74.6651L66.7387 74.5786L67.1079 74.4582C67.1686 74.4383 67.2302 74.4174 67.2919 74.3995L67.478 74.3567C67.6014 74.3278 67.7258 74.299 67.8491 74.2721L68.2203 74.2174L68.4053 74.1895L68.5894 74.1746C69.5502 74.1021 70.5161 74.1409 71.468 74.29C73.3346 74.5746 75.1087 75.1208 76.83 75.7666C77.6917 76.091 78.5364 76.4472 79.3722 76.8233C79.7901 77.0123 80.2047 77.2074 80.616 77.4083C81.0289 77.6073 81.4329 77.8163 81.8448 78.0402L81.8776 78.0571L81.8936 78.069L87.2924 81.9406C89.0907 83.2314 90.893 84.515 92.6993 85.7912L95.4116 87.7036L98.131 89.6041L100.858 91.4946L103.594 93.3691ZM103.494 93.4975L100.749 91.6388L97.9967 89.7852L95.2365 87.9374L92.4684 86.1056C90.6217 84.8884 88.771 83.6769 86.9163 82.4709L81.3543 78.8561L81.403 78.8849C81.005 78.6959 80.5961 78.5098 80.1871 78.3317C79.7782 78.1536 79.3633 77.9825 78.9484 77.8143C78.1165 77.483 77.2778 77.1705 76.431 76.8919C75.5843 76.6133 74.7286 76.3666 73.8699 76.1556C73.0181 75.9441 72.1541 75.785 71.2829 75.679C70.4397 75.5727 69.5871 75.563 68.7417 75.6502L68.5874 75.6661L68.4382 75.693L68.1397 75.7437L67.8511 75.8173L67.7069 75.8542C67.6601 75.8691 67.6153 75.886 67.5686 75.9019L67.2939 76.0014L67.1835 76.0542L67.1278 76.08C67.1089 76.089 67.088 76.1029 67.0681 76.1139C66.8966 76.2105 66.7305 76.3165 66.5706 76.4313C66.2343 76.6671 65.8999 76.9447 65.5756 77.2273C65.4124 77.3715 65.2482 77.5138 65.088 77.6651L64.8462 77.8889L64.6074 78.1188C63.9736 78.7327 63.3567 79.3755 62.7537 80.0322C61.5478 81.3476 60.4006 82.7266 59.2902 84.1346C58.1797 85.5425 57.1081 86.9852 56.0723 88.4529C55.0365 89.9205 54.0336 91.413 53.0684 92.9304C52.1033 94.4477 51.165 95.98 50.2695 97.5382C49.374 99.0964 48.5083 100.672 47.6825 102.27C46.8566 103.868 46.0746 105.485 45.3343 107.122C43.8444 110.393 42.5487 113.748 41.4538 117.172C40.3604 120.591 39.502 124.082 38.8847 127.619C38.5822 129.387 38.35 131.166 38.1882 132.955C38.0263 134.745 37.9514 136.536 37.9633 138.328L37.9554 138.252L37.9633 138.295L37.9753 138.348C37.9822 138.384 37.9922 138.422 38.0011 138.459C38.019 138.533 38.0419 138.608 38.0628 138.683C38.1096 138.833 38.1623 138.982 38.217 139.132C38.3314 139.431 38.4644 139.722 38.615 140.005C38.7643 140.288 38.9304 140.563 39.1125 140.827C39.2001 140.961 39.3016 141.086 39.3981 141.216C39.4946 141.345 39.6041 141.463 39.7066 141.589L39.6309 141.522C41.3175 142.709 43.002 143.902 44.6935 145.083C46.385 146.264 48.0765 147.45 49.768 148.626C51.4595 149.803 53.16 150.976 54.8604 152.145C56.5609 153.314 58.2623 154.478 59.9687 155.637L59.918 155.61C60.0742 155.663 60.2274 155.723 60.3856 155.772C60.5439 155.82 60.7001 155.871 60.8613 155.906C61.1803 155.986 61.504 156.047 61.8304 156.089C62.1564 156.131 62.4847 156.152 62.8134 156.153C62.9776 156.153 63.1408 156.153 63.303 156.137C63.3836 156.131 63.4652 156.125 63.5448 156.115C63.6244 156.105 63.708 156.094 63.7736 156.082L63.7348 156.093C67.1093 154.817 70.3558 153.225 73.4311 151.339C76.5009 149.457 79.4314 147.356 82.2 145.053C84.9685 142.755 87.6117 140.31 90.1182 137.729C92.6306 135.154 95.0196 132.456 97.2952 129.67C99.5707 126.884 101.733 123.998 103.772 121.026C104.786 119.534 105.772 118.029 106.712 116.492C107.652 114.955 108.549 113.391 109.369 111.788C109.778 110.992 110.164 110.176 110.528 109.353C110.893 108.538 111.197 107.697 111.437 106.837C111.492 106.627 111.535 106.414 111.567 106.199C111.576 106.147 111.582 106.094 111.584 106.041L111.596 105.885L111.586 105.56C111.586 105.505 111.586 105.451 111.58 105.397L111.56 105.234L111.521 104.907L111.456 104.584L111.424 104.422L111.381 104.261C111.145 103.4 110.809 102.568 110.379 101.785C109.951 100.992 109.472 100.227 108.944 99.4964C108.42 98.762 107.86 98.0526 107.273 97.3671C106.686 96.6815 106.079 96.0119 105.444 95.3661C105.128 95.0437 104.807 94.7253 104.482 94.4109C104.319 94.2537 104.156 94.0985 103.99 93.9443L103.741 93.7144L103.494 93.4975Z" fill="#8CD1CB"/>
<path d="M132.596 14.7271L136.319 21.7189L132.032 27.9954L126.236 24.0363L132.596 14.7271Z" fill="#DCF2FD"/>
<path d="M140.381 25.4556C140.381 25.4556 149.814 27.164 153.475 28.9898C157.135 30.8156 161.634 34.5668 161.634 34.5668L165.177 41.4323L162.291 43.3695L159.299 37.4165L140.381 25.4556Z" fill="#DCF2FD"/>
<path d="M132.037 27.9968L127.585 34.515L118.132 27.7221L121.287 23.1053C121.287 23.1053 121.961 21.1153 124.102 22.575L132.037 27.9968Z" fill="#8CD1CB"/>
<path d="M127.58 34.5143L115.371 52.3875L100.633 43.8444C100.633 43.8444 98.6434 42.8783 100.104 41.0286C101.565 39.1789 110.751 25.4359 110.751 25.4359C110.751 25.4359 111.221 23.5982 113.566 24.9056C115.912 26.213 127.58 34.5143 127.58 34.5143Z" fill="#DCF2FD"/>
<path d="M114.683 25.716L113.318 24.7837L100.335 43.7876L101.7 44.7199L114.683 25.716Z" fill="#B1E3FA"/>
<path d="M118.102 27.3059L116.73 26.3804L103.841 45.4831L105.213 46.4086L118.102 27.3059Z" fill="#B1E3FA"/>
<path d="M120.572 29.7394L119.208 28.8071L106.225 47.811L107.589 48.7433L120.572 29.7394Z" fill="#B1E3FA"/>
<path d="M123.409 31.6769L122.044 30.7446L109.061 49.7485L110.426 50.6808L123.409 31.6769Z" fill="#B1E3FA"/>
<path d="M126.04 33.4723L124.675 32.54L111.692 51.5439L113.057 52.4762L126.04 33.4723Z" fill="#B1E3FA"/>
<path d="M128.876 35.4108L127.511 34.4785L114.528 53.4824L115.893 54.4147L128.876 35.4108Z" fill="#B1E3FA"/>
<path d="M131.928 37.4963L130.563 36.564L117.58 55.5678L118.945 56.5001L131.928 37.4963Z" fill="#DCF2FD"/>
<path d="M134.765 39.4342L133.4 38.502L120.417 57.5058L121.782 58.4381L134.765 39.4342Z" fill="#DCF2FD"/>
<path d="M137.598 41.3698L136.233 40.4375L123.25 59.4414L124.615 60.3737L137.598 41.3698Z" fill="#DCF2FD"/>
<path d="M140.436 43.3078L139.071 42.3755L126.088 61.3794L127.453 62.3117L140.436 43.3078Z" fill="#DCF2FD"/>
<path d="M85.2717 119.721L77.0241 114.087L82.6578 105.84C83.0249 105.299 83.163 104.635 83.0421 103.992C82.9211 103.35 82.5508 102.781 82.0121 102.411L80.5017 101.379C79.9607 101.012 79.2965 100.874 78.6541 100.995C78.0117 101.116 77.4432 101.486 77.0729 102.025L71.4412 110.272L63.1936 104.639C62.6529 104.272 61.9888 104.134 61.3466 104.255C60.7043 104.376 60.136 104.746 59.7659 105.285L58.734 106.795C58.367 107.336 58.2289 108 58.3499 108.642C58.4709 109.284 58.8412 109.853 59.3798 110.223L67.6274 115.856L61.9937 124.104C61.6266 124.645 61.4884 125.309 61.6094 125.952C61.7304 126.594 62.1007 127.162 62.6394 127.533L64.1488 128.565C64.6898 128.932 65.354 129.07 65.9964 128.949C66.6388 128.828 67.2073 128.457 67.5776 127.919L73.2113 119.671L81.4589 125.305C81.9998 125.672 82.664 125.81 83.3064 125.689C83.9488 125.568 84.5173 125.198 84.8876 124.659L85.9184 123.149C86.2856 122.608 86.4237 121.944 86.3025 121.301C86.1813 120.659 85.8107 120.091 85.2717 119.721Z" fill="#8CD1CB"/>
<path d="M189.873 40.4281L186.513 40.5605L186.379 37.2003C186.37 36.9807 186.274 36.7739 186.112 36.6248C185.95 36.4758 185.737 36.3965 185.517 36.4043L184.902 36.4292C184.682 36.4388 184.475 36.5349 184.326 36.6965C184.177 36.8581 184.098 37.0721 184.106 37.2919L184.238 40.652L180.877 40.7843C180.657 40.7939 180.45 40.89 180.301 41.0516C180.152 41.2132 180.073 41.4272 180.081 41.647L180.105 42.2629C180.115 42.4826 180.211 42.6894 180.373 42.8385C180.535 42.9875 180.749 43.0667 180.969 43.0589L184.329 42.9266L184.461 46.2867C184.471 46.5063 184.567 46.7131 184.729 46.8622C184.89 47.0113 185.104 47.0905 185.324 47.0827L185.939 47.0578C186.158 47.048 186.365 46.9518 186.514 46.7903C186.663 46.6287 186.743 46.4148 186.735 46.1951L186.602 42.835L189.962 42.7027C190.182 42.6931 190.389 42.597 190.538 42.4354C190.687 42.2738 190.767 42.0598 190.758 41.84L190.735 41.2241C190.725 41.0046 190.629 40.7978 190.468 40.6487C190.306 40.4996 190.093 40.4203 189.873 40.4281Z" fill="white"/>
<path d="M161.575 49.8915L158.215 50.0238L158.083 46.6647C158.073 46.4451 157.977 46.2383 157.815 46.0892C157.654 45.9401 157.44 45.8609 157.22 45.8687L156.604 45.8926C156.384 45.9021 156.177 45.9982 156.028 46.1598C155.879 46.3215 155.8 46.5355 155.808 46.7552L155.94 50.1163L152.579 50.2467C152.36 50.2565 152.153 50.3527 152.004 50.5142C151.855 50.6758 151.776 50.8897 151.783 51.1094L151.808 51.7243C151.818 51.9439 151.914 52.1507 152.076 52.2998C152.237 52.4489 152.451 52.5281 152.671 52.5203L156.031 52.3879L156.163 55.748C156.173 55.9677 156.269 56.1747 156.431 56.3239C156.592 56.473 156.806 56.5521 157.026 56.544L157.642 56.5202C157.862 56.5106 158.069 56.4145 158.218 56.2529C158.367 56.0913 158.446 55.8773 158.438 55.6575L158.305 52.2984L161.665 52.166C161.884 52.1562 162.091 52.0601 162.24 51.8985C162.389 51.737 162.469 51.5231 162.461 51.3034L162.436 50.6885C162.427 50.469 162.331 50.262 162.17 50.1127C162.008 49.9635 161.795 49.8839 161.575 49.8915Z" fill="white"/>
<path d="M186.971 58.4372L184.932 58.5178L184.852 56.478C184.846 56.3447 184.788 56.2189 184.69 56.1283C184.592 56.0377 184.462 55.9896 184.329 55.9945L183.955 56.0094C183.821 56.0151 183.695 56.0733 183.605 56.1714C183.514 56.2694 183.466 56.3994 183.471 56.5328L183.552 58.5715L181.513 58.6521C181.379 58.6576 181.253 58.7157 181.163 58.8138C181.072 58.9118 181.023 59.0419 181.028 59.1755L181.043 59.5486C181.049 59.682 181.107 59.8077 181.205 59.8983C181.303 59.9889 181.433 60.037 181.567 60.0322L183.606 59.9526L183.686 61.9913C183.692 62.1247 183.75 62.2504 183.848 62.341C183.946 62.4316 184.076 62.4798 184.209 62.4749L184.583 62.46C184.717 62.4543 184.843 62.3961 184.933 62.298C185.024 62.1999 185.072 62.07 185.067 61.9366L184.986 59.8979L187.025 59.8173C187.159 59.8118 187.285 59.7537 187.375 59.6556C187.466 59.5575 187.515 59.4275 187.51 59.2939L187.495 58.9208C187.489 58.7874 187.431 58.6617 187.333 58.5711C187.235 58.4805 187.105 58.4323 186.971 58.4372Z" fill="white"/>
<path d="M127.233 64.2276L100.238 45.638C97.6203 44.7425 95.7885 44.6161 95.2204 45.447C93.8572 47.4429 100.303 54.2189 109.616 60.5809C118.929 66.9429 127.586 70.4821 128.949 68.4862C129.485 67.7011 128.814 66.1758 127.233 64.2276Z" fill="#489EC2"/>
<path d="M101.726 44.689L100.631 46.2949C100.33 46.7392 100.217 47.2846 100.316 47.8121C100.415 48.3397 100.719 48.8065 101.162 49.1107L123.778 64.5621C124.222 64.8634 124.768 64.9768 125.295 64.8774C125.823 64.7781 126.29 64.4741 126.594 64.0318L127.688 62.4258L101.726 44.689Z" fill="#4CAAD0"/>
<path opacity="0.36" d="M88.4824 47.759C88.4824 47.759 81.9213 46.0217 75.3892 46.8376C68.857 47.6535 61.0612 60.1806 61.0612 60.1806C61.0612 60.1806 70.7564 46.5391 88.4824 47.759Z" fill="white"/>
<path opacity="0.36" d="M128.912 82.5586C128.912 82.5586 132.405 87.3346 133.813 92.9066C135.22 98.4786 127.52 108.781 127.52 108.781C127.52 108.781 135.519 96.5732 128.912 82.5586Z" fill="white"/>
<path d="M126.166 23.992C126.402 23.584 126.646 23.181 126.884 22.7761L127.616 21.5682C128.103 20.7632 128.599 19.9642 129.095 19.1662C129.592 18.3682 130.09 17.5742 130.599 16.7782C131.107 15.9822 131.609 15.1922 132.119 14.4032L132.269 15.1992C131.656 14.8012 131.045 14.4032 130.434 14.0052C129.823 13.6072 129.213 13.2068 128.604 12.8042L128.329 12.6221L128.315 12.2918V12.2161V12.039C128.315 11.9594 128.319 11.8798 128.327 11.8002C128.339 11.6392 128.361 11.479 128.393 11.3206C128.456 10.9757 128.582 10.645 128.763 10.3446C128.868 10.1767 128.995 10.0238 129.14 9.88984C129.293 9.74919 129.467 9.63396 129.656 9.54855C129.84 9.4673 130.033 9.4114 130.232 9.38239C130.279 9.37542 130.325 9.37244 130.373 9.36746L130.445 9.35254C130.468 9.35254 130.51 9.35254 130.544 9.35254C130.605 9.3531 130.666 9.35775 130.727 9.36647C130.788 9.37343 130.827 9.38438 130.881 9.39333C131.197 9.46907 131.503 9.58056 131.793 9.72566C132.058 9.85203 132.308 9.98635 132.553 10.1237C133.04 10.4003 133.507 10.6918 133.966 10.9883C134.425 11.2848 134.873 11.5953 135.319 11.9057C135.765 12.2161 136.202 12.5355 136.636 12.8569C137.506 13.5004 138.364 14.1564 139.209 14.825C140.901 16.1593 142.562 17.5334 144.24 18.8737C144.659 19.207 145.083 19.5463 145.504 19.8637C145.925 20.1811 146.366 20.4806 146.809 20.7761C147.705 21.3582 148.627 21.9045 149.561 22.4338C151.432 23.4905 153.342 24.4805 155.242 25.5024C157.141 26.5242 159.039 27.5581 160.853 28.7759C161.077 28.9321 161.305 29.0814 161.524 29.2476L161.858 29.4903C161.967 29.5729 162.075 29.6605 162.184 29.7451C162.404 29.9112 162.613 30.0953 162.826 30.2744C162.933 30.363 163.032 30.4635 163.136 30.558C163.241 30.6525 163.343 30.747 163.435 30.8565L163.733 31.1639C163.827 31.2724 163.919 31.3838 164.012 31.4933C164.104 31.6027 164.191 31.7231 164.277 31.8415L164.406 32.0216C164.448 32.0813 164.481 32.1341 164.519 32.1908L165.415 33.529C166.012 34.4245 166.617 35.3041 167.224 36.1857L168.141 37.5021C168.448 37.9369 168.761 38.3767 169.07 38.7956L169.522 39.4065L168.884 39.8473L162.771 44.0681L161.996 44.6024L161.556 43.7497L160.792 42.2661L160.032 40.7826L159.276 39.2971L158.526 37.8046L158.839 38.1488C158.05 37.6513 157.266 37.1469 156.481 36.6424C155.696 36.1379 154.91 35.6355 154.126 35.123C153.341 34.6106 152.561 34.1061 151.782 33.5937L149.449 32.0594C147.893 31.0319 146.341 29.9968 144.792 28.954C143.248 27.9073 141.701 26.8645 140.165 25.8029L140.729 25.6795C140.401 26.1432 140.076 26.6088 139.745 27.0725L138.75 28.4595L137.755 29.8406C137.423 30.3003 137.087 30.7586 136.747 31.2157L136.611 31.1271C136.889 30.6316 137.17 30.1378 137.454 29.6456L138.305 28.168L139.168 26.6984C139.453 26.2068 139.746 25.7203 140.036 25.2327L140.235 24.8984L140.6 25.1084C142.218 26.0407 143.824 26.9909 145.432 27.9371C147.04 28.8834 148.639 29.8466 150.235 30.8127L152.623 32.2644C153.419 32.7493 154.215 33.2365 155.011 33.7261C155.807 34.2156 156.6 34.7061 157.391 35.1977C158.187 35.6902 158.975 36.1817 159.762 36.6812L159.961 36.8106L160.07 37.0255L160.821 38.513L161.564 40.0055L162.303 41.498L163.04 42.9905L161.825 42.6721L168.056 38.6135L167.868 39.6652C167.551 39.2095 167.252 38.7697 166.952 38.311C166.653 37.8523 166.355 37.4056 166.069 36.9489C165.485 36.0384 164.927 35.1121 164.371 34.1857C164.093 33.7231 163.824 33.2554 163.553 32.7878C163.519 32.7311 163.484 32.6674 163.454 32.6156L163.354 32.4614C163.291 32.3553 163.223 32.2526 163.149 32.154L162.925 31.8555L162.679 31.5639C162.6 31.4644 162.508 31.3739 162.421 31.2794C162.333 31.1848 162.248 31.0893 162.152 31.0008C161.965 30.8207 161.782 30.6356 161.583 30.4644C161.484 30.3769 161.384 30.2883 161.285 30.2028L160.986 29.949C160.787 29.7779 160.572 29.6197 160.365 29.4515C160.158 29.2834 159.941 29.1341 159.728 28.9739L159.078 28.5113C158.856 28.362 158.636 28.2128 158.413 28.0645C158.19 27.9163 157.966 27.766 157.74 27.6277C157.289 27.3392 156.833 27.0572 156.373 26.782C155.914 26.5067 155.449 26.2364 154.98 25.971C153.115 24.9074 151.209 23.9074 149.309 22.8935C148.358 22.385 147.406 21.8756 146.468 21.3313C145.998 21.0587 145.532 20.7791 145.075 20.4766C144.842 20.3274 144.622 20.1781 144.398 20.0229L143.73 19.5672C142.84 18.9583 141.953 18.3447 141.071 17.7265C140.189 17.1082 139.308 16.491 138.429 15.8748L135.8 14.0211C135.363 13.7126 134.926 13.4052 134.486 13.1047C134.046 12.8042 133.61 12.5007 133.167 12.2092C132.724 11.9176 132.283 11.6331 131.839 11.3734C131.616 11.244 131.393 11.1207 131.174 11.0142C131.064 10.9595 130.957 10.9147 130.853 10.8669C130.765 10.8297 130.673 10.7988 130.58 10.7744C130.565 10.77 130.551 10.7667 130.536 10.7644H130.519H130.489H130.43C130.361 10.7732 130.295 10.7902 130.231 10.8152C130.107 10.8687 130.003 10.959 129.932 11.0739C129.833 11.2339 129.761 11.41 129.722 11.5943C129.698 11.6993 129.68 11.8056 129.668 11.9127C129.662 11.9674 129.657 12.0221 129.654 12.0759V12.1555V12.2191L129.366 11.7067C129.963 12.1253 130.558 12.5478 131.15 12.9743C131.742 13.4009 132.335 13.8264 132.928 14.2509L133.404 14.5932L133.077 15.0459C132.529 15.8091 131.974 16.5683 131.42 17.3265C130.865 18.0847 130.304 18.8409 129.743 19.5951C129.182 20.3493 128.615 21.1005 128.043 21.8477L127.184 22.9671C126.893 23.3383 126.607 23.7114 126.312 24.0795L126.166 23.992Z" fill="#9DDCF9"/>
<path d="M118.058 27.6765C118.35 26.9631 118.691 26.2835 119.042 25.6089C119.393 24.9343 119.769 24.2786 120.156 23.6289C120.256 23.4667 120.349 23.3045 120.449 23.1443L120.597 22.9025L120.672 22.7821L120.709 22.7214L120.762 22.6458L120.874 22.4926L121 22.3493C121.042 22.3016 121.087 22.2567 121.134 22.215C121.182 22.1722 121.227 22.1264 121.278 22.0876C121.478 21.9282 121.699 21.7973 121.934 21.6986C122.171 21.6021 122.42 21.5382 122.675 21.5085C122.737 21.5006 122.802 21.5006 122.866 21.4966H122.965C122.997 21.4966 123.03 21.4966 123.065 21.4966C123.128 21.4966 123.192 21.5026 123.256 21.5095L123.446 21.5404C123.698 21.5879 123.942 21.6745 124.167 21.7971C124.224 21.8267 124.279 21.8599 124.332 21.8966C124.385 21.9314 124.439 21.9662 124.491 22.003L124.714 22.1782C125.9 23.1154 127.003 24.1821 128.218 25.0736C128.824 25.5233 129.453 25.9393 130.092 26.3402C130.732 26.7412 131.395 27.1094 132.058 27.4755L133.053 28.0218C133.385 28.2049 133.716 28.3889 134.043 28.58C134.697 28.9581 135.336 29.3621 135.975 29.762C137.256 30.558 138.538 31.361 139.769 32.2326L140.001 32.3968C140.054 32.4366 140.107 32.4784 140.16 32.5202C140.213 32.5617 140.263 32.6062 140.311 32.6535C140.507 32.8377 140.674 33.0496 140.809 33.2824L140.908 33.4585C140.937 33.5182 140.962 33.5799 140.988 33.6416C141 33.6724 141.013 33.7022 141.024 33.7331L141.054 33.8276C141.073 33.8913 141.095 33.954 141.109 34.0187C141.17 34.2743 141.196 34.5371 141.187 34.7997C141.174 35.0604 141.127 35.3182 141.044 35.5659C141.024 35.6286 140.998 35.6873 140.973 35.748C140.949 35.8084 140.922 35.8672 140.891 35.9241L140.8 36.0942L140.693 36.2544L140.639 36.331L140.596 36.3868L140.507 36.4982L140.331 36.7201C140.215 36.8693 140.095 37.0186 139.976 37.1629C139.5 37.7519 139.013 38.3326 138.515 38.9051C138.018 39.4772 137.503 40.0424 136.961 40.5847L136.828 40.4931C137.136 39.7907 137.476 39.1101 137.823 38.4355C138.169 37.7609 138.539 37.0982 138.917 36.4405C139.011 36.2766 139.105 36.1128 139.201 35.949L139.344 35.7042L139.415 35.5818L139.45 35.5201C139.459 35.5032 139.464 35.4913 139.471 35.4773L139.512 35.3957L139.542 35.3112C139.554 35.2837 139.563 35.255 139.568 35.2256C139.574 35.1967 139.585 35.1689 139.589 35.14C139.635 34.9109 139.618 34.6733 139.538 34.4535C139.499 34.3481 139.447 34.2479 139.384 34.155C139.321 34.0654 139.247 33.9848 139.163 33.9152C139.125 33.8764 139.073 33.8525 139.032 33.8157L138.797 33.6605C137.537 32.8306 136.327 31.9272 135.115 31.0257C134.509 30.574 133.901 30.1302 133.31 29.6546C133.012 29.4198 132.722 29.179 132.432 28.9362L131.559 28.2059C130.977 27.7213 130.394 27.2387 129.787 26.789C129.18 26.3392 128.564 25.9034 127.925 25.5025C126.652 24.6915 125.259 24.0567 123.953 23.2926L123.71 23.1483C123.652 23.1244 123.602 23.0866 123.543 23.0687C123.431 23.0214 123.313 22.988 123.193 22.9692C122.952 22.9322 122.706 22.9551 122.476 23.0358C122.362 23.0804 122.254 23.1371 122.152 23.205C122.126 23.2219 122.105 23.2428 122.08 23.2617C122.054 23.2791 122.031 23.2991 122.01 23.3214L121.942 23.3851L121.884 23.4567L121.852 23.4935L121.809 23.5503L121.723 23.6627L121.552 23.8886C121.44 24.0398 121.325 24.1897 121.207 24.3383C120.743 24.9353 120.266 25.5224 119.768 26.0955C119.271 26.6686 118.758 27.2338 118.2 27.7651L118.058 27.6765Z" fill="#70CACB"/>
<path d="M128.026 62.6542C126.016 61.2771 123.981 59.9371 121.92 58.6343L120.373 57.6612L118.819 56.6971L115.71 54.7698C113.64 53.4763 111.585 52.1688 109.56 50.8137C107.536 49.4585 105.532 48.0724 103.55 46.6555C102.555 45.9484 101.568 45.2334 100.59 44.5103L100.405 44.377L100.312 44.3083L100.199 44.2178C100.122 44.1565 100.051 44.09 99.9836 44.0188C99.9154 43.9496 99.8513 43.8765 99.7916 43.7999C99.558 43.4969 99.3954 43.1453 99.3157 42.7711C99.236 42.397 99.2412 42.0097 99.3309 41.6378C99.3767 41.4549 99.4435 41.278 99.5299 41.1104L99.5945 40.986L99.6702 40.8676L99.709 40.8089C99.7219 40.79 99.7348 40.7701 99.7458 40.7562L99.8134 40.6637C101.259 38.7015 102.693 36.7304 104.092 34.7335C105.491 32.7365 106.857 30.7216 108.205 28.6918L109.207 27.1635L110.202 25.6312L110.451 25.2481C110.498 25.1795 110.55 25.1038 110.607 25.0332C110.664 24.9626 110.725 24.8969 110.789 24.8342C111.185 24.448 111.701 24.2081 112.252 24.1538C112.802 24.0996 113.355 24.2343 113.819 24.5357L116.904 26.5048L118.442 27.4918L119.975 28.4868C122.021 29.8112 124.047 31.1664 126.075 32.5146C130.134 35.2111 134.194 37.9065 138.203 40.6736C139.203 41.3701 140.207 42.0586 141.203 42.7631L141.391 42.8935L141.49 42.9601L141.618 43.0596C141.704 43.1246 141.785 43.1954 141.86 43.2716C141.937 43.3468 142.01 43.4265 142.077 43.5104C142.345 43.8444 142.534 44.2345 142.63 44.6518C142.727 45.069 142.728 45.5026 142.633 45.9202C142.586 46.1268 142.514 46.3271 142.42 46.5172L142.349 46.6595L142.265 46.7939L142.223 46.8615C142.208 46.8834 142.193 46.9073 142.184 46.9202L142.118 47.0128C140.707 49.0028 139.255 50.9579 137.792 52.9091L135.592 55.8324L134.497 57.2951L133.409 58.7637C132.686 59.7448 131.971 60.7321 131.265 61.7258L131.001 62.0979C130.954 62.1606 130.901 62.2243 130.853 62.287C130.806 62.3497 130.745 62.4054 130.685 62.4581C130.448 62.6735 130.165 62.8332 129.858 62.9258C129.552 63.0211 129.228 63.0461 128.911 62.9991C128.594 62.9521 128.291 62.8342 128.026 62.6542ZM128.117 62.5208C128.482 62.7677 128.921 62.8819 129.36 62.8442C129.799 62.8065 130.212 62.6193 130.53 62.3139C130.583 62.2641 130.63 62.2074 130.678 62.1557C130.727 62.1039 130.764 62.0402 130.807 61.9805L131.057 61.5985C131.725 60.5796 132.384 59.5551 133.036 58.5249L134.009 56.9757L134.972 55.4215L136.894 52.3091C138.18 50.2365 139.475 48.1709 140.813 46.1342L140.876 46.0347C140.884 46.0229 140.892 46.0106 140.898 45.9979L140.915 45.967L140.951 45.9073L140.978 45.8436C141.015 45.7595 141.043 45.6713 141.06 45.5809C141.094 45.3995 141.086 45.2129 141.038 45.0347C140.994 44.8582 140.91 44.6944 140.792 44.5561C140.733 44.4875 140.666 44.4263 140.593 44.374L140.539 44.3332L140.445 44.2705L140.255 44.1442C139.24 43.4715 138.232 42.787 137.221 42.1074C133.183 39.3811 129.195 36.5802 125.207 33.7802C123.217 32.3803 121.214 30.9863 119.237 29.5624L117.752 28.4958L116.273 27.4222L113.32 25.273C113.123 25.1305 112.897 25.034 112.658 24.9908C112.419 24.9476 112.174 24.9587 111.94 25.0233C111.7 25.0893 111.478 25.2083 111.29 25.3715C111.243 25.4113 111.202 25.4591 111.156 25.5018L111.037 25.6521L110.77 26.0232L109.706 27.5078L108.651 29.0003C107.251 30.9942 105.874 33.0038 104.519 35.029C103.167 37.0558 101.852 39.1085 100.55 41.1691L100.489 41.2686C100.48 41.2824 100.472 41.2967 100.464 41.3114L100.442 41.3502L100.399 41.4278L100.366 41.5094C100.23 41.8326 100.209 42.1928 100.308 42.5293C100.369 42.7474 100.48 42.9483 100.632 43.1163C100.706 43.1991 100.79 43.2726 100.881 43.3352L100.949 43.382L101.048 43.4427L101.241 43.5651C102.27 44.2178 103.295 44.8768 104.316 45.5421C106.357 46.8734 108.377 48.2359 110.375 49.6296C112.374 51.0226 114.342 52.4604 116.297 53.919L119.223 56.114L120.687 57.2085L122.156 58.297C124.118 59.7405 126.105 61.1484 128.117 62.5208Z" fill="#9DDCF9"/>
<path d="M127.758 62.4711C127.614 62.8462 127.453 63.2114 127.283 63.5656C127.199 63.7457 127.111 63.9238 127.024 64.1009L126.957 64.2332L126.939 64.2671L126.917 64.3049C126.901 64.3307 126.887 64.3566 126.87 64.3815C126.806 64.4835 126.734 64.5803 126.655 64.671C126.326 65.0442 125.891 65.3086 125.409 65.4292C125.163 65.4913 124.91 65.5168 124.657 65.5048C124.399 65.4908 124.144 65.4395 123.901 65.3526C123.779 65.3079 123.661 65.254 123.547 65.1914C123.518 65.1765 123.49 65.1586 123.463 65.1427L123.385 65.0949L123.26 65.0173C123.092 64.9178 122.926 64.8103 122.762 64.7049L122.265 64.3874L121.773 64.0651C121.115 63.6372 120.48 63.1765 119.864 62.689C118.633 61.7089 117.476 60.6174 116.207 59.699C115.574 59.2353 114.922 58.8035 114.256 58.3846C113.59 57.9657 112.905 57.5816 112.217 57.1976L111.184 56.6245L110.669 56.3349L110.158 56.0364C109.479 55.6384 108.816 55.2205 108.152 54.8026C106.821 53.9698 105.492 53.135 104.206 52.2355C103.888 52.0077 103.567 51.7828 103.25 51.551C102.934 51.3191 102.616 51.0883 102.304 50.8545C101.992 50.6206 101.677 50.3808 101.367 50.14C101.211 50.0206 101.057 49.8999 100.902 49.7779L100.787 49.6873L100.715 49.6306C100.689 49.6097 100.663 49.5898 100.638 49.5679C100.146 49.1435 99.831 48.5492 99.7567 47.9033C99.6996 47.4114 99.7915 46.9136 100.02 46.4745C100.076 46.3686 100.14 46.2672 100.21 46.171L100.265 46.1003L100.293 46.0665L100.318 46.0377L100.417 45.9272C100.551 45.7809 100.684 45.6357 100.815 45.4904C101.088 45.2019 101.365 44.9153 101.653 44.6377L101.787 44.7292C101.633 45.0994 101.467 45.4606 101.297 45.8237C101.211 46.0028 101.125 46.1809 101.036 46.3581L100.97 46.4904L100.954 46.5232L100.942 46.5501C100.934 46.569 100.925 46.5859 100.917 46.6038C100.887 46.6758 100.862 46.7496 100.841 46.8247C100.765 47.1132 100.771 47.4174 100.86 47.7023C100.942 47.9674 101.098 48.2036 101.31 48.3829C101.36 48.4248 101.414 48.4633 101.469 48.4983L101.686 48.6266C101.856 48.7262 102.024 48.8256 102.193 48.9251C102.53 49.1241 102.865 49.3285 103.198 49.5381C103.534 49.743 103.863 49.956 104.193 50.1649C104.524 50.3739 104.851 50.5928 105.179 50.8067C106.485 51.6763 107.746 52.6116 109.005 53.5479C109.636 54.0146 110.269 54.4792 110.884 54.9688L111.345 55.3369L111.801 55.712L112.711 56.4653C113.319 56.9628 113.928 57.4652 114.558 57.9329C115.189 58.4005 115.831 58.8513 116.493 59.2722C117.81 60.1239 119.247 60.8015 120.607 61.5905C121.286 61.9885 121.945 62.4124 122.583 62.8691L123.064 63.2094L123.539 63.5556C123.697 63.6711 123.856 63.7875 124.012 63.9069L124.129 63.9954L124.175 64.0283C124.188 64.0382 124.201 64.0492 124.215 64.0581C124.27 64.0945 124.327 64.1277 124.386 64.1576C124.632 64.2818 124.908 64.3349 125.182 64.3108C125.477 64.2859 125.758 64.1795 125.996 64.0034C126.057 63.9566 126.115 63.9065 126.171 63.8531L126.212 63.8113L126.233 63.7904L126.257 63.7626L126.356 63.6521C126.489 63.5059 126.623 63.3596 126.76 63.2163C127.033 62.9278 127.314 62.6452 127.612 62.3736L127.758 62.4711Z" fill="#469ABD"/>
<path d="M127.296 64.1765C127.712 64.5597 128.099 64.9727 128.454 65.4123C128.636 65.6352 128.805 65.8677 128.962 66.1088C129.126 66.3596 129.268 66.6239 129.388 66.8989C129.522 67.203 129.602 67.5283 129.624 67.86C129.633 68.056 129.608 68.252 129.549 68.4391C129.484 68.6445 129.376 68.8334 129.232 68.9933C129.092 69.1458 128.926 69.2719 128.742 69.3655C128.578 69.4469 128.405 69.5109 128.228 69.5565C127.909 69.6322 127.583 69.6693 127.255 69.667C126.952 69.6677 126.648 69.6481 126.347 69.6083C126.052 69.5698 125.761 69.5207 125.475 69.461C124.911 69.3404 124.354 69.1903 123.806 69.0113C122.726 68.6652 121.677 68.2326 120.667 67.7178C119.661 67.2103 118.698 66.6232 117.747 66.0352C116.796 65.4472 115.857 64.8332 114.913 64.2492C113.023 63.0791 111.104 61.9527 109.177 60.8204C108.697 60.5358 108.217 60.2483 107.743 59.9528C107.268 59.6573 106.794 59.3558 106.33 59.0473C105.398 58.4284 104.494 57.7677 103.601 57.0911C101.816 55.737 100.071 54.3121 98.487 52.6933C97.6859 51.8821 96.9381 51.02 96.2483 50.1122C95.8965 49.6477 95.5723 49.163 95.2772 48.6605C95.1256 48.4023 94.9871 48.1367 94.8623 47.8645C94.7294 47.5783 94.6219 47.281 94.5409 46.976C94.4434 46.6311 94.4137 46.2705 94.4533 45.9143C94.4777 45.7051 94.5418 45.5024 94.6424 45.3173C94.7467 45.1261 94.8909 44.9595 95.0652 44.8288C95.2229 44.7124 95.3987 44.623 95.5856 44.5641C95.7502 44.5135 95.9196 44.4801 96.0911 44.4646C96.2498 44.4495 96.4094 44.4452 96.5687 44.4517C96.7205 44.4566 96.8719 44.4692 97.0224 44.4895C97.5956 44.5737 98.1589 44.715 98.7039 44.9114C99.2355 45.0994 99.7554 45.3187 100.261 45.5681L100.209 45.7213C99.6621 45.6118 99.1149 45.5064 98.5766 45.4317C98.0477 45.3492 97.5128 45.3123 96.9776 45.3213C96.7319 45.3258 96.4874 45.3568 96.2483 45.4138C96.0625 45.4498 95.8903 45.5366 95.7508 45.6646C95.7095 45.7103 95.6783 45.7642 95.6593 45.8228C95.639 45.8871 95.6302 45.9544 95.6334 46.0218C95.6452 46.2203 95.6902 46.4153 95.7667 46.5989C95.9587 47.0557 96.2045 47.4879 96.499 47.8864C96.7975 48.3123 97.1318 48.7232 97.4791 49.1292C97.8264 49.5351 98.1925 49.9252 98.5666 50.3232C98.9408 50.7212 99.3218 51.0983 99.7129 51.4764C101.27 52.9937 102.886 54.4783 104.561 55.9031C105.398 56.6145 106.252 57.3041 107.107 58.0056C107.961 58.707 108.811 59.4095 109.681 60.0951C110.55 60.7806 111.435 61.4483 112.351 62.0671C113.268 62.686 114.209 63.2721 115.178 63.8044C117.114 64.878 119.189 65.6889 121.223 66.4909C122.242 66.8889 123.253 67.2939 124.266 67.6551C124.519 67.7446 124.775 67.8272 125.029 67.9088C125.282 67.9904 125.538 68.065 125.792 68.1307C126.285 68.2694 126.789 68.365 127.298 68.4162C127.526 68.4359 127.755 68.4329 127.983 68.4073C128.076 68.3936 128.168 68.3716 128.257 68.3416C128.325 68.3181 128.389 68.2846 128.446 68.2421C128.497 68.2038 128.539 68.1545 128.568 68.0978C128.604 68.0236 128.626 67.9433 128.634 67.861C128.649 67.6363 128.627 67.4106 128.567 67.1934C128.502 66.9443 128.419 66.7002 128.319 66.4631C128.22 66.2183 128.102 65.9745 127.979 65.7327C127.731 65.2482 127.453 64.7686 127.169 64.289L127.296 64.1765Z" fill="#469ABD"/>
<path d="M95.1221 45.4709C93.7132 44.8271 92.2704 44.248 90.8157 43.7177C89.361 43.1873 87.8864 42.7048 86.3959 42.2918C84.9088 41.8768 83.4001 41.543 81.8766 41.2919C80.365 41.0327 78.8332 40.9095 77.2996 40.9237C75.7803 40.9476 74.2619 41.1585 72.8699 41.6749C72.6978 41.7446 72.5236 41.8083 72.3575 41.8869C72.2749 41.9257 72.1843 41.9615 72.1097 42.0023L71.9933 42.061L71.8769 42.1267C71.5582 42.3135 71.2512 42.5195 70.9575 42.7436C70.3605 43.1953 69.7784 43.6968 69.2133 44.2142C68.084 45.25 67.0054 46.3554 65.9557 47.4857C64.9059 48.6161 63.8791 49.7713 62.8841 50.9503C60.8802 53.3085 58.9465 55.7273 57.0832 58.2069C55.2199 60.6864 53.4057 63.1958 51.6406 65.735C49.8794 68.2842 48.171 70.8682 46.5153 73.4871C45.6868 74.7958 44.8723 76.1129 44.0716 77.4382C43.271 78.7636 42.4799 80.0952 41.6985 81.4332C38.5842 86.7896 35.6761 92.2584 32.9744 97.8397C30.2709 103.42 27.8487 109.131 25.7169 114.954C23.6015 120.78 21.8224 126.737 20.514 132.801C19.2056 138.865 18.3628 145.033 18.126 151.228V151.19C18.1409 151.307 18.1648 151.44 18.1897 151.567C18.2146 151.693 18.2454 151.822 18.2762 151.951C18.3426 152.205 18.4155 152.458 18.4951 152.709C18.6589 153.211 18.856 153.701 19.0852 154.177C19.3134 154.652 19.5723 155.113 19.8603 155.555C20.1497 155.995 20.4668 156.417 20.8095 156.817L20.7528 156.767L28.6561 162.085L36.5693 167.382L44.4875 172.673L52.3998 177.972L52.2515 177.897C53.2224 178.224 54.2321 178.421 55.2544 178.483C55.7636 178.517 56.2745 178.517 56.7837 178.483C57.0375 178.466 57.2902 178.44 57.5399 178.404C57.6643 178.386 57.7877 178.366 57.9101 178.343C57.9704 178.333 58.0301 178.321 58.0892 178.307L58.1757 178.287L58.2484 178.271L58.1489 178.303C63.7846 175.786 69.1874 172.753 74.3375 169.342C76.9172 167.633 79.4342 165.835 81.8886 163.949C84.3429 162.064 86.7395 160.112 89.0785 158.095C93.755 154.054 98.2135 149.75 102.479 145.266C103.544 144.145 104.597 143.012 105.638 141.865C106.679 140.719 107.707 139.564 108.723 138.4C109.741 137.234 110.746 136.057 111.738 134.869C112.729 133.681 113.711 132.484 114.684 131.279C118.558 126.448 122.242 121.47 125.736 116.347C127.477 113.785 129.169 111.189 130.792 108.552C132.415 105.915 133.976 103.243 135.455 100.522C136.191 99.1621 136.901 97.788 137.575 96.3989C138.248 95.0099 138.885 93.603 139.441 92.1732C139.718 91.4588 139.976 90.7384 140.179 90.013C140.282 89.6579 140.362 89.2967 140.42 88.9315L140.44 88.7981L140.453 88.6678C140.464 88.5832 140.464 88.4857 140.47 88.3952C140.484 88.2101 140.48 88.025 140.482 87.839C140.476 87.466 140.45 87.0937 140.405 86.7236L140.389 86.5833L140.368 86.445L140.325 86.1664C140.288 85.9813 140.26 85.7952 140.215 85.6121C140.053 84.8709 139.837 84.1423 139.57 83.4321C139.024 81.9982 138.352 80.6157 137.562 79.3009C136.77 77.9757 135.906 76.6946 134.975 75.4632C134.047 74.2264 133.062 73.0324 132.037 71.8682C131.011 70.7041 129.947 69.5797 128.829 68.5011L128.938 68.3807C129.523 68.8962 130.087 69.4315 130.645 69.9727C131.202 70.514 131.748 71.0732 132.283 71.6384C133.353 72.7717 134.384 73.9438 135.36 75.1617C136.342 76.3806 137.255 77.6536 138.094 78.9745C138.512 79.6378 138.905 80.3171 139.274 81.0123C139.644 81.7098 139.976 82.4265 140.269 83.1595C140.567 83.8971 140.812 84.6553 141.002 85.4281C141.052 85.6211 141.088 85.8191 141.132 86.0151L141.185 86.3136L141.21 86.4619L141.231 86.6111C141.291 87.0107 141.329 87.4133 141.345 87.8171C141.345 88.0161 141.356 88.223 141.345 88.426C141.345 88.5255 141.345 88.625 141.333 88.7345L141.321 88.8947L141.302 89.0509C141.247 89.4533 141.168 89.852 141.065 90.2449C140.866 91.021 140.619 91.7712 140.352 92.5115C139.812 93.991 139.192 95.4298 138.54 96.8507C137.888 98.2715 137.196 99.6735 136.481 101.061C135.053 103.838 133.518 106.555 131.926 109.236C131.13 110.577 130.316 111.907 129.483 113.225C128.651 114.544 127.806 115.855 126.948 117.157C125.227 119.758 123.452 122.321 121.622 124.847C120.708 126.107 119.779 127.361 118.836 128.607C117.893 129.853 116.938 131.087 115.972 132.306C115.005 133.529 114.025 134.742 113.032 135.946C112.039 137.15 111.032 138.341 110.011 139.52C108.992 140.7 107.959 141.869 106.912 143.028C105.865 144.186 104.804 145.33 103.728 146.46C101.582 148.726 99.378 150.936 97.1161 153.091C94.8541 155.246 92.5358 157.338 90.161 159.368C85.4059 163.417 80.419 167.205 75.1753 170.611C69.9317 174.017 64.4393 177.056 58.6882 179.531L58.6334 179.555L58.5926 179.565L58.525 179.582L58.4683 179.595L58.3568 179.618C58.2842 179.633 58.2116 179.647 58.1399 179.659C57.9957 179.683 57.8534 179.704 57.7101 179.722C57.4255 179.758 57.1399 179.783 56.8554 179.799C56.2877 179.829 55.7186 179.821 55.1519 179.776C54.0193 179.687 52.9032 179.45 51.8316 179.072L51.748 179.043L51.6824 178.997L43.8796 173.562L36.0718 168.111L28.2581 162.665L20.4324 157.238L20.3996 157.215L20.3767 157.187C20.0222 156.764 19.6948 156.319 19.3966 155.854C19.1006 155.389 18.8347 154.906 18.6006 154.407C18.3661 153.908 18.1643 153.395 17.9966 152.869C17.9131 152.604 17.8391 152.338 17.7748 152.073C17.7429 151.939 17.7131 151.804 17.6862 151.667C17.6593 151.531 17.6365 151.398 17.6176 151.246V151.228V151.208C17.8922 144.98 18.7429 138.791 20.0056 132.693C21.2856 126.595 22.933 120.581 24.9388 114.683C28.9317 102.875 34.1923 91.4996 40.4429 80.7078C41.2249 79.3592 42.0209 78.019 42.8309 76.687C43.6408 75.355 44.4663 74.033 45.3074 72.7209C46.983 70.0921 48.7169 67.5018 50.5093 64.95C54.0913 59.8486 57.8862 54.8875 62.0015 50.1911C63.0264 49.0121 64.0781 47.8589 65.1626 46.7295C66.2472 45.6002 67.3636 44.5027 68.5456 43.461C69.1426 42.9416 69.7456 42.4361 70.3973 41.9685C70.7273 41.7282 71.0715 41.5082 71.4282 41.3098L71.5675 41.2362L71.7117 41.1655C71.8112 41.1168 71.9008 41.0839 71.9953 41.0421C72.1824 40.9585 72.3744 40.8929 72.5644 40.8212C72.9465 40.6887 73.3355 40.5767 73.7296 40.4859L73.8758 40.4511L74.0241 40.4222L74.3226 40.3635C74.5216 40.3327 74.7206 40.2939 74.9196 40.271C75.7112 40.1664 76.5092 40.1188 77.3076 40.1287C78.0977 40.1362 78.8869 40.1857 79.6717 40.277C80.4538 40.3652 81.2306 40.4846 82.002 40.6352C83.5378 40.9378 85.0552 41.3268 86.5472 41.8003C88.0397 42.269 89.5043 42.8033 90.9481 43.3923C91.6698 43.6862 92.3852 43.9943 93.0943 44.3167C93.8037 44.6391 94.5062 44.9714 95.1987 45.3316L95.1221 45.4709Z" fill="#469ABD"/>
<path d="M111.388 87.1561L111.549 87.2984L111.704 87.4387L112.012 87.7222C112.216 87.9113 112.418 88.1023 112.62 88.2953C113.022 88.6814 113.42 89.0734 113.814 89.4714C114.594 90.2674 115.358 91.0794 116.091 91.9211C117.552 93.6047 118.926 95.3787 120.038 97.3289C120.313 97.8165 120.568 98.318 120.797 98.8324C121.03 99.3488 121.227 99.8808 121.386 100.424C121.468 100.696 121.53 100.974 121.585 101.252C121.64 101.533 121.678 101.817 121.701 102.103C121.716 102.245 121.715 102.39 121.722 102.534L121.714 102.756V102.866C121.714 102.903 121.707 102.939 121.703 102.975C121.672 103.26 121.625 103.544 121.562 103.824C121.437 104.376 121.284 104.92 121.104 105.456C121.014 105.723 120.925 105.989 120.828 106.252L120.685 106.65L120.533 107.048C120.128 108.094 119.682 109.122 119.212 110.133C118.273 112.164 117.24 114.149 116.152 116.103C115.88 116.591 115.605 117.078 115.326 117.561C115.044 118.044 114.763 118.528 114.475 119.007C113.904 119.969 113.312 120.917 112.714 121.863C110.306 125.636 107.701 129.279 104.909 132.777C102.111 136.273 99.1242 139.613 95.9619 142.783C92.802 145.958 89.4456 148.931 85.9124 151.685C82.3808 154.438 78.6566 156.935 74.7684 159.156C70.8841 161.378 66.817 163.264 62.6115 164.793L62.5896 164.801H62.5716C62.509 164.813 62.4582 164.82 62.4025 164.828L62.2393 164.847C62.1319 164.859 62.0244 164.866 61.9169 164.874C61.702 164.884 61.4871 164.891 61.2732 164.887C60.8453 164.881 60.4183 164.848 59.9946 164.788C59.5718 164.73 59.1528 164.647 58.7399 164.539C58.5319 164.49 58.329 164.424 58.125 164.363C57.921 164.302 57.727 164.222 57.521 164.152L57.4962 164.144L57.4693 164.125C55.3745 162.699 53.2787 161.273 51.1819 159.848L44.8815 155.584L38.5633 151.346L32.2381 147.125L32.1943 147.095L32.1625 147.058C32.0202 146.895 31.8719 146.737 31.7346 146.569C31.5973 146.4 31.459 146.233 31.3366 146.055C31.0783 145.705 30.8411 145.339 30.6262 144.961C30.4106 144.581 30.2189 144.189 30.0521 143.785C29.9675 143.586 29.8919 143.377 29.8212 143.168C29.7874 143.061 29.7536 142.957 29.7217 142.847C29.7058 142.793 29.6909 142.74 29.6769 142.683L29.657 142.598C29.6501 142.568 29.6431 142.543 29.6362 142.499L29.6302 142.467V142.423C29.492 137.935 29.7635 133.444 30.4411 129.005C31.1109 124.569 32.1107 120.189 33.4321 115.902C34.7501 111.615 36.3193 107.41 38.1315 103.308C39.0343 101.258 39.9898 99.2311 40.9981 97.2285C42.0063 95.2258 43.0663 93.2514 44.1781 91.3052C45.2872 89.359 46.4434 87.4403 47.6466 85.5491C48.8499 83.658 50.1006 81.8006 51.3988 79.9771C54.0077 76.3325 56.7718 72.7962 59.8563 69.5028C60.6264 68.6799 61.4165 67.873 62.2443 67.0969L62.5557 66.8063L62.8741 66.5208C63.0841 66.3287 63.304 66.1437 63.5219 65.9576C63.9673 65.579 64.4323 65.2239 64.9149 64.8939C65.1709 64.7197 65.4366 64.5602 65.7109 64.4163C65.7467 64.3974 65.7795 64.3775 65.8173 64.3596L65.9338 64.3079L66.1686 64.2084C66.3158 64.1576 66.4671 64.0999 66.6104 64.0581C66.9045 63.9681 67.2035 63.8946 67.5059 63.8382C67.8044 63.7855 68.1029 63.7387 68.4014 63.7149C68.9895 63.6623 69.5807 63.6513 70.1705 63.682C70.7535 63.7089 71.3306 63.7676 71.8998 63.8502C74.1783 64.1885 76.3554 64.8452 78.4668 65.6352C79.5221 66.0332 80.5629 66.4611 81.5891 66.9188C82.1025 67.1476 82.6116 67.3848 83.1164 67.6302C83.6239 67.877 84.1214 68.1277 84.6268 68.3973L84.6577 68.4143L84.6756 68.4272L91.3301 73.1564C93.547 74.7332 95.7692 76.3033 97.9966 77.8667L101.321 80.197L104.674 82.5293L108.029 84.8477L111.388 87.1561ZM111.289 87.2844L107.915 84.9909L104.532 82.7084L101.149 80.4368L97.7529 78.1752C95.4843 76.6708 93.2143 75.1733 90.9431 73.6828L84.1243 69.2053L84.1731 69.2341C83.6875 68.9973 83.1781 68.7665 82.6806 68.5446C82.1831 68.3227 81.6667 68.1088 81.1563 67.9008C80.1341 67.4856 79.1016 67.1025 78.0588 66.7516C77.0161 66.4034 75.9634 66.0919 74.9037 65.8292C73.8517 65.5643 72.7844 65.365 71.7077 65.2322C71.1744 65.1686 70.6401 65.1327 70.1157 65.1168C69.5924 65.1024 69.0688 65.1247 68.5486 65.1835C68.2919 65.2094 68.0412 65.2541 67.7914 65.3029C67.5468 65.3535 67.3053 65.4179 67.0681 65.4959C66.9487 65.5317 66.8372 65.5795 66.7218 65.6213L66.5755 65.6899L66.5019 65.7238C66.478 65.7357 66.4512 65.7526 66.4253 65.7675C66.2085 65.8886 65.9986 66.0214 65.7964 66.1655C65.3746 66.464 64.9596 66.8033 64.5517 67.1526C64.3527 67.3307 64.1447 67.5068 63.9467 67.6929L63.6482 67.9695L63.3497 68.2521C62.5647 69.0093 61.8035 69.8013 61.0612 70.6102C59.5687 72.2301 58.1578 73.9275 56.7827 75.6598C55.4076 77.3921 54.0962 79.1692 52.8177 80.9741C51.5391 82.7791 50.3073 84.6188 49.1182 86.4844C47.9292 88.3501 46.773 90.2465 45.6706 92.1599C44.5681 94.0733 43.5065 96.0205 42.4965 97.9886C41.4866 99.9567 40.5205 101.949 39.611 103.966C37.782 107.994 36.1915 112.126 34.848 116.341C33.5057 120.554 32.4558 124.854 31.7058 129.212C31.3376 131.39 31.0583 133.581 30.868 135.785C30.6776 137.988 30.5914 140.196 30.6093 142.406L30.6013 142.331L30.6122 142.389C30.6122 142.409 30.6222 142.433 30.6272 142.456C30.6371 142.501 30.6491 142.548 30.661 142.594C30.6839 142.687 30.7117 142.782 30.7396 142.875C30.7973 143.062 30.86 143.249 30.9326 143.433C31.0756 143.805 31.2417 144.166 31.4301 144.517C31.6183 144.869 31.8273 145.209 32.056 145.536C32.1664 145.703 32.2928 145.858 32.4132 146.017C32.5336 146.176 32.6689 146.325 32.7963 146.479L32.7207 146.413L38.9553 150.774L45.1989 155.121L51.4674 159.439C53.5589 160.874 55.6524 162.304 57.7479 163.731L57.6971 163.704C57.8902 163.771 58.0802 163.845 58.2752 163.903C58.4703 163.962 58.6633 164.025 58.8623 164.07C59.257 164.17 59.6573 164.246 60.0613 164.297C60.4642 164.349 60.8699 164.376 61.2762 164.377C61.4752 164.377 61.6811 164.371 61.8821 164.359C61.9816 164.351 62.0811 164.344 62.1806 164.331C62.2801 164.318 62.3796 164.306 62.4672 164.29L62.4284 164.301C66.581 162.738 70.5784 160.79 74.3684 158.483C78.1544 156.178 81.7696 153.605 85.186 150.781C88.6026 147.964 91.8625 144.961 94.9509 141.788C98.0474 138.621 100.989 135.305 103.787 131.87C106.584 128.436 109.236 124.88 111.731 121.215C112.973 119.379 114.179 117.518 115.329 115.622C116.478 113.726 117.572 111.795 118.573 109.819C119.071 108.831 119.55 107.829 119.986 106.816C120.422 105.803 120.824 104.768 121.096 103.712C121.163 103.45 121.216 103.184 121.254 102.916C121.254 102.883 121.265 102.85 121.268 102.816L121.274 102.717L121.288 102.518C121.288 102.384 121.288 102.249 121.279 102.12C121.265 101.849 121.236 101.58 121.191 101.313C121.143 101.046 121.092 100.779 121.019 100.517C120.743 99.4582 120.293 98.4424 119.773 97.4692C119.244 96.4955 118.652 95.5573 118.001 94.6604C117.355 93.7579 116.664 92.8883 115.94 92.0445C115.217 91.2007 114.468 90.3799 113.69 89.5859C113.301 89.1879 112.906 88.7965 112.506 88.4118C112.307 88.2187 112.105 88.0277 111.901 87.8386L111.594 87.5561L111.289 87.2844Z" fill="#8CD1CB"/>
</g>
</svg>
