<svg width="180" height="158" viewBox="0 0 180 158" fill="none" xmlns="http://www.w3.org/2000/svg">
<path d="M149.21 12.5861C137.835 9.96254 125.917 11.067 115.218 15.7364C104.519 20.4058 95.6055 28.3924 89.794 38.5166C83.986 28.389 75.0729 20.3995 64.3727 15.7297C53.6725 11.0598 41.7537 9.95763 30.3786 12.5861C-0.0187028 18.5816 -14.1383 79.436 19.3167 107.495C40.1211 124.942 65.8119 144.307 79.6916 154.65C82.6106 156.825 86.1537 158 89.794 158C93.4343 158 96.9774 156.825 99.8964 154.65C113.806 144.307 139.467 124.942 160.301 107.495C193.726 79.436 179.607 18.6116 149.21 12.5861Z" fill="#9F9AE3"/>
<path d="M149.21 1.40458C137.835 -1.23371 125.912 -0.13598 115.209 4.53481C104.507 9.20561 95.5948 17.2009 89.794 27.3353C83.9931 17.2009 75.0809 9.20561 64.3785 4.53481C53.6762 -0.13598 41.7538 -1.23371 30.3786 1.40458C-0.0187028 7.4001 -14.1383 68.2547 19.3167 96.2837C40.1211 113.761 65.8119 133.126 79.6916 143.438C82.6106 145.614 86.1537 146.789 89.794 146.789C93.4343 146.789 96.9774 145.614 99.8964 143.438C113.806 133.126 139.467 113.761 160.301 96.2837C193.726 68.2547 179.607 7.4001 149.21 1.40458Z" fill="#EBEAF9"/>
<path d="M142.105 10.0379C112.367 4.04239 95.0102 31.2022 89.7941 40.915C84.608 31.2022 67.2211 4.1623 37.4833 10.0379C10.7433 15.3439 -1.69737 65.4366 27.7406 90.1081C45.4874 105.097 67.191 121.405 79.6617 130.698C82.5919 132.873 86.1445 134.048 89.7941 134.048C93.4437 134.048 96.9963 132.873 99.9265 130.698C112.397 121.405 134.101 104.977 151.848 90.1081C181.286 65.5565 168.845 15.3439 142.105 10.0379Z" fill="url(#paint0_linear_28_173)"/>
<path style="mix-blend-mode:screen" opacity="0.52" d="M126.577 19.0916C125.468 15.1945 122.35 13.0961 115.875 16.0939C110.246 18.9141 105.17 22.7216 100.886 27.3355C99.3273 28.9842 88.6251 40.4357 89.7942 42.5341C85.1758 33.9815 78.7765 26.5191 71.0282 20.6505C60.4161 12.9763 42.9092 7.13051 31.3079 15.4643C23.2749 20.8198 17.4175 28.8671 14.7902 38.1573C10.4435 54.7949 16.6791 69.334 34.186 70.743C42.656 71.9531 51.2924 70.4859 58.8875 66.5462C67.8808 61.9896 76.3344 55.3946 86.5567 53.6259C100.796 51.1677 114.676 53.2961 122.98 38.6371C125.588 34.0205 128.106 24.6075 126.577 19.0916Z" fill="url(#paint1_linear_28_173)"/>
<path style="mix-blend-mode:multiply" opacity="0.3" d="M164.378 30.4526C161.381 38.5766 155.985 45.4416 150.978 52.3364C145.783 59.2701 139.626 65.4275 132.692 70.6227C118.592 81.242 102.297 88.5753 84.9977 92.0866C67.221 95.8038 46.6861 95.9837 29.7188 88.8191C27.3338 87.7966 25.0205 86.6148 22.7942 85.2818C24.3302 87.0022 25.983 88.6148 27.7406 90.1081C45.4873 105.097 67.1909 121.405 79.6616 130.698C82.5918 132.873 86.1445 134.048 89.794 134.048C93.4436 134.048 96.9963 132.873 99.9265 130.698C112.397 121.405 134.101 104.977 151.848 90.1081C170.494 74.5498 172.322 48.6191 164.378 30.4526Z" fill="url(#paint2_linear_28_173)"/>
<path style="mix-blend-mode:multiply" opacity="0.66" d="M157.184 62.1701C148.368 78.1103 134.894 90.9779 118.565 99.0513C102.236 107.125 83.8308 110.019 65.8122 107.346C47.6094 104.159 31.1024 94.685 19.1672 80.5764C21.5625 84.1415 24.4488 87.3507 27.7408 90.1093C45.4875 105.098 67.1911 121.406 79.6618 130.699C82.592 132.874 86.1447 134.049 89.7942 134.049C93.4438 134.049 96.9965 132.874 99.9267 130.699C112.397 121.406 134.101 104.978 151.848 90.1093C168.096 76.4695 171.573 55.0954 166.837 37.7983C164.765 46.3307 161.516 54.5333 157.184 62.1701Z" fill="url(#paint3_linear_28_173)"/>
<path style="mix-blend-mode:screen" opacity="0.52" d="M159.222 78.2964C154.848 81.9432 150.253 85.3171 145.463 88.3988C129.575 99.3706 109.909 105.366 101.695 124.792C114.286 115.589 126.697 105.546 139.137 95.9832C146.277 90.6124 152.992 84.6992 159.222 78.2964Z" fill="url(#paint4_linear_28_173)"/>
<path style="mix-blend-mode:screen" opacity="0.52" d="M68.6902 26.5854C67.7609 15.4337 50.2243 12.436 42.0405 15.0441C31.6083 18.4016 22.1652 23.5876 19.4072 35.0091C15.1804 52.546 34.5759 50.3576 45.6076 45.8309C51.813 43.2829 60.5965 39.8355 65.5428 34.2896C66.5623 33.2859 67.3671 32.0853 67.9082 30.7609C68.4493 29.4365 68.7152 28.0159 68.6902 26.5854Z" fill="url(#paint5_linear_28_173)"/>
<path d="M24.1729 65.9163C21.1751 53.7454 26.691 45.2919 30.1684 34.35C32.1169 28.3545 32.297 20.4703 24.7126 26.9455C17.1283 33.4206 13.9205 48.1997 14.7299 58.1222C15.0296 61.9294 15.8692 69.1539 19.0768 71.732C25.2222 76.5884 25.1621 70.0532 24.1729 65.9163Z" fill="white"/>
<path d="M40.6308 88.4594C39.2218 85.6115 31.0381 78.8665 31.0381 84.832C31.0381 89.5985 41.4404 93.8254 40.8408 89.029C40.8015 88.8292 40.7305 88.6369 40.6308 88.4594Z" fill="white"/>
<path d="M130.893 16.1545C125.887 13.5764 102.385 22.1499 105.622 29.8841C108.62 36.8389 127.416 24.3383 131.163 22.09C131.72 21.8039 132.183 21.3639 132.496 20.8224C132.81 20.281 132.962 19.6609 132.933 19.0357C132.905 18.4106 132.698 17.8066 132.336 17.2959C131.974 16.7851 131.473 16.389 130.893 16.1545Z" fill="white"/>
<defs>
<linearGradient id="paint0_linear_28_173" x1="105.113" y1="120.655" x2="76.3943" y2="-7.76879" gradientUnits="userSpaceOnUse">
<stop stop-color="#FF094A"/>
<stop offset="0.16" stop-color="#FF0A4E"/>
<stop offset="0.32" stop-color="#FF0E59"/>
<stop offset="0.48" stop-color="#FF146D"/>
<stop offset="0.63" stop-color="#FF1D88"/>
<stop offset="0.78" stop-color="#FF28AB"/>
<stop offset="0.93" stop-color="#FF36D5"/>
<stop offset="1" stop-color="#FF3DEC"/>
</linearGradient>
<linearGradient id="paint1_linear_28_173" x1="72.3772" y1="67.8951" x2="69.3495" y2="22.7189" gradientUnits="userSpaceOnUse">
<stop stop-color="#FF0968"/>
<stop offset="0.12" stop-color="#FF0E6C"/>
<stop offset="0.27" stop-color="#FF1E77"/>
<stop offset="0.44" stop-color="#FF388A"/>
<stop offset="0.63" stop-color="#FF5CA5"/>
<stop offset="0.82" stop-color="#FF8AC6"/>
<stop offset="1" stop-color="#FFBDEC"/>
</linearGradient>
<linearGradient id="paint2_linear_28_173" x1="107.991" y1="120.176" x2="79.6916" y2="-6.38985" gradientUnits="userSpaceOnUse">
<stop stop-color="#C40951"/>
<stop offset="0.2" stop-color="#C40D56"/>
<stop offset="0.44" stop-color="#C41766"/>
<stop offset="0.72" stop-color="#C42780"/>
<stop offset="1" stop-color="#C43DA2"/>
</linearGradient>
<linearGradient id="paint3_linear_28_173" x1="98.368" y1="130.879" x2="91.9528" y2="34.9804" gradientUnits="userSpaceOnUse">
<stop stop-color="#C40951"/>
<stop offset="0.2" stop-color="#C40D56"/>
<stop offset="0.44" stop-color="#C41766"/>
<stop offset="0.72" stop-color="#C42780"/>
<stop offset="1" stop-color="#C43DA2"/>
</linearGradient>
<linearGradient id="paint4_linear_28_173" x1="112.188" y1="138.192" x2="134.701" y2="92.9254" gradientUnits="userSpaceOnUse">
<stop stop-color="#FF0968"/>
<stop offset="0.12" stop-color="#FF0E6C"/>
<stop offset="0.27" stop-color="#FF1E77"/>
<stop offset="0.44" stop-color="#FF388A"/>
<stop offset="0.63" stop-color="#FF5CA5"/>
<stop offset="0.82" stop-color="#FF8AC6"/>
<stop offset="1" stop-color="#FFBDEC"/>
</linearGradient>
<linearGradient id="paint5_linear_28_173" x1="44.7082" y1="47.3298" x2="42.9995" y2="21.6691" gradientUnits="userSpaceOnUse">
<stop stop-color="#FF0968"/>
<stop offset="0.12" stop-color="#FF0E6C"/>
<stop offset="0.27" stop-color="#FF1E77"/>
<stop offset="0.44" stop-color="#FF388A"/>
<stop offset="0.63" stop-color="#FF5CA5"/>
<stop offset="0.82" stop-color="#FF8AC6"/>
<stop offset="1" stop-color="#FFBDEC"/>
</linearGradient>
</defs>
</svg>
