<svg width="273" height="262" viewBox="0 0 273 262" fill="none" xmlns="http://www.w3.org/2000/svg">
<path d="M112.16 92.4608C103.61 90.4888 94.6513 91.319 86.6088 94.8289C78.5664 98.3389 71.8661 104.342 67.4976 111.953C63.1318 104.34 56.4318 98.3341 48.3885 94.8238C40.3453 91.3136 31.386 90.4851 22.8354 92.4608C-0.0140588 96.9676 -10.6277 142.712 14.5202 163.803C30.1588 176.918 49.4704 191.475 59.9036 199.249C62.0978 200.884 64.7612 201.767 67.4976 201.767C70.234 201.767 72.8973 200.884 75.0915 199.249C85.5473 191.475 104.836 176.918 120.498 163.803C145.623 142.712 135.009 96.9902 112.16 92.4608Z" fill="#9F9AE3"/>
<path d="M112.16 84.0558C103.609 82.0726 94.6471 82.8978 86.6022 86.4088C78.5573 89.9198 71.858 95.9298 67.4976 103.548C63.1371 95.9298 56.4378 89.9198 48.3929 86.4088C40.3481 82.8978 31.3861 82.0726 22.8354 84.0558C-0.0140588 88.5626 -10.6277 134.307 14.5202 155.376C30.1588 168.513 49.4704 183.07 59.9036 190.822C62.0978 192.457 64.7612 193.34 67.4976 193.34C70.234 193.34 72.8973 192.457 75.0915 190.822C85.5473 183.07 104.836 168.513 120.498 155.376C145.623 134.307 135.009 88.5626 112.16 84.0558Z" fill="#EBEAF9"/>
<path d="M106.82 90.5456C84.4659 86.0388 71.4186 106.455 67.4977 113.756C63.5993 106.455 50.5297 86.1289 28.176 90.5456C8.07574 94.5341 -1.27586 132.188 20.8525 150.734C34.1926 162.001 50.5071 174.259 59.8812 181.245C62.0838 182.88 64.7543 183.763 67.4977 183.763C70.241 183.763 72.9116 182.88 75.1142 181.245C84.4883 174.259 100.803 161.911 114.143 150.734C136.272 132.279 126.92 94.5341 106.82 90.5456Z" fill="url(#paint0_linear_28_186)"/>
<path style="mix-blend-mode:screen" opacity="0.52" d="M95.147 97.3514C94.3132 94.4219 91.9698 92.8446 87.1025 95.098C82.8715 97.2179 79.0553 100.08 75.8355 103.548C74.6637 104.788 66.6189 113.396 67.4978 114.973C64.0261 108.544 59.2158 102.935 53.3915 98.5232C45.4145 92.7545 32.2546 88.3603 23.534 94.6247C17.4956 98.6504 13.0927 104.7 11.1177 111.683C7.85032 124.189 12.5376 135.118 25.6974 136.177C32.0643 137.087 38.5562 135.984 44.2654 133.023C51.0256 129.597 57.3801 124.64 65.0642 123.311C75.7678 121.463 86.2011 123.063 92.443 112.044C94.4035 108.573 96.2962 101.498 95.147 97.3514Z" fill="url(#paint1_linear_28_186)"/>
<path style="mix-blend-mode:multiply" opacity="0.3" d="M123.562 105.891C121.309 111.998 117.253 117.158 113.49 122.341C109.584 127.553 104.956 132.181 99.7439 136.087C89.1449 144.069 76.8957 149.582 63.8923 152.221C50.5296 155.015 35.0937 155.15 22.3395 149.765C20.5467 148.996 18.8078 148.108 17.1343 147.106C18.2889 148.399 19.5313 149.611 20.8524 150.734C34.1925 162.001 50.507 174.259 59.8811 181.245C62.0838 182.88 64.7543 183.763 67.4976 183.763C70.241 183.763 72.9115 182.88 75.1141 181.245C84.4883 174.259 100.803 161.911 114.143 150.734C128.159 139.039 129.534 119.547 123.562 105.891Z" fill="url(#paint2_linear_28_186)"/>
<path style="mix-blend-mode:multiply" opacity="0.66" d="M118.154 129.733C111.527 141.715 101.399 151.388 89.1245 157.456C76.8501 163.525 63.015 165.701 49.4705 163.692C35.7877 161.295 23.3794 154.174 14.4078 143.569C16.2083 146.249 18.3779 148.661 20.8525 150.735C34.1926 162.002 50.5071 174.26 59.8812 181.246C62.0838 182.881 64.7544 183.764 67.4977 183.764C70.2411 183.764 72.9116 182.881 75.1142 181.246C84.4883 174.26 100.803 161.911 114.143 150.735C126.357 140.482 128.971 124.415 125.41 111.413C123.853 117.827 121.411 123.992 118.154 129.733Z" fill="url(#paint3_linear_28_186)"/>
<path style="mix-blend-mode:screen" opacity="0.52" d="M119.687 141.855C116.398 144.596 112.944 147.132 109.344 149.449C97.4005 157.696 82.618 162.203 76.4437 176.805C85.908 169.887 95.237 162.338 104.589 155.15C109.955 151.113 115.003 146.668 119.687 141.855Z" fill="url(#paint4_linear_28_186)"/>
<path style="mix-blend-mode:screen" opacity="0.52" d="M51.6341 102.984C50.9355 94.6015 37.7534 92.3482 31.6016 94.3087C23.7598 96.8325 16.6615 100.731 14.5883 109.316C11.4111 122.499 25.9905 120.854 34.283 117.451C38.9475 115.536 45.55 112.944 49.2682 108.775C50.0345 108.021 50.6395 107.118 51.0462 106.123C51.453 105.127 51.6529 104.059 51.6341 102.984Z" fill="url(#paint5_linear_28_186)"/>
<path d="M18.1706 132.549C15.9172 123.4 20.0635 117.046 22.6774 108.821C24.1421 104.314 24.2775 98.3874 18.5764 103.255C12.8753 108.122 10.464 119.231 11.0724 126.69C11.2977 129.552 11.9288 134.983 14.34 136.92C18.9594 140.571 18.9143 135.659 18.1706 132.549Z" fill="white"/>
<path d="M30.5419 149.494C29.4828 147.354 23.3312 142.283 23.3312 146.768C23.3312 150.351 31.1505 153.528 30.6998 149.922C30.6703 149.772 30.6169 149.628 30.5419 149.494Z" fill="white"/>
<path d="M98.3916 95.1432C94.6284 93.2052 76.9619 99.6499 79.3956 105.464C81.649 110.692 95.7778 101.295 98.5946 99.6049C99.0129 99.3898 99.3608 99.059 99.5966 98.652C99.8325 98.245 99.9464 97.7789 99.9251 97.309C99.9037 96.839 99.748 96.3851 99.4762 96.0011C99.2043 95.6172 98.8277 95.3194 98.3916 95.1432Z" fill="white"/>
<path d="M227.428 150.914C220.52 151.618 214.021 154.525 208.892 159.206C203.764 163.887 200.276 170.093 198.946 176.908C193.733 172.32 187.182 169.53 180.262 168.953C173.342 168.375 166.419 170.04 160.518 173.702C144.553 182.907 148.272 219.879 172.49 229.263C187.55 235.097 205.729 241.074 215.528 244.236C217.588 244.901 219.809 244.883 221.858 244.185C223.908 243.486 225.678 242.145 226.904 240.361C232.753 231.87 243.488 216.045 251.873 202.226C265.313 180.018 245.699 148.477 227.428 150.914Z" fill="#9F9AE3"/>
<path d="M225.283 144.618C218.373 145.314 211.87 148.218 206.74 152.9C201.609 157.583 198.124 163.794 196.801 170.612C191.592 166.018 185.04 163.226 178.119 162.648C171.197 162.071 164.273 163.739 158.374 167.406C142.409 176.611 146.128 213.583 170.34 222.95C185.406 228.801 203.585 234.778 213.378 237.923C215.439 238.588 217.659 238.57 219.709 237.872C221.758 237.174 223.528 235.833 224.754 234.048C230.609 225.574 241.344 209.749 249.723 195.913C263.169 173.722 243.549 142.164 225.283 144.618Z" fill="#EBEAF9"/>
<path d="M222.939 150.841C205.045 153.168 200.48 171.789 199.406 178.258C194.623 173.784 179.648 161.893 164.03 170.904C149.992 179.02 152.593 209.611 173.899 217.857C186.766 222.893 202.114 227.913 210.918 230.755C212.985 231.418 215.211 231.398 217.266 230.698C219.32 229.998 221.096 228.655 222.328 226.868C227.568 219.244 236.638 205.833 243.779 194.057C255.647 174.588 239.013 148.701 222.939 150.841Z" fill="url(#paint6_linear_28_186)"/>
<path style="mix-blend-mode:screen" opacity="0.52" d="M215.932 158.917C214.56 156.936 212.402 156.352 209.331 159.282C206.702 161.949 204.574 165.066 203.047 168.486C202.486 169.713 198.656 178.213 199.716 179.171C195.476 175.241 190.441 172.266 184.953 170.447C177.506 168.161 166.528 168.227 161.594 175.144C158.098 179.7 156.343 185.355 156.645 191.089C157.388 201.291 163.687 208.282 173.815 205.718C178.816 204.775 183.398 202.292 186.919 198.618C191.109 194.327 194.604 188.993 200.02 186.037C207.567 181.922 215.79 180.459 217.654 170.612C218.238 167.513 217.85 161.73 215.932 158.917Z" fill="url(#paint7_linear_28_186)"/>
<path style="mix-blend-mode:multiply" opacity="0.3" d="M239.395 158.065C239.265 163.214 237.543 168.114 236.046 172.956C234.451 177.857 232.165 182.505 229.257 186.759C223.354 195.443 215.585 202.697 206.518 207.991C197.221 213.493 185.694 217.532 174.766 216.752C173.227 216.634 171.698 216.412 170.189 216.088C171.384 216.762 172.623 217.353 173.899 217.857C186.766 222.894 202.114 227.914 210.918 230.755C212.985 231.418 215.211 231.398 217.265 230.698C219.32 229.998 221.095 228.656 222.328 226.869C227.568 219.245 236.638 205.833 243.779 194.057C251.295 181.721 247.351 166.77 239.395 158.065Z" fill="url(#paint8_linear_28_186)"/>
<path style="mix-blend-mode:multiply" opacity="0.66" d="M241.426 177.303C239.519 187.969 234.4 197.798 226.754 205.475C219.108 213.152 209.3 218.312 198.642 220.262C187.781 221.958 176.67 219.789 167.244 214.134C169.277 215.682 171.517 216.936 173.9 217.857C186.767 222.894 202.114 227.914 210.918 230.755C212.985 231.418 215.211 231.398 217.266 230.698C219.321 229.999 221.096 228.656 222.329 226.869C227.568 219.245 236.639 205.833 243.78 194.058C250.313 183.262 248.172 170.56 242.188 161.729C242.658 166.931 242.401 172.172 241.426 177.303Z" fill="url(#paint9_linear_28_186)"/>
<path style="mix-blend-mode:screen" opacity="0.52" d="M245.666 185.992C243.903 188.885 241.962 191.666 239.856 194.319C233.014 203.544 223.091 210.691 222.191 223.204C227.516 215.607 232.578 207.573 237.749 199.803C240.739 195.41 243.386 190.792 245.666 185.992Z" fill="url(#paint10_linear_28_186)"/>
<path style="mix-blend-mode:screen" opacity="0.52" d="M184.775 174.237C182.113 168.136 171.664 169.811 167.556 172.849C162.326 176.74 158.004 181.471 158.641 188.431C159.624 199.116 170.125 194.164 175.469 189.5C178.474 186.875 182.759 183.25 184.48 179.179C184.862 178.418 185.085 177.588 185.135 176.738C185.186 175.889 185.063 175.038 184.775 174.237Z" fill="url(#paint11_linear_28_186)"/>
<path d="M167.251 204.92C163.229 198.642 164.714 192.824 164.574 185.996C164.521 182.247 163.111 177.773 160.082 182.873C157.053 187.974 158.081 196.91 160.44 202.342C161.339 204.428 163.197 208.335 165.497 209.172C169.889 210.728 168.602 207.06 167.251 204.92Z" fill="white"/>
<path d="M180.841 214.457C179.502 213.123 173.6 210.895 174.744 214.254C175.658 216.938 182.326 217.323 181.069 214.737C181.008 214.632 180.931 214.538 180.841 214.457Z" fill="white"/>
<path d="M217.799 156.435C214.486 155.944 202.896 165.278 206.203 169.012C209.224 172.353 217.41 161.71 219.089 159.726C219.348 159.458 219.524 159.121 219.597 158.756C219.669 158.391 219.636 158.013 219.5 157.666C219.364 157.32 219.132 157.019 218.83 156.801C218.528 156.583 218.17 156.456 217.799 156.435Z" fill="white"/>
<path d="M235.599 12.0286C224.728 9.52132 213.339 10.5769 203.114 15.0394C192.889 19.5019 184.37 27.1346 178.816 36.8103C173.265 27.1314 164.747 19.4959 154.521 15.0329C144.295 10.57 132.904 9.51662 122.033 12.0286C92.9821 17.7585 79.488 75.9168 111.461 102.733C131.344 119.407 155.896 137.914 169.161 147.798C171.951 149.877 175.337 151 178.816 151C182.295 151 185.681 149.877 188.471 147.798C201.764 137.914 226.288 119.407 246.199 102.733C278.144 75.9168 264.65 17.7872 235.599 12.0286Z" fill="#9F9AE3"/>
<path d="M235.599 1.34236C224.728 -1.17905 213.333 -0.129956 203.105 4.3339C192.877 8.79776 184.36 16.4388 178.816 26.1242C173.272 16.4388 164.755 8.79776 154.526 4.3339C144.298 -0.129956 132.904 -1.17905 122.033 1.34236C92.9821 7.07225 79.488 65.2307 111.461 92.018C131.344 108.721 155.896 127.228 169.161 137.084C171.951 139.162 175.337 140.285 178.816 140.285C182.295 140.285 185.681 139.162 188.471 137.084C201.764 127.228 226.288 108.721 246.199 92.018C278.144 65.2307 264.65 7.07225 235.599 1.34236Z" fill="#EBEAF9"/>
<path d="M228.809 9.59329C200.389 3.86339 183.801 29.82 178.816 39.1024C173.86 29.82 157.243 3.97799 128.823 9.59329C103.267 14.6642 91.3778 62.5376 119.512 86.1161C136.472 100.441 157.214 116.026 169.132 124.907C171.933 126.987 175.328 128.109 178.816 128.109C182.304 128.109 185.699 126.987 188.499 124.907C200.418 116.026 221.16 100.326 238.12 86.1161C266.254 62.6522 254.365 14.6642 228.809 9.59329Z" fill="url(#paint12_linear_28_186)"/>
<path style="mix-blend-mode:screen" opacity="0.52" d="M213.969 18.2458C212.909 14.5213 209.929 12.5159 203.741 15.3808C198.362 18.0761 193.51 21.7149 189.416 26.1244C187.927 27.7001 177.699 38.6442 178.816 40.6497C174.402 32.476 168.286 25.3442 160.881 19.7356C150.739 12.4013 134.008 6.81455 122.921 14.7791C115.244 19.8974 109.646 27.5881 107.135 36.4668C102.981 52.3672 108.94 66.2622 125.671 67.6087C133.766 68.7653 142.02 67.363 149.278 63.5979C157.873 59.2432 165.952 52.9403 175.722 51.25C189.33 48.9007 202.595 50.9348 210.531 36.9253C213.024 32.5132 215.43 23.5173 213.969 18.2458Z" fill="url(#paint13_linear_28_186)"/>
<path style="mix-blend-mode:multiply" opacity="0.3" d="M250.096 29.1035C247.231 36.8675 242.074 43.4284 237.289 50.0178C232.324 56.6443 226.44 62.5289 219.813 67.4939C206.338 77.6427 190.764 84.6511 174.232 88.0068C157.243 91.5594 137.618 91.7314 121.402 84.8841C119.123 83.9069 116.912 82.7775 114.784 81.5035C116.252 83.1477 117.832 84.6888 119.512 86.116C136.472 100.441 157.214 116.026 169.132 124.907C171.933 126.987 175.328 128.109 178.816 128.109C182.304 128.109 185.699 126.987 188.499 124.907C200.418 116.026 221.16 100.326 238.12 86.116C255.94 71.247 257.688 46.4651 250.096 29.1035Z" fill="url(#paint14_linear_28_186)"/>
<path style="mix-blend-mode:multiply" opacity="0.66" d="M243.22 59.4156C234.794 74.6496 221.918 86.9471 206.312 94.6628C190.707 102.378 173.117 105.144 155.897 102.59C138.5 99.5438 122.725 90.4899 111.318 77.0064C113.607 80.4135 116.366 83.4806 119.512 86.1169C136.472 100.442 157.214 116.027 169.133 124.908C171.933 126.987 175.328 128.11 178.816 128.11C182.304 128.11 185.699 126.987 188.5 124.908C200.418 116.027 221.16 100.327 238.121 86.1169C253.649 73.0814 256.972 52.6543 252.445 36.1235C250.466 44.2779 247.361 52.1171 243.22 59.4156Z" fill="url(#paint15_linear_28_186)"/>
<path style="mix-blend-mode:screen" opacity="0.52" d="M245.168 74.8276C240.988 78.3129 236.596 81.5373 232.018 84.4825C216.834 94.9682 198.04 100.698 190.19 119.263C202.223 110.468 214.084 100.87 225.973 91.7309C232.796 86.598 239.214 80.9468 245.168 74.8276Z" fill="url(#paint16_linear_28_186)"/>
<path style="mix-blend-mode:screen" opacity="0.52" d="M158.647 25.4076C157.759 14.75 140.999 11.8851 133.178 14.3776C123.208 17.5864 114.183 22.5427 111.547 33.4581C107.508 50.2181 126.044 48.1266 136.587 43.8005C142.517 41.3653 150.912 38.0707 155.639 32.7706C156.613 31.8113 157.382 30.6639 157.9 29.3982C158.417 28.1324 158.671 26.7747 158.647 25.4076Z" fill="url(#paint17_linear_28_186)"/>
<path d="M116.102 62.9962C113.237 51.3645 118.509 43.2854 121.832 32.8284C123.694 27.0985 123.866 19.5636 116.618 25.7519C109.37 31.9401 106.304 46.0644 107.077 55.5474C107.364 59.1859 108.166 66.0903 111.232 68.5542C117.105 73.1954 117.047 66.9498 116.102 62.9962Z" fill="white"/>
<path d="M131.831 84.5405C130.484 81.8188 122.663 75.3727 122.663 81.0739C122.663 85.6292 132.604 89.6688 132.031 85.0849C131.994 84.894 131.926 84.7102 131.831 84.5405Z" fill="white"/>
<path d="M218.094 15.439C213.31 12.9751 190.849 21.1688 193.943 28.5603C196.808 35.207 214.771 23.2602 218.352 21.1115C218.884 20.8381 219.326 20.4175 219.626 19.9001C219.926 19.3826 220.071 18.79 220.044 18.1925C220.017 17.5951 219.819 17.0179 219.473 16.5298C219.128 16.0416 218.649 15.6631 218.094 15.439Z" fill="white"/>
<defs>
<linearGradient id="paint0_linear_28_186" x1="79.0127" y1="173.696" x2="57.4251" y2="77.1604" gradientUnits="userSpaceOnUse">
<stop stop-color="#FF094A"/>
<stop offset="0.16" stop-color="#FF0A4E"/>
<stop offset="0.32" stop-color="#FF0E59"/>
<stop offset="0.48" stop-color="#FF146D"/>
<stop offset="0.63" stop-color="#FF1D88"/>
<stop offset="0.78" stop-color="#FF28AB"/>
<stop offset="0.93" stop-color="#FF36D5"/>
<stop offset="1" stop-color="#FF3DEC"/>
</linearGradient>
<linearGradient id="paint1_linear_28_186" x1="54.4055" y1="134.037" x2="52.1296" y2="100.078" gradientUnits="userSpaceOnUse">
<stop stop-color="#FF0968"/>
<stop offset="0.12" stop-color="#FF0E6C"/>
<stop offset="0.27" stop-color="#FF1E77"/>
<stop offset="0.44" stop-color="#FF388A"/>
<stop offset="0.63" stop-color="#FF5CA5"/>
<stop offset="0.82" stop-color="#FF8AC6"/>
<stop offset="1" stop-color="#FFBDEC"/>
</linearGradient>
<linearGradient id="paint2_linear_28_186" x1="81.1758" y1="173.335" x2="59.9037" y2="78.1968" gradientUnits="userSpaceOnUse">
<stop stop-color="#C40951"/>
<stop offset="0.2" stop-color="#C40D56"/>
<stop offset="0.44" stop-color="#C41766"/>
<stop offset="0.72" stop-color="#C42780"/>
<stop offset="1" stop-color="#C43DA2"/>
</linearGradient>
<linearGradient id="paint3_linear_28_186" x1="73.9426" y1="181.381" x2="69.1203" y2="109.295" gradientUnits="userSpaceOnUse">
<stop stop-color="#C40951"/>
<stop offset="0.2" stop-color="#C40D56"/>
<stop offset="0.44" stop-color="#C41766"/>
<stop offset="0.72" stop-color="#C42780"/>
<stop offset="1" stop-color="#C43DA2"/>
</linearGradient>
<linearGradient id="paint4_linear_28_186" x1="84.3306" y1="186.878" x2="101.254" y2="152.852" gradientUnits="userSpaceOnUse">
<stop stop-color="#FF0968"/>
<stop offset="0.12" stop-color="#FF0E6C"/>
<stop offset="0.27" stop-color="#FF1E77"/>
<stop offset="0.44" stop-color="#FF388A"/>
<stop offset="0.63" stop-color="#FF5CA5"/>
<stop offset="0.82" stop-color="#FF8AC6"/>
<stop offset="1" stop-color="#FFBDEC"/>
</linearGradient>
<linearGradient id="paint5_linear_28_186" x1="33.6069" y1="118.578" x2="32.3225" y2="99.2886" gradientUnits="userSpaceOnUse">
<stop stop-color="#FF0968"/>
<stop offset="0.12" stop-color="#FF0E6C"/>
<stop offset="0.27" stop-color="#FF1E77"/>
<stop offset="0.44" stop-color="#FF388A"/>
<stop offset="0.63" stop-color="#FF5CA5"/>
<stop offset="0.82" stop-color="#FF8AC6"/>
<stop offset="1" stop-color="#FFBDEC"/>
</linearGradient>
<linearGradient id="paint6_linear_28_186" x1="223.323" y1="220.219" x2="182.525" y2="153.416" gradientUnits="userSpaceOnUse">
<stop stop-color="#FF094A"/>
<stop offset="0.16" stop-color="#FF0A4E"/>
<stop offset="0.32" stop-color="#FF0E59"/>
<stop offset="0.48" stop-color="#FF146D"/>
<stop offset="0.63" stop-color="#FF1D88"/>
<stop offset="0.78" stop-color="#FF28AB"/>
<stop offset="0.93" stop-color="#FF36D5"/>
<stop offset="1" stop-color="#FF3DEC"/>
</linearGradient>
<linearGradient id="paint7_linear_28_186" x1="194.773" y1="196.79" x2="184.405" y2="171.934" gradientUnits="userSpaceOnUse">
<stop stop-color="#FF0968"/>
<stop offset="0.12" stop-color="#FF0E6C"/>
<stop offset="0.27" stop-color="#FF1E77"/>
<stop offset="0.44" stop-color="#FF388A"/>
<stop offset="0.63" stop-color="#FF5CA5"/>
<stop offset="0.82" stop-color="#FF8AC6"/>
<stop offset="1" stop-color="#FFBDEC"/>
</linearGradient>
<linearGradient id="paint8_linear_28_186" x1="224.851" y1="219.398" x2="184.646" y2="153.56" gradientUnits="userSpaceOnUse">
<stop stop-color="#C40951"/>
<stop offset="0.2" stop-color="#C40D56"/>
<stop offset="0.44" stop-color="#C41766"/>
<stop offset="0.72" stop-color="#C42780"/>
<stop offset="1" stop-color="#C43DA2"/>
</linearGradient>
<linearGradient id="paint9_linear_28_186" x1="221.485" y1="227.269" x2="199.483" y2="174.503" gradientUnits="userSpaceOnUse">
<stop stop-color="#C40951"/>
<stop offset="0.2" stop-color="#C40D56"/>
<stop offset="0.44" stop-color="#C41766"/>
<stop offset="0.72" stop-color="#C42780"/>
<stop offset="1" stop-color="#C43DA2"/>
</linearGradient>
<linearGradient id="paint10_linear_28_186" x1="230.669" y1="228.737" x2="234.665" y2="198.932" gradientUnits="userSpaceOnUse">
<stop stop-color="#FF0968"/>
<stop offset="0.12" stop-color="#FF0E6C"/>
<stop offset="0.27" stop-color="#FF1E77"/>
<stop offset="0.44" stop-color="#FF388A"/>
<stop offset="0.63" stop-color="#FF5CA5"/>
<stop offset="0.82" stop-color="#FF8AC6"/>
<stop offset="1" stop-color="#FFBDEC"/>
</linearGradient>
<linearGradient id="paint11_linear_28_186" x1="175.25" y1="190.517" x2="169.367" y2="176.396" gradientUnits="userSpaceOnUse">
<stop stop-color="#FF0968"/>
<stop offset="0.12" stop-color="#FF0E6C"/>
<stop offset="0.27" stop-color="#FF1E77"/>
<stop offset="0.44" stop-color="#FF388A"/>
<stop offset="0.63" stop-color="#FF5CA5"/>
<stop offset="0.82" stop-color="#FF8AC6"/>
<stop offset="1" stop-color="#FFBDEC"/>
</linearGradient>
<linearGradient id="paint12_linear_28_186" x1="193.456" y1="115.31" x2="166.01" y2="-7.4245" gradientUnits="userSpaceOnUse">
<stop stop-color="#FF094A"/>
<stop offset="0.16" stop-color="#FF0A4E"/>
<stop offset="0.32" stop-color="#FF0E59"/>
<stop offset="0.48" stop-color="#FF146D"/>
<stop offset="0.63" stop-color="#FF1D88"/>
<stop offset="0.78" stop-color="#FF28AB"/>
<stop offset="0.93" stop-color="#FF36D5"/>
<stop offset="1" stop-color="#FF3DEC"/>
</linearGradient>
<linearGradient id="paint13_linear_28_186" x1="162.171" y1="64.887" x2="159.277" y2="21.7123" gradientUnits="userSpaceOnUse">
<stop stop-color="#FF0968"/>
<stop offset="0.12" stop-color="#FF0E6C"/>
<stop offset="0.27" stop-color="#FF1E77"/>
<stop offset="0.44" stop-color="#FF388A"/>
<stop offset="0.63" stop-color="#FF5CA5"/>
<stop offset="0.82" stop-color="#FF8AC6"/>
<stop offset="1" stop-color="#FFBDEC"/>
</linearGradient>
<linearGradient id="paint14_linear_28_186" x1="196.206" y1="114.851" x2="169.161" y2="-6.10671" gradientUnits="userSpaceOnUse">
<stop stop-color="#C40951"/>
<stop offset="0.2" stop-color="#C40D56"/>
<stop offset="0.44" stop-color="#C41766"/>
<stop offset="0.72" stop-color="#C42780"/>
<stop offset="1" stop-color="#C43DA2"/>
</linearGradient>
<linearGradient id="paint15_linear_28_186" x1="187.01" y1="125.08" x2="180.879" y2="33.4305" gradientUnits="userSpaceOnUse">
<stop stop-color="#C40951"/>
<stop offset="0.2" stop-color="#C40D56"/>
<stop offset="0.44" stop-color="#C41766"/>
<stop offset="0.72" stop-color="#C42780"/>
<stop offset="1" stop-color="#C43DA2"/>
</linearGradient>
<linearGradient id="paint16_linear_28_186" x1="200.217" y1="132.069" x2="221.733" y2="88.8085" gradientUnits="userSpaceOnUse">
<stop stop-color="#FF0968"/>
<stop offset="0.12" stop-color="#FF0E6C"/>
<stop offset="0.27" stop-color="#FF1E77"/>
<stop offset="0.44" stop-color="#FF388A"/>
<stop offset="0.63" stop-color="#FF5CA5"/>
<stop offset="0.82" stop-color="#FF8AC6"/>
<stop offset="1" stop-color="#FFBDEC"/>
</linearGradient>
<linearGradient id="paint17_linear_28_186" x1="135.727" y1="45.233" x2="134.094" y2="20.7091" gradientUnits="userSpaceOnUse">
<stop stop-color="#FF0968"/>
<stop offset="0.12" stop-color="#FF0E6C"/>
<stop offset="0.27" stop-color="#FF1E77"/>
<stop offset="0.44" stop-color="#FF388A"/>
<stop offset="0.63" stop-color="#FF5CA5"/>
<stop offset="0.82" stop-color="#FF8AC6"/>
<stop offset="1" stop-color="#FFBDEC"/>
</linearGradient>
</defs>
</svg>
