<svg width="365" height="365" viewBox="0 0 365 365" fill="none" xmlns="http://www.w3.org/2000/svg">
<path d="M365 57.9751V13.1429L192.655 173.074C192.164 172.545 191.635 172.053 191.067 171.606L328.145 0H288L189.32 170.431C188.746 170.106 188.145 169.825 187.525 169.583L254.224 0H224.195L185.684 169.012C185.029 168.858 184.359 168.747 183.671 168.689L196.225 0H168.998L181.356 168.688C180.664 168.745 179.989 168.854 179.329 169.008L141.043 0H111.013L177.486 169.579C176.865 169.82 176.264 170.1 175.691 170.424L77.2325 0H37.1241L173.978 171.573C173.395 172.028 172.852 172.529 172.349 173.07L0 12.848V57.7321L171.003 174.739C170.622 175.303 170.295 175.904 169.999 176.523L0 94.3153V125.994L169.271 178.327C169.076 178.945 168.937 179.586 168.83 180.238L0 154.826V182.264L168.633 182.443C168.633 182.462 168.63 182.481 168.63 182.5C168.63 183.235 168.704 183.952 168.814 184.656L0 209.687V238.49L169.24 186.574C169.433 187.203 169.681 187.806 169.958 188.394L0 270.129V306.662L170.951 190.176C171.351 190.777 171.806 191.338 172.293 191.869L0 351.418V365H36.4606L173.888 193.361C174.436 193.796 175.018 194.189 175.629 194.538L76.6945 365H110.515L177.435 195.402C178.032 195.637 178.65 195.829 179.284 195.98L140.578 365H168.556L181.29 196.309C181.69 196.344 182.092 196.37 182.5 196.37C182.883 196.37 183.258 196.343 183.633 196.313L195.809 365H223.768L185.71 195.982C186.331 195.834 186.936 195.646 187.522 195.418L253.789 365H287.545L189.331 194.563C189.946 194.213 190.531 193.817 191.084 193.381L327.62 365H365V352.43L192.668 191.91C193.159 191.381 193.618 190.823 194.022 190.221L365 307.483V270.848L195.036 188.406C195.309 187.827 195.558 187.233 195.749 186.613L365 239.15V210.297L196.177 184.712C196.28 184.07 196.346 183.415 196.358 182.747L365 182.732V155.034L196.171 180.25C196.065 179.597 195.927 178.955 195.732 178.336L365 126.218V94.5518L195.002 176.525C194.706 175.908 194.382 175.309 194.002 174.747L365 57.9751Z" fill="url(#paint0_radial_28_107)"/>
<defs>
<radialGradient id="paint0_radial_28_107" cx="0" cy="0" r="1" gradientUnits="userSpaceOnUse" gradientTransform="translate(182.5 182.5) rotate(90) scale(182.5)">
<stop stop-color="#91DAFF" stop-opacity="0.3"/>
<stop offset="1" stop-color="#7CD3FF" stop-opacity="0"/>
</radialGradient>
</defs>
</svg>
