<svg width="317" height="317" viewBox="0 0 317 317" fill="none" xmlns="http://www.w3.org/2000/svg">
<path d="M317 50.351V11.4145L167.32 150.314C166.893 149.854 166.434 149.427 165.941 149.039L284.992 0H250.126L164.423 148.018C163.925 147.736 163.403 147.492 162.864 147.282L220.792 0H194.712L161.266 146.786C160.697 146.652 160.114 146.555 159.517 146.505L170.42 0H146.774L157.507 146.504C156.905 146.554 156.319 146.649 155.746 146.782L122.495 0H96.4143L154.146 147.278C153.606 147.487 153.084 147.731 152.586 148.012L67.0759 0H32.2421L151.099 149.01C150.592 149.405 150.121 149.84 149.684 150.31L0 11.1584V50.1399L148.515 151.76C148.184 152.249 147.9 152.772 147.643 153.309L0 81.9122V109.425L147.011 154.876C146.841 155.412 146.721 155.969 146.628 156.535L0 134.466V158.295L146.457 158.451C146.457 158.467 146.454 158.484 146.454 158.5C146.454 159.138 146.518 159.761 146.614 160.373L0 182.111V207.127L146.984 162.038C147.151 162.585 147.367 163.109 147.607 163.619L0 234.605V266.334L148.469 165.167C148.818 165.689 149.213 166.176 149.635 166.637L0 305.204V317H31.6658L151.021 167.933C151.497 168.311 152.002 168.652 152.533 168.955L66.6087 317H95.9819L154.101 169.705C154.62 169.909 155.156 170.076 155.707 170.207L122.091 317H146.39L157.449 170.493C157.796 170.523 158.146 170.546 158.5 170.546C158.832 170.546 159.159 170.523 159.484 170.497L170.059 317H194.341L161.288 170.209C161.827 170.081 162.353 169.917 162.861 169.719L220.414 317H249.731L164.432 168.976C164.967 168.673 165.475 168.329 165.955 167.95L284.535 317H317V306.083L167.331 166.673C167.757 166.213 168.156 165.728 168.506 165.206L317 267.047V235.229L169.387 163.63C169.625 163.126 169.84 162.611 170.007 162.072L317 207.7V182.641L170.379 160.421C170.468 159.863 170.525 159.295 170.535 158.715L317 158.702V134.646L170.374 156.546C170.281 155.979 170.161 155.421 169.992 154.884L317 109.62V82.1176L169.358 153.311C169.101 152.775 168.819 152.254 168.489 151.766L317 50.351Z" fill="url(#paint0_radial_28_255)"/>
<defs>
<radialGradient id="paint0_radial_28_255" cx="0" cy="0" r="1" gradientUnits="userSpaceOnUse" gradientTransform="translate(158.5 158.5) rotate(90) scale(158.5)">
<stop stop-color="#91DAFF" stop-opacity="0.3"/>
<stop offset="1" stop-color="#7CD3FF" stop-opacity="0"/>
</radialGradient>
</defs>
</svg>
