<svg width="147" height="173" viewBox="0 0 147 173" fill="none" xmlns="http://www.w3.org/2000/svg">
<path d="M111.547 9.46207C112.152 9.30888 112.765 9.18828 113.383 9.10079L112.52 9.21719C114.068 9.01325 115.636 9.01586 117.184 9.22495L116.321 9.10855C117.869 9.32627 119.382 9.74182 120.824 10.345L120.048 10.0174C121.403 10.5931 122.679 11.3371 123.848 12.2316L123.187 11.7203C124.334 12.6207 125.364 13.6596 126.255 14.8132L125.746 14.1553C126.86 15.6262 127.784 17.2318 128.496 18.934C128.386 18.6753 128.277 18.4166 128.168 18.158C129.224 20.6818 129.873 23.347 130.244 26.0537L130.128 25.1914C130.714 29.5889 130.617 34.0321 130.634 38.459C130.651 42.9203 130.713 47.3687 130.501 51.824C130.38 54.3533 130.196 56.876 129.948 59.392C129.871 60.1732 130.367 61.1579 130.901 61.6925C131.465 62.2564 132.391 62.6815 133.201 62.641C134.042 62.6031 134.915 62.3272 135.501 61.6925C136.117 61.0217 136.364 60.2965 136.45 59.392C136.947 54.3547 137.178 49.2941 137.187 44.2327C137.192 41.689 137.134 39.1453 137.134 36.6025C137.134 34.1347 137.134 31.6652 137.001 29.2C136.858 26.6133 136.57 24.0204 136.019 21.4906C135.522 19.2601 134.788 17.089 133.83 15.0142C131.964 10.9219 128.86 7.3185 124.89 5.15164C120.32 2.65109 114.878 1.90438 109.817 3.18483C108.167 3.60302 107.011 5.5388 107.544 7.18657C108.097 8.89298 109.778 9.907 111.547 9.45949V9.46207Z" fill="#888888"/>
<path d="M114.951 5.39259C116.689 5.23479 118.415 5.36241 120.085 5.88149C121.593 6.35056 122.982 7.12142 124.263 8.03714C126.774 9.83667 129.016 12.1613 130.54 14.8576C131.473 16.5097 132.14 18.2816 132.687 20.0941C132.989 21.0935 134.56 20.6675 134.255 19.663C133.241 16.3002 131.755 13.1581 129.41 10.5161C127.156 7.97592 124.328 5.68748 121.109 4.51222C119.144 3.79827 117.027 3.57753 114.951 3.76551C114.513 3.80517 114.137 4.11041 114.137 4.57862C114.137 4.98819 114.511 5.43225 114.951 5.39259Z" fill="#AAAAAA"/>
<path d="M71.8528 3.51415C69.6842 2.96489 67.382 2.74588 65.1522 2.96576C63.929 3.07397 62.7163 3.27897 61.5255 3.57882C60.3434 3.88837 59.2155 4.33933 58.0981 4.83082C53.9773 6.64588 50.6361 10.0397 48.5158 13.9768C46.2299 18.2226 45.2168 22.9193 44.7986 27.6867C44.5804 30.1717 44.5399 32.6688 44.5399 35.1625C44.5399 37.6562 44.514 40.1748 44.4925 42.6823C44.4318 48.3706 44.6756 54.0582 45.2228 59.7205C45.309 60.6043 45.5272 61.3726 46.1756 62.021C46.7404 62.5858 47.6656 63.01 48.4761 62.9695C49.3177 62.9324 50.1903 62.6556 50.7766 62.021C51.3267 61.4174 51.8113 60.5664 51.7294 59.7205C51.2879 55.2505 51.056 50.7608 51.0034 46.2693C50.9784 44.0541 51.0206 41.8407 51.0379 39.6299C51.0551 37.419 51.0301 35.1953 51.0637 32.9775C51.1017 30.4856 51.2198 27.9928 51.5492 25.5207L51.4328 26.383C51.8044 23.6772 52.4528 21.0111 53.51 18.4873C53.4008 18.7465 53.2915 19.0052 53.1823 19.2633C53.8939 17.5598 54.8175 15.9528 55.9312 14.4804L55.4225 15.1391C56.3132 13.9852 57.3434 12.946 58.4895 12.0453L57.8316 12.5541C58.9993 11.6607 60.2745 10.9173 61.6273 10.3415L60.8512 10.6692C62.2932 10.0665 63.8064 9.65094 65.354 9.4327L64.4917 9.5491C66.0392 9.33987 67.6076 9.33756 69.1557 9.5422L68.2934 9.4258C68.9114 9.51275 69.5242 9.63306 70.1291 9.78622C70.9757 10.0032 71.8734 9.88589 72.6357 9.45857C73.3109 9.06365 73.9541 8.28934 74.1309 7.51417C74.5155 5.82414 73.6239 3.95908 71.8588 3.51243L71.8528 3.51415Z" fill="#888888"/>
<path d="M19.0852 103.108C29.6257 103.108 38.1705 94.4659 38.1705 83.8055C38.1705 73.145 29.6257 64.5029 19.0852 64.5029C8.54475 64.5029 0 73.145 0 83.8055C0 94.4659 8.54475 103.108 19.0852 103.108Z" fill="#666666"/>
<path d="M75.0405 13.7525C78.634 13.7525 81.5471 10.8394 81.5471 7.24586C81.5471 3.65236 78.634 0.739258 75.0405 0.739258C71.447 0.739258 68.5339 3.65236 68.5339 7.24586C68.5339 10.8394 71.447 13.7525 75.0405 13.7525Z" fill="#666666"/>
<path d="M111.399 8.50773C111.975 4.96066 109.566 1.61843 106.019 1.04266C102.472 0.466892 99.1298 2.8756 98.554 6.42268C97.9782 9.96975 100.387 13.312 103.934 13.8877C107.481 14.4635 110.823 12.0548 111.399 8.50773Z" fill="#666666"/>
<path d="M131.175 58.166C131.175 58.2522 131.181 58.3385 131.181 58.4299C131.181 77.666 113.197 93.316 91.0864 93.316C68.9755 93.316 50.9914 77.666 50.9914 58.4299C50.9914 58.3436 50.9983 58.2574 50.9991 58.166H45.3039C45.3039 58.2522 45.2961 58.3385 45.2961 58.4299C45.2961 80.8098 65.8395 99.0181 91.0898 99.0181C116.34 99.0181 136.884 80.8098 136.884 58.4299C136.884 58.3436 136.877 58.2574 136.877 58.166H131.175Z" fill="#BB0000"/>
<path d="M91.0898 100.645C64.9427 100.645 43.6699 81.7076 43.6699 58.4301C43.6699 58.3611 43.6699 58.2922 43.6751 58.224V58.1542L43.6863 56.54H52.6417L52.6228 58.4301C52.6228 76.7695 69.8774 91.69 91.0873 91.69C112.297 91.69 129.553 76.7729 129.553 58.4301L129.545 58.1783L129.534 56.54H138.489L138.503 58.224C138.503 58.2922 138.508 58.3611 138.508 58.4301C138.511 81.7076 117.238 100.645 91.0898 100.645ZM46.95 59.7925C47.7665 80.6479 67.2536 97.3921 91.0898 97.3921C114.926 97.3921 134.413 80.6479 135.231 59.7925H132.78C131.959 79.2976 113.573 94.9433 91.0898 94.9433C68.6064 94.9433 50.2188 79.2976 49.4005 59.7925H46.95Z" fill="#BB0000"/>
<path d="M118.978 172.735C94.6103 172.735 86.6991 146.273 85.5497 126.294C75.995 131.311 67.5673 138.156 58.3342 143.702C49.7246 148.875 39.5974 153.38 29.3339 151.426C19.9284 149.636 11.536 142.353 7.44803 133.805C4.17145 126.951 3.82051 119.206 5.1458 111.817C6.43919 104.602 9.23291 97.8182 12.2206 91.165C14.3651 92.1282 16.951 92.8715 18.9014 94.1657C19.0739 94.2804 19.8042 94.4114 19.8973 94.6132C20.1112 95.0719 18.8316 97.1448 18.6151 97.6544C17.5201 100.234 16.4949 102.846 15.6102 105.501C12.8691 113.74 11.2351 123.16 15.5912 131.156C20.1069 139.447 29.1554 144.854 38.6239 143.055C49.6858 140.954 59.3422 133.005 68.4494 126.877C71.2828 124.97 74.1403 123.097 77.078 121.353C78.6301 120.429 80.2097 119.542 81.8144 118.703C82.3979 118.399 82.9851 118.102 83.576 117.811C84.878 117.173 85.116 117.393 85.3755 116.064C85.9515 113.116 85.6066 109.706 85.836 106.695C86.1179 103.005 86.5094 99.3229 86.9888 95.6531L90.1438 96.0653C91.2872 96.2144 93.93 96.0506 94.8863 96.6835C95.5761 97.1388 95.3286 97.0965 95.1751 98.3425C94.9624 100.072 94.7704 101.803 94.5991 103.536C94.2646 106.956 94.018 110.384 93.8869 113.817C108.839 109.686 125.064 114.23 135.874 125.327C145.181 134.881 150.458 150.382 141.748 162.059C136.503 169.103 127.606 172.735 118.978 172.735ZM93.8291 122.684C94.2689 138.291 98.5051 164.166 118.844 164.305C126.788 164.36 135.612 159.923 137.452 151.624C139.462 142.556 133.04 133.368 126.222 128.084C116.907 120.877 104.973 118.928 93.8291 122.684Z" fill="#BB0000"/>
<path d="M18.7215 96.8191C25.348 96.8191 30.7198 91.2844 30.7198 84.4569C30.7198 77.6295 25.348 72.0947 18.7215 72.0947C12.095 72.0947 6.72314 77.6295 6.72314 84.4569C6.72314 91.2844 12.095 96.8191 18.7215 96.8191Z" fill="#AAAAAA"/>
<path d="M18.7212 97.4683C11.7464 97.4683 6.07275 91.6308 6.07275 84.4551C6.07275 77.2794 11.7464 71.4419 18.7212 71.4419C25.696 71.4419 31.3697 77.2794 31.3697 84.4551C31.3697 91.6308 25.6952 97.4683 18.7212 97.4683ZM18.7212 72.7439C12.4638 72.7439 7.3739 77.9977 7.3739 84.4551C7.3739 90.9126 12.4612 96.1672 18.7212 96.1672C24.9812 96.1672 30.0686 90.9126 30.0686 84.4551C30.0686 77.9977 24.9761 72.7439 18.7212 72.7439Z" fill="#888888"/>
<path d="M76.3425 9.63135C77.7797 9.63135 78.9448 8.46626 78.9448 7.02906C78.9448 5.59185 77.7797 4.42676 76.3425 4.42676C74.9053 4.42676 73.7402 5.59185 73.7402 7.02906C73.7402 8.46626 74.9053 9.63135 76.3425 9.63135Z" fill="#AAAAAA"/>
<path d="M103.344 9.63135C104.781 9.63135 105.947 8.46626 105.947 7.02906C105.947 5.59185 104.781 4.42676 103.344 4.42676C101.907 4.42676 100.742 5.59185 100.742 7.02906C100.742 8.46626 101.907 9.63135 103.344 9.63135Z" fill="#AAAAAA"/>
<path d="M51.4312 72.6194C51.7692 75.4037 53.0056 77.8594 54.6939 80.0702C56.3691 82.2586 58.2636 84.2701 60.3478 86.0733C64.2729 89.4789 68.7653 92.1692 73.6205 94.0216C78.1362 95.7461 82.9476 96.6946 87.7711 96.9291C92.6165 97.1649 97.4696 96.6622 102.164 95.4383C106.802 94.2311 111.293 92.2867 115.304 89.6551C115.801 89.3286 116.291 88.9911 116.775 88.6428C117.465 88.147 117.866 87.2037 117.359 86.4173C116.918 85.7335 115.872 85.3024 115.133 85.8336C113.272 87.1718 111.304 88.3543 109.249 89.3688C108.737 89.6212 108.22 89.8638 107.697 90.0966L107.274 90.282L107.092 90.3596L107.178 90.3242C106.913 90.432 106.648 90.5415 106.383 90.6467C105.318 91.0657 104.238 91.4434 103.143 91.7797C100.931 92.4583 98.6698 92.9671 96.3798 93.3016L95.9867 93.3576C95.7961 93.3844 96.0729 93.3456 96.091 93.3438L95.8944 93.3688C95.588 93.4074 95.2813 93.443 94.9744 93.4758C94.4047 93.5332 93.8336 93.583 93.2611 93.6249C92.1171 93.7037 90.9709 93.7399 89.8224 93.7336C88.6738 93.7273 87.5285 93.6787 86.3863 93.5878C85.8154 93.5424 85.2452 93.485 84.6755 93.4154C84.5445 93.4007 84.4169 93.3844 84.2824 93.368L84.0858 93.343C84.0996 93.343 84.3806 93.3844 84.1901 93.3568C83.8849 93.3128 83.5796 93.2705 83.2752 93.2205C81.0135 92.8622 78.7828 92.3297 76.6031 91.6279C75.5149 91.2761 74.4417 90.8815 73.3834 90.4441L73.2006 90.3682C73.2541 90.3906 73.505 90.4992 73.2248 90.3768C73.104 90.3242 72.9825 90.2725 72.8617 90.219C72.6002 90.104 72.3398 89.9856 72.0805 89.8638C71.5632 89.6218 71.0496 89.3688 70.5397 89.105C69.4636 88.5474 68.4133 87.9421 67.389 87.2891C66.8452 86.9442 66.3091 86.586 65.7809 86.2147C65.5371 86.0422 65.2951 85.8698 65.0549 85.6973C64.9341 85.6111 64.8151 85.5249 64.6961 85.4317C64.6358 85.3878 64.5763 85.3455 64.5177 85.2981C64.4314 85.2326 64.2512 85.0946 64.4314 85.2351C62.3891 83.6581 60.5004 81.8915 58.7905 79.959C58.3689 79.4822 57.9567 78.9967 57.5601 78.4983C57.5023 78.425 57.2971 78.1534 57.4592 78.3716C57.373 78.2552 57.2868 78.1405 57.2005 78.0267C57.0005 77.7548 56.8068 77.4783 56.6194 77.1972C56.2736 76.6777 55.9569 76.1394 55.6709 75.5848C55.5398 75.3304 55.42 75.0674 55.3018 74.8087C55.4372 75.1088 55.2536 74.6802 55.2251 74.6035C55.1676 74.4483 55.1127 74.2919 55.0604 74.1344C54.9725 73.8648 54.8954 73.5915 54.8293 73.3144C54.7914 73.1532 54.7578 72.9902 54.7276 72.8273C54.7121 72.741 54.6474 72.2676 54.6905 72.6229C54.5887 71.7813 54.0153 70.9544 53.0643 70.9967C52.2701 71.032 51.3277 71.7184 51.4372 72.6229L51.4312 72.6194Z" fill="#CC6666"/>
<path d="M50.5603 69.1668C51.6832 69.1668 52.5935 68.1835 52.5935 66.9706C52.5935 65.7577 51.6832 64.7744 50.5603 64.7744C49.4374 64.7744 48.5271 65.7577 48.5271 66.9706C48.5271 68.1835 49.4374 69.1668 50.5603 69.1668Z" fill="#CC6666"/>
<path d="M17.866 84.7813C20.6061 84.7813 22.8274 82.5237 22.8274 79.7388C22.8274 76.9539 20.6061 74.6963 17.866 74.6963C15.1259 74.6963 12.9045 76.9539 12.9045 79.7388C12.9045 82.5237 15.1259 84.7813 17.866 84.7813Z" fill="white"/>
<path d="M66.7225 4.09106C63.0596 3.75995 59.5658 4.82829 56.5893 6.9598C53.8499 8.92488 51.395 11.4185 49.7291 14.3649C48.7289 16.1334 48.0046 18.0476 47.4174 19.9885C47.1139 20.9931 48.6841 21.4225 48.9859 20.4197C49.918 17.3345 51.2579 14.4183 53.4127 11.9902C55.4692 9.67332 58.0508 7.47457 61.0006 6.40536C62.8475 5.73453 64.7738 5.54311 66.7268 5.71556C67.1649 5.75522 67.5399 5.31288 67.5399 4.90245C67.5399 4.42907 67.1657 4.12641 66.7268 4.08848L66.7225 4.09106Z" fill="#AAAAAA"/>
<path d="M17.8195 140.585C20.5321 143.998 24.5218 146.314 28.715 147.396C33.2962 148.576 38.1507 148.28 42.6655 146.953C45.3283 146.156 47.8919 145.058 50.3068 143.682C51.0492 143.264 51.3613 142.187 50.8906 141.456C50.4068 140.706 49.4592 140.422 48.6651 140.872C47.6519 141.444 46.6155 141.973 45.554 142.447L45.1988 142.604C45.1407 142.637 45.0791 142.663 45.0151 142.682C44.7763 142.779 44.5366 142.876 44.2951 142.97C43.7404 143.183 43.1802 143.382 42.6146 143.565C41.5118 143.924 40.3889 144.217 39.2518 144.445C38.7482 144.545 38.2418 144.631 37.7325 144.704C38.0912 144.653 37.5868 144.72 37.5531 144.724L37.1703 144.766C36.838 144.799 36.5055 144.826 36.1727 144.848C35.0755 144.917 33.9749 144.909 32.8788 144.825C32.6546 144.808 32.4305 144.786 32.2063 144.762C32.0726 144.747 31.9381 144.73 31.8045 144.714C32.1545 144.756 31.9088 144.729 31.8346 144.714C31.3 144.628 30.768 144.536 30.2386 144.417C29.2716 144.2 28.3208 143.916 27.3931 143.567C27.1828 143.488 26.9741 143.404 26.7654 143.319C27.1267 143.466 26.7102 143.292 26.6585 143.27C26.5559 143.224 26.4541 143.177 26.3524 143.13C25.8839 142.911 25.424 142.676 24.9728 142.423C24.506 142.159 24.0507 141.876 23.607 141.573C23.3483 141.4 23.0956 141.213 22.8464 141.024C22.8939 141.06 23.0948 141.223 22.8594 141.032C22.7206 140.919 22.5817 140.808 22.4455 140.692C21.5928 139.968 20.8131 139.163 20.1174 138.287C19.5854 137.617 18.3653 137.69 17.8169 138.287C17.165 138.997 17.2495 139.873 17.8169 140.587L17.8195 140.585Z" fill="#CC6666"/>
</svg>
