<svg width="189" height="190" viewBox="0 0 189 190" fill="none" xmlns="http://www.w3.org/2000/svg">
<g opacity="0.8">
<path d="M122.185 46.7762L143.616 67.9331L147.137 64.3668C148.001 63.495 148.51 62.3329 148.564 61.1066C148.619 59.8803 148.215 58.6777 147.431 57.7328C142.892 52.2899 137.834 47.3014 132.329 42.8375C131.374 42.0655 130.166 41.6767 128.941 41.7468C127.715 41.8169 126.559 42.3409 125.699 43.2167L122.185 46.7762Z" fill="white"/>
</g>
<g opacity="0.25">
<path d="M139.945 61.8605L143.466 58.2942C144.384 57.3651 144.898 56.1107 144.894 54.8046C145.754 55.7645 146.604 56.7359 147.434 57.7325C148.218 58.6773 148.622 59.88 148.567 61.1063C148.513 62.3325 148.004 63.4947 147.14 64.3664L143.618 67.9327L122.185 46.7758L123.406 45.5371L139.945 61.8605Z" fill="#371A45"/>
</g>
<g opacity="0.8">
<path d="M0.807906 159.616L31.1481 189.209C31.2788 189.336 31.4549 189.407 31.6376 189.405C31.8202 189.403 31.9946 189.328 32.1223 189.197L38.5384 182.622C38.6659 182.491 38.7362 182.315 38.7339 182.132C38.7317 181.949 38.6569 181.775 38.5262 181.648L8.18265 152.054C8.0519 151.927 7.87585 151.856 7.69318 151.858C7.51052 151.861 7.33619 151.935 7.20849 152.066L0.792304 158.641C0.665269 158.773 0.595551 158.949 0.598477 159.132C0.601403 159.314 0.676731 159.488 0.807906 159.616Z" fill="white"/>
</g>
<g opacity="0.25">
<path d="M22.4027 179.907C23.0472 180.532 23.9133 180.874 24.8104 180.86C25.7075 180.846 26.5623 180.476 27.1867 179.831L29.8229 177.129C30.2162 176.727 30.5035 176.234 30.659 175.693C30.8144 175.152 30.8332 174.582 30.7136 174.032L36.6027 179.776C37.2426 180.405 37.6066 181.262 37.6144 182.159C37.6223 183.056 37.2735 183.92 36.6448 184.56L34.0085 187.262C33.3842 187.906 32.5294 188.276 31.6323 188.29C30.7352 188.305 29.8691 187.962 29.2246 187.338L2.72404 161.491C2.25401 161.033 1.92955 160.446 1.79126 159.805L22.4027 179.907Z" fill="#371A45"/>
</g>
<path d="M31.5779 190C30.2488 190.002 28.9716 189.483 28.0205 188.555L1.53761 162.723C1.05851 162.256 0.676165 161.699 0.412405 161.084C0.148644 160.469 0.00864011 159.808 0.000387438 159.139C-0.00786524 158.469 0.115796 157.805 0.364308 157.184C0.612821 156.562 0.981313 155.996 1.44874 155.517L4.10123 152.799C5.04565 151.833 6.33457 151.281 7.68529 151.265C9.03601 151.248 10.3383 151.767 11.3064 152.709L37.7893 178.54C38.7553 179.485 39.3072 180.774 39.324 182.125C39.3408 183.476 38.8211 184.778 37.8788 185.746L35.2256 188.469C34.7509 188.955 34.1835 189.341 33.5569 189.604C32.9304 189.867 32.2574 190.001 31.5779 190ZM7.74892 154.685C7.52592 154.684 7.30511 154.729 7.09956 154.815C6.89401 154.902 6.7079 155.029 6.55224 155.188L3.89975 157.907C3.74646 158.064 3.6256 158.25 3.5441 158.454C3.46259 158.657 3.42203 158.875 3.42474 159.094C3.42745 159.314 3.47338 159.53 3.55989 159.732C3.6464 159.934 3.7718 160.116 3.92892 160.269L30.4125 186.103C30.7298 186.412 31.1566 186.582 31.5992 186.577C32.0419 186.571 32.4644 186.39 32.7739 186.074L35.4271 183.355C35.5803 183.198 35.7011 183.012 35.7826 182.808C35.8641 182.605 35.9046 182.387 35.9019 182.167C35.8992 181.948 35.8533 181.731 35.7668 181.53C35.6804 181.328 35.555 181.145 35.3979 180.992L8.91439 155.16C8.60308 154.855 8.18461 154.684 7.74892 154.685Z" fill="#371A45"/>
<g opacity="0.8">
<path d="M62.186 113.648L16.604 160.357L30.2213 173.646L75.8033 126.936L62.186 113.648Z" fill="white"/>
</g>
<g opacity="0.3">
<path d="M69.3547 120.641L23.7727 167.351L30.2228 173.645L75.8048 126.936L69.3547 120.641Z" fill="#371A45"/>
</g>
<path d="M30.2299 175.346C29.7831 175.346 29.3537 175.172 29.0339 174.86L15.4132 161.574C15.0882 161.257 14.9025 160.824 14.8969 160.37C14.8913 159.915 15.0663 159.478 15.3834 159.152L60.9622 112.439C61.2793 112.114 61.7125 111.929 62.1665 111.923C62.6204 111.917 63.0581 112.092 63.3834 112.409L77.0047 125.694C77.1657 125.851 77.2941 126.039 77.3827 126.245C77.4713 126.452 77.5183 126.674 77.521 126.899C77.5237 127.124 77.4821 127.347 77.3985 127.556C77.3149 127.765 77.191 127.955 77.0339 128.116L31.4551 174.829C31.2958 174.993 31.1053 175.123 30.8949 175.212C30.6844 175.3 30.4583 175.346 30.2299 175.346ZM19.0311 160.316L30.2 171.21L73.3869 126.948L62.2179 116.054L19.0311 160.316Z" fill="#371A45"/>
<path d="M23.6416 168.406C23.405 168.407 23.1736 168.337 22.9765 168.206C22.7795 168.075 22.6256 167.889 22.5343 167.67C22.443 167.452 22.4183 167.212 22.4633 166.979C22.5084 166.747 22.6212 166.533 22.7875 166.365L68.6966 119.974C68.9203 119.748 69.2245 119.62 69.5425 119.619C69.8604 119.617 70.166 119.742 70.3919 119.965C70.6179 120.189 70.7458 120.493 70.7474 120.811C70.7491 121.129 70.6244 121.435 70.4008 121.661L24.4936 168.049C24.3824 168.162 24.2497 168.252 24.1035 168.314C23.9572 168.375 23.8002 168.406 23.6416 168.406Z" fill="#371A45"/>
<g opacity="0.8">
<path d="M28.0469 127.867L61.9384 160.203C63.5299 161.722 66.0854 161.684 67.6457 160.119L70.2236 157.53C70.5939 157.164 70.8869 156.727 71.0852 156.246C71.2834 155.764 71.3829 155.248 71.3776 154.727C71.3724 154.206 71.2625 153.692 71.0546 153.214C70.8467 152.737 70.5449 152.306 70.1673 151.947L36.2791 119.613C34.6876 118.094 32.1328 118.132 30.5719 119.697L27.994 122.286C27.6237 122.651 27.3307 123.088 27.1324 123.569C26.934 124.051 26.8344 124.567 26.8393 125.087C26.8442 125.608 26.9537 126.122 27.1611 126.599C27.3685 127.077 27.6698 127.508 28.0469 127.867Z" fill="white"/>
</g>
<g opacity="0.25">
<path d="M61.0594 155.31C62.6509 156.828 65.2064 156.791 66.7667 155.226L69.3486 152.637C69.6018 152.382 69.8193 152.093 69.9951 151.779L70.1708 151.948C70.5485 152.306 70.8502 152.737 71.0582 153.215C71.2661 153.692 71.3759 154.207 71.3812 154.727C71.3864 155.248 71.287 155.765 71.0887 156.246C70.8905 156.728 70.5975 157.165 70.2271 157.531L67.6493 160.12C66.089 161.685 63.5335 161.722 61.942 160.203L28.047 127.867C27.4188 127.271 27.0082 126.482 26.8808 125.625C26.7534 124.768 26.9166 123.894 27.3442 123.141L61.0594 155.31Z" fill="#371A45"/>
</g>
<path d="M64.7416 163.024C63.2588 163.029 61.8313 162.462 60.756 161.441L26.8645 129.105C26.3219 128.589 25.8883 127.969 25.5893 127.283C25.2904 126.596 25.1322 125.857 25.1241 125.108C25.116 124.359 25.2582 123.616 25.5422 122.923C25.8262 122.231 26.2463 121.602 26.7777 121.074L29.3596 118.485C31.5684 116.268 35.2039 116.217 37.4616 118.371L71.3531 150.708C71.8958 151.224 72.3294 151.844 72.6283 152.53C72.9273 153.217 73.0854 153.956 73.0935 154.705C73.1015 155.454 72.9592 156.197 72.6751 156.89C72.391 157.582 71.9707 158.211 71.4393 158.739L68.858 161.327C68.3176 161.868 67.6756 162.296 66.9692 162.587C66.2627 162.878 65.5057 163.027 64.7416 163.024ZM33.4747 120.206C33.1609 120.205 32.85 120.266 32.5599 120.386C32.2698 120.505 32.0062 120.681 31.7842 120.903L29.2063 123.492C28.9962 123.699 28.8301 123.946 28.7177 124.219C28.6054 124.492 28.5491 124.785 28.5523 125.08C28.5559 125.37 28.6178 125.656 28.7343 125.922C28.8509 126.188 29.0197 126.427 29.2307 126.627L63.1229 158.963C64.0435 159.845 65.5292 159.817 66.4355 158.91L69.0134 156.32C69.2235 156.113 69.3897 155.866 69.502 155.593C69.6144 155.32 69.6706 155.028 69.6673 154.733C69.6637 154.443 69.6018 154.156 69.4852 153.89C69.3687 153.624 69.1999 153.385 68.9889 153.185L35.0974 120.849C34.6595 120.433 34.0782 120.203 33.4747 120.206Z" fill="#371A45"/>
<g opacity="0.8">
<path d="M39.291 122.672L70.0315 152.527C78.9342 143.437 87.8364 134.348 96.7382 125.261L144.626 76.1854C146.87 73.8857 147.165 70.3513 145.313 67.8854C138.846 59.2631 131.423 51.5973 122.425 45.3866C119.911 43.6534 116.435 44.0468 114.212 46.3228L65.4693 96.2793L39.291 122.672Z" fill="white"/>
</g>
<g opacity="0.25">
<path d="M53.4031 129.974C61.7072 138.038 75.0165 137.826 83.1741 129.499L95.128 117.294L143.015 68.2186C143.512 67.7072 143.924 67.1198 144.236 66.4785C144.598 66.9457 144.956 67.4154 145.31 67.8875C147.163 70.3562 146.871 73.8879 144.623 76.1876L96.7357 125.263C87.8339 134.353 78.9317 143.442 70.029 152.529L39.2913 122.673L42.5285 119.41L53.4031 129.974Z" fill="#371A45"/>
</g>
<path d="M70.0316 154.239C69.586 154.24 69.1578 154.066 68.8384 153.756L38.0979 123.9C37.9356 123.742 37.8061 123.554 37.717 123.346C37.6279 123.138 37.581 122.914 37.5789 122.688C37.5768 122.462 37.6197 122.237 37.7049 122.028C37.7902 121.818 37.9161 121.627 38.0755 121.467L64.2538 95.0732L112.986 45.1256C115.804 42.2425 120.182 41.7595 123.398 43.9724C131.945 49.8743 139.56 57.3556 146.683 66.8537C149.022 69.9702 148.665 74.4944 145.851 77.3768L97.9642 126.451L71.2548 153.723C71.0958 153.886 70.9057 154.016 70.6956 154.105C70.4855 154.194 70.2597 154.239 70.0316 154.239ZM41.7259 122.649L70.0031 150.111L95.5166 124.061L143.402 74.9875C145.046 73.3024 145.28 70.6906 143.945 68.9112C137.046 59.7137 129.69 52.4787 121.454 46.7958C119.616 45.5279 117.086 45.8325 115.438 47.519L66.696 97.474L41.7259 122.649Z" fill="#371A45"/>
<path d="M96.6392 125.365C87.192 114.082 76.9382 104.195 65.6647 96.0771L52.9253 109.133L84.0219 138.296L96.6392 125.365Z" fill="#45C4EF"/>
<g opacity="0.25">
<path d="M92.2249 120.269C93.7146 121.936 95.186 123.634 96.6391 125.365L84.0211 138.296L52.9246 109.134L56.2154 105.761L72.2328 120.782C77.8865 126.084 86.7747 125.854 92.2249 120.269Z" fill="#371A45"/>
</g>
<path d="M84.0213 140.008C83.5863 140.009 83.1675 139.843 82.8504 139.545L51.7545 110.382C51.5888 110.227 51.4558 110.04 51.3632 109.832C51.2706 109.624 51.2203 109.4 51.2153 109.173C51.2102 108.945 51.2505 108.719 51.3338 108.508C51.417 108.296 51.5416 108.103 51.7003 107.94L64.4404 94.8813C64.7266 94.5877 65.1088 94.4067 65.5174 94.3712C65.9259 94.3357 66.3336 94.4481 66.6662 94.688C77.5658 102.536 88.0917 112.488 97.9527 124.266C98.2251 124.591 98.3669 125.006 98.3508 125.43C98.3346 125.854 98.1616 126.257 97.8652 126.561L85.2472 139.491C85.0878 139.655 84.8972 139.785 84.6867 139.874C84.4761 139.963 84.2499 140.009 84.0213 140.008ZM55.371 109.079L83.9684 135.899L94.3281 125.282C85.3055 114.664 75.7355 105.609 65.8555 98.3343L55.371 109.079Z" fill="#371A45"/>
<path d="M65.4695 96.2797C76.9342 104.353 87.3224 114.073 96.7384 125.261L144.626 76.1859C146.871 73.8862 147.166 70.3518 145.313 67.8858C138.847 59.2635 131.423 51.5978 122.426 45.3871C119.911 43.6539 116.435 44.0473 114.212 46.3233L65.4695 96.2797Z" fill="#371A45"/>
<g opacity="0.6">
<path d="M69.4204 101.813L74.7078 107.034C74.7514 107.077 74.803 107.111 74.8598 107.134C74.9165 107.157 74.9772 107.168 75.0385 107.168C75.0997 107.168 75.1603 107.155 75.2167 107.131C75.2731 107.107 75.3242 107.073 75.3672 107.029L124.202 57.5711C124.245 57.5276 124.279 57.476 124.302 57.4193C124.325 57.3625 124.337 57.3018 124.336 57.2406C124.336 57.1793 124.323 57.1188 124.3 57.0624C124.276 57.0059 124.241 56.9547 124.197 56.9117L118.909 51.6881C118.821 51.6015 118.703 51.5533 118.579 51.5542C118.456 51.5551 118.337 51.605 118.251 51.6929L69.4164 101.151C69.3728 101.194 69.3383 101.246 69.3149 101.303C69.2915 101.36 69.2797 101.421 69.28 101.483C69.2804 101.545 69.293 101.606 69.3171 101.662C69.3412 101.719 69.3763 101.77 69.4204 101.813Z" fill="white"/>
</g>
<g opacity="0.6">
<path d="M67.3941 102.99L63.0894 107.402C62.9419 107.554 62.9449 107.796 63.0961 107.943L68.5344 113.249C68.6856 113.396 68.9279 113.393 69.0754 113.242L73.38 108.829C73.5276 108.678 73.5246 108.436 73.3733 108.288L67.9351 102.983C67.7838 102.835 67.5416 102.838 67.3941 102.99Z" fill="white"/>
</g>
<path d="M143.616 69.4473C143.217 69.4479 142.835 69.2908 142.552 69.0104L121.121 47.8536C120.979 47.7139 120.867 47.5477 120.79 47.3646C120.712 47.1814 120.672 46.9847 120.671 46.7859C120.669 46.5871 120.707 46.3899 120.782 46.2058C120.857 46.0216 120.968 45.854 121.107 45.7126L124.621 42.1531C125.743 41.0046 127.254 40.3174 128.857 40.2266C130.46 40.1358 132.039 40.6481 133.284 41.6626C138.862 46.1909 143.99 51.2481 148.595 56.7635C149.624 57.9952 150.156 59.5673 150.086 61.171C150.015 62.7747 149.347 64.2941 148.214 65.4306L144.693 68.9969C144.552 69.1397 144.384 69.2531 144.2 69.3304C144.015 69.4078 143.816 69.4475 143.616 69.4473ZM124.326 46.7627L143.602 65.7922L146.06 63.3032C146.662 62.7005 147.018 61.8943 147.057 61.0429C147.095 60.1916 146.814 59.3565 146.269 58.7017C141.789 53.3363 136.801 48.4168 131.374 44.0119C130.712 43.4747 129.873 43.2047 129.022 43.2549C128.171 43.3051 127.37 43.672 126.776 44.2832L124.326 46.7627Z" fill="#371A45"/>
<path d="M133.219 43.5654C135.603 45.5409 137.896 47.6115 140.097 49.7774C142.433 52.0672 144.666 54.4666 146.797 56.9758L155.983 40.0079C156.771 38.5562 156.567 36.7517 155.431 35.5591C155.398 35.5231 155.363 35.4912 155.327 35.4512L155.323 35.4458C154.198 34.3203 152.44 34.1033 150.994 34.8129L133.219 43.5654Z" fill="#45C4EF"/>
<path d="M146.797 58.4939C146.577 58.4936 146.36 58.4457 146.161 58.3534C145.962 58.2611 145.785 58.1266 145.643 57.9593C141.572 53.1694 137.092 48.7432 132.253 44.7308C132.059 44.5695 131.909 44.3623 131.815 44.1279C131.721 43.8936 131.688 43.6396 131.717 43.389C131.747 43.1384 131.838 42.8991 131.984 42.6929C132.129 42.4868 132.324 42.3202 132.55 42.2085L150.324 33.4573C152.387 32.4397 154.825 32.8122 156.392 34.3799C156.438 34.4267 156.483 34.4715 156.528 34.5156C158.109 36.1756 158.424 38.6721 157.312 40.7289L148.127 57.6974C147.997 57.9375 147.805 58.1379 147.57 58.2777C147.336 58.4174 147.068 58.4911 146.795 58.4912L146.797 58.4939ZM135.96 43.9085C139.704 47.1458 143.227 50.6289 146.508 54.3347L154.648 39.2914C155.134 38.3933 155.008 37.3146 154.335 36.6077L154.249 36.5202C153.612 35.8825 152.548 35.7408 151.663 36.1756L135.96 43.9085Z" fill="#371A45"/>
<path d="M155.865 36.2247L143.565 47.1895C143.198 47.509 142.688 46.9914 143.028 46.6305L154.498 34.8001C155.462 33.8612 156.847 35.2939 155.865 36.2247Z" fill="#371A45"/>
<g opacity="0.25">
<path d="M140.097 49.7803C142.433 52.0701 144.666 54.4695 146.797 56.9786L155.983 40.0108C156.771 38.5591 156.567 36.7546 155.431 35.562C155.398 35.526 155.363 35.4941 155.327 35.4541L140.097 49.7803Z" fill="#371A45"/>
</g>
<path d="M154.318 34.2185L188.673 0L156.561 36.3317C155.12 37.8547 152.879 35.7578 154.318 34.2185Z" fill="#371A45"/>
</svg>
