<svg width="174" height="196" viewBox="0 0 174 196" fill="none" xmlns="http://www.w3.org/2000/svg">
<path d="M60.4509 171.039C60.4509 171.039 65.9649 180.633 68.1136 182.612C70.2624 184.592 94.3538 181.764 110.419 176.672C126.485 171.581 149.68 158.387 150.584 156.878C151.487 155.369 150.071 141.741 150.071 141.741L60.4509 171.039Z" fill="url(#paint0_linear_26_738)"/>
<path d="M60.288 168.907C62.6822 158.524 137.909 133.349 149.275 140.705C160.271 147.833 56.392 185.86 60.288 168.907Z" fill="#FF7A00"/>
<g style="mix-blend-mode:multiply" opacity="0.3">
<path d="M86.837 181.962C86.837 181.962 115.776 173.547 130.051 163.954C144.564 154.202 146.831 147.687 148.45 144.756C150.07 141.826 122.502 141.518 122.502 141.518L113.566 142.482C113.566 142.482 142.002 143.113 140.125 150.149C136.01 165.5 77.8282 182.959 77.8282 182.959L86.837 181.962Z" fill="#B10053"/>
</g>
<g style="mix-blend-mode:multiply" opacity="0.3">
<path d="M65.9007 179.813C65.9007 179.813 86.9963 177.664 87.7097 170.932C88.4232 164.2 61.2621 167.179 61.2621 167.179L62.1316 166.241C62.1316 166.241 98.1907 164.978 90.0301 172.157C82.0034 179.228 69.6875 183.103 69.6875 183.103C69.6875 183.103 68.2385 184.598 65.9007 179.813Z" fill="#B10053"/>
</g>
<path d="M100.892 177.302C100.892 177.302 116.745 172.539 127.35 166.537C134.034 162.642 139.858 157.43 144.468 151.218C144.468 151.218 133.516 166.702 100.892 177.302Z" fill="#FF6500"/>
<path d="M75.6279 180.847C75.6279 180.847 83.9139 177.54 88.5227 174.175C93.1315 170.81 90.8328 169.27 90.8328 169.27C90.8328 169.27 92.0649 171.008 88.5151 173.739C84.9654 176.469 75.6279 180.847 75.6279 180.847Z" fill="#FF6500"/>
<g style="mix-blend-mode:multiply" opacity="0.3">
<path d="M94.9385 168.529C91.3186 169.919 92.7347 172.915 85.0818 178.308C77.4289 183.702 100.094 175.754 116.069 168.021C132.172 160.22 136.203 155.564 136.478 153.75C136.752 151.936 117.948 160.668 109.788 163.254C101.628 165.84 94.9385 168.529 94.9385 168.529Z" fill="#D42F55"/>
</g>
<g style="mix-blend-mode:multiply" opacity="0.3">
<path d="M122.387 171.405C119.861 171.328 142.079 156.493 145.817 150.79C149.554 145.088 150.711 153.421 148.584 156.578C146.458 159.735 122.387 171.405 122.387 171.405Z" fill="#D42F55"/>
</g>
<g style="mix-blend-mode:soft-light" opacity="0.5">
<path d="M92.5228 168.595C89.3513 169.544 90.0525 167.427 91.9366 165.243C93.8207 163.059 130.538 151.562 137.378 149.582C144.218 147.601 123.107 159.453 92.5228 168.595Z" fill="white"/>
</g>
<g style="mix-blend-mode:soft-light" opacity="0.5">
<path d="M62.2261 168.04C59.8777 168.701 62.533 172.956 67.6182 172.95C72.7034 172.943 82.7342 170.959 84.4362 169.673C86.1381 168.387 75.0272 164.46 62.2261 168.04Z" fill="white"/>
</g>
<path d="M117.527 78.3426C121.678 70.0266 121.408 38.9548 121.408 38.9548L73.3596 61.1172L21.3169 70.675C21.3169 70.675 39.12 96.1905 47.3197 100.593C55.5194 104.995 68.7236 105.542 75.6629 112.948C82.4056 120.145 70.0275 129.538 68.4502 140.436C68.0437 144.162 68.1927 147.927 68.8921 151.609C69.7843 156.586 71.1236 161.473 72.8937 166.209C72.8937 166.209 82.4808 167.007 104.874 159.91C125.944 153.233 134.636 146.642 134.636 146.642C133.536 142.519 132.13 138.485 130.428 134.572C128.626 130.476 126.239 126.154 123.338 123.097C115.741 115.088 100.175 114.57 101.508 104.814C102.929 94.7207 113.472 86.5165 117.527 78.3426ZM109.678 121.023C119.619 127.207 125.174 142.323 124.515 146.191C123.855 150.059 105.106 156.019 105.106 156.019C105.106 156.019 86.3049 161.903 83.5878 159.161C80.8707 156.419 76.6391 140.828 81.2118 130.045C85.8993 118.917 86.9499 113.926 83.1591 106.736C79.2641 99.3643 71.0222 100.838 61.0032 98.2349C50.9842 95.6322 35.9461 74.7476 37.1649 69.6103L75.184 61.6311L110.884 46.2475C114.797 49.7585 114.634 75.3674 107.885 83.3775C101.136 91.3875 93.6076 94.8186 94.6695 103.088C95.6951 111.155 99.4285 114.629 109.678 121.023Z" fill="url(#paint1_linear_26_738)"/>
<path d="M4.25011 52.5801C4.25011 52.5801 12.3731 66.6954 15.4418 69.6339C18.5106 72.5723 51.6679 69.0743 73.6624 62.1039C95.657 55.1335 127.307 36.5716 128.538 34.3893C129.77 32.2069 127.718 12.154 127.718 12.154L4.25011 52.5801Z" fill="url(#paint2_linear_26_738)"/>
<path d="M3.92464 49.4911C6.75605 34.3032 110.795 -0.656604 126.621 10.6069C141.8 21.4219 -0.627246 74.0358 3.92464 49.4911Z" fill="#FF7A00"/>
<path opacity="0.5" d="M113.421 63.0013C113.031 70.9004 111.31 79.3144 107.884 83.3778C101.78 90.6235 94.8373 94.2238 94.5876 101.182C94.5559 101.819 94.5831 102.457 94.669 103.089C95.6973 111.163 99.4333 114.647 109.686 121.021C119.627 127.205 125.182 142.32 124.523 146.188C123.863 150.056 105.114 156.017 105.114 156.017C105.114 156.017 86.3129 161.901 83.5958 159.159C80.8787 156.417 76.6471 140.826 81.2198 130.042C85.4404 120.033 86.7142 114.981 84.1687 108.834C83.8777 108.151 83.5475 107.463 83.1671 106.734C79.2721 99.3619 71.0301 100.835 61.0111 98.2325C58.2901 97.3545 55.7787 95.9264 53.6329 94.0369L53.5498 93.9511C44.9473 86.9232 36.231 73.528 37.1648 69.5824L75.1838 61.6033L110.884 46.2196C112.831 47.9736 113.818 55.2121 113.421 63.0013Z" fill="url(#paint3_radial_26_738)"/>
<path d="M113.402 62.9419L113.421 63.0013C113.031 70.9004 111.31 79.3144 107.884 83.3778C101.78 90.6235 94.8375 94.2238 94.5878 101.182C93.2956 105.764 96.9861 125.391 95.4531 125.532C93.9201 125.672 88.6798 114.144 84.1604 108.837C83.8694 108.154 83.5391 107.465 83.1588 106.736C79.2638 99.3646 71.0219 100.838 61.0029 98.2352C58.2819 97.3571 55.7704 95.929 53.6246 94.0395L53.5414 93.9538L113.402 62.9419Z" fill="url(#paint4_linear_26_738)"/>
<path d="M51.6964 92.3731C48.8998 83.9905 110.894 62.0379 112.905 62.9317C114.915 63.8255 107.995 80.281 81.3716 90.0812C54.748 99.8814 51.6964 92.3731 51.6964 92.3731Z" fill="url(#paint5_linear_26_738)"/>
<path d="M124.512 146.182C124.548 151.333 90.5289 162.273 83.585 159.153C82.8273 158.824 79.6833 155.265 80.7819 151.78C83.6078 143.025 94.4644 129.214 96.3285 128.381C98.4305 127.444 115.934 132.604 122.444 138.773C122.473 138.796 122.5 138.822 122.524 138.85C124.065 140.294 124.502 145.178 124.512 146.182Z" fill="url(#paint6_linear_26_738)"/>
<g style="mix-blend-mode:multiply" opacity="0.3">
<path d="M51.8979 102.493C55.3847 103.628 71.8819 101.107 78.4858 103.625C85.0897 106.143 86.5047 115.085 83.8223 119.669C81.1399 124.252 80.8933 119.262 77.2447 113.11C73.5218 106.841 51.8979 102.493 51.8979 102.493Z" fill="#912790"/>
</g>
<g style="mix-blend-mode:multiply" opacity="0.3">
<path d="M117.527 78.3427C115.441 81.8041 98.0844 88.9475 95.798 98.1382C93.5314 107.127 98.6766 111.227 101.335 111.841C103.994 112.454 99.1886 105.744 103.185 98.1213C107.182 90.4981 114.315 84.8773 117.527 78.3427Z" fill="#912790"/>
</g>
<path d="M113.117 81.0379C109.937 80.8697 113.968 71.4994 114.062 66.6718C114.156 61.8442 116.335 66.1849 117.304 72.7478C118.273 79.3106 113.612 81.0678 113.117 81.0379Z" fill="white"/>
<g style="mix-blend-mode:soft-light">
<path d="M36.1425 82.3487C35.4137 85.3799 45.0689 97.7028 50.1247 99.1061C55.1805 100.509 52.5658 95.2336 51.1237 93.4224C49.6816 91.6112 37.1284 78.3025 36.1425 82.3487Z" fill="white"/>
</g>
<path d="M74.2917 132.863C74.3964 136.61 78.5086 129.735 79.6084 124.84C80.7082 119.946 74.1511 127.737 74.2917 132.863Z" fill="white"/>
<path d="M112.955 119.378C111.972 119.839 116.123 126.663 120.101 125.99C124.079 125.318 117.6 117.215 112.955 119.378Z" fill="white"/>
<g style="mix-blend-mode:multiply" opacity="0.5">
<path d="M56.4541 94.8694C56.4541 94.8694 73.3723 102.66 83.6727 100.525C93.9732 98.3898 105.742 86.2781 108.243 81.5369C110.745 76.7957 112.127 69.2265 112.127 69.2265C112.127 69.2265 105.063 79.8659 88.1126 87.702C78.2006 92.3474 67.4005 94.7925 56.4541 94.8694Z" fill="#E09590"/>
</g>
<g style="mix-blend-mode:multiply" opacity="0.5">
<path d="M124.512 146.182C124.548 151.333 90.5289 162.272 83.585 159.153C82.8272 158.823 79.6832 155.265 80.7818 151.78C80.8945 152.342 82.4964 159.311 98.2412 155.535C114.591 151.604 117.822 141.862 121.832 139.051C122.022 138.918 122.233 138.816 122.455 138.751C122.485 138.773 122.512 138.799 122.536 138.828C124.065 140.294 124.502 145.177 124.512 146.182Z" fill="#E09590"/>
</g>
<g style="mix-blend-mode:soft-light" opacity="0.5">
<path d="M96.3343 128.342C93.6257 128.631 99.7977 141.479 103.675 144.525C107.553 147.571 117.308 140.681 118.099 138.376C118.89 136.072 101.633 127.801 96.3343 128.342Z" fill="white"/>
</g>
<g style="mix-blend-mode:multiply" opacity="0.3">
<path d="M13.5806 40.1678C13.5806 40.1678 78.5306 13.8157 101.008 14.8502C123.02 15.8553 72.0449 39.1506 42.3042 47.5678C12.5634 55.985 4.28436 52.5695 4.28436 52.5695C4.28436 52.5695 42.7757 47.0823 72.5579 33.7889C102.635 20.3647 9.09696 43.2503 9.09696 43.2503L13.5806 40.1678Z" fill="#B10053"/>
</g>
<g style="mix-blend-mode:multiply" opacity="0.3">
<path d="M55.6017 65.1395C55.6017 65.1395 91.3969 52.0874 105.365 40.7625C119.593 29.2249 122.104 18.7683 121.801 14.5145C121.499 10.2606 113.972 7.92294 113.972 7.92294C113.972 7.92294 125.017 10.023 124.745 17.1472C124.473 24.2713 103.128 47.9869 89.614 55.4153C76.1 62.8437 55.6017 65.1395 55.6017 65.1395Z" fill="#B10053"/>
</g>
<path d="M93.775 52.8177C93.775 52.8177 104.54 46.6711 112.045 39.2801C119.551 31.8891 124.199 19.4016 124.199 19.4016C124.199 19.4016 121.027 30.8333 93.775 52.8177Z" fill="#FF6500"/>
<g style="mix-blend-mode:multiply" opacity="0.3">
<path d="M35.8227 55.157C26.7798 59.0216 27.7373 64.664 30.1124 67.8877C32.4875 71.1113 54.0318 65.8424 70.2494 58.4626C86.467 51.0828 110.857 35.3257 112.272 29.9211C113.686 24.5165 88.1348 36.5529 72.8629 42.4103C57.5909 48.2676 35.8227 55.157 35.8227 55.157Z" fill="#D42F55"/>
</g>
<g style="mix-blend-mode:soft-light" opacity="0.5">
<path d="M37.5082 51.7851C33.9324 51.3409 71.4455 39.9098 83.6844 32.8762C95.9234 25.8425 111.939 17.2947 115.067 17.918C118.196 18.5414 118.375 19.5205 118.049 20.8468C117.722 22.173 69.6115 47.0529 37.5082 51.7851Z" fill="white"/>
</g>
<path d="M125.776 14.8042C124.253 14.4467 123.494 19.1491 123.082 22.0612C122.67 24.9733 126.891 17.587 126.938 16.1722C126.984 14.7574 125.776 14.8042 125.776 14.8042Z" fill="#FFA457"/>
<path d="M146.749 147.872C145.995 146.701 146.499 143.284 146.844 143.371C147.189 143.457 149.58 143.166 149.299 144.46C149.018 145.753 146.749 147.872 146.749 147.872Z" fill="#FFA457"/>
<path style="mix-blend-mode:screen" d="M45.1913 75.9995C41.1714 79.691 56.6601 97.1378 71.0192 98.1783C85.159 99.2044 73.7676 80.0484 67.0988 75.2639C60.4301 70.4793 45.1913 75.9995 45.1913 75.9995Z" fill="url(#paint7_linear_26_738)"/>
<path d="M100.068 56.004C94.6799 59.9144 92.4474 74.1939 95.4477 77.0047C98.448 79.8155 112.669 67.0199 111.713 57.8485C110.76 48.5084 103.185 53.7652 100.068 56.004Z" fill="white"/>
<g style="mix-blend-mode:multiply" opacity="0.5">
<path d="M22.914 72.8011C22.5639 72.3147 62.0473 73.1684 79.4742 66.6001C96.9011 60.0319 121.405 41.5693 121.405 41.5693L121.407 38.955C121.407 38.955 90.6274 55.5515 70.8868 62.5357C51.1462 69.5198 21.3926 70.6511 21.3926 70.6511L22.914 72.8011Z" fill="#9A376D"/>
</g>
<g style="mix-blend-mode:multiply" opacity="0.5">
<path d="M92.0952 96.9689C86.041 96.6567 96.7438 83.1559 104.804 78.1651C112.865 73.1744 106.476 83.8238 103.654 87.4346C100.831 91.0454 92.0952 96.9689 92.0952 96.9689Z" fill="#E09590"/>
</g>
<g style="mix-blend-mode:multiply" opacity="0.5">
<path d="M134.704 146.593C134.704 146.593 126.012 153.184 104.942 159.861C82.5317 166.963 72.9617 166.16 72.9617 166.16C71.1915 161.423 69.8522 156.537 68.96 151.56C68.96 151.56 72.9029 162.911 76.8125 164.939C80.7222 166.967 115.271 155.813 125.182 151.094C135.093 146.376 130.457 134.488 130.457 134.488C132.174 138.411 133.593 142.457 134.704 146.593Z" fill="#9A376D"/>
</g>
<path d="M100.957 122.518C96.289 124.753 101.461 132.943 106.717 133.713C111.974 134.484 108.276 124.819 107.043 123.52C105.81 122.221 102.465 121.797 100.957 122.518Z" fill="white"/>
<defs>
<linearGradient id="paint0_linear_26_738" x1="63.4187" y1="180.404" x2="153.297" y2="151.92" gradientUnits="userSpaceOnUse">
<stop stop-color="#A71100"/>
<stop offset="0.39" stop-color="#D83303"/>
<stop offset="1" stop-color="#EC5C11"/>
</linearGradient>
<linearGradient id="paint1_linear_26_738" x1="104.713" y1="159.933" x2="71.3962" y2="54.8042" gradientUnits="userSpaceOnUse">
<stop stop-color="#E8E5ED"/>
<stop offset="0.05" stop-color="#E5DDEA"/>
<stop offset="0.28" stop-color="#DABBDC"/>
<stop offset="0.46" stop-color="#D3A7D4"/>
<stop offset="0.59" stop-color="#D19FD1"/>
<stop offset="0.64" stop-color="#BE92C3"/>
<stop offset="0.72" stop-color="#A57FB0"/>
<stop offset="0.81" stop-color="#9272A3"/>
<stop offset="0.9" stop-color="#886B9B"/>
<stop offset="1" stop-color="#846898"/>
</linearGradient>
<linearGradient id="paint2_linear_26_738" x1="8.60224" y1="66.3129" x2="132.443" y2="27.0658" gradientUnits="userSpaceOnUse">
<stop stop-color="#A71100"/>
<stop offset="0.39" stop-color="#D83303"/>
<stop offset="1" stop-color="#EC5C11"/>
</linearGradient>
<radialGradient id="paint3_radial_26_738" cx="0" cy="0" r="1" gradientUnits="userSpaceOnUse" gradientTransform="translate(90.0987 108.666) rotate(-17.5842) scale(43.5915 68.8746)">
<stop stop-color="#E8E5ED"/>
<stop offset="0.14" stop-color="#E3DDE3"/>
<stop offset="0.42" stop-color="#DBD1D5"/>
<stop offset="0.66" stop-color="#D8CDD0"/>
<stop offset="0.68" stop-color="#D4C5CE"/>
<stop offset="0.75" stop-color="#C7ACC9"/>
<stop offset="0.83" stop-color="#BE99C5"/>
<stop offset="0.91" stop-color="#B98FC3"/>
<stop offset="1" stop-color="#B78BC2"/>
</radialGradient>
<linearGradient id="paint4_linear_26_738" x1="98.1278" y1="124.693" x2="81.7381" y2="72.9768" gradientUnits="userSpaceOnUse">
<stop stop-color="#FFA900"/>
<stop offset="1" stop-color="#FF9600"/>
</linearGradient>
<linearGradient id="paint5_linear_26_738" x1="51.234" y1="90.9141" x2="115.479" y2="70.554" gradientUnits="userSpaceOnUse">
<stop stop-color="#FFB100"/>
<stop offset="1" stop-color="#FFC500"/>
</linearGradient>
<linearGradient id="paint6_linear_26_738" x1="104.882" y1="156.343" x2="96.0378" y2="128.436" gradientUnits="userSpaceOnUse">
<stop stop-color="#FF9600"/>
<stop offset="1" stop-color="#FFA900"/>
</linearGradient>
<linearGradient id="paint7_linear_26_738" x1="48.4109" y1="90.5766" x2="74.7653" y2="82.2245" gradientUnits="userSpaceOnUse">
<stop offset="0.02" stop-color="#008DFE"/>
<stop offset="1"/>
</linearGradient>
</defs>
</svg>
