<svg width="132" height="175" viewBox="0 0 132 175" fill="none" xmlns="http://www.w3.org/2000/svg">
<path d="M109.319 121.099C106.779 132.063 101.024 142.018 92.7927 149.692C81.0231 160.762 64.8834 166.8 48.9161 163.274C29.5795 159.004 15.8493 141.873 11.8607 122.583L11.8166 122.392C11.8275 122.343 11.8294 122.335 11.8294 122.335C10.2768 114.836 10.3067 107.096 11.9173 99.6097C12.9847 94.7388 14.7799 90.0565 17.2423 85.7203C23.1443 75.3373 32.5753 67.4161 43.8216 63.396C55.068 59.376 67.3833 59.5239 78.5298 63.813C89.6764 68.102 98.9144 76.2474 104.565 86.7693C110.216 97.2911 111.905 109.491 109.325 121.152L109.319 121.099Z" fill="url(#paint0_linear_26_823)"/>
<path d="M46.5891 63.7417L46.9467 53.418L97.3297 63.3363L91.4654 72.5647C91.4654 72.5647 63.032 85.5661 46.5891 63.7417Z" fill="url(#paint1_linear_26_823)"/>
<path d="M46.9466 53.4181C44.7516 42.2033 100.434 59.3851 97.3296 63.3363C93.5604 67.9941 49.5516 66.8349 46.9466 53.4181Z" fill="#8354AB"/>
<path d="M60.2757 55.1542C63.2741 52.3085 79.5272 56.5696 82.6161 59.8716C85.705 63.1737 56.3966 58.8655 60.2757 55.1542Z" fill="url(#paint2_linear_26_823)"/>
<g style="mix-blend-mode:multiply" opacity="0.5">
<path d="M46.5872 64.5685C46.5872 64.5685 47.5198 58.1984 48.1484 57.9667C48.7771 57.7349 59.1227 63.6132 66.4341 66.098C73.7455 68.5829 69.8996 74.5251 68.5277 74.61C67.1559 74.6949 56.7913 75.8107 46.5872 64.5685Z" fill="#BE5286"/>
</g>
<g style="mix-blend-mode:soft-light" opacity="0.2">
<path d="M71.493 75.3512C69.059 75.0551 72.918 67.2973 73.489 66.3115C74.06 65.3258 85.3865 66.1376 86.0732 66.3064C86.7598 66.4753 83.4949 74.7434 82.4554 74.8845C81.4159 75.0256 73.5371 75.5785 71.493 75.3512Z" fill="white"/>
</g>
<g style="mix-blend-mode:multiply" opacity="0.5">
<path d="M109.319 121.099C103.38 147.996 75.8167 169.196 48.9197 163.257C22.0226 157.318 5.94899 126.483 11.888 99.5857C12.9555 94.7147 14.7506 90.0324 17.2129 85.6962C24.5751 75.773 37.349 141.147 62.946 150.358C88.5431 159.57 105.29 137.239 109.758 113.999C109.927 113.056 110.167 112.126 110.475 111.219C110.418 114.542 110.031 117.852 109.319 121.099Z" fill="#BE5286"/>
</g>
<g style="mix-blend-mode:soft-light" opacity="0.3">
<path d="M54.7694 75.4077C40.4114 72.5562 33.2046 122.564 57.2475 141.507C81.2904 160.451 108.328 134.489 109.773 113.969C111.219 93.4483 96.635 80.6528 91.2379 78.944C85.8408 77.2352 74.4697 79.3181 54.7694 75.4077Z" fill="white"/>
</g>
<g style="mix-blend-mode:multiply" opacity="0.8">
<path d="M46.6761 62.4507C46.6761 62.4507 51.976 73.3427 67.1205 75.2473C82.265 77.152 91.8608 71.8675 91.8608 71.8675L93.0638 72.4693C93.0638 72.4693 79.7747 77.6967 61.8653 75.7848C43.9558 73.8729 46.6761 62.4507 46.6761 62.4507Z" fill="#6D2F55"/>
</g>
<g style="mix-blend-mode:soft-light">
<path d="M92.7928 149.692C81.0232 160.762 64.8836 166.799 48.9162 163.274C29.5796 159.004 15.8495 141.872 11.8608 122.583C12.4098 124.858 17.1834 142.779 33.8354 154.445C51.645 166.918 72.6457 156.352 85.3303 150.233C86.469 149.631 87.7202 149.273 89.0047 149.18C90.2893 149.086 91.5792 149.261 92.7928 149.692Z" fill="#A2FFFF"/>
</g>
<g style="mix-blend-mode:multiply" opacity="0.5">
<path d="M19.2615 136.334C14.0116 125.333 21.8534 116.36 33.8246 124.088C45.7958 131.817 54.8503 146.235 63.467 150.654C72.0836 155.074 37.2073 173.952 19.2615 136.334Z" fill="#BE5286"/>
</g>
<g style="mix-blend-mode:soft-light" opacity="0.5">
<path d="M80.8656 90.788C76.115 91.2646 76.2538 104.18 81.7565 104.318C87.2592 104.455 87.3147 90.1522 80.8656 90.788Z" fill="white"/>
</g>
<g style="mix-blend-mode:soft-light">
<path d="M10.6615 111.855C12.5163 119.263 13.4742 99.936 24.8339 82.0959C29.548 74.8439 35.6577 68.6021 42.8073 63.734C42.8073 63.734 9.49467 75.8821 10.6615 111.855Z" fill="#A2FFFF"/>
</g>
<path d="M56.2688 88.7177C55.7906 87.5645 55.0646 86.5307 54.1422 85.6895C53.2197 84.8484 52.1236 84.2205 50.9313 83.8505C49.0056 83.2498 46.987 83.0026 44.9732 83.121C37.6919 83.349 30.6546 87.8194 26.2927 93.5615C20.6689 101.076 19.9872 110.682 21.8474 113.264C23.3454 115.379 24.6551 115.849 25.6539 115.932C26.6526 116.015 27.3313 115.751 27.6717 116.317C27.7676 116.512 27.8234 116.723 27.8359 116.94C27.8498 118.21 27.4996 119.457 26.8266 120.535C26.3677 121.39 25.8544 122.215 25.29 123.005C25.6207 125.879 34.661 130.332 35.3552 130.037C35.5827 129.475 36.3968 125.32 36.3968 125.32C36.3968 125.32 36.6742 127.966 36.9164 129.563C36.9568 129.947 37.0603 130.322 37.2228 130.673C37.6221 130.796 38.0449 130.821 38.4561 130.747C40.5946 130.625 44.7471 129.93 44.6741 129.285C44.5927 128.482 42.0112 122.414 42.2483 119.545C42.2629 119.479 42.2774 119.413 42.2937 119.339C42.3848 118.497 43.3241 118.575 44.4967 118.964L44.8246 119.079C46.0327 119.553 47.267 119.958 48.5213 120.292C50.28 120.68 51.9137 120.541 52.7555 118.641C53.1818 117.679 53.5548 116.694 53.8725 115.69C56.5837 107.627 59.2062 95.4769 56.2688 88.7177ZM37.3508 117.955C35.4597 117.5 33.6733 116.687 32.0878 115.56C31.0986 114.419 34.0917 111.012 35.3703 110.14C35.7132 109.914 36.0696 110.174 36.4382 110.729C37.4307 112.284 38.3478 116.132 38.4901 117.439C38.5328 117.948 38.0602 118.06 37.3508 117.955ZM27.8068 108.875C25.4101 108.527 23.5457 106.822 24.3839 102.948C26.0351 95.4696 30.7409 92.1908 34.2738 93.7552C34.3897 93.7976 34.5024 93.8484 34.6109 93.9072C38.294 95.884 36.2516 104.353 34.2603 106.697C33.4205 107.521 32.4055 108.144 31.2912 108.52C30.1769 108.896 28.9921 109.016 27.825 108.87L27.8068 108.875ZM44.6856 113.464C43.2119 113.122 41.8467 112.417 40.7137 111.415C39.5807 110.412 38.7156 109.143 38.1968 107.722C37.383 104.655 40.9137 96.471 45.7349 96.1825C46.5883 96.0958 47.4493 96.2383 48.2293 96.5953C51.1037 97.9023 51.5835 102.404 49.7488 109.23C48.8262 112.783 46.8002 113.801 44.692 113.474L44.6856 113.464Z" fill="#479DFF"/>
<path d="M56.2689 88.7181C55.7908 87.5649 55.0647 86.531 54.1423 85.6899C53.2199 84.8487 52.1237 84.2209 50.9315 83.8508C49.4178 83.5327 47.8698 83.4081 46.3248 83.48C39.0581 83.7199 32.0026 88.1949 27.6918 93.9397C22.0616 101.444 21.3781 111.058 23.2374 113.684C23.8526 114.633 24.6972 115.413 25.6932 115.95C26.3237 116.243 27.017 116.375 27.7111 116.335C28.5746 116.327 29.1131 116.231 29.2186 117.314C29.2166 118.589 28.8602 119.838 28.1892 120.922C27.7376 121.781 27.2269 122.607 26.6608 123.394C26.9094 125.664 32.6664 128.943 35.3699 130.049C35.5973 129.487 36.4114 125.332 36.4114 125.332C36.7181 123.943 37.7593 125.707 37.7593 125.707C37.9037 127.403 38.1413 129.09 38.4708 130.759C40.6094 130.637 44.7618 129.942 44.6888 129.297C44.6074 128.495 42.026 122.426 42.2631 119.557C42.2776 119.491 42.2921 119.425 42.3085 119.351C42.3995 118.509 43.3389 118.588 44.5115 118.976L44.8394 119.091C45.1887 119.131 45.533 119.207 45.8666 119.318C46.672 119.574 47.579 119.955 48.5434 120.271C50.302 120.659 51.9357 120.52 52.7775 118.621C53.2038 117.658 53.5768 116.673 53.8945 115.67C56.5838 107.628 59.2063 95.4772 56.2689 88.7181ZM27.8069 108.875C25.4102 108.527 23.5458 106.822 24.384 102.948C26.0352 95.47 30.741 92.1912 34.2739 93.7556C34.864 93.8224 35.4358 94.0013 35.9587 94.2827C39.6337 96.2577 37.5995 104.729 35.6081 107.073C34.606 108.072 33.344 108.77 31.9652 109.089C30.5863 109.408 29.1458 109.334 27.8069 108.875ZM37.3509 117.955C35.4598 117.5 33.6734 116.687 32.088 115.56C31.0987 114.42 34.261 111.222 35.3704 110.14C35.639 109.974 35.9569 109.907 36.2698 109.949C36.5827 109.991 36.8711 110.141 37.0859 110.372C37.1835 110.282 39.6623 116.035 39.8399 117.806C39.9049 118.605 38.7262 118.44 37.3509 117.955ZM51.0857 109.577C49.9614 113.888 47.2229 114.464 44.6811 113.446C43.2074 113.104 41.8423 112.399 40.7093 111.397C39.5763 110.394 38.7111 109.125 38.1923 107.704C37.3785 104.637 40.9092 96.4531 45.7304 96.1645C46.5838 96.0779 47.4448 96.2204 48.2248 96.5774C52.2455 97.0256 53.1263 101.779 51.0857 109.577Z" fill="#47FFFF"/>
<path d="M79.057 56.5522C78.3587 58.0355 77.5742 59.4767 76.7077 60.8684L65.3348 58.8226C65.3348 58.8226 65.8777 54.5299 66.1139 53.6943C66.2741 53.3591 66.4388 53.0421 66.6036 52.7251C67.9118 50.2341 69.3626 47.8207 70.9489 45.497C73.4997 41.751 76.8675 37.9353 80.1732 36.8985C80.1532 36.9113 84.9524 44.0212 79.057 56.5522Z" fill="url(#paint3_linear_26_823)"/>
<path d="M80.1532 36.9113C80.1532 36.9113 79.6507 37.2744 78.8063 37.9757C73.8568 42.1007 69.7128 47.1057 66.5835 52.7379C66.4187 53.0549 66.2539 53.3719 66.0937 53.7071C66.0937 53.7071 67.5489 38.2565 69.7404 31.3371C71.759 24.888 77.5215 21.4288 78.2211 21.0317C78.2211 21.0317 82.4239 28.5011 80.1532 36.9113Z" fill="url(#paint4_linear_26_823)"/>
<path d="M78.2916 20.987C77.6378 21.4891 71.5776 26.296 69.8107 31.2924C69.8107 31.2924 60.5586 26.0434 60.6741 19.6653C60.7662 16.0874 61.1131 12.5207 61.7121 8.99212C61.7448 8.84419 61.7775 8.69627 61.8029 8.58122C61.8197 8.54522 61.8284 8.50592 61.8283 8.46616L61.8392 8.41686C61.8529 8.39173 61.8592 8.3632 61.8573 8.33465L61.9517 7.90735C62.017 7.61151 62.0515 7.45538 62.0515 7.45538C62.0515 7.45538 71.8713 8.57217 74.8503 11.5914C76.0783 12.809 77.0232 14.282 77.6179 15.9058C78.2126 17.5296 78.4426 19.2644 78.2916 20.987Z" fill="url(#paint5_linear_26_823)"/>
<path d="M60.6036 19.7099C56.9914 18.7999 53.6778 16.9664 50.988 14.3893C49.67 13.0689 48.4919 11.616 47.4724 10.0536L47.3663 9.90947C46.9093 9.23233 46.5411 8.49932 46.2708 7.72839C46.2708 7.72839 54.0113 1.51713 61.845 7.45268C61.845 7.45268 61.8105 7.60881 61.7452 7.90466L61.6545 8.31555C61.6454 8.35664 61.6363 8.39771 61.6254 8.44701C61.6256 8.48677 61.6169 8.52607 61.6 8.56208C60.9152 12.238 60.5816 15.9708 60.6036 19.7099Z" fill="url(#paint6_linear_26_823)"/>
<g style="mix-blend-mode:multiply" opacity="0.3">
<path d="M79.0038 56.5578C78.3054 58.041 77.521 59.4822 76.6545 60.874L65.2817 58.8282C65.2817 58.8282 65.8244 54.5354 66.0606 53.6998C66.0606 53.6998 67.5158 38.2492 69.7073 31.3298C69.7073 31.3298 60.4552 26.0808 60.5707 19.7027C56.9585 18.7927 53.6449 16.9592 50.9551 14.3821C49.6371 13.0617 48.4589 11.6088 47.4394 10.0463C48.1087 10.9181 52.0933 15.6676 56.1216 16.9794C60.5763 18.4284 59.18 8.55355 60.0104 7.64234C60.2454 7.39762 60.5597 7.24437 60.8972 7.20997C61.2347 7.17557 61.5735 7.26226 61.8531 7.45454C61.8531 7.45454 61.8186 7.61067 61.7533 7.90652C61.7242 8.038 61.6861 8.21057 61.6408 8.41602L61.6299 8.46532C61.63 8.50508 61.6213 8.54438 61.6045 8.58039C61.5791 8.69544 61.5464 8.84336 61.5138 8.99128C61.0204 12.0453 60.1925 18.878 61.5961 22.6698C63.4806 27.6796 69.5615 29.5308 69.5615 29.5308C69.5615 29.5308 70.4207 23.61 72.86 22.399C74.5374 21.6538 76.3209 21.1753 78.1461 20.9806C74.3296 24.5802 71.3841 29.0025 69.5337 33.9115C66.6006 41.9255 67.2231 47.303 67.6898 48.1558C67.8555 48.4596 69.1227 47.2484 70.7963 45.5237C73.2347 43.0284 76.5562 39.4611 78.6738 37.9895C79.051 37.6954 79.4798 37.4744 79.9382 37.3379C79.9382 37.3379 70.517 46.2032 68.5684 51.7886C66.6197 57.3741 75.437 61.0016 79.0038 56.5578Z" fill="#A42F55"/>
</g>
<g style="mix-blend-mode:soft-light" opacity="0.5">
<path d="M67.64 64.5805C63.9906 62.6457 72.5753 59.6373 81.8176 60.911C91.0598 62.1846 93.5454 64.9399 93.0417 65.0355C92.5379 65.1311 79.1242 66.5905 67.64 64.5805Z" fill="white"/>
</g>
<g style="mix-blend-mode:multiply" opacity="0.3">
<path d="M60.6219 20.2912C61.7902 17.4982 69.3395 22.3799 69.7405 31.3369C69.7405 31.3369 62.0146 26.1232 60.6219 20.2912Z" fill="#A42F55"/>
</g>
<g style="mix-blend-mode:multiply" opacity="0.3">
<path d="M66.4691 50.1706C66.4691 50.1706 71.2858 47.8729 73.3814 40.9582C75.477 34.0434 69.74 31.3374 69.74 31.3374C68.0359 37.4929 66.9403 43.8009 66.4691 50.1706Z" fill="#A42F55"/>
</g>
<g style="mix-blend-mode:soft-light" opacity="0.5">
<path d="M63.4213 10.0332C61.3843 10.3591 65.3927 20.6212 67.3172 22.2096C69.2418 23.7981 75.2536 21.0834 75.8297 18.4355C76.4058 15.7875 67.957 9.31967 63.4213 10.0332Z" fill="white"/>
</g>
<g style="mix-blend-mode:soft-light" opacity="0.5">
<path d="M78.5256 25.7014C74.011 25.8508 73.8902 31.0814 74.3812 36.4299C74.8722 41.7784 79.1131 37.6385 79.5438 33.5019C79.7671 30.8588 79.4199 28.1986 78.5256 25.7014Z" fill="white"/>
</g>
<g style="mix-blend-mode:soft-light" opacity="0.5">
<path d="M75.6164 43.2869C72.4576 45.649 69.3118 52.3233 70.2731 55.0349C71.2343 57.7465 76.0997 59.8723 79.4295 51.5839C82.7592 43.2956 75.6164 43.2869 75.6164 43.2869Z" fill="white"/>
</g>
<g style="mix-blend-mode:multiply" opacity="0.5">
<path d="M102.416 127.849C102.212 128.325 101.948 128.774 101.63 129.184C98.7719 132.957 90.9908 136.151 87.6981 133.381C87.1889 132.976 86.7808 132.457 86.5058 131.867C86.2308 131.277 86.0965 130.631 86.1135 129.98C86.1439 125.471 91.8992 119.39 95.3595 115.819C99.8754 111.214 104.211 123.548 102.416 127.849Z" fill="#BE8186"/>
</g>
<g style="mix-blend-mode:multiply" opacity="0.5">
<path d="M82.153 136.949C81.5719 138.468 80.8617 139.934 80.0302 141.332C77.8801 145.098 74.5441 141.276 74.1369 137.85C74.0525 137.298 74.0688 136.735 74.1849 136.189C74.9742 132.614 79.2649 130.278 81.9663 132.564C82.8994 133.373 82.8841 134.887 82.153 136.949Z" fill="#BE8186"/>
</g>
<g style="mix-blend-mode:multiply" opacity="0.5">
<path d="M102.416 127.849C102.212 128.325 101.948 128.774 101.63 129.183L101.347 129.181C101.347 129.181 101.894 127.949 101.498 124.044C101.102 120.138 98.916 115.286 94.7741 117.612C90.6321 119.938 86.2673 129.635 86.1263 129.923C86.1567 125.413 91.912 119.333 95.3723 115.762C99.8755 111.214 104.211 123.548 102.416 127.849Z" fill="#BE5286"/>
</g>
<g style="mix-blend-mode:multiply" opacity="0.5">
<path d="M82.1531 136.949C82.1531 136.949 80.6355 131.839 77.9515 132.324C75.2675 132.808 74.1452 137.852 74.1452 137.852C74.0608 137.3 74.0771 136.737 74.1932 136.191C74.9825 132.616 79.2733 130.28 81.9747 132.566C82.8996 133.373 82.8843 134.887 82.1531 136.949Z" fill="#BE5286"/>
</g>
<path d="M59.389 62.7589C59.389 62.7589 65.0064 65.3437 76.249 66.8867C83.1081 67.7763 90.08 66.7736 96.4103 63.9868C96.4103 63.9868 77.9803 67.9843 59.389 62.7589Z" fill="#BE9AD1"/>
<defs>
<linearGradient id="paint0_linear_26_823" x1="48.9197" y1="163.257" x2="71.3602" y2="61.6271" gradientUnits="userSpaceOnUse">
<stop stop-color="#420C57"/>
<stop offset="1" stop-color="#66319A"/>
</linearGradient>
<linearGradient id="paint1_linear_26_823" x1="45.1475" y1="61.5273" x2="95.2354" y2="72.587" gradientUnits="userSpaceOnUse">
<stop stop-color="#511881"/>
<stop offset="1" stop-color="#591A8E"/>
</linearGradient>
<linearGradient id="paint2_linear_26_823" x1="60.0466" y1="55.2157" x2="82.8594" y2="60.2529" gradientUnits="userSpaceOnUse">
<stop stop-color="#511881"/>
<stop offset="1" stop-color="#591A8E"/>
</linearGradient>
<linearGradient id="paint3_linear_26_823" x1="71.8644" y1="60.2817" x2="77.1702" y2="36.2526" gradientUnits="userSpaceOnUse">
<stop stop-color="#D4652C"/>
<stop offset="1" stop-color="#FF9500"/>
</linearGradient>
<linearGradient id="paint4_linear_26_823" x1="70.3588" y1="54.6488" x2="77.8148" y2="20.8816" gradientUnits="userSpaceOnUse">
<stop stop-color="#D4652C"/>
<stop offset="1" stop-color="#FF9500"/>
</linearGradient>
<linearGradient id="paint5_linear_26_823" x1="66.4862" y1="30.6187" x2="71.1932" y2="9.30153" gradientUnits="userSpaceOnUse">
<stop stop-color="#D4652C"/>
<stop offset="1" stop-color="#FF9500"/>
</linearGradient>
<linearGradient id="paint6_linear_26_823" x1="52.5091" y1="17.9226" x2="55.4069" y2="4.79867" gradientUnits="userSpaceOnUse">
<stop stop-color="#D4652C"/>
<stop offset="1" stop-color="#FF9500"/>
</linearGradient>
</defs>
</svg>
