<svg width="175" height="195" viewBox="0 0 175 195" fill="none" xmlns="http://www.w3.org/2000/svg">
<path d="M33.0969 65.3997C26.7806 61.4595 52.0052 13.2295 55.1157 10.7877C58.2263 8.34585 77.2837 10.2916 80.3601 10.9258C83.4364 11.5599 60.2991 49.9655 60.2991 49.9655L33.0969 65.3997Z" fill="url(#paint0_linear_26_781)"/>
<path d="M97.2399 52.6965C95.4655 63.356 47.863 161.433 50.3467 167.026C52.6948 172.327 76.5015 179.455 82.8686 176.922C89.2356 174.39 106.809 64.9133 116.602 54.7274C126.841 44.134 107.081 -6.13916 97.2399 52.6965Z" fill="url(#paint1_linear_26_781)"/>
<path d="M50.3464 167.026C51.9626 156.942 79.9033 167.692 81.9472 174.737C83.8514 181.301 49.5322 172.086 50.3464 167.026Z" fill="#90160F"/>
<g style="mix-blend-mode:multiply" opacity="0.8">
<path d="M110.515 26.823C101.915 23.9764 113.853 50.5083 117.366 51.017C120.879 51.5258 121.537 30.4624 110.515 26.823Z" fill="#BE0E55"/>
</g>
<g style="mix-blend-mode:multiply" opacity="0.3">
<path d="M54.7564 171.02C60.2144 173.308 67.0025 170.094 69.715 165.834C72.4276 161.574 87.8106 76.3614 89.3642 72.7553C90.9179 69.1492 92.2919 65.8944 92.2919 65.8944C92.2919 65.8944 73.7363 163.489 72.4247 166.991C71.1132 170.494 63.6805 173.781 54.7564 171.02Z" fill="#B10053"/>
</g>
<g style="mix-blend-mode:multiply" opacity="0.3">
<path d="M64.3919 174.802C64.3919 174.802 76.3143 176.765 79.7466 171.641C83.3041 166.324 97.369 88.2104 94.3316 60.9604L97.2397 52.6964C97.2397 52.6964 98.7881 110.096 92.9268 135.655C87.9849 157.194 83.1302 170.207 81.3361 172.452C79.542 174.697 69.0498 176.471 64.3919 174.802Z" fill="#B10053"/>
</g>
<g style="mix-blend-mode:multiply" opacity="0.3">
<path d="M102.009 34.9531C102.009 34.9531 102.338 77.842 102.403 90.5889C102.457 102.309 104.361 94.1626 104.361 94.1626L109.107 75.3985C109.107 75.3985 104.957 58.1113 105.711 49.1069C106.472 39.5939 102.009 34.9531 102.009 34.9531Z" fill="#B10053"/>
</g>
<g style="mix-blend-mode:multiply" opacity="0.8">
<path d="M75.884 174.326C75.884 174.326 79.7772 173.756 81.3362 172.452C82.8952 171.149 82.8868 161.185 82.8868 161.185C82.8868 161.185 81.6853 169.347 79.7346 171.676C78.7575 172.938 77.4116 173.864 75.884 174.326Z" fill="#BE0E55"/>
</g>
<g style="mix-blend-mode:multiply" opacity="0.3">
<path d="M58.5905 163.123C50.6689 163.597 62.1179 170.029 63.1094 170.949C64.1008 171.87 68.452 165.961 68.6539 165.43C68.8559 164.9 58.5905 163.123 58.5905 163.123Z" fill="#D42F55"/>
</g>
<g style="mix-blend-mode:multiply" opacity="0.3">
<path d="M72.584 167.902C71.9731 167.819 68.7259 170.087 70.7963 172.332C72.8667 174.577 79.9771 171.799 79.335 171.263C78.6929 170.728 74.3815 168.165 72.584 167.902Z" fill="#D42F55"/>
</g>
<path d="M71.5799 168.363C71.5799 168.363 74.5926 154.814 75.1219 154.505C75.6512 154.195 76.0541 168.592 75.8046 169.175C75.5552 169.758 71.5799 168.363 71.5799 168.363Z" fill="#C72429"/>
<path d="M80.5907 173.219C79.4145 174.152 81.9472 174.737 81.9472 174.737C81.9472 174.737 85.5202 169.347 80.5907 173.219Z" fill="#C72429"/>
<g style="mix-blend-mode:multiply" opacity="0.5">
<path d="M85.2634 102.636C84.8037 94.415 74.3676 146.998 74.3676 146.998C74.3676 146.998 75.6391 147.848 77.5229 140.334C79.4066 132.819 85.2634 102.636 85.2634 102.636Z" fill="#B10053"/>
</g>
<g style="mix-blend-mode:multiply" opacity="0.5">
<path d="M50.9149 163.082C50.9149 163.082 57.3417 159.173 62.4722 158.065C67.6027 156.956 77.5538 118.406 82.4591 99.8931C87.3644 81.3804 88.9259 80.1272 87.6663 79.9009C86.4067 79.6747 55.4543 151.415 50.9149 163.082Z" fill="#B10053"/>
</g>
<path d="M53.8124 47.265C50.0858 46.6631 32.7538 61.4469 33.0968 65.3999C33.4398 69.3528 83.841 85.2244 83.841 85.2244L88.226 75.3241C88.226 75.3241 105.931 75.3105 106.473 83.8062L104.317 94.1476C104.317 94.1476 134.103 104.765 136.379 104.465C138.655 104.166 157.87 89.0258 158.392 87.5042C158.915 85.9826 77.6315 51.1221 53.8124 47.265Z" fill="#8A666D"/>
<path d="M158.437 87.5193C161.509 86.0182 167.987 44.8389 165.806 41.2867C163.624 37.7344 89.3412 11.9761 80.3541 10.9435C71.367 9.91086 52.9566 46.3218 53.8065 47.2826C54.6565 48.2433 158.437 87.5193 158.437 87.5193Z" fill="url(#paint2_linear_26_781)"/>
<g style="mix-blend-mode:multiply" opacity="0.5">
<path d="M53.8123 47.2651C44.6187 49.4951 41.5515 65.7777 46.9315 70.1534C52.3116 74.5291 84.562 83.2401 84.562 83.2401L87.8433 76.2941C87.8433 76.2941 91.8824 72.9815 104.268 78.004C116.653 83.0264 110.83 88.8137 112.355 91.1864C113.88 93.5592 146.302 92.2104 152.375 88.8194C158.447 85.4284 53.8123 47.2651 53.8123 47.2651Z" fill="#E39AA9"/>
</g>
<g style="mix-blend-mode:multiply" opacity="0.78">
<path d="M80.0927 94.0158C91.7723 83.3768 103.053 98.168 103.053 98.168L106.509 83.8183C106.509 83.8183 107.107 75.4095 88.2612 75.3362L80.0927 94.0158Z" fill="#BE2F55"/>
</g>
<g style="mix-blend-mode:multiply" opacity="0.5">
<path d="M56.9206 44.1143C55.8392 47.8629 115.698 41.0728 140.246 42.8102C164.793 44.5477 158.471 71.591 160.663 72.1082C162.855 72.6254 165.96 43.6702 163.428 41.7382C160.896 39.8062 91.4672 12.9426 80.2945 16.4396C69.1218 19.9367 58.0299 40.2276 56.9206 44.1143Z" fill="#E5E0E5"/>
</g>
<g style="mix-blend-mode:multiply" opacity="0.5">
<path d="M32.2153 60.839C31.481 62.9763 49.2999 46.4323 52.6727 42.6547C56.0455 38.8772 73.0552 13.0968 73.5918 11.9929C74.1284 10.8891 62.1478 9.49669 56.1436 12.5472C50.1394 15.5977 35.8351 50.3611 32.2153 60.839Z" fill="#E39AA9"/>
</g>
<path d="M56.2825 39.647C58.2898 37.2392 59.0516 46.4986 80.5254 57.2102C101.999 67.9219 160.59 82.6247 160.2 83.8181C159.689 85.0872 159.1 86.3233 158.436 87.5193C158.436 87.5193 53.8931 48.0893 53.1787 47.421C52.4643 46.7527 56.2825 39.647 56.2825 39.647Z" fill="#A5848D"/>
<path d="M72.6421 11.3519C72.1206 14.3292 91.882 14.8845 91.882 14.8845C91.882 14.8845 76.2964 7.98566 72.6421 11.3519Z" fill="#BDA5AC"/>
<g style="mix-blend-mode:multiply" opacity="0.5">
<path d="M83.8413 85.2243C83.8413 85.2243 71.2612 82.1705 70.6046 76.8118C69.9481 71.4531 86.322 71.9655 100.748 75.1715C115.173 78.3776 105.946 86.1717 105.946 86.1717L106.518 83.8212C106.518 83.8212 100.96 76.0117 87.8086 76.2819L83.8413 85.2243Z" fill="#BE2F55"/>
</g>
<g style="mix-blend-mode:multiply" opacity="0.5">
<path d="M33.0971 65.3999C32.2156 60.8391 49.8197 49.0988 53.0916 48.9348C56.3635 48.7707 98.5688 64.8846 98.5688 64.8846C98.5688 64.8846 64.4973 73.4942 56.4342 74.0082C48.3711 74.5223 33.0971 65.3999 33.0971 65.3999Z" fill="#E39AA9"/>
</g>
<g style="mix-blend-mode:multiply" opacity="0.5">
<path d="M158.641 53.7818C158.358 54.2533 158.026 54.6929 157.649 55.0932C154.166 58.7345 145.559 61.1758 142.413 57.8529C141.923 57.3631 141.553 56.7658 141.333 56.1083C141.114 55.4508 141.05 54.7513 141.148 54.065C141.709 49.341 148.506 43.5538 152.625 40.2096C157.949 35.9029 161.048 49.466 158.641 53.7818Z" fill="#CD9FA3"/>
</g>
<g style="mix-blend-mode:multiply" opacity="0.5">
<path d="M136.102 60.9948C135.307 62.5308 134.383 63.9962 133.339 65.375C130.604 69.0967 127.548 64.6541 127.52 60.9864C127.497 60.3917 127.582 59.7978 127.769 59.2329C129.035 55.5477 133.856 53.5951 136.451 56.3159C137.33 57.2769 137.136 58.8721 136.102 60.9948Z" fill="#CD9FA3"/>
</g>
<g style="mix-blend-mode:multiply" opacity="0.5">
<path d="M158.641 53.7819C158.359 54.2533 158.026 54.693 157.65 55.0933L157.338 55.0551C157.338 55.0551 158.067 53.8207 158.102 49.683C158.137 45.5454 156.467 40.1332 151.776 42.0811C147.084 44.0291 141.342 53.758 141.154 54.0475C141.715 49.3235 148.512 43.5363 152.631 40.1921C157.95 35.903 161.048 49.466 158.641 53.7819Z" fill="#BE9AB6"/>
</g>
<g style="mix-blend-mode:multiply" opacity="0.5">
<path d="M136.102 60.9948C136.102 60.9948 135.074 55.4003 132.223 55.6006C129.371 55.8008 127.52 60.9864 127.52 60.9864C127.497 60.3917 127.582 59.7978 127.769 59.2329C129.035 55.5477 133.856 53.5951 136.451 56.3159C137.33 57.2769 137.136 58.8721 136.102 60.9948Z" fill="#BE9AB6"/>
</g>
<path d="M80.2956 29.1155C77.0822 28.9948 80.9529 19.0457 84.5639 18.1525C88.1748 17.2593 87.0907 29.2868 80.2956 29.1155Z" fill="#7F4B6E"/>
<g style="mix-blend-mode:multiply">
<path d="M81.5314 20.7686C80.0355 23.2047 81.713 25.9641 83.2239 26.375C84.7347 26.7859 87.5866 24.6388 86.797 20.6406C86.0074 16.6424 82.3224 19.4965 81.5314 20.7686Z" fill="#DEA0BB"/>
</g>
<path d="M79.9914 23.5336C80.6806 23.1017 79.1301 26.0402 80.676 27.4367C82.2219 28.8332 84.394 26.7474 84.5644 27.0813C84.7349 27.4152 80.8594 30.1941 79.5138 29.7318C77.614 29.0791 79.9914 23.5336 79.9914 23.5336Z" fill="#C0A9AC"/>
<path d="M74.0356 33.7695C72.7491 31.9901 72.6705 28.6984 74.4453 27.9118C76.2201 27.1252 77.3696 34.1972 75.7242 34.3497C74.0787 34.5022 74.0356 33.7695 74.0356 33.7695Z" fill="#996F8B"/>
<g style="mix-blend-mode:multiply">
<path d="M73.3337 29.1719C73.1563 31.5201 73.553 32.1973 75.013 32.6989C76.473 33.2006 76.9613 30.3199 75.7581 28.756C74.5549 27.1921 73.3337 29.1719 73.3337 29.1719Z" fill="#DEA0BB"/>
</g>
<path d="M73.3001 32.1891C73.3001 32.1891 74.0355 33.7693 75.2445 33.7422C76.027 33.7259 76.2887 32.1343 76.2887 32.1343C76.6234 32.1903 76.8442 34.7245 75.4612 34.8C74.0783 34.8755 73.5185 33.3852 73.3001 32.1891Z" fill="#C0A9AC"/>
<path d="M115.054 22.6002C107.961 22.7791 121.057 33.0313 131.644 35.7051C142.231 38.3788 152.491 39.0819 153.831 37.6149C155.171 36.1479 115.054 22.6002 115.054 22.6002Z" fill="#E5E0E5"/>
<path d="M135.661 75.3868C134.071 71.4283 153.148 71.2568 156.776 72.0313C160.404 72.8058 159.934 83.9332 158.881 83.3647C157.827 82.7962 135.661 75.3868 135.661 75.3868Z" fill="#CFC5CF"/>
<path d="M80.8579 56.5575C81.5258 56.8459 68.7317 27.1976 66.6985 27.6201C64.6653 28.0425 57.9323 35.5036 57.6373 38.4802C57.6373 38.4802 64.3064 49.4644 80.8579 56.5575Z" fill="#CFC5CF"/>
<g style="mix-blend-mode:multiply" opacity="0.5">
<path d="M63.9211 10.7747C57.7023 11.9027 54.1476 28.7456 53.8891 31.5872C53.6306 34.4287 70.0672 18.8455 71.3545 15.0987C72.6419 11.3519 63.9211 10.7747 63.9211 10.7747Z" fill="#E39AA9"/>
</g>
<defs>
<linearGradient id="paint0_linear_26_781" x1="44.777" y1="69.4128" x2="66.5076" y2="6.16626" gradientUnits="userSpaceOnUse">
<stop stop-color="#997A80"/>
<stop offset="1" stop-color="#A691A8"/>
</linearGradient>
<linearGradient id="paint1_linear_26_781" x1="74.3695" y1="88.6331" x2="108.412" y2="99.5812" gradientUnits="userSpaceOnUse">
<stop stop-color="#A71100"/>
<stop offset="0.39" stop-color="#D83303"/>
<stop offset="1" stop-color="#EC5C11"/>
</linearGradient>
<linearGradient id="paint2_linear_26_781" x1="116.418" y1="17.8866" x2="104.944" y2="77.1542" gradientUnits="userSpaceOnUse">
<stop stop-color="#E0D9E1"/>
<stop offset="1" stop-color="#B9A4A8"/>
</linearGradient>
</defs>
</svg>
