<svg width="104" height="104" viewBox="0 0 104 104" fill="none" xmlns="http://www.w3.org/2000/svg">
<g filter="url(#filter0_i_26_188)">
<path d="M83.3732 24.1799H81.6398L66.9932 9.53326C65.8232 8.36326 63.9165 8.36326 62.7032 9.53326C61.5332 10.7033 61.5332 12.6099 62.7032 13.8233L73.0598 24.1799H30.9398L41.2965 13.8233C42.4665 12.6533 42.4665 10.7466 41.2965 9.53326C40.1265 8.36326 38.2198 8.36326 37.0065 9.53326L22.4032 24.1799H20.6698C16.7698 24.1799 8.6665 24.1799 8.6665 35.2733C8.6665 39.4766 9.53317 42.2499 11.3532 44.0699C12.3932 45.1533 13.6498 45.7166 14.9932 46.0199C16.2498 46.3233 17.5932 46.3666 18.8932 46.3666H85.1065C86.4498 46.3666 87.7065 46.2799 88.9198 46.0199C92.5598 45.1533 95.3332 42.5533 95.3332 35.2733C95.3332 24.1799 87.2298 24.1799 83.3732 24.1799Z" fill="url(#paint0_linear_26_188)"/>
<path d="M82.5499 52H21.1032C18.4165 52 16.3799 54.3833 16.8132 57.0267L20.4532 79.3C21.6665 86.7533 24.9165 95.3333 39.3465 95.3333H63.6565C78.2599 95.3333 80.8599 88.01 82.4199 79.82L86.7965 57.1567C87.3165 54.47 85.2799 52 82.5499 52ZM51.9999 84.5C41.8599 84.5 33.5832 76.2233 33.5832 66.0833C33.5832 64.3067 35.0565 62.8333 36.8332 62.8333C38.6099 62.8333 40.0832 64.3067 40.0832 66.0833C40.0832 72.67 45.4132 78 51.9999 78C58.5865 78 63.9165 72.67 63.9165 66.0833C63.9165 64.3067 65.3899 62.8333 67.1665 62.8333C68.9432 62.8333 70.4165 64.3067 70.4165 66.0833C70.4165 76.2233 62.1399 84.5 51.9999 84.5Z" fill="url(#paint1_linear_26_188)"/>
</g>
<defs>
<filter id="filter0_i_26_188" x="0" y="0" width="104" height="106" filterUnits="userSpaceOnUse" color-interpolation-filters="sRGB">
<feFlood flood-opacity="0" result="BackgroundImageFix"/>
<feBlend mode="normal" in="SourceGraphic" in2="BackgroundImageFix" result="shape"/>
<feColorMatrix in="SourceAlpha" type="matrix" values="0 0 0 0 0 0 0 0 0 0 0 0 0 0 0 0 0 0 127 0" result="hardAlpha"/>
<feOffset dy="2"/>
<feGaussianBlur stdDeviation="1"/>
<feComposite in2="hardAlpha" operator="arithmetic" k2="-1" k3="1"/>
<feColorMatrix type="matrix" values="0 0 0 0 0 0 0 0 0 0 0 0 0 0 0 0 0 0 0.15 0"/>
<feBlend mode="normal" in2="shape" result="effect1_innerShadow_26_188"/>
</filter>
<linearGradient id="paint0_linear_26_188" x1="19.7329" y1="15.3365" x2="31.3416" y2="48.6835" gradientUnits="userSpaceOnUse">
<stop stop-color="#DC1C7F"/>
<stop offset="1" stop-color="#FE00B6"/>
</linearGradient>
<linearGradient id="paint1_linear_26_188" x1="25.7088" y1="59.6768" x2="42.7773" y2="94.2008" gradientUnits="userSpaceOnUse">
<stop stop-color="#DC1C7F"/>
<stop offset="1" stop-color="#FE00B6"/>
</linearGradient>
</defs>
</svg>
