<svg width="258" height="258" viewBox="0 0 258 258" fill="none" xmlns="http://www.w3.org/2000/svg">
<path d="M258 40.9797V9.29006L136.178 122.337C135.831 121.963 135.457 121.616 135.056 121.3L231.949 0H203.572L133.82 120.469C133.415 120.239 132.99 120.041 132.552 119.87L179.698 0H158.472L131.251 119.466C130.788 119.357 130.314 119.279 129.828 119.238L138.701 0H119.456L128.191 119.237C127.702 119.277 127.225 119.354 126.758 119.463L99.6964 0H78.4697L125.456 119.867C125.017 120.037 124.592 120.235 124.187 120.464L54.5918 0H26.2412L122.976 121.276C122.564 121.598 122.181 121.952 121.825 122.334L0 9.0816V40.8079L120.874 123.514C120.604 123.913 120.373 124.338 120.163 124.775L0 66.6667V89.059L119.649 126.051C119.511 126.487 119.413 126.94 119.337 127.401L0 109.439V128.833L119.198 128.96C119.198 128.973 119.196 128.987 119.196 129C119.196 129.52 119.248 130.026 119.326 130.524L0 148.217V168.576L119.627 131.88C119.764 132.325 119.939 132.751 120.135 133.166L0 190.941V216.764L120.836 134.426C121.12 134.851 121.441 135.247 121.785 135.622L0 248.4V258H25.7721L122.913 136.677C123.3 136.985 123.712 137.262 124.143 137.509L54.2115 258H78.1178L125.419 138.12C125.842 138.286 126.279 138.422 126.727 138.528L99.3677 258H119.144L128.145 138.761C128.427 138.785 128.712 138.804 129 138.804C129.27 138.804 129.536 138.785 129.801 138.764L138.408 258H158.17L131.269 138.529C131.708 138.425 132.136 138.292 132.55 138.131L179.39 258H203.251L133.828 137.526C134.263 137.279 134.677 137 135.068 136.691L231.578 258H258V249.115L136.187 135.652C136.534 135.278 136.859 134.883 137.144 134.458L258 217.344V191.448L137.861 133.175C138.054 132.765 138.23 132.346 138.365 131.907L258 169.043V148.648L138.668 130.563C138.741 130.109 138.787 129.647 138.795 129.175L258 129.164V109.585L138.664 127.41C138.588 126.948 138.491 126.494 138.353 126.057L258 89.2174V66.8339L137.837 124.777C137.628 124.341 137.398 123.917 137.13 123.52L258 40.9797Z" fill="url(#paint0_radial_26_478)"/>
<defs>
<radialGradient id="paint0_radial_26_478" cx="0" cy="0" r="1" gradientUnits="userSpaceOnUse" gradientTransform="translate(129 129) rotate(90) scale(129)">
<stop stop-color="#91DAFF" stop-opacity="0.3"/>
<stop offset="1" stop-color="#7CD3FF" stop-opacity="0"/>
</radialGradient>
</defs>
</svg>
