<svg width="76" height="76" viewBox="0 0 76 76" fill="none" xmlns="http://www.w3.org/2000/svg">
<path d="M38.0002 6.3335C20.5518 6.3335 6.3335 20.5518 6.3335 38.0002C6.3335 55.4485 20.5518 69.6668 38.0002 69.6668C55.4485 69.6668 69.6668 55.4485 69.6668 38.0002C69.6668 20.5518 55.4485 6.3335 38.0002 6.3335ZM48.6402 45.2835C49.5585 46.2018 49.5585 47.7218 48.6402 48.6402C48.1652 49.1152 47.5635 49.3368 46.9618 49.3368C46.3602 49.3368 45.7585 49.1152 45.2835 48.6402L38.0002 41.3568L30.7168 48.6402C30.2418 49.1152 29.6402 49.3368 29.0385 49.3368C28.4368 49.3368 27.8352 49.1152 27.3602 48.6402C26.4418 47.7218 26.4418 46.2018 27.3602 45.2835L34.6435 38.0002L27.3602 30.7168C26.4418 29.7985 26.4418 28.2785 27.3602 27.3602C28.2785 26.4418 29.7985 26.4418 30.7168 27.3602L38.0002 34.6435L45.2835 27.3602C46.2018 26.4418 47.7218 26.4418 48.6402 27.3602C49.5585 28.2785 49.5585 29.7985 48.6402 30.7168L41.3568 38.0002L48.6402 45.2835Z" fill="white"/>
</svg>
