<svg width="100" height="103" viewBox="0 0 100 103" fill="none" xmlns="http://www.w3.org/2000/svg">
<path d="M9.52783 32.9951L13.9094 32.0079L12.8785 28.7578C12.8785 28.7578 9.82424 31.0079 9.52783 32.9951Z" fill="url(#paint0_linear_26_196)"/>
<path d="M31.2246 36.6733C31.2246 36.6733 7.48397 33.7041 5.37822 37.8924C3.27247 42.0807 15.1724 89.6986 16.9895 94.0415C18.8066 98.3845 36.1423 102.936 54.7797 102.289C73.417 101.642 85.8401 95.5622 86.8763 91.4409C87.9124 87.3196 98.0854 38.1192 95.124 35.6552C92.1625 33.1912 31.2246 36.6733 31.2246 36.6733Z" fill="url(#paint1_linear_26_196)"/>
<g style="mix-blend-mode:multiply" opacity="0.51">
<path d="M85.2883 40.4413L83.5614 34.771C78.3834 34.771 72.0069 34.9025 65.4937 35.1164L55.0088 43.6425C58.1507 43.6811 55.0088 82.7574 55.0088 102.271C65.3906 101.882 73.8239 99.8096 79.4169 97.3431C81.3603 83.2214 89.8349 39.2841 85.2883 40.4413Z" fill="#D36A13"/>
</g>
<mask id="mask0_26_196" style="mask-type:luminance" maskUnits="userSpaceOnUse" x="5" y="34" width="91" height="69">
<path d="M31.2246 36.6733C31.2246 36.6733 7.48397 33.7041 5.37822 37.8924C3.27247 42.0807 15.1724 89.6986 16.9895 94.0415C18.8066 98.3845 36.1423 102.936 54.7797 102.289C73.417 101.642 85.8401 95.5622 86.8763 91.4409C87.9124 87.3196 98.0854 38.1192 95.124 35.6552C92.1625 33.1912 31.2246 36.6733 31.2246 36.6733Z" fill="white"/>
</mask>
<g mask="url(#mask0_26_196)">
<g style="mix-blend-mode:color" opacity="0.51">
<path d="M13.6727 87.1469C16.9898 94.1678 62.7648 101.926 90.8406 85.2989C118.916 68.6719 91.3149 80.6802 91.3149 80.6802C91.3149 80.6802 56.7774 101.926 12.1339 83.2215C-32.5096 64.5172 13.6727 87.1469 13.6727 87.1469Z" fill="#009000"/>
</g>
<g style="mix-blend-mode:color" opacity="0.51">
<path d="M13.6727 80.6645C16.9898 87.6879 62.7648 95.4434 90.8406 78.8165C118.916 62.1895 91.3149 74.2003 91.3149 74.2003C91.3149 74.2003 56.7774 95.4434 12.1339 76.7391C-32.5096 58.0347 13.6727 80.6645 13.6727 80.6645Z" fill="#009000"/>
</g>
<g style="mix-blend-mode:color" opacity="0.51">
<path d="M6.59208 61.6408C9.90922 68.6617 62.7644 77.4146 90.8402 60.7877C118.916 44.1607 91.3145 56.1715 91.3145 56.1715C91.3145 56.1715 49.6969 76.4197 5.05337 57.718C-39.5901 39.0162 6.59208 61.6408 6.59208 61.6408Z" fill="#009000"/>
</g>
<g style="mix-blend-mode:color" opacity="0.51">
<path d="M6.59208 55.1586C9.90922 62.1821 62.7644 70.1077 90.8402 53.4936C118.916 36.8796 91.3145 48.8749 91.3145 48.8749C91.3145 48.8749 49.6969 69.9376 5.05337 51.2332C-39.5901 32.5289 6.59208 55.1586 6.59208 55.1586Z" fill="#009000"/>
</g>
<g style="mix-blend-mode:screen" opacity="0.41">
<path d="M32.1883 113.068L20.7472 33.4774L19.0847 33.6682L28.4562 101.764L21.4946 101.862L10.2339 32.5728L8.8833 32.7274L20.1569 107.246L32.1883 113.068Z" fill="white"/>
</g>
<g style="mix-blend-mode:screen" opacity="0.41">
<path d="M53.6611 113.473L49.7357 32.369L48.0656 32.4592L50.612 101.965L43.6582 101.645L37.8899 32.0107L36.5342 32.0829L40.7276 107.104L53.6611 113.473Z" fill="white"/>
</g>
<g style="mix-blend-mode:screen" opacity="0.41">
<path d="M79.5537 112.138L77.8243 38.1527L76.1515 38.0857L77.5923 100.392L70.025 101.787L66.4218 31.4179L65.0635 31.3638L67.2697 104.588L79.5537 112.138Z" fill="white"/>
</g>
<g style="mix-blend-mode:screen" opacity="0.41">
<path d="M98.4178 107.591L98.0801 59.3829L96.4074 59.3159L96.4563 95.8457L86.6132 94.2734L95.4692 32.2323L94.1109 32.1782L84.4224 99.6087L98.4178 107.591Z" fill="white"/>
</g>
</g>
<g style="mix-blend-mode:multiply" opacity="0.51">
<path d="M92.2478 43.836C91.6293 38.7198 89.142 38.395 89.142 38.395L14.2551 41.7792C12.0926 41.3616 20.7218 78.0461 23.923 98.4206C31.0289 100.921 42.6273 102.709 54.7799 102.287C68.734 101.797 79.2035 98.2711 84.0181 94.7967C86.4125 76.8398 92.7504 47.9908 92.2478 43.836Z" fill="#D36A13"/>
</g>
<path style="mix-blend-mode:color-dodge" opacity="0.31" d="M33.2117 43.5729L22.3865 41.4131L17.5075 41.6322C16.711 42.5291 16.8966 43.8745 16.8631 46.586C16.8115 50.8928 23.3324 86.9535 24.9691 98.7658C29.0414 100.083 34.3766 101.168 40.3563 101.787C39.565 94.8791 31.7554 45.1452 33.2117 43.5729Z" fill="url(#paint2_linear_26_196)"/>
<g style="mix-blend-mode:multiply" opacity="0.29">
<path d="M54.7796 100.578C36.1423 101.227 18.8014 96.6704 16.9895 92.33C15.3605 88.4329 6.16429 53.4986 5.13332 39.2892C5.11528 49.8747 15.2729 89.9588 16.9895 94.0388C18.7937 98.3766 36.1423 102.933 54.7796 102.287C73.4169 101.64 85.8401 95.5595 86.8762 91.4382C87.7989 87.7654 95.2168 52.2614 95.6601 38.6475C93.4899 54.7538 87.7654 86.1932 86.8762 89.7294C85.8401 93.8507 73.4169 99.9256 54.7796 100.578Z" fill="#724C8D"/>
</g>
<g style="mix-blend-mode:multiply" opacity="0.86">
<path d="M9.04834 63.3214L9.73652 66.1128C9.73652 66.1128 23.6159 74.3605 55.0089 72.2367C82.5873 70.3707 92.6032 62.2776 92.6032 62.2776L93.7398 55.5376L9.04834 63.3214Z" fill="#B02125"/>
</g>
<path d="M28.348 35.8074C28.348 35.8074 0.612383 32.9877 0.184532 38.091C-0.614469 47.6764 2.597 56.535 4.73369 61.2027C6.87037 65.8704 35.0287 70.7546 55.3413 69.3577C75.654 67.9607 95.7785 60.762 96.7553 56.2128C97.7322 51.6637 101.364 34.9027 98.044 32.3227C94.7243 29.7427 28.348 35.8074 28.348 35.8074Z" fill="url(#paint3_linear_26_196)"/>
<g style="mix-blend-mode:multiply" opacity="0.51">
<path d="M87.4846 37.9257L85.3917 31.8018C79.742 31.9822 72.7881 32.3739 65.6899 32.8482L54.5605 42.5367C57.9911 42.4646 55.4936 64.6201 55.5915 69.3419C66.9064 68.5352 80.3915 65.901 90.129 61.3235C91.7373 45.8332 92.4048 36.5004 87.4846 37.9257Z" fill="#D36A13"/>
</g>
<mask id="mask1_26_196" style="mask-type:luminance" maskUnits="userSpaceOnUse" x="0" y="31" width="100" height="39">
<path d="M28.348 35.8074C28.348 35.8074 0.612383 32.9877 0.184532 38.091C-0.614469 47.6764 2.597 56.535 4.73369 61.2027C6.87037 65.8704 35.0287 70.7546 55.3413 69.3577C75.654 67.9607 95.7785 60.762 96.7553 56.2128C97.7322 51.6637 101.364 34.9027 98.044 32.3227C94.7243 29.7427 28.348 35.8074 28.348 35.8074Z" fill="white"/>
</mask>
<g mask="url(#mask1_26_196)">
<g style="mix-blend-mode:color" opacity="0.51">
<path d="M-1.07067 53.2331C3.37796 62.6484 64.7489 73.0457 102.39 50.7562C140.03 28.4666 103.029 46.0833 103.029 46.0833C103.029 46.0833 56.7203 74.5664 -3.13002 49.4907C-62.9803 24.4149 -1.07067 53.2331 -1.07067 53.2331Z" fill="#009000"/>
</g>
<g style="mix-blend-mode:color" opacity="0.51">
<path d="M-1.07067 46.0651C3.37796 55.4804 64.7489 65.8777 102.39 43.5882C140.03 21.2987 103.029 38.9153 103.029 38.9153C103.029 38.9153 56.7203 67.3984 -3.13002 42.3227C-62.9803 17.247 -1.07067 46.0651 -1.07067 46.0651Z" fill="#009000"/>
</g>
<g style="mix-blend-mode:screen" opacity="0.41">
<path d="M21.7627 23.9023L27.8222 71.729L29.4898 71.5949L25.1056 35.3281L32.0646 35.4724L35.0519 73.0409L36.4076 72.9326L34.856 29.9387L21.7627 23.9023Z" fill="white"/>
</g>
<g style="mix-blend-mode:screen" opacity="0.41">
<path d="M49.3462 25.3867L51.3205 73.5561L52.9932 73.5639L51.7071 37.0573L58.6275 37.7918L58.4136 75.4763L59.7719 75.484L61.8802 32.5159L49.3462 25.3867Z" fill="white"/>
</g>
<g style="mix-blend-mode:screen" opacity="0.41">
<path d="M76.4507 18.2344L78.425 66.4038L80.0977 66.4115L78.809 29.9049L85.732 30.6395L85.518 68.324L86.8764 68.3317L88.9821 25.3635L76.4507 18.2344Z" fill="white"/>
</g>
</g>
<g style="mix-blend-mode:multiply" opacity="0.51">
<path d="M95.2066 41.3717C94.3406 35.8122 91.6162 35.5493 91.6162 35.5493L10.0177 41.9929C7.6413 41.6166 7.89388 42.9749 12.1415 65.0891C22.7373 68.5094 42.0963 70.244 55.3416 69.3445C70.5484 68.298 86.6109 63.7463 93.0364 59.808C94.9875 40.132 95.9077 45.8874 95.2066 41.3717Z" fill="#D36A13"/>
</g>
<path style="mix-blend-mode:color-dodge" opacity="0.31" d="M30.7714 43.2635L18.8714 41.3047L13.5568 41.7248C12.7217 42.7326 11.1391 42.9311 11.2036 45.8899C11.3067 50.5963 11.1211 52.6454 13.3454 65.4783C18.6188 66.7851 24.6423 68.1975 31.1889 68.6511C30.0909 61.1379 29.2404 45.0342 30.7714 43.2635Z" fill="url(#paint4_linear_26_196)"/>
<path style="mix-blend-mode:color-dodge" opacity="0.18" d="M97.619 32.0493C94.3071 29.4719 28.3431 35.8072 28.3431 35.8072C28.3431 35.8072 1.23123 33.0777 0.179645 38.0908C-0.408007 40.9028 0.305938 49.2639 4.43239 60.4757C0.844619 45.7483 98.0624 46.6736 96.7505 56.2255C99.199 36.516 100.408 34.2169 97.619 32.0493Z" fill="url(#paint5_linear_26_196)"/>
<path d="M15.8528 42.6141C64.9063 46.4802 130.329 32.5828 80.1156 27.879C29.9023 23.1752 -28.3809 39.1294 15.8528 42.6141Z" fill="url(#paint6_linear_26_196)"/>
<path d="M98.0545 32.3356C97.6731 31.4902 96.2066 30.6809 93.5003 29.9463C101.707 33.0779 76.4893 41.6504 50.4341 42.8849C24.4563 44.117 -11.0219 42.5911 3.89107 35.0161C1.60232 36.0625 0.282678 37.109 0.184737 38.0909C-0.163215 38.8487 0.184731 41.4055 0.630625 45.1814C1.48633 39.6786 8.20053 46.2124 39.6992 45.1556C71.1978 44.0989 98.1757 28.2684 98.7479 42.2586C98.9077 36.6321 98.7479 32.8768 98.0545 32.3356Z" fill="url(#paint7_linear_26_196)"/>
<path style="mix-blend-mode:color-dodge" opacity="0.4" d="M98.0546 32.3356C97.6731 31.4902 96.2066 30.6809 93.5003 29.9463C101.707 33.0779 76.4893 41.6504 50.4342 42.8849C24.4563 44.117 -11.0219 42.5911 3.89107 35.0161C1.60232 36.0625 0.282679 37.109 0.184737 38.0909C-0.163215 38.8487 0.184731 41.4055 0.630625 45.1814C1.48633 39.6786 8.20053 46.2124 39.6992 45.1556C71.1978 44.0989 98.1345 27.5261 98.7066 41.5163C98.8793 35.8898 98.7479 32.8768 98.0546 32.3356Z" fill="url(#paint8_linear_26_196)"/>
<g style="mix-blend-mode:color-dodge" opacity="0.76">
<path d="M26.7245 44.5266C30.7453 45.7561 33.7686 44.9751 38.3023 43.9287C42.836 42.8822 34.8898 43.6013 30.6293 43.4622C27.4617 43.3591 20.4872 42.6194 26.7245 44.5266Z" fill="#7483FB"/>
</g>
<path d="M3.21338 40.9853C2.46078 40.1786 9.97139 41.89 7.95842 42.0163C5.94546 42.1426 4.14383 41.9828 3.21338 40.9853Z" fill="#FFE5FF"/>
<g style="mix-blend-mode:multiply" opacity="0.86">
<path d="M61.0531 101.846C61.0531 101.846 62.4887 97.882 62.8134 89.9229C63.1382 81.9638 64.7826 45.1763 64.7027 44.0603C64.6228 42.9442 60.7412 38.1528 60.7412 38.1528L70.8112 38.6477L71.1591 87.6573L63.6846 101.524L61.0531 101.846Z" fill="#B02125"/>
</g>
<path d="M19.7478 38.9544C19.2478 38.3796 24.3871 39.7276 23.0005 39.7817C21.6138 39.8358 20.3664 39.6657 19.7478 38.9544Z" fill="#FFE5FF"/>
<g style="mix-blend-mode:multiply" opacity="0.86">
<path d="M18.8708 41.3047L17.9224 45.274C17.9224 45.274 31.7116 39.0882 34.8354 39.0572C37.9592 39.0263 43.8564 40.5006 43.8564 40.5006L51.6247 51.568C51.6247 51.568 53.6042 40.7738 55.1867 40.5057C56.7692 40.2377 75.6978 52.5732 85.657 38.8124C90.9407 31.5105 60.5864 32.2142 60.5864 32.2142L27.5129 34.4385L18.8708 41.3047Z" fill="#B02125"/>
</g>
<path d="M53.8027 38.3176C53.8027 38.3176 64.8315 39.5599 66.5069 41.8332C68.1822 44.1065 63.6717 101.524 63.6717 101.524L61.0504 101.846C62.3611 102.534 63.8066 102.926 65.2852 102.995C67.793 103.124 74.6257 100.534 76.5794 99.8871C78.5331 99.2401 84.1003 44.7895 83.0642 39.7893C82.0281 34.7891 53.8027 38.3176 53.8027 38.3176Z" fill="url(#paint9_linear_26_196)"/>
<path style="mix-blend-mode:multiply" d="M66.69 85.9095C67.4013 73.0971 68.8421 49.6091 69.1488 45.9595C69.4556 42.3098 68.3086 40.8794 68.3086 40.8794L64.6126 39.7969L64.5301 40.6036C65.4502 40.9748 66.1668 41.3768 66.5018 41.8408C68.1797 44.114 63.6667 101.531 63.6667 101.531L61.0454 101.853C62.1608 102.435 63.375 102.803 64.6255 102.939C66.275 102.908 65.9863 98.6754 66.69 85.9095Z" fill="url(#paint10_linear_26_196)"/>
<path style="mix-blend-mode:multiply" opacity="0.39" d="M66.8552 44.6246C66.8552 44.6246 74.4612 47.3489 79.8325 45.2741C85.2039 43.1993 82.6677 38.8125 82.6677 38.8125L65.1206 39.9388C65.1206 39.9388 66.8578 41.3977 66.8552 44.6246Z" fill="url(#paint11_linear_26_196)"/>
<path style="mix-blend-mode:multiply" opacity="0.69" d="M64.5403 89.9202C66.6022 60.6304 83.3039 39.1811 81.7729 58.5349C80.242 77.8888 79.3656 94.2786 76.2341 96.8895C73.1025 99.5005 63.9862 97.8225 64.5403 89.9202Z" fill="url(#paint12_linear_26_196)"/>
<path style="mix-blend-mode:screen" d="M70.0409 46.5962C70.7497 48.4674 76.6288 50.287 79.4433 47.8591C82.2579 45.4311 82.1677 43.2455 82.5362 45.9518C82.9048 48.6581 82.7141 53.5887 81.1212 51.7922C79.5284 49.9958 78.0696 50.153 72.925 54.9754C67.7805 59.7977 69.363 59.4833 69.1929 53.4908C69.0228 47.4983 69.0847 44.0677 70.0409 46.5962Z" fill="url(#paint13_linear_26_196)"/>
<path d="M44.4262 24.9382C44.4262 24.9382 43.354 11.2779 39.9337 6.28285C36.5135 1.28781 37.8718 0.715622 32.3175 0.22849C26.7631 -0.258643 27.0415 0.0325987 24.6986 1.10738C22.3557 2.18217 15.0307 12.8269 12.4894 24.0593C9.94804 35.2917 18.9329 36.0701 18.9329 36.0701C18.9329 36.0701 11.9017 37.6346 8.58203 41.8332L9.26502 43.0059L16.7859 46.8721C16.7859 46.8721 21.4717 41.1373 35.1475 37.6217L44.4262 39.5754C44.4262 39.5754 38.9569 47.2896 40.9106 55.7873L42.2792 56.6663L51.3621 58.522L53.0219 57.4472C53.0219 57.4472 50.2873 48.4623 53.7951 38.3047C53.7951 38.3047 70.0071 44.555 79.7755 42.0162C89.544 39.4775 92.7657 30.5879 89.7373 19.8504C86.7088 9.11286 83.7782 4.7132 80.9482 3.3549C78.1182 1.9966 72.7417 1.29295 68.9349 3.55077C65.128 5.80859 52.2332 17.0281 53.0142 26.2089C50.3364 24.9577 47.3515 24.516 44.4262 24.9382Z" fill="url(#paint14_linear_26_196)"/>
<g style="mix-blend-mode:multiply">
<path d="M38.3384 34.8897C38.9058 34.6435 39.5289 34.5545 40.1426 34.6319C41.1117 34.766 44.586 34.7402 48.0578 35.998C48.0578 35.998 45.1247 33.8613 43.1994 33.7324C41.2741 33.6036 38.9905 34.0211 38.3384 34.8897Z" fill="#AA2EC5"/>
</g>
<g style="mix-blend-mode:multiply">
<path d="M66.5973 32.5544C57.2206 34.1189 53.9009 36.07 53.9009 36.07C53.9009 36.07 59.9552 39.7325 67.5019 40.6114C75.0486 41.4903 81.6546 41.4336 81.1004 39.3923C80.5463 37.351 75.9688 30.9925 66.5973 32.5544Z" fill="#AA2EC5"/>
</g>
<g style="mix-blend-mode:multiply">
<path d="M51.019 32.6526C50.7613 34.4568 53.0114 37.3693 53.6557 35.2301C53.6557 35.2301 53.3413 32.2042 55.5604 30.0546C56.9754 28.6963 51.2639 30.8459 51.019 32.6526Z" fill="#AA2EC5"/>
</g>
<g style="mix-blend-mode:multiply">
<path d="M23.9178 29.4927C18.5052 27.8947 11.3193 28.9411 14.5901 32.3098C17.8608 35.6785 21.5723 35.3872 28.8973 35.6321C36.2224 35.8769 35.9311 34.8021 35.9311 34.8021C35.7352 33.7274 29.3381 31.0881 23.9178 29.4927Z" fill="#AA2EC5"/>
</g>
<path style="mix-blend-mode:multiply" d="M72.8757 30.0415C65.1847 29.9668 54.576 34.2891 54.576 34.2891C54.576 34.2891 53.9162 32.8973 56.4808 29.4925C59.0453 26.0878 78.3888 21.6907 78.3888 21.6907C63.2259 21.6907 56.6354 28.758 56.6354 28.758C56.6354 28.758 56.1199 28.6497 56.0477 25.9383C55.9756 23.2268 68.6462 12.4609 68.6462 12.4609C56.9266 16.7085 56.6354 22.7887 55.705 25.1315C54.7745 27.4744 53.0451 26.2063 53.0451 26.2063C52.7222 26.0427 52.39 25.8981 52.0502 25.7733C52.5845 26.3743 52.9305 27.1191 53.0451 27.9152C53.0451 27.9152 47.7716 30.9668 50.1145 35.668C50.1145 35.668 44.3282 30.4075 36.7119 34.2144C36.7119 34.2144 36.3743 28.3817 42.7586 25.5697C41.4699 25.8068 40.8152 25.2785 40.8152 25.2785C42.939 20.5901 35.614 12.4609 35.614 12.4609C35.614 12.4609 41.1812 22.4948 40.2301 25.2063C39.9724 25.9863 39.5571 26.705 39.01 27.3178C38.4629 27.9305 37.7956 28.4243 37.0496 28.7683C36.2454 24.2655 31.1215 22.2861 31.1215 22.2861C38.5213 28.5131 35.5186 32.32 35.5186 32.32C25.3404 25.1444 12.3837 24.629 12.1362 29.2735C12.6517 33.2504 15.2291 34.918 17.0694 35.6088C17.6818 35.8048 18.3059 35.9624 18.938 36.0804C27.2657 37.6449 32.735 36.7171 32.735 36.7171C23.8712 37.748 14.7884 45.8643 14.7884 45.8643L16.7911 46.8953C16.7911 46.8953 21.4794 41.1605 35.1526 37.6449C35.1526 37.6449 36.699 34.9592 39.3254 34.6654C41.9518 34.3716 48.05 35.9979 48.05 35.9979C44.9365 38.1037 44.4287 39.6063 44.4287 39.6063C44.4287 39.6063 46.7252 37.1629 48.483 36.7248C50.2408 36.2866 52.5115 37.3846 52.5115 37.3846C48.4109 48.2974 51.3646 58.553 51.3646 58.553L53.0244 57.4782C53.0244 57.4782 50.2898 48.4933 53.7977 38.3357C53.7977 38.3357 70.0097 44.5859 79.7781 42.0472C81.1837 41.6855 82.5355 41.1404 83.7989 40.426C84.8479 38.5187 80.5255 30.1137 72.8757 30.0415Z" fill="url(#paint15_linear_26_196)"/>
<path style="mix-blend-mode:multiply" opacity="0.39" d="M36.6863 34.2145C37.3461 26.9977 44.4186 24.9358 44.4186 24.9358C44.4186 24.9358 41.1736 25.4745 41.7896 22.0671C42.4056 18.6598 41.4288 9.33465 37.6889 5.99947C33.9491 2.66429 30.0701 2.13335 35.5883 12.4714C41.1066 22.8094 40.8128 24.0208 39.2998 25.3379C37.7869 26.6549 37.7869 20.2114 34.8074 18.0128C31.8279 15.8143 20.7424 13.7652 23.7708 15.8169C27.7013 18.4827 31.2132 21.7184 34.1914 25.4178C37.9725 30.0417 34.6244 31.7118 29.1164 28.7684C23.6085 25.825 12.8065 22.7811 12.1338 29.2839C12.9611 35.5702 18.9356 36.0909 18.9356 36.0909C18.9356 36.0909 18.7217 36.1424 18.366 36.2378C27.1988 37.5033 36.3487 37.9234 36.6863 34.2145Z" fill="url(#paint16_linear_26_196)"/>
<path style="mix-blend-mode:multiply" opacity="0.39" d="M79.7832 42.029C89.549 39.4902 92.7734 30.6007 89.7449 19.8632C86.7164 9.12564 83.7859 4.72599 80.9559 3.36769C78.6749 2.26713 74.7469 1.61246 71.3138 2.57126C73.6334 2.05577 79.479 2.87024 80.7832 5.00434C82.3941 7.64104 83.9586 7.93487 85.4715 13.0614C87.1443 18.7317 87.5335 20.2395 86.7912 24.7809C86.0489 29.3223 81.59 32.4719 79.6852 31.3507C77.7805 30.2296 75.4376 28.9073 67.9502 30.4796C60.4628 32.0518 58.736 32.5209 57.5143 32.2296C56.2926 31.9384 55.3183 29.8352 62.5222 26.2474C69.7261 22.6597 77.5846 22.7061 83.0539 21.3503C88.5232 19.9946 79.5873 19.59 73.3319 17.6698C67.0765 15.7496 64.5454 17.5899 60.3958 23.6442C56.2462 29.6986 56.2719 28.1676 56.7874 25.2551C57.3029 22.3426 65.4553 15.2779 70.7055 10.703C75.9557 6.12809 72.8035 7.28536 66.1151 9.28801C59.4267 11.2907 56.4446 14.4145 55.79 21.0076C55.1353 27.6006 53.0399 26.2397 53.1919 23.3968C53.0096 24.3301 52.9541 25.2838 53.027 26.232C53.2389 26.3159 53.4286 26.4478 53.5811 26.6173C53.7335 26.7867 53.8447 26.9892 53.9059 27.2088C54.1507 27.982 53.1739 27.3557 50.6197 30.1394C48.0654 32.923 49.4624 35.9514 51.6506 36.4386C53.8389 36.9257 53.7976 38.3433 53.7976 38.3433C53.7976 38.3433 70.0148 44.5677 79.7832 42.029Z" fill="url(#paint17_linear_26_196)"/>
<path style="mix-blend-mode:multiply" d="M75.9946 30.5723C81.2551 31.4822 89.5416 23.6468 84.4073 20.2291C79.2731 16.8115 79.5102 12.9144 79.6649 8.49414C79.8195 4.07387 77.0875 2.74133 74.7678 2.52483C72.4481 2.30832 80.4536 0.462896 84.4022 6.68737C88.3508 12.9118 92.5236 25.451 90.2426 32.0208C87.9616 38.5907 82.1444 43.4646 74.358 42.98C66.5716 42.4955 57.8702 27.4253 75.9946 30.5723Z" fill="url(#paint18_linear_26_196)"/>
<path style="mix-blend-mode:multiply" d="M12.9582 24.2218C13.8835 19.1906 25.9484 13.1853 27.7062 7.91186C29.464 2.63845 28.4356 -1.20448 24.1648 1.45026C19.894 4.105 16.2675 13.7677 14.3216 17.9689C12.3756 22.1701 12.9582 24.2218 12.9582 24.2218Z" fill="url(#paint19_linear_26_196)"/>
<path style="mix-blend-mode:multiply" opacity="0.69" d="M40.9158 55.8005C40.9158 55.8005 39.1864 47.9548 43.1427 45.465C47.0991 42.9752 53.0271 57.4603 53.0271 57.4603L51.3673 58.5351L42.2845 56.6794L40.9158 55.8005Z" fill="url(#paint20_linear_26_196)"/>
<path style="mix-blend-mode:multiply" opacity="0.69" d="M8.58447 41.8331C8.58447 41.8331 11.3964 37.8742 16.425 39.7892C21.4535 41.7043 16.7884 46.8849 16.7884 46.8849L9.26746 43.0188L8.58447 41.8331Z" fill="url(#paint21_linear_26_196)"/>
<path style="mix-blend-mode:screen" d="M37.2017 32.0083C37.2017 32.0083 39.1863 26.3689 44.1169 25.3921C49.0475 24.4152 52.9729 27.6344 52.9729 27.6344C52.9729 27.6344 49.3387 29.8871 48.3129 30.3252C47.2871 30.7634 45.6272 28.6473 42.1606 29.2659C38.694 29.8845 37.2017 32.0083 37.2017 32.0083Z" fill="url(#paint22_linear_26_196)"/>
<path style="mix-blend-mode:screen" d="M23.2423 25.7836C20.8685 24.2216 18.1442 15.9198 22.1211 15.1388C26.0981 14.3579 32.7865 11.8165 29.6601 6.05598C26.5337 0.295449 35.5882 0.754229 35.5882 0.754229C35.5882 0.754229 27.7116 -0.864394 25.879 0.671749C25.879 0.671749 27.5853 -0.297359 28.325 2.09191C29.0647 4.48118 28.2039 9.75716 23.7269 12.9789C19.2499 16.2007 14.7059 20.5591 13.7883 21.8762C12.8708 23.1933 12.4507 27.946 12.4507 27.946C12.4507 27.946 13.2445 24.6237 17.5282 24.9897C21.8119 25.3557 23.2423 25.7836 23.2423 25.7836Z" fill="url(#paint23_linear_26_196)"/>
<path style="mix-blend-mode:screen" d="M67.5176 4.50458C67.5176 4.50458 72.3374 1.64107 74.2704 4.73655C78.0928 10.8631 71.1492 13.0127 75.6623 15.7241C80.1753 18.4355 84.4255 20.4717 83.959 22.3635C83.4924 24.2554 73.7163 29.4282 72.8529 29.6319C72.8529 29.6319 76.7654 29.7865 78.2242 30.5597C79.683 31.333 83.7914 26.49 85.0363 25.209C86.2812 23.928 85.8096 22.7115 81.8738 18.0464C77.9381 13.3812 80.7501 9.08724 79.3402 5.85C77.9304 2.61276 72.9998 0.463182 67.5176 4.50458Z" fill="url(#paint24_linear_26_196)"/>
<path style="mix-blend-mode:screen" d="M15.0255 37.3691C13.5435 38.3589 20.8324 40.0935 22.9949 40.0316C25.1573 39.9697 19.6442 43.8127 18.9096 42.3848C18.1751 40.9569 15.3992 37.1655 9.52783 40.8564C9.52783 40.8564 11.2057 39.1733 13.1156 38.279L15.0255 37.3691Z" fill="url(#paint25_linear_26_196)"/>
<path style="mix-blend-mode:screen" d="M43.2356 41.6092C43.2356 41.6092 42.1892 44.2176 44.8619 43.7794C47.5347 43.3413 51.4833 40.3927 51.205 41.7588C50.9266 43.1248 50.0606 50.8158 50.2461 51.7102C50.4317 52.6045 47.3517 45.8414 44.7872 45.1764C42.2226 44.5114 40.7148 49.1353 40.7148 49.1353C40.7148 49.1353 41.4958 44.514 43.2356 41.6092Z" fill="url(#paint26_linear_26_196)"/>
<path style="mix-blend-mode:multiply" opacity="0.69" d="M30.3896 39.0572C23.58 40.5211 17.2447 30.6393 24.8507 29.7784C32.4567 28.9176 36.395 32.8713 36.7249 33.8868C37.0548 34.9023 35.663 37.9231 30.3896 39.0572Z" fill="url(#paint27_linear_26_196)"/>
<path d="M24.8506 14.2112C29.2554 12.9225 28.2631 7.43519 27.428 8.60018C26.5929 9.76517 23.5618 12.5643 21.8014 14.2112C20.0411 15.8582 23.1675 14.7035 24.8506 14.2112Z" fill="#FFDBFB"/>
<path d="M41.5267 27.1524C44.9985 25.7297 48.9394 26.0132 49.4806 25.8019C50.0219 25.5905 45.3026 24.5802 43.2433 25.4024C41.1839 26.2246 39.3694 28.0313 41.5267 27.1524Z" fill="#FFDBFB"/>
<path d="M74.2701 4.73657C75.546 6.14642 75.9996 8.52795 75.3011 9.81924C74.6026 11.1105 80.6956 6.12581 78.4352 4.22367C76.1748 2.32153 71.7778 1.98904 74.2701 4.73657Z" fill="#FFDBFB"/>
<g style="mix-blend-mode:multiply" opacity="0.39">
<path d="M8.58447 41.833L16.0513 45.1759L16.7884 46.8873L9.26749 43.0057L8.58447 41.833Z" fill="#740074"/>
</g>
<g style="mix-blend-mode:multiply" opacity="0.39">
<path d="M40.9136 55.8003L51.1098 57.4808L53.0223 57.4602L51.3624 58.5349L42.2796 56.6792L40.9136 55.8003Z" fill="#740074"/>
</g>
<defs>
<linearGradient id="paint0_linear_26_196" x1="11.7186" y1="32.9951" x2="11.7186" y2="15.9223" gradientUnits="userSpaceOnUse">
<stop stop-color="#923665"/>
<stop offset="0.08" stop-color="#9F335D"/>
<stop offset="0.4" stop-color="#D1293F"/>
<stop offset="0.65" stop-color="#F0232C"/>
<stop offset="0.79" stop-color="#FC2125"/>
</linearGradient>
<linearGradient id="paint1_linear_26_196" x1="50.398" y1="102.349" x2="50.398" y2="26.5312" gradientUnits="userSpaceOnUse">
<stop stop-color="#FF7C13"/>
<stop offset="0.17" stop-color="#FF8214"/>
<stop offset="0.4" stop-color="#FF9117"/>
<stop offset="0.64" stop-color="#FFAB1C"/>
<stop offset="0.85" stop-color="#FFC721"/>
</linearGradient>
<linearGradient id="paint2_linear_26_196" x1="28.6032" y1="102.212" x2="28.6032" y2="11.7083" gradientUnits="userSpaceOnUse">
<stop/>
<stop offset="0.08" stop-color="#19190D"/>
<stop offset="0.34" stop-color="#696939"/>
<stop offset="0.57" stop-color="#AAAA5C"/>
<stop offset="0.77" stop-color="#D8D876"/>
<stop offset="0.91" stop-color="#F4F485"/>
<stop offset="1" stop-color="#FFFF8B"/>
</linearGradient>
<linearGradient id="paint3_linear_26_196" x1="51.6682" y1="95.7307" x2="49.2948" y2="25.6625" gradientUnits="userSpaceOnUse">
<stop stop-color="#FF7C13"/>
<stop offset="0.17" stop-color="#FF8214"/>
<stop offset="0.4" stop-color="#FF9117"/>
<stop offset="0.64" stop-color="#FFAB1C"/>
<stop offset="0.85" stop-color="#FFC721"/>
</linearGradient>
<linearGradient id="paint4_linear_26_196" x1="21.8226" y1="69.1446" x2="20.4148" y2="27.5817" gradientUnits="userSpaceOnUse">
<stop/>
<stop offset="0.08" stop-color="#19190D"/>
<stop offset="0.34" stop-color="#696939"/>
<stop offset="0.57" stop-color="#AAAA5C"/>
<stop offset="0.77" stop-color="#D8D876"/>
<stop offset="0.91" stop-color="#F4F485"/>
<stop offset="1" stop-color="#FFFF8B"/>
</linearGradient>
<linearGradient id="paint5_linear_26_196" x1="50.4113" y1="60.9013" x2="49.9333" y2="46.7877" gradientUnits="userSpaceOnUse">
<stop offset="0.09"/>
<stop offset="0.87" stop-color="#6370D6"/>
<stop offset="1" stop-color="#7483FB"/>
</linearGradient>
<linearGradient id="paint6_linear_26_196" x1="52.27" y1="126.363" x2="49.0192" y2="30.391" gradientUnits="userSpaceOnUse">
<stop stop-color="#FF7C13"/>
<stop offset="0.17" stop-color="#FF8214"/>
<stop offset="0.4" stop-color="#FF9117"/>
<stop offset="0.64" stop-color="#FFAB1C"/>
<stop offset="0.85" stop-color="#FFC721"/>
</linearGradient>
<linearGradient id="paint7_linear_26_196" x1="67.9675" y1="584.994" x2="49.004" y2="25.1411" gradientUnits="userSpaceOnUse">
<stop stop-color="#FF7C13"/>
<stop offset="0.17" stop-color="#FF8214"/>
<stop offset="0.4" stop-color="#FF9117"/>
<stop offset="0.64" stop-color="#FFAB1C"/>
<stop offset="0.85" stop-color="#FFC721"/>
</linearGradient>
<linearGradient id="paint8_linear_26_196" x1="1027.1" y1="37.5204" x2="23.3507" y2="37.597" gradientUnits="userSpaceOnUse">
<stop offset="0.92"/>
<stop offset="0.94" stop-color="#1C1F3C"/>
<stop offset="0.99" stop-color="#606DD0"/>
<stop offset="1" stop-color="#7483FB"/>
</linearGradient>
<linearGradient id="paint9_linear_26_196" x1="68.4992" y1="102.998" x2="68.4992" y2="-30.435" gradientUnits="userSpaceOnUse">
<stop stop-color="#923665"/>
<stop offset="0.08" stop-color="#9F335D"/>
<stop offset="0.4" stop-color="#D1293F"/>
<stop offset="0.65" stop-color="#F0232C"/>
<stop offset="0.79" stop-color="#FC2125"/>
</linearGradient>
<linearGradient id="paint10_linear_26_196" x1="65.1306" y1="102.998" x2="65.1306" y2="-30.4353" gradientUnits="userSpaceOnUse">
<stop stop-color="#7B00C6"/>
<stop offset="0.5" stop-color="#B93CB4"/>
</linearGradient>
<linearGradient id="paint11_linear_26_196" x1="83.2914" y1="42.4338" x2="57.6203" y2="42.4338" gradientUnits="userSpaceOnUse">
<stop offset="0.05" stop-color="white"/>
<stop offset="0.16" stop-color="#DEC2DE"/>
<stop offset="0.28" stop-color="#BE87BE"/>
<stop offset="0.4" stop-color="#A357A3"/>
<stop offset="0.51" stop-color="#8F318F"/>
<stop offset="0.61" stop-color="#801680"/>
<stop offset="0.7" stop-color="#770677"/>
<stop offset="0.77" stop-color="#740074"/>
</linearGradient>
<linearGradient id="paint12_linear_26_196" x1="73.1953" y1="98.0829" x2="73.1953" y2="-1.02928" gradientUnits="userSpaceOnUse">
<stop stop-color="white"/>
<stop offset="0.06" stop-color="#F5E4E5"/>
<stop offset="0.21" stop-color="#E1A9AB"/>
<stop offset="0.35" stop-color="#CF797B"/>
<stop offset="0.48" stop-color="#C25356"/>
<stop offset="0.61" stop-color="#B8373B"/>
<stop offset="0.71" stop-color="#B2272B"/>
<stop offset="0.8" stop-color="#B02125"/>
</linearGradient>
<linearGradient id="paint13_linear_26_196" x1="82.7296" y1="51.5113" x2="53.9655" y2="51.5113" gradientUnits="userSpaceOnUse">
<stop/>
<stop offset="0.37" stop-color="#602D50"/>
<stop offset="1" stop-color="#FF78D5"/>
</linearGradient>
<linearGradient id="paint14_linear_26_196" x1="47.7769" y1="54.545" x2="51.942" y2="12.5666" gradientUnits="userSpaceOnUse">
<stop stop-color="#923665"/>
<stop offset="0.08" stop-color="#9F335D"/>
<stop offset="0.4" stop-color="#D1293F"/>
<stop offset="0.65" stop-color="#F0232C"/>
<stop offset="0.79" stop-color="#FC2125"/>
</linearGradient>
<linearGradient id="paint15_linear_26_196" x1="48.0474" y1="85.9793" x2="48.0474" y2="25.5929" gradientUnits="userSpaceOnUse">
<stop stop-color="#7B00C6"/>
<stop offset="0.5" stop-color="#B93CB4"/>
</linearGradient>
<linearGradient id="paint16_linear_26_196" x1="21.6728" y1="15.5952" x2="38.8359" y2="32.7557" gradientUnits="userSpaceOnUse">
<stop offset="0.05" stop-color="white"/>
<stop offset="0.14" stop-color="#DEC2DE"/>
<stop offset="0.23" stop-color="#BE87BE"/>
<stop offset="0.31" stop-color="#A357A3"/>
<stop offset="0.39" stop-color="#8F318F"/>
<stop offset="0.47" stop-color="#801680"/>
<stop offset="0.54" stop-color="#770677"/>
<stop offset="0.59" stop-color="#740074"/>
</linearGradient>
<linearGradient id="paint17_linear_26_196" x1="86.1133" y1="12.4015" x2="54.3543" y2="44.1579" gradientUnits="userSpaceOnUse">
<stop offset="0.2" stop-color="white"/>
<stop offset="0.27" stop-color="#DEC2DD"/>
<stop offset="0.35" stop-color="#BE87BC"/>
<stop offset="0.43" stop-color="#A357A1"/>
<stop offset="0.5" stop-color="#8F318C"/>
<stop offset="0.57" stop-color="#80167C"/>
<stop offset="0.63" stop-color="#770673"/>
<stop offset="0.67" stop-color="#740070"/>
</linearGradient>
<linearGradient id="paint18_linear_26_196" x1="69.0176" y1="18.8425" x2="91.4617" y2="31.1729" gradientUnits="userSpaceOnUse">
<stop offset="0.2" stop-color="#B02125"/>
<stop offset="0.29" stop-color="#B2272B"/>
<stop offset="0.39" stop-color="#B8373B"/>
<stop offset="0.52" stop-color="#C25356"/>
<stop offset="0.65" stop-color="#CF797B"/>
<stop offset="0.79" stop-color="#E1A9AB"/>
<stop offset="0.94" stop-color="#F5E4E5"/>
<stop offset="1" stop-color="white"/>
</linearGradient>
<linearGradient id="paint19_linear_26_196" x1="13.734" y1="10.8475" x2="28.9021" y2="14.6879" gradientUnits="userSpaceOnUse">
<stop stop-color="white"/>
<stop offset="0.06" stop-color="#F5E4E5"/>
<stop offset="0.21" stop-color="#E1A9AB"/>
<stop offset="0.35" stop-color="#CF797B"/>
<stop offset="0.48" stop-color="#C25356"/>
<stop offset="0.61" stop-color="#B8373B"/>
<stop offset="0.71" stop-color="#B2272B"/>
<stop offset="0.8" stop-color="#B02125"/>
</linearGradient>
<linearGradient id="paint20_linear_26_196" x1="46.7795" y1="60.9682" x2="46.7795" y2="41.7793" gradientUnits="userSpaceOnUse">
<stop stop-color="white"/>
<stop offset="0.06" stop-color="#F5E4E5"/>
<stop offset="0.21" stop-color="#E1A9AB"/>
<stop offset="0.35" stop-color="#CF797B"/>
<stop offset="0.48" stop-color="#C25356"/>
<stop offset="0.61" stop-color="#B8373B"/>
<stop offset="0.71" stop-color="#B2272B"/>
<stop offset="0.8" stop-color="#B02125"/>
</linearGradient>
<linearGradient id="paint21_linear_26_196" x1="13.6723" y1="48.2741" x2="13.6723" y2="37.3304" gradientUnits="userSpaceOnUse">
<stop stop-color="white"/>
<stop offset="0.06" stop-color="#F5E4E5"/>
<stop offset="0.21" stop-color="#E1A9AB"/>
<stop offset="0.35" stop-color="#CF797B"/>
<stop offset="0.48" stop-color="#C25356"/>
<stop offset="0.61" stop-color="#B8373B"/>
<stop offset="0.71" stop-color="#B2272B"/>
<stop offset="0.8" stop-color="#B02125"/>
</linearGradient>
<linearGradient id="paint22_linear_26_196" x1="55.8442" y1="28.6087" x2="33.1938" y2="28.6087" gradientUnits="userSpaceOnUse">
<stop/>
<stop offset="0.37" stop-color="#602D50"/>
<stop offset="1" stop-color="#FF78D5"/>
</linearGradient>
<linearGradient id="paint23_linear_26_196" x1="24.0259" y1="33.0338" x2="24.0259" y2="-7.08886" gradientUnits="userSpaceOnUse">
<stop/>
<stop offset="0.37" stop-color="#602D50"/>
<stop offset="1" stop-color="#FF78D5"/>
</linearGradient>
<linearGradient id="paint24_linear_26_196" x1="76.5824" y1="35.8048" x2="76.5824" y2="-4.90558" gradientUnits="userSpaceOnUse">
<stop/>
<stop offset="0.37" stop-color="#602D50"/>
<stop offset="1" stop-color="#FF78D5"/>
</linearGradient>
<linearGradient id="paint25_linear_26_196" x1="26.0362" y1="40.0368" x2="5.97872" y2="40.0368" gradientUnits="userSpaceOnUse">
<stop/>
<stop offset="0.37" stop-color="#602D50"/>
<stop offset="1" stop-color="#FF78D5"/>
</linearGradient>
<linearGradient id="paint26_linear_26_196" x1="53.1303" y1="46.5966" x2="38.0421" y2="46.5966" gradientUnits="userSpaceOnUse">
<stop/>
<stop offset="0.37" stop-color="#602D50"/>
<stop offset="1" stop-color="#FF78D5"/>
</linearGradient>
<linearGradient id="paint27_linear_26_196" x1="21.9382" y1="32.3352" x2="37.578" y2="37.1988" gradientUnits="userSpaceOnUse">
<stop stop-color="white"/>
<stop offset="0.06" stop-color="#F5E4E5"/>
<stop offset="0.21" stop-color="#E1A9AB"/>
<stop offset="0.35" stop-color="#CF797B"/>
<stop offset="0.48" stop-color="#C25356"/>
<stop offset="0.61" stop-color="#B8373B"/>
<stop offset="0.71" stop-color="#B2272B"/>
<stop offset="0.8" stop-color="#B02125"/>
</linearGradient>
</defs>
</svg>
