<svg width="113" height="194" viewBox="0 0 113 194" fill="none" xmlns="http://www.w3.org/2000/svg">
<path style="mix-blend-mode:screen" opacity="0.6" fill-rule="evenodd" clip-rule="evenodd" d="M73.7286 84.4058C83.729 105.704 55.85 121.596 56.2278 132.816C56.6056 144.036 83.1901 139.047 90.871 146.903C103.774 160.098 55.3361 186.952 55.3361 186.952C55.3361 186.952 86.3625 144.5 66.2199 148.428C17.8843 157.856 15.6619 126.185 25.4235 115.566C34.5295 105.676 54.2582 96.2174 41.052 84.4058H73.7286Z" fill="url(#paint0_radial_313_2462)"/>
<path style="mix-blend-mode:screen" d="M56.1359 160.668C65.8274 160.668 73.684 134.79 73.684 102.868C73.684 70.9458 65.8274 45.0679 56.1359 45.0679C46.4444 45.0679 38.5879 70.9458 38.5879 102.868C38.5879 134.79 46.4444 160.668 56.1359 160.668Z" fill="url(#paint1_radial_313_2462)"/>
<path style="mix-blend-mode:screen" opacity="0.6" fill-rule="evenodd" clip-rule="evenodd" d="M41.5188 81.9839L42.8077 186.953H70.2813L72.0702 81.9839H41.5188Z" fill="url(#paint2_linear_313_2462)"/>
<path style="mix-blend-mode:screen" opacity="0.6" fill-rule="evenodd" clip-rule="evenodd" d="M45.2994 81.9839H46.7106L48.7718 186.953H47.3856L45.2994 81.9839Z" fill="url(#paint3_linear_313_2462)"/>
<path style="mix-blend-mode:screen" opacity="0.6" fill-rule="evenodd" clip-rule="evenodd" d="M69.703 81.9839H60.9609L58.6664 186.953H67.4668L69.703 81.9839Z" fill="url(#paint4_linear_313_2462)"/>
<path style="mix-blend-mode:screen" opacity="0.6" fill-rule="evenodd" clip-rule="evenodd" d="M50.0968 81.9478H55.347L53.9248 186.953H50.4468L50.0968 81.9478Z" fill="url(#paint5_linear_313_2462)"/>
<path style="mix-blend-mode:color-dodge" d="M65.517 146.698C71.2073 146.698 75.8203 123.159 75.8203 94.123C75.8203 65.0868 71.2073 41.5483 65.517 41.5483C59.8267 41.5483 55.2137 65.0868 55.2137 94.123C55.2137 123.159 59.8267 146.698 65.517 146.698Z" fill="url(#paint6_radial_313_2462)"/>
<path style="mix-blend-mode:color-dodge" d="M52.7219 109.046C56.9578 109.046 60.3917 99.5106 60.3917 87.7479C60.3917 75.9852 56.9578 66.4497 52.7219 66.4497C48.486 66.4497 45.0521 75.9852 45.0521 87.7479C45.0521 99.5106 48.486 109.046 52.7219 109.046Z" fill="url(#paint7_radial_313_2462)"/>
<path style="mix-blend-mode:color-dodge" d="M46.2494 147.245C50.4853 147.245 53.9192 129.158 53.9192 106.846C53.9192 84.5341 50.4853 66.4468 46.2494 66.4468C42.0135 66.4468 38.5796 84.5341 38.5796 106.846C38.5796 129.158 42.0135 147.245 46.2494 147.245Z" fill="url(#paint8_radial_313_2462)"/>
<path style="mix-blend-mode:screen" d="M57.4554 190.522C71.9735 190.522 83.7428 188.924 83.7428 186.952C83.7428 184.981 71.9735 183.383 57.4554 183.383C42.9373 183.383 31.1681 184.981 31.1681 186.952C31.1681 188.924 42.9373 190.522 57.4554 190.522Z" fill="url(#paint9_radial_313_2462)"/>
<path style="mix-blend-mode:screen" d="M57.4556 194C86.1144 194 109.347 190.845 109.347 186.952C109.347 183.06 86.1144 179.905 57.4556 179.905C28.7969 179.905 5.56433 183.06 5.56433 186.952C5.56433 190.845 28.7969 194 57.4556 194Z" fill="url(#paint10_radial_313_2462)"/>
<path style="mix-blend-mode:screen" d="M73.9984 87.2906C75.3414 78.0056 68.9031 69.3899 59.6181 68.0469C50.3331 66.704 41.7174 73.1423 40.3745 82.4273C39.0315 91.7123 45.4698 100.328 54.7548 101.671C64.0398 103.014 72.6555 96.5756 73.9984 87.2906Z" fill="url(#paint11_radial_313_2462)"/>
<path fill-rule="evenodd" clip-rule="evenodd" d="M37.3547 80.7808C37.3547 80.7808 38.5076 83.7448 41.6577 86.8922C41.6577 86.8922 54.9555 89.5173 70.1757 86.8922C70.1757 86.8922 74.9564 83.4114 76.4593 80.7808H37.3547Z" fill="url(#paint12_radial_313_2462)"/>
<path d="M56.9054 83.8197C67.7046 83.8197 76.4591 82.4529 76.4591 80.7668C76.4591 79.0807 67.7046 77.7139 56.9054 77.7139C46.1062 77.7139 37.3517 79.0807 37.3517 80.7668C37.3517 82.4529 46.1062 83.8197 56.9054 83.8197Z" fill="url(#paint13_linear_313_2462)"/>
<path fill-rule="evenodd" clip-rule="evenodd" d="M32.8933 73.8527C34.9934 78.2195 40.9492 80.3196 40.9492 80.3196C40.9492 80.3196 55.7638 85.3949 72.2813 79.9696C72.2813 79.9696 77.2176 77.8973 79.8927 72.9526L32.8933 73.8527Z" fill="url(#paint14_linear_313_2462)"/>
<path fill-rule="evenodd" clip-rule="evenodd" d="M61.9807 62.3414C34.9878 61.3357 27.0458 66.1082 27.0458 66.1082C27.0458 66.1082 31.6821 74.1141 57.161 73.8363C82.64 73.5585 87.882 66.1082 87.882 66.1082C87.882 66.1082 78.6871 62.9692 61.9807 62.3414Z" fill="url(#paint15_linear_313_2462)"/>
<path fill-rule="evenodd" clip-rule="evenodd" d="M80.4371 65.7803C80.4371 65.7803 66.8864 70.5833 50.069 69.5083C44.3938 69.1741 38.7844 68.1174 33.3766 66.3637C33.3766 66.3637 33.2905 44.096 55.9666 43.5349C58.2602 43.463 60.5541 43.671 62.7974 44.1543C79.0204 47.7656 80.4371 65.7803 80.4371 65.7803Z" fill="url(#paint16_radial_313_2462)"/>
<path style="mix-blend-mode:multiply" opacity="0.71" fill-rule="evenodd" clip-rule="evenodd" d="M59.8528 45.4459C58.0583 47.5598 46.5494 47.4487 46.5494 47.4487C46.5494 47.4487 42.577 48.4099 40.6575 54.8157C38.7379 61.2216 42.2575 66.9469 50.069 69.497C44.3938 69.1628 38.7844 68.1061 33.3766 66.3524C33.3766 66.3524 33.2905 44.0847 55.9666 43.5235C56.7194 43.5186 57.4629 43.6898 58.1377 44.0236C58.8126 44.3574 59.3999 44.8445 59.8528 45.4459Z" fill="url(#paint17_linear_313_2462)"/>
<path style="mix-blend-mode:multiply" opacity="0.71" fill-rule="evenodd" clip-rule="evenodd" d="M74.6591 78.6085C66.2642 77.7612 47.6468 79.1946 45.5411 81.4642C45.5411 81.4642 56.0972 83.8171 66.5865 81.4642C66.5865 81.4642 61.1807 83.8198 48.9107 83.5671L49.244 87.8006C49.244 87.8006 44.4132 87.6033 41.3992 86.6894C41.3992 86.6894 38.7325 84.0171 37.3546 80.7725C37.3546 80.7725 37.2601 80.0697 39.0991 79.5085C39.0991 79.5085 35.999 77.9723 34.4072 76.0389C34.4072 76.0389 77.287 75.7306 78.0704 75.5806L74.6591 78.6085Z" fill="url(#paint18_linear_313_2462)"/>
<path fill-rule="evenodd" clip-rule="evenodd" d="M27.0456 66.1079C26.4757 68.6965 26.4757 71.378 27.0456 73.9666C27.0456 73.9666 50.1578 83.3837 87.8818 73.3166C87.8818 73.3166 88.8846 67.6358 87.8818 66.1079C87.8818 66.1079 71.8921 74.0361 51.1467 72.6443C30.4013 71.2526 27.0456 66.1079 27.0456 66.1079Z" fill="url(#paint19_radial_313_2462)"/>
<path fill-rule="evenodd" clip-rule="evenodd" d="M51.7887 44.5847C50.372 45.1403 56.2056 47.7793 60.8642 44.9403C63.4365 43.3652 53.9416 43.7541 51.7887 44.5847Z" fill="url(#paint20_radial_313_2462)"/>
<path fill-rule="evenodd" clip-rule="evenodd" d="M52.7302 45.4016C52.7302 45.4016 55.5498 47.4295 59.8528 45.446C59.8528 45.446 62.2196 43.2459 63.4641 40.3652C65.2669 36.1984 65.2641 31.1982 56.9054 34.4289C54.9609 35.1817 54.1942 32.2288 51.9191 33.7816C46.9272 37.1901 52.7302 45.4016 52.7302 45.4016Z" fill="url(#paint21_radial_313_2462)"/>
<path fill-rule="evenodd" clip-rule="evenodd" d="M60.7972 36.3677C58.222 41.7124 61.6722 39.5429 62.3361 38.4289C63.364 36.7011 62.3667 33.112 60.7972 36.3677Z" fill="white"/>
<path style="mix-blend-mode:screen" opacity="0.64" fill-rule="evenodd" clip-rule="evenodd" d="M51.1498 34.4287C50.4101 38.1406 50.9558 41.9937 52.6971 45.3542C52.6971 45.3542 49.7774 40.0234 49.8636 38.1983C49.9969 35.3232 51.1498 34.4287 51.1498 34.4287Z" fill="url(#paint22_linear_313_2462)"/>
<path style="mix-blend-mode:screen" fill-rule="evenodd" clip-rule="evenodd" d="M79.3926 69.2915C76.6461 70.0741 73.8548 70.69 71.0339 71.136L71.8478 76.6391C71.8478 76.6391 77.262 75.7835 79.8843 75.214L79.3926 69.2915Z" fill="url(#paint23_radial_313_2462)"/>
<path style="mix-blend-mode:screen" fill-rule="evenodd" clip-rule="evenodd" d="M45.8411 72.1692C45.8411 72.1692 67.581 73.8526 85.1624 67.0718C85.1624 67.0718 69.0199 75.5027 45.8411 72.1692Z" fill="url(#paint24_radial_313_2462)"/>
<path style="mix-blend-mode:multiply" opacity="0.71" fill-rule="evenodd" clip-rule="evenodd" d="M34.4071 76.0334C36.0356 74.2129 37.8586 72.5762 39.8435 71.1526L49.8633 69.5275C44.2713 69.0524 38.745 67.9881 33.3765 66.3524L33.5598 63.9272C33.5598 63.9272 27.7262 65.3023 27.0317 66.1079C27.0317 66.1079 25.965 71.1831 27.0317 73.9666L34.4071 76.0334Z" fill="url(#paint25_linear_313_2462)"/>
<path fill-rule="evenodd" clip-rule="evenodd" d="M65.4005 46.6517C63.4921 46.5544 66.0727 49.6601 67.1894 49.2379C68.3062 48.8156 66.5061 46.7072 65.4005 46.6517Z" fill="white"/>
<path style="mix-blend-mode:screen" d="M64.7168 57.902C68.8898 57.902 72.2727 55.0576 72.2727 51.5489C72.2727 48.0402 68.8898 45.1958 64.7168 45.1958C60.5438 45.1958 57.1609 48.0402 57.1609 51.5489C57.1609 55.0576 60.5438 57.902 64.7168 57.902Z" fill="url(#paint26_radial_313_2462)"/>
<path style="mix-blend-mode:screen" d="M61.3059 45.1734C64.0567 45.1734 66.2866 42.2569 66.2866 38.6592C66.2866 35.0615 64.0567 32.145 61.3059 32.145C58.5551 32.145 56.3251 35.0615 56.3251 38.6592C56.3251 42.2569 58.5551 45.1734 61.3059 45.1734Z" fill="url(#paint27_radial_313_2462)"/>
<path style="mix-blend-mode:color-dodge" d="M45.8527 53.167C49.425 52.7398 51.9746 49.4976 51.5473 45.9254C51.1201 42.3531 47.8778 39.8036 44.3056 40.2308C40.7334 40.6581 38.1839 43.9003 38.6111 47.4725C39.0383 51.0447 42.2805 53.5943 45.8527 53.167Z" fill="url(#paint28_radial_313_2462)"/>
<path style="mix-blend-mode:multiply" d="M39.8938 49.849L40.5577 51.5852L41.2049 53.3241C41.6327 54.4853 42.0717 55.6437 42.4884 56.8076L44.9885 63.7996L44.6745 63.5218C46.5635 63.7802 48.4858 63.9413 50.3998 64.0357C52.3138 64.1302 54.2361 64.1607 56.1501 64.0969C57.1057 64.0654 58.0604 64.0117 59.0141 63.9357C59.9669 63.8524 60.917 63.7441 61.8587 63.6024C62.8004 63.4607 63.7393 63.2857 64.6671 63.069C65.5916 62.8492 66.5041 62.5812 67.4006 62.2662L67.1645 62.4968C67.6423 61.3245 68.0979 60.13 68.534 58.9355C68.9701 57.741 69.3674 56.5326 69.773 55.3242C70.1785 54.1158 70.548 52.8963 70.8841 51.6685C71.048 51.0518 71.223 50.4379 71.3675 49.8184C71.5119 49.1989 71.6647 48.5767 71.8063 47.9517H71.8592C71.6397 49.2101 71.373 50.4518 71.0674 51.7018C70.7619 52.9519 70.4174 54.1742 70.048 55.3992C69.6785 56.6243 69.2868 57.841 68.8729 59.0494C68.459 60.2578 68.0396 61.4634 67.5673 62.6607V62.6773H67.5478C66.6366 63.0022 65.7095 63.2803 64.7699 63.5107C63.831 63.7385 62.881 63.9246 61.9254 64.0663C60.9698 64.208 60.0114 64.3302 59.0474 64.4163C58.0835 64.5024 57.1196 64.558 56.1556 64.5913C54.2222 64.6469 52.2906 64.6172 50.3609 64.5024C48.433 64.3885 46.5079 64.2108 44.594 63.9246H44.569V63.8996L39.8466 49.8267L39.8938 49.849Z" fill="url(#paint29_linear_313_2462)"/>
<path style="mix-blend-mode:multiply" d="M50.6581 45.5874C52.3748 47.2541 59.8613 46.6486 59.8613 46.6486C59.8613 46.6486 54.5499 48.1681 52.3748 47.2514C50.1997 46.3347 50.6581 45.5874 50.6581 45.5874Z" fill="url(#paint30_linear_313_2462)"/>
<path style="mix-blend-mode:screen" opacity="0.91" d="M44.6079 63.9659C44.6079 63.9659 59.1225 65.9521 67.5812 62.6714C64.1033 64.3269 60.2904 65.1577 56.439 65.0993C52.4735 65.001 48.5199 64.6222 44.6079 63.9659Z" fill="url(#paint31_radial_313_2462)"/>
<path fill-rule="evenodd" clip-rule="evenodd" d="M47.194 69.2581L49.8635 66.4996L62.4363 66.1079L64.717 69.0914C64.717 69.0914 55.1027 70.6026 47.194 69.2581Z" fill="url(#paint32_radial_313_2462)"/>
<path fill-rule="evenodd" clip-rule="evenodd" d="M47.9579 69.3775L49.8635 66.8691L62.1974 66.5413L63.2281 69.2914L64.717 69.0914L62.4363 66.1079L49.8635 66.4996L47.194 69.2581L47.9579 69.3775Z" fill="url(#paint33_linear_313_2462)"/>
<path style="mix-blend-mode:multiply" fill-rule="evenodd" clip-rule="evenodd" d="M48.1632 68.2552L48.3521 68.858L50.605 67.2857H61.7583L62.9222 68.4747L63.4639 67.4524L62.4361 66.1079L49.8633 66.4996L48.1632 68.2552Z" fill="url(#paint34_linear_313_2462)"/>
<path fill-rule="evenodd" clip-rule="evenodd" d="M44.6074 86.7506C44.6074 86.7506 38.9293 92.7425 36.7403 91.998C35.6458 91.6258 36.3153 89.7257 37.4182 87.8006C38.5154 85.8811 40.0433 83.9421 40.6766 83.4726C41.7878 82.6587 44.0295 84.4671 44.5268 85.9728C44.617 86.2215 44.6447 86.4886 44.6074 86.7506Z" fill="url(#paint35_radial_313_2462)"/>
<path style="mix-blend-mode:multiply" opacity="0.71" fill-rule="evenodd" clip-rule="evenodd" d="M55.1358 85.3423C52.9801 86.0284 50.1577 87.8618 50.1577 87.8618C50.1577 87.8618 53.8218 88.0674 56.2386 88.048L55.1358 85.3423Z" fill="url(#paint36_linear_313_2462)"/>
<path fill-rule="evenodd" clip-rule="evenodd" d="M54.1498 85.9613C53.0998 88.717 55.111 95.0173 56.9055 95.0173C59.2695 95.0173 60.7112 86.4058 59.5306 85.7447C58.35 85.0835 54.5637 84.8752 54.1498 85.9613Z" fill="url(#paint37_radial_313_2462)"/>
<path style="mix-blend-mode:multiply" opacity="0.71" fill-rule="evenodd" clip-rule="evenodd" d="M44.527 85.978C41.7713 84.6946 37.4183 87.8003 37.4183 87.8003C38.5156 85.8808 40.0435 83.9418 40.6768 83.4723C41.7824 82.6556 44.0297 84.464 44.527 85.978Z" fill="url(#paint38_linear_313_2462)"/>
<path fill-rule="evenodd" clip-rule="evenodd" d="M66.8283 86.7506C66.8283 86.7506 72.5091 92.7425 74.6953 91.998C75.7898 91.6258 75.1231 89.7257 74.0203 87.8006C72.9091 85.8811 71.3952 83.9421 70.7591 83.4726C69.6479 82.6587 67.4061 84.4671 66.9116 85.9728C66.8206 86.2213 66.792 86.4884 66.8283 86.7506Z" fill="url(#paint39_radial_313_2462)"/>
<path style="mix-blend-mode:multiply" opacity="0.71" fill-rule="evenodd" clip-rule="evenodd" d="M71.3947 84.0866C71.1988 83.865 70.9862 83.6588 70.7586 83.4699C70.5948 83.3726 68.9807 82.0809 62.4554 87.8173C62.4554 87.8173 65.6 87.3645 67.3779 87.3089C67.4362 87.3089 67.6557 87.6256 68.5224 88.4062C68.5224 88.4062 68.1363 85.4866 69.078 84.406C70.0197 83.3254 71.3947 84.0866 71.3947 84.0866Z" fill="url(#paint40_linear_313_2462)"/>
<path fill-rule="evenodd" clip-rule="evenodd" d="M32.8958 0.535156L33.3764 6.96879C30.8763 35.8757 31.7541 53.2515 31.0596 66.3827L30.1818 67.4938C30.1818 67.4938 24.6982 49.9458 26.601 31.2505C28.5039 12.5552 32.8958 0.535156 32.8958 0.535156Z" fill="url(#paint41_radial_313_2462)"/>
<path fill-rule="evenodd" clip-rule="evenodd" d="M31.0295 75.2251L32.9295 75.7001L32.8934 78.6114C32.8934 78.6114 17.8455 81.6837 34.4074 92.0592H32.9295L16.4648 83.281L31.0295 75.2251Z" fill="url(#paint42_radial_313_2462)"/>
<path fill-rule="evenodd" clip-rule="evenodd" d="M32.9293 92.0616C21.7344 90.331 14.0673 84.9502 8.97266 79.3888C2.25845 72.0635 0 64.4298 0 64.4298C3.28071 40.1092 34.1183 -4.44564 32.8932 0.932391C25.9707 31.3366 30.182 67.4827 30.182 67.4827L27.0457 66.8744V73.9691L31.0431 75.2275L31.7654 78.0554C15.9508 81.9112 32.9293 92.0616 32.9293 92.0616Z" fill="url(#paint43_radial_313_2462)"/>
<path style="mix-blend-mode:screen" opacity="0.16" fill-rule="evenodd" clip-rule="evenodd" d="M3.50591 58.516C2.39474 69.0304 10.1118 59.68 10.5479 54.9325C10.9841 50.1851 4.09482 52.8741 3.50591 58.516Z" fill="url(#paint44_linear_313_2462)"/>
<path style="mix-blend-mode:screen" opacity="0.16" fill-rule="evenodd" clip-rule="evenodd" d="M11.5753 43.1485C9.86971 47.5125 13.5421 50.2349 15.1172 45.6708C16.6922 41.1067 13.5421 38.1093 11.5753 43.1485Z" fill="url(#paint45_linear_313_2462)"/>
<path style="mix-blend-mode:screen" opacity="0.16" fill-rule="evenodd" clip-rule="evenodd" d="M13.3395 54.5294C11.6061 57.6101 14.1979 59.5713 15.5425 57.1407C16.887 54.71 15.1007 51.3932 13.3395 54.5294Z" fill="url(#paint46_linear_313_2462)"/>
<path style="mix-blend-mode:screen" opacity="0.5" fill-rule="evenodd" clip-rule="evenodd" d="M30.8651 11.9971C25.4343 32.1452 29.3012 56.1658 29.3012 56.1658C29.3012 56.1658 28.5539 40.5734 29.4845 29.684C30.4151 18.7946 30.8651 11.9971 30.8651 11.9971Z" fill="url(#paint47_radial_313_2462)"/>
<path fill-rule="evenodd" clip-rule="evenodd" d="M79.6759 0.0463867L79.1953 6.4828C81.6954 35.3869 80.8176 52.7627 81.5121 65.8967L82.3927 66.994C82.3927 66.994 87.8735 49.4459 85.9734 30.7617C84.0733 12.0775 79.6759 0.0463867 79.6759 0.0463867Z" fill="url(#paint48_radial_313_2462)"/>
<path fill-rule="evenodd" clip-rule="evenodd" d="M81.5427 74.7388L79.6454 75.2138L79.6787 78.1278C79.6787 78.1278 94.7267 81.2002 78.1648 91.5757H79.6454L96.1073 82.7808L81.5427 74.7388Z" fill="url(#paint49_radial_313_2462)"/>
<path fill-rule="evenodd" clip-rule="evenodd" d="M79.6427 91.5758C90.8377 89.8451 98.5047 84.4615 103.599 78.9002C110.314 71.5776 112.572 63.9411 112.572 63.9411C109.291 39.6206 78.4537 -4.9343 79.6788 0.446505C86.6013 30.8479 82.3928 66.9968 82.3928 66.9968L85.5402 66.3857V73.4805L81.5427 74.7389L80.8205 77.5695C96.6213 81.4253 79.6427 91.5758 79.6427 91.5758Z" fill="url(#paint50_radial_313_2462)"/>
<path style="mix-blend-mode:screen" opacity="0.16" fill-rule="evenodd" clip-rule="evenodd" d="M109.066 58.0299C110.177 68.5415 102.46 59.1911 102.024 54.4436C101.588 49.6962 108.477 52.3852 109.066 58.0299Z" fill="url(#paint51_linear_313_2462)"/>
<path style="mix-blend-mode:screen" opacity="0.16" fill-rule="evenodd" clip-rule="evenodd" d="M100.996 42.6625C102.702 47.0238 99.0297 49.7489 97.4547 45.182C95.8796 40.6152 99.0297 37.6206 100.996 42.6625Z" fill="url(#paint52_linear_313_2462)"/>
<path style="mix-blend-mode:screen" opacity="0.16" fill-rule="evenodd" clip-rule="evenodd" d="M99.2325 54.0408C100.966 57.1215 98.3741 59.0827 97.0296 56.6548C95.6851 54.227 97.4685 50.9074 99.2325 54.0408Z" fill="url(#paint53_linear_313_2462)"/>
<path style="mix-blend-mode:screen" opacity="0.5" fill-rule="evenodd" clip-rule="evenodd" d="M81.7065 11.5107C87.1374 31.6561 83.2705 55.6795 83.2705 55.6795C83.2705 55.6795 84.0178 40.0899 83.0872 29.1977C82.1566 18.3055 81.7065 11.5107 81.7065 11.5107Z" fill="url(#paint54_radial_313_2462)"/>
<path style="mix-blend-mode:multiply" fill-rule="evenodd" clip-rule="evenodd" d="M34.4072 92.0618C26.5596 92.0618 14.3868 85.8448 8.97266 79.389L27.0291 66.8745V73.9693L32.9265 75.7027L32.8905 78.614C17.9009 82.4752 34.4072 92.0618 34.4072 92.0618Z" fill="url(#paint55_linear_313_2462)"/>
<path style="mix-blend-mode:multiply" fill-rule="evenodd" clip-rule="evenodd" d="M85.5402 66.3857L103.597 78.9002C103.597 78.9002 95.5407 89.9702 78.1621 91.5758C78.1621 91.5758 85.3847 87.4923 85.9403 83.281C86.4097 79.7114 79.6844 78.128 79.6844 78.128L79.6511 75.2139L85.5458 73.4805V66.3857H85.5402Z" fill="url(#paint56_linear_313_2462)"/>
<defs>
<radialGradient id="paint0_radial_313_2462" cx="0" cy="0" r="1" gradientUnits="userSpaceOnUse" gradientTransform="translate(56.9305 135.68) scale(44.3549 44.3549)">
<stop stop-color="#961F63"/>
<stop offset="0.12" stop-color="#7F1A54"/>
<stop offset="0.41" stop-color="#490F30"/>
<stop offset="0.67" stop-color="#210716"/>
<stop offset="0.87" stop-color="#090206"/>
<stop offset="1"/>
</radialGradient>
<radialGradient id="paint1_radial_313_2462" cx="0" cy="0" r="1" gradientUnits="userSpaceOnUse" gradientTransform="translate(60.4847 101.33) scale(17.7036 57.7138)">
<stop offset="0.01" stop-color="#8880EA"/>
<stop offset="0.13" stop-color="#726CC5"/>
<stop offset="0.36" stop-color="#4A4680"/>
<stop offset="0.58" stop-color="#2A2849"/>
<stop offset="0.76" stop-color="#131221"/>
<stop offset="0.91" stop-color="#050509"/>
<stop offset="1"/>
</radialGradient>
<linearGradient id="paint2_linear_313_2462" x1="56.7945" y1="81.9839" x2="56.7945" y2="186.953" gradientUnits="userSpaceOnUse">
<stop stop-color="#8A2787"/>
<stop offset="0.4" stop-color="#882685"/>
<stop offset="0.56" stop-color="#81247E"/>
<stop offset="0.67" stop-color="#752173"/>
<stop offset="0.76" stop-color="#641C62"/>
<stop offset="0.84" stop-color="#4E164C"/>
<stop offset="0.91" stop-color="#320E31"/>
<stop offset="0.97" stop-color="#120512"/>
<stop offset="1"/>
</linearGradient>
<linearGradient id="paint3_linear_313_2462" x1="47.0356" y1="81.9839" x2="47.0356" y2="186.953" gradientUnits="userSpaceOnUse">
<stop stop-color="#961F63"/>
<stop offset="0.12" stop-color="#7F1A54"/>
<stop offset="0.41" stop-color="#490F30"/>
<stop offset="0.67" stop-color="#210716"/>
<stop offset="0.87" stop-color="#090206"/>
<stop offset="1"/>
</linearGradient>
<linearGradient id="paint4_linear_313_2462" x1="64.1833" y1="81.9839" x2="64.1833" y2="186.953" gradientUnits="userSpaceOnUse">
<stop stop-color="#961F63"/>
<stop offset="0.12" stop-color="#7F1A54"/>
<stop offset="0.41" stop-color="#490F30"/>
<stop offset="0.67" stop-color="#210716"/>
<stop offset="0.87" stop-color="#090206"/>
<stop offset="1"/>
</linearGradient>
<linearGradient id="paint5_linear_313_2462" x1="52.7219" y1="81.9478" x2="52.7219" y2="186.953" gradientUnits="userSpaceOnUse">
<stop stop-color="#961F63"/>
<stop offset="0.12" stop-color="#7F1A54"/>
<stop offset="0.41" stop-color="#490F30"/>
<stop offset="0.67" stop-color="#210716"/>
<stop offset="0.87" stop-color="#090206"/>
<stop offset="1"/>
</linearGradient>
<radialGradient id="paint6_radial_313_2462" cx="0" cy="0" r="1" gradientUnits="userSpaceOnUse" gradientTransform="translate(65.3694 95.9678) scale(10.2995 52.6418)">
<stop stop-color="#EAAEE6"/>
<stop offset="0.12" stop-color="#C592C2"/>
<stop offset="0.36" stop-color="#805F7D"/>
<stop offset="0.58" stop-color="#493648"/>
<stop offset="0.76" stop-color="#211921"/>
<stop offset="0.91" stop-color="#090709"/>
<stop offset="1"/>
</radialGradient>
<radialGradient id="paint7_radial_313_2462" cx="0" cy="0" r="1" gradientUnits="userSpaceOnUse" gradientTransform="translate(52.5778 87.7479) scale(7.66736 21.2982)">
<stop stop-color="#27A2D9"/>
<stop offset="0.07" stop-color="#2393C5"/>
<stop offset="0.32" stop-color="#175F80"/>
<stop offset="0.55" stop-color="#0D3649"/>
<stop offset="0.75" stop-color="#061921"/>
<stop offset="0.9" stop-color="#020709"/>
<stop offset="1"/>
</radialGradient>
<radialGradient id="paint8_radial_313_2462" cx="0" cy="0" r="1" gradientUnits="userSpaceOnUse" gradientTransform="translate(46.1065 109.6) scale(7.66736 40.4666)">
<stop stop-color="#EAAEE6"/>
<stop offset="0.12" stop-color="#C592C2"/>
<stop offset="0.36" stop-color="#805F7D"/>
<stop offset="0.58" stop-color="#493648"/>
<stop offset="0.76" stop-color="#211921"/>
<stop offset="0.91" stop-color="#090709"/>
<stop offset="1"/>
</radialGradient>
<radialGradient id="paint9_radial_313_2462" cx="0" cy="0" r="1" gradientUnits="userSpaceOnUse" gradientTransform="translate(58.8416 169.443) scale(26.3168 3.61855)">
<stop stop-color="white"/>
<stop offset="0.12" stop-color="#C4C4C4"/>
<stop offset="0.25" stop-color="#919191"/>
<stop offset="0.37" stop-color="#646464"/>
<stop offset="0.5" stop-color="#404040"/>
<stop offset="0.62" stop-color="#242424"/>
<stop offset="0.75" stop-color="#101010"/>
<stop offset="0.87" stop-color="#040404"/>
<stop offset="1"/>
</radialGradient>
<radialGradient id="paint10_radial_313_2462" cx="0" cy="0" r="1" gradientUnits="userSpaceOnUse" gradientTransform="translate(58.8418 169.443) scale(51.9491 7.143)">
<stop stop-color="#8A2787"/>
<stop offset="1"/>
</radialGradient>
<radialGradient id="paint11_radial_313_2462" cx="0" cy="0" r="1" gradientUnits="userSpaceOnUse" gradientTransform="translate(57.1911 84.8303) scale(16.9869 16.9869)">
<stop stop-color="#067FFF"/>
<stop offset="0.17" stop-color="#0562C5"/>
<stop offset="0.4" stop-color="#034080"/>
<stop offset="0.6" stop-color="#022449"/>
<stop offset="0.78" stop-color="#011121"/>
<stop offset="0.92" stop-color="#000409"/>
<stop offset="1"/>
</radialGradient>
<radialGradient id="paint12_radial_313_2462" cx="0" cy="0" r="1" gradientUnits="userSpaceOnUse" gradientTransform="translate(61.1697 84.7337) scale(15.3951 15.3952)">
<stop stop-color="#B1B5BD"/>
<stop offset="0.14" stop-color="#ABAEBD"/>
<stop offset="0.34" stop-color="#9B9BBF"/>
<stop offset="0.57" stop-color="#817CC0"/>
<stop offset="0.75" stop-color="#685EC2"/>
<stop offset="0.97" stop-color="#7A75D8"/>
</radialGradient>
<linearGradient id="paint13_linear_313_2462" x1="56.9054" y1="84.3586" x2="56.9054" y2="77.0444" gradientUnits="userSpaceOnUse">
<stop stop-color="#E7E3F4"/>
<stop offset="0.07" stop-color="#DFD6EC"/>
<stop offset="0.37" stop-color="#C1A7CD"/>
<stop offset="0.64" stop-color="#AC85B7"/>
<stop offset="0.86" stop-color="#9F71A9"/>
<stop offset="1" stop-color="#9A69A4"/>
</linearGradient>
<linearGradient id="paint14_linear_313_2462" x1="32.8933" y1="77.714" x2="79.8844" y2="77.714" gradientUnits="userSpaceOnUse">
<stop stop-color="#5B58A3"/>
<stop offset="0.44" stop-color="#5F59A3"/>
<stop offset="0.85" stop-color="#6A5CA2"/>
<stop offset="0.99" stop-color="#705EA2"/>
</linearGradient>
<linearGradient id="paint15_linear_313_2462" x1="17.4731" y1="68.0277" x2="78.3176" y2="68.0277" gradientUnits="userSpaceOnUse">
<stop offset="0.03" stop-color="#7A82ED"/>
<stop offset="0.21" stop-color="#7A75ED"/>
<stop offset="0.99" stop-color="#FDD3BE"/>
<stop offset="1" stop-color="#FFD5BD"/>
</linearGradient>
<radialGradient id="paint16_radial_313_2462" cx="0" cy="0" r="1" gradientUnits="userSpaceOnUse" gradientTransform="translate(63.5697 42.2348) scale(33.5265 33.5266)">
<stop stop-color="#FFD5BD"/>
<stop offset="0.1" stop-color="#F8D0BF"/>
<stop offset="0.25" stop-color="#E5C2C6"/>
<stop offset="0.43" stop-color="#C5ABD2"/>
<stop offset="0.63" stop-color="#9A8CE1"/>
<stop offset="0.75" stop-color="#7A75ED"/>
<stop offset="0.97" stop-color="#7A82ED"/>
</radialGradient>
<linearGradient id="paint17_linear_313_2462" x1="50.8246" y1="59.2604" x2="38.7824" y2="49.3933" gradientUnits="userSpaceOnUse">
<stop stop-color="#9A69A4"/>
<stop offset="0.13" stop-color="#A275AB"/>
<stop offset="0.38" stop-color="#B795BF"/>
<stop offset="0.69" stop-color="#DAC8DD"/>
<stop offset="1" stop-color="white"/>
</linearGradient>
<linearGradient id="paint18_linear_313_2462" x1="34.4072" y1="81.6864" x2="78.0704" y2="81.6864" gradientUnits="userSpaceOnUse">
<stop stop-color="#9A69A4"/>
<stop offset="0.13" stop-color="#A275AB"/>
<stop offset="0.38" stop-color="#B795BF"/>
<stop offset="0.69" stop-color="#DAC8DD"/>
<stop offset="1" stop-color="white"/>
</linearGradient>
<radialGradient id="paint19_radial_313_2462" cx="0" cy="0" r="1" gradientUnits="userSpaceOnUse" gradientTransform="translate(66.2363 74.0777) scale(27.4124 27.4124)">
<stop stop-color="#B1B5BD"/>
<stop offset="0.14" stop-color="#ABAEBD"/>
<stop offset="0.34" stop-color="#9B9BBF"/>
<stop offset="0.57" stop-color="#817CC0"/>
<stop offset="0.75" stop-color="#685EC2"/>
<stop offset="0.97" stop-color="#7A75D8"/>
</radialGradient>
<radialGradient id="paint20_radial_313_2462" cx="0" cy="0" r="1" gradientUnits="userSpaceOnUse" gradientTransform="translate(62.9948 44.6708) scale(2.98902 2.98903)">
<stop offset="0.01" stop-color="#FF9AFF"/>
<stop offset="0.09" stop-color="#FB94FF"/>
<stop offset="0.21" stop-color="#F183FF"/>
<stop offset="0.34" stop-color="#E068FF"/>
<stop offset="0.49" stop-color="#C841FF"/>
<stop offset="0.64" stop-color="#A910FF"/>
<stop offset="0.68" stop-color="#9F00FF"/>
<stop offset="0.74" stop-color="#9900F8"/>
<stop offset="0.83" stop-color="#8700E5"/>
<stop offset="0.93" stop-color="#6A00C6"/>
<stop offset="1" stop-color="#5200AB"/>
</radialGradient>
<radialGradient id="paint21_radial_313_2462" cx="0" cy="0" r="1" gradientUnits="userSpaceOnUse" gradientTransform="translate(65.9242 37.9132) rotate(3.23361) scale(20.3392 11.4933)">
<stop offset="0.01" stop-color="#FF9AFF"/>
<stop offset="0.09" stop-color="#FB94FF"/>
<stop offset="0.21" stop-color="#F183FF"/>
<stop offset="0.34" stop-color="#E068FF"/>
<stop offset="0.49" stop-color="#C841FF"/>
<stop offset="0.64" stop-color="#A910FF"/>
<stop offset="0.68" stop-color="#9F00FF"/>
<stop offset="0.74" stop-color="#9900F8"/>
<stop offset="0.83" stop-color="#8700E5"/>
<stop offset="0.93" stop-color="#6A00C6"/>
<stop offset="1" stop-color="#5200AB"/>
</radialGradient>
<linearGradient id="paint22_linear_313_2462" x1="53.0443" y1="39.8345" x2="47.4551" y2="40.1095" gradientUnits="userSpaceOnUse">
<stop stop-color="#623964"/>
<stop offset="1" stop-color="#FFC209"/>
</linearGradient>
<radialGradient id="paint23_radial_313_2462" cx="0" cy="0" r="1" gradientUnits="userSpaceOnUse" gradientTransform="translate(76.2008 69.9832) scale(5.85303 5.85305)">
<stop stop-color="white"/>
<stop offset="1" stop-color="#623964"/>
</radialGradient>
<radialGradient id="paint24_radial_313_2462" cx="0" cy="0" r="1" gradientUnits="userSpaceOnUse" gradientTransform="translate(65.5003 70.0108) scale(14.0562 14.0562)">
<stop stop-color="white"/>
<stop offset="1" stop-color="#623964"/>
</radialGradient>
<linearGradient id="paint25_linear_313_2462" x1="47.1576" y1="69.0997" x2="29.9652" y2="70.247" gradientUnits="userSpaceOnUse">
<stop stop-color="#9A69A4"/>
<stop offset="0.13" stop-color="#A275AB"/>
<stop offset="0.38" stop-color="#B795BF"/>
<stop offset="0.69" stop-color="#DAC8DD"/>
<stop offset="1" stop-color="white"/>
</linearGradient>
<radialGradient id="paint26_radial_313_2462" cx="0" cy="0" r="1" gradientUnits="userSpaceOnUse" gradientTransform="translate(63.0807 51.531) scale(7.54046 6.34735)">
<stop offset="0.01" stop-color="#F4FF09"/>
<stop offset="0.07" stop-color="#DFE908"/>
<stop offset="0.27" stop-color="#9CA306"/>
<stop offset="0.46" stop-color="#646904"/>
<stop offset="0.63" stop-color="#393C02"/>
<stop offset="0.78" stop-color="#1A1B01"/>
<stop offset="0.91" stop-color="#070700"/>
<stop offset="1"/>
</radialGradient>
<radialGradient id="paint27_radial_313_2462" cx="0" cy="0" r="1" gradientUnits="userSpaceOnUse" gradientTransform="translate(58.6185 38.693) scale(4.96334 6.53825)">
<stop offset="0.01" stop-color="#F4FF09"/>
<stop offset="0.07" stop-color="#DFE908"/>
<stop offset="0.27" stop-color="#9CA306"/>
<stop offset="0.46" stop-color="#646904"/>
<stop offset="0.63" stop-color="#393C02"/>
<stop offset="0.78" stop-color="#1A1B01"/>
<stop offset="0.91" stop-color="#070700"/>
<stop offset="1"/>
</radialGradient>
<radialGradient id="paint28_radial_313_2462" cx="0" cy="0" r="1" gradientUnits="userSpaceOnUse" gradientTransform="translate(47.913 46.7056) scale(6.53827 6.53825)">
<stop offset="0.01" stop-color="#B61E2D"/>
<stop offset="0.08" stop-color="#A21B28"/>
<stop offset="0.32" stop-color="#69111A"/>
<stop offset="0.54" stop-color="#3B0A0F"/>
<stop offset="0.73" stop-color="#1B0407"/>
<stop offset="0.89" stop-color="#070102"/>
<stop offset="1"/>
</radialGradient>
<linearGradient id="paint29_linear_313_2462" x1="39.8438" y1="56.3104" x2="71.8731" y2="56.3104" gradientUnits="userSpaceOnUse">
<stop stop-color="#B3A6DB"/>
<stop offset="0.41" stop-color="#A685BE"/>
<stop offset="0.77" stop-color="#9D71AB"/>
<stop offset="1" stop-color="#9A69A4"/>
</linearGradient>
<linearGradient id="paint30_linear_313_2462" x1="50.6109" y1="46.5652" x2="59.8529" y2="46.5652" gradientUnits="userSpaceOnUse">
<stop stop-color="#B3A6DB"/>
<stop offset="0.41" stop-color="#A685BE"/>
<stop offset="0.77" stop-color="#9D71AB"/>
<stop offset="1" stop-color="#9A69A4"/>
</linearGradient>
<radialGradient id="paint31_radial_313_2462" cx="0" cy="0" r="1" gradientUnits="userSpaceOnUse" gradientTransform="translate(56.0946 63.8881) scale(8.16704 8.16704)">
<stop stop-color="white"/>
<stop offset="1" stop-color="#623964"/>
</radialGradient>
<radialGradient id="paint32_radial_313_2462" cx="0" cy="0" r="1" gradientUnits="userSpaceOnUse" gradientTransform="translate(55.9555 67.9608) scale(6.33364 6.33363)">
<stop offset="0.01" stop-color="#60DBFF"/>
<stop offset="0.18" stop-color="#56D6FF"/>
<stop offset="0.48" stop-color="#3CCAFF"/>
<stop offset="0.86" stop-color="#12B6FF"/>
<stop offset="1" stop-color="#00AEFF"/>
</radialGradient>
<linearGradient id="paint33_linear_313_2462" x1="47.194" y1="67.7413" x2="64.717" y2="67.7413" gradientUnits="userSpaceOnUse">
<stop stop-color="#5B58A3"/>
<stop offset="0.44" stop-color="#5F59A3"/>
<stop offset="0.85" stop-color="#6A5CA2"/>
<stop offset="0.99" stop-color="#705EA2"/>
</linearGradient>
<linearGradient id="paint34_linear_313_2462" x1="55.8136" y1="69.0997" x2="55.8136" y2="65.8051" gradientUnits="userSpaceOnUse">
<stop stop-color="#E7E3F4"/>
<stop offset="0.07" stop-color="#DFD6EC"/>
<stop offset="0.37" stop-color="#C1A7CD"/>
<stop offset="0.64" stop-color="#AC85B7"/>
<stop offset="0.86" stop-color="#9F71A9"/>
<stop offset="1" stop-color="#9A69A4"/>
</linearGradient>
<radialGradient id="paint35_radial_313_2462" cx="0" cy="0" r="1" gradientUnits="userSpaceOnUse" gradientTransform="translate(40.2071 90.0285) scale(6.3503 6.3503)">
<stop stop-color="#B1B5BD"/>
<stop offset="0.14" stop-color="#ABAEBD"/>
<stop offset="0.34" stop-color="#9B9BBF"/>
<stop offset="0.57" stop-color="#817CC0"/>
<stop offset="0.75" stop-color="#685EC2"/>
<stop offset="0.97" stop-color="#7A75D8"/>
</radialGradient>
<linearGradient id="paint36_linear_313_2462" x1="50.1577" y1="86.6951" x2="56.2386" y2="86.6951" gradientUnits="userSpaceOnUse">
<stop stop-color="#9A69A4"/>
<stop offset="0.13" stop-color="#A275AB"/>
<stop offset="0.38" stop-color="#B795BF"/>
<stop offset="0.69" stop-color="#DAC8DD"/>
<stop offset="1" stop-color="white"/>
</linearGradient>
<radialGradient id="paint37_radial_313_2462" cx="0" cy="0" r="1" gradientUnits="userSpaceOnUse" gradientTransform="translate(57.825 91.2227) scale(5.71968 5.71971)">
<stop stop-color="#B1B5BD"/>
<stop offset="0.14" stop-color="#ABAEBD"/>
<stop offset="0.34" stop-color="#9B9BBF"/>
<stop offset="0.57" stop-color="#817CC0"/>
<stop offset="0.75" stop-color="#685EC2"/>
<stop offset="0.97" stop-color="#7A75D8"/>
</radialGradient>
<linearGradient id="paint38_linear_313_2462" x1="37.4183" y1="85.5335" x2="44.527" y2="85.5335" gradientUnits="userSpaceOnUse">
<stop stop-color="#9A69A4"/>
<stop offset="0.13" stop-color="#A275AB"/>
<stop offset="0.38" stop-color="#B795BF"/>
<stop offset="0.69" stop-color="#DAC8DD"/>
<stop offset="1" stop-color="white"/>
</linearGradient>
<radialGradient id="paint39_radial_313_2462" cx="0" cy="0" r="1" gradientUnits="userSpaceOnUse" gradientTransform="translate(71.2285 90.0285) rotate(180) scale(6.35031 6.3503)">
<stop stop-color="#B1B5BD"/>
<stop offset="0.14" stop-color="#ABAEBD"/>
<stop offset="0.34" stop-color="#9B9BBF"/>
<stop offset="0.57" stop-color="#817CC0"/>
<stop offset="0.75" stop-color="#685EC2"/>
<stop offset="0.97" stop-color="#7A75D8"/>
</radialGradient>
<linearGradient id="paint40_linear_313_2462" x1="62.4554" y1="85.845" x2="71.3947" y2="85.845" gradientUnits="userSpaceOnUse">
<stop stop-color="#9A69A4"/>
<stop offset="0.13" stop-color="#A275AB"/>
<stop offset="0.38" stop-color="#B795BF"/>
<stop offset="0.69" stop-color="#DAC8DD"/>
<stop offset="1" stop-color="white"/>
</linearGradient>
<radialGradient id="paint41_radial_313_2462" cx="0" cy="0" r="1" gradientUnits="userSpaceOnUse" gradientTransform="translate(37.96 24.5613) scale(48.3942 48.3939)">
<stop stop-color="#EAAEE6"/>
<stop offset="0.22" stop-color="#E095EB"/>
<stop offset="0.68" stop-color="#C855F6"/>
<stop offset="1" stop-color="#B524FF"/>
</radialGradient>
<radialGradient id="paint42_radial_313_2462" cx="0" cy="0" r="1" gradientUnits="userSpaceOnUse" gradientTransform="translate(3.39199 85.745) scale(18.3926 18.3925)">
<stop stop-color="#EAAEE6"/>
<stop offset="0.22" stop-color="#E095EB"/>
<stop offset="0.68" stop-color="#C855F6"/>
<stop offset="1" stop-color="#B524FF"/>
</radialGradient>
<radialGradient id="paint43_radial_313_2462" cx="0" cy="0" r="1" gradientUnits="userSpaceOnUse" gradientTransform="translate(58.1611 22.6445) scale(74.4896 74.4896)">
<stop offset="0.01" stop-color="#FF9AFF"/>
<stop offset="0.09" stop-color="#FB94FF"/>
<stop offset="0.21" stop-color="#F183FF"/>
<stop offset="0.34" stop-color="#E068FF"/>
<stop offset="0.49" stop-color="#C841FF"/>
<stop offset="0.64" stop-color="#A910FF"/>
<stop offset="0.68" stop-color="#9F00FF"/>
<stop offset="0.74" stop-color="#9900F8"/>
<stop offset="0.83" stop-color="#8700E5"/>
<stop offset="0.93" stop-color="#6A00C6"/>
<stop offset="1" stop-color="#5200AB"/>
</radialGradient>
<linearGradient id="paint44_linear_313_2462" x1="-30.4625" y1="35.3733" x2="-0.744368" y2="53.2853" gradientUnits="userSpaceOnUse">
<stop stop-color="#623964"/>
<stop offset="1" stop-color="#FFC209"/>
</linearGradient>
<linearGradient id="paint45_linear_313_2462" x1="-22.7151" y1="22.5169" x2="7.00568" y2="40.4261" gradientUnits="userSpaceOnUse">
<stop stop-color="#623964"/>
<stop offset="1" stop-color="#FFC209"/>
</linearGradient>
<linearGradient id="paint46_linear_313_2462" x1="-27.5156" y1="30.4811" x2="2.20539" y2="48.3906" gradientUnits="userSpaceOnUse">
<stop stop-color="#623964"/>
<stop offset="1" stop-color="#FFC209"/>
</linearGradient>
<radialGradient id="paint47_radial_313_2462" cx="0" cy="0" r="1" gradientUnits="userSpaceOnUse" gradientTransform="translate(32.7152 27.8506) scale(31.818 31.8182)">
<stop stop-color="white"/>
<stop offset="1" stop-color="#623964"/>
</radialGradient>
<radialGradient id="paint48_radial_313_2462" cx="0" cy="0" r="1" gradientUnits="userSpaceOnUse" gradientTransform="translate(74.609 24.0725) rotate(180) scale(48.3938 48.3939)">
<stop stop-color="#EAAEE6"/>
<stop offset="0.22" stop-color="#E095EB"/>
<stop offset="0.68" stop-color="#C855F6"/>
<stop offset="1" stop-color="#B524FF"/>
</radialGradient>
<radialGradient id="paint49_radial_313_2462" cx="0" cy="0" r="1" gradientUnits="userSpaceOnUse" gradientTransform="translate(109.18 85.2559) rotate(180) scale(18.3926 18.3925)">
<stop stop-color="#EAAEE6"/>
<stop offset="0.22" stop-color="#E095EB"/>
<stop offset="0.68" stop-color="#C855F6"/>
<stop offset="1" stop-color="#B524FF"/>
</radialGradient>
<radialGradient id="paint50_radial_313_2462" cx="0" cy="0" r="1" gradientUnits="userSpaceOnUse" gradientTransform="translate(54.411 22.1558) rotate(180) scale(74.4895 74.4896)">
<stop offset="0.01" stop-color="#FF9AFF"/>
<stop offset="0.09" stop-color="#FB94FF"/>
<stop offset="0.21" stop-color="#F183FF"/>
<stop offset="0.34" stop-color="#E068FF"/>
<stop offset="0.49" stop-color="#C841FF"/>
<stop offset="0.64" stop-color="#A910FF"/>
<stop offset="0.68" stop-color="#9F00FF"/>
<stop offset="0.74" stop-color="#9900F8"/>
<stop offset="0.83" stop-color="#8700E5"/>
<stop offset="0.93" stop-color="#6A00C6"/>
<stop offset="1" stop-color="#5200AB"/>
</radialGradient>
<linearGradient id="paint51_linear_313_2462" x1="143.035" y1="34.8872" x2="113.314" y2="52.7964" gradientUnits="userSpaceOnUse">
<stop stop-color="#623964"/>
<stop offset="1" stop-color="#FFC209"/>
</linearGradient>
<linearGradient id="paint52_linear_313_2462" x1="135.284" y1="22.0282" x2="105.566" y2="39.9373" gradientUnits="userSpaceOnUse">
<stop stop-color="#623964"/>
<stop offset="1" stop-color="#FFC209"/>
</linearGradient>
<linearGradient id="paint53_linear_313_2462" x1="140.085" y1="29.9925" x2="110.367" y2="47.9047" gradientUnits="userSpaceOnUse">
<stop stop-color="#623964"/>
<stop offset="1" stop-color="#FFC209"/>
</linearGradient>
<radialGradient id="paint54_radial_313_2462" cx="0" cy="0" r="1" gradientUnits="userSpaceOnUse" gradientTransform="translate(79.8565 27.3643) rotate(180) scale(31.818 31.8182)">
<stop stop-color="white"/>
<stop offset="1" stop-color="#623964"/>
</radialGradient>
<linearGradient id="paint55_linear_313_2462" x1="8.97266" y1="79.4695" x2="34.4072" y2="79.4695" gradientUnits="userSpaceOnUse">
<stop stop-color="#B3A6DB"/>
<stop offset="0.41" stop-color="#A685BE"/>
<stop offset="0.77" stop-color="#9D71AB"/>
<stop offset="1" stop-color="#9A69A4"/>
</linearGradient>
<linearGradient id="paint56_linear_313_2462" x1="78.1649" y1="78.9808" x2="103.599" y2="78.9808" gradientUnits="userSpaceOnUse">
<stop stop-color="#B3A6DB"/>
<stop offset="0.41" stop-color="#A685BE"/>
<stop offset="0.77" stop-color="#9D71AB"/>
<stop offset="1" stop-color="#9A69A4"/>
</linearGradient>
</defs>
</svg>
