<svg width="56" height="50" viewBox="0 0 56 50" fill="none" xmlns="http://www.w3.org/2000/svg">
<g id="Group">
<g id="&#60;Layer&#62;">
<path id="Vector" d="M46.5257 3.92459C42.9788 3.10654 39.2627 3.45094 35.9266 4.90691C32.5905 6.36289 29.8111 8.85321 27.999 12.0101C26.188 8.85215 23.4087 6.36093 20.0723 4.9048C16.7358 3.44868 13.0194 3.10501 9.47246 3.92459C-0.0058318 5.79407 -4.40853 24.7693 6.0232 33.5185C12.5103 38.9587 20.5211 44.9971 24.8489 48.222C25.7591 48.9002 26.8639 49.2666 27.999 49.2666C29.1341 49.2666 30.2389 48.9002 31.1491 48.222C35.4863 44.9971 43.4877 38.9587 49.9841 33.5185C60.4065 24.7693 56.0039 5.80342 46.5257 3.92459Z" fill="#9F9AE3"/>
<path id="Vector_2" d="M46.5257 0.437969C42.9787 -0.384687 39.261 -0.0424005 35.9239 1.41402C32.5867 2.87043 29.8078 5.36346 27.999 8.52351C26.1902 5.36346 23.4112 2.87043 20.0741 1.41402C16.737 -0.0424005 13.0194 -0.384687 9.47246 0.437969C-0.0058318 2.30745 -4.40853 21.2827 6.0232 30.0226C12.5103 35.4721 20.5211 41.5105 24.8489 44.7261C25.7591 45.4043 26.8639 45.7707 27.999 45.7707C29.1341 45.7707 30.2389 45.4043 31.1491 44.7261C35.4863 41.5105 43.4877 35.4721 49.9841 30.0226C60.4065 21.2827 56.0039 2.30745 46.5257 0.437969Z" fill="#EBEAF9"/>
<path id="Vector_3" d="M44.3103 3.13014C35.0376 1.26066 29.6254 9.72947 27.999 12.758C26.3819 9.72947 20.9604 1.29805 11.6878 3.13014C3.34986 4.78463 -0.529316 20.4042 8.64985 28.0971C14.1835 32.7708 20.951 37.8558 24.8395 40.7535C25.7532 41.4319 26.861 41.7982 27.999 41.7982C29.137 41.7982 30.2447 41.4319 31.1584 40.7535C35.0469 37.8558 41.8145 32.7334 47.3482 28.0971C56.5274 20.4416 52.6482 4.78463 44.3103 3.13014Z" fill="url(#paint0_linear_26_83)"/>
<path id="Vector_4" style="mix-blend-mode:screen" opacity="0.52" d="M39.4686 5.95296C39.1227 4.7378 38.1506 4.08348 36.1316 5.01822C34.3765 5.8976 32.7935 7.08485 31.4579 8.52351C30.9718 9.03761 27.6347 12.6083 27.9993 13.2627C26.5592 10.5958 24.5638 8.26896 22.1478 6.43905C18.8388 4.04611 13.3799 2.22332 9.76243 4.82191C7.25763 6.49184 5.43121 9.00109 4.61199 11.8979C3.25662 17.0857 5.20097 21.6192 10.6599 22.0586C13.3009 22.4359 15.9939 21.9784 18.3621 20.7499C21.1664 19.3291 23.8023 17.2727 26.9898 16.7212C31.4298 15.9547 35.7577 16.6184 38.3469 12.0475C39.1601 10.608 39.9453 7.67289 39.4686 5.95296Z" fill="url(#paint1_linear_26_83)"/>
<path id="Vector_5" style="mix-blend-mode:multiply" opacity="0.3" d="M51.2553 9.49561C50.3205 12.0288 48.638 14.1694 47.077 16.3193C45.4571 18.4813 43.5371 20.4012 41.3751 22.0212C36.9785 25.3324 31.8974 27.619 26.5033 28.7139C20.9603 29.873 14.5573 29.9291 9.26662 27.6951C8.52294 27.3762 7.80162 27.0078 7.10742 26.5921C7.58638 27.1285 8.10173 27.6313 8.64977 28.097C14.1834 32.7707 20.9509 37.8557 24.8395 40.7534C25.7531 41.4318 26.8609 41.7981 27.9989 41.7981C29.1369 41.7981 30.2446 41.4318 31.1583 40.7534C35.0468 37.8557 41.8144 32.7333 47.3481 28.097C53.1622 23.2457 53.7323 15.1601 51.2553 9.49561Z" fill="url(#paint2_linear_26_83)"/>
<path id="Vector_6" style="mix-blend-mode:multiply" opacity="0.66" d="M49.012 19.3853C46.263 24.3557 42.0617 28.368 36.9701 30.8854C31.8785 33.4028 26.1396 34.3052 20.5211 33.4719C14.8452 32.4779 9.69812 29.5239 5.97656 25.1247C6.72343 26.2363 7.62341 27.237 8.64991 28.0972C14.1836 32.7709 20.9511 37.8558 24.8396 40.7535C25.7533 41.4319 26.861 41.7982 27.999 41.7982C29.137 41.7982 30.2448 41.4319 31.1585 40.7535C35.047 37.8558 41.8146 32.7335 47.3483 28.0972C52.4146 23.8441 53.4989 17.1794 52.022 11.7859C51.3761 14.4464 50.363 17.0041 49.012 19.3853Z" fill="url(#paint3_linear_26_83)"/>
<path id="Vector_7" style="mix-blend-mode:screen" opacity="0.52" d="M49.6477 24.4143C48.2836 25.5514 46.8508 26.6035 45.3573 27.5644C40.4032 30.9855 34.2712 32.855 31.71 38.9122C35.6359 36.0425 39.5057 32.9111 43.3849 29.9293C45.6111 28.2546 47.7049 26.4108 49.6477 24.4143Z" fill="url(#paint4_linear_26_83)"/>
<path id="Vector_8" style="mix-blend-mode:screen" opacity="0.52" d="M21.4186 8.28996C21.1288 4.81272 15.6607 3.878 13.1088 4.69123C9.8559 5.73814 6.91142 7.35522 6.05146 10.9166C4.73347 16.3848 10.7812 15.7025 14.2211 14.291C16.156 13.4965 18.8948 12.4215 20.4372 10.6923C20.7551 10.3793 21.006 10.0049 21.1747 9.59195C21.3434 9.17897 21.4264 8.73601 21.4186 8.28996Z" fill="url(#paint5_linear_26_83)"/>
<path id="Vector_9" d="M7.53766 20.5535C6.60292 16.7585 8.32284 14.1225 9.40714 10.7107C10.0147 8.84125 10.0709 6.38285 7.70596 8.40189C5.34107 10.4209 4.34082 15.0292 4.5932 18.1232C4.68667 19.3104 4.94847 21.5631 5.94864 22.3669C7.86487 23.8812 7.84613 21.8435 7.53766 20.5535Z" fill="white"/>
<path id="Vector_10" d="M12.6694 27.583C12.23 26.695 9.67822 24.5918 9.67822 26.4519C9.67822 27.9382 12.9218 29.2562 12.7348 27.7606C12.7226 27.6983 12.7004 27.6384 12.6694 27.583Z" fill="white"/>
<path id="Vector_11" d="M40.8142 5.03689C39.2532 4.23301 31.9249 6.90633 32.9344 9.31797C33.8692 11.4866 39.73 7.58872 40.8984 6.88766C41.072 6.79844 41.2163 6.66124 41.3141 6.4924C41.412 6.32357 41.4592 6.13023 41.4504 5.93529C41.4415 5.74035 41.3769 5.55204 41.2642 5.39278C41.1514 5.23352 40.9952 5.11 40.8142 5.03689Z" fill="white"/>
</g>
</g>
<defs>
<linearGradient id="paint0_linear_26_83" x1="32.7756" y1="37.6222" x2="23.8207" y2="-2.42223" gradientUnits="userSpaceOnUse">
<stop stop-color="#FF094A"/>
<stop offset="0.16" stop-color="#FF0A4E"/>
<stop offset="0.32" stop-color="#FF0E59"/>
<stop offset="0.48" stop-color="#FF146D"/>
<stop offset="0.63" stop-color="#FF1D88"/>
<stop offset="0.78" stop-color="#FF28AB"/>
<stop offset="0.93" stop-color="#FF36D5"/>
<stop offset="1" stop-color="#FF3DEC"/>
</linearGradient>
<linearGradient id="paint1_linear_26_83" x1="22.5684" y1="21.1706" x2="21.6243" y2="7.08399" gradientUnits="userSpaceOnUse">
<stop stop-color="#FF0968"/>
<stop offset="0.12" stop-color="#FF0E6C"/>
<stop offset="0.27" stop-color="#FF1E77"/>
<stop offset="0.44" stop-color="#FF388A"/>
<stop offset="0.63" stop-color="#FF5CA5"/>
<stop offset="0.82" stop-color="#FF8AC6"/>
<stop offset="1" stop-color="#FFBDEC"/>
</linearGradient>
<linearGradient id="paint2_linear_26_83" x1="33.6728" y1="37.4725" x2="24.8488" y2="-1.99239" gradientUnits="userSpaceOnUse">
<stop stop-color="#C40951"/>
<stop offset="0.2" stop-color="#C40D56"/>
<stop offset="0.44" stop-color="#C41766"/>
<stop offset="0.72" stop-color="#C42780"/>
<stop offset="1" stop-color="#C43DA2"/>
</linearGradient>
<linearGradient id="paint3_linear_26_83" x1="30.6725" y1="40.8097" x2="28.6721" y2="10.9072" gradientUnits="userSpaceOnUse">
<stop stop-color="#C40951"/>
<stop offset="0.2" stop-color="#C40D56"/>
<stop offset="0.44" stop-color="#C41766"/>
<stop offset="0.72" stop-color="#C42780"/>
<stop offset="1" stop-color="#C43DA2"/>
</linearGradient>
<linearGradient id="paint4_linear_26_83" x1="34.9816" y1="43.0905" x2="42.0015" y2="28.9758" gradientUnits="userSpaceOnUse">
<stop stop-color="#FF0968"/>
<stop offset="0.12" stop-color="#FF0E6C"/>
<stop offset="0.27" stop-color="#FF1E77"/>
<stop offset="0.44" stop-color="#FF388A"/>
<stop offset="0.63" stop-color="#FF5CA5"/>
<stop offset="0.82" stop-color="#FF8AC6"/>
<stop offset="1" stop-color="#FFBDEC"/>
</linearGradient>
<linearGradient id="paint5_linear_26_83" x1="13.9407" y1="14.7584" x2="13.4079" y2="6.757" gradientUnits="userSpaceOnUse">
<stop stop-color="#FF0968"/>
<stop offset="0.12" stop-color="#FF0E6C"/>
<stop offset="0.27" stop-color="#FF1E77"/>
<stop offset="0.44" stop-color="#FF388A"/>
<stop offset="0.63" stop-color="#FF5CA5"/>
<stop offset="0.82" stop-color="#FF8AC6"/>
<stop offset="1" stop-color="#FFBDEC"/>
</linearGradient>
</defs>
</svg>
