<svg width="49" height="49" viewBox="0 0 49 49" fill="none" xmlns="http://www.w3.org/2000/svg">
<path d="M24.5 49C38.031 49 49 38.031 49 24.5C49 10.969 38.031 0 24.5 0C10.969 0 0 10.969 0 24.5C0 38.031 10.969 49 24.5 49Z" fill="#001087"/>
<path d="M24.4997 48.4789C37.7428 48.4789 48.4784 37.7433 48.4784 24.5002C48.4784 11.2571 37.7428 0.521484 24.4997 0.521484C11.2566 0.521484 0.520996 11.2571 0.520996 24.5002C0.520996 37.7433 11.2566 48.4789 24.4997 48.4789Z" fill="#0098EA"/>
<path d="M24.5001 42.7445C34.5763 42.7445 42.7447 34.5761 42.7447 24.4998C42.7447 14.4235 34.5763 6.25513 24.5001 6.25513C14.4238 6.25513 6.25537 14.4235 6.25537 24.4998C6.25537 34.5761 14.4238 42.7445 24.5001 42.7445Z" fill="#0098EA"/>
<path d="M23.4573 47.4363C28.1354 47.434 32.7106 46.0634 36.6195 43.4933C40.5283 40.9232 43.6 37.2658 45.4561 32.9718C47.3122 28.6777 47.8718 23.9344 47.0658 19.3263C46.2598 14.7182 44.1236 10.4465 40.9201 7.03735C43.2958 9.22723 45.2044 11.8746 46.5314 14.8206C47.8583 17.7666 48.5762 20.9504 48.6419 24.1807C48.7077 27.4111 48.1199 30.6214 46.9138 33.6189C45.7078 36.6164 43.9084 39.3393 41.6237 41.6239C39.339 43.9086 36.6162 45.708 33.6187 46.9141C30.6212 48.1201 27.4108 48.7079 24.1805 48.6422C20.9501 48.5765 17.7663 47.8586 14.8204 46.5316C11.8744 45.2047 9.22698 43.296 7.03711 40.9203C11.4768 45.1108 17.3524 47.4424 23.4573 47.4363Z" fill="#0082C9"/>
<path d="M41.9628 8.07985C37.4109 3.88401 31.4126 1.61124 25.2232 1.73715C19.0338 1.86307 13.1329 4.37791 8.7554 8.7554C4.37791 13.1329 1.86307 19.0338 1.73715 25.2232C1.61124 31.4126 3.88401 37.4109 8.07985 41.9628C5.70413 39.773 3.79549 37.1255 2.46854 34.1796C1.14159 31.2336 0.423705 28.0498 0.357988 24.8195C0.292271 21.5891 0.880081 18.3788 2.08612 15.3813C3.29216 12.3838 5.09155 9.66092 7.37623 7.37623C9.66092 5.09155 12.3838 3.29216 15.3813 2.08612C18.3788 0.880081 21.5891 0.292271 24.8195 0.357988C28.0498 0.423705 31.2336 1.14159 34.1796 2.46854C37.1255 3.79549 39.773 5.70413 41.9628 8.07985Z" fill="#39AFEF"/>
<path d="M30.7294 16.4385H18.2709C17.7472 16.4367 17.2323 16.573 16.7781 16.8337C16.3239 17.0943 15.9465 17.47 15.6837 17.923C15.421 18.376 15.2824 18.8903 15.2817 19.4139C15.2811 19.9376 15.4185 20.4522 15.6801 20.9058L23.3689 34.2349C23.483 34.4342 23.6476 34.5998 23.8463 34.7151C24.0449 34.8303 24.2705 34.8909 24.5001 34.8909C24.7298 34.8909 24.9553 34.8303 25.1539 34.7151C25.3526 34.5998 25.5173 34.4342 25.6313 34.2349L33.3227 20.9058C33.5835 20.4521 33.7202 19.9377 33.7192 19.4143C33.7182 18.8909 33.5794 18.3771 33.3168 17.9243C33.0543 17.4716 32.6772 17.096 32.2235 16.8351C31.7697 16.5743 31.2553 16.4375 30.732 16.4385H30.7294ZM23.3637 30.2523L21.6878 27.01L17.6479 19.7825C17.5897 19.675 17.5604 19.5542 17.5629 19.4319C17.5654 19.3097 17.5996 19.1902 17.6621 19.0851C17.7246 18.98 17.8133 18.893 17.9196 18.8325C18.0258 18.772 18.146 18.7401 18.2683 18.7399H23.3611V30.2341L23.3637 30.2523ZM31.3497 19.7825L27.3098 27.0126L25.6339 30.2341V18.7139H30.7294C30.8535 18.7127 30.9758 18.7444 31.0838 18.8055C31.1918 18.8667 31.2818 18.9553 31.3447 19.0623C31.4076 19.1693 31.4412 19.2911 31.4421 19.4152C31.443 19.5394 31.4111 19.6615 31.3497 19.7695V19.7825Z" fill="white"/>
<path d="M38.0348 12.2684C34.5618 9.14041 30.0209 7.46462 25.3485 7.58664C20.6762 7.70867 16.2289 9.6192 12.9239 12.9242C9.61896 16.2291 7.70842 20.6765 7.5864 25.3488C7.46438 30.0211 9.14017 34.5621 12.2681 38.0351C10.4282 36.378 8.94492 34.3637 7.9085 32.1149C6.87208 29.8661 6.30426 27.4299 6.23962 24.9546C6.17497 22.4794 6.61486 20.0168 7.53248 17.717C8.4501 15.4172 9.82626 13.3283 11.5771 11.5774C13.328 9.82651 15.417 8.45035 17.7168 7.53272C20.0166 6.6151 22.4791 6.17522 24.9544 6.23986C27.4297 6.30451 29.8659 6.87233 32.1147 7.90874C34.3634 8.94516 36.3777 10.4285 38.0348 12.2684Z" fill="#0082C9"/>
<path d="M34.7509 2.81747C33.8972 2.41229 33.0198 2.05892 32.1236 1.75928L27.3983 6.48465C27.6954 6.53156 27.9873 6.5863 28.2792 6.64625L6.64625 28.2792C6.5863 27.9873 6.53156 27.6954 6.48465 27.3983L1.75928 32.1236C2.05892 33.0198 2.41229 33.8972 2.81747 34.7509L7.21444 30.3539C7.30305 30.6145 7.39428 30.8752 7.49332 31.1176L31.1176 7.49332C30.8569 7.39428 30.6119 7.30305 30.3539 7.21444L34.7509 2.81747Z" fill="white" fill-opacity="0.15"/>
<path d="M8.86162 33.8829L4.69141 38.0296C6.17452 40.195 8.00131 42.1037 10.0997 43.6803L14.2073 39.5726C14.4158 39.7134 14.6243 39.8515 14.8381 39.9844L39.9844 14.8563C39.8515 14.6426 39.7238 14.4341 39.5726 14.2256L43.6803 10.1179C42.1052 8.01305 40.1965 6.18002 38.0296 4.69141L33.8829 8.86162C34.0992 8.99194 34.3129 9.12226 34.5241 9.263L9.24215 34.5449C9.12226 34.3103 8.97891 34.0966 8.86162 33.8829Z" fill="white" fill-opacity="0.15"/>
<path fill-rule="evenodd" clip-rule="evenodd" d="M24.4998 43.2661C28.2114 43.2661 31.8396 42.1655 34.9257 40.1034C38.0117 38.0414 40.417 35.1105 41.8373 31.6815C43.2577 28.2525 43.6293 24.4793 42.9052 20.839C42.1811 17.1988 40.3938 13.855 37.7694 11.2306C35.1449 8.6061 31.8011 6.81881 28.1609 6.09472C24.5207 5.37063 20.7475 5.74226 17.3184 7.16261C13.8894 8.58296 10.9586 10.9882 8.89652 14.0743C6.83449 17.1603 5.73389 20.7885 5.73389 24.5001C5.73389 29.4771 7.71101 34.2503 11.2303 37.7696C14.7496 41.2889 19.5228 43.2661 24.4998 43.2661ZM24.4998 42.7448C28.1083 42.7448 31.6357 41.6747 34.6361 39.67C37.6364 37.6652 39.9748 34.8158 41.3557 31.482C42.7366 28.1483 43.0979 24.4799 42.394 20.9407C41.69 17.4016 39.9524 14.1507 37.4008 11.5992C34.8492 9.04759 31.5983 7.30996 28.0592 6.60598C24.5201 5.90201 20.8517 6.26331 17.5179 7.64421C14.1841 9.02511 11.3347 11.3636 9.32995 14.3639C7.3252 17.3642 6.25516 20.8916 6.25516 24.5001C6.25516 29.3389 8.17736 33.9795 11.5989 37.401C15.0204 40.8226 19.6611 42.7448 24.4998 42.7448Z" fill="#001087"/>
</svg>
