<svg width="40" height="58" viewBox="0 0 40 58" fill="none" xmlns="http://www.w3.org/2000/svg">
<path d="M10.0207 0.744326C6.5182 2.66134 -2.72821 32.2598 0.781515 34.811C4.29124 37.3622 14.1646 36.7929 14.1646 36.7929C14.1646 36.7929 8.88205 57.8873 13.9989 57.8873C19.1157 57.8873 41.2623 30.35 39.9435 25.5646C38.6246 20.7793 27.9945 20.7865 25.8397 20.9451C26.7405 19.5037 35.4824 5.64499 34.5311 3.73518C33.5798 1.82537 13.5304 -1.1799 10.0207 0.744326Z" fill="#9F9AE3"/>
<path d="M10.5972 0.578797C7.28928 2.38771 -1.41655 30.2781 1.88418 32.6852C5.18491 35.0923 14.5033 34.5518 14.5033 34.5518C14.5033 34.5518 9.51624 54.4354 14.3448 54.4354C19.1734 54.4354 40.0444 28.4909 38.848 23.9722C37.6517 19.4535 27.5837 19.4679 25.5586 19.6481C26.4018 18.2932 34.6392 5.23442 33.7383 3.4255C32.8375 1.61659 13.9051 -1.23012 10.5972 0.578797Z" fill="#EBEAF9"/>
<path d="M30.8774 4.77308C30.4234 7.14412 23.7427 19.0426 21.7248 22.019C24.8886 22.1343 27.7641 21.5722 30.9999 22.3794C39.8283 24.5846 31.3026 34.631 28.2902 38.4145C25.0471 42.4648 21.804 46.9186 17.1628 49.4986C16.601 49.8763 15.937 50.0725 15.2603 50.0608C13.2712 49.8086 14.3593 45.3763 14.6548 43.4089C15.3034 39.0848 16.3052 35.0706 16.3196 35.0273L16.9322 32.5626L14.3954 32.7067C14.3954 32.7067 13.545 32.7572 12.2982 32.7572C7.6714 32.7572 2.7348 32.8725 3.10235 27.107C3.61403 19.1147 10.6046 3.04346 11.5343 2.22188C12.6297 1.66695 31.1657 3.17316 30.8774 4.77308Z" fill="#665ED2"/>
<path d="M30.8774 4.77308C30.4234 7.14412 23.7427 19.0426 21.7248 22.019C24.8886 22.1343 27.7641 21.5722 30.9999 22.3794C39.8283 24.5846 31.3026 34.631 28.2902 38.4145C25.0471 42.4648 21.804 46.9186 17.1628 49.4986C16.601 49.8763 15.937 50.0725 15.2603 50.0608C13.2712 49.8086 14.3593 45.3763 14.6548 43.4089C15.3034 39.0848 16.3052 35.0706 16.3196 35.0273L16.9322 32.5626L14.3954 32.7067C14.3954 32.7067 13.545 32.7572 12.2982 32.7572C7.6714 32.7572 2.7348 32.8725 3.10235 27.107C3.61403 19.1147 10.6046 3.04346 11.5343 2.22188C12.6297 1.66695 31.1657 3.17316 30.8774 4.77308Z" fill="url(#paint0_radial_26_68)"/>
<path style="mix-blend-mode:screen" opacity="0.53" d="M5.43722 22.8695C6.64797 24.5919 10.3162 22.3146 12.3053 21.0029C15.815 18.6895 19.1013 16.0734 22.6687 13.8537C24.4283 12.7634 26.2419 11.7628 28.1027 10.8557C29.544 8.09547 30.6971 5.68837 30.8773 4.75148C31.1727 3.17319 12.6296 1.66698 11.5342 2.20028C10.554 3.0651 10.0135 5.03259 9.50901 6.18568C7.4911 10.7476 5.5309 15.4825 5.06967 20.5993C4.93029 21.3758 5.05995 22.1766 5.43722 22.8695Z" fill="url(#paint1_radial_26_68)"/>
<path style="mix-blend-mode:screen" opacity="0.53" d="M32.1312 25.4206C31.8423 25.1834 31.5222 24.987 31.1799 24.8368C28.081 23.4387 24.7443 25.8529 22.1786 27.3448C18.8602 29.3655 15.4127 31.1663 11.8584 32.7355H12.298C13.5448 32.7355 14.388 32.685 14.3952 32.685L16.932 32.5409L16.3195 35.0056C16.3195 35.0489 15.3033 39.0631 14.6547 43.3872C14.3592 45.3546 13.271 49.7868 15.2601 50.039C15.9369 50.0507 16.6009 49.8546 17.1626 49.4769C21.7822 46.8969 25.0469 42.4431 28.29 38.3928C30.2142 35.9858 35.7418 28.4186 32.1312 25.4206Z" fill="url(#paint2_radial_26_68)"/>
<path style="mix-blend-mode:multiply" opacity="0.67" d="M18.9138 46.8753C16.6436 45.434 16.8743 41.5495 17.2274 39.1785C17.6598 36.1876 18.5673 33.2851 19.9156 30.5807L20.0597 30.3141C16.3121 30.3717 11.2169 31.2077 7.88731 29.0529C3.15243 26.0044 6.94322 16.8013 8.42783 12.9456C9.14851 11.1295 9.74672 9.27733 10.5467 7.51887C10.8422 6.85584 12.7808 2.08491 13.4294 2.09932C12.7984 2.04384 12.1627 2.07782 11.5412 2.20023C10.6115 3.0218 3.61366 19.093 3.10919 27.0854C2.74164 32.8509 7.67832 32.7355 12.3051 32.7355C13.5519 32.7355 14.3951 32.6851 14.4023 32.6851L16.9391 32.541L16.3266 35.0057C16.3266 35.049 15.3104 39.0632 14.6617 43.3873C14.3663 45.3547 13.278 49.7869 15.2671 50.0391C15.9439 50.0508 16.608 49.8547 17.1697 49.477C18.2635 48.8871 19.2925 48.1841 20.2398 47.3798C19.7692 47.2994 19.3189 47.128 18.9138 46.8753Z" fill="url(#paint3_radial_26_68)"/>
<path style="mix-blend-mode:screen" opacity="0.53" d="M30.9998 22.3578C27.764 21.5506 24.8885 22.1127 21.7247 21.9974C23.7426 19.021 30.4233 7.12249 30.8773 4.75145C31.1151 3.50467 19.5914 2.30835 14.2007 2.11377C15.7389 2.47656 17.1614 3.22 18.3374 4.27582C19.1881 5.07686 19.8651 6.04423 20.3263 7.11786C20.7875 8.19149 21.0231 9.34843 21.0184 10.5169C21.0688 15.9148 17.2924 20.0804 15.7213 24.9954C19.1157 25.8458 23.9588 24.945 23.4471 29.9033C23.1228 33.0887 21.0256 35.712 20.1752 38.7244C19.6923 40.4397 18.5536 44.3746 19.4545 46.0105C21.0184 48.8284 27.1298 39.8271 28.2829 38.393C31.3025 34.6166 39.8138 24.5631 30.9998 22.3578Z" fill="url(#paint4_radial_26_68)"/>
<path d="M22.7622 17.6663C22.8127 14.4881 24.045 9.58742 25.9188 6.98576C26.3945 6.32273 27.3169 4.9462 28.1818 5.7894C30.1132 7.65597 24.6792 14.7403 22.7622 17.6663Z" fill="white"/>
<path d="M31.4754 23.8495C30.207 23.2225 25.8901 23.0351 27.9584 25.3989C28.6471 26.1035 29.256 26.8818 29.7745 27.7196C30.106 28.3466 30.1998 30.4077 30.5673 30.768C31.6267 31.8058 33.1906 28.9303 33.3564 28.152C33.5331 27.3282 33.4466 26.4697 33.1091 25.6977C32.7716 24.9257 32.2001 24.2792 31.4754 23.8495Z" fill="white"/>
<defs>
<radialGradient id="paint0_radial_26_68" cx="0" cy="0" r="1" gradientUnits="userSpaceOnUse" gradientTransform="translate(18.8545 60.9865) scale(47.697 47.697)">
<stop stop-color="#004DCD"/>
<stop offset="0.13" stop-color="#0153CF"/>
<stop offset="0.3" stop-color="#0563D4"/>
<stop offset="0.48" stop-color="#0B7EDC"/>
<stop offset="0.69" stop-color="#13A3E8"/>
<stop offset="0.9" stop-color="#1ED2F7"/>
<stop offset="1" stop-color="#23EBFF"/>
</radialGradient>
<radialGradient id="paint1_radial_26_68" cx="0" cy="0" r="1" gradientUnits="userSpaceOnUse" gradientTransform="translate(19.7981 58.4) scale(45.39 45.3901)">
<stop stop-color="#004DCD"/>
<stop offset="0.13" stop-color="#0153CF"/>
<stop offset="0.3" stop-color="#0563D4"/>
<stop offset="0.48" stop-color="#0B7EDC"/>
<stop offset="0.69" stop-color="#13A3E8"/>
<stop offset="0.9" stop-color="#1ED2F7"/>
<stop offset="1" stop-color="#23EBFF"/>
</radialGradient>
<radialGradient id="paint2_radial_26_68" cx="0" cy="0" r="1" gradientUnits="userSpaceOnUse" gradientTransform="translate(18.6655 60.8186) scale(44.761 44.7609)">
<stop stop-color="#004DCD"/>
<stop offset="0.13" stop-color="#0153CF"/>
<stop offset="0.3" stop-color="#0563D4"/>
<stop offset="0.48" stop-color="#0B7EDC"/>
<stop offset="0.69" stop-color="#13A3E8"/>
<stop offset="0.9" stop-color="#1ED2F7"/>
<stop offset="1" stop-color="#23EBFF"/>
</radialGradient>
<radialGradient id="paint3_radial_26_68" cx="0" cy="0" r="1" gradientUnits="userSpaceOnUse" gradientTransform="translate(18.8052 60.9865) scale(47.6132 47.6131)">
<stop stop-color="#004DCD"/>
<stop offset="0.13" stop-color="#0153CF"/>
<stop offset="0.3" stop-color="#0563D4"/>
<stop offset="0.48" stop-color="#0B7EDC"/>
<stop offset="0.69" stop-color="#13A3E8"/>
<stop offset="0.9" stop-color="#1ED2F7"/>
<stop offset="1" stop-color="#23EBFF"/>
</radialGradient>
<radialGradient id="paint4_radial_26_68" cx="0" cy="0" r="1" gradientUnits="userSpaceOnUse" gradientTransform="translate(18.8544 58.0853) scale(47.3056 47.3055)">
<stop stop-color="#004DCD"/>
<stop offset="0.13" stop-color="#0153CF"/>
<stop offset="0.3" stop-color="#0563D4"/>
<stop offset="0.48" stop-color="#0B7EDC"/>
<stop offset="0.69" stop-color="#13A3E8"/>
<stop offset="0.9" stop-color="#1ED2F7"/>
<stop offset="1" stop-color="#23EBFF"/>
</radialGradient>
</defs>
</svg>
