<svg width="1199" height="1528" viewBox="0 0 1199 1528" fill="none" xmlns="http://www.w3.org/2000/svg">
<path d="M430 41.7456H770V435.085H430V41.7456Z" fill="url(#paint0_linear_52_6197)"/>
<path d="M770 214.295H1067V435.085H770V214.295Z" fill="url(#paint1_linear_52_6197)"/>
<path d="M133 128.021H430V435.085H133V128.021Z" fill="url(#paint2_linear_52_6197)"/>
<path d="M175 84.4192H430V128.02H133L175 84.4192Z" fill="url(#paint3_linear_52_6197)"/>
<path d="M478 0H722.5L770 41.7459H430L478 0Z" fill="url(#paint4_linear_52_6197)"/>
<path d="M1025 170.695H770V214.296H1067L1025 170.695Z" fill="url(#paint5_linear_52_6197)"/>
<!-- <path d="M133 256.969H1067V672.573H133V256.969Z" fill="url(#paint6_linear_52_6197)"/>
<path d="M0 495C0 461.863 26.8629 435 60 435H1139C1172.14 435 1199 461.863 1199 495V1528H0V495Z" fill="#132145"/> -->
<defs>
<linearGradient id="paint0_linear_52_6197" x1="600" y1="41.7456" x2="600" y2="435.085" gradientUnits="userSpaceOnUse">
<stop stop-color="#5C90B1"/>
<stop offset="1" stop-color="#5C90B1"/>
</linearGradient>
<linearGradient id="paint1_linear_52_6197" x1="918.5" y1="214.295" x2="918.5" y2="435.085" gradientUnits="userSpaceOnUse">
<stop stop-color="#00426B"/>
<stop offset="1" stop-color="#00426B"/>
</linearGradient>
<linearGradient id="paint2_linear_52_6197" x1="281.5" y1="128.021" x2="281.5" y2="435.085" gradientUnits="userSpaceOnUse">
<stop stop-color="#00426B"/>
<stop offset="1" stop-color="#00426B"/>
</linearGradient>
<linearGradient id="paint3_linear_52_6197" x1="281.5" y1="128.02" x2="281.93" y2="25.5108" gradientUnits="userSpaceOnUse">
<stop stop-color="#79B0CC"/>
<stop offset="1" stop-color="#252525"/>
</linearGradient>
<linearGradient id="paint4_linear_52_6197" x1="600" y1="41.7459" x2="600" y2="-46.8482" gradientUnits="userSpaceOnUse">
<stop stop-color="#79B0CC"/>
<stop offset="1" stop-color="#252525"/>
</linearGradient>
<linearGradient id="paint5_linear_52_6197" x1="918.5" y1="214.296" x2="910.316" y2="107.975" gradientUnits="userSpaceOnUse">
<stop stop-color="#79B0CC"/>
<stop offset="1" stop-color="#252525"/>
</linearGradient>
<linearGradient id="paint6_linear_52_6197" x1="600" y1="256.969" x2="600" y2="589.545" gradientUnits="userSpaceOnUse">
<stop stop-opacity="0"/>
<stop offset="1"/>
</linearGradient>
</defs>
</svg>
