<svg width="93" height="213" viewBox="0 0 93 213" fill="none" xmlns="http://www.w3.org/2000/svg">
<path style="mix-blend-mode:screen" d="M48.1622 203.8C71.669 203.8 90.725 184.744 90.725 161.238C90.725 137.731 71.669 118.675 48.1622 118.675C24.6555 118.675 5.59949 137.731 5.59949 161.238C5.59949 184.744 24.6555 203.8 48.1622 203.8Z" fill="url(#paint0_radial_313_2852)"/>
<path style="mix-blend-mode:screen" opacity="0.75" d="M63.9762 110.479C63.6524 106.891 57.9106 86.4189 57.9106 86.4189L49.6886 86.716L41.4665 86.4189C41.4665 86.4189 33.0425 112.068 32.7187 115.659C32.395 119.251 26.8225 135.43 40.0408 149.02C40.0408 149.02 39.2269 145.753 41.3656 140.842C43.5042 135.932 45.9192 142.663 46.0083 146.525C46.0974 150.386 40.7032 160.215 42.1973 167.588C43.6023 174.518 49.0143 183.313 49.6559 184.338V184.439L49.6886 184.388L49.7213 184.439V184.338C50.3629 183.313 58.6324 170.181 60.18 163.281C63.6643 147.66 51.6669 137.735 56.2383 130.806C58.9651 126.647 60.1236 133.33 60.1236 133.33C68.7466 119.818 64.294 114.07 63.9762 110.479Z" fill="url(#paint1_linear_313_2852)"/>
<path style="mix-blend-mode:screen" opacity="0.42" d="M54.1743 154.084C60.1329 157.753 59.6725 165.286 58.4606 168.212C57.2487 171.137 47.687 180.984 47.687 180.984C47.687 180.984 43.0056 171.2 42.1798 167.576C41.3541 163.952 46.1691 158.558 46.1691 158.558C46.1691 158.558 47.0602 160.477 50.1732 160.842C53.2861 161.207 54.1743 154.084 54.1743 154.084Z" fill="url(#paint2_linear_313_2852)"/>
<path style="mix-blend-mode:screen" opacity="0.42" d="M34.243 117.153C31.7538 125.378 31.1775 128.774 32.3895 132.561C33.6014 136.348 39.3847 142.126 39.3847 142.126C39.3847 142.126 40.4036 138.16 44.2116 132.19C48.0196 126.219 43.87 109.555 43.87 109.555C43.87 109.555 42.6017 116.013 40.9679 118.701C37.1361 125.004 34.243 117.153 34.243 117.153Z" fill="url(#paint3_linear_313_2852)"/>
<path style="mix-blend-mode:screen" opacity="0.77" d="M49.5315 200.586C73.5386 200.586 93.0002 197.741 93.0002 194.232C93.0002 190.723 73.5386 187.878 49.5315 187.878C25.5244 187.878 6.06274 190.723 6.06274 194.232C6.06274 197.741 25.5244 200.586 49.5315 200.586Z" fill="url(#paint4_radial_313_2852)"/>
<path style="mix-blend-mode:screen" opacity="0.77" d="M49.0027 195.735C64.4808 195.735 77.0283 193.901 77.0283 191.639C77.0283 189.377 64.4808 187.543 49.0027 187.543C33.5246 187.543 20.9771 189.377 20.9771 191.639C20.9771 193.901 33.5246 195.735 49.0027 195.735Z" fill="url(#paint5_radial_313_2852)"/>
<path style="mix-blend-mode:screen" opacity="0.42" d="M59.2239 158.193C59.2239 158.193 47.9602 147.906 47.6572 143.299C47.3543 138.692 52.095 132.062 52.095 132.062C52.095 132.062 49.6622 139.319 52.2168 142.126C56.9694 147.339 54.097 136.859 54.097 136.859C61.3567 149.106 59.2239 158.193 59.2239 158.193Z" fill="url(#paint6_linear_313_2852)"/>
<path style="mix-blend-mode:screen" opacity="0.42" d="M60.0825 130.241C60.4479 130.146 65.355 122.518 64.9926 117.935C64.6302 113.352 60.0825 109.564 60.0825 109.564C60.0825 109.564 61.9925 116.23 60.0825 116.99C58.1725 117.751 56.221 113.108 56.221 113.108C56.221 113.108 51.709 121.722 54.4388 124.942C56.1188 126.911 58.0116 128.688 60.0825 130.241Z" fill="url(#paint7_linear_313_2852)"/>
<path style="mix-blend-mode:screen" opacity="0.75" d="M38.3775 138.627C33.3842 134.676 32.3832 130.117 32.7337 125.839C33.105 121.119 34.5843 119.898 34.5843 119.898C34.5843 119.898 32.7248 124.948 36.4022 129.264C37.7121 130.806 42.937 124.494 42.937 124.494C42.937 124.494 44.3034 126.647 42.937 130.235C41.5707 133.824 38.3775 138.627 38.3775 138.627Z" fill="url(#paint8_linear_313_2852)"/>
<path style="mix-blend-mode:screen" opacity="0.75" d="M45.5868 162.99C45.5868 162.99 43.1006 167.534 44.5324 171.574C45.9641 175.614 48.1681 177.634 48.1681 177.634C48.1681 177.634 51.9019 174.366 51.9019 171.693C51.9019 169.02 45.6076 166.679 45.5868 162.99Z" fill="url(#paint9_linear_313_2852)"/>
<path style="mix-blend-mode:screen" opacity="0.75" d="M49.5347 140.364C49.5347 140.364 47.8445 146.234 50.9664 149.168C54.0883 152.103 58.4726 157.486 58.4726 157.486C58.4726 157.486 60.4479 150.585 58.0835 148.123C55.719 145.66 49.5822 144.226 49.5347 140.364Z" fill="url(#paint10_linear_313_2852)"/>
<path style="mix-blend-mode:screen" opacity="0.75" d="M61.2348 111.929C63.6111 114.578 65.2953 117.168 63.8398 120.766C62.3843 124.363 59.5208 129.261 59.5208 129.261C59.5208 129.261 55.4247 124.416 56.4524 119.895C56.4524 119.895 58.098 122.444 60.3347 120.593C62.5714 118.743 61.2348 111.929 61.2348 111.929Z" fill="url(#paint11_linear_313_2852)"/>
<path style="mix-blend-mode:soft-light" d="M45.9047 139.227C48.7444 151.257 43.9769 153.277 42.2481 161.232C40.5194 169.186 45.7235 176.597 47.9958 179.464C47.9958 179.464 59.2833 173.122 59.9012 161.475C60.7507 145.236 55.1753 138.627 52.4485 135.425C49.7216 132.223 49.0771 125.839 49.0771 125.839C49.0771 125.839 44.5413 133.452 45.9047 139.227Z" fill="url(#paint12_linear_313_2852)"/>
<path style="mix-blend-mode:soft-light" d="M38.6831 146.896C38.6831 146.896 29.0027 134.183 33.3602 116.126C37.7178 98.0689 41.4486 91.3291 41.4486 91.3291C41.4486 91.3291 37.4296 100.989 42.0961 113.105C46.7626 125.221 46.127 128.01 41.9001 135.018C37.6732 142.025 38.6831 146.896 38.6831 146.896Z" fill="url(#paint13_linear_313_2852)"/>
<path style="mix-blend-mode:soft-light" d="M60.3285 131.085C60.3285 131.085 67.3565 122.263 64.1277 111.43C60.8989 100.597 54.2778 89.6509 54.2778 89.6509C54.2778 89.6509 45.7201 93.4381 46.5845 110.369C47.4489 127.301 57.6285 125.839 60.3285 131.085Z" fill="url(#paint14_linear_313_2852)"/>
<path style="mix-blend-mode:screen" opacity="0.75" d="M42.6934 191.746C45.6193 192.123 38.5765 168.301 28.3375 169.023C14.4955 170 14.4955 156.294 14.4955 156.294C14.4955 156.294 6.30615 165.8 9.66269 171.538C13.0192 177.277 9.79636 183.984 5.50414 181.341C1.21193 178.697 0 175.75 0 175.75C0 175.75 2.54563 185.704 6.57943 188.963C23.0889 202.303 35.214 190.778 42.6934 191.746Z" fill="url(#paint15_linear_313_2852)"/>
<path style="mix-blend-mode:screen" opacity="0.75" d="M49.7985 192.123C48.9341 192.572 66.697 175.341 66.3436 166.225C65.7762 151.61 58.8017 154.23 61.7721 141.609C61.7721 141.609 65.2475 149.76 67.1783 145.631C69.3853 140.911 65.3485 137.346 66.4386 131.415C66.4386 131.415 68.2209 144.407 78.3588 155.118C86.4116 163.625 92.5246 171.957 85.6779 177.551C78.8311 183.144 91.3216 185.101 91.3216 185.101C91.3216 185.101 91.4553 189.557 83.5362 192.504C75.6171 195.45 54.0729 189.905 49.7985 192.123Z" fill="url(#paint16_linear_313_2852)"/>
<path style="mix-blend-mode:screen" opacity="0.75" d="M32.9416 167.332C32.9416 167.332 16.5094 167.98 25.5156 150.606C28.486 144.885 25.3938 135.41 25.3938 135.41C25.3938 135.41 28.9167 139.729 30.6157 147.065C32.3148 154.402 30.7405 162.945 32.9416 167.332Z" fill="url(#paint17_linear_313_2852)"/>
<path style="mix-blend-mode:screen" opacity="0.42" d="M11.5429 163.845C8.94382 169.489 10.8716 172.804 13.1529 175.727C15.4341 178.65 28.192 181.317 31.8158 184.115C31.8158 184.115 33.6218 173.627 30.7049 171.937C30.7049 171.937 31.8693 175.014 27.883 175.154C23.8968 175.293 21.6779 174.016 18.0214 170.677C15.0242 167.941 12.4816 161.344 12.4816 161.344L11.5429 163.845Z" fill="url(#paint18_linear_313_2852)"/>
<path style="mix-blend-mode:screen" opacity="0.42" d="M61.437 143.195C61.3449 158.391 72.0294 162.306 72.2641 169.159C72.4988 176.012 71.5571 178.109 71.5571 178.109C71.5571 178.109 86.1121 171.613 83.3734 164.602C80.6347 157.592 70.4818 149.302 69.5432 146.78C69.5432 146.78 71.2898 150.558 68.3343 150.137C65.3787 149.715 61.437 143.195 61.437 143.195Z" fill="url(#paint19_linear_313_2852)"/>
<path style="mix-blend-mode:screen" opacity="0.42" d="M29.6592 165.384C24.8532 164.674 22.3521 158.112 24.767 153.603C27.1819 149.094 28.4919 146.771 28.4919 146.771C28.4919 146.771 29.79 150.336 27.8978 155.106C26.0057 159.877 30.1791 157.417 30.1791 157.417C30.1791 157.417 32.7425 165.838 29.6592 165.384Z" fill="url(#paint20_linear_313_2852)"/>
<path style="mix-blend-mode:screen" opacity="0.75" d="M27.8831 163.251C24.1642 160.105 22.7829 157.31 25.1622 152.855C27.5415 148.399 28.1059 148.83 28.1059 148.83C28.1059 148.83 26.0444 152.855 26.3979 156.737C26.686 159.894 27.8831 163.251 27.8831 163.251Z" fill="url(#paint21_linear_313_2852)"/>
<path style="mix-blend-mode:screen" opacity="0.75" d="M63.6349 149.721C63.3378 156.33 68.7083 160.269 71.1886 162.402C76.9274 167.336 76.6808 174.381 75.8194 175.314C75.8194 175.314 82.2652 168.812 81.2582 164.603C79.9632 159.191 73.0718 151.373 73.0718 151.373C73.0718 151.373 73.1015 153.883 69.9796 153.497C66.8578 153.11 63.6349 149.721 63.6349 149.721Z" fill="url(#paint22_linear_313_2852)"/>
<path style="mix-blend-mode:screen" opacity="0.75" d="M13.2897 163.251C6.0627 178.103 28.4921 180.776 28.4921 180.776C28.4921 180.776 21.6781 178.103 18.3245 174.669C14.0739 170.341 13.2897 163.251 13.2897 163.251Z" fill="url(#paint23_linear_313_2852)"/>
<path style="mix-blend-mode:soft-light" d="M13.0548 159.143C5.17734 168.865 11.7271 174.334 13.2449 178.81C14.7628 183.286 7.30417 184.953 5.09717 182.167C5.09717 182.167 6.11601 193.389 20.1749 193.861C34.2337 194.333 41.7518 189.857 41.7518 189.857C41.7518 189.857 40.7092 172.516 32.3683 171.256C24.0275 169.997 19.56 172.367 15.752 167.335C11.9439 162.304 13.0548 159.143 13.0548 159.143Z" fill="url(#paint24_linear_313_2852)"/>
<path style="mix-blend-mode:soft-light" d="M29.1011 159.232C26.7011 165.96 31.1804 167.252 31.1804 167.252C31.1804 167.252 22.599 165.996 23.4307 158.813C23.8376 155.299 25.1001 153.654 28.4982 146.786C30.6458 142.452 26.0505 137.138 26.0505 137.138C26.0505 137.138 33.7082 146.317 29.1011 159.232Z" fill="url(#paint25_linear_313_2852)"/>
<path style="mix-blend-mode:soft-light" d="M61.7336 147.583C61.7336 147.583 62.8297 154.414 67.1694 160.284C75.4004 171.432 51.9551 191.639 51.9551 191.639C51.9551 191.639 76.6361 190.523 81.362 182.027C86.0878 173.532 90.2167 169.37 84.3769 163.251C78.5371 157.132 65.4882 155.787 61.7336 147.583Z" fill="url(#paint26_linear_313_2852)"/>
<path style="mix-blend-mode:color-dodge" d="M44.7579 145.723C49.2266 145.723 52.8492 142.1 52.8492 137.631C52.8492 133.163 49.2266 129.54 44.7579 129.54C40.2891 129.54 36.6665 133.163 36.6665 137.631C36.6665 142.1 40.2891 145.723 44.7579 145.723Z" fill="url(#paint27_radial_313_2852)"/>
<path style="mix-blend-mode:color-dodge" d="M58.1304 191.009C60.0531 179.164 52.0094 168.003 40.1641 166.08C28.3189 164.157 17.1577 172.201 15.235 184.046C13.3122 195.892 21.356 207.053 33.2012 208.976C45.0465 210.898 56.2076 202.855 58.1304 191.009Z" fill="url(#paint28_radial_313_2852)"/>
<path style="mix-blend-mode:screen" d="M48.9996 117.623C59.8318 117.623 68.6131 108.842 68.6131 98.0095C68.6131 87.1773 59.8318 78.396 48.9996 78.396C38.1674 78.396 29.3861 87.1773 29.3861 98.0095C29.3861 108.842 38.1674 117.623 48.9996 117.623Z" fill="url(#paint29_radial_313_2852)"/>
<path style="mix-blend-mode:color-dodge" d="M54.4565 204.483C64.1453 204.483 71.9996 196.629 71.9996 186.94C71.9996 177.251 64.1453 169.397 54.4565 169.397C44.7677 169.397 36.9133 177.251 36.9133 186.94C36.9133 196.629 44.7677 204.483 54.4565 204.483Z" fill="url(#paint30_radial_313_2852)"/>
<path style="mix-blend-mode:color-dodge" d="M35.1251 146.971C43.8706 146.971 50.9602 139.881 50.9602 131.135C50.9602 122.39 43.8706 115.3 35.1251 115.3C26.3796 115.3 19.2899 122.39 19.2899 131.135C19.2899 139.881 26.3796 146.971 35.1251 146.971Z" fill="url(#paint31_radial_313_2852)"/>
<path fill-rule="evenodd" clip-rule="evenodd" d="M40.0113 61.2778C35.0953 65.8581 31.3467 71.8791 28.5397 77.8021C25.2413 84.8943 22.806 92.3569 21.286 100.029C21.286 100.029 15.2472 87.2568 14.8581 79.5932C14.8373 79.2397 14.8313 78.8981 14.8373 78.5684C14.9175 74.8703 16.5869 65.8373 24.298 60.2886C24.8651 59.8774 25.453 59.4957 26.0594 59.145L31.0527 59.9084L33.527 60.2886L40.0113 61.2778Z" fill="url(#paint32_radial_313_2852)"/>
<path style="mix-blend-mode:multiply" fill-rule="evenodd" clip-rule="evenodd" d="M40.0114 61.2778C25.7357 74.5762 21.298 100.032 21.298 100.032C21.9871 82.0794 23.8288 76.9495 23.8288 76.9495C27.3932 68.2671 30.9577 63.1669 33.539 60.2856L40.0114 61.2778Z" fill="url(#paint33_linear_313_2852)"/>
<path style="mix-blend-mode:multiply" fill-rule="evenodd" clip-rule="evenodd" d="M29.0446 76.7565L29.1248 76.5961C29.2822 76.2812 29.4397 75.9634 29.603 75.6486C29.603 75.6159 29.6357 75.5802 29.6535 75.5476C30.0199 74.8386 30.3991 74.1317 30.7912 73.4267L30.8595 73.3019C31.2575 72.598 31.6675 71.894 32.0922 71.1989L32.1368 71.1306C32.3299 70.8157 32.5259 70.5009 32.7309 70.189L32.8289 70.0375C33.2566 69.3691 33.7022 68.7097 34.1596 68.0622L34.2933 67.878C34.4863 67.6077 34.6794 67.3404 34.8873 67.076L35.0181 66.9008C35.2527 66.5859 35.4904 66.277 35.7339 65.968C35.7607 65.9354 35.7874 65.8997 35.8171 65.8671C36.028 65.5997 36.2418 65.3383 36.4557 65.0769L36.6547 64.8393C36.8627 64.5957 37.0706 64.3522 37.2815 64.1115L37.4122 63.9601C37.6617 63.6779 37.9172 63.4016 38.1756 63.1254L38.3687 62.9204C38.5707 62.7095 38.7756 62.4986 38.9805 62.2907L39.2122 62.062C39.4796 61.7946 39.7499 61.5332 40.0261 61.2778L31.0644 59.9055L26.0712 59.1421C25.4648 59.4928 24.8769 59.8745 24.3098 60.2857C27.1643 61.4055 27.4049 64.8541 27.0574 67.6849C19.1086 84.4142 14.8788 79.5903 14.8788 79.5903C15.2679 87.2658 21.3067 100.027 21.3067 100.027C22.8271 92.3527 25.2634 84.8891 28.5634 77.7961C28.706 77.4546 28.8723 77.104 29.0446 76.7565Z" fill="url(#paint34_linear_313_2852)"/>
<path fill-rule="evenodd" clip-rule="evenodd" d="M58.8761 61.2778C63.7921 65.8581 67.5407 71.8791 70.3478 77.8021C73.6461 84.8943 76.0815 92.3569 77.6015 100.029C77.6015 100.029 83.6373 87.2568 84.0294 79.5932C84.0472 79.2397 84.0561 78.8981 84.0472 78.5684C83.967 74.8703 82.3006 65.8373 74.5895 60.2886C74.0219 59.8781 73.434 59.4964 72.8281 59.145L67.8378 59.9054L65.3635 60.2856L58.8761 61.2778Z" fill="url(#paint35_radial_313_2852)"/>
<path style="mix-blend-mode:multiply" fill-rule="evenodd" clip-rule="evenodd" d="M58.8761 61.2778C73.1518 74.5762 77.6044 100.032 77.6044 100.032C76.9153 82.0794 75.0707 76.9495 75.0707 76.9495C71.5062 68.2671 67.9418 63.1669 65.3635 60.2856L58.8761 61.2778Z" fill="url(#paint36_linear_313_2852)"/>
<path style="mix-blend-mode:multiply" fill-rule="evenodd" clip-rule="evenodd" d="M69.8402 76.7565C69.8164 76.703 69.7897 76.6496 69.763 76.5961C69.6055 76.2812 69.4481 75.9634 69.2847 75.6486C69.2669 75.6159 69.2521 75.5802 69.2342 75.5476C68.8679 74.8386 68.4887 74.1317 68.0966 73.4267C68.0728 73.3851 68.0491 73.3435 68.0283 73.3019C67.6302 72.598 67.2203 71.894 66.7956 71.1989L66.751 71.1306C66.5579 70.8157 66.3589 70.5009 66.1569 70.189L66.0589 70.0375C65.6312 69.3701 65.1866 68.7117 64.7252 68.0622C64.6836 67.9998 64.639 67.9374 64.5945 67.878C64.4014 67.6077 64.2083 67.3404 64.0004 67.076L63.8727 66.9008C63.638 66.5859 63.3974 66.277 63.1568 65.968L63.0736 65.8671C62.8627 65.5997 62.6489 65.3383 62.435 65.0769C62.3667 64.9997 62.3014 64.9195 62.236 64.8393C62.0281 64.5957 61.8202 64.3522 61.6093 64.1115L61.4785 63.9601C61.2261 63.6779 60.9736 63.4016 60.7152 63.1254L60.5191 62.9204C60.3201 62.7095 60.1152 62.4986 59.9072 62.2907L59.6785 62.062C59.4112 61.7946 59.1409 61.5332 58.8646 61.2778L67.8263 59.9055L72.8195 59.1421C73.4255 59.4935 74.0134 59.8752 74.5809 60.2857C71.7264 61.4055 71.4858 64.8541 71.8333 67.6849C79.7821 84.4142 84.0119 79.5903 84.0119 79.5903C83.6198 87.2658 77.584 100.027 77.584 100.027C76.0637 92.3527 73.6273 84.8891 70.3274 77.7961C70.1818 77.4546 70.0125 77.104 69.8402 76.7565Z" fill="url(#paint37_linear_313_2852)"/>
<path fill-rule="evenodd" clip-rule="evenodd" d="M59.8358 84.4528C58.713 94.7007 51.284 106.054 50.0157 107.919V108.189C50.0167 108.181 50.0167 108.173 50.0157 108.165L49.9384 108.053C49.876 108.139 49.8464 108.189 49.8464 108.189V107.919C48.575 106.039 41.1461 94.6858 40.0262 84.4528C40.0262 84.4528 39.7589 80.2943 41.7669 71.799C42.0362 70.6603 42.3501 69.4444 42.7085 68.1513C43.3263 65.9057 44.0897 63.4254 45.0284 60.7075H54.8485C55.8737 63.137 56.737 65.6316 57.4327 68.1751C57.7773 69.4226 58.0684 70.6316 58.3238 71.799C59.8744 79.0348 59.8358 84.4528 59.8358 84.4528Z" fill="url(#paint38_radial_313_2852)"/>
<path style="mix-blend-mode:multiply" fill-rule="evenodd" clip-rule="evenodd" d="M59.8358 84.4527C58.713 94.7006 51.284 106.053 50.0156 107.919V108.189L49.9235 108.052C49.8611 108.139 49.8315 108.189 49.8315 108.189V107.919C48.5601 106.039 41.1312 94.6857 40.0113 84.4527C40.0113 84.4527 39.744 80.2941 41.752 71.7988C41.354 86.3537 50.1166 87.2033 50.1166 87.2033C50.1166 87.2033 60.0615 84.1765 58.309 71.8107C59.8744 79.0347 59.8358 84.4527 59.8358 84.4527Z" fill="url(#paint39_linear_313_2852)"/>
<path style="mix-blend-mode:multiply" opacity="0.71" fill-rule="evenodd" clip-rule="evenodd" d="M57.4179 68.1751L57.3584 68.1513C51.2246 65.3384 42.6936 68.1513 42.6936 68.1513C43.3114 65.9057 44.0749 63.4254 45.0135 60.7075H54.8336C55.8588 63.137 56.7221 65.6316 57.4179 68.1751Z" fill="url(#paint40_linear_313_2852)"/>
<path style="mix-blend-mode:multiply" opacity="0.71" fill-rule="evenodd" clip-rule="evenodd" d="M50.1285 60.7075L50.0157 107.937C50.0157 107.937 50.0157 108.023 50.0157 108.183L49.9384 108.07C49.876 108.157 49.8464 108.207 49.8464 108.207V107.937C48.575 106.056 41.1461 94.7037 40.0262 84.4707C40.0262 84.4707 39.7589 80.3121 41.7669 71.8168C42.0362 70.6781 42.3501 69.4623 42.7085 68.1691C43.3263 65.9235 44.0897 63.4432 45.0284 60.7253L50.1285 60.7075Z" fill="url(#paint41_linear_313_2852)"/>
<path fill-rule="evenodd" clip-rule="evenodd" d="M50.4045 73.0317C49.9619 77.7636 50.6154 79.6112 50.6154 79.6112C53.4699 74.713 50.4045 73.0317 50.4045 73.0317Z" fill="white"/>
<path fill-rule="evenodd" clip-rule="evenodd" d="M83.8541 58.0994C83.8541 58.0994 75.24 63.4461 50.4402 63.4461C25.6404 63.4461 17.0292 58.0994 17.0292 58.0994L17.4747 49.4853C19.3312 47.8516 22.2006 46.9604 22.2006 46.9604L22.3729 49.6338C39.8982 52.9012 43.3796 52.9012 50.4402 52.9012C57.5008 52.9012 60.9851 52.9012 78.5074 49.6338L78.6856 46.9604C80.4117 47.1862 82.0349 47.9085 83.358 49.0397L83.8541 58.0994Z" fill="url(#paint42_radial_313_2852)"/>
<path fill-rule="evenodd" clip-rule="evenodd" d="M78.5077 49.6366C70.2411 51.9624 57.5041 53.0526 50.4405 53.0526C43.3769 53.0526 30.6398 51.9624 22.3732 49.6366C22.3732 49.6366 18.5117 18.4475 44.5502 14.381C48.4769 13.7929 52.4693 13.7929 56.3961 14.381C82.3514 18.498 78.5077 49.6366 78.5077 49.6366Z" fill="url(#paint43_radial_313_2852)"/>
<path fill-rule="evenodd" clip-rule="evenodd" d="M56.3961 14.3957C55.8198 15.6848 45.5779 15.9878 44.5502 14.3957C48.4769 13.8076 52.4694 13.8076 56.3961 14.3957Z" fill="url(#paint44_linear_313_2852)"/>
<path d="M51.2191 51.3622C59.6696 50.8675 66.1191 43.616 65.6244 35.1655C65.1298 26.715 57.8783 20.2655 49.4278 20.7601C40.9772 21.2548 34.5277 28.5063 35.0224 36.9568C35.517 45.4073 42.7685 51.8568 51.2191 51.3622Z" fill="url(#paint45_radial_313_2852)"/>
<path fill-rule="evenodd" clip-rule="evenodd" d="M34.9976 34.8057C35.6332 43.9278 41.8622 50.133 50.3278 50.133C54.3928 50.133 58.2914 48.5181 61.1658 45.6437C64.0402 42.7693 65.655 38.8708 65.655 34.8057C65.655 26.3401 58.7934 18.4092 50.3278 18.4092C41.8622 18.4092 34.4094 26.3609 34.9976 34.8057Z" fill="url(#paint46_radial_313_2852)"/>
<path fill-rule="evenodd" clip-rule="evenodd" d="M39.0427 34.8056C39.0427 41.0434 43.2339 46.9485 49.439 47.3584C58.1482 47.9317 61.2374 41.3909 61.5761 35.462C61.5761 35.2452 61.5968 35.0254 61.5968 34.8056C61.5968 31.8119 60.4076 28.9409 58.2908 26.8241C56.174 24.7073 53.303 23.5181 50.3093 23.5181C47.3157 23.5181 44.4447 24.7073 42.3279 26.8241C40.2111 28.9409 39.0219 31.8119 39.0219 34.8056H39.0427Z" fill="url(#paint47_radial_313_2852)"/>
<path d="M57.1111 41.5868C60.8568 37.8411 60.8567 31.7682 57.1111 28.0226C53.3654 24.2769 47.2925 24.2769 43.5468 28.0225C39.8011 31.7682 39.8011 37.8412 43.5468 41.5868C47.2925 45.3325 53.3654 45.3325 57.1111 41.5868Z" fill="url(#paint48_radial_313_2852)"/>
<path style="mix-blend-mode:multiply" opacity="0.71" fill-rule="evenodd" clip-rule="evenodd" d="M41.0003 37.06C40.7983 33.5817 42.7024 27.9053 50.0214 28.4815C58.9771 29.1855 59.6514 37.06 59.6514 37.06L61.5911 35.462C61.5911 35.2451 61.6119 35.0253 61.6119 34.8055C61.607 31.9901 60.5501 29.2781 58.6486 27.2018C56.7471 25.1254 54.1382 23.8347 51.3341 23.5829C48.5299 23.331 45.7328 24.1362 43.4918 25.8405C41.2508 27.5448 39.7276 30.025 39.2211 32.7945L41.0003 37.06Z" fill="url(#paint49_linear_313_2852)"/>
<path style="mix-blend-mode:multiply" opacity="0.71" fill-rule="evenodd" clip-rule="evenodd" d="M65.6548 37.063C65.6548 37.063 63.3528 49.6782 50.3276 50.1327C36.8331 50.605 34.9974 35.6045 34.9974 35.6045C34.9974 35.6045 31.3587 52.6813 49.8493 52.6813C64.0122 52.6813 65.6548 37.063 65.6548 37.063Z" fill="url(#paint50_linear_313_2852)"/>
<path fill-rule="evenodd" clip-rule="evenodd" d="M54.9759 33.1925C55.1541 35.6816 51.7322 34.3806 51.3787 33.7568C51.0252 33.1331 51.8718 32.2716 52.6501 32.2063C53.4283 32.1409 54.9046 32.2182 54.9759 33.1925Z" fill="white"/>
<path style="mix-blend-mode:screen" opacity="0.52" fill-rule="evenodd" clip-rule="evenodd" d="M56.3691 20.2446C56.3691 20.2446 62.6901 22.3595 65.1021 30.9172L62.099 32.1856C62.099 32.1856 61.5881 26.9191 54.2067 23.3457L56.3691 20.2446Z" fill="url(#paint51_linear_313_2852)"/>
<g style="mix-blend-mode:multiply" opacity="0.71">
<path fill-rule="evenodd" clip-rule="evenodd" d="M38.6184 33.5815L35.5619 34.2707C35.5619 34.2707 34.4807 47.3909 47.3603 49.8682L47.6098 47.3968C47.6098 47.3968 38.4313 44.8215 38.6184 33.5815Z" fill="#DCCBDF"/>
</g>
<path fill-rule="evenodd" clip-rule="evenodd" d="M55.3832 14.901C55.3832 8.66322 53.0574 5.41064 50.3751 5.41064C47.6929 5.41064 45.3671 8.65134 45.3671 14.901C45.3671 14.901 46.6532 15.4595 50.3098 15.4595C53.9664 15.4595 55.3832 14.901 55.3832 14.901Z" fill="url(#paint52_radial_313_2852)"/>
<path fill-rule="evenodd" clip-rule="evenodd" d="M50.8861 6.16797C50.5416 6.86007 50.8386 9.13836 52.8169 10.7216C52.8169 10.7216 53.7644 10.2107 53.411 8.44626C53.0575 6.68185 50.8861 6.16797 50.8861 6.16797Z" fill="white"/>
<path style="mix-blend-mode:screen" d="M59.9527 9.71654C59.9824 4.40959 55.7043 0.0834475 50.3973 0.0538076C45.0904 0.0241678 40.7642 4.30226 40.7346 9.6092C40.7049 14.9161 44.983 19.2423 50.29 19.2719C55.5969 19.3016 59.9231 15.0235 59.9527 9.71654Z" fill="url(#paint53_radial_313_2852)"/>
<path fill-rule="evenodd" clip-rule="evenodd" d="M59.6543 21.9702C57.976 22.7188 62.194 26.0397 62.9515 25.7634C62.5535 25.0301 62.0535 24.357 61.4663 23.7643C60.1504 22.294 59.6543 21.9702 59.6543 21.9702Z" fill="white"/>
<path fill-rule="evenodd" clip-rule="evenodd" d="M83.3587 49.0456C65.3403 56.7686 33.1412 56.0944 17.4753 49.4882C19.3318 47.8545 22.2012 46.9634 22.2012 46.9634L22.3735 49.6367C39.8988 52.9042 43.3802 52.9042 50.4408 52.9042C57.5014 52.9042 60.9857 52.9042 78.508 49.6367L78.6862 46.9634C80.4126 47.1899 82.0359 47.9134 83.3587 49.0456Z" fill="url(#paint54_radial_313_2852)"/>
<path style="mix-blend-mode:multiply" d="M50.2176 21.9199C50.777 21.9199 51.2305 21.4664 51.2305 20.9069C51.2305 20.3475 50.777 19.894 50.2176 19.894C49.6582 19.894 49.2047 20.3475 49.2047 20.9069C49.2047 21.4664 49.6582 21.9199 50.2176 21.9199Z" fill="url(#paint55_linear_313_2852)"/>
<path fill-rule="evenodd" clip-rule="evenodd" d="M51.1322 20.907C51.1322 21.0662 51.0849 21.2219 50.9965 21.3542C50.908 21.4866 50.7823 21.5898 50.6352 21.6507C50.4881 21.7117 50.3263 21.7276 50.1702 21.6965C50.014 21.6655 49.8706 21.5888 49.758 21.4762C49.6454 21.3637 49.5687 21.2202 49.5377 21.0641C49.5066 20.9079 49.5226 20.7461 49.5835 20.599C49.6444 20.4519 49.7476 20.3262 49.88 20.2377C50.0124 20.1493 50.168 20.1021 50.3272 20.1021C50.5407 20.1021 50.7454 20.1869 50.8964 20.3378C51.0474 20.4888 51.1322 20.6935 51.1322 20.907Z" fill="url(#paint56_linear_313_2852)"/>
<path style="mix-blend-mode:multiply" d="M36.952 35.2836C37.5114 35.2836 37.9649 34.8301 37.9649 34.2707C37.9649 33.7113 37.5114 33.2578 36.952 33.2578C36.3926 33.2578 35.9391 33.7113 35.9391 34.2707C35.9391 34.8301 36.3926 35.2836 36.952 35.2836Z" fill="url(#paint57_linear_313_2852)"/>
<path d="M37.0616 35.0758C37.5061 35.0758 37.8665 34.7154 37.8665 34.2708C37.8665 33.8262 37.5061 33.4658 37.0616 33.4658C36.617 33.4658 36.2566 33.8262 36.2566 34.2708C36.2566 34.7154 36.617 35.0758 37.0616 35.0758Z" fill="url(#paint58_linear_313_2852)"/>
<path style="mix-blend-mode:multiply" fill-rule="evenodd" clip-rule="evenodd" d="M64.9804 34.2707C64.9809 34.4719 64.9218 34.6687 64.8104 34.8362C64.699 35.0037 64.5404 35.1344 64.3546 35.2117C64.1689 35.2889 63.9644 35.3093 63.767 35.2702C63.5697 35.2311 63.3884 35.1343 63.2462 34.992C63.1039 34.8498 63.0071 34.6685 62.968 34.4711C62.9289 34.2738 62.9493 34.0693 63.0265 33.8836C63.1038 33.6978 63.2344 33.5392 63.4019 33.4278C63.5695 33.3164 63.7663 33.2572 63.9674 33.2578C64.2361 33.2578 64.4937 33.3645 64.6837 33.5545C64.8736 33.7444 64.9804 34.0021 64.9804 34.2707Z" fill="url(#paint59_linear_313_2852)"/>
<path d="M64.0744 35.0758C64.519 35.0758 64.8794 34.7154 64.8794 34.2708C64.8794 33.8262 64.519 33.4658 64.0744 33.4658C63.6298 33.4658 63.2694 33.8262 63.2694 34.2708C63.2694 34.7154 63.6298 35.0758 64.0744 35.0758Z" fill="url(#paint60_linear_313_2852)"/>
<path style="mix-blend-mode:multiply" d="M60.6674 44.6406C61.2269 44.6406 61.6804 44.1871 61.6804 43.6277C61.6804 43.0682 61.2269 42.6147 60.6674 42.6147C60.108 42.6147 59.6545 43.0682 59.6545 43.6277C59.6545 44.1871 60.108 44.6406 60.6674 44.6406Z" fill="url(#paint61_linear_313_2852)"/>
<path fill-rule="evenodd" clip-rule="evenodd" d="M61.582 43.6277C61.582 43.7869 61.5348 43.9426 61.4463 44.0749C61.3579 44.2073 61.2322 44.3105 61.0851 44.3714C60.938 44.4324 60.7761 44.4483 60.62 44.4172C60.4638 44.3862 60.3204 44.3095 60.2078 44.1969C60.0952 44.0844 60.0186 43.9409 59.9875 43.7848C59.9564 43.6286 59.9724 43.4668 60.0333 43.3197C60.0943 43.1726 60.1974 43.0469 60.3298 42.9584C60.4622 42.87 60.6178 42.8228 60.777 42.8228C60.9905 42.8228 61.1953 42.9076 61.3462 43.0585C61.4972 43.2095 61.582 43.4142 61.582 43.6277Z" fill="url(#paint62_linear_313_2852)"/>
<path style="mix-blend-mode:multiply" d="M39.3281 43.8354C39.8875 43.8354 40.341 43.3819 40.341 42.8225C40.341 42.2631 39.8875 41.8096 39.3281 41.8096C38.7687 41.8096 38.3152 42.2631 38.3152 42.8225C38.3152 43.3819 38.7687 43.8354 39.3281 43.8354Z" fill="url(#paint63_linear_313_2852)"/>
<path d="M39.4382 43.6275C39.8827 43.6275 40.2431 43.2671 40.2431 42.8226C40.2431 42.378 39.8827 42.0176 39.4382 42.0176C38.9936 42.0176 38.6332 42.378 38.6332 42.8226C38.6332 43.2671 38.9936 43.6275 39.4382 43.6275Z" fill="url(#paint64_linear_313_2852)"/>
<path style="mix-blend-mode:multiply" fill-rule="evenodd" clip-rule="evenodd" d="M42.2686 24.6616C42.2915 24.8667 42.2515 25.0738 42.1541 25.2557C42.0567 25.4375 41.9063 25.5855 41.7229 25.6801C41.5396 25.7746 41.3318 25.8113 41.1271 25.7852C40.9225 25.7591 40.7306 25.6714 40.5768 25.5339C40.423 25.3964 40.3146 25.2154 40.2659 25.0149C40.2173 24.8144 40.2306 24.6039 40.3042 24.4111C40.3778 24.2184 40.5081 24.0525 40.678 23.9355C40.8479 23.8184 41.0494 23.7557 41.2557 23.7557C41.5099 23.7427 41.7588 23.8306 41.9485 24.0002C42.1382 24.1699 42.2533 24.4076 42.2686 24.6616Z" fill="url(#paint65_linear_313_2852)"/>
<path fill-rule="evenodd" clip-rule="evenodd" d="M42.1706 24.6618C42.1893 24.8251 42.1579 24.9902 42.0807 25.1352C42.0034 25.2802 41.8838 25.3984 41.7379 25.4739C41.5919 25.5495 41.4265 25.579 41.2634 25.5584C41.1004 25.5378 40.9475 25.4682 40.8249 25.3587C40.7023 25.2492 40.6159 25.1051 40.577 24.9454C40.5382 24.7857 40.5488 24.618 40.6075 24.4645C40.6661 24.311 40.77 24.1789 40.9054 24.0857C41.0408 23.9926 41.2013 23.9428 41.3657 23.9429C41.5675 23.9324 41.7654 24.002 41.9161 24.1366C42.0669 24.2713 42.1584 24.46 42.1706 24.6618Z" fill="url(#paint66_linear_313_2852)"/>
<path style="mix-blend-mode:multiply" d="M60.2783 26.5834C60.8377 26.5834 61.2912 26.1299 61.2912 25.5705C61.2912 25.0111 60.8377 24.5576 60.2783 24.5576C59.7189 24.5576 59.2654 25.0111 59.2654 25.5705C59.2654 26.1299 59.7189 26.5834 60.2783 26.5834Z" fill="url(#paint67_linear_313_2852)"/>
<path d="M60.3854 26.3756C60.83 26.3756 61.1904 26.0152 61.1904 25.5706C61.1904 25.126 60.83 24.7656 60.3854 24.7656C59.9408 24.7656 59.5804 25.126 59.5804 25.5706C59.5804 26.0152 59.9408 26.3756 60.3854 26.3756Z" fill="url(#paint68_linear_313_2852)"/>
<path style="mix-blend-mode:multiply" d="M50.2176 49.8686C50.777 49.8686 51.2305 49.4151 51.2305 48.8557C51.2305 48.2963 50.777 47.8428 50.2176 47.8428C49.6582 47.8428 49.2047 48.2963 49.2047 48.8557C49.2047 49.4151 49.6582 49.8686 50.2176 49.8686Z" fill="url(#paint69_linear_313_2852)"/>
<path fill-rule="evenodd" clip-rule="evenodd" d="M51.1322 48.8523C51.1322 49.0115 51.0849 49.1672 50.9965 49.2996C50.908 49.4319 50.7823 49.5351 50.6352 49.596C50.4881 49.657 50.3263 49.6729 50.1702 49.6418C50.014 49.6108 49.8706 49.5341 49.758 49.4215C49.6454 49.309 49.5687 49.1655 49.5377 49.0094C49.5066 48.8532 49.5226 48.6914 49.5835 48.5443C49.6444 48.3972 49.7476 48.2715 49.88 48.183C50.0124 48.0946 50.168 48.0474 50.3272 48.0474C50.5407 48.0474 50.7454 48.1322 50.8964 48.2831C51.0474 48.4341 51.1322 48.6388 51.1322 48.8523Z" fill="url(#paint70_linear_313_2852)"/>
<path style="mix-blend-mode:screen" opacity="0.52" fill-rule="evenodd" clip-rule="evenodd" d="M41.2561 15.0791C29.1577 18.697 23.1367 36.261 22.2723 48.0504C22.2723 48.0504 21.7822 36.6174 25.7833 27.9498C30.2775 18.2218 41.2561 15.0791 41.2561 15.0791Z" fill="url(#paint71_linear_313_2852)"/>
<path style="mix-blend-mode:multiply" fill-rule="evenodd" clip-rule="evenodd" d="M28.24 30.2905C23.4102 40.4611 23.229 49.8684 23.229 49.8684L22.3735 49.6367L22.2012 46.9633C22.2012 46.9633 18.8863 48.1515 17.4753 49.4882C17.4753 49.4882 23.7607 53.0526 45.7624 54.6388C45.7624 54.6388 57.1747 55.2032 78.508 49.6367L78.71 43.8355C78.71 43.8355 78.8912 46.9604 75.4634 48.8555C74.6524 49.304 49.2051 55.922 30.9372 50.1327C24.2716 48.0208 28.24 30.2905 28.24 30.2905Z" fill="url(#paint72_linear_313_2852)"/>
<path fill-rule="evenodd" clip-rule="evenodd" d="M63.9765 20.6991C64.8201 25.0924 67.042 28.2528 68.2509 27.8073C69.4598 27.3617 69.8638 23.3517 68.2509 21.712C66.638 20.0724 63.6438 19.0179 63.9765 20.6991Z" fill="white"/>
<path style="mix-blend-mode:screen" d="M76.7804 27.0601C77.9049 20.1025 73.1762 13.5506 66.2185 12.4261C59.2609 11.3017 52.7091 16.0304 51.5846 22.988C50.4601 29.9457 55.1889 36.4975 62.1465 37.622C69.1041 38.7464 75.656 34.0177 76.7804 27.0601Z" fill="url(#paint73_radial_313_2852)"/>
<path fill-rule="evenodd" clip-rule="evenodd" d="M23.9472 51.6118C23.9472 51.6118 24.2442 55.0396 22.9818 60.3834L24.4878 60.7874C24.4878 60.7874 23.6709 55.1436 25.0641 51.8762L23.9472 51.6118Z" fill="url(#paint74_linear_313_2852)"/>
<path fill-rule="evenodd" clip-rule="evenodd" d="M49.2047 54.5942C49.2047 54.5942 49.9978 55.625 49.2047 63.446H50.7879C50.7879 63.446 49.9948 58.2567 50.4404 54.6388L49.2047 54.5942Z" fill="url(#paint75_linear_313_2852)"/>
<path fill-rule="evenodd" clip-rule="evenodd" d="M78.7096 50.8013C78.7096 50.8013 78.2432 55.9163 78.7096 60.1461L77.6046 60.464C77.6046 60.464 78.0769 55.5658 77.6046 51.0983L78.7096 50.8013Z" fill="url(#paint76_linear_313_2852)"/>
<path style="mix-blend-mode:screen" opacity="0.5" fill-rule="evenodd" clip-rule="evenodd" d="M50.4401 54.6387C51.1776 57.5168 51.2961 60.5186 50.7876 63.4459C50.7876 63.4459 50.1757 60.1458 50.3094 57.7398C50.443 55.3337 50.4401 54.6387 50.4401 54.6387Z" fill="url(#paint77_linear_313_2852)"/>
<path style="mix-blend-mode:screen" opacity="0.5" fill-rule="evenodd" clip-rule="evenodd" d="M25.0641 51.8735C25.0641 51.8735 24.8176 56.6677 24.4879 60.7847C24.4879 60.7847 24.0928 57.7935 24.277 55.943C24.4466 54.5702 24.7096 53.2106 25.0641 51.8735Z" fill="url(#paint78_linear_313_2852)"/>
<path style="mix-blend-mode:screen" opacity="0.5" fill-rule="evenodd" clip-rule="evenodd" d="M78.7097 50.8013C78.9749 52.4392 79.1386 54.0919 79.1999 55.7499C79.3484 58.8689 78.7097 60.1461 78.7097 60.1461C78.7097 60.1461 78.4395 57.1371 78.5078 54.9568C78.5761 52.7766 78.7097 50.8013 78.7097 50.8013Z" fill="url(#paint79_linear_313_2852)"/>
<path style="mix-blend-mode:screen" opacity="0.5" fill-rule="evenodd" clip-rule="evenodd" d="M64.6656 53.7296C66.9231 56.1683 66.5281 59.5813 66.5281 60.5615C66.5281 61.5417 64.9805 62.7269 64.9805 62.7269L72.7332 61.5892C72.7332 61.5892 71.7263 62.4447 71.2302 59.3763C70.7342 56.3079 70.8678 53.5603 72.7332 52.3335L64.6656 53.7296Z" fill="url(#paint80_linear_313_2852)"/>
<path fill-rule="evenodd" clip-rule="evenodd" d="M64.6656 53.7299C66.5429 52.3665 72.7332 52.3457 72.7332 52.3457C71.4442 52.8878 70.087 53.2506 68.6995 53.424C67.366 53.64 66.0165 53.7424 64.6656 53.7299Z" fill="white"/>
<defs>
<radialGradient id="paint0_radial_313_2852" cx="0" cy="0" r="1" gradientUnits="userSpaceOnUse" gradientTransform="translate(48.1622 161.238) scale(42.5628)">
<stop stop-color="#E65A29"/>
<stop offset="0.06" stop-color="#CB5024"/>
<stop offset="0.2" stop-color="#963B1B"/>
<stop offset="0.34" stop-color="#682913"/>
<stop offset="0.47" stop-color="#431A0C"/>
<stop offset="0.61" stop-color="#250F07"/>
<stop offset="0.74" stop-color="#110703"/>
<stop offset="0.87" stop-color="#040201"/>
<stop offset="1"/>
</radialGradient>
<linearGradient id="paint1_linear_313_2852" x1="48.34" y1="94.6529" x2="48.34" y2="177.337" gradientUnits="userSpaceOnUse">
<stop offset="0.01" stop-color="#F1E532"/>
<stop offset="0.06" stop-color="#F0DC31"/>
<stop offset="0.14" stop-color="#EFC230"/>
<stop offset="0.24" stop-color="#ED992D"/>
<stop offset="0.37" stop-color="#E96029"/>
<stop offset="0.38" stop-color="#E95A29"/>
<stop offset="0.46" stop-color="#D15125"/>
<stop offset="0.63" stop-color="#93391A"/>
<stop offset="0.88" stop-color="#311309"/>
<stop offset="1"/>
</linearGradient>
<linearGradient id="paint2_linear_313_2852" x1="50.7435" y1="160.896" x2="50.491" y2="174.651" gradientUnits="userSpaceOnUse">
<stop offset="0.01" stop-color="#E95A29"/>
<stop offset="0.15" stop-color="#E05627"/>
<stop offset="0.38" stop-color="#C64D23"/>
<stop offset="0.68" stop-color="#9D3D1C"/>
<stop offset="1" stop-color="#6A2913"/>
</linearGradient>
<linearGradient id="paint3_linear_313_2852" x1="45.8097" y1="125.839" x2="31.7805" y2="125.839" gradientUnits="userSpaceOnUse">
<stop offset="0.01" stop-color="#E95A29"/>
<stop offset="0.15" stop-color="#E05627"/>
<stop offset="0.38" stop-color="#C64D23"/>
<stop offset="0.68" stop-color="#9D3D1C"/>
<stop offset="1" stop-color="#6A2913"/>
</linearGradient>
<radialGradient id="paint4_radial_313_2852" cx="0" cy="0" r="1" gradientUnits="userSpaceOnUse" gradientTransform="translate(45.1619 197.222) scale(43.3958 6.38655)">
<stop offset="0.01" stop-color="#D23A22"/>
<stop offset="0.17" stop-color="#A22D1A"/>
<stop offset="0.38" stop-color="#691D11"/>
<stop offset="0.58" stop-color="#3C100A"/>
<stop offset="0.75" stop-color="#1B0704"/>
<stop offset="0.9" stop-color="#070201"/>
<stop offset="1"/>
</radialGradient>
<radialGradient id="paint5_radial_313_2852" cx="0" cy="0" r="1" gradientUnits="userSpaceOnUse" gradientTransform="translate(44.6344 194.614) scale(27.9754 4.11713)">
<stop offset="0.01" stop-color="#D23A22"/>
<stop offset="0.17" stop-color="#A22D1A"/>
<stop offset="0.38" stop-color="#691D11"/>
<stop offset="0.58" stop-color="#3C100A"/>
<stop offset="0.75" stop-color="#1B0704"/>
<stop offset="0.9" stop-color="#070201"/>
<stop offset="1"/>
</radialGradient>
<linearGradient id="paint6_linear_313_2852" x1="53.7673" y1="138.707" x2="53.5267" y2="151.943" gradientUnits="userSpaceOnUse">
<stop offset="0.01" stop-color="#E95A29"/>
<stop offset="0.15" stop-color="#E05627"/>
<stop offset="0.38" stop-color="#C64D23"/>
<stop offset="0.68" stop-color="#9D3D1C"/>
<stop offset="1" stop-color="#6A2913"/>
</linearGradient>
<linearGradient id="paint7_linear_313_2852" x1="59.3904" y1="114.801" x2="59.1973" y2="125.328" gradientUnits="userSpaceOnUse">
<stop offset="0.01" stop-color="#E95A29"/>
<stop offset="0.15" stop-color="#E05627"/>
<stop offset="0.38" stop-color="#C64D23"/>
<stop offset="0.68" stop-color="#9D3D1C"/>
<stop offset="1" stop-color="#6A2913"/>
</linearGradient>
<linearGradient id="paint8_linear_313_2852" x1="38.226" y1="115.651" x2="37.2784" y2="203.518" gradientUnits="userSpaceOnUse">
<stop offset="0.01" stop-color="#F1E532"/>
<stop offset="0.06" stop-color="#F0DC31"/>
<stop offset="0.14" stop-color="#EFC230"/>
<stop offset="0.24" stop-color="#ED992D"/>
<stop offset="0.37" stop-color="#E96029"/>
<stop offset="0.38" stop-color="#E95A29"/>
<stop offset="0.46" stop-color="#D15125"/>
<stop offset="0.63" stop-color="#93391A"/>
<stop offset="0.88" stop-color="#311309"/>
<stop offset="1"/>
</linearGradient>
<linearGradient id="paint9_linear_313_2852" x1="48.584" y1="115.763" x2="47.6364" y2="203.631" gradientUnits="userSpaceOnUse">
<stop offset="0.01" stop-color="#F1E532"/>
<stop offset="0.06" stop-color="#F0DC31"/>
<stop offset="0.14" stop-color="#EFC230"/>
<stop offset="0.24" stop-color="#ED992D"/>
<stop offset="0.37" stop-color="#E96029"/>
<stop offset="0.38" stop-color="#E95A29"/>
<stop offset="0.46" stop-color="#D15125"/>
<stop offset="0.63" stop-color="#93391A"/>
<stop offset="0.88" stop-color="#311309"/>
<stop offset="1"/>
</linearGradient>
<linearGradient id="paint10_linear_313_2852" x1="54.5071" y1="115.829" x2="53.5625" y2="203.708" gradientUnits="userSpaceOnUse">
<stop offset="0.01" stop-color="#F1E532"/>
<stop offset="0.06" stop-color="#F0DC31"/>
<stop offset="0.14" stop-color="#EFC230"/>
<stop offset="0.24" stop-color="#ED992D"/>
<stop offset="0.37" stop-color="#E96029"/>
<stop offset="0.38" stop-color="#E95A29"/>
<stop offset="0.46" stop-color="#D15125"/>
<stop offset="0.63" stop-color="#93391A"/>
<stop offset="0.88" stop-color="#311309"/>
<stop offset="1"/>
</linearGradient>
<linearGradient id="paint11_linear_313_2852" x1="60.5783" y1="115.395" x2="58.9684" y2="143.792" gradientUnits="userSpaceOnUse">
<stop offset="0.01" stop-color="#F1E532"/>
<stop offset="0.06" stop-color="#F0DC31"/>
<stop offset="0.14" stop-color="#EFC230"/>
<stop offset="0.24" stop-color="#ED992D"/>
<stop offset="0.37" stop-color="#E96029"/>
<stop offset="0.38" stop-color="#E95A29"/>
<stop offset="0.46" stop-color="#D15125"/>
<stop offset="0.63" stop-color="#93391A"/>
<stop offset="0.88" stop-color="#311309"/>
<stop offset="1"/>
</linearGradient>
<linearGradient id="paint12_linear_313_2852" x1="52.6237" y1="98.7761" x2="50.7494" y2="168.952" gradientUnits="userSpaceOnUse">
<stop offset="0.01" stop-color="#F1E532"/>
<stop offset="0.14" stop-color="#F0DC31"/>
<stop offset="0.36" stop-color="#EFC230"/>
<stop offset="0.64" stop-color="#ED992D"/>
<stop offset="0.97" stop-color="#E96029"/>
<stop offset="1" stop-color="#E95A29"/>
</linearGradient>
<linearGradient id="paint13_linear_313_2852" x1="39.6367" y1="93.542" x2="37.6495" y2="167.95" gradientUnits="userSpaceOnUse">
<stop offset="0.01" stop-color="#F1E532"/>
<stop offset="0.14" stop-color="#F0DC31"/>
<stop offset="0.36" stop-color="#EFC230"/>
<stop offset="0.64" stop-color="#ED992D"/>
<stop offset="0.97" stop-color="#E96029"/>
<stop offset="1" stop-color="#E95A29"/>
</linearGradient>
<linearGradient id="paint14_linear_313_2852" x1="56.2442" y1="94.0025" x2="54.2541" y2="168.426" gradientUnits="userSpaceOnUse">
<stop offset="0.01" stop-color="#F1E532"/>
<stop offset="0.14" stop-color="#F0DC31"/>
<stop offset="0.36" stop-color="#EFC230"/>
<stop offset="0.64" stop-color="#ED992D"/>
<stop offset="0.97" stop-color="#E96029"/>
<stop offset="1" stop-color="#E95A29"/>
</linearGradient>
<linearGradient id="paint15_linear_313_2852" x1="21.6779" y1="87.42" x2="21.6779" y2="195.673" gradientUnits="userSpaceOnUse">
<stop offset="0.01" stop-color="#F1E532"/>
<stop offset="0.06" stop-color="#F0DC31"/>
<stop offset="0.14" stop-color="#EFC230"/>
<stop offset="0.24" stop-color="#ED992D"/>
<stop offset="0.37" stop-color="#E96029"/>
<stop offset="0.38" stop-color="#E95A29"/>
<stop offset="0.46" stop-color="#D15125"/>
<stop offset="0.63" stop-color="#93391A"/>
<stop offset="0.88" stop-color="#311309"/>
<stop offset="1"/>
</linearGradient>
<linearGradient id="paint16_linear_313_2852" x1="70.5437" y1="87.4201" x2="70.5437" y2="195.673" gradientUnits="userSpaceOnUse">
<stop offset="0.01" stop-color="#F1E532"/>
<stop offset="0.06" stop-color="#F0DC31"/>
<stop offset="0.14" stop-color="#EFC230"/>
<stop offset="0.24" stop-color="#ED992D"/>
<stop offset="0.37" stop-color="#E96029"/>
<stop offset="0.38" stop-color="#E95A29"/>
<stop offset="0.46" stop-color="#D15125"/>
<stop offset="0.63" stop-color="#93391A"/>
<stop offset="0.88" stop-color="#311309"/>
<stop offset="1"/>
</linearGradient>
<linearGradient id="paint17_linear_313_2852" x1="27.883" y1="86.3923" x2="27.883" y2="194.648" gradientUnits="userSpaceOnUse">
<stop offset="0.01" stop-color="#F1E532"/>
<stop offset="0.06" stop-color="#F0DC31"/>
<stop offset="0.14" stop-color="#EFC230"/>
<stop offset="0.24" stop-color="#ED992D"/>
<stop offset="0.37" stop-color="#E96029"/>
<stop offset="0.38" stop-color="#E95A29"/>
<stop offset="0.46" stop-color="#D15125"/>
<stop offset="0.63" stop-color="#93391A"/>
<stop offset="0.88" stop-color="#311309"/>
<stop offset="1"/>
</linearGradient>
<linearGradient id="paint18_linear_313_2852" x1="21.3333" y1="148.147" x2="21.3333" y2="182.695" gradientUnits="userSpaceOnUse">
<stop offset="0.01" stop-color="#E95A29"/>
<stop offset="0.15" stop-color="#E05627"/>
<stop offset="0.38" stop-color="#C64D23"/>
<stop offset="0.68" stop-color="#9D3D1C"/>
<stop offset="1" stop-color="#6A2913"/>
</linearGradient>
<linearGradient id="paint19_linear_313_2852" x1="72.573" y1="143.78" x2="72.573" y2="183.185" gradientUnits="userSpaceOnUse">
<stop offset="0.01" stop-color="#E95A29"/>
<stop offset="0.15" stop-color="#E05627"/>
<stop offset="0.38" stop-color="#C64D23"/>
<stop offset="0.68" stop-color="#9D3D1C"/>
<stop offset="1" stop-color="#6A2913"/>
</linearGradient>
<linearGradient id="paint20_linear_313_2852" x1="27.5027" y1="147.309" x2="27.5027" y2="182.663" gradientUnits="userSpaceOnUse">
<stop offset="0.01" stop-color="#E95A29"/>
<stop offset="0.15" stop-color="#E05627"/>
<stop offset="0.38" stop-color="#C64D23"/>
<stop offset="0.68" stop-color="#9D3D1C"/>
<stop offset="1" stop-color="#6A2913"/>
</linearGradient>
<linearGradient id="paint21_linear_313_2852" x1="26.0444" y1="140.073" x2="26.0444" y2="188.377" gradientUnits="userSpaceOnUse">
<stop offset="0.01" stop-color="#F1E532"/>
<stop offset="0.06" stop-color="#F0DC31"/>
<stop offset="0.14" stop-color="#EFC230"/>
<stop offset="0.24" stop-color="#ED992D"/>
<stop offset="0.37" stop-color="#E96029"/>
<stop offset="0.38" stop-color="#E95A29"/>
<stop offset="0.46" stop-color="#D15125"/>
<stop offset="0.63" stop-color="#93391A"/>
<stop offset="0.88" stop-color="#311309"/>
<stop offset="1"/>
</linearGradient>
<linearGradient id="paint22_linear_313_2852" x1="72.4926" y1="140.073" x2="72.4926" y2="188.378" gradientUnits="userSpaceOnUse">
<stop offset="0.01" stop-color="#F1E532"/>
<stop offset="0.06" stop-color="#F0DC31"/>
<stop offset="0.14" stop-color="#EFC230"/>
<stop offset="0.24" stop-color="#ED992D"/>
<stop offset="0.37" stop-color="#E96029"/>
<stop offset="0.38" stop-color="#E95A29"/>
<stop offset="0.46" stop-color="#D15125"/>
<stop offset="0.63" stop-color="#93391A"/>
<stop offset="0.88" stop-color="#311309"/>
<stop offset="1"/>
</linearGradient>
<linearGradient id="paint23_linear_313_2852" x1="20.175" y1="140.073" x2="20.175" y2="188.378" gradientUnits="userSpaceOnUse">
<stop offset="0.01" stop-color="#F1E532"/>
<stop offset="0.06" stop-color="#F0DC31"/>
<stop offset="0.14" stop-color="#EFC230"/>
<stop offset="0.24" stop-color="#ED992D"/>
<stop offset="0.37" stop-color="#E96029"/>
<stop offset="0.38" stop-color="#E95A29"/>
<stop offset="0.46" stop-color="#D15125"/>
<stop offset="0.63" stop-color="#93391A"/>
<stop offset="0.88" stop-color="#311309"/>
<stop offset="1"/>
</linearGradient>
<linearGradient id="paint24_linear_313_2852" x1="23.4245" y1="146.831" x2="23.4245" y2="205.992" gradientUnits="userSpaceOnUse">
<stop offset="0.01" stop-color="#F1E532"/>
<stop offset="0.14" stop-color="#F0DC31"/>
<stop offset="0.36" stop-color="#EFC230"/>
<stop offset="0.64" stop-color="#ED992D"/>
<stop offset="0.97" stop-color="#E96029"/>
<stop offset="1" stop-color="#E95A29"/>
</linearGradient>
<linearGradient id="paint25_linear_313_2852" x1="27.2714" y1="146.831" x2="27.2714" y2="205.992" gradientUnits="userSpaceOnUse">
<stop offset="0.01" stop-color="#F1E532"/>
<stop offset="0.14" stop-color="#F0DC31"/>
<stop offset="0.36" stop-color="#EFC230"/>
<stop offset="0.64" stop-color="#ED992D"/>
<stop offset="0.97" stop-color="#E96029"/>
<stop offset="1" stop-color="#E95A29"/>
</linearGradient>
<linearGradient id="paint26_linear_313_2852" x1="69.6022" y1="149.689" x2="69.6022" y2="205.074" gradientUnits="userSpaceOnUse">
<stop offset="0.01" stop-color="#F1E532"/>
<stop offset="0.14" stop-color="#F0DC31"/>
<stop offset="0.36" stop-color="#EFC230"/>
<stop offset="0.64" stop-color="#ED992D"/>
<stop offset="0.97" stop-color="#E96029"/>
<stop offset="1" stop-color="#E95A29"/>
</linearGradient>
<radialGradient id="paint27_radial_313_2852" cx="0" cy="0" r="1" gradientUnits="userSpaceOnUse" gradientTransform="translate(44.7579 137.631) scale(8.09135 8.09135)">
<stop stop-color="#DD5634"/>
<stop offset="0.08" stop-color="#C54D2E"/>
<stop offset="0.33" stop-color="#80321E"/>
<stop offset="0.56" stop-color="#491C11"/>
<stop offset="0.75" stop-color="#210D08"/>
<stop offset="0.91" stop-color="#090302"/>
<stop offset="1"/>
</radialGradient>
<radialGradient id="paint28_radial_313_2852" cx="0" cy="0" r="1" gradientUnits="userSpaceOnUse" gradientTransform="translate(36.6924 187.511) scale(21.7284 21.7284)">
<stop stop-color="#DD5634"/>
<stop offset="0.08" stop-color="#C54D2E"/>
<stop offset="0.33" stop-color="#80321E"/>
<stop offset="0.56" stop-color="#491C11"/>
<stop offset="0.75" stop-color="#210D08"/>
<stop offset="0.91" stop-color="#090302"/>
<stop offset="1"/>
</radialGradient>
<radialGradient id="paint29_radial_313_2852" cx="0" cy="0" r="1" gradientUnits="userSpaceOnUse" gradientTransform="translate(48.9996 98.0095) scale(19.6135)">
<stop stop-color="#E65A29"/>
<stop offset="0.15" stop-color="#C04B22"/>
<stop offset="0.57" stop-color="#5A2310"/>
<stop offset="0.86" stop-color="#190A04"/>
<stop offset="1"/>
</radialGradient>
<radialGradient id="paint30_radial_313_2852" cx="0" cy="0" r="1" gradientUnits="userSpaceOnUse" gradientTransform="translate(54.4565 186.94) scale(17.5431)">
<stop stop-color="#DD5634"/>
<stop offset="0.08" stop-color="#C54D2E"/>
<stop offset="0.33" stop-color="#80321E"/>
<stop offset="0.56" stop-color="#491C11"/>
<stop offset="0.75" stop-color="#210D08"/>
<stop offset="0.91" stop-color="#090302"/>
<stop offset="1"/>
</radialGradient>
<radialGradient id="paint31_radial_313_2852" cx="0" cy="0" r="1" gradientUnits="userSpaceOnUse" gradientTransform="translate(35.1251 131.135) scale(15.8352 15.8352)">
<stop stop-color="#DD5634"/>
<stop offset="0.08" stop-color="#C54D2E"/>
<stop offset="0.33" stop-color="#80321E"/>
<stop offset="0.56" stop-color="#491C11"/>
<stop offset="0.75" stop-color="#210D08"/>
<stop offset="0.91" stop-color="#090302"/>
<stop offset="1"/>
</radialGradient>
<radialGradient id="paint32_radial_313_2852" cx="0" cy="0" r="1" gradientUnits="userSpaceOnUse" gradientTransform="translate(12.4994 60.5624) scale(22.0315 27.1156)">
<stop stop-color="#B0B4BC"/>
<stop offset="0.14" stop-color="#AAADBC"/>
<stop offset="0.34" stop-color="#9A9ABE"/>
<stop offset="0.57" stop-color="#807BBF"/>
<stop offset="0.75" stop-color="#685EC1"/>
<stop offset="0.97" stop-color="#7A75D7"/>
</radialGradient>
<linearGradient id="paint33_linear_313_2852" x1="21.2831" y1="80.1605" x2="40.0114" y2="80.1605" gradientUnits="userSpaceOnUse">
<stop stop-color="#B2A5DA"/>
<stop offset="0.41" stop-color="#A585BD"/>
<stop offset="0.76" stop-color="#9C71AA"/>
<stop offset="1" stop-color="#9969A3"/>
</linearGradient>
<linearGradient id="paint34_linear_313_2852" x1="13.3787" y1="79.5873" x2="32.2586" y2="79.5873" gradientUnits="userSpaceOnUse">
<stop stop-color="#E7E3F4"/>
<stop offset="0.07" stop-color="#DFD6EC"/>
<stop offset="0.37" stop-color="#C1A7CD"/>
<stop offset="0.64" stop-color="#AC85B7"/>
<stop offset="0.86" stop-color="#9F71A9"/>
<stop offset="1" stop-color="#9A69A4"/>
</linearGradient>
<radialGradient id="paint35_radial_313_2852" cx="0" cy="0" r="1" gradientUnits="userSpaceOnUse" gradientTransform="translate(80.638 60.5624) rotate(180) scale(22.0315 27.1156)">
<stop stop-color="#B0B4BC"/>
<stop offset="0.14" stop-color="#AAADBC"/>
<stop offset="0.34" stop-color="#9A9ABE"/>
<stop offset="0.57" stop-color="#807BBF"/>
<stop offset="0.75" stop-color="#685EC1"/>
<stop offset="0.97" stop-color="#7A75D7"/>
</radialGradient>
<linearGradient id="paint36_linear_313_2852" x1="77.6044" y1="80.1605" x2="58.8761" y2="80.1605" gradientUnits="userSpaceOnUse">
<stop stop-color="#B2A5DA"/>
<stop offset="0.41" stop-color="#A585BD"/>
<stop offset="0.76" stop-color="#9C71AA"/>
<stop offset="1" stop-color="#9969A3"/>
</linearGradient>
<linearGradient id="paint37_linear_313_2852" x1="85.509" y1="79.5873" x2="66.6292" y2="79.5873" gradientUnits="userSpaceOnUse">
<stop stop-color="#E7E3F4"/>
<stop offset="0.07" stop-color="#DFD6EC"/>
<stop offset="0.37" stop-color="#C1A7CD"/>
<stop offset="0.64" stop-color="#AC85B7"/>
<stop offset="0.86" stop-color="#9F71A9"/>
<stop offset="1" stop-color="#9A69A4"/>
</linearGradient>
<radialGradient id="paint38_radial_313_2852" cx="0" cy="0" r="1" gradientUnits="userSpaceOnUse" gradientTransform="translate(51.1199 64.2895) scale(23.9313 29.4539)">
<stop stop-color="#B0B4BC"/>
<stop offset="0.14" stop-color="#AAADBC"/>
<stop offset="0.34" stop-color="#9A9ABE"/>
<stop offset="0.57" stop-color="#807BBF"/>
<stop offset="0.75" stop-color="#685EC1"/>
<stop offset="0.97" stop-color="#7A75D7"/>
</radialGradient>
<linearGradient id="paint39_linear_313_2852" x1="53.5385" y1="71.1216" x2="41.4075" y2="107.155" gradientUnits="userSpaceOnUse">
<stop stop-color="#B2A5DA"/>
<stop offset="0.41" stop-color="#A585BD"/>
<stop offset="0.76" stop-color="#9C71AA"/>
<stop offset="1" stop-color="#9969A3"/>
</linearGradient>
<linearGradient id="paint40_linear_313_2852" x1="50.0542" y1="63.6987" x2="50.0542" y2="70.8247" gradientUnits="userSpaceOnUse">
<stop stop-color="#9969A3"/>
<stop offset="0.13" stop-color="#A175AA"/>
<stop offset="0.38" stop-color="#B795BE"/>
<stop offset="0.69" stop-color="#D9C8DD"/>
<stop offset="1" stop-color="white"/>
</linearGradient>
<linearGradient id="paint41_linear_313_2852" x1="42.159" y1="84.4558" x2="60.0021" y2="84.4558" gradientUnits="userSpaceOnUse">
<stop stop-color="#7A69A3"/>
<stop offset="0.13" stop-color="#8575AA"/>
<stop offset="0.38" stop-color="#A195BE"/>
<stop offset="0.69" stop-color="#CEC8DD"/>
<stop offset="1" stop-color="white"/>
</linearGradient>
<radialGradient id="paint42_radial_313_2852" cx="0" cy="0" r="1" gradientUnits="userSpaceOnUse" gradientTransform="translate(64.104 81.7378) scale(49.6382 49.6382)">
<stop offset="0.01" stop-color="#DD5438"/>
<stop offset="0.21" stop-color="#DA5139"/>
<stop offset="0.38" stop-color="#D0483D"/>
<stop offset="0.52" stop-color="#C03842"/>
<stop offset="0.66" stop-color="#A8224B"/>
<stop offset="0.79" stop-color="#8B0555"/>
<stop offset="0.81" stop-color="#850057"/>
<stop offset="1" stop-color="#B83145"/>
</radialGradient>
<radialGradient id="paint43_radial_313_2852" cx="0" cy="0" r="1" gradientUnits="userSpaceOnUse" gradientTransform="translate(62.8715 27.932) scale(38.6537 38.6537)">
<stop stop-color="#FFD5BD"/>
<stop offset="0.1" stop-color="#F8D0BF"/>
<stop offset="0.25" stop-color="#E5C2C6"/>
<stop offset="0.43" stop-color="#C5ABD2"/>
<stop offset="0.63" stop-color="#9A8CE1"/>
<stop offset="0.75" stop-color="#7A75ED"/>
<stop offset="0.97" stop-color="#7A82ED"/>
</radialGradient>
<linearGradient id="paint44_linear_313_2852" x1="44.5502" y1="14.7105" x2="56.3961" y2="14.7105" gradientUnits="userSpaceOnUse">
<stop stop-color="#590043"/>
<stop offset="0.06" stop-color="#5B0044"/>
<stop offset="0.47" stop-color="#650046"/>
<stop offset="0.99" stop-color="#680047"/>
</linearGradient>
<radialGradient id="paint45_radial_313_2852" cx="0" cy="0" r="1" gradientUnits="userSpaceOnUse" gradientTransform="translate(51.6961 29.2102) rotate(-179.916) scale(26.0734 26.0734)">
<stop offset="0.03" stop-color="#6A64B7"/>
<stop offset="0.94" stop-color="#5A4FBB"/>
</radialGradient>
<radialGradient id="paint46_radial_313_2852" cx="0" cy="0" r="1" gradientUnits="userSpaceOnUse" gradientTransform="translate(54.2249 28.9897) rotate(180) scale(26.5226 26.5226)">
<stop stop-color="#B0B4BC"/>
<stop offset="0.14" stop-color="#AAADBC"/>
<stop offset="0.34" stop-color="#9A9ABE"/>
<stop offset="0.57" stop-color="#807BBF"/>
<stop offset="0.75" stop-color="#685EC1"/>
<stop offset="0.97" stop-color="#7A75D7"/>
</radialGradient>
<radialGradient id="paint47_radial_313_2852" cx="0" cy="0" r="1" gradientUnits="userSpaceOnUse" gradientTransform="translate(49.4925 48.6357) rotate(180) scale(19.7531 19.7531)">
<stop offset="0.03" stop-color="#8D37E1"/>
<stop offset="0.94" stop-color="#3F32B3"/>
</radialGradient>
<radialGradient id="paint48_radial_313_2852" cx="0" cy="0" r="1" gradientUnits="userSpaceOnUse" gradientTransform="translate(47.203 31.8879) rotate(-180) scale(16.3533)">
<stop offset="0.01" stop-color="#FFCC00"/>
<stop offset="0.22" stop-color="#FEC902"/>
<stop offset="0.41" stop-color="#FCBE08"/>
<stop offset="0.58" stop-color="#F8AD13"/>
<stop offset="0.75" stop-color="#F29422"/>
<stop offset="0.91" stop-color="#EA7435"/>
<stop offset="1" stop-color="#E55E42"/>
</radialGradient>
<linearGradient id="paint49_linear_313_2852" x1="50.4165" y1="36.5907" x2="50.4165" y2="21.5873" gradientUnits="userSpaceOnUse">
<stop stop-color="#9969A3"/>
<stop offset="0.13" stop-color="#A175AA"/>
<stop offset="0.38" stop-color="#B795BE"/>
<stop offset="0.69" stop-color="#D9C8DD"/>
<stop offset="1" stop-color="white"/>
</linearGradient>
<linearGradient id="paint50_linear_313_2852" x1="45.168" y1="51.3951" x2="54.3762" y2="25.7784" gradientUnits="userSpaceOnUse">
<stop stop-color="#9969A3"/>
<stop offset="0.13" stop-color="#A175AA"/>
<stop offset="0.38" stop-color="#B795BE"/>
<stop offset="0.69" stop-color="#D9C8DD"/>
<stop offset="1" stop-color="white"/>
</linearGradient>
<linearGradient id="paint51_linear_313_2852" x1="65.1021" y1="26.2151" x2="54.2067" y2="26.2151" gradientUnits="userSpaceOnUse">
<stop stop-color="white"/>
<stop offset="1" stop-color="#623964"/>
</linearGradient>
<radialGradient id="paint52_radial_313_2852" cx="0" cy="0" r="1" gradientUnits="userSpaceOnUse" gradientTransform="translate(50.3751 10.4365) scale(5.01699 5.01699)">
<stop offset="0.01" stop-color="#FFCC00"/>
<stop offset="0.22" stop-color="#FEC902"/>
<stop offset="0.41" stop-color="#FCBE08"/>
<stop offset="0.58" stop-color="#F8AD13"/>
<stop offset="0.75" stop-color="#F29422"/>
<stop offset="0.91" stop-color="#EA7435"/>
<stop offset="1" stop-color="#E55E42"/>
</radialGradient>
<radialGradient id="paint53_radial_313_2852" cx="0" cy="0" r="1" gradientUnits="userSpaceOnUse" gradientTransform="translate(50.3451 9.6305) scale(9.60922 9.60921)">
<stop stop-color="#FF2A00"/>
<stop offset="0.17" stop-color="#C52000"/>
<stop offset="0.4" stop-color="#801500"/>
<stop offset="0.6" stop-color="#490C00"/>
<stop offset="0.78" stop-color="#210500"/>
<stop offset="0.92" stop-color="#090100"/>
<stop offset="1"/>
</radialGradient>
<radialGradient id="paint54_radial_313_2852" cx="0" cy="0" r="1" gradientUnits="userSpaceOnUse" gradientTransform="translate(82.6903 48.0297) scale(76.948 76.948)">
<stop offset="0.01" stop-color="#DD5438"/>
<stop offset="0.21" stop-color="#DA5139"/>
<stop offset="0.38" stop-color="#D0483D"/>
<stop offset="0.52" stop-color="#C03842"/>
<stop offset="0.66" stop-color="#A8224B"/>
<stop offset="0.79" stop-color="#8B0555"/>
<stop offset="0.81" stop-color="#850057"/>
<stop offset="1" stop-color="#B83145"/>
</radialGradient>
<linearGradient id="paint55_linear_313_2852" x1="49.2047" y1="20.9069" x2="51.2305" y2="20.9069" gradientUnits="userSpaceOnUse">
<stop stop-color="#B2A5DA"/>
<stop offset="0.41" stop-color="#A585BD"/>
<stop offset="0.76" stop-color="#9C71AA"/>
<stop offset="1" stop-color="#9969A3"/>
</linearGradient>
<linearGradient id="paint56_linear_313_2852" x1="49.5222" y1="20.907" x2="51.1322" y2="20.907" gradientUnits="userSpaceOnUse">
<stop stop-color="#5B58A2"/>
<stop offset="0.44" stop-color="#5F59A2"/>
<stop offset="0.85" stop-color="#6A5CA1"/>
<stop offset="0.99" stop-color="#705EA1"/>
</linearGradient>
<linearGradient id="paint57_linear_313_2852" x1="35.9391" y1="34.2707" x2="37.9649" y2="34.2707" gradientUnits="userSpaceOnUse">
<stop stop-color="#B2A5DA"/>
<stop offset="0.41" stop-color="#A585BD"/>
<stop offset="0.76" stop-color="#9C71AA"/>
<stop offset="1" stop-color="#9969A3"/>
</linearGradient>
<linearGradient id="paint58_linear_313_2852" x1="36.2566" y1="34.2708" x2="37.8665" y2="34.2708" gradientUnits="userSpaceOnUse">
<stop stop-color="#5B58A2"/>
<stop offset="0.44" stop-color="#5F59A2"/>
<stop offset="0.85" stop-color="#6A5CA1"/>
<stop offset="0.99" stop-color="#705EA1"/>
</linearGradient>
<linearGradient id="paint59_linear_313_2852" x1="62.9516" y1="34.2707" x2="64.9804" y2="34.2707" gradientUnits="userSpaceOnUse">
<stop stop-color="#B2A5DA"/>
<stop offset="0.41" stop-color="#A585BD"/>
<stop offset="0.76" stop-color="#9C71AA"/>
<stop offset="1" stop-color="#9969A3"/>
</linearGradient>
<linearGradient id="paint60_linear_313_2852" x1="63.2724" y1="34.2708" x2="64.8794" y2="34.2708" gradientUnits="userSpaceOnUse">
<stop stop-color="#5B58A2"/>
<stop offset="0.44" stop-color="#5F59A2"/>
<stop offset="0.85" stop-color="#6A5CA1"/>
<stop offset="0.99" stop-color="#705EA1"/>
</linearGradient>
<linearGradient id="paint61_linear_313_2852" x1="59.6545" y1="43.6276" x2="61.6804" y2="43.6276" gradientUnits="userSpaceOnUse">
<stop stop-color="#B2A5DA"/>
<stop offset="0.41" stop-color="#A585BD"/>
<stop offset="0.76" stop-color="#9C71AA"/>
<stop offset="1" stop-color="#9969A3"/>
</linearGradient>
<linearGradient id="paint62_linear_313_2852" x1="59.972" y1="43.6277" x2="61.582" y2="43.6277" gradientUnits="userSpaceOnUse">
<stop stop-color="#5B58A2"/>
<stop offset="0.44" stop-color="#5F59A2"/>
<stop offset="0.85" stop-color="#6A5CA1"/>
<stop offset="0.99" stop-color="#705EA1"/>
</linearGradient>
<linearGradient id="paint63_linear_313_2852" x1="38.3152" y1="42.8225" x2="40.344" y2="42.8225" gradientUnits="userSpaceOnUse">
<stop stop-color="#B2A5DA"/>
<stop offset="0.41" stop-color="#A585BD"/>
<stop offset="0.76" stop-color="#9C71AA"/>
<stop offset="1" stop-color="#9969A3"/>
</linearGradient>
<linearGradient id="paint64_linear_313_2852" x1="38.6332" y1="42.8226" x2="40.2431" y2="42.8226" gradientUnits="userSpaceOnUse">
<stop stop-color="#5B58A2"/>
<stop offset="0.44" stop-color="#5F59A2"/>
<stop offset="0.85" stop-color="#6A5CA1"/>
<stop offset="0.99" stop-color="#705EA1"/>
</linearGradient>
<linearGradient id="paint65_linear_313_2852" x1="40.2428" y1="24.6616" x2="42.2686" y2="24.6616" gradientUnits="userSpaceOnUse">
<stop stop-color="#B2A5DA"/>
<stop offset="0.41" stop-color="#A585BD"/>
<stop offset="0.76" stop-color="#9C71AA"/>
<stop offset="1" stop-color="#9969A3"/>
</linearGradient>
<linearGradient id="paint66_linear_313_2852" x1="40.5607" y1="24.6618" x2="42.1706" y2="24.6618" gradientUnits="userSpaceOnUse">
<stop stop-color="#5B58A2"/>
<stop offset="0.44" stop-color="#5F59A2"/>
<stop offset="0.85" stop-color="#6A5CA1"/>
<stop offset="0.99" stop-color="#705EA1"/>
</linearGradient>
<linearGradient id="paint67_linear_313_2852" x1="59.2654" y1="25.5705" x2="61.2912" y2="25.5705" gradientUnits="userSpaceOnUse">
<stop stop-color="#B2A5DA"/>
<stop offset="0.41" stop-color="#A585BD"/>
<stop offset="0.76" stop-color="#9C71AA"/>
<stop offset="1" stop-color="#9969A3"/>
</linearGradient>
<linearGradient id="paint68_linear_313_2852" x1="59.5834" y1="25.5706" x2="61.1904" y2="25.5706" gradientUnits="userSpaceOnUse">
<stop stop-color="#5B58A2"/>
<stop offset="0.44" stop-color="#5F59A2"/>
<stop offset="0.85" stop-color="#6A5CA1"/>
<stop offset="0.99" stop-color="#705EA1"/>
</linearGradient>
<linearGradient id="paint69_linear_313_2852" x1="49.2047" y1="48.8557" x2="51.2305" y2="48.8557" gradientUnits="userSpaceOnUse">
<stop stop-color="#B2A5DA"/>
<stop offset="0.41" stop-color="#A585BD"/>
<stop offset="0.76" stop-color="#9C71AA"/>
<stop offset="1" stop-color="#9969A3"/>
</linearGradient>
<linearGradient id="paint70_linear_313_2852" x1="49.5222" y1="48.8553" x2="51.1322" y2="48.8553" gradientUnits="userSpaceOnUse">
<stop stop-color="#5B58A2"/>
<stop offset="0.44" stop-color="#5F59A2"/>
<stop offset="0.85" stop-color="#6A5CA1"/>
<stop offset="0.99" stop-color="#705EA1"/>
</linearGradient>
<linearGradient id="paint71_linear_313_2852" x1="22.2515" y1="31.5648" x2="41.2561" y2="31.5648" gradientUnits="userSpaceOnUse">
<stop stop-color="white"/>
<stop offset="1" stop-color="#623964"/>
</linearGradient>
<linearGradient id="paint72_linear_313_2852" x1="48.0912" y1="34.9362" x2="48.0912" y2="54.6774" gradientUnits="userSpaceOnUse">
<stop stop-color="#E7E3F4"/>
<stop offset="0.07" stop-color="#DFD6EC"/>
<stop offset="0.37" stop-color="#C1A7CD"/>
<stop offset="0.64" stop-color="#AC85B7"/>
<stop offset="0.86" stop-color="#9F71A9"/>
<stop offset="1" stop-color="#9A69A4"/>
</linearGradient>
<radialGradient id="paint73_radial_313_2852" cx="0" cy="0" r="1" gradientUnits="userSpaceOnUse" gradientTransform="translate(64.1835 25.0066) rotate(-0.0394622) scale(12.7614 12.7614)">
<stop offset="0.01" stop-color="#F4FF09"/>
<stop offset="0.07" stop-color="#DFE908"/>
<stop offset="0.27" stop-color="#9CA306"/>
<stop offset="0.46" stop-color="#646904"/>
<stop offset="0.63" stop-color="#393C02"/>
<stop offset="0.78" stop-color="#1A1B01"/>
<stop offset="0.91" stop-color="#070700"/>
<stop offset="1"/>
</radialGradient>
<linearGradient id="paint74_linear_313_2852" x1="23.4244" y1="56.1981" x2="27.0958" y2="56.1981" gradientUnits="userSpaceOnUse">
<stop stop-color="#590043"/>
<stop offset="0.06" stop-color="#5B0044"/>
<stop offset="0.47" stop-color="#650046"/>
<stop offset="0.99" stop-color="#680047"/>
</linearGradient>
<linearGradient id="paint75_linear_313_2852" x1="49.5433" y1="59.0201" x2="52.3295" y2="59.0201" gradientUnits="userSpaceOnUse">
<stop stop-color="#590043"/>
<stop offset="0.06" stop-color="#5B0044"/>
<stop offset="0.47" stop-color="#650046"/>
<stop offset="0.99" stop-color="#680047"/>
</linearGradient>
<linearGradient id="paint76_linear_313_2852" x1="77.8393" y1="55.6341" x2="79.7878" y2="55.6341" gradientUnits="userSpaceOnUse">
<stop stop-color="#590043"/>
<stop offset="0.06" stop-color="#5B0044"/>
<stop offset="0.47" stop-color="#650046"/>
<stop offset="0.99" stop-color="#680047"/>
</linearGradient>
<linearGradient id="paint77_linear_313_2852" x1="55.27" y1="59.0438" x2="46.5726" y2="59.0438" gradientUnits="userSpaceOnUse">
<stop stop-color="white"/>
<stop offset="1" stop-color="#660F0F"/>
</linearGradient>
<linearGradient id="paint78_linear_313_2852" x1="29.4811" y1="56.3291" x2="20.3085" y2="56.3291" gradientUnits="userSpaceOnUse">
<stop stop-color="white"/>
<stop offset="1" stop-color="#660F0F"/>
</linearGradient>
<linearGradient id="paint79_linear_313_2852" x1="83.0554" y1="55.4737" x2="75.0949" y2="55.4737" gradientUnits="userSpaceOnUse">
<stop stop-color="white"/>
<stop offset="1" stop-color="#660F0F"/>
</linearGradient>
<linearGradient id="paint80_linear_313_2852" x1="115.35" y1="57.5406" x2="26.8317" y2="57.5406" gradientUnits="userSpaceOnUse">
<stop stop-color="white"/>
<stop offset="1" stop-color="#660F0F"/>
</linearGradient>
</defs>
</svg>
