<svg width="63" height="44" viewBox="0 0 63 44" fill="none" xmlns="http://www.w3.org/2000/svg">
<path d="M62.6392 16.4541L38.8106 0.147447C38.6851 0.0615442 38.5381 0.0111178 38.3855 0.00163712C38.2329 -0.00784359 38.0806 0.0239861 37.9451 0.0936705C37.8096 0.163355 37.6961 0.268233 37.6169 0.39692C37.5377 0.525608 37.4958 0.673188 37.4958 0.823645V7.44369C37.4956 7.66053 37.4086 7.86857 37.2537 8.02274C37.0988 8.17692 36.8883 8.26481 36.668 8.26737C6.41304 8.70495 0.969974 33.1343 0.00435991 43.0963C-0.081174 43.9798 1.11489 44.352 1.56448 43.5833C5.07278 37.5762 14.5897 26.2867 36.6489 26.0043C36.7598 26.0029 36.8699 26.0232 36.9727 26.064C37.0756 26.1048 37.1692 26.1653 37.2481 26.242C37.327 26.3187 37.3897 26.4101 37.4324 26.5108C37.4752 26.6115 37.4972 26.7195 37.4972 26.8287V33.4376C37.4971 33.5881 37.5389 33.7358 37.618 33.8646C37.6972 33.9933 37.8107 34.0983 37.9462 34.1681C38.0817 34.2379 38.2341 34.2698 38.3867 34.2603C38.5394 34.2509 38.6865 34.2004 38.812 34.1145L62.6406 17.8079C62.7517 17.7319 62.8424 17.6307 62.9049 17.5127C62.9675 17.3948 63.0001 17.2637 63 17.1306C62.9999 16.9975 62.967 16.8665 62.9041 16.7487C62.8413 16.6309 62.7504 16.5298 62.6392 16.4541Z" fill="white" fill-opacity="0.9"/>
</svg>
