<svg width="283" height="244" viewBox="0 0 283 244" fill="none" xmlns="http://www.w3.org/2000/svg">
<mask id="mask0_186_89" style="mask-type:luminance" maskUnits="userSpaceOnUse" x="0" y="0" width="283" height="244">
<path d="M67.343 11.6509L141.221 0L215.095 11.6509L276.951 68.3629C280.18 71.3244 282.136 75.4218 282.408 79.7946C282.68 84.1674 281.246 88.4753 278.408 91.8136L154.13 238.032C152.54 239.902 150.562 241.405 148.333 242.436C146.104 243.466 143.678 244 141.222 244C138.766 244 136.34 243.466 134.111 242.436C131.883 241.405 129.904 239.902 128.314 238.032L4.0282 91.8241C1.1914 88.4845 -0.240548 84.1758 0.033081 79.803C0.30671 75.4301 2.26463 71.3335 5.49561 68.3734L67.343 11.6509Z" fill="white"/>
</mask>
<g mask="url(#mask0_186_89)">
<path d="M221.83 79.3853L141.221 253.206L60.6118 79.3853H221.83Z" fill="url(#paint0_linear_186_89)"/>
<path d="M141.221 253.206L221.83 79.3853H288.979L141.221 253.206Z" fill="url(#paint1_radial_186_89)"/>
<path d="M141.221 253.206L60.6117 79.3853H-6.53516L141.221 253.206Z" fill="url(#paint2_radial_186_89)"/>
<path d="M221.83 79.3851H60.6118L141.221 0L221.83 79.3851Z" fill="url(#paint3_linear_186_89)"/>
<path d="M-6.53516 79.3851L67.343 11.6509L60.6117 79.3851H-6.53516Z" fill="url(#paint4_linear_186_89)"/>
<path d="M288.979 79.3851L215.101 11.6509L221.83 79.3851H288.979Z" fill="url(#paint5_linear_186_89)"/>
<path d="M141.221 0L60.6118 79.3851L67.3431 11.6509L141.221 0Z" fill="url(#paint6_linear_186_89)"/>
<path d="M141.221 0L221.83 79.3851L215.101 11.6509L141.221 0Z" fill="url(#paint7_linear_186_89)"/>
</g>
<defs>
<linearGradient id="paint0_linear_186_89" x1="141.221" y1="219.18" x2="141.221" y2="94.1443" gradientUnits="userSpaceOnUse">
<stop stop-color="#F4F5F8"/>
<stop offset="1" stop-color="#B2B6C6"/>
</linearGradient>
<radialGradient id="paint1_radial_186_89" cx="0" cy="0" r="1" gradientUnits="userSpaceOnUse" gradientTransform="translate(152.566 92.1072) rotate(180) scale(144.199 144.168)">
<stop stop-color="#535A6A"/>
<stop offset="0.75" stop-color="#B2B7C7"/>
<stop offset="1" stop-color="#B5BACB"/>
</radialGradient>
<radialGradient id="paint2_radial_186_89" cx="0" cy="0" r="1" gradientUnits="userSpaceOnUse" gradientTransform="translate(129.878 92.1072) scale(144.199 144.168)">
<stop stop-color="#535A6A"/>
<stop offset="0.75" stop-color="#B2B7C7"/>
<stop offset="1" stop-color="#B5BACB"/>
</radialGradient>
<linearGradient id="paint3_linear_186_89" x1="141.221" y1="3.25069" x2="141.221" y2="124.809" gradientUnits="userSpaceOnUse">
<stop stop-color="#FDFDFF"/>
<stop offset="0.22" stop-color="#F9F9FC"/>
<stop offset="0.44" stop-color="#EEEFF3"/>
<stop offset="0.65" stop-color="#DADDE5"/>
<stop offset="0.85" stop-color="#BFC4D0"/>
<stop offset="1" stop-color="#A7ADBE"/>
</linearGradient>
<linearGradient id="paint4_linear_186_89" x1="27.4146" y1="78.0458" x2="37.5043" y2="42.0524" gradientUnits="userSpaceOnUse">
<stop stop-color="#BDC0CE"/>
<stop offset="1" stop-color="#EEEFF4"/>
</linearGradient>
<linearGradient id="paint5_linear_186_89" x1="255.032" y1="78.0458" x2="244.942" y2="42.0524" gradientUnits="userSpaceOnUse">
<stop stop-color="#BDC0CE"/>
<stop offset="1" stop-color="#EEEFF4"/>
</linearGradient>
<linearGradient id="paint6_linear_186_89" x1="142.395" y1="30.0023" x2="18.4906" y2="54.5297" gradientUnits="userSpaceOnUse">
<stop stop-color="#C2C4D1"/>
<stop offset="0.19" stop-color="#D5D7E0"/>
<stop offset="0.43" stop-color="#E7E8EE"/>
<stop offset="0.7" stop-color="#F2F3F6"/>
<stop offset="1" stop-color="#F5F6F9"/>
</linearGradient>
<linearGradient id="paint7_linear_186_89" x1="140.049" y1="30.0023" x2="263.953" y2="54.5297" gradientUnits="userSpaceOnUse">
<stop stop-color="#C2C4D1"/>
<stop offset="0.19" stop-color="#D5D7E0"/>
<stop offset="0.43" stop-color="#E7E8EE"/>
<stop offset="0.7" stop-color="#F2F3F6"/>
<stop offset="1" stop-color="#F5F6F9"/>
</linearGradient>
</defs>
</svg>
