<svg width="108" height="99" viewBox="0 0 108 99" fill="none" xmlns="http://www.w3.org/2000/svg">
<path d="M68.7174 58.4554C63.8883 48.7968 63.7447 39.514 64.4744 33.4272C65.2682 26.8079 67.2377 22.4228 67.257 22.378C67.3098 22.2625 67.3327 22.1356 67.3237 22.009C67.3147 21.8823 67.274 21.76 67.2054 21.6531C67.1368 21.5463 67.0424 21.4584 66.931 21.3975C66.8195 21.3366 66.6946 21.3047 66.5676 21.3047H13.9261C13.7852 21.3047 13.6472 21.344 13.5274 21.4181C13.4076 21.4922 13.3108 21.5982 13.2479 21.7243C11.2234 25.7727 9.96417 30.2606 9.50438 35.0647C9.13828 38.8953 9.27729 42.9321 9.91733 47.0646C11.007 54.0913 13.144 58.9035 13.2346 59.1046C13.2947 59.2377 13.3919 59.3505 13.5146 59.4296C13.6372 59.5087 13.7801 59.5508 13.9261 59.5507H48.6633C48.7658 59.6021 48.8787 59.6295 48.9934 59.6308C49.1081 59.6322 49.2216 59.6074 49.3253 59.5583L49.3395 59.5507H68.0381C68.1674 59.5507 68.2945 59.5177 68.4074 59.4548C68.5203 59.3919 68.6152 59.3011 68.6832 59.1912C68.7511 59.0812 68.7897 58.9557 68.7955 58.8265C68.8012 58.6974 68.7738 58.5689 68.7158 58.4534L68.7174 58.4554ZM14.4302 58.0364C13.8838 56.6916 12.2794 52.4303 11.4097 46.7886C10.4576 40.6133 10.2193 31.4857 14.3986 22.8231H27.5354C27.0375 24.6113 26.0441 28.6695 25.6006 33.9532C25.2528 38.0964 25.3205 42.1281 25.8042 45.9357C26.3547 50.2811 27.4474 54.3458 29.0579 58.0364H14.4302ZM30.7173 58.0364C26.8083 49.4908 26.5929 40.3393 27.1093 34.1207C27.5741 28.5315 28.6994 24.2595 29.1149 22.8231H46.3252C45.8353 24.5675 44.818 28.6684 44.3674 34.0342C44.0196 38.1769 44.0873 42.2085 44.571 46.0167C45.1169 50.3299 46.2004 54.3672 47.7891 58.0364H30.7173ZM49.45 58.0364C45.5762 49.5142 45.3613 40.3999 45.8776 34.2012C46.3522 28.5035 47.5121 24.1744 47.9067 22.8231H65.4408C64.788 24.5441 63.5767 28.23 62.9759 33.1889C62.4898 37.1502 62.5102 41.1573 63.0364 45.1134C63.6394 49.5884 64.919 53.9459 66.8314 58.0364H49.45Z" fill="#231F20"/>
<path d="M76.5272 96.7281H2.79443L6.5481 93.4775H74.6157L76.5272 96.7281Z" fill="#E2B5C0"/>
<mask id="mask0_26_272" style="mask-type:luminance" maskUnits="userSpaceOnUse" x="2" y="93" width="75" height="4">
<path d="M76.5272 96.7281H2.79395L6.54812 93.478H74.6152L76.5272 96.7281Z" fill="white"/>
</mask>
<g mask="url(#mask0_26_272)">
<path d="M64.5666 93.478C64.5666 93.478 66.9231 94.2927 66.8314 94.7861C66.7398 95.2795 37.9309 95.1028 37.9309 95.1028H13.8885C13.8885 95.1028 11.7153 94.6929 14.4486 93.478L6.73806 92.8934L1.604 96.7281L17.1849 97.3096L77.4116 97.169L74.5923 92.7534L64.5686 93.478" fill="#CE9FAD"/>
<path d="M69.1931 93.478C69.1931 93.478 70.5949 94.4215 70.2268 95.1028C69.8586 95.7841 42.9953 96.2052 42.9953 96.2052L12.4497 95.89C12.4497 95.89 9.71589 95.6797 9.97863 94.8386C10.2414 93.9974 12.0291 92.9984 12.0291 92.9984L6.1939 92.7881L2.04053 97.0993L52.0353 97.362L77.4077 97.2042L74.7987 92.841L69.1911 93.478" fill="#AD8995"/>
</g>
<path d="M97.4246 88.5762L78.1725 96.5337L76.1455 93.0881L93.9856 85.7432L97.4246 88.5762Z" fill="#E2B5C0"/>
<mask id="mask1_26_272" style="mask-type:luminance" maskUnits="userSpaceOnUse" x="76" y="85" width="22" height="12">
<path d="M97.4241 88.5762L78.1726 96.5337L76.1455 93.0886L93.9856 85.7437L97.4241 88.5762Z" fill="white"/>
</mask>
<g mask="url(#mask1_26_272)">
<path d="M80.8836 91.1388C80.8836 91.1388 79.9905 93.4301 81.322 93.478C82.6535 93.5258 92.7816 89.3882 93.3585 88.5476C93.9354 87.7069 91.7536 86.6636 91.7536 86.6636L93.8677 84.9023L98.3535 88.4773L78.0964 97.4495L75.0112 92.5451L80.8836 91.1388Z" fill="#CE9FAD"/>
<path d="M92.8168 86.2248C92.8168 86.2248 95.0816 87.5665 94.8026 88.5009C94.5235 89.4352 82.5823 94.1202 82.5823 94.1202C82.5823 94.1202 79.8485 95.1385 79.3581 93.9801C78.8678 92.8217 79.323 91.6124 79.323 91.6124L75.748 93.0336L78.2364 96.7282L98.073 88.5477L93.4436 85.2559L92.8178 86.2233" fill="#AD8995"/>
</g>
<path d="M103.321 17.0972C105.244 16.9069 106.65 15.1932 106.459 13.2695C106.269 11.3458 104.555 9.94069 102.632 10.131C100.708 10.3213 99.3027 12.035 99.493 13.9587C99.6833 15.8823 101.397 17.2875 103.321 17.0972Z" fill="#F92654"/>
<mask id="mask2_26_272" style="mask-type:luminance" maskUnits="userSpaceOnUse" x="99" y="10" width="8" height="8">
<path d="M103.321 17.0967C105.244 16.9064 106.65 15.1927 106.459 13.269C106.269 11.3453 104.555 9.9402 102.632 10.1305C100.708 10.3208 99.3027 12.0345 99.493 13.9582C99.6833 15.8818 101.397 17.287 103.321 17.0967Z" fill="white"/>
</mask>
<g mask="url(#mask2_26_272)">
<path d="M102.417 10.1008C102.417 10.1008 100.245 11.7592 102.067 13.967C104.141 16.4798 106.479 14.6681 106.479 14.6681C106.479 14.6681 105.572 19.2232 100.385 16.6305C100.385 16.6305 98.2925 14.7379 99.4789 11.6538C100.665 8.56965 102.417 10.1008 102.417 10.1008Z" fill="#D3204F"/>
<path d="M100.399 11.2378C100.399 11.2378 99.7541 13.1258 101.016 14.8082C102.278 16.4905 104.509 16.7481 104.509 16.7481C104.509 16.7481 102.339 18.2696 100.175 16.2802C98.0102 14.2908 99.4669 11.9787 100.399 11.2393" fill="#AD1A48"/>
<path d="M103.855 12.2669C104.377 12.2669 104.801 11.9218 104.801 11.496C104.801 11.0702 104.377 10.7251 103.855 10.7251C103.332 10.7251 102.909 11.0702 102.909 11.496C102.909 11.9218 103.332 12.2669 103.855 12.2669Z" fill="#FF80A7"/>
<path d="M105.357 12.5175C105.408 12.683 105.285 12.8684 105.082 12.9315C104.878 12.9946 104.674 12.9111 104.623 12.7451C104.572 12.5791 104.695 12.3938 104.899 12.3312C105.102 12.2685 105.306 12.3495 105.357 12.5175Z" fill="#FF80A7"/>
</g>
<path d="M103.079 18.616L97.2913 41.1783H89.0095C88.8272 40.3361 88.5645 38.6578 88.9586 37.2276H95.776C95.944 37.2274 96.1071 37.1715 96.2399 37.0687C96.3727 36.9659 96.4676 36.8219 96.5097 36.6593L101.25 18.311C101.803 18.5139 102.388 18.6174 102.977 18.6165L103.079 18.616Z" fill="#E2B5C0"/>
<mask id="mask3_26_272" style="mask-type:luminance" maskUnits="userSpaceOnUse" x="88" y="18" width="16" height="24">
<path d="M103.079 18.616L97.2913 41.1783H89.0095C88.8272 40.3361 88.5645 38.6578 88.9586 37.2276H95.776C95.944 37.2274 96.1071 37.1715 96.2399 37.0687C96.3727 36.9659 96.4676 36.8219 96.5097 36.6593L101.25 18.311C101.803 18.5139 102.388 18.6174 102.977 18.6165L103.079 18.616Z" fill="white"/>
</mask>
<g mask="url(#mask3_26_272)">
<path d="M93.6912 37.2276C93.6912 37.2276 92.0786 37.2276 92.1489 39.1971C92.1942 40.4665 93.3587 41.1784 93.3587 41.1784L88.7537 41.7598C88.7537 41.7598 88.0133 39.6921 88.2236 37.9746C88.4339 36.2571 89.5317 36.4328 89.5317 36.4328L93.6912 37.2276Z" fill="#BA939E"/>
<path d="M91.1689 37.2279C91.1689 37.2279 90.4326 37.9575 90.7305 39.621C91.0284 41.2845 91.6592 41.4612 91.6592 41.4612H88.7569C88.7569 41.4612 88.3063 38.2025 88.7569 36.9575L91.1689 37.2279Z" fill="#9B7681"/>
<path d="M100.005 23.102C100.005 23.102 100.618 22.4777 101.086 22.5714C101.553 22.6651 101.807 23.5287 101.807 23.5287L103.445 18.3111L100.525 17.8926L100.005 23.102Z" fill="#BA939E"/>
<path d="M100.647 20.6494C100.647 20.6494 101.106 20.3266 101.559 20.4315C102.012 20.5364 102.412 21.2141 102.412 21.2141L103.452 18.3092L100.928 17.9961L100.647 20.6494Z" fill="#9B7681"/>
</g>
<path d="M89.5317 43.5846C89.0164 44.5719 88.0164 45.906 87.2969 45.9269C86.8769 45.9386 86.4899 45.4029 86.2404 44.9523C84.7918 42.3427 84.6365 39.5972 84.7607 37.7535C84.8977 35.7244 85.3936 34.3028 85.3992 34.288C85.6696 33.5243 86.1365 32.5915 86.8249 32.482C87.7027 32.3425 88.8392 33.4285 89.3408 34.0131L89.3749 35.7127H88.4192C88.2683 35.7127 88.1209 35.7577 87.9958 35.8418C87.8706 35.926 87.7734 36.0456 87.7165 36.1852C86.6813 38.7347 87.6513 42.0189 87.6931 42.1569C87.74 42.3129 87.836 42.4497 87.9668 42.5469C88.0976 42.6441 88.2562 42.6966 88.4192 42.6966H89.5164L89.5317 43.5846Z" fill="#CE3E64"/>
<mask id="mask4_26_272" style="mask-type:luminance" maskUnits="userSpaceOnUse" x="84" y="32" width="6" height="14">
<path d="M89.5317 43.5846C89.0164 44.5719 88.0164 45.906 87.2969 45.9269C86.8769 45.9386 86.4899 45.4029 86.2404 44.9523C84.7918 42.3427 84.6365 39.5972 84.7607 37.7535C84.8977 35.7244 85.3936 34.3028 85.3992 34.288C85.6696 33.5243 86.1365 32.5915 86.8249 32.482C87.7027 32.3425 88.8392 33.4285 89.3408 34.0131L89.3749 35.7127H88.4192C88.2683 35.7127 88.1209 35.7577 87.9958 35.8418C87.8706 35.926 87.7734 36.0456 87.7165 36.1852C86.6813 38.7347 87.6513 42.0189 87.6931 42.1569C87.74 42.3129 87.836 42.4497 87.9668 42.5469C88.0976 42.6441 88.2562 42.6966 88.4192 42.6966H89.5164L89.5317 43.5846Z" fill="white"/>
</mask>
<g mask="url(#mask4_26_272)">
<path d="M89.3664 35.2284C89.3664 35.2284 88.9367 33.8271 87.7447 34.2477C86.5527 34.6683 85.7823 36.1871 85.8057 38.5467C85.8292 40.9062 86.7869 43.5937 87.0206 43.944C87.2543 44.2943 88.6093 43.9343 89.1465 43.5305L89.6842 43.1262L89.5314 44.5051C89.5314 44.5051 88.6088 46.7246 87.4641 46.4909C86.3195 46.2572 84.7456 45.0891 84.7263 43.8742C84.7069 42.6593 83.3749 39.6918 84.2863 36.0237C85.1978 32.3556 86.5598 31.5139 87.1286 31.6778C87.6973 31.8418 89.7147 33.8505 89.7147 33.8505L89.3659 35.2284" fill="#A53255"/>
</g>
<path d="M89.7152 46.0218C89.6872 49.9766 89.5263 51.2628 89.4291 51.6793C89.0894 51.7628 88.0863 51.9023 85.3256 51.7766C83.9971 51.716 82.7288 51.6152 82.0841 51.5592C78.5942 43.4006 78.7821 36.5002 79.5668 32.1207C80.2496 28.3121 81.4884 25.7051 81.9915 24.7534L89.2488 25.3583C89.2936 26.5009 89.3883 29.001 89.4815 32.025C88.7177 31.3987 87.6831 30.8111 86.5919 30.9822C85.4463 31.1625 84.5638 32.1024 83.9706 33.7786C83.9477 33.8428 83.4106 35.3744 83.2517 37.5975C83.0429 40.5507 83.6183 43.3512 84.9147 45.6853C85.5608 46.8503 86.3567 47.4404 87.2793 47.4404H87.3394C88.1373 47.419 88.9351 46.9419 89.7152 46.0218Z" fill="#FFE3DC"/>
<mask id="mask5_26_272" style="mask-type:luminance" maskUnits="userSpaceOnUse" x="79" y="24" width="11" height="28">
<path d="M89.7152 46.0218C89.6872 49.9766 89.5263 51.2628 89.4291 51.6793C89.0894 51.7628 88.0863 51.9023 85.3256 51.7766C83.9971 51.716 82.7288 51.6152 82.0841 51.5592C78.5942 43.4006 78.7821 36.5002 79.5668 32.1207C80.2496 28.3121 81.4884 25.7051 81.9915 24.7534L89.2488 25.3583C89.2936 26.5009 89.3883 29.001 89.4815 32.025C88.7177 31.3987 87.6831 30.8111 86.5919 30.9822C85.4463 31.1625 84.5638 32.1024 83.9706 33.7786C83.9477 33.8428 83.4106 35.3744 83.2517 37.5975C83.0429 40.5507 83.6183 43.3512 84.9147 45.6853C85.5608 46.8503 86.3567 47.4404 87.2793 47.4404H87.3394C88.1373 47.419 88.9351 46.9419 89.7152 46.0218Z" fill="white"/>
</mask>
<g mask="url(#mask5_26_272)">
<path d="M89.3319 27.5625C89.3319 27.5625 87.2778 25.6138 85.455 25.9239C83.6321 26.234 81.626 29.5121 81.1779 33.0331C79.9161 42.9865 82.5099 48.1048 83.9117 49.4353C85.3134 50.7658 89.5987 50.4883 89.6369 49.4353L89.7138 52.4791L81.5297 52.1675C81.5297 52.1675 78.025 44.3868 78.5159 38.6391C79.0067 32.8915 79.4971 27.0034 81.8805 23.709L89.7188 24.7518L89.3319 27.5609" fill="#DBC2BD"/>
</g>
<path d="M78.0763 1.51416V13.596H10.6655L10.8132 1.51416H78.0763Z" fill="#F92654"/>
<mask id="mask6_26_272" style="mask-type:luminance" maskUnits="userSpaceOnUse" x="10" y="1" width="69" height="13">
<path d="M78.0763 1.51416V13.5965H10.6655L10.8127 1.51416H78.0763Z" fill="white"/>
</mask>
<g mask="url(#mask6_26_272)">
<path d="M21.0727 13.5964C21.0727 13.5964 16.3414 12.2496 16.2355 9.20062C16.1296 6.15165 16.761 5.41538 17.1816 4.78451C17.6021 4.15364 70.8037 4.88991 70.8037 4.88991C70.8037 4.88991 73.2218 5.41538 73.3272 8.46486C73.4326 11.5143 68.07 13.6004 68.07 13.6004L79.5265 14.6555L79.0937 0.791016L10.3484 0.999778L10.0332 14.0373L21.0727 13.5964Z" fill="#DB315E"/>
<path d="M73.3285 13.5965C73.3285 13.5965 76.0623 11.5842 76.2726 8.99047C76.4829 6.39671 74.8703 3.45314 73.3285 3.17259C71.7867 2.89203 33.6548 2.89254 33.6548 2.89254L15.5555 2.99743C15.5555 2.99743 13.5055 3.36556 13.5055 6.99296C13.5055 10.6203 16.6624 14.0899 16.6624 14.0899L9.14746 14.1367L10.2962 0.791152H46.0441L78.5858 0.740234L78.5348 14.1459L73.3305 13.6001" fill="#C13467"/>
<path d="M58.1095 8.14941H34.9255C34.1272 8.14941 33.48 8.79661 33.48 9.59497V9.96311C33.48 10.7615 34.1272 11.4087 34.9255 11.4087H58.1095C58.9079 11.4087 59.5551 10.7615 59.5551 9.96311V9.59497C59.5551 8.79661 58.9079 8.14941 58.1095 8.14941Z" fill="#FF507E"/>
</g>
<path d="M78.0883 31.7765C77.5448 34.8017 77.4269 37.888 77.738 40.9458C78.1234 44.8186 79.1789 48.7332 80.874 52.58C80.9283 52.7033 81.0145 52.8099 81.1237 52.8889C81.2328 52.9678 81.3611 53.0162 81.4952 53.0291C81.5135 53.0291 83.3593 53.2068 85.3191 53.2939C86.1038 53.329 86.7642 53.3448 87.3217 53.3448C89.3686 53.3448 90.0301 53.1361 90.3804 52.9181C90.774 52.6722 90.9089 52.1737 91.0077 51.3947C91.0785 50.8346 91.134 50.0484 91.1711 49.0524C91.2307 47.4831 91.249 45.3466 91.2261 42.6933H93.3581V78.7315L75.6132 85.2546L72.638 70.8295L77.8159 61.401C77.8762 61.2911 77.9084 61.168 77.9094 61.0426C77.9105 60.9172 77.8804 60.7935 77.822 60.6826C77.7889 60.62 74.5194 54.3438 73.108 45.5686C71.8127 37.518 71.8631 25.6429 79.4549 14.7872L79.4585 14.7821C79.4621 14.7765 79.4656 14.7704 79.4697 14.7648C79.4738 14.7592 79.4855 14.7394 79.4931 14.7261C79.5007 14.7129 79.5007 14.7129 79.5043 14.7057C79.5134 14.6892 79.5215 14.6722 79.5287 14.6548C79.5318 14.6482 79.5344 14.6421 79.5369 14.6355C79.5425 14.6207 79.5486 14.6059 79.5532 14.5907C79.5557 14.583 79.5583 14.5754 79.5603 14.5673C79.5654 14.5504 79.5695 14.5342 79.5736 14.5163C79.5736 14.5112 79.5736 14.5061 79.5771 14.5011C79.5807 14.4807 79.5837 14.4593 79.5863 14.4384C79.5863 14.4323 79.5863 14.4262 79.5863 14.4201C79.5863 14.3982 79.5893 14.3768 79.5899 14.3544V1.80518L93.3581 6.35113V35.7114H91.1004C90.9537 29.8879 90.7383 24.6811 90.7358 24.6271C90.7282 24.4425 90.6535 24.267 90.5255 24.1336C90.3976 24.0003 90.2254 23.9183 90.0413 23.9031L81.6301 23.2019C81.4908 23.1903 81.3509 23.2174 81.226 23.2803C81.1011 23.3432 80.996 23.4394 80.9224 23.5583C80.8455 23.6836 79.0145 26.6822 78.0883 31.7765Z" fill="#A52950"/>
<mask id="mask7_26_272" style="mask-type:luminance" maskUnits="userSpaceOnUse" x="72" y="1" width="22" height="85">
<path d="M78.0883 31.7765C77.5448 34.8017 77.4269 37.888 77.738 40.9458C78.1234 44.8186 79.1789 48.7332 80.874 52.58C80.9283 52.7033 81.0145 52.8099 81.1237 52.8889C81.2328 52.9678 81.3611 53.0162 81.4952 53.0291C81.5135 53.0291 83.3593 53.2068 85.3191 53.2939C86.1038 53.329 86.7642 53.3448 87.3217 53.3448C89.3686 53.3448 90.0301 53.1361 90.3804 52.9181C90.774 52.6722 90.9089 52.1737 91.0077 51.3947C91.0785 50.8346 91.134 50.0484 91.1711 49.0524C91.2307 47.4831 91.249 45.3466 91.2261 42.6933H93.3581V78.7315L75.6132 85.2546L72.638 70.8295L77.8159 61.401C77.8762 61.2911 77.9084 61.168 77.9094 61.0426C77.9105 60.9172 77.8804 60.7935 77.822 60.6826C77.7889 60.62 74.5194 54.3438 73.108 45.5686C71.8127 37.518 71.8631 25.6429 79.4549 14.7872L79.4585 14.7821C79.4621 14.7765 79.4656 14.7704 79.4697 14.7648C79.4738 14.7592 79.4855 14.7394 79.4931 14.7261C79.5007 14.7129 79.5007 14.7129 79.5043 14.7057C79.5134 14.6892 79.5215 14.6722 79.5287 14.6548C79.5318 14.6482 79.5344 14.6421 79.5369 14.6355C79.5425 14.6207 79.5486 14.6059 79.5532 14.5907C79.5557 14.583 79.5583 14.5754 79.5603 14.5673C79.5654 14.5504 79.5695 14.5342 79.5736 14.5163C79.5736 14.5112 79.5736 14.5061 79.5771 14.5011C79.5807 14.4807 79.5837 14.4593 79.5863 14.4384C79.5863 14.4323 79.5863 14.4262 79.5863 14.4201C79.5863 14.3982 79.5893 14.3768 79.5899 14.3544V1.80518L93.3581 6.35113V35.7114H91.1004C90.9537 29.8879 90.7383 24.6811 90.7358 24.6271C90.7282 24.4425 90.6535 24.267 90.5255 24.1336C90.3976 24.0003 90.2254 23.9183 90.0413 23.9031L81.6301 23.2019C81.4908 23.1903 81.3509 23.2174 81.226 23.2803C81.1011 23.3432 80.996 23.4394 80.9224 23.5583C80.8455 23.6836 79.0145 26.6822 78.0883 31.7765Z" fill="white"/>
</mask>
<g mask="url(#mask7_26_272)">
<path d="M79.5926 12.2154C79.5926 12.2154 80.8288 6.89147 86.5062 7.55595C92.1835 8.22042 91.5532 19.7839 91.5532 19.7839C91.5532 19.7839 91.0893 22.7621 81.6308 23.2005L89.715 24.5855L90.2914 49.8545C90.2914 49.8545 91.2553 52.7807 88.3637 52.8332C85.472 52.8856 81.7301 53.0491 81.7301 53.0491C81.7301 53.0491 90.7293 54.8643 90.4141 59.6318C90.4141 59.6318 91.015 75.509 89.5317 76.4199C88.0485 77.3308 81.1812 80.4857 79.7071 79.1537C78.233 77.8217 74.0349 71.6479 76.8359 63.1868L72.0669 71.1809L75.1683 85.9797L94.3567 79.0666L93.8313 66.7124L94.0415 33.4879L94.1994 5.57269L79.0941 0.946289L79.5926 12.2144" fill="#892247"/>
<path d="M79.5927 5.97697C79.5927 5.97697 82.0907 4.01408 86.5063 5.27583C90.9219 6.53757 92.4637 11.5143 92.6745 12.6355C92.8853 13.7567 92.815 20.206 92.1841 22.0986C92.1841 22.0986 90.511 23.6704 88.7538 23.7957C88.7538 23.7957 90.2213 23.7107 90.3618 25.253C90.5023 26.7953 90.2915 52.4493 90.2915 52.4493L87.8393 53.3388C87.8393 53.3388 90.8521 54.6683 91.0859 55.7192C91.3196 56.7701 93.0462 66.5647 92.0966 73.8623C91.147 81.1598 79.5321 81.6425 79.5321 81.6425C79.5321 81.6425 76.535 80.9592 75.7468 78.0151C74.9586 75.0711 73.4219 69.52 74.2402 66.3972L72.1719 70.9706L75.537 85.9808L94.0421 79.0676L94.2 57.1459L93.9897 26.6547V5.78399L79.0947 1.31543L79.5932 5.97697" fill="#722548"/>
</g>
<path d="M76.295 61.0219C75.9895 60.4002 75.3433 59.0168 74.5954 57.0259C73.2422 53.4097 72.2454 49.67 71.6192 45.8601C70.7618 40.5611 70.72 35.4194 71.4945 30.5776C72.3881 24.9904 74.3759 19.7952 77.4096 15.1128H10.3283C9.54974 16.4524 6.79712 21.5086 5.08373 28.7267C3.24305 36.481 2.26034 48.3999 8.02781 61.1451C8.07992 61.2598 8.10256 61.3857 8.09367 61.5114C8.08477 61.637 8.04464 61.7584 7.97689 61.8646L1.604 71.8802L6.78796 85.5129H74.1183L71.0973 70.8633C71.0609 70.6868 71.0885 70.503 71.1752 70.345L76.295 61.0219ZM68.6848 59.194C68.6168 59.3039 68.5218 59.3946 68.4089 59.4576C68.296 59.5206 68.1689 59.5538 68.0397 59.554H49.3411L49.3268 59.5616C49.2232 59.6106 49.1097 59.6355 48.995 59.6341C48.8803 59.6328 48.7674 59.6054 48.6649 59.554H13.9261C13.78 59.5539 13.637 59.5117 13.5143 59.4323C13.3917 59.3529 13.2945 59.2397 13.2347 59.1064C13.144 58.9027 11.007 54.0956 9.91737 47.0663C9.27734 42.9338 9.13833 38.8971 9.50443 35.0665C9.96269 30.2639 11.2234 25.776 13.2479 21.726C13.3108 21.6 13.4076 21.494 13.5274 21.4198C13.6472 21.3457 13.7853 21.3065 13.9261 21.3065H66.5676C66.6946 21.3065 66.8196 21.3384 66.931 21.3993C67.0424 21.4601 67.1368 21.548 67.2054 21.6549C67.2741 21.7617 67.3148 21.8841 67.3238 22.0107C67.3328 22.1374 67.3099 22.2643 67.2571 22.3798C67.2377 22.4226 65.2682 26.8097 64.4744 33.429C63.7448 39.5162 63.8883 48.7986 68.7174 58.4572C68.7751 58.5726 68.8024 58.7009 68.7966 58.8298C68.7909 58.9587 68.7524 59.0841 68.6848 59.194Z" fill="#E2B5C0"/>
<mask id="mask8_26_272" style="mask-type:luminance" maskUnits="userSpaceOnUse" x="1" y="15" width="77" height="71">
<path d="M76.295 61.0219C75.9895 60.4002 75.3433 59.0168 74.5954 57.0259C73.2422 53.4097 72.2454 49.67 71.6192 45.8601C70.7618 40.5611 70.72 35.4194 71.4945 30.5776C72.3881 24.9904 74.3759 19.7952 77.4096 15.1128H10.3283C9.54974 16.4524 6.79712 21.5086 5.08373 28.7267C3.24305 36.481 2.26034 48.3999 8.02781 61.1451C8.07992 61.2598 8.10256 61.3857 8.09367 61.5114C8.08477 61.637 8.04464 61.7584 7.97689 61.8646L1.604 71.8802L6.78796 85.5129H74.1183L71.0973 70.8633C71.0609 70.6868 71.0885 70.503 71.1752 70.345L76.295 61.0219ZM68.6848 59.194C68.6168 59.3039 68.5218 59.3946 68.4089 59.4576C68.296 59.5206 68.1689 59.5538 68.0397 59.554H49.3411L49.3268 59.5616C49.2232 59.6106 49.1097 59.6355 48.995 59.6341C48.8803 59.6328 48.7674 59.6054 48.6649 59.554H13.9261C13.78 59.5539 13.637 59.5117 13.5143 59.4323C13.3917 59.3529 13.2945 59.2397 13.2347 59.1064C13.144 58.9027 11.007 54.0956 9.91737 47.0663C9.27734 42.9338 9.13833 38.8971 9.50443 35.0665C9.96269 30.2639 11.2234 25.776 13.2479 21.726C13.3108 21.6 13.4076 21.494 13.5274 21.4198C13.6472 21.3457 13.7853 21.3065 13.9261 21.3065H66.5676C66.6946 21.3065 66.8196 21.3384 66.931 21.3993C67.0424 21.4601 67.1368 21.548 67.2054 21.6549C67.2741 21.7617 67.3148 21.8841 67.3238 22.0107C67.3328 22.1374 67.3099 22.2643 67.2571 22.3798C67.2377 22.4226 65.2682 26.8097 64.4744 33.429C63.7448 39.5162 63.8883 48.7986 68.7174 58.4572C68.7751 58.5726 68.8024 58.7009 68.7966 58.8298C68.7909 58.9587 68.7524 59.0841 68.6848 59.194Z" fill="white"/>
</mask>
<g mask="url(#mask8_26_272)">
<path d="M7.02337 61.5612L76.2952 61.022L71.0975 70.8629L0.88623 71.9698L7.02337 61.5612Z" fill="#EDC3D0"/>
<path d="M27.6895 63.0659L27.8749 63.6311L25.8269 68.4871L25.3203 67.9021L27.6895 63.0659Z" fill="#93677B"/>
<path d="M25.2418 67.4729L25.6125 67.8044L25.8268 68.4872L15.7553 68.5254L15.2578 67.8044L16.3108 67.395L25.2418 67.4729Z" fill="#A57C8D"/>
<path d="M25.6125 67.8043H15.2578L17.8317 63.0659H27.6894L25.6125 67.8043Z" fill="#BC91A1"/>
<path d="M43.0174 63.3286L43.3005 63.8561L42.0948 68.3843L41.4863 67.8389L43.0174 63.3286Z" fill="#93677B"/>
<path d="M41.3337 67.439L41.7614 67.7481L42.0944 68.3846L32.029 68.4202L31.4067 67.7481L32.3884 67.3662L41.3337 67.439Z" fill="#A57C8D"/>
<path d="M41.7614 67.7478H31.4067L33.1593 63.3286H43.017L41.7614 67.7478Z" fill="#BC91A1"/>
<path d="M58.9852 63.2764L59.3284 63.809L58.6369 68.3839L57.9663 67.833L58.9852 63.2764Z" fill="#93677B"/>
<path d="M57.7688 67.4288L58.2316 67.7409L58.6369 68.384L48.5755 68.4202L47.877 67.7409L48.8154 67.3555L57.7688 67.4288Z" fill="#A57C8D"/>
<path d="M58.2316 67.7408H47.877L49.1275 63.2764H58.9852L58.2316 67.7408Z" fill="#BC91A1"/>
<path d="M1.604 71.8796L71.0973 70.8628L74.8006 85.9798H6.03794L1.604 71.8796Z" fill="#C99DA9"/>
<path d="M72.2115 76.2658C72.2115 76.2658 72.5578 80.2063 69.8937 81.2557C67.2297 82.3052 12.7669 82.3759 12.7669 82.3759C12.7669 82.3759 5.87718 81.743 4.17041 78.6248L5.96374 85.7401L75.011 85.9768L72.2105 76.2622" fill="#A57F8B"/>
<path d="M73.2087 81.0986C73.2087 81.0986 73.5392 83.4307 70.5951 84.0615C67.651 84.6924 11.295 84.587 11.295 84.587C11.295 84.587 5.80303 84.6583 4.98682 81.6429L5.93287 85.8488L75.2215 85.9801L73.2087 81.0986Z" fill="#896874"/>
<path d="M6.03805 25.3222C6.03805 25.3222 8.35126 19.3597 14.6595 18.3108C20.9677 17.2619 67.9313 18.3108 67.9313 18.3108C67.9313 18.3108 72.6275 18.7334 73.0481 20.3475C73.4687 21.9616 72.3352 26.5906 72.3352 26.5906L78.0757 14.3193L9.30597 14.386C9.30597 14.386 5.68773 23.2193 6.03805 25.3222Z" fill="#CE9FAD"/>
<path d="M75.0788 19.0839C75.0788 19.0839 74.7988 16.9112 72.9061 16.5609C71.0135 16.2106 36.8776 16.4204 36.8776 16.4204L15.6392 16.5609C15.6392 16.5609 9.12175 16.2452 7.33301 20.1705L9.89112 14.5629L68.7955 14.3271L78.0743 14.7146L75.0788 19.0839Z" fill="#AD8995"/>
<path d="M72.9183 51.8267C72.9183 51.8267 74.1174 56.9877 70.4371 58.0386C68.0979 58.7052 12.3326 58.0386 12.3326 58.0386C12.3326 58.0386 6.65525 57.8487 4.65723 52.8022L7.02339 61.5637L77.4098 61.0036L72.9183 51.8267Z" fill="#CE9FAD"/>
<path d="M68.7975 61.0804C68.7975 61.0804 71.1209 63.2434 69.2283 65.7649C67.3357 68.2863 66.3891 69.2344 62.8126 69.7604C59.2361 70.2864 11.5031 69.9707 11.5031 69.9707C11.5031 69.9707 8.98014 68.4987 10.0316 66.2904C11.0831 64.082 16.0251 61.4287 16.0251 61.4287L7.43784 61.4893L0.88623 71.9702L72.1713 70.9712L77.4093 61.0005L68.7975 61.0804Z" fill="#E5BAC9"/>
<path d="M74.3097 56.4443C74.3097 56.4443 73.9594 59.8787 69.8238 59.949C65.6882 60.0193 11.6455 60.2296 11.6455 60.2296C11.6455 60.2296 6.66876 59.0376 5.75732 57.0752L7.43762 61.4913L77.4075 61.0005L74.3097 56.4443Z" fill="#AD8995"/>
<path d="M72.4722 61.0519C72.4722 61.0519 73.2635 62.8931 72.4722 64.7506C71.681 66.6081 69.2644 69.5878 68.4568 69.9728C67.6493 70.3577 50.8632 70.7085 50.8632 70.7085L10.6293 70.9891C10.6293 70.9891 6.91233 70.7788 7.01925 68.8862C7.12618 66.9936 8.87674 63.8743 9.68277 63.2786C10.4888 62.6828 12.5922 61.4552 12.5922 61.4552L7.75502 61.4888L1.44629 72.0054L37.8602 71.4519L72.1713 70.9713L77.2773 60.9761L72.4722 61.0519Z" fill="#DBAFC0"/>
</g>
<path d="M29.0568 58.0361H14.4301C13.8838 56.6913 12.2794 52.43 11.4097 46.7883C10.4575 40.613 10.2192 31.4854 14.3986 22.8228H27.5354C27.0374 24.611 26.044 28.6692 25.6005 33.9529C25.2527 38.0961 25.3205 42.1278 25.8042 45.9354C26.3536 50.2833 27.4463 54.3455 29.0568 58.0361Z" fill="#FFE3DC"/>
<mask id="mask9_26_272" style="mask-type:luminance" maskUnits="userSpaceOnUse" x="10" y="22" width="20" height="37">
<path d="M29.0568 58.0361H14.4301C13.8838 56.6913 12.2794 52.43 11.4097 46.7883C10.4575 40.613 10.2192 31.4854 14.3986 22.8228H27.5354C27.0374 24.611 26.044 28.6692 25.6005 33.9529C25.2527 38.0961 25.3205 42.1278 25.8042 45.9354C26.3536 50.2833 27.4463 54.3455 29.0568 58.0361Z" fill="white"/>
</mask>
<g mask="url(#mask9_26_272)">
<path d="M11.5668 31.4498C11.5668 31.4498 15.1311 26.1284 19.1801 26.1813C23.229 26.2343 22.8253 30.3128 22.7199 32.4682C22.6145 34.6235 21.8089 46.0531 23.8589 53.0976C23.8589 53.0976 23.4383 54.8848 20.4418 55.1475C17.4453 55.4103 13.4421 55.7163 11.9477 49.7283C11.9477 49.7283 12.7664 55.6206 13.9757 58.4597L29.7471 58.5107C29.7471 58.5107 27.5825 53.3588 26.9038 48.3118C26.2251 43.2648 25.3834 31.9626 28.4853 22.2367L13.9228 22.1318C13.9228 22.1318 11.2078 28.3061 11.5663 31.4498" fill="#EACDC7"/>
<path d="M12.9703 26.2561C12.9703 26.2561 16.4836 23.7102 20.1961 24.1685C23.9085 24.6268 24.7176 27.5678 24.7873 28.5841C24.8571 29.6004 23.1753 42.5921 24.6473 50.3154C24.6473 50.3154 26.5399 55.2544 24.4721 56.2015C22.4044 57.1486 18.584 57.1129 18.584 57.1129C18.584 57.1129 14.2051 57.2529 12.7661 54.0986L14.4464 58.8299L30.0074 58.725C30.0074 58.725 27.9397 53.0822 27.5191 50.5939C27.0985 48.1055 26.3276 44.6711 26.2925 39.0284C26.2573 33.3857 28.5328 22.5213 28.5328 22.5213L13.4611 22.2759L12.9642 26.2587" fill="#BCA3A0"/>
<path d="M19.9382 39.9094C19.7757 40.215 19.6327 40.5235 19.4865 40.8311C19.2696 41.301 18.0944 44.1025 17.6789 46.432C17.5883 46.9743 17.5343 47.3903 17.4982 48.4178H14.0821C14.0821 47.8033 14.0821 47.4056 14.1905 46.7885C14.4075 45.4508 15.0562 43.463 16.5038 40.6783C16.9559 39.8127 17.4259 38.9792 17.9137 38.1324H15.239V39.7048H12.5815V35.6558H21.0589V38.1507C20.7335 38.608 20.4433 38.9334 19.9382 39.9094Z" fill="#C12E16"/>
</g>
<path d="M47.79 58.0361H30.7172C26.8082 49.4905 26.5929 40.339 27.1092 34.1204C27.574 28.5312 28.6993 24.2591 29.1148 22.8228H46.3251C45.8352 24.5672 44.8179 28.6681 44.3673 34.0339C44.0195 38.1765 44.0872 42.2082 44.571 46.0164C45.1178 50.3296 46.1993 54.3664 47.79 58.0361Z" fill="#FFE3DC"/>
<mask id="mask10_26_272" style="mask-type:luminance" maskUnits="userSpaceOnUse" x="26" y="22" width="22" height="37">
<path d="M47.79 58.0361H30.7172C26.8082 49.4905 26.5929 40.339 27.1092 34.1204C27.574 28.5312 28.6993 24.2591 29.1148 22.8228H46.3251C45.8352 24.5672 44.8179 28.6681 44.3673 34.0339C44.0195 38.1765 44.0872 42.2082 44.571 46.0164C45.1178 50.3296 46.1993 54.3664 47.79 58.0361Z" fill="white"/>
</mask>
<g mask="url(#mask10_26_272)">
<path d="M27.1587 33.5569C27.1587 33.5569 30.0101 26.4085 36.7394 26.6188C43.4687 26.8291 39.8561 33.5014 40.2431 40.4685C40.63 47.4356 42.3119 52.5869 42.3119 52.5869C42.3119 52.5869 41.681 54.5844 36.7394 54.5844C31.7978 54.5844 30.0427 53.2321 27.8685 49.1189C27.8685 49.1189 27.592 52.0961 30.4831 58.5622L48.8304 58.4043C48.8304 58.4043 46.0441 53.0421 45.3084 46.5761C44.5726 40.11 45.6724 28.8597 45.6724 28.8597L47.3583 22.2882L28.2753 22.2373L27.1587 33.5564" fill="#EACDC7"/>
<path d="M28.0559 27.2931C28.0559 27.2931 30.5886 24.183 36.0032 24.3399C41.4178 24.4967 42.259 26.4952 42.7849 27.284C43.3109 28.0727 42.8211 33.279 42.6795 35.6426C41.8913 48.838 44.0991 51.8345 44.4673 53.7272C44.8354 55.6198 42.8888 56.6707 40.3668 56.9859C37.8449 57.3011 30.3783 57.1962 28.4857 52.8855L30.3258 58.6153L48.6726 58.6662C48.6726 58.6662 45.0981 48.5722 45.0981 41.8959C45.0981 35.2195 47.0957 21.9717 47.0957 21.9717L27.9072 22.182L28.0559 27.2896" fill="#BCA3A0"/>
<path d="M37.4566 39.6329C37.2875 39.9516 37.1378 40.2699 36.9881 40.5886C36.7631 41.0759 35.5451 43.9803 35.1143 46.3973C35.0207 46.9574 34.9641 47.3908 34.927 48.4585H31.3851C31.3851 47.8215 31.3851 47.4091 31.4976 46.7721C31.7227 45.3856 32.3968 43.3244 33.8959 40.4389C34.3648 39.5392 34.8516 38.6772 35.3577 37.7968H32.5842V39.4262H29.8301V35.229H38.618V37.8151C38.2809 38.2841 37.981 38.6227 37.4566 39.6329Z" fill="#C12E16"/>
</g>
<path d="M66.83 58.0361H49.4502C45.5763 49.5139 45.3615 40.3996 45.8778 34.2009C46.3523 28.5032 47.5122 24.1741 47.9069 22.8228H65.441C64.7882 24.5438 63.5769 28.2297 62.976 33.1886C62.49 37.1499 62.5103 41.157 63.0366 45.1131C63.6391 49.5881 64.9181 53.9455 66.83 58.0361Z" fill="#FFE3DC"/>
<mask id="mask11_26_272" style="mask-type:luminance" maskUnits="userSpaceOnUse" x="45" y="22" width="22" height="37">
<path d="M66.83 58.0361H49.4502C45.5763 49.5139 45.3615 40.3996 45.8778 34.2009C46.3523 28.5032 47.5122 24.1741 47.9069 22.8228H65.441C64.7882 24.5438 63.5769 28.2297 62.976 33.1886C62.49 37.1499 62.5103 41.157 63.0366 45.1131C63.6391 49.5881 64.9181 53.9455 66.83 58.0361Z" fill="white"/>
</mask>
<g mask="url(#mask11_26_272)">
<path d="M45.8776 34.2007C45.8776 34.2007 48.3369 25.6729 53.9985 25.8832C59.66 26.0935 60.0806 27.4953 60.0103 28.6868C59.9401 29.8782 58.188 40.9534 60.2909 48.1731C62.3938 55.3927 61.3424 55.8836 58.7486 56.3041C56.1548 56.7247 51.8095 56.6545 51.2489 56.0939C50.6883 55.5332 46.6154 51.6777 45.6724 45.0187C45.6724 45.0187 46.6225 55.3224 48.8654 58.4768L68.0712 58.6871C68.0712 58.6871 63.5853 49.6818 63.515 43.5304C63.4448 37.379 63.7253 30.5794 64.9871 26.8644C66.2488 23.1494 66.3888 21.8877 66.3888 21.8877L47.1128 22.1677C47.1128 22.1677 45.3078 30.1109 45.8776 34.2007Z" fill="#EACDC7"/>
<path d="M46.7637 27.6901C46.7637 27.6901 49.7419 23.8499 55.104 23.9904C60.4662 24.1309 62.394 25.0765 62.7091 25.6025C63.0243 26.1284 62.2188 28.0908 61.7279 30.9295C61.2371 33.7682 60.957 37.2382 60.957 37.2382C60.957 37.2382 60.7814 41.3035 62.0431 47.7874C63.3049 54.2713 63.6903 55.4628 63.7606 56.1634C63.8309 56.864 58.2584 57.5305 58.2584 57.5305C58.2584 57.5305 51.4939 58.1614 50.4776 57.1797C49.4613 56.198 47.5687 52.9729 47.5687 52.9729C47.5687 52.9729 48.6201 57.6003 49.4262 58.6166L68.0713 58.582C68.0713 58.582 64.7423 52.2381 64.1822 47.8225C63.6221 43.4069 62.9556 38.2194 63.6221 34.2239C64.2886 30.2283 65.3742 23.4995 66.1456 22.2378L47.2199 22.3432L46.7652 27.6896" fill="#BCA3A0"/>
<path d="M56.2219 39.9357C56.0605 40.2412 55.9164 40.5467 55.7733 40.8522C55.5584 41.3186 54.3929 44.0977 53.9805 46.4104C53.8909 46.9486 53.8369 47.3605 53.8012 48.383H50.4126C50.4126 47.772 50.4127 47.3789 50.5201 46.7689C50.7355 45.445 51.3806 43.4699 52.815 40.7096C53.2635 39.8486 53.7315 39.0243 54.2137 38.1816H51.5598V39.7412H48.9243V35.7207H57.3334V38.1953C57.0106 38.6449 56.7239 38.9677 56.2219 39.9357Z" fill="#C12E16"/>
</g>
<path d="M102.982 8.58476C101.938 8.58441 100.92 8.90964 100.071 9.51513C99.2206 10.1206 98.5807 10.9762 98.2401 11.9626C97.8996 12.949 97.8752 14.0171 98.1705 15.018C98.4657 16.0189 99.0659 16.9027 99.8874 17.5463C99.8874 17.5524 99.8833 17.558 99.8818 17.5641L95.1912 35.7113H94.8765V5.80311C94.8766 5.64354 94.8262 5.48802 94.7327 5.35874C94.6392 5.22945 94.5072 5.133 94.3556 5.08313L79.0736 0.0361497H79.0696C79.0527 0.0305488 79.0354 0.0259678 79.0186 0.0218943C79.011 0.0193832 79.0031 0.017343 78.9952 0.0157844L78.9565 0.00916485C78.9438 0.00916485 78.9305 0.00407331 78.9178 0.00305495H78.8939C78.8761 0.00305495 78.8577 0 78.8399 0H10.0635C9.86408 0.000117649 9.67269 0.0787793 9.53079 0.218959C9.3889 0.359139 9.30792 0.549556 9.30537 0.749001L9.14244 14.1404C8.86646 14.5987 8.12408 15.8864 7.21214 17.8732C5.68118 21.2327 4.47884 24.7325 3.62192 28.3236C2.41007 33.4103 1.92788 38.5347 2.1901 43.5547C2.5114 49.6995 3.9539 55.7001 6.47892 61.3989L0.120798 71.3869C0.0573103 71.4865 0.0179853 71.5996 0.00596186 71.7171C-0.00606155 71.8346 0.00955044 71.9533 0.0515499 72.0636L5.5069 86.4103V92.3738L0.262351 96.9136C0.145321 97.0147 0.0620307 97.1492 0.0236731 97.299C-0.0146845 97.4489 -0.00627354 97.6068 0.047774 97.7517C0.101822 97.8967 0.198917 98.0215 0.32602 98.1097C0.453123 98.1978 0.604147 98.2449 0.758801 98.2446H77.8531C77.8764 98.2447 77.8997 98.2435 77.9229 98.2411H77.9315C77.9778 98.2361 78.0235 98.2269 78.068 98.2136H78.0772C78.1006 98.2064 78.1235 98.1978 78.1464 98.1886L99.1704 89.4984C99.2915 89.4486 99.3976 89.3682 99.4784 89.2651C99.5592 89.1621 99.6118 89.0398 99.6313 88.9103C99.6507 88.7808 99.6363 88.6485 99.5893 88.5262C99.5424 88.404 99.4645 88.296 99.3634 88.2128L94.875 84.5146V42.6967H97.8792C98.0475 42.6966 98.211 42.6406 98.344 42.5375C98.477 42.4343 98.5719 42.2899 98.6139 42.127L104.724 18.306C105.828 17.8975 106.754 17.1138 107.338 16.0918C107.923 15.0699 108.129 13.875 107.921 12.7162C107.714 11.5574 107.105 10.5085 106.202 9.75322C105.299 8.99793 104.159 8.58431 102.982 8.58476ZM79.4576 14.7886L79.4611 14.7835C79.4647 14.7779 79.4682 14.7718 79.4723 14.7662C79.4764 14.7606 79.4881 14.7407 79.4957 14.7275C79.5034 14.7143 79.5034 14.7143 79.5069 14.7071C79.516 14.6906 79.5242 14.6736 79.5314 14.6562C79.5344 14.6496 79.537 14.6435 79.5395 14.6369C79.5451 14.6221 79.5512 14.6073 79.5558 14.5921C79.5584 14.5844 79.5609 14.5768 79.563 14.5686C79.5681 14.5518 79.5721 14.5355 79.5762 14.5177C79.5762 14.5126 79.5762 14.5075 79.5798 14.5024C79.5833 14.4821 79.5864 14.4607 79.5889 14.4398C79.5889 14.4337 79.5889 14.4276 79.5889 14.4215C79.5889 14.3996 79.592 14.3782 79.5925 14.3558V1.80504L93.3582 6.35099V35.7113H91.1004C90.9538 29.8878 90.7384 24.6809 90.7359 24.627C90.7283 24.4423 90.6535 24.2669 90.5256 24.1335C90.3977 24.0002 90.2255 23.9182 90.0414 23.9029L81.6302 23.2018C81.4909 23.1901 81.351 23.2173 81.2261 23.2802C81.1012 23.3431 80.9961 23.4393 80.9225 23.5582C80.8451 23.6829 79.0141 26.6815 78.0879 31.7758C77.5444 34.801 77.4265 37.8873 77.7375 40.9451C78.123 44.818 79.1785 48.7325 80.8736 52.5794C80.9279 52.7027 81.0141 52.8093 81.1232 52.8882C81.2324 52.9672 81.3607 53.0156 81.4948 53.0285C81.5131 53.0285 83.3589 53.2062 85.3187 53.2932C86.1034 53.3284 86.7638 53.3442 87.3213 53.3442C89.3682 53.3442 90.0296 53.1354 90.38 52.9175C90.7736 52.6715 90.9085 52.1731 91.0073 51.394C91.078 50.8339 91.1335 50.0477 91.1707 49.0518C91.2303 47.4825 91.2486 45.346 91.2257 42.6926H93.3582V78.7308L75.6133 85.2539L72.6381 70.8289L77.816 61.4004C77.8763 61.2905 77.9085 61.1673 77.9095 61.0419C77.9106 60.9166 77.8805 60.7929 77.8221 60.682C77.789 60.6193 74.5195 54.3432 73.1081 45.568C71.8132 37.5194 71.8637 25.6443 79.4576 14.7886ZM87.693 42.1555C87.7397 42.3118 87.8356 42.4489 87.9664 42.5464C88.0972 42.6439 88.256 42.6966 88.4191 42.6967H89.5164L89.5337 43.5868C89.0184 44.5741 88.0184 45.9081 87.2989 45.929C86.8788 45.9407 86.4919 45.405 86.2424 44.9544C84.7938 42.3449 84.6385 39.5994 84.7627 37.7556C84.8997 35.7266 85.3956 34.3049 85.4012 34.2902C85.6716 33.5264 86.1385 32.5936 86.8269 32.4841C87.7047 32.3446 88.8412 33.4307 89.3428 34.0152L89.3769 35.7149H88.4191C88.2683 35.7148 88.1209 35.7598 87.9957 35.844C87.8706 35.9281 87.7733 36.0477 87.7164 36.1874C86.6792 38.7333 87.6492 42.0175 87.691 42.1555H87.693ZM86.5937 30.982C85.448 31.1623 84.5656 32.1022 83.9724 33.7784C83.9495 33.8426 83.4124 35.3742 83.2535 37.5973C83.0447 40.5505 83.6201 43.351 84.9165 45.6851C85.5626 46.8501 86.3585 47.4402 87.2811 47.4402H87.3412C88.1391 47.4183 88.9369 46.9412 89.717 46.0212C89.689 49.9759 89.5281 51.2621 89.4309 51.6786C89.0912 51.7621 88.0882 51.9017 85.3274 51.7759C83.9989 51.7153 82.7306 51.6145 82.0859 51.5585C78.596 43.3999 78.7839 36.4995 79.5686 32.12C80.2514 28.3114 81.4902 25.7044 81.9933 24.7527L89.2506 25.3576C89.2954 26.5002 89.3901 29.0003 89.4833 32.0243C88.7195 31.3985 87.6828 30.811 86.5917 30.982H86.5937ZM93.3582 80.3485V84.3618L75.7462 91.6126V86.8222L93.3582 80.3485ZM10.8125 1.5143H78.0751V13.5966H10.6674L10.8125 1.5143ZM1.60404 71.8803L7.97744 61.8648C8.04518 61.7586 8.08532 61.6372 8.09421 61.5115C8.1031 61.3859 8.08047 61.26 8.02835 61.1453C2.26088 48.4 3.24207 36.4812 5.08428 28.7269C6.79716 21.5088 9.54978 16.4526 10.3288 15.113H77.4096C74.3759 19.7974 72.3881 24.991 71.4945 30.5777C70.72 35.4195 70.7618 40.5612 71.6193 45.8603C72.2454 49.6702 73.2422 53.4099 74.5954 57.026C75.3434 59.0169 75.99 60.4004 76.295 61.0221L71.1752 70.3452C71.0885 70.5032 71.0609 70.687 71.0973 70.8635L74.1183 85.5131H6.78799L1.60404 71.8803ZM74.24 87.0294V91.9619H7.02323V87.0294H74.24ZM2.79399 96.7283L6.54817 93.4782H74.6153L76.5272 96.7283H2.79399ZM97.424 88.5763L78.1724 96.5338L76.1479 93.0887L93.988 85.7438L97.424 88.5763ZM97.2916 41.1784H89.0098C88.8275 40.3362 88.5647 38.6579 88.9588 37.2276H95.7762C95.9442 37.2275 96.1073 37.1716 96.2401 37.0688C96.3729 36.9659 96.4678 36.822 96.51 36.6594L101.25 18.3111C101.803 18.514 102.388 18.6174 102.977 18.6166H103.079L97.2916 41.1784ZM102.982 17.1008C102.289 17.1009 101.613 16.8957 101.037 16.5112C100.461 16.1266 100.013 15.58 99.7476 14.9405C99.4826 14.3009 99.4132 13.5972 99.5482 12.9182C99.6832 12.2392 100.017 11.6155 100.506 11.1259C100.995 10.6364 101.619 10.303 102.298 10.1679C102.977 10.0328 103.681 10.1021 104.32 10.367C104.96 10.6319 105.507 11.0805 105.891 11.6561C106.276 12.2317 106.481 12.9084 106.481 13.6007C106.48 14.5286 106.111 15.4182 105.455 16.0744C104.799 16.7306 103.91 17.0997 102.982 17.1008Z" fill="#231F20"/>
<path d="M93.3591 80.3481V84.3615L75.7466 91.6127V86.8224L93.3591 80.3481Z" fill="#A52950"/>
<mask id="mask12_26_272" style="mask-type:luminance" maskUnits="userSpaceOnUse" x="75" y="80" width="19" height="12">
<path d="M93.3586 80.3486V84.362L75.7466 91.6127V86.8223L93.3586 80.3486Z" fill="white"/>
</mask>
<g mask="url(#mask12_26_272)">
<path d="M80.9749 84.9009C80.9749 84.9009 79.6367 86.3052 80.1276 87.3567C80.6184 88.4081 88.8193 84.5526 88.8193 84.5526C88.8193 84.5526 92.7216 83.3993 90.0693 81.5576L93.796 79.3682L93.7257 84.5516L75.2212 92.4734L75.1509 85.9809L80.9749 84.9009Z" fill="#93274E"/>
<path d="M78.4454 85.7441C78.4454 85.7441 77.4642 87.0293 77.8853 88.4311C78.3064 89.8328 86.0164 86.6321 86.0164 86.6321C86.0164 86.6321 91.8572 84.3189 92.1377 83.2675C92.4183 82.216 91.2263 80.6976 91.2263 80.6976L93.8201 79.9033L93.5395 84.7405L75.3149 92.1476L75.4321 86.54L78.4454 85.7441Z" fill="#751C41"/>
</g>
<path d="M74.2397 87.0293H7.02295V91.9617H74.2397V87.0293Z" fill="#F92654"/>
<mask id="mask13_26_272" style="mask-type:luminance" maskUnits="userSpaceOnUse" x="7" y="87" width="68" height="5">
<path d="M74.2397 87.0293H7.02295V91.9617H74.2397V87.0293Z" fill="white"/>
</mask>
<g mask="url(#mask13_26_272)">
<path d="M67.7912 86.6551C67.7912 86.6551 69.7337 88.4108 68.7974 89.4953C67.861 90.5799 13.7485 90.2301 13.7485 90.2301C13.7485 90.2301 10.2438 88.4775 14.6594 86.6551H6.52881L6.59857 92.5433L74.6601 92.613L74.7303 85.9805L67.7912 86.6551Z" fill="#DB315E"/>
<path d="M70.7504 86.7403C70.7504 86.7403 72.1171 88.1457 71.8019 89.4929C71.4867 90.8402 60.0785 91.1366 60.0785 91.1366H11.873C11.873 91.1366 9.82306 90.7883 10.2946 88.8962C10.7661 87.0041 12.1872 86.4257 12.1872 86.4257L6.40443 86.4766L6.35352 92.3118L75.0112 92.7323L74.7485 86.2148L70.7504 86.7403Z" fill="#C13467"/>
</g>
</svg>
