<svg width="135" height="222" viewBox="0 0 135 222" fill="none" xmlns="http://www.w3.org/2000/svg">
<path fill-rule="evenodd" clip-rule="evenodd" d="M133.051 85.279C131.609 94.6809 128.484 103.746 123.828 112.04L118.497 89.5992C118.497 89.5992 118.497 89.5992 118.497 89.5716L118.144 88.0887L110.39 91.0178V69.3895C110.39 69.3895 120.49 61.1257 132.886 59.5693C132.872 59.5693 135.365 70.4087 133.051 85.279Z" fill="url(#paint0_radial_313_2406)"/>
<path fill-rule="evenodd" clip-rule="evenodd" d="M122.211 112.039H123.828L118.139 88.0879L110.385 91.017V93.0829L117.106 90.1538L122.211 112.039Z" fill="url(#paint1_linear_313_2406)"/>
<path fill-rule="evenodd" clip-rule="evenodd" d="M23.7527 69.3895V91.0178L15.9985 88.0887L10.3102 112.04C7.10744 106.35 4.62747 100.283 2.92785 93.979C0.795965 86.0595 -0.140234 77.8659 0.150287 69.6696C0.232468 66.2771 0.605714 62.898 1.26591 59.5693C6.88531 60.2718 12.0227 62.3515 15.9572 64.4175C18.7029 65.8319 21.3124 67.4963 23.7527 69.3895Z" fill="url(#paint2_radial_313_2406)"/>
<path fill-rule="evenodd" clip-rule="evenodd" d="M23.7526 91.0124V93.0829L17.0313 90.1538L11.9261 112.039H10.3101L15.9983 88.0879L23.7526 91.0124Z" fill="url(#paint3_linear_313_2406)"/>
<path style="mix-blend-mode:multiply" fill-rule="evenodd" clip-rule="evenodd" d="M23.7526 69.3895V93.0838L17.0313 90.1593L11.9215 112.04H10.3101C7.10732 106.35 4.62736 100.283 2.92773 93.979C7.98161 84.4527 12.3392 74.5731 15.9662 64.4175C18.7087 65.8324 21.3152 67.4968 23.7526 69.3895Z" fill="url(#paint4_linear_313_2406)"/>
<path d="M107.8 48.4544L27.6687 50.0245C27.6687 50.0245 28.1278 48.1468 29.0873 45.158C31.7317 36.8942 38.1959 20.0452 49.2878 10.8632C53.9109 7.04343 59.3421 4.54592 65.641 4.54592C92.5489 4.50919 107.8 48.4544 107.8 48.4544Z" fill="url(#paint5_radial_313_2406)"/>
<path fill-rule="evenodd" clip-rule="evenodd" d="M112.625 115.529H22.848C20.8876 98.2728 21.0016 80.8436 23.1877 63.6142C23.7478 59.3262 24.2207 56.8975 24.2207 56.8975L67.7343 51.728L85.3133 53.8169L97.7091 55.2861L111.248 56.9113C111.248 56.9113 116.417 83.1857 112.625 115.529Z" fill="url(#paint6_radial_313_2406)"/>
<path style="mix-blend-mode:screen" opacity="0.5" fill-rule="evenodd" clip-rule="evenodd" d="M103.774 116.562C100.987 85.2788 100.17 68.4849 102.241 64.4173C103.485 61.9611 112.322 58.7474 112.322 58.7474L80.9199 51.8608C85.6028 55.474 87.71 57.5353 87.9855 63.4807C88.7889 80.9771 83.243 114.9 83.243 114.9L103.774 116.562Z" fill="url(#paint7_radial_313_2406)"/>
<path style="mix-blend-mode:screen" opacity="0.5" fill-rule="evenodd" clip-rule="evenodd" d="M54.1223 61.3091C56.2755 75.1648 54.811 92.7392 54.811 92.7392L54.1223 61.3091Z" fill="url(#paint8_radial_313_2406)"/>
<path style="mix-blend-mode:multiply" fill-rule="evenodd" clip-rule="evenodd" d="M53.6906 55.1757V91.9038C53.6906 91.9038 32.7326 94.4886 21.457 96.5545V97.312C21.457 97.312 38.7835 94.383 54.8108 92.744C54.8108 92.744 53.9477 63.0217 54.1221 54.8359L53.6906 55.1757Z" fill="url(#paint9_linear_313_2406)"/>
<path style="mix-blend-mode:screen" opacity="0.3" fill-rule="evenodd" clip-rule="evenodd" d="M30.5013 115.53L23.2062 116.563C21.457 79.6003 26.3924 57.3706 26.3924 57.3706C25.4833 76.157 29.7805 112.086 30.5013 115.53Z" fill="url(#paint10_radial_313_2406)"/>
<path fill-rule="evenodd" clip-rule="evenodd" d="M19.4001 62.4203L23.1877 63.6278L23.3484 62.4203C23.3484 62.4203 40.4362 57.7696 67.6976 57.7696C94.9591 57.7696 112.281 63.6278 112.281 63.6278L112.538 65.6845C112.538 65.6845 116.073 63.7976 116.073 62.4203C116.073 62.4203 94.1098 54.3218 67.6976 54.3218C41.2855 54.3218 19.4001 62.4203 19.4001 62.4203Z" fill="url(#paint11_linear_313_2406)"/>
<path style="mix-blend-mode:multiply" fill-rule="evenodd" clip-rule="evenodd" d="M19.4001 62.4199C19.4001 62.4199 26.6448 53.6235 67.7344 53.6235C108.824 53.6235 116.073 62.4199 116.073 62.4199C116.073 62.4199 115.968 63.5264 114.237 64.6053L112.52 65.6841L112.35 64.7889C112.35 64.7889 104.412 60.9829 83.6147 60.0051C58.1529 58.8022 25.6485 61.3181 22.6781 67.7455L23.1694 63.6136L19.4001 62.4199Z" fill="url(#paint12_linear_313_2406)"/>
<path fill-rule="evenodd" clip-rule="evenodd" d="M67.7344 42.5084C67.7344 42.5084 43.1724 41.4754 19.4001 50.0239V62.4196C19.4001 62.4196 43.6958 56.2171 67.7344 56.2171C91.7729 56.2171 116.073 62.4196 116.073 62.4196V50.0239C92.2963 41.4754 67.7344 42.5084 67.7344 42.5084Z" fill="url(#paint13_radial_313_2406)"/>
<path fill-rule="evenodd" clip-rule="evenodd" d="M4.14869 148.226C2.33982 148.919 33.0124 156.844 67.7343 156.844C102.456 156.844 131.32 148.226 131.32 148.226C131.32 148.226 105.211 140.991 63.5105 140.991C21.8103 140.991 4.14869 148.226 4.14869 148.226Z" fill="url(#paint14_linear_313_2406)"/>
<path fill-rule="evenodd" clip-rule="evenodd" d="M79.2442 108.679H76.7834L78.5923 59.5552H80.6583C80.6583 59.5552 83.748 74.5357 79.2442 108.679Z" fill="url(#paint15_radial_313_2406)"/>
<path fill-rule="evenodd" clip-rule="evenodd" d="M70.8378 69.6515C70.8378 69.6515 74.4739 62.2003 78.5921 59.5513C78.5921 59.5513 80.9197 85.1416 76.7832 108.675L73.9322 90.5865L70.8333 91.1053L70.8378 69.6515Z" fill="url(#paint16_linear_313_2406)"/>
<path style="mix-blend-mode:multiply" fill-rule="evenodd" clip-rule="evenodd" d="M78.5919 59.5693C74.46 62.2 70.8377 69.6696 70.8377 69.6696L29.5186 118.334L67.7158 115.58L73.932 90.5862L76.7785 108.679C80.9196 85.1597 78.5919 59.5693 78.5919 59.5693Z" fill="url(#paint17_linear_313_2406)"/>
<path fill-rule="evenodd" clip-rule="evenodd" d="M119.434 115.253C85.2945 108.557 50.1791 108.557 16.0397 115.253L4.14893 148.226C46.2807 142.024 67.7345 142.8 67.7345 142.8C67.7345 142.8 89.1883 142.024 131.32 148.226L119.434 115.253Z" fill="url(#paint18_radial_313_2406)"/>
<path fill-rule="evenodd" clip-rule="evenodd" d="M41.6299 150.811C41.6299 150.811 65.4113 145.384 93.3247 150.811C93.3247 150.811 88.4353 155.48 67.7344 155.723C47.0335 155.966 41.6299 150.811 41.6299 150.811Z" fill="url(#paint19_radial_313_2406)"/>
<path style="mix-blend-mode:multiply" opacity="0.71" fill-rule="evenodd" clip-rule="evenodd" d="M14.8916 92.744L10.3006 112.026C1.11852 95.673 -0.21746 79.6137 0.140639 69.6558C2.55551 92.5374 8.32642 95.3333 14.8916 92.744Z" fill="url(#paint20_linear_313_2406)"/>
<path style="mix-blend-mode:multiply" opacity="0.71" fill-rule="evenodd" clip-rule="evenodd" d="M133.051 85.2788C131.609 94.6807 128.484 103.746 123.827 112.04L118.497 89.599C120.595 98.3403 129.943 88.745 133.051 85.2788Z" fill="url(#paint21_linear_313_2406)"/>
<path style="mix-blend-mode:multiply" fill-rule="evenodd" clip-rule="evenodd" d="M66.4443 110.231C66.4443 110.231 68.3404 128.017 66.4443 142.777H69.0291C69.0291 142.777 66.9585 117.039 67.7344 110.231H66.4443Z" fill="url(#paint22_linear_313_2406)"/>
<path style="mix-blend-mode:multiply" fill-rule="evenodd" clip-rule="evenodd" d="M32.8062 112.55C31.5482 128.067 26.668 145.311 26.668 145.311L28.8441 145.077C28.8441 145.077 31.5161 120.602 34.4589 112.338L32.8062 112.55Z" fill="url(#paint23_linear_313_2406)"/>
<path style="mix-blend-mode:multiply" fill-rule="evenodd" clip-rule="evenodd" d="M103.388 112.641C104.646 128.159 109.513 145.311 109.513 145.311L107.337 145.077C107.337 145.077 104.463 120.666 101.52 112.402L103.388 112.641Z" fill="url(#paint24_linear_313_2406)"/>
<path style="mix-blend-mode:screen" opacity="0.5" fill-rule="evenodd" clip-rule="evenodd" d="M67.7344 110.231H68.423C68.423 110.231 68.7352 117.691 69.029 127.548C69.3229 137.405 69.6351 142.763 69.6351 142.763H69.029C69.029 142.763 68.0879 134.169 67.8262 124.004C67.5645 113.839 67.7344 110.231 67.7344 110.231Z" fill="url(#paint25_radial_313_2406)"/>
<path style="mix-blend-mode:screen" opacity="0.5" fill-rule="evenodd" clip-rule="evenodd" d="M103.388 112.641C103.388 112.641 108.553 135.243 109.513 145.311C109.513 145.311 107.626 138.507 105.514 127.902C103.402 117.296 103.388 112.641 103.388 112.641Z" fill="url(#paint26_radial_313_2406)"/>
<path style="mix-blend-mode:screen" opacity="0.5" fill-rule="evenodd" clip-rule="evenodd" d="M34.4493 112.338C34.4493 112.338 31.9839 134.426 28.8345 145.077C28.8345 145.077 30.0603 135.16 31.5294 125.409C32.9985 115.658 34.4493 112.338 34.4493 112.338Z" fill="url(#paint27_radial_313_2406)"/>
<path style="mix-blend-mode:multiply" fill-rule="evenodd" clip-rule="evenodd" d="M65.7971 42.4673C65.7971 42.4673 66.9586 47.9765 65.7971 56.2403H67.7345C67.7345 56.2403 66.8163 47.5817 67.7345 42.5407L65.7971 42.4673Z" fill="url(#paint28_linear_313_2406)"/>
<path style="mix-blend-mode:multiply" fill-rule="evenodd" clip-rule="evenodd" d="M35.0417 45.6307C35.0417 45.6307 36.0288 53.3987 35.7166 59.1145L37.2271 58.8666L36.1344 45.4058L35.0417 45.6307Z" fill="url(#paint29_linear_313_2406)"/>
<path style="mix-blend-mode:multiply" fill-rule="evenodd" clip-rule="evenodd" d="M98.3655 45.2129L97.4473 58.7472L95.8726 58.5038C96.5658 54.0236 96.9859 49.5054 97.1305 44.9741L98.3655 45.2129Z" fill="url(#paint30_linear_313_2406)"/>
<path style="mix-blend-mode:screen" opacity="0.5" fill-rule="evenodd" clip-rule="evenodd" d="M36.1345 45.4013L36.6579 45.3003L37.4797 58.8254L36.1345 45.4013Z" fill="url(#paint31_radial_313_2406)"/>
<path style="mix-blend-mode:screen" opacity="0.5" fill-rule="evenodd" clip-rule="evenodd" d="M67.7343 42.5088C67.7343 42.5088 68.9004 50.4558 67.7343 56.2084C67.3865 53.9011 67.2544 51.5664 67.3395 49.2346C67.4451 44.9742 67.7343 42.5088 67.7343 42.5088Z" fill="url(#paint32_radial_313_2406)"/>
<path style="mix-blend-mode:screen" opacity="0.5" fill-rule="evenodd" clip-rule="evenodd" d="M98.3657 45.2129C98.7358 47.1964 98.8668 49.2171 98.756 51.2317C98.6217 53.7784 98.1902 56.3007 97.4705 58.7472C97.4705 58.7472 97.7184 54.9137 97.9296 50.8461C98.1407 46.7784 98.3657 45.2129 98.3657 45.2129Z" fill="url(#paint33_radial_313_2406)"/>
<path style="mix-blend-mode:screen" opacity="0.5" fill-rule="evenodd" clip-rule="evenodd" d="M83.1878 110.708C86.2592 111.695 86.9479 112.903 87.3794 120.657C87.811 128.411 87.9855 139.613 87.3794 140.99C86.7734 142.368 81.6912 143.084 81.6912 143.084C81.6912 143.084 94.1512 143.474 103.388 145.076C103.388 145.076 99.5686 143.919 98.7743 141.863C97.9801 139.806 95.1933 116.529 95.8958 115.152C96.5982 113.775 101.52 112.397 101.52 112.397C101.52 112.397 96.993 111.805 91.6399 111.337C86.2868 110.869 83.1878 110.708 83.1878 110.708Z" fill="url(#paint34_radial_313_2406)"/>
<path style="mix-blend-mode:screen" opacity="0.5" fill-rule="evenodd" clip-rule="evenodd" d="M84.9234 43.2435C84.9234 43.2435 86.0895 43.092 86.3007 45.539C86.5119 47.9861 85.8416 54.5466 85.6212 55.4694C85.4008 56.3922 82.1045 56.8467 82.1045 56.8467C82.1045 56.8467 89.4914 57.5216 94.1605 58.224C94.1605 58.224 92.6317 57.8659 92.3241 56.6355C92.0165 55.4051 92.2598 45.5023 93.0357 45.1901C93.9821 44.9411 94.9511 44.7873 95.9281 44.731C95.9281 44.731 93.2194 44.2352 89.9919 43.8128C86.7644 43.3905 84.9234 43.2435 84.9234 43.2435Z" fill="url(#paint35_radial_313_2406)"/>
<path style="mix-blend-mode:screen" fill-rule="evenodd" clip-rule="evenodd" d="M41.6299 150.811C41.6299 150.811 45.4634 198.374 65.797 198.374C86.1306 198.374 93.3431 150.811 93.3431 150.811C93.3431 150.811 66.6142 144.438 41.6299 150.811Z" fill="url(#paint36_radial_313_2406)"/>
<g style="mix-blend-mode:screen" opacity="0.3">
<path fill-rule="evenodd" clip-rule="evenodd" d="M56.8493 6.24951C56.8493 6.24951 50.4632 30.9492 29.0874 45.1354C31.7318 36.8716 38.196 20.0226 49.2879 10.8405L56.8493 6.24951Z" fill="white"/>
</g>
<path fill-rule="evenodd" clip-rule="evenodd" d="M75.0387 11.4915C75.8237 17.1017 78.6013 22.4732 82.0859 23.5108C85.5705 24.5484 85.9607 20.6644 84.7946 17.5012C83.6285 14.338 74.4602 7.35502 75.0387 11.4915Z" fill="white"/>
<path style="mix-blend-mode:screen" d="M79.0536 41.1416C89.787 39.8865 97.4706 30.1678 96.2154 19.4345C94.9602 8.7011 85.2416 1.01752 74.5082 2.2727C63.7748 3.52788 56.0913 13.2465 57.3464 23.9799C58.6016 34.7133 68.3203 42.3968 79.0536 41.1416Z" fill="url(#paint37_radial_313_2406)"/>
<path style="mix-blend-mode:screen" opacity="0.5" fill-rule="evenodd" clip-rule="evenodd" d="M132.872 59.5693C125.907 61.1441 113.13 67.3741 113.13 67.3741C113.13 67.3741 118.382 63.7013 122.992 62.1633C126.236 61.1204 129.534 60.2545 132.872 59.5693Z" fill="url(#paint38_radial_313_2406)"/>
<path fill-rule="evenodd" clip-rule="evenodd" d="M123.01 62.1865C120.458 64.6518 126.715 62.4986 129.208 61.204C131.127 60.2123 129.208 60.2261 129.208 60.2261L123.01 62.1865Z" fill="white"/>
<path fill-rule="evenodd" clip-rule="evenodd" d="M89.6198 111.172C86.2592 111.609 93.3247 113.16 95.5651 113.009C97.8056 112.857 99.1691 112.123 96.6211 111.856C94.0731 111.59 89.6198 111.172 89.6198 111.172Z" fill="white"/>
<path fill-rule="evenodd" clip-rule="evenodd" d="M87.6504 43.5464C87.4667 45.5251 95.3954 45.6123 93.8436 44.4921L87.6504 43.5464Z" fill="white"/>
<path style="mix-blend-mode:screen" d="M98.6952 188.628C116.864 170.459 116.864 141 98.6952 122.831C80.5259 104.662 51.0677 104.662 32.8984 122.831C14.7291 141 14.7291 170.459 32.8984 188.628C51.0677 206.797 80.5259 206.797 98.6952 188.628Z" fill="url(#paint39_radial_313_2406)"/>
<path style="mix-blend-mode:multiply" fill-rule="evenodd" clip-rule="evenodd" d="M52.1204 62.5213C52.1204 62.7392 52.0558 62.9522 51.9347 63.1334C51.8137 63.3146 51.6416 63.4559 51.4403 63.5393C51.2389 63.6227 51.0174 63.6445 50.8036 63.602C50.5899 63.5594 50.3936 63.4545 50.2395 63.3004C50.0854 63.1463 49.9804 62.95 49.9379 62.7362C49.8954 62.5225 49.9172 62.301 50.0006 62.0996C50.084 61.8983 50.2252 61.7262 50.4064 61.6051C50.5876 61.4841 50.8007 61.4194 51.0186 61.4194C51.1635 61.4188 51.307 61.4469 51.441 61.5021C51.5749 61.5572 51.6966 61.6384 51.7991 61.7408C51.9015 61.8432 51.9826 61.965 52.0378 62.0989C52.093 62.2329 52.121 62.3764 52.1204 62.5213Z" fill="url(#paint40_linear_313_2406)"/>
<path d="M51.1377 63.3891C51.6194 63.3891 52.01 62.9986 52.01 62.5168C52.01 62.0351 51.6194 61.6445 51.1377 61.6445C50.6559 61.6445 50.2654 62.0351 50.2654 62.5168C50.2654 62.9986 50.6559 63.3891 51.1377 63.3891Z" fill="url(#paint41_linear_313_2406)"/>
<path style="mix-blend-mode:multiply" fill-rule="evenodd" clip-rule="evenodd" d="M52.226 90.2003C52.226 90.4173 52.1616 90.6294 52.0411 90.8099C51.9205 90.9903 51.7491 91.131 51.5486 91.214C51.3481 91.2971 51.1275 91.3188 50.9147 91.2764C50.7018 91.2341 50.5063 91.1296 50.3529 90.9762C50.1994 90.8227 50.0949 90.6272 50.0526 90.4143C50.0102 90.2015 50.032 89.9809 50.115 89.7804C50.1981 89.5799 50.3387 89.4085 50.5191 89.288C50.6996 89.1674 50.9117 89.103 51.1287 89.103C51.4197 89.103 51.6988 89.2186 51.9046 89.4244C52.1104 89.6302 52.226 89.9093 52.226 90.2003Z" fill="url(#paint42_linear_313_2406)"/>
<path d="M51.2483 91.0727C51.73 91.0727 52.1206 90.6822 52.1206 90.2004C52.1206 89.7187 51.73 89.3281 51.2483 89.3281C50.7665 89.3281 50.376 89.7187 50.376 90.2004C50.376 90.6822 50.7665 91.0727 51.2483 91.0727Z" fill="url(#paint43_linear_313_2406)"/>
<path style="mix-blend-mode:multiply" fill-rule="evenodd" clip-rule="evenodd" d="M30.6344 92.7208C30.6344 92.9378 30.5701 93.15 30.4495 93.3304C30.329 93.5108 30.1576 93.6515 29.9571 93.7345C29.7566 93.8176 29.536 93.8393 29.3231 93.797C29.1103 93.7546 28.9148 93.6501 28.7613 93.4967C28.6079 93.3432 28.5034 93.1477 28.461 92.9349C28.4187 92.722 28.4404 92.5014 28.5235 92.3009C28.6065 92.1004 28.7472 91.929 28.9276 91.8085C29.108 91.6879 29.3202 91.6235 29.5372 91.6235C29.8278 91.6247 30.1062 91.7407 30.3117 91.9463C30.5173 92.1518 30.6332 92.4302 30.6344 92.7208Z" fill="url(#paint44_linear_313_2406)"/>
<path d="M29.6567 93.6113C30.1385 93.6113 30.529 93.2207 30.529 92.739C30.529 92.2572 30.1385 91.8667 29.6567 91.8667C29.175 91.8667 28.7844 92.2572 28.7844 92.739C28.7844 93.2207 29.175 93.6113 29.6567 93.6113Z" fill="url(#paint45_linear_313_2406)"/>
<defs>
<radialGradient id="paint0_radial_313_2406" cx="0" cy="0" r="1" gradientUnits="userSpaceOnUse" gradientTransform="translate(121.436 50.6398) scale(81.7843 81.7844)">
<stop stop-color="#B0B4BC"/>
<stop offset="0.14" stop-color="#AAADBC"/>
<stop offset="0.34" stop-color="#9A9ABE"/>
<stop offset="0.57" stop-color="#807BBF"/>
<stop offset="0.75" stop-color="#685EC1"/>
<stop offset="0.97" stop-color="#7A75D7"/>
</radialGradient>
<linearGradient id="paint1_linear_313_2406" x1="110.385" y1="100.061" x2="123.828" y2="100.061" gradientUnits="userSpaceOnUse">
<stop stop-color="#5B58A3"/>
<stop offset="0.44" stop-color="#5F59A3"/>
<stop offset="0.85" stop-color="#6A5CA2"/>
<stop offset="0.99" stop-color="#705EA2"/>
</linearGradient>
<radialGradient id="paint2_radial_313_2406" cx="0" cy="0" r="1" gradientUnits="userSpaceOnUse" gradientTransform="translate(-12.801 36.5087) scale(81.789 81.789)">
<stop stop-color="#B0B4BC"/>
<stop offset="0.14" stop-color="#AAADBC"/>
<stop offset="0.34" stop-color="#9A9ABE"/>
<stop offset="0.57" stop-color="#807BBF"/>
<stop offset="0.75" stop-color="#685EC1"/>
<stop offset="0.97" stop-color="#7A75D7"/>
</radialGradient>
<linearGradient id="paint3_linear_313_2406" x1="10.3101" y1="100.061" x2="23.7526" y2="100.061" gradientUnits="userSpaceOnUse">
<stop stop-color="#5B58A3"/>
<stop offset="0.44" stop-color="#5F59A3"/>
<stop offset="0.85" stop-color="#6A5CA2"/>
<stop offset="0.99" stop-color="#705EA2"/>
</linearGradient>
<linearGradient id="paint4_linear_313_2406" x1="21.7693" y1="75.3303" x2="6.77502" y2="102.211" gradientUnits="userSpaceOnUse">
<stop stop-color="#B2A5DA"/>
<stop offset="0.41" stop-color="#A585BD"/>
<stop offset="0.76" stop-color="#9C71AA"/>
<stop offset="1" stop-color="#9969A3"/>
</linearGradient>
<radialGradient id="paint5_radial_313_2406" cx="0" cy="0" r="1" gradientUnits="userSpaceOnUse" gradientTransform="translate(76.3932 10.1975) scale(37.6234 37.6234)">
<stop offset="0.01" stop-color="#FFCC00"/>
<stop offset="0.22" stop-color="#FEC902"/>
<stop offset="0.41" stop-color="#FCBE08"/>
<stop offset="0.58" stop-color="#F8AD13"/>
<stop offset="0.75" stop-color="#F29422"/>
<stop offset="0.91" stop-color="#EA7435"/>
<stop offset="1" stop-color="#E55E42"/>
</radialGradient>
<radialGradient id="paint6_radial_313_2406" cx="0" cy="0" r="1" gradientUnits="userSpaceOnUse" gradientTransform="translate(140.828 82.3271) scale(100.878 100.878)">
<stop offset="0.01" stop-color="#FF99FF"/>
<stop offset="0.09" stop-color="#FB93FF"/>
<stop offset="0.21" stop-color="#F182FF"/>
<stop offset="0.34" stop-color="#DF67FF"/>
<stop offset="0.49" stop-color="#C740FF"/>
<stop offset="0.64" stop-color="#A80FFF"/>
<stop offset="0.68" stop-color="#9E00FF"/>
<stop offset="0.83" stop-color="#9C00FD"/>
<stop offset="0.88" stop-color="#9600F6"/>
<stop offset="0.92" stop-color="#8C00EB"/>
<stop offset="0.95" stop-color="#7D00DA"/>
<stop offset="0.98" stop-color="#6900C4"/>
<stop offset="1" stop-color="#5200AA"/>
</radialGradient>
<radialGradient id="paint7_radial_313_2406" cx="0" cy="0" r="1" gradientUnits="userSpaceOnUse" gradientTransform="translate(94.8858 -0.972574) scale(66.3907 66.3907)">
<stop stop-color="white"/>
<stop offset="1" stop-color="#623964"/>
</radialGradient>
<radialGradient id="paint8_radial_313_2406" cx="0" cy="0" r="1" gradientUnits="userSpaceOnUse" gradientTransform="translate(54.71 77.0241) scale(11.1194)">
<stop stop-color="white"/>
<stop offset="1" stop-color="#623964"/>
</radialGradient>
<linearGradient id="paint9_linear_313_2406" x1="21.457" y1="76.0694" x2="54.8108" y2="76.0694" gradientUnits="userSpaceOnUse">
<stop stop-color="#B2A5DA"/>
<stop offset="0.41" stop-color="#A585BD"/>
<stop offset="0.76" stop-color="#9C71AA"/>
<stop offset="1" stop-color="#9969A3"/>
</linearGradient>
<radialGradient id="paint10_radial_313_2406" cx="0" cy="0" r="1" gradientUnits="userSpaceOnUse" gradientTransform="translate(1.65599 83.218) scale(16.7847 16.7848)">
<stop stop-color="white"/>
<stop offset="1" stop-color="#623964"/>
</radialGradient>
<linearGradient id="paint11_linear_313_2406" x1="19.4001" y1="59.9963" x2="116.073" y2="59.9963" gradientUnits="userSpaceOnUse">
<stop stop-color="#5B58A2"/>
<stop offset="0.44" stop-color="#5F59A2"/>
<stop offset="0.85" stop-color="#6A5CA1"/>
<stop offset="0.99" stop-color="#705EA1"/>
</linearGradient>
<linearGradient id="paint12_linear_313_2406" x1="19.4001" y1="60.6799" x2="116.073" y2="60.6799" gradientUnits="userSpaceOnUse">
<stop stop-color="#B2A5DA"/>
<stop offset="0.41" stop-color="#A585BD"/>
<stop offset="0.76" stop-color="#9C71AA"/>
<stop offset="1" stop-color="#9969A3"/>
</linearGradient>
<radialGradient id="paint13_radial_313_2406" cx="0" cy="0" r="1" gradientUnits="userSpaceOnUse" gradientTransform="translate(81.4799 55.8728) scale(43.0362 43.0362)">
<stop stop-color="#B0B4BC"/>
<stop offset="0.14" stop-color="#AAADBC"/>
<stop offset="0.34" stop-color="#9A9ABE"/>
<stop offset="0.57" stop-color="#807BBF"/>
<stop offset="0.75" stop-color="#685EC1"/>
<stop offset="0.97" stop-color="#7A75D7"/>
</radialGradient>
<linearGradient id="paint14_linear_313_2406" x1="4.07064" y1="148.919" x2="131.324" y2="148.919" gradientUnits="userSpaceOnUse">
<stop stop-color="#5B58A3"/>
<stop offset="0.44" stop-color="#5F59A3"/>
<stop offset="0.85" stop-color="#6A5CA2"/>
<stop offset="0.99" stop-color="#705EA2"/>
</linearGradient>
<radialGradient id="paint15_radial_313_2406" cx="0" cy="0" r="1" gradientUnits="userSpaceOnUse" gradientTransform="translate(83.9868 69.0494) scale(75.0632 75.0631)">
<stop stop-color="#B0B4BC"/>
<stop offset="0.14" stop-color="#AAADBC"/>
<stop offset="0.34" stop-color="#9A9ABE"/>
<stop offset="0.57" stop-color="#807BBF"/>
<stop offset="0.75" stop-color="#685EC1"/>
<stop offset="0.97" stop-color="#7A75D7"/>
</radialGradient>
<linearGradient id="paint16_linear_313_2406" x1="70.8378" y1="84.127" x2="79.244" y2="84.127" gradientUnits="userSpaceOnUse">
<stop stop-color="#5B58A2"/>
<stop offset="0.44" stop-color="#5F59A2"/>
<stop offset="0.85" stop-color="#6A5CA1"/>
<stop offset="0.99" stop-color="#705EA1"/>
</linearGradient>
<linearGradient id="paint17_linear_313_2406" x1="29.5369" y1="88.9335" x2="79.2439" y2="88.9335" gradientUnits="userSpaceOnUse">
<stop stop-color="#B2A5DA"/>
<stop offset="0.41" stop-color="#A585BD"/>
<stop offset="0.76" stop-color="#9C71AA"/>
<stop offset="1" stop-color="#9969A3"/>
</linearGradient>
<radialGradient id="paint18_radial_313_2406" cx="0" cy="0" r="1" gradientUnits="userSpaceOnUse" gradientTransform="translate(85.8139 135.775) scale(57.6723 57.6724)">
<stop stop-color="#B1B5BD"/>
<stop offset="0.14" stop-color="#ABAEBD"/>
<stop offset="0.34" stop-color="#9B9BBF"/>
<stop offset="0.57" stop-color="#817CC0"/>
<stop offset="0.75" stop-color="#685EC2"/>
<stop offset="0.97" stop-color="#7A75D8"/>
</radialGradient>
<radialGradient id="paint19_radial_313_2406" cx="0" cy="0" r="1" gradientUnits="userSpaceOnUse" gradientTransform="translate(65.7878 147.152) scale(37.6371 37.6372)">
<stop offset="0.01" stop-color="#60DAFF"/>
<stop offset="0.18" stop-color="#56D4FF"/>
<stop offset="0.48" stop-color="#3CC3FF"/>
<stop offset="0.86" stop-color="#12A8FF"/>
<stop offset="1" stop-color="#009CFF"/>
</radialGradient>
<linearGradient id="paint20_linear_313_2406" x1="7.49545" y1="111.526" x2="7.49545" y2="86.0595" gradientUnits="userSpaceOnUse">
<stop stop-color="#9969A3"/>
<stop offset="0.13" stop-color="#A175AA"/>
<stop offset="0.38" stop-color="#B795BE"/>
<stop offset="0.69" stop-color="#D9C8DD"/>
<stop offset="1" stop-color="white"/>
</linearGradient>
<linearGradient id="paint21_linear_313_2406" x1="125.774" y1="111.526" x2="125.774" y2="86.0593" gradientUnits="userSpaceOnUse">
<stop stop-color="#9969A3"/>
<stop offset="0.13" stop-color="#A175AA"/>
<stop offset="0.38" stop-color="#B795BE"/>
<stop offset="0.69" stop-color="#D9C8DD"/>
<stop offset="1" stop-color="white"/>
</linearGradient>
<linearGradient id="paint22_linear_313_2406" x1="66.4443" y1="126.502" x2="69.0291" y2="126.502" gradientUnits="userSpaceOnUse">
<stop stop-color="#B2A5DA"/>
<stop offset="0.41" stop-color="#A585BD"/>
<stop offset="0.76" stop-color="#9C71AA"/>
<stop offset="1" stop-color="#9969A3"/>
</linearGradient>
<linearGradient id="paint23_linear_313_2406" x1="26.668" y1="128.825" x2="34.4589" y2="128.825" gradientUnits="userSpaceOnUse">
<stop stop-color="#B2A5DA"/>
<stop offset="0.41" stop-color="#A585BD"/>
<stop offset="0.76" stop-color="#9C71AA"/>
<stop offset="1" stop-color="#9969A3"/>
</linearGradient>
<linearGradient id="paint24_linear_313_2406" x1="109.513" y1="128.857" x2="101.52" y2="128.857" gradientUnits="userSpaceOnUse">
<stop stop-color="#B2A5DA"/>
<stop offset="0.41" stop-color="#A585BD"/>
<stop offset="0.76" stop-color="#9C71AA"/>
<stop offset="1" stop-color="#9969A3"/>
</linearGradient>
<radialGradient id="paint25_radial_313_2406" cx="0" cy="0" r="1" gradientUnits="userSpaceOnUse" gradientTransform="translate(68.6572 126.502) scale(11.5281 11.528)">
<stop stop-color="white"/>
<stop offset="1" stop-color="#623964"/>
</radialGradient>
<radialGradient id="paint26_radial_313_2406" cx="0" cy="0" r="1" gradientUnits="userSpaceOnUse" gradientTransform="translate(106.451 128.976) scale(11.753 11.753)">
<stop stop-color="white"/>
<stop offset="1" stop-color="#623964"/>
</radialGradient>
<radialGradient id="paint27_radial_313_2406" cx="0" cy="0" r="1" gradientUnits="userSpaceOnUse" gradientTransform="translate(31.6488 128.71) scale(11.7438 11.7438)">
<stop stop-color="white"/>
<stop offset="1" stop-color="#623964"/>
</radialGradient>
<linearGradient id="paint28_linear_313_2406" x1="65.7971" y1="49.3446" x2="67.7345" y2="49.3446" gradientUnits="userSpaceOnUse">
<stop stop-color="#B2A5DA"/>
<stop offset="0.41" stop-color="#A585BD"/>
<stop offset="0.76" stop-color="#9C71AA"/>
<stop offset="1" stop-color="#9969A3"/>
</linearGradient>
<linearGradient id="paint29_linear_313_2406" x1="35.0417" y1="52.2601" x2="37.2271" y2="52.2601" gradientUnits="userSpaceOnUse">
<stop stop-color="#B2A5DA"/>
<stop offset="0.41" stop-color="#A585BD"/>
<stop offset="0.76" stop-color="#9C71AA"/>
<stop offset="1" stop-color="#9969A3"/>
</linearGradient>
<linearGradient id="paint30_linear_313_2406" x1="95.8955" y1="51.8606" x2="98.3655" y2="51.8606" gradientUnits="userSpaceOnUse">
<stop stop-color="#B2A5DA"/>
<stop offset="0.41" stop-color="#A585BD"/>
<stop offset="0.76" stop-color="#9C71AA"/>
<stop offset="1" stop-color="#9969A3"/>
</linearGradient>
<radialGradient id="paint31_radial_313_2406" cx="0" cy="0" r="1" gradientUnits="userSpaceOnUse" gradientTransform="translate(36.8048 52.0629) scale(4.80679)">
<stop stop-color="white"/>
<stop offset="1" stop-color="#623964"/>
</radialGradient>
<radialGradient id="paint32_radial_313_2406" cx="0" cy="0" r="1" gradientUnits="userSpaceOnUse" gradientTransform="translate(67.7894 49.3586) scale(4.85267 4.8527)">
<stop stop-color="white"/>
<stop offset="1" stop-color="#623964"/>
</radialGradient>
<radialGradient id="paint33_radial_313_2406" cx="0" cy="0" r="1" gradientUnits="userSpaceOnUse" gradientTransform="translate(98.1224 51.98) scale(4.80682 4.80679)">
<stop stop-color="white"/>
<stop offset="1" stop-color="#623964"/>
</radialGradient>
<radialGradient id="paint34_radial_313_2406" cx="0" cy="0" r="1" gradientUnits="userSpaceOnUse" gradientTransform="translate(92.5397 127.892) scale(14.3699 14.3699)">
<stop stop-color="white"/>
<stop offset="1" stop-color="#623964"/>
</radialGradient>
<radialGradient id="paint35_radial_313_2406" cx="0" cy="0" r="1" gradientUnits="userSpaceOnUse" gradientTransform="translate(88.991 50.7453) scale(7.21249 7.21249)">
<stop stop-color="white"/>
<stop offset="1" stop-color="#623964"/>
</radialGradient>
<radialGradient id="paint36_radial_313_2406" cx="0" cy="0" r="1" gradientUnits="userSpaceOnUse" gradientTransform="translate(66.9631 116.966) scale(95.0432 95.0432)">
<stop stop-color="#067FFF"/>
<stop offset="0.17" stop-color="#0562C5"/>
<stop offset="0.4" stop-color="#034080"/>
<stop offset="0.6" stop-color="#022449"/>
<stop offset="0.78" stop-color="#011121"/>
<stop offset="0.92" stop-color="#000409"/>
<stop offset="1"/>
</radialGradient>
<radialGradient id="paint37_radial_313_2406" cx="0" cy="0" r="1" gradientUnits="userSpaceOnUse" gradientTransform="translate(76.7868 21.6916) rotate(3.63) scale(19.5669 19.5669)">
<stop offset="0.01" stop-color="#F3FF09"/>
<stop offset="0.07" stop-color="#DEE908"/>
<stop offset="0.27" stop-color="#9BA306"/>
<stop offset="0.46" stop-color="#646904"/>
<stop offset="0.63" stop-color="#393C02"/>
<stop offset="0.78" stop-color="#1A1B01"/>
<stop offset="0.91" stop-color="#070700"/>
<stop offset="1"/>
</radialGradient>
<radialGradient id="paint38_radial_313_2406" cx="0" cy="0" r="1" gradientUnits="userSpaceOnUse" gradientTransform="translate(123.01 63.4809) scale(7.50172 7.50173)">
<stop stop-color="white"/>
<stop offset="1" stop-color="#623964"/>
</radialGradient>
<radialGradient id="paint39_radial_313_2406" cx="0" cy="0" r="1" gradientUnits="userSpaceOnUse" gradientTransform="translate(65.7953 155.731) scale(46.5254)">
<stop stop-color="#067FFF"/>
<stop offset="0.17" stop-color="#0562C5"/>
<stop offset="0.4" stop-color="#034080"/>
<stop offset="0.6" stop-color="#022449"/>
<stop offset="0.78" stop-color="#011121"/>
<stop offset="0.92" stop-color="#000409"/>
<stop offset="1"/>
</radialGradient>
<linearGradient id="paint40_linear_313_2406" x1="49.9213" y1="62.5213" x2="52.1204" y2="62.5213" gradientUnits="userSpaceOnUse">
<stop stop-color="#B2A5DA"/>
<stop offset="0.41" stop-color="#A585BD"/>
<stop offset="0.76" stop-color="#9C71AA"/>
<stop offset="1" stop-color="#9969A3"/>
</linearGradient>
<linearGradient id="paint41_linear_313_2406" x1="50.2654" y1="62.5168" x2="52.01" y2="62.5168" gradientUnits="userSpaceOnUse">
<stop stop-color="#5B58A2"/>
<stop offset="0.44" stop-color="#5F59A2"/>
<stop offset="0.85" stop-color="#6A5CA1"/>
<stop offset="0.99" stop-color="#705EA1"/>
</linearGradient>
<linearGradient id="paint42_linear_313_2406" x1="50.0315" y1="90.2003" x2="52.226" y2="90.2003" gradientUnits="userSpaceOnUse">
<stop stop-color="#B2A5DA"/>
<stop offset="0.41" stop-color="#A585BD"/>
<stop offset="0.76" stop-color="#9C71AA"/>
<stop offset="1" stop-color="#9969A3"/>
</linearGradient>
<linearGradient id="paint43_linear_313_2406" x1="50.376" y1="90.2004" x2="52.1206" y2="90.2004" gradientUnits="userSpaceOnUse">
<stop stop-color="#5B58A2"/>
<stop offset="0.44" stop-color="#5F59A2"/>
<stop offset="0.85" stop-color="#6A5CA1"/>
<stop offset="0.99" stop-color="#705EA1"/>
</linearGradient>
<linearGradient id="paint44_linear_313_2406" x1="28.4399" y1="92.7392" x2="30.6344" y2="92.7392" gradientUnits="userSpaceOnUse">
<stop stop-color="#B2A5DA"/>
<stop offset="0.41" stop-color="#A585BD"/>
<stop offset="0.76" stop-color="#9C71AA"/>
<stop offset="1" stop-color="#9969A3"/>
</linearGradient>
<linearGradient id="paint45_linear_313_2406" x1="28.7844" y1="92.739" x2="30.529" y2="92.739" gradientUnits="userSpaceOnUse">
<stop stop-color="#5B58A2"/>
<stop offset="0.44" stop-color="#5F59A2"/>
<stop offset="0.85" stop-color="#6A5CA1"/>
<stop offset="0.99" stop-color="#705EA1"/>
</linearGradient>
</defs>
</svg>
