<svg width="88" height="137" viewBox="0 0 88 137" fill="none" xmlns="http://www.w3.org/2000/svg">
<path d="M47.3438 137V111.609C55.2865 110.828 59.974 107.508 61.4062 101.648C61.6667 100.477 61.7969 99.2396 61.7969 97.9375C61.7969 90.125 58.151 85.1771 50.8594 83.0938C47.0833 81.9219 42.3307 81.3359 36.6016 81.3359V55.9453C51.4453 55.9453 59.7135 51.9089 61.4062 43.8359C61.6667 42.4036 61.7969 40.9062 61.7969 39.3438C61.7969 32.1823 57.8906 27.7552 50.0781 26.0625C49.0365 25.9323 48.125 25.8021 47.3438 25.6719V0.28125C58.2812 0.28125 67.5911 3.73177 75.2734 10.6328C83.2161 17.7943 87.1875 27.2995 87.1875 39.1484C87.1875 51.9089 83.2812 61.4141 75.4688 67.6641C74.9479 68.0547 74.4922 68.3802 74.1016 68.6406C81.263 73.4583 85.4948 81.2057 86.7969 91.8828C87.0573 93.9661 87.1875 96.0495 87.1875 98.1328C87.1875 114.148 80.4818 125.542 67.0703 132.312C60.6901 135.438 54.1146 137 47.3438 137ZM0.859375 102.039L24.4922 97.5469C24.4922 104.448 27.4219 108.94 33.2812 111.023C34.5833 111.414 35.6901 111.609 36.6016 111.609V137C26.1849 137 17.2656 132.768 9.84375 124.305C3.85417 117.404 0.859375 109.982 0.859375 102.039ZM0.859375 35.2422C0.859375 25.4766 4.89583 16.9479 12.9688 9.65625C20 3.40625 27.8776 0.28125 36.6016 0.28125V25.6719C31.1328 26.3229 27.4219 29.0573 25.4688 33.875C24.8177 35.6979 24.4922 37.651 24.4922 39.7344L0.859375 35.2422Z" fill="#2B7EB1" fill-opacity="0.7"/>
</svg>
