<svg width="107" height="171" viewBox="0 0 107 171" fill="none" xmlns="http://www.w3.org/2000/svg">
<path d="M0.324219 43.8027C0.324219 31.5957 5.36979 20.9349 15.4609 11.8203C24.25 4.00781 34.097 0.101562 45.002 0.101562V31.8398C40.4447 31.8398 36.5384 33.8743 33.2832 37.9434C31.0046 41.1986 29.8652 45.0234 29.8652 49.418L0.324219 43.8027ZM5.45117 171V137.309H104.084V171H5.45117ZM5.45117 124.613C5.45117 113.708 12.694 102.722 27.1797 91.6543C29.2956 90.0267 32.5508 87.6667 36.9453 84.5742C41.0143 81.8073 43.8626 79.7728 45.4902 78.4707C47.1178 77.1686 49.6406 75.2969 53.0586 72.8555C63.8008 65.2057 70.3926 59.265 72.834 55.0332C74.1361 52.5918 74.7871 50.3132 74.7871 48.1973C74.7871 39.7337 70.8809 34.5254 63.0684 32.5723C61.4408 32.084 59.8945 31.8398 58.4297 31.8398V0.101562C79.1003 0.101562 93.4232 8.1582 101.398 24.2715C104.816 31.4329 106.525 39.3268 106.525 47.9531C106.525 60.6484 102.212 71.472 93.5859 80.4238C89.3542 84.8184 83.7389 89.5384 76.7402 94.584C74.1361 96.5371 70.2298 99.1413 65.0215 102.396C54.6048 109.395 48.2572 114.604 45.9785 118.021C44.6764 120.3 44.0254 122.497 44.0254 124.613H5.45117Z" fill="#2B7EB1" fill-opacity="0.8"/>
</svg>
