<svg width="128" height="171" viewBox="0 0 128 171" fill="none" xmlns="http://www.w3.org/2000/svg">
<path d="M86.0032 74.24C82.4604 74.0612 83.278 66.9587 84.2999 65.8942C85.3219 64.8297 86.0032 65.6217 86.0032 65.6217C86.0032 65.6217 85.5602 64.8808 84.1295 65.2555C82.6988 65.6302 81.1574 67.2398 81.1744 71.1231C81.1241 71.7118 81.235 72.303 81.4952 72.8333C81.7555 73.3637 82.1551 73.8132 82.6515 74.1336C83.1478 74.454 83.722 74.6332 84.3125 74.6519C84.903 74.6707 85.4875 74.5283 86.0032 74.24Z" fill="#CF4060"/>
<path d="M126.787 68.6195L127.477 68.2959C126.787 74.9215 125.544 81.6322 124.471 84.4767C122.614 89.416 120.851 90.8979 120.212 91.2896C120.147 91.3386 120.075 91.3787 120 91.4088L124.445 64.157C124.632 65.4387 125.158 66.6472 125.969 67.6572C126.429 68.2022 126.787 68.6195 126.787 68.6195Z" fill="#CF4060"/>
<path d="M127.962 61.4657C127.523 61.5508 127.093 61.6763 126.676 61.8404C126.216 61.9721 125.79 62.2016 125.427 62.5132C125.064 62.8248 124.773 63.2111 124.573 63.6458L126.497 51.8679C127.741 52.8473 128.133 56.6796 127.962 61.4657Z" fill="#CF4060"/>
<path d="M88.1917 73.15C86.8717 74.5296 83.2864 74.981 82.1026 73.8399C80.5357 72.3666 81.7705 66.831 84.3424 65.4343C86.9143 64.0377 89.5373 71.7448 88.1917 73.15ZM124.573 63.6289C124.773 63.1942 125.064 62.8079 125.427 62.4963C125.79 62.1847 126.216 61.9551 126.676 61.8235C127.153 56.8245 127.179 52.9071 126.498 51.8511C126.08 51.2209 124.539 50.8376 122.239 50.6417C120.357 53.3754 119.497 51.9703 119.14 50.4714C107.217 50.2159 85.0749 52.9241 82.7159 54.7295C79.5819 57.1652 77.9894 84.2637 79.5904 87.2188C81.1914 90.1739 116.908 92.4988 120.025 91.3492C120.101 91.319 120.173 91.2789 120.238 91.2299C122.052 89.7651 124.598 77.9191 125.995 67.5549C125.184 66.545 124.658 65.3365 124.471 64.0547L124.564 63.6204L124.573 63.6289Z" fill="#FFBDB3"/>
<g style="mix-blend-mode:multiply" opacity="0.5">
<path d="M124.581 63.6289C124.777 63.1928 125.066 62.8051 125.428 62.4931C125.79 62.1811 126.216 61.9525 126.676 61.8234C127.145 56.8244 127.179 52.907 126.497 51.851C126.08 51.2293 124.53 50.8376 122.239 50.6332C120.349 53.3754 119.497 51.9702 119.139 50.4799C107.217 50.2159 85.0747 52.924 82.7242 54.738C79.5818 57.1821 77.9892 84.2721 79.5902 87.2187C81.1913 90.1653 116.9 92.4988 120.034 91.3661L120.238 91.2299C122.052 89.7736 124.598 77.9276 125.995 67.5719C125.322 66.6095 124.454 65.1362 124.479 64.0547L124.564 63.6289H124.581ZM123.381 67.8273C126.617 73.431 124.011 79.4434 121.473 84.4339C118.935 89.4244 106.927 92.0133 102.567 90.0461C98.2066 88.0789 81.0891 86.5119 79.8798 82.9436C78.6705 79.3753 79.488 57.2503 84.3849 55.0786C89.3501 54.1142 94.3747 53.4854 99.4245 53.1965C108.724 52.5834 123.687 51.8254 125.475 53.7841C127.264 55.7429 120.136 62.2407 123.381 67.8273Z" fill="#FFB4BA"/>
</g>
<g style="mix-blend-mode:multiply" opacity="0.3">
<path d="M121.524 76.4459C120.23 84.8685 103.555 86.6653 97.2701 87.4744C90.9852 88.2834 89.0179 74.6405 89.3926 65.1279C89.7673 55.6153 100.191 53.2052 110.513 53.9036C120.834 54.6019 122.648 69.1305 121.524 76.4459Z" fill="#F96FFF"/>
</g>
<path d="M95.8136 61.7127C102.422 50.3095 113.212 62.0534 118.662 69.735C124.113 77.4166 105.888 81.6577 103.086 84.979C100.285 88.3003 91.9217 84.9023 90.6017 75.0746C89.2817 65.2469 103.206 65.3407 105.999 62.9732C108.792 60.6057 111.415 73.1245 110.257 76.0114C109.099 78.8984 103.776 81.4277 99.3308 79.0432C94.8853 76.6587 96.8866 70.7229 101.937 68.2958C106.987 65.8687 106.254 69.5647 106.816 71.4042C107.378 73.2437 102.363 73.959 100.719 72.4943C99.0753 71.0295 98.428 76.8886 101.085 78.66C103.742 80.4313 108.98 75.8922 109.031 72.2303C109.082 68.5683 107.549 65.3492 100.038 66.6777C92.5263 68.0062 92.2282 75.4834 94.1614 80.1333C96.0946 84.7831 103.342 83.5398 110.938 79.5201C118.535 75.5005 112.011 66.8906 108.545 62.1301C105.079 57.3695 98.8879 64.8637 96.6226 64.3528C94.3573 63.8418 95.8136 61.7127 95.8136 61.7127Z" fill="#7770FF"/>
<path d="M127.963 61.4658C127.963 61.4658 125.144 62.7518 124.965 64.0973C124.786 65.4429 127.52 68.3128 127.52 68.3128L126.83 68.6364C126.83 68.6364 124.079 65.9198 124.335 63.9611C124.59 62.0023 127.963 61.4658 127.963 61.4658Z" fill="#CF4060"/>
<path d="M127.476 68.2788C126.964 68.1728 126.463 68.0217 125.978 67.8274C125.296 67.5293 124.112 64.983 124.274 64.4805C124.436 63.9781 127.476 68.2788 127.476 68.2788Z" fill="#FFC4B6"/>
<path d="M66.2539 69.3518C71.5084 64.0803 83.2863 66.7203 84.3508 68.117C85.4153 69.5136 84.5893 71.6256 82.8094 70.9188C81.0295 70.2119 79.4029 68.9089 74.2932 69.3177C69.1835 69.7265 68.9195 72.6391 66.9267 71.7534C66.6766 71.6982 66.4463 71.5761 66.2602 71.4001C66.0741 71.2241 65.9393 71.0009 65.8703 70.7543C65.8012 70.5077 65.8004 70.247 65.868 69.9999C65.9355 69.7529 66.0689 69.5289 66.2539 69.3518Z" fill="url(#paint0_linear_26_664)"/>
<path d="M107.694 110.178C106.365 101.407 103.112 93.9977 99.1774 89.9099C80.5099 70.3226 67.2502 72.375 65.9643 67.2142C65.5444 65.8553 65.5655 64.3983 66.0245 63.0521C66.4834 61.7059 67.3567 60.5395 68.5191 59.72L52.3384 61.4232L36.0725 60.7504C37.2771 61.5036 38.2161 62.6145 38.7582 63.9277C39.3003 65.2409 39.4183 66.6908 39.0957 68.0744C38.1504 73.2948 24.8055 72.0855 7.40694 92.7713C2.84226 98.2132 -0.402428 108.884 0.0404142 120.619V120.67C0.892034 142.48 14.4584 167.935 55.7704 170.482C101.528 164.801 111.168 133.002 107.694 110.178ZM6.25728 112.103C11.9205 81.1041 38.985 75.4153 41.7187 71.5745C44.4524 67.7337 43.243 61.7894 43.243 61.7894L59.9944 61.2614C59.9944 61.2614 59.1428 67.2227 62.132 70.9273C65.1212 74.6318 92.4667 78.5918 100.072 109.156C107.677 139.721 83.5161 157.988 54.7399 160.867C25.87 159.802 0.636623 143.119 6.29137 112.103H6.25728Z" fill="url(#paint1_linear_26_664)"/>
<path d="M23.0171 40.0136C21.6034 42.2533 24.0987 54.3719 26.2703 57.5399C31.1586 64.6594 72.377 61.1508 76.2944 56.7905C79.3007 53.4436 79.8116 39.8262 78.8493 37.8164C77.887 35.8066 23.0171 40.0136 23.0171 40.0136Z" fill="url(#paint2_linear_26_664)"/>
<path d="M23.0173 40.0137C21.8506 45.1234 78.3727 46.6308 78.8751 37.8165C79.3776 29.0023 25.6063 28.7809 23.0173 40.0137Z" fill="#EBC3D3"/>
<g style="mix-blend-mode:multiply" opacity="0.5">
<path d="M31.7886 39.3238C30.9881 42.8239 69.5835 42.6536 69.9327 36.6156C70.2819 30.5776 33.6026 31.6592 31.7886 39.3238Z" fill="#9A376D"/>
</g>
<g style="mix-blend-mode:multiply" opacity="0.3">
<path d="M30.469 43.9311C24.712 42.7218 27.5821 51.3828 30.8523 56.2456C34.1225 61.1083 70.393 59.8564 73.4332 52.4133C76.4735 44.9701 73.2289 45.8984 59.4156 45.8388C49.7407 45.6939 40.0793 45.0571 30.469 43.9311Z" fill="#9A376D"/>
</g>
<path opacity="0.45" d="M35.1612 44.655C33.1429 44.2292 38.2441 53.9035 45.8064 57.574C53.3688 61.2445 66.4582 53.1711 68.2551 46.0686C68.2551 46.0686 46.9817 45.6088 35.1612 44.655Z" fill="url(#paint3_linear_26_664)"/>
<path d="M54.2801 41.4188C43.209 42.7984 61.4507 44.1695 67.148 43.0283C72.8454 41.8872 79.224 38.9491 78.4491 37.595C77.9636 36.7434 68.8172 38.9746 63.2221 40.1498C60.2855 40.84 57.2928 41.2647 54.2801 41.4188Z" fill="white"/>
<path d="M77.1208 49.4495C75.2728 49.0833 70.9977 55.1298 68.6046 57.5484C66.2116 59.967 74.2764 57.9913 76.5162 54.9936C78.7559 51.9959 78.0746 49.6369 77.1208 49.4495Z" fill="white"/>
<path d="M24.3459 38.634C23.0174 40.0136 24.5418 41.6743 27.2244 42.2704C29.907 42.8665 27.829 38.5147 26.8156 38.2337C25.971 38.1284 25.114 38.2673 24.3459 38.634Z" fill="white"/>
<g style="mix-blend-mode:soft-light">
<path d="M37.3923 61.2444C33.0405 60.6227 31.6269 49.6453 33.2195 47.6184C34.812 45.5916 51.7932 59.1238 49.7493 60.8185C47.7054 62.5133 37.3923 61.2444 37.3923 61.2444Z" fill="white"/>
</g>
<g style="mix-blend-mode:soft-light">
<path d="M23.9796 43.5819C23.4175 44.987 24.7035 52.4387 26.049 55.5045C27.3946 58.5704 29.4555 58.911 30.3071 59.1069C31.1588 59.3027 27.3605 51.5275 26.1171 47.6781C24.4224 42.4577 24.4224 42.4577 23.9796 43.5819Z" fill="white"/>
</g>
<g style="mix-blend-mode:multiply" opacity="0.3">
<path d="M27.0198 35.8661C23.8007 38.4209 22.5403 39.5365 35.9448 35.8661C49.3493 32.1956 64.9679 32.8684 68.3063 34.1032C71.6446 35.3381 70.9293 38.4891 77.0013 37.1009C83.0733 35.7128 67.8549 30.6627 50.4138 31.4717C32.9726 32.2808 27.0198 35.8661 27.0198 35.8661Z" fill="#9A376D"/>
</g>
<path d="M34.582 40.8054C34.582 40.8054 32.6828 27.5713 27.0962 6.51071C27.0962 6.51071 61.9274 -6.35725 79.3601 11.7311C79.3601 11.7311 69.7027 25.9362 68.8682 38.9319C68.8682 38.9319 56.0598 43.3688 34.582 40.8054Z" fill="url(#paint4_linear_26_664)"/>
<path d="M78.6107 12.8725C69.9498 22.8279 22.4039 9.78108 27.4199 5.52298C32.436 1.26489 41.4546 -0.199918 50.6521 0.0215028C51.2482 0.353634 53.2069 1.40114 54.4418 1.36708C55.563 1.24947 56.66 0.962321 57.695 0.515456L58.6488 0.626171C58.6488 0.626171 58.5551 4.82468 62.5748 1.23936C74.1738 3.42803 82.8177 8.04378 78.6107 12.8725Z" fill="#FF7A00"/>
<g style="mix-blend-mode:multiply" opacity="0.5">
<path d="M39.2491 41.2654C39.2491 41.2654 35.4168 15.0355 37.6054 11.876C39.7941 8.7165 55.1147 4.21144 66.3817 5.54848C77.6486 6.88553 79.156 12.1911 79.156 12.1911C79.156 12.1911 73.6801 5.50587 63.2307 6.36601C52.7813 7.22614 41.0886 9.30408 39.7941 13.6473C38.4997 17.9906 42.102 41.4527 42.102 41.4527L39.2491 41.2654Z" fill="#B10053"/>
</g>
<g style="mix-blend-mode:multiply" opacity="0.5">
<path d="M47.007 41.6486C47.007 41.6486 45.704 19.762 49.0339 14.7545C52.3637 9.74695 76.8563 14.2946 76.8563 14.2946C76.8563 14.2946 54.5949 11.7397 50.5242 15.0355C46.4534 18.3312 50.6264 41.5379 50.6264 41.5379L47.007 41.6486Z" fill="#B10053"/>
</g>
<g style="mix-blend-mode:multiply" opacity="0.5">
<path d="M56.7581 41.0696C56.7581 41.0696 54.8249 28.0909 62.6428 23.0323C70.4606 17.9737 72.5812 24.5482 72.5812 24.5482L71.125 28.406C71.125 28.406 69.047 21.5931 62.9664 24.8377C56.8858 28.0824 58.1632 41.0185 58.1632 41.0185L56.7581 41.0696Z" fill="#B10053"/>
</g>
<path d="M40.1261 26.4473C40.1261 26.4473 36.7196 15.6913 37.5712 11.8761C38.4229 8.06082 59.1854 6.76636 59.1854 6.76636C59.1854 6.76636 43.8562 8.6825 40.2198 12.6766C37.7671 15.4018 40.1261 26.4473 40.1261 26.4473Z" fill="#97001A"/>
<path d="M48.7613 24.6079C48.7613 24.6079 47.3987 15.666 50.0642 13.8265C52.7298 11.987 61.4504 13.341 61.4504 13.341C61.4504 13.341 53.0024 12.7534 50.5242 15.0443C48.0459 17.3351 48.7613 24.6079 48.7613 24.6079Z" fill="#97001A"/>
<g style="mix-blend-mode:soft-light" opacity="0.5">
<path d="M29.0892 4.93526C26.628 5.58249 34.1479 10.2749 36.0896 10.7177C38.0313 11.1606 44.1033 7.76264 47.5353 7.12393C50.9673 6.48521 32.5638 4.01551 29.0892 4.93526Z" fill="white"/>
</g>
<g style="mix-blend-mode:soft-light" opacity="0.5">
<path d="M40.7563 12.1911C40.7563 12.1911 47.2883 14.8652 48.1995 14.5927C49.1107 14.3202 51.7848 12.8894 53.3092 12.1655C54.8336 11.4417 48.6083 7.81378 40.7563 12.1911Z" fill="white"/>
</g>
<g style="mix-blend-mode:soft-light" opacity="0.5">
<path d="M51.6655 15.2399C51.6655 15.2399 62.4215 16.7047 67.5909 16.4833C72.7602 16.2618 74.3527 15.4017 74.3527 15.4017C74.3527 15.4017 62.1319 11.2202 51.6655 15.2399Z" fill="white"/>
</g>
<path d="M49.7837 16.0916C50.6598 16.0681 51.5249 15.8893 52.3385 15.5636C52.5694 15.3808 52.751 15.1433 52.867 14.8727C52.9829 14.6021 53.0296 14.3069 53.0028 14.0137C51.7169 14.3017 50.5757 15.0384 49.7837 16.0916Z" fill="#FFA457"/>
<path d="M39.4277 14.4395C39.4277 14.4395 41.4972 14.0392 41.6845 13.0683C41.8719 12.0975 41.3099 11.8931 41.3099 11.8931C41.3099 11.8931 40.1261 12.1486 39.4277 14.4395Z" fill="#FFA457"/>
<g style="mix-blend-mode:multiply" opacity="0.3">
<path d="M51.3421 41.0271C51.3421 41.0271 49.3323 23.2623 50.0903 19.8133C50.8482 16.3642 60.3097 17.1392 66.271 17.3606C72.2324 17.582 65.2662 17.5224 60.5567 23.7903C55.8472 30.0582 56.486 39.3749 55.6684 40.3373C54.8509 41.2996 51.3421 41.0271 51.3421 41.0271Z" fill="#D42F55"/>
</g>
<g style="mix-blend-mode:multiply" opacity="0.3">
<path d="M41.7952 14.8057C40.8584 15.0441 40.2538 27.4522 42.4509 35.764C44.6481 44.0758 46.1895 37.2458 46.4791 35.5C46.7686 33.7542 46.7686 18.7401 47.3307 17.122C47.8928 15.504 41.7952 14.8057 41.7952 14.8057Z" fill="#D42F55"/>
</g>
<g style="mix-blend-mode:multiply" opacity="0.3">
<path d="M36.7536 12.0719C36.7536 11.2203 28.7229 9.3467 28.8591 9.6107C28.9954 9.87471 34.1306 33.9755 35.2888 36.7603C36.447 39.5451 36.2852 26.3961 36.7536 12.0719Z" fill="#D42F55"/>
</g>
<path d="M58.1973 34.9379C58.1973 34.9379 59.4407 28.7552 61.8593 26.2174C64.2779 23.6795 66.5686 24.0543 66.5686 24.0543C66.5686 24.0543 64.2522 23.1175 61.2375 26.2004C58.2228 29.2832 58.1973 34.9379 58.1973 34.9379Z" fill="#FF6500"/>
<path d="M49.5023 33.916C49.5023 33.916 49.2724 22.6235 49.4597 19.9324C49.6471 17.2412 49.7492 16.0916 49.7492 16.0916C49.7492 16.0916 47.3988 19.7365 49.5023 33.916Z" fill="#FF6500"/>
<path d="M58.649 0.634766L60.4374 2.63605C60.4374 2.63605 58.5979 3.41956 58.649 0.634766Z" fill="#E23100"/>
<path d="M50.6353 0.0214844C52.9073 0.758373 55.3246 0.93085 57.6782 0.523963C56.6079 1.21331 55.3428 1.53697 54.0729 1.44638C52.8031 1.35578 51.5969 0.855794 50.6353 0.0214844Z" fill="#E23100"/>
<path d="M77.5976 10.4624C77.5976 10.4624 78.4492 12.7533 78.2874 13.2132C78.014 13.7982 77.707 14.3669 77.3677 14.9164C77.3677 14.9164 79.0709 12.3615 79.122 12.1486C79.1731 11.9357 77.5976 10.4624 77.5976 10.4624Z" fill="#97001A"/>
<g style="mix-blend-mode:multiply" opacity="0.8">
<path d="M33.8496 36.4114C33.8496 36.4114 35.4932 41.0782 51.3078 40.7205C67.1224 40.3629 69.1918 36.0452 69.1918 36.0452L68.8682 38.9321C68.8682 38.9321 55.8895 43.6416 34.582 40.8057L33.8496 36.4114Z" fill="#D42F55"/>
</g>
<path opacity="0.5" d="M54.774 160.867C25.87 159.802 0.636593 143.119 6.29134 112.103C7.46661 105.185 10.1407 98.6071 14.1262 92.8312C24.2605 78.3111 39.7258 74.4277 41.7527 71.5407C44.4864 67.6743 43.2771 61.7556 43.2771 61.7556L60.0285 61.2275C60.0285 61.2275 59.1769 67.1889 62.1661 70.8934C64.4569 73.7208 81.2593 76.7355 92.3133 92.0136C95.9933 97.1587 98.6397 102.969 100.106 109.123C107.694 139.747 83.5502 157.989 54.774 160.867Z" fill="url(#paint5_radial_26_664)"/>
<path d="M54.774 160.867C25.87 159.802 0.636593 143.119 6.29134 112.103C7.46661 105.185 10.1407 98.6071 14.1262 92.8311L54.6377 105.478L92.3133 92.0476C95.9933 97.1927 98.6397 103.003 100.106 109.157C107.694 139.747 83.5502 157.988 54.774 160.867Z" fill="url(#paint6_linear_26_664)"/>
<g style="mix-blend-mode:multiply" opacity="0.2">
<path d="M9.30615 101.688C14.1263 92.831 36.4643 107.939 53.2667 129.451C70.0692 150.963 79.1901 133.99 85.7646 120.083C92.3391 106.176 91.6237 137.115 82.6306 147.198C73.6375 157.282 97.0485 145.248 100.847 127.194C104.645 109.14 92.3305 92.0305 92.3305 92.0305C92.3305 92.0305 96.8527 104.541 89.3158 108.271C81.779 112.001 46.9052 106.15 33.2963 100.913C19.6874 95.6754 14.1434 92.814 14.1434 92.814C12.213 95.5872 10.591 98.5628 9.30615 101.688Z" fill="#9A7AFF"/>
</g>
<path d="M16.7067 91.4939C4.29857 91.2043 36.7367 108.245 70.282 110.664C103.827 113.082 94.5531 93.6314 89.8692 88.9901C85.1853 84.3488 53.3859 97.2338 39.4449 98.5708C25.5038 99.9079 21.4246 91.6046 16.7067 91.4939Z" fill="url(#paint7_linear_26_664)"/>
<g style="mix-blend-mode:soft-light" opacity="0.3">
<path d="M13.5299 143.528C0.397945 112.52 47.6968 148.859 63.3666 151.448C79.0364 154.037 85.7642 149.932 85.7642 149.932C85.7642 149.932 67.3863 162.885 47.6628 160.279C27.9393 157.673 13.5299 143.528 13.5299 143.528Z" fill="white"/>
</g>
<g style="mix-blend-mode:multiply" opacity="0.3">
<path d="M5.49902 120.474C5.49902 120.474 9.84228 161.293 54.2542 159.896C98.6662 158.499 101.57 118.26 101.57 118.26C101.57 118.26 103.887 160.305 54.8418 161.846C5.79704 163.388 5.49902 120.474 5.49902 120.474Z" fill="#9A3792"/>
</g>
<path d="M62.8302 167.688C58.3762 166.573 79.1984 159.019 90.5845 149.387C101.971 139.755 92.7731 165.628 62.8302 167.688Z" fill="white"/>
<path d="M2.56985 107.522C1.71823 116.523 12.0142 94.4577 15.6762 88.3346C19.3381 82.2114 3.99206 92.9163 2.56985 107.522Z" fill="white"/>
<path d="M17.7541 85.9412C16.2638 85.8305 19.4573 81.7853 20.8455 81.7427C22.2336 81.7002 19.6362 86.086 17.7541 85.9412Z" fill="white"/>
<path d="M92.9182 86.8016C90.6359 87.1848 97.8406 97.8045 100.506 105.852C103.172 113.9 105.744 107.436 104.943 101.594C104.143 95.7521 96.8612 86.1629 92.9182 86.8016Z" fill="white"/>
<g style="mix-blend-mode:multiply" opacity="0.5">
<path d="M36.6259 71.0125C42.9704 69.0282 38.8485 75.6027 51.6654 78.6004C64.4823 81.5981 66.6624 73.6524 65.7342 68.4831C64.8059 63.3138 68.6212 59.72 68.6212 59.72C68.6212 59.72 55.1571 63.4756 36.1489 60.7419C36.1574 60.7419 41.3864 66.022 36.6259 71.0125Z" fill="#9A376D"/>
</g>
<path style="mix-blend-mode:screen" d="M19.2702 145.895C19.2702 145.895 0.534558 133.121 9.63837 106.065C16.3832 86.0521 31.0651 79.716 31.0651 79.716C31.0651 79.716 37.0265 79.0432 38.3976 101.415C39.7687 123.787 29.3875 146.074 19.2702 145.895Z" fill="url(#paint8_linear_26_664)"/>
<path d="M23.3833 99.0735C23.3833 99.0735 39.7174 107.726 64.9424 111.558C90.1673 115.391 93.6248 104.422 93.6248 104.422C93.6248 104.422 87.5528 110.383 66.9947 109.259C46.4366 108.135 23.3833 99.0735 23.3833 99.0735Z" fill="#59C7FF"/>
<g style="mix-blend-mode:soft-light">
<path d="M55.4128 109.812C53.7096 108.739 63.929 108.509 69.175 109.812C74.421 111.115 70.9889 112.325 68.9621 112.095C66.9352 111.865 55.4128 109.812 55.4128 109.812Z" fill="white"/>
</g>
<g style="mix-blend-mode:multiply" opacity="0.2">
<path d="M35.1779 104.047C31.0135 102.471 51.4865 126.461 61.2545 136.825C71.0226 147.19 79.0449 128.514 83.6181 120.176C88.1912 111.839 91.6999 107.905 91.6999 107.905C91.6999 107.905 79.7772 112.767 67.003 111.822C54.2287 110.877 35.1779 104.047 35.1779 104.047Z" fill="#9A7AFF"/>
</g>
<g style="mix-blend-mode:multiply" opacity="0.5">
<path d="M55.8471 170.473C14.5351 167.918 0.977323 142.472 0.117188 120.662C0.321576 122.459 3.04676 167.433 54.6208 168.804C107.276 170.192 107.719 110.145 107.719 110.145C111.168 133.002 101.528 164.801 55.8471 170.473Z" fill="#9A376D"/>
</g>
<g style="mix-blend-mode:multiply" opacity="0.2">
<path d="M39.7938 108.782C18.9292 97.7109 23.0766 120.398 31.0562 133.751C39.0359 147.105 37.4774 127.85 45.3719 128.642C53.2664 129.434 53.0365 140.564 61.5527 146.389C70.0689 152.214 49.1275 157.673 43.6687 150.579C38.2098 143.485 46.7942 143.613 47.5947 145.01C48.3952 146.406 59.0574 152.027 52.3978 141.263C45.7381 130.498 41.9144 136.928 38.0821 143.502C34.2498 150.077 24.9501 144.584 16.2892 125.899C7.62821 107.215 11.6052 96.476 15.3523 96.0928C19.0994 95.7095 33.5003 104.439 52.6277 110.068C71.7551 115.697 50.4561 120.279 39.7938 108.782Z" fill="#9A7AFF"/>
</g>
<g style="mix-blend-mode:soft-light">
<path d="M38.3296 158.729C25.5553 150.043 46.9224 150.034 66.1775 152.589C85.4326 155.144 63.1798 163.941 38.3296 158.729Z" fill="white"/>
</g>
<path d="M69.2687 80.2014C59.8157 82.2709 68.1446 98.3409 78.0319 104.805C87.9192 111.269 90.1589 95.2325 86.2584 88.624C82.358 82.0154 71.7895 79.6734 69.2687 80.2014Z" fill="white"/>
<path d="M34.1053 83.4801C34.0371 78.1404 25.308 84.5191 24.8226 88.0448C24.3372 91.5705 34.1564 88.3258 34.1053 83.4801Z" fill="white"/>
<g style="mix-blend-mode:soft-light">
<path d="M69.8309 72.0259C67.1568 72.6476 79.0368 76.9652 85.1003 81.7769C91.1639 86.5885 82.6903 73.5929 69.8309 72.0259Z" fill="white"/>
</g>
<g style="mix-blend-mode:soft-light">
<path d="M9.91115 138.256C1.69302 126.777 9.50233 154.173 27.5396 162.706C45.5769 171.24 58.9559 164.512 59.6968 162.996C60.4377 161.48 43.1413 162.306 30.7417 157.588C18.3421 152.87 9.91115 138.256 9.91115 138.256Z" fill="#75FFFF"/>
</g>
<g style="mix-blend-mode:multiply" opacity="0.4">
<path d="M89.486 110.749C95.3281 104.788 96.4011 99.9336 96.58 99.5844C96.7588 99.2352 105.241 114.811 99.7225 126.938C94.204 139.065 91.7683 140.564 90.3035 136.723C88.8388 132.883 92.9862 115.697 88.149 116.012C83.3118 116.327 79.1814 135.08 71.4572 136.494C63.733 137.907 63.9119 126.036 68.5532 119.904C73.1946 113.772 71.4317 123.523 75.6216 121.147C79.8116 118.771 80.2715 113.049 63.9033 112.742C47.5352 112.435 54.9529 124.665 60.8802 120.142C66.8074 115.62 61.025 132.508 58.7767 132.917C56.5284 133.326 52.645 127.219 42.5959 115.51C32.5468 103.8 28.5016 104.2 24.7119 109.293C20.9222 114.386 31.5248 132.287 25.4612 133.138C19.3977 133.99 12.687 120.977 12.142 109.395C11.597 97.813 11.6395 96.8251 14.1773 96.1609C16.7151 95.4966 39.1298 109.174 60.4629 110.996C81.7959 112.819 89.486 110.749 89.486 110.749Z" fill="#9A7AFF"/>
</g>
<path d="M11.6307 120.602C7.19379 117.63 7.51741 128.446 10.1489 130.822C12.7804 133.198 15.6674 123.302 11.6307 120.602Z" fill="white"/>
<path d="M37.6224 61.9683C34.1478 60.8271 33.3643 66.0901 44.9123 69.224C56.4602 72.358 68.9876 66.3115 70.0436 64.0036C70.2216 63.6352 70.3155 63.2318 70.3183 62.8226C70.3212 62.4134 70.233 62.0087 70.0602 61.6378C69.8874 61.2669 69.6342 60.9391 69.3191 60.6781C69.004 60.4171 68.6348 60.2294 68.2382 60.1287C67.3865 60.0095 66.2283 62.9732 66.1176 63.6545C66.0069 64.3358 58.0102 66.7969 49.4003 66.3966C40.7905 65.9964 38.9169 64.3102 38.5507 63.5097C38.2923 62.9669 37.9813 62.4506 37.6224 61.9683Z" fill="url(#paint9_linear_26_664)"/>
<path d="M37.9201 64.8724C34.5136 63.7653 30.8517 72.9798 48.5398 75.5006C61.0586 77.2805 70.2561 70.6889 70.1624 67.8956C70.0858 65.4515 66.3216 65.6304 65.6488 65.8007C64.976 65.971 66.3216 68.1511 66.3216 68.1511C66.3216 68.1511 55.6423 72.6732 48.6845 71.4639C41.7268 70.2546 39.4871 68.2618 39.2572 67.4613C39.0272 66.6608 38.7121 65.1194 37.9201 64.8724Z" fill="url(#paint10_linear_26_664)"/>
<g style="mix-blend-mode:soft-light" opacity="0.6">
<path d="M47.7396 72.0515C45.7639 73.4566 53.5562 76.1222 58.8107 74.6574C64.0652 73.1926 67.1396 70.3482 67.0629 69.2156C66.9863 68.0829 58.2146 71.4042 54.4589 71.7704C50.7033 72.1366 47.7396 72.0515 47.7396 72.0515Z" fill="#FFB192"/>
</g>
<g style="mix-blend-mode:soft-light" opacity="0.6">
<path d="M45.2783 66.5757C44.2308 67.5295 48.0035 69.0453 54.6461 69.0624C61.2887 69.0794 66.0664 65.971 66.2112 64.9746C66.3559 63.9782 57.431 66.4649 54.2885 66.5671C51.146 66.6693 45.8489 66.0562 45.2783 66.5757Z" fill="#FFB192"/>
</g>
<defs>
<linearGradient id="paint0_linear_26_664" x1="63.9598" y1="67.2291" x2="82.5418" y2="69.6691" gradientUnits="userSpaceOnUse">
<stop stop-color="#5B1833"/>
<stop offset="1" stop-color="#6D2948"/>
</linearGradient>
<linearGradient id="paint1_linear_26_664" x1="55.3981" y1="172.854" x2="52.088" y2="62.5181" gradientUnits="userSpaceOnUse">
<stop stop-color="#E8E5ED"/>
<stop offset="0.05" stop-color="#E5DDEA"/>
<stop offset="0.28" stop-color="#DABBDC"/>
<stop offset="0.46" stop-color="#D3A7D4"/>
<stop offset="0.59" stop-color="#D19FD1"/>
<stop offset="0.64" stop-color="#BE92C3"/>
<stop offset="0.72" stop-color="#A57FB0"/>
<stop offset="0.81" stop-color="#9272A3"/>
<stop offset="0.9" stop-color="#886B9B"/>
<stop offset="1" stop-color="#846898"/>
</linearGradient>
<linearGradient id="paint2_linear_26_664" x1="22.5519" y1="52.8261" x2="79.2612" y2="51.1248" gradientUnits="userSpaceOnUse">
<stop stop-color="#9082A9"/>
<stop offset="0.22" stop-color="#9386AB"/>
<stop offset="0.42" stop-color="#9D90B3"/>
<stop offset="0.6" stop-color="#ADA3C0"/>
<stop offset="0.79" stop-color="#C4BCD1"/>
<stop offset="0.96" stop-color="#E1DDE8"/>
<stop offset="1" stop-color="#E8E5ED"/>
</linearGradient>
<linearGradient id="paint3_linear_26_664" x1="34.6333" y1="54.0662" x2="68.1189" y2="53.0616" gradientUnits="userSpaceOnUse">
<stop stop-color="#A71100"/>
<stop offset="0.39" stop-color="#D83303"/>
<stop offset="1" stop-color="#EC5C11"/>
</linearGradient>
<linearGradient id="paint4_linear_26_664" x1="27.3364" y1="24.7923" x2="79.4215" y2="23.2298" gradientUnits="userSpaceOnUse">
<stop stop-color="#A71100"/>
<stop offset="0.39" stop-color="#D83303"/>
<stop offset="1" stop-color="#EC5C11"/>
</linearGradient>
<radialGradient id="paint5_radial_26_664" cx="0" cy="0" r="1" gradientUnits="userSpaceOnUse" gradientTransform="translate(53.4613 125.059) rotate(-1.71836) scale(52.0317 52.0318)">
<stop stop-color="#E8E5ED"/>
<stop offset="0.14" stop-color="#E3DDE3"/>
<stop offset="0.42" stop-color="#DBD1D5"/>
<stop offset="0.66" stop-color="#D8CDD0"/>
<stop offset="0.68" stop-color="#D4C5CE"/>
<stop offset="0.75" stop-color="#C7ACC9"/>
<stop offset="0.83" stop-color="#BE99C5"/>
<stop offset="0.91" stop-color="#B98FC3"/>
<stop offset="1" stop-color="#B78BC2"/>
</radialGradient>
<linearGradient id="paint6_linear_26_664" x1="54.3329" y1="163.203" x2="52.2545" y2="93.9236" gradientUnits="userSpaceOnUse">
<stop stop-color="#3DFFFF"/>
<stop offset="0.32" stop-color="#4A9EFF"/>
<stop offset="1" stop-color="#6540FF"/>
</linearGradient>
<linearGradient id="paint7_linear_26_664" x1="13.9115" y1="103.777" x2="94.3298" y2="101.364" gradientUnits="userSpaceOnUse">
<stop stop-color="#3D9DFF"/>
<stop offset="1" stop-color="#65B8FF"/>
</linearGradient>
<linearGradient id="paint8_linear_26_664" x1="6.50211" y1="115.634" x2="38.3953" y2="114.677" gradientUnits="userSpaceOnUse">
<stop offset="0.02" stop-color="#008DFE"/>
<stop offset="1"/>
</linearGradient>
<linearGradient id="paint9_linear_26_664" x1="35.1328" y1="68.1581" x2="70.1003" y2="67.109" gradientUnits="userSpaceOnUse">
<stop stop-color="#5B1833"/>
<stop offset="1" stop-color="#6D2948"/>
</linearGradient>
<linearGradient id="paint10_linear_26_664" x1="34.8732" y1="72.8711" x2="69.9088" y2="71.8201" gradientUnits="userSpaceOnUse">
<stop stop-color="#5B1833"/>
<stop offset="1" stop-color="#6D2948"/>
</linearGradient>
</defs>
</svg>
